%TF.GenerationSoftware,KiCad,Pcbnew,9.0.0*%
%TF.CreationDate,2026-04-05T17:31:23+07:00*%
%TF.ProjectId,IoT2526_HK2,496f5432-3532-4365-9f48-4b322e6b6963,rev?*%
%TF.SameCoordinates,Original*%
%TF.FileFunction,Soldermask,Bot*%
%TF.FilePolarity,Negative*%
%FSLAX46Y46*%
G04 Gerber Fmt 4.6, Leading zero omitted, Abs format (unit mm)*
G04 Created by KiCad (PCBNEW 9.0.0) date 2026-04-05 17:31:23*
%MOMM*%
%LPD*%
G01*
G04 APERTURE LIST*
G04 Aperture macros list*
%AMOutline4P*
0 Free polygon, 4 corners , with rotation*
0 The origin of the aperture is its center*
0 number of corners: always 4*
0 $1 to $8 corner X, Y*
0 $9 Rotation angle, in degrees counterclockwise*
0 create outline with 4 corners*
4,1,4,$1,$2,$3,$4,$5,$6,$7,$8,$1,$2,$9*%
G04 Aperture macros list end*
%ADD10R,1.700000X1.700000*%
%ADD11O,1.700000X1.700000*%
%ADD12R,2.000000X2.000000*%
%ADD13C,2.000000*%
%ADD14Outline4P,-0.750000X-0.750000X0.750000X-0.750000X0.750000X0.750000X-0.750000X0.750000X180.000000*%
%ADD15C,1.500000*%
%ADD16O,1.800000X1.800000*%
%ADD17R,1.800000X1.800000*%
%ADD18C,3.200000*%
%ADD19C,1.800000*%
%ADD20R,1.530000X1.530000*%
%ADD21C,1.530000*%
%ADD22C,2.010000*%
%ADD23C,1.000000*%
%ADD24C,1.244600*%
%ADD25R,2.000000X1.700000*%
%ADD26O,2.000000X1.700000*%
%ADD27C,2.200000*%
%ADD28O,4.000000X2.000000*%
G04 APERTURE END LIST*
D10*
%TO.C,J1*%
X84380000Y-56360000D03*
D11*
X84380000Y-58900000D03*
X84380000Y-61440000D03*
%TD*%
D12*
%TO.C,BZ1*%
X119910000Y-110000000D03*
D13*
X127510000Y-110000000D03*
%TD*%
D14*
%TO.C,L1*%
X65550000Y-110800000D03*
D15*
X65550000Y-103800000D03*
X57550000Y-110800000D03*
X57550000Y-103800000D03*
%TD*%
D16*
%TO.C,K3*%
X94762500Y-122237500D03*
X94762500Y-129237500D03*
D17*
X99462500Y-110737500D03*
D16*
X94762500Y-110737500D03*
%TD*%
D18*
%TO.C,REF\u002A\u002A*%
X145000000Y-145000000D03*
%TD*%
D10*
%TO.C,J3*%
X77900000Y-69290000D03*
D11*
X77900000Y-71830000D03*
X77900000Y-74370000D03*
X77900000Y-76910000D03*
%TD*%
D19*
%TO.C,R13*%
X54030000Y-121820000D03*
X61530000Y-124520000D03*
%TD*%
D20*
%TO.C,U5*%
X120200000Y-52400000D03*
D21*
X120200000Y-54940000D03*
X120200000Y-57480000D03*
X120200000Y-60020000D03*
X120200000Y-62560000D03*
X120200000Y-65100000D03*
X120200000Y-67640000D03*
X120200000Y-70180000D03*
X120200000Y-72720000D03*
X120200000Y-75260000D03*
X120200000Y-77800000D03*
X120200000Y-80340000D03*
X120200000Y-82880000D03*
X120200000Y-85420000D03*
X120200000Y-87960000D03*
X120200000Y-90500000D03*
X120200000Y-93040000D03*
X120200000Y-95580000D03*
X120200000Y-98120000D03*
X145600000Y-98120000D03*
X145600000Y-95580000D03*
X145600000Y-93040000D03*
X145600000Y-90500000D03*
X145600000Y-87960000D03*
X145600000Y-85420000D03*
X145600000Y-82880000D03*
X145600000Y-80340000D03*
X145600000Y-77800000D03*
X145600000Y-75260000D03*
X145600000Y-72720000D03*
X145600000Y-70180000D03*
X145600000Y-67640000D03*
X145600000Y-65100000D03*
X145600000Y-62560000D03*
X145600000Y-60020000D03*
X145600000Y-57480000D03*
X145600000Y-54940000D03*
X145600000Y-52400000D03*
%TD*%
D22*
%TO.C,F1*%
X59150000Y-129400000D03*
X54050000Y-128200000D03*
%TD*%
D23*
%TO.C,BT1*%
X130750000Y-94107100D03*
D24*
X130750000Y-86614100D03*
%TD*%
D16*
%TO.C,K1*%
X78047500Y-122312500D03*
X78047500Y-129312500D03*
D17*
X82747500Y-110812500D03*
D16*
X78047500Y-110812500D03*
%TD*%
%TO.C,K2*%
X86530000Y-122330000D03*
X86530000Y-129330000D03*
D17*
X91230000Y-110830000D03*
D16*
X86530000Y-110830000D03*
%TD*%
D18*
%TO.C,REF\u002A\u002A*%
X132000000Y-58000000D03*
%TD*%
D25*
%TO.C,PS1*%
X60000000Y-97200000D03*
D26*
X65000000Y-97200000D03*
X55000000Y-68120000D03*
X70000000Y-68120000D03*
%TD*%
D10*
%TO.C,J2*%
X98860000Y-56360000D03*
D11*
X98860000Y-58900000D03*
X98860000Y-61440000D03*
%TD*%
D27*
%TO.C,C10*%
X54030000Y-116730000D03*
X69030000Y-116730000D03*
%TD*%
D18*
%TO.C,REF\u002A\u002A*%
X54000000Y-54000000D03*
%TD*%
D28*
%TO.C,J4*%
X59210000Y-134800000D03*
X68710000Y-134800000D03*
X78210000Y-134800000D03*
X87710000Y-134800000D03*
X97210000Y-134800000D03*
%TD*%
D10*
%TO.C,U6*%
X109080000Y-128340000D03*
D11*
X111620000Y-128340000D03*
X114160000Y-128340000D03*
X116700000Y-128340000D03*
X119240000Y-128340000D03*
X121780000Y-128340000D03*
X124320000Y-128340000D03*
X126860000Y-128340000D03*
X129400000Y-128340000D03*
X131940000Y-128340000D03*
X134480000Y-128340000D03*
X137020000Y-128340000D03*
X139560000Y-128340000D03*
X142100000Y-128340000D03*
%TD*%
M02*
