%TF.GenerationSoftware,KiCad,Pcbnew,9.0.0*%
%TF.CreationDate,2026-04-05T17:31:25+07:00*%
%TF.ProjectId,IoT2526_HK2,496f5432-3532-4365-9f48-4b322e6b6963,rev?*%
%TF.SameCoordinates,Original*%
%TF.FileFunction,Drillmap*%
%TF.FilePolarity,Positive*%
%FSLAX45Y45*%
G04 Gerber Fmt 4.5, Leading zero omitted, Abs format (unit mm)*
G04 Created by KiCad (PCBNEW 9.0.0) date 2026-04-05 17:31:25*
%MOMM*%
%LPD*%
G01*
G04 APERTURE LIST*
%ADD10C,0.200000*%
%ADD11C,0.050000*%
%ADD12C,0.100000*%
%ADD13C,0.101000*%
%ADD14C,0.102000*%
%ADD15C,0.110000*%
G04 APERTURE END LIST*
D10*
X5058000Y-5000000D02*
X15000000Y-5000000D01*
X15000000Y-14925000D01*
X5058000Y-14925000D01*
X5058000Y-5000000D01*
D11*
X10252000Y-13022000D02*
G75*
G02*
X10202000Y-12972000I0J50000D01*
G01*
X7440355Y-9186355D02*
G75*
G02*
X7490355Y-9136355I50005J-5D01*
G01*
X7748000Y-11496000D02*
X9995000Y-11496000D01*
X10252000Y-11101000D02*
G75*
G02*
X10302000Y-11151000I0J-50000D01*
G01*
X7748000Y-11601000D02*
G75*
G02*
X7698000Y-11551000I0J50000D01*
G01*
X7490355Y-9136355D02*
G75*
G02*
X7540365Y-9186355I5J-50005D01*
G01*
X7440355Y-11007355D02*
X7440355Y-9186355D01*
X7698000Y-11546000D02*
G75*
G02*
X7748000Y-11496000I50000J0D01*
G01*
X10302000Y-12972000D02*
G75*
G02*
X10252000Y-13022000I-50000J0D01*
G01*
X9995000Y-11496000D02*
G75*
G02*
X10045000Y-11546000I0J-50000D01*
G01*
X7490355Y-11057355D02*
G75*
G02*
X7440365Y-11007355I5J49995D01*
G01*
X7540355Y-9186355D02*
X7540355Y-11007355D01*
X10045000Y-11551000D02*
G75*
G02*
X9995000Y-11601000I-50000J0D01*
G01*
X7698000Y-11551000D02*
X7698000Y-11546000D01*
X9995000Y-11601000D02*
X7748000Y-11601000D01*
X10202000Y-11151000D02*
G75*
G02*
X10252000Y-11101000I50000J0D01*
G01*
X10045000Y-11546000D02*
X10045000Y-11551000D01*
X10202000Y-12972000D02*
X10202000Y-11151000D01*
X7540355Y-11007355D02*
G75*
G02*
X7490355Y-11057355I-49995J-5D01*
G01*
X10302000Y-11151000D02*
X10302000Y-12972000D01*
D10*
D12*
X5219000Y-5926000D02*
X5249000Y-5956000D01*
X5249000Y-5926000D02*
X5219000Y-5956000D01*
X5219000Y-6180000D02*
X5249000Y-6210000D01*
X5249000Y-6180000D02*
X5219000Y-6210000D01*
X5219000Y-6434000D02*
X5249000Y-6464000D01*
X5249000Y-6434000D02*
X5219000Y-6464000D01*
X5219000Y-6688000D02*
X5249000Y-6718000D01*
X5249000Y-6688000D02*
X5219000Y-6718000D01*
X5220000Y-5746000D02*
X5250000Y-5776000D01*
X5250000Y-5746000D02*
X5220000Y-5776000D01*
X5473000Y-5926000D02*
X5503000Y-5956000D01*
X5503000Y-5926000D02*
X5473000Y-5956000D01*
X5473000Y-6180000D02*
X5503000Y-6210000D01*
X5503000Y-6180000D02*
X5473000Y-6210000D01*
X5473000Y-6434000D02*
X5503000Y-6464000D01*
X5503000Y-6434000D02*
X5473000Y-6464000D01*
X5475000Y-5738000D02*
X5505000Y-5768000D01*
X5505000Y-5738000D02*
X5475000Y-5768000D01*
X5727000Y-5164000D02*
X5757000Y-5194000D01*
X5757000Y-5164000D02*
X5727000Y-5194000D01*
X5727000Y-5418000D02*
X5757000Y-5448000D01*
X5757000Y-5418000D02*
X5727000Y-5448000D01*
X5727000Y-5998600D02*
X5757000Y-6028600D01*
X5757000Y-5998600D02*
X5727000Y-6028600D01*
X5727000Y-6180000D02*
X5757000Y-6210000D01*
X5757000Y-6180000D02*
X5727000Y-6210000D01*
X5727000Y-6434000D02*
X5757000Y-6464000D01*
X5757000Y-6434000D02*
X5727000Y-6464000D01*
X5727000Y-6688000D02*
X5757000Y-6718000D01*
X5757000Y-6688000D02*
X5727000Y-6718000D01*
X5981000Y-5164000D02*
X6011000Y-5194000D01*
X6011000Y-5164000D02*
X5981000Y-5194000D01*
X5981000Y-5418000D02*
X6011000Y-5448000D01*
X6011000Y-5418000D02*
X5981000Y-5448000D01*
X5981000Y-5998600D02*
X6011000Y-6028600D01*
X6011000Y-5998600D02*
X5981000Y-6028600D01*
X5981000Y-6180000D02*
X6011000Y-6210000D01*
X6011000Y-6180000D02*
X5981000Y-6210000D01*
X5981000Y-6434000D02*
X6011000Y-6464000D01*
X6011000Y-6434000D02*
X5981000Y-6464000D01*
X5981000Y-6688000D02*
X6011000Y-6718000D01*
X6011000Y-6688000D02*
X5981000Y-6718000D01*
X6235000Y-5164000D02*
X6265000Y-5194000D01*
X6265000Y-5164000D02*
X6235000Y-5194000D01*
X6235000Y-5418000D02*
X6265000Y-5448000D01*
X6265000Y-5418000D02*
X6235000Y-5448000D01*
X6235000Y-5672000D02*
X6265000Y-5702000D01*
X6265000Y-5672000D02*
X6235000Y-5702000D01*
X6235000Y-5926000D02*
X6265000Y-5956000D01*
X6265000Y-5926000D02*
X6235000Y-5956000D01*
X6235000Y-6180000D02*
X6265000Y-6210000D01*
X6265000Y-6180000D02*
X6235000Y-6210000D01*
X6235000Y-6434000D02*
X6265000Y-6464000D01*
X6265000Y-6434000D02*
X6235000Y-6464000D01*
X6235000Y-6688000D02*
X6265000Y-6718000D01*
X6265000Y-6688000D02*
X6235000Y-6718000D01*
X6489000Y-6688000D02*
X6519000Y-6718000D01*
X6519000Y-6688000D02*
X6489000Y-6718000D01*
X6743000Y-5998600D02*
X6773000Y-6028600D01*
X6773000Y-5998600D02*
X6743000Y-6028600D01*
X6997000Y-5418000D02*
X7027000Y-5448000D01*
X7027000Y-5418000D02*
X6997000Y-5448000D01*
X6997000Y-6180000D02*
X7027000Y-6210000D01*
X7027000Y-6180000D02*
X6997000Y-6210000D01*
X6997000Y-6434000D02*
X7027000Y-6464000D01*
X7027000Y-6434000D02*
X6997000Y-6464000D01*
X7251000Y-5418000D02*
X7281000Y-5448000D01*
X7281000Y-5418000D02*
X7251000Y-5448000D01*
X7251000Y-6180000D02*
X7281000Y-6210000D01*
X7281000Y-6180000D02*
X7251000Y-6210000D01*
X7251000Y-6434000D02*
X7281000Y-6464000D01*
X7281000Y-6434000D02*
X7251000Y-6464000D01*
X7251000Y-6688000D02*
X7281000Y-6718000D01*
X7281000Y-6688000D02*
X7251000Y-6718000D01*
X7505000Y-5998600D02*
X7535000Y-6028600D01*
X7535000Y-5998600D02*
X7505000Y-6028600D01*
X7505000Y-6180000D02*
X7535000Y-6210000D01*
X7535000Y-6180000D02*
X7505000Y-6210000D01*
X7505000Y-6434000D02*
X7535000Y-6464000D01*
X7535000Y-6434000D02*
X7505000Y-6464000D01*
X7505000Y-6688000D02*
X7535000Y-6718000D01*
X7535000Y-6688000D02*
X7505000Y-6718000D01*
X7759000Y-7958000D02*
X7789000Y-7988000D01*
X7789000Y-7958000D02*
X7759000Y-7988000D01*
X7759000Y-8212000D02*
X7789000Y-8242000D01*
X7789000Y-8212000D02*
X7759000Y-8242000D01*
X7759000Y-8466000D02*
X7789000Y-8496000D01*
X7789000Y-8466000D02*
X7759000Y-8496000D01*
X7759000Y-8720000D02*
X7789000Y-8750000D01*
X7789000Y-8720000D02*
X7759000Y-8750000D01*
X7759000Y-8974000D02*
X7789000Y-9004000D01*
X7789000Y-8974000D02*
X7759000Y-9004000D01*
X7759000Y-9482000D02*
X7789000Y-9512000D01*
X7789000Y-9482000D02*
X7759000Y-9512000D01*
X7959000Y-7257000D02*
X7989000Y-7287000D01*
X7989000Y-7257000D02*
X7959000Y-7287000D01*
X8013000Y-5998600D02*
X8043000Y-6028600D01*
X8043000Y-5998600D02*
X8013000Y-6028600D01*
X8013000Y-6180000D02*
X8043000Y-6210000D01*
X8043000Y-6180000D02*
X8013000Y-6210000D01*
X8013000Y-6688000D02*
X8043000Y-6718000D01*
X8043000Y-6688000D02*
X8013000Y-6718000D01*
X8013000Y-6942000D02*
X8043000Y-6972000D01*
X8043000Y-6942000D02*
X8013000Y-6972000D01*
X8013000Y-7704000D02*
X8043000Y-7734000D01*
X8043000Y-7704000D02*
X8013000Y-7734000D01*
X8013000Y-7958000D02*
X8043000Y-7988000D01*
X8043000Y-7958000D02*
X8013000Y-7988000D01*
X8013000Y-8212000D02*
X8043000Y-8242000D01*
X8043000Y-8212000D02*
X8013000Y-8242000D01*
X8013000Y-8466000D02*
X8043000Y-8496000D01*
X8043000Y-8466000D02*
X8013000Y-8496000D01*
X8013000Y-8720000D02*
X8043000Y-8750000D01*
X8043000Y-8720000D02*
X8013000Y-8750000D01*
X8013000Y-8974000D02*
X8043000Y-9004000D01*
X8043000Y-8974000D02*
X8013000Y-9004000D01*
X8038000Y-10885000D02*
X8068000Y-10915000D01*
X8068000Y-10885000D02*
X8038000Y-10915000D01*
X8105000Y-5405000D02*
X8135000Y-5435000D01*
X8135000Y-5405000D02*
X8105000Y-5435000D01*
X8129000Y-9784000D02*
X8159000Y-9814000D01*
X8159000Y-9784000D02*
X8129000Y-9814000D01*
X8129000Y-9948000D02*
X8159000Y-9978000D01*
X8159000Y-9948000D02*
X8129000Y-9978000D01*
X8129000Y-10112000D02*
X8159000Y-10142000D01*
X8159000Y-10112000D02*
X8129000Y-10142000D01*
X8184000Y-5909000D02*
X8214000Y-5939000D01*
X8214000Y-5909000D02*
X8184000Y-5939000D01*
X8184000Y-6163000D02*
X8214000Y-6193000D01*
X8214000Y-6163000D02*
X8184000Y-6193000D01*
X8184000Y-6417000D02*
X8214000Y-6447000D01*
X8214000Y-6417000D02*
X8184000Y-6447000D01*
X8267000Y-6688000D02*
X8297000Y-6718000D01*
X8297000Y-6688000D02*
X8267000Y-6718000D01*
X8267000Y-7522600D02*
X8297000Y-7552600D01*
X8297000Y-7522600D02*
X8267000Y-7552600D01*
X8463000Y-10597600D02*
X8493000Y-10627600D01*
X8493000Y-10597600D02*
X8463000Y-10627600D01*
X8463000Y-10779000D02*
X8493000Y-10809000D01*
X8493000Y-10779000D02*
X8463000Y-10809000D01*
X8518000Y-6295000D02*
X8548000Y-6325000D01*
X8548000Y-6295000D02*
X8518000Y-6325000D01*
X8521000Y-6434000D02*
X8551000Y-6464000D01*
X8551000Y-6434000D02*
X8521000Y-6464000D01*
X8521000Y-7196000D02*
X8551000Y-7226000D01*
X8551000Y-7196000D02*
X8521000Y-7226000D01*
X8521000Y-7704000D02*
X8551000Y-7734000D01*
X8551000Y-7704000D02*
X8521000Y-7734000D01*
X8521000Y-7958000D02*
X8551000Y-7988000D01*
X8551000Y-7958000D02*
X8521000Y-7988000D01*
X8521000Y-8212000D02*
X8551000Y-8242000D01*
X8551000Y-8212000D02*
X8521000Y-8242000D01*
X8521000Y-8466000D02*
X8551000Y-8496000D01*
X8551000Y-8466000D02*
X8521000Y-8496000D01*
X8521000Y-8720000D02*
X8551000Y-8750000D01*
X8551000Y-8720000D02*
X8521000Y-8750000D01*
X8521000Y-8974000D02*
X8551000Y-9004000D01*
X8551000Y-8974000D02*
X8521000Y-9004000D01*
X8613000Y-9625000D02*
X8643000Y-9655000D01*
X8643000Y-9625000D02*
X8613000Y-9655000D01*
X8682000Y-5359000D02*
X8712000Y-5389000D01*
X8712000Y-5359000D02*
X8682000Y-5389000D01*
X8775000Y-6434000D02*
X8805000Y-6464000D01*
X8805000Y-6434000D02*
X8775000Y-6464000D01*
X8775000Y-6760600D02*
X8805000Y-6790600D01*
X8805000Y-6760600D02*
X8775000Y-6790600D01*
X8775000Y-7014600D02*
X8805000Y-7044600D01*
X8805000Y-7014600D02*
X8775000Y-7044600D01*
X8775000Y-7196000D02*
X8805000Y-7226000D01*
X8805000Y-7196000D02*
X8775000Y-7226000D01*
X8775000Y-7704000D02*
X8805000Y-7734000D01*
X8805000Y-7704000D02*
X8775000Y-7734000D01*
X8775000Y-7958000D02*
X8805000Y-7988000D01*
X8805000Y-7958000D02*
X8775000Y-7988000D01*
X8775000Y-8212000D02*
X8805000Y-8242000D01*
X8805000Y-8212000D02*
X8775000Y-8242000D01*
X8775000Y-8466000D02*
X8805000Y-8496000D01*
X8805000Y-8466000D02*
X8775000Y-8496000D01*
X8775000Y-8720000D02*
X8805000Y-8750000D01*
X8805000Y-8720000D02*
X8775000Y-8750000D01*
X8775000Y-8974000D02*
X8805000Y-9004000D01*
X8805000Y-8974000D02*
X8775000Y-9004000D01*
X8778000Y-6295000D02*
X8808000Y-6325000D01*
X8808000Y-6295000D02*
X8778000Y-6325000D01*
X8889000Y-10877000D02*
X8919000Y-10907000D01*
X8919000Y-10877000D02*
X8889000Y-10907000D01*
X8936000Y-5359000D02*
X8966000Y-5389000D01*
X8966000Y-5359000D02*
X8936000Y-5389000D01*
X8976000Y-9785000D02*
X9006000Y-9815000D01*
X9006000Y-9785000D02*
X8976000Y-9815000D01*
X8976000Y-9929000D02*
X9006000Y-9959000D01*
X9006000Y-9929000D02*
X8976000Y-9959000D01*
X8976000Y-10089000D02*
X9006000Y-10119000D01*
X9006000Y-10089000D02*
X8976000Y-10119000D01*
X9022000Y-6295000D02*
X9052000Y-6325000D01*
X9052000Y-6295000D02*
X9022000Y-6325000D01*
X9029000Y-6434000D02*
X9059000Y-6464000D01*
X9059000Y-6434000D02*
X9029000Y-6464000D01*
X9029000Y-6760600D02*
X9059000Y-6790600D01*
X9059000Y-6760600D02*
X9029000Y-6790600D01*
X9029000Y-7014600D02*
X9059000Y-7044600D01*
X9059000Y-7014600D02*
X9029000Y-7044600D01*
X9029000Y-7196000D02*
X9059000Y-7226000D01*
X9059000Y-7196000D02*
X9029000Y-7226000D01*
X9029000Y-7704000D02*
X9059000Y-7734000D01*
X9059000Y-7704000D02*
X9029000Y-7734000D01*
X9190000Y-5359000D02*
X9220000Y-5389000D01*
X9220000Y-5359000D02*
X9190000Y-5389000D01*
X9283000Y-6434000D02*
X9313000Y-6464000D01*
X9313000Y-6434000D02*
X9283000Y-6464000D01*
X9283000Y-6760600D02*
X9313000Y-6790600D01*
X9313000Y-6760600D02*
X9283000Y-6790600D01*
X9283000Y-7014600D02*
X9313000Y-7044600D01*
X9313000Y-7014600D02*
X9283000Y-7044600D01*
X9283000Y-7196000D02*
X9313000Y-7226000D01*
X9313000Y-7196000D02*
X9283000Y-7226000D01*
X9283000Y-8212000D02*
X9313000Y-8242000D01*
X9313000Y-8212000D02*
X9283000Y-8242000D01*
X9283000Y-8466000D02*
X9313000Y-8496000D01*
X9313000Y-8466000D02*
X9283000Y-8496000D01*
X9283000Y-8720000D02*
X9313000Y-8750000D01*
X9313000Y-8720000D02*
X9283000Y-8750000D01*
X9283000Y-8974000D02*
X9313000Y-9004000D01*
X9313000Y-8974000D02*
X9283000Y-9004000D01*
X9283000Y-10570600D02*
X9313000Y-10600600D01*
X9313000Y-10570600D02*
X9283000Y-10600600D01*
X9283000Y-10752000D02*
X9313000Y-10782000D01*
X9313000Y-10752000D02*
X9283000Y-10782000D01*
X9285000Y-6295000D02*
X9315000Y-6325000D01*
X9315000Y-6295000D02*
X9285000Y-6325000D01*
X9351000Y-5609000D02*
X9381000Y-5639000D01*
X9381000Y-5609000D02*
X9351000Y-5639000D01*
X9441000Y-9612000D02*
X9471000Y-9642000D01*
X9471000Y-9612000D02*
X9441000Y-9642000D01*
X9444000Y-5359000D02*
X9474000Y-5389000D01*
X9474000Y-5359000D02*
X9444000Y-5389000D01*
X9536000Y-6295000D02*
X9566000Y-6325000D01*
X9566000Y-6295000D02*
X9536000Y-6325000D01*
X9537000Y-6434000D02*
X9567000Y-6464000D01*
X9567000Y-6434000D02*
X9537000Y-6464000D01*
X9537000Y-6760600D02*
X9567000Y-6790600D01*
X9567000Y-6760600D02*
X9537000Y-6790600D01*
X9537000Y-7014600D02*
X9567000Y-7044600D01*
X9567000Y-7014600D02*
X9537000Y-7044600D01*
X9537000Y-7196000D02*
X9567000Y-7226000D01*
X9567000Y-7196000D02*
X9537000Y-7226000D01*
X9537000Y-7958000D02*
X9567000Y-7988000D01*
X9567000Y-7958000D02*
X9537000Y-7988000D01*
X9537000Y-8212000D02*
X9567000Y-8242000D01*
X9567000Y-8212000D02*
X9537000Y-8242000D01*
X9537000Y-8466000D02*
X9567000Y-8496000D01*
X9567000Y-8466000D02*
X9537000Y-8496000D01*
X9537000Y-8720000D02*
X9567000Y-8750000D01*
X9567000Y-8720000D02*
X9537000Y-8750000D01*
X9537000Y-8974000D02*
X9567000Y-9004000D01*
X9567000Y-8974000D02*
X9537000Y-9004000D01*
X9543000Y-5614000D02*
X9573000Y-5644000D01*
X9573000Y-5614000D02*
X9543000Y-5644000D01*
X9713000Y-10871000D02*
X9743000Y-10901000D01*
X9743000Y-10871000D02*
X9713000Y-10901000D01*
X9791000Y-6434000D02*
X9821000Y-6464000D01*
X9821000Y-6434000D02*
X9791000Y-6464000D01*
X9791000Y-6760600D02*
X9821000Y-6790600D01*
X9821000Y-6760600D02*
X9791000Y-6790600D01*
X9791000Y-7014600D02*
X9821000Y-7044600D01*
X9821000Y-7014600D02*
X9791000Y-7044600D01*
X9791000Y-7196000D02*
X9821000Y-7226000D01*
X9821000Y-7196000D02*
X9791000Y-7226000D01*
X9791000Y-7958000D02*
X9821000Y-7988000D01*
X9821000Y-7958000D02*
X9791000Y-7988000D01*
X9791000Y-8212000D02*
X9821000Y-8242000D01*
X9821000Y-8212000D02*
X9791000Y-8242000D01*
X9791000Y-8466000D02*
X9821000Y-8496000D01*
X9821000Y-8466000D02*
X9791000Y-8496000D01*
X9791000Y-8720000D02*
X9821000Y-8750000D01*
X9821000Y-8720000D02*
X9791000Y-8750000D01*
X9791000Y-8974000D02*
X9821000Y-9004000D01*
X9821000Y-8974000D02*
X9791000Y-9004000D01*
X9791000Y-9808600D02*
X9821000Y-9838600D01*
X9821000Y-9808600D02*
X9791000Y-9838600D01*
X9791000Y-9958800D02*
X9821000Y-9988800D01*
X9821000Y-9958800D02*
X9791000Y-9988800D01*
X9791000Y-10109000D02*
X9821000Y-10139000D01*
X9821000Y-10109000D02*
X9791000Y-10139000D01*
X9792000Y-6292000D02*
X9822000Y-6322000D01*
X9822000Y-6292000D02*
X9792000Y-6322000D01*
X9863000Y-5357000D02*
X9893000Y-5387000D01*
X9893000Y-5357000D02*
X9863000Y-5387000D01*
X10045000Y-6434000D02*
X10075000Y-6464000D01*
X10075000Y-6434000D02*
X10045000Y-6464000D01*
X10045000Y-6760600D02*
X10075000Y-6790600D01*
X10075000Y-6760600D02*
X10045000Y-6790600D01*
X10045000Y-7014600D02*
X10075000Y-7044600D01*
X10075000Y-7014600D02*
X10045000Y-7044600D01*
X10045000Y-7196000D02*
X10075000Y-7226000D01*
X10075000Y-7196000D02*
X10045000Y-7226000D01*
X10051000Y-5977000D02*
X10081000Y-6007000D01*
X10081000Y-5977000D02*
X10051000Y-6007000D01*
X10051000Y-6182000D02*
X10081000Y-6212000D01*
X10081000Y-6182000D02*
X10051000Y-6212000D01*
X10052000Y-5756000D02*
X10082000Y-5786000D01*
X10082000Y-5756000D02*
X10052000Y-5786000D01*
X10117000Y-5357000D02*
X10147000Y-5387000D01*
X10147000Y-5357000D02*
X10117000Y-5387000D01*
X10299000Y-5998600D02*
X10329000Y-6028600D01*
X10329000Y-5998600D02*
X10299000Y-6028600D01*
X10299000Y-6180000D02*
X10329000Y-6210000D01*
X10329000Y-6180000D02*
X10299000Y-6210000D01*
X10299000Y-6434000D02*
X10329000Y-6464000D01*
X10329000Y-6434000D02*
X10299000Y-6464000D01*
X10299000Y-6760600D02*
X10329000Y-6790600D01*
X10329000Y-6760600D02*
X10299000Y-6790600D01*
X10299000Y-7014600D02*
X10329000Y-7044600D01*
X10329000Y-7014600D02*
X10299000Y-7044600D01*
X10299000Y-7196000D02*
X10329000Y-7226000D01*
X10329000Y-7196000D02*
X10299000Y-7226000D01*
X10299000Y-8030600D02*
X10329000Y-8060600D01*
X10329000Y-8030600D02*
X10299000Y-8060600D01*
X10299000Y-8212000D02*
X10329000Y-8242000D01*
X10329000Y-8212000D02*
X10299000Y-8242000D01*
X10299000Y-8466000D02*
X10329000Y-8496000D01*
X10329000Y-8466000D02*
X10299000Y-8496000D01*
X10299000Y-8720000D02*
X10329000Y-8750000D01*
X10329000Y-8720000D02*
X10299000Y-8750000D01*
X10299000Y-8974000D02*
X10329000Y-9004000D01*
X10329000Y-8974000D02*
X10299000Y-9004000D01*
X10299000Y-9228000D02*
X10329000Y-9258000D01*
X10329000Y-9228000D02*
X10299000Y-9258000D01*
X10299000Y-9482000D02*
X10329000Y-9512000D01*
X10329000Y-9482000D02*
X10299000Y-9512000D01*
X10371000Y-5357000D02*
X10401000Y-5387000D01*
X10401000Y-5357000D02*
X10371000Y-5387000D01*
X10553000Y-13038000D02*
X10583000Y-13068000D01*
X10583000Y-13038000D02*
X10553000Y-13068000D01*
X10625000Y-5357000D02*
X10655000Y-5387000D01*
X10655000Y-5357000D02*
X10625000Y-5387000D01*
X10807000Y-5926000D02*
X10837000Y-5956000D01*
X10837000Y-5926000D02*
X10807000Y-5956000D01*
X10807000Y-6180000D02*
X10837000Y-6210000D01*
X10837000Y-6180000D02*
X10807000Y-6210000D01*
X10807000Y-6434000D02*
X10837000Y-6464000D01*
X10837000Y-6434000D02*
X10807000Y-6464000D01*
X10807000Y-6760600D02*
X10837000Y-6790600D01*
X10837000Y-6760600D02*
X10807000Y-6790600D01*
X10807000Y-7014600D02*
X10837000Y-7044600D01*
X10837000Y-7014600D02*
X10807000Y-7044600D01*
X10807000Y-7196000D02*
X10837000Y-7226000D01*
X10837000Y-7196000D02*
X10807000Y-7226000D01*
X10807000Y-8030600D02*
X10837000Y-8060600D01*
X10837000Y-8030600D02*
X10807000Y-8060600D01*
X10807000Y-8212000D02*
X10837000Y-8242000D01*
X10837000Y-8212000D02*
X10807000Y-8242000D01*
X10807000Y-8466000D02*
X10837000Y-8496000D01*
X10837000Y-8466000D02*
X10807000Y-8496000D01*
X10807000Y-8720000D02*
X10837000Y-8750000D01*
X10837000Y-8720000D02*
X10807000Y-8750000D01*
X10807000Y-8974000D02*
X10837000Y-9004000D01*
X10837000Y-8974000D02*
X10807000Y-9004000D01*
X10807000Y-9228000D02*
X10837000Y-9258000D01*
X10837000Y-9228000D02*
X10807000Y-9258000D01*
X10807000Y-9482000D02*
X10837000Y-9512000D01*
X10837000Y-9482000D02*
X10807000Y-9512000D01*
X10807000Y-9990000D02*
X10837000Y-10020000D01*
X10837000Y-9990000D02*
X10807000Y-10020000D01*
X10807000Y-10244000D02*
X10837000Y-10274000D01*
X10837000Y-10244000D02*
X10807000Y-10274000D01*
X10807000Y-10498000D02*
X10837000Y-10528000D01*
X10837000Y-10498000D02*
X10807000Y-10528000D01*
X10807000Y-10752000D02*
X10837000Y-10782000D01*
X10837000Y-10752000D02*
X10807000Y-10782000D01*
X10807000Y-11006000D02*
X10837000Y-11036000D01*
X10837000Y-11006000D02*
X10807000Y-11036000D01*
X10807000Y-11260000D02*
X10837000Y-11290000D01*
X10837000Y-11260000D02*
X10807000Y-11290000D01*
X10807000Y-11514000D02*
X10837000Y-11544000D01*
X10837000Y-11514000D02*
X10807000Y-11544000D01*
X10807000Y-11768000D02*
X10837000Y-11798000D01*
X10837000Y-11768000D02*
X10807000Y-11798000D01*
X10807000Y-12022000D02*
X10837000Y-12052000D01*
X10837000Y-12022000D02*
X10807000Y-12052000D01*
X10807000Y-12276000D02*
X10837000Y-12306000D01*
X10837000Y-12276000D02*
X10807000Y-12306000D01*
X10807000Y-12530000D02*
X10837000Y-12560000D01*
X10837000Y-12530000D02*
X10807000Y-12560000D01*
X10809000Y-5737000D02*
X10839000Y-5767000D01*
X10839000Y-5737000D02*
X10809000Y-5767000D01*
X11061000Y-5744600D02*
X11091000Y-5774600D01*
X11091000Y-5744600D02*
X11061000Y-5774600D01*
X11061000Y-5926000D02*
X11091000Y-5956000D01*
X11091000Y-5926000D02*
X11061000Y-5956000D01*
X11061000Y-6180000D02*
X11091000Y-6210000D01*
X11091000Y-6180000D02*
X11061000Y-6210000D01*
X11061000Y-6434000D02*
X11091000Y-6464000D01*
X11091000Y-6434000D02*
X11061000Y-6464000D01*
X11061000Y-6760600D02*
X11091000Y-6790600D01*
X11091000Y-6760600D02*
X11061000Y-6790600D01*
X11061000Y-7014600D02*
X11091000Y-7044600D01*
X11091000Y-7014600D02*
X11061000Y-7044600D01*
X11061000Y-7196000D02*
X11091000Y-7226000D01*
X11091000Y-7196000D02*
X11061000Y-7226000D01*
X11061000Y-8030600D02*
X11091000Y-8060600D01*
X11091000Y-8030600D02*
X11061000Y-8060600D01*
X11061000Y-8212000D02*
X11091000Y-8242000D01*
X11091000Y-8212000D02*
X11061000Y-8242000D01*
X11061000Y-8466000D02*
X11091000Y-8496000D01*
X11091000Y-8466000D02*
X11061000Y-8496000D01*
X11061000Y-8720000D02*
X11091000Y-8750000D01*
X11091000Y-8720000D02*
X11061000Y-8750000D01*
X11061000Y-8974000D02*
X11091000Y-9004000D01*
X11091000Y-8974000D02*
X11061000Y-9004000D01*
X11061000Y-9228000D02*
X11091000Y-9258000D01*
X11091000Y-9228000D02*
X11061000Y-9258000D01*
X11061000Y-9482000D02*
X11091000Y-9512000D01*
X11091000Y-9482000D02*
X11061000Y-9512000D01*
X11061000Y-9990000D02*
X11091000Y-10020000D01*
X11091000Y-9990000D02*
X11061000Y-10020000D01*
X11061000Y-10244000D02*
X11091000Y-10274000D01*
X11091000Y-10244000D02*
X11061000Y-10274000D01*
X11061000Y-10498000D02*
X11091000Y-10528000D01*
X11091000Y-10498000D02*
X11061000Y-10528000D01*
X11061000Y-10752000D02*
X11091000Y-10782000D01*
X11091000Y-10752000D02*
X11061000Y-10782000D01*
X11061000Y-11006000D02*
X11091000Y-11036000D01*
X11091000Y-11006000D02*
X11061000Y-11036000D01*
X11061000Y-11260000D02*
X11091000Y-11290000D01*
X11091000Y-11260000D02*
X11061000Y-11290000D01*
X11061000Y-11514000D02*
X11091000Y-11544000D01*
X11091000Y-11514000D02*
X11061000Y-11544000D01*
X11061000Y-11768000D02*
X11091000Y-11798000D01*
X11091000Y-11768000D02*
X11061000Y-11798000D01*
X11061000Y-12022000D02*
X11091000Y-12052000D01*
X11091000Y-12022000D02*
X11061000Y-12052000D01*
X11061000Y-12276000D02*
X11091000Y-12306000D01*
X11091000Y-12276000D02*
X11061000Y-12306000D01*
X11315000Y-10062600D02*
X11345000Y-10092600D01*
X11345000Y-10062600D02*
X11315000Y-10092600D01*
X11315000Y-10244000D02*
X11345000Y-10274000D01*
X11345000Y-10244000D02*
X11315000Y-10274000D01*
X11315000Y-10498000D02*
X11345000Y-10528000D01*
X11345000Y-10498000D02*
X11315000Y-10528000D01*
X11315000Y-10752000D02*
X11345000Y-10782000D01*
X11345000Y-10752000D02*
X11315000Y-10782000D01*
X11315000Y-11006000D02*
X11345000Y-11036000D01*
X11345000Y-11006000D02*
X11315000Y-11036000D01*
X11315000Y-11260000D02*
X11345000Y-11290000D01*
X11345000Y-11260000D02*
X11315000Y-11290000D01*
X11315000Y-11514000D02*
X11345000Y-11544000D01*
X11345000Y-11514000D02*
X11315000Y-11544000D01*
X11315000Y-11768000D02*
X11345000Y-11798000D01*
X11345000Y-11768000D02*
X11315000Y-11798000D01*
X11315000Y-12022000D02*
X11345000Y-12052000D01*
X11345000Y-12022000D02*
X11315000Y-12052000D01*
X11642000Y-5655000D02*
X11672000Y-5685000D01*
X11672000Y-5655000D02*
X11642000Y-5685000D01*
X11758000Y-6747000D02*
X11788000Y-6777000D01*
X11788000Y-6747000D02*
X11758000Y-6777000D01*
X11761000Y-6514000D02*
X11791000Y-6544000D01*
X11791000Y-6514000D02*
X11761000Y-6544000D01*
X11823000Y-8030600D02*
X11853000Y-8060600D01*
X11853000Y-8030600D02*
X11823000Y-8060600D01*
X11823000Y-8212000D02*
X11853000Y-8242000D01*
X11853000Y-8212000D02*
X11823000Y-8242000D01*
X11823000Y-8466000D02*
X11853000Y-8496000D01*
X11853000Y-8466000D02*
X11823000Y-8496000D01*
X11823000Y-8720000D02*
X11853000Y-8750000D01*
X11853000Y-8720000D02*
X11823000Y-8750000D01*
X11823000Y-8974000D02*
X11853000Y-9004000D01*
X11853000Y-8974000D02*
X11823000Y-9004000D01*
X11823000Y-9228000D02*
X11853000Y-9258000D01*
X11853000Y-9228000D02*
X11823000Y-9258000D01*
X11823000Y-9482000D02*
X11853000Y-9512000D01*
X11853000Y-9482000D02*
X11823000Y-9512000D01*
X11823000Y-10062600D02*
X11853000Y-10092600D01*
X11853000Y-10062600D02*
X11823000Y-10092600D01*
X11823000Y-10244000D02*
X11853000Y-10274000D01*
X11853000Y-10244000D02*
X11823000Y-10274000D01*
X11823000Y-10498000D02*
X11853000Y-10528000D01*
X11853000Y-10498000D02*
X11823000Y-10528000D01*
X11823000Y-10752000D02*
X11853000Y-10782000D01*
X11853000Y-10752000D02*
X11823000Y-10782000D01*
X11823000Y-11006000D02*
X11853000Y-11036000D01*
X11853000Y-11006000D02*
X11823000Y-11036000D01*
X11823000Y-11260000D02*
X11853000Y-11290000D01*
X11853000Y-11260000D02*
X11823000Y-11290000D01*
X11823000Y-11514000D02*
X11853000Y-11544000D01*
X11853000Y-11514000D02*
X11823000Y-11544000D01*
X11823000Y-11768000D02*
X11853000Y-11798000D01*
X11853000Y-11768000D02*
X11823000Y-11798000D01*
X11823000Y-12022000D02*
X11853000Y-12052000D01*
X11853000Y-12022000D02*
X11823000Y-12052000D01*
X11823000Y-12276000D02*
X11853000Y-12306000D01*
X11853000Y-12276000D02*
X11823000Y-12306000D01*
X11823000Y-12530000D02*
X11853000Y-12560000D01*
X11853000Y-12530000D02*
X11823000Y-12560000D01*
X12077000Y-12276000D02*
X12107000Y-12306000D01*
X12107000Y-12276000D02*
X12077000Y-12306000D01*
X12077000Y-12530000D02*
X12107000Y-12560000D01*
X12107000Y-12530000D02*
X12077000Y-12560000D01*
X12200000Y-8782000D02*
X12230000Y-8812000D01*
X12230000Y-8782000D02*
X12200000Y-8812000D01*
X12306536Y-12112612D02*
X12336536Y-12142612D01*
X12336536Y-12112612D02*
X12306536Y-12142612D01*
X12331000Y-5490600D02*
X12361000Y-5520600D01*
X12361000Y-5490600D02*
X12331000Y-5520600D01*
X12491000Y-6639000D02*
X12521000Y-6669000D01*
X12521000Y-6639000D02*
X12491000Y-6669000D01*
X12491000Y-6871000D02*
X12521000Y-6901000D01*
X12521000Y-6871000D02*
X12491000Y-6901000D01*
X12534000Y-8097000D02*
X12564000Y-8127000D01*
X12564000Y-8097000D02*
X12534000Y-8127000D01*
X12585000Y-7450000D02*
X12615000Y-7480000D01*
X12615000Y-7450000D02*
X12585000Y-7480000D01*
X12585000Y-8792600D02*
X12615000Y-8822600D01*
X12615000Y-8792600D02*
X12585000Y-8822600D01*
X12585000Y-9046600D02*
X12615000Y-9076600D01*
X12615000Y-9046600D02*
X12585000Y-9076600D01*
X12585000Y-9300600D02*
X12615000Y-9330600D01*
X12615000Y-9300600D02*
X12585000Y-9330600D01*
X12585000Y-9554600D02*
X12615000Y-9584600D01*
X12615000Y-9554600D02*
X12585000Y-9584600D01*
X12585000Y-9808600D02*
X12615000Y-9838600D01*
X12615000Y-9808600D02*
X12585000Y-9838600D01*
X12585000Y-9990000D02*
X12615000Y-10020000D01*
X12615000Y-9990000D02*
X12585000Y-10020000D01*
X12585000Y-10244000D02*
X12615000Y-10274000D01*
X12615000Y-10244000D02*
X12585000Y-10274000D01*
X12585000Y-10752000D02*
X12615000Y-10782000D01*
X12615000Y-10752000D02*
X12585000Y-10782000D01*
X12585000Y-11260000D02*
X12615000Y-11290000D01*
X12615000Y-11260000D02*
X12585000Y-11290000D01*
X12585000Y-11514000D02*
X12615000Y-11544000D01*
X12615000Y-11514000D02*
X12585000Y-11544000D01*
X12585000Y-11768000D02*
X12615000Y-11798000D01*
X12615000Y-11768000D02*
X12585000Y-11798000D01*
X12585000Y-12022000D02*
X12615000Y-12052000D01*
X12615000Y-12022000D02*
X12585000Y-12052000D01*
X12588000Y-7678000D02*
X12618000Y-7708000D01*
X12618000Y-7678000D02*
X12588000Y-7708000D01*
X12839000Y-5418000D02*
X12869000Y-5448000D01*
X12869000Y-5418000D02*
X12839000Y-5448000D01*
X12839000Y-5672000D02*
X12869000Y-5702000D01*
X12869000Y-5672000D02*
X12839000Y-5702000D01*
X12839000Y-5926000D02*
X12869000Y-5956000D01*
X12869000Y-5926000D02*
X12839000Y-5956000D01*
X12839000Y-6180000D02*
X12869000Y-6210000D01*
X12869000Y-6180000D02*
X12839000Y-6210000D01*
X12839000Y-6760600D02*
X12869000Y-6790600D01*
X12869000Y-6760600D02*
X12839000Y-6790600D01*
X12839000Y-8538600D02*
X12869000Y-8568600D01*
X12869000Y-8538600D02*
X12839000Y-8568600D01*
X12839000Y-8792600D02*
X12869000Y-8822600D01*
X12869000Y-8792600D02*
X12839000Y-8822600D01*
X12839000Y-9046600D02*
X12869000Y-9076600D01*
X12869000Y-9046600D02*
X12839000Y-9076600D01*
X12839000Y-9300600D02*
X12869000Y-9330600D01*
X12869000Y-9300600D02*
X12839000Y-9330600D01*
X12839000Y-9554600D02*
X12869000Y-9584600D01*
X12869000Y-9554600D02*
X12839000Y-9584600D01*
X12839000Y-10570600D02*
X12869000Y-10600600D01*
X12869000Y-10570600D02*
X12839000Y-10600600D01*
X12839000Y-10752000D02*
X12869000Y-10782000D01*
X12869000Y-10752000D02*
X12839000Y-10782000D01*
X12839000Y-11260000D02*
X12869000Y-11290000D01*
X12869000Y-11260000D02*
X12839000Y-11290000D01*
X12839000Y-11514000D02*
X12869000Y-11544000D01*
X12869000Y-11514000D02*
X12839000Y-11544000D01*
X12839000Y-11768000D02*
X12869000Y-11798000D01*
X12869000Y-11768000D02*
X12839000Y-11798000D01*
X12839000Y-12094600D02*
X12869000Y-12124600D01*
X12869000Y-12094600D02*
X12839000Y-12124600D01*
X12839000Y-12348600D02*
X12869000Y-12378600D01*
X12869000Y-12348600D02*
X12839000Y-12378600D01*
X12840000Y-9798000D02*
X12870000Y-9828000D01*
X12870000Y-9798000D02*
X12840000Y-9828000D01*
X12985000Y-7910000D02*
X13015000Y-7940000D01*
X13015000Y-7910000D02*
X12985000Y-7940000D01*
X13093000Y-5418000D02*
X13123000Y-5448000D01*
X13123000Y-5418000D02*
X13093000Y-5448000D01*
X13093000Y-6180000D02*
X13123000Y-6210000D01*
X13123000Y-6180000D02*
X13093000Y-6210000D01*
X13093000Y-8792600D02*
X13123000Y-8822600D01*
X13123000Y-8792600D02*
X13093000Y-8822600D01*
X13093000Y-9046600D02*
X13123000Y-9076600D01*
X13123000Y-9046600D02*
X13093000Y-9076600D01*
X13093000Y-12094600D02*
X13123000Y-12124600D01*
X13123000Y-12094600D02*
X13093000Y-12124600D01*
X13093000Y-12348600D02*
X13123000Y-12378600D01*
X13123000Y-12348600D02*
X13093000Y-12378600D01*
X13093000Y-12530000D02*
X13123000Y-12560000D01*
X13123000Y-12530000D02*
X13093000Y-12560000D01*
X13132000Y-10080000D02*
X13162000Y-10110000D01*
X13162000Y-10080000D02*
X13132000Y-10110000D01*
X13134250Y-7910000D02*
X13164250Y-7940000D01*
X13164250Y-7910000D02*
X13134250Y-7940000D01*
X13221000Y-12669000D02*
X13251000Y-12699000D01*
X13251000Y-12669000D02*
X13221000Y-12699000D01*
X13255000Y-7457000D02*
X13285000Y-7487000D01*
X13285000Y-7457000D02*
X13255000Y-7487000D01*
X13255000Y-7711000D02*
X13285000Y-7741000D01*
X13285000Y-7711000D02*
X13255000Y-7741000D01*
X13347000Y-5418000D02*
X13377000Y-5448000D01*
X13377000Y-5418000D02*
X13347000Y-5448000D01*
X13347000Y-6180000D02*
X13377000Y-6210000D01*
X13377000Y-6180000D02*
X13347000Y-6210000D01*
X13351000Y-10082000D02*
X13381000Y-10112000D01*
X13381000Y-10082000D02*
X13351000Y-10112000D01*
X13472000Y-10990000D02*
X13502000Y-11020000D01*
X13502000Y-10990000D02*
X13472000Y-11020000D01*
X13472000Y-11244000D02*
X13502000Y-11274000D01*
X13502000Y-11244000D02*
X13472000Y-11274000D01*
X13472000Y-11498000D02*
X13502000Y-11528000D01*
X13502000Y-11498000D02*
X13472000Y-11528000D01*
X13472000Y-12006000D02*
X13502000Y-12036000D01*
X13502000Y-12006000D02*
X13472000Y-12036000D01*
X13472000Y-12260000D02*
X13502000Y-12290000D01*
X13502000Y-12260000D02*
X13472000Y-12290000D01*
X13472000Y-12514000D02*
X13502000Y-12544000D01*
X13502000Y-12514000D02*
X13472000Y-12544000D01*
X13477000Y-10743000D02*
X13507000Y-10773000D01*
X13507000Y-10743000D02*
X13477000Y-10773000D01*
X13477000Y-11759000D02*
X13507000Y-11789000D01*
X13507000Y-11759000D02*
X13477000Y-11789000D01*
X13482000Y-10497000D02*
X13512000Y-10527000D01*
X13512000Y-10497000D02*
X13482000Y-10527000D01*
X13483000Y-9987000D02*
X13513000Y-10017000D01*
X13513000Y-9987000D02*
X13483000Y-10017000D01*
X13483000Y-10241000D02*
X13513000Y-10271000D01*
X13513000Y-10241000D02*
X13483000Y-10271000D01*
X13493000Y-9662000D02*
X13523000Y-9692000D01*
X13523000Y-9662000D02*
X13493000Y-9692000D01*
X13501000Y-9389000D02*
X13531000Y-9419000D01*
X13531000Y-9389000D02*
X13501000Y-9419000D01*
X13508000Y-6759000D02*
X13538000Y-6789000D01*
X13538000Y-6759000D02*
X13508000Y-6789000D01*
X13509000Y-7457000D02*
X13539000Y-7487000D01*
X13539000Y-7457000D02*
X13509000Y-7487000D01*
X13509000Y-7711000D02*
X13539000Y-7741000D01*
X13539000Y-7711000D02*
X13509000Y-7741000D01*
X13512000Y-6507000D02*
X13542000Y-6537000D01*
X13542000Y-6507000D02*
X13512000Y-6537000D01*
X13601000Y-5418000D02*
X13631000Y-5448000D01*
X13631000Y-5418000D02*
X13601000Y-5448000D01*
X13601000Y-8538600D02*
X13631000Y-8568600D01*
X13631000Y-8538600D02*
X13601000Y-8568600D01*
X13601000Y-8792600D02*
X13631000Y-8822600D01*
X13631000Y-8792600D02*
X13601000Y-8822600D01*
X13601000Y-9046600D02*
X13631000Y-9076600D01*
X13631000Y-9046600D02*
X13601000Y-9076600D01*
X13734000Y-6870000D02*
X13764000Y-6900000D01*
X13764000Y-6870000D02*
X13734000Y-6900000D01*
X13855000Y-5418000D02*
X13885000Y-5448000D01*
X13885000Y-5418000D02*
X13855000Y-5448000D01*
X13855000Y-5926000D02*
X13885000Y-5956000D01*
X13885000Y-5926000D02*
X13855000Y-5956000D01*
X13855000Y-6180000D02*
X13885000Y-6210000D01*
X13885000Y-6180000D02*
X13855000Y-6210000D01*
X13855000Y-8538600D02*
X13885000Y-8568600D01*
X13885000Y-8538600D02*
X13855000Y-8568600D01*
X13855000Y-8792600D02*
X13885000Y-8822600D01*
X13885000Y-8792600D02*
X13855000Y-8822600D01*
X13855000Y-9554600D02*
X13885000Y-9584600D01*
X13885000Y-9554600D02*
X13855000Y-9584600D01*
X13855000Y-9808600D02*
X13885000Y-9838600D01*
X13885000Y-9808600D02*
X13855000Y-9838600D01*
X13855000Y-9990000D02*
X13885000Y-10020000D01*
X13885000Y-9990000D02*
X13855000Y-10020000D01*
X13855000Y-10244000D02*
X13885000Y-10274000D01*
X13885000Y-10244000D02*
X13855000Y-10274000D01*
X13855000Y-11768000D02*
X13885000Y-11798000D01*
X13885000Y-11768000D02*
X13855000Y-11798000D01*
X13855000Y-12022000D02*
X13885000Y-12052000D01*
X13885000Y-12022000D02*
X13855000Y-12052000D01*
X13855000Y-12276000D02*
X13885000Y-12306000D01*
X13885000Y-12276000D02*
X13855000Y-12306000D01*
X13855000Y-12530000D02*
X13885000Y-12560000D01*
X13885000Y-12530000D02*
X13855000Y-12560000D01*
X14032000Y-6483000D02*
X14062000Y-6513000D01*
X14062000Y-6483000D02*
X14032000Y-6513000D01*
X14058000Y-6790000D02*
X14088000Y-6820000D01*
X14088000Y-6790000D02*
X14058000Y-6820000D01*
X14109000Y-5490600D02*
X14139000Y-5520600D01*
X14139000Y-5490600D02*
X14109000Y-5520600D01*
X14109000Y-5926000D02*
X14139000Y-5956000D01*
X14139000Y-5926000D02*
X14109000Y-5956000D01*
X14109000Y-6180000D02*
X14139000Y-6210000D01*
X14139000Y-6180000D02*
X14109000Y-6210000D01*
X14109000Y-7196000D02*
X14139000Y-7226000D01*
X14139000Y-7196000D02*
X14109000Y-7226000D01*
X14109000Y-7450000D02*
X14139000Y-7480000D01*
X14139000Y-7450000D02*
X14109000Y-7480000D01*
X14109000Y-7704000D02*
X14139000Y-7734000D01*
X14139000Y-7704000D02*
X14109000Y-7734000D01*
X14109000Y-8538600D02*
X14139000Y-8568600D01*
X14139000Y-8538600D02*
X14109000Y-8568600D01*
X14109000Y-8792600D02*
X14139000Y-8822600D01*
X14139000Y-8792600D02*
X14109000Y-8822600D01*
X14109000Y-9300600D02*
X14139000Y-9330600D01*
X14139000Y-9300600D02*
X14109000Y-9330600D01*
X14109000Y-9554600D02*
X14139000Y-9584600D01*
X14139000Y-9554600D02*
X14109000Y-9584600D01*
X14109000Y-9808600D02*
X14139000Y-9838600D01*
X14139000Y-9808600D02*
X14109000Y-9838600D01*
X14109000Y-9990000D02*
X14139000Y-10020000D01*
X14139000Y-9990000D02*
X14109000Y-10020000D01*
X14109000Y-10244000D02*
X14139000Y-10274000D01*
X14139000Y-10244000D02*
X14109000Y-10274000D01*
X14109000Y-10498000D02*
X14139000Y-10528000D01*
X14139000Y-10498000D02*
X14109000Y-10528000D01*
X14109000Y-10752000D02*
X14139000Y-10782000D01*
X14139000Y-10752000D02*
X14109000Y-10782000D01*
X14109000Y-11006000D02*
X14139000Y-11036000D01*
X14139000Y-11006000D02*
X14109000Y-11036000D01*
X14109000Y-11260000D02*
X14139000Y-11290000D01*
X14139000Y-11260000D02*
X14109000Y-11290000D01*
X14109000Y-11514000D02*
X14139000Y-11544000D01*
X14139000Y-11514000D02*
X14109000Y-11544000D01*
X14109000Y-11768000D02*
X14139000Y-11798000D01*
X14139000Y-11768000D02*
X14109000Y-11798000D01*
X14109000Y-12022000D02*
X14139000Y-12052000D01*
X14139000Y-12022000D02*
X14109000Y-12052000D01*
X14109000Y-12276000D02*
X14139000Y-12306000D01*
X14139000Y-12276000D02*
X14109000Y-12306000D01*
X14109000Y-12530000D02*
X14139000Y-12560000D01*
X14139000Y-12530000D02*
X14109000Y-12560000D01*
X14262000Y-6641000D02*
X14292000Y-6671000D01*
X14292000Y-6641000D02*
X14262000Y-6671000D01*
X14363000Y-5164000D02*
X14393000Y-5194000D01*
X14393000Y-5164000D02*
X14363000Y-5194000D01*
X14363000Y-5926000D02*
X14393000Y-5956000D01*
X14393000Y-5926000D02*
X14363000Y-5956000D01*
X14363000Y-6180000D02*
X14393000Y-6210000D01*
X14393000Y-6180000D02*
X14363000Y-6210000D01*
X14363000Y-6688000D02*
X14393000Y-6718000D01*
X14393000Y-6688000D02*
X14363000Y-6718000D01*
X14363000Y-7196000D02*
X14393000Y-7226000D01*
X14393000Y-7196000D02*
X14363000Y-7226000D01*
X14363000Y-7450000D02*
X14393000Y-7480000D01*
X14393000Y-7450000D02*
X14363000Y-7480000D01*
X14363000Y-7704000D02*
X14393000Y-7734000D01*
X14393000Y-7704000D02*
X14363000Y-7734000D01*
X14363000Y-8538600D02*
X14393000Y-8568600D01*
X14393000Y-8538600D02*
X14363000Y-8568600D01*
X14363000Y-8792600D02*
X14393000Y-8822600D01*
X14393000Y-8792600D02*
X14363000Y-8822600D01*
X14363000Y-9300600D02*
X14393000Y-9330600D01*
X14393000Y-9300600D02*
X14363000Y-9330600D01*
X14363000Y-9554600D02*
X14393000Y-9584600D01*
X14393000Y-9554600D02*
X14363000Y-9584600D01*
X14363000Y-9808600D02*
X14393000Y-9838600D01*
X14393000Y-9808600D02*
X14363000Y-9838600D01*
X14363000Y-9990000D02*
X14393000Y-10020000D01*
X14393000Y-9990000D02*
X14363000Y-10020000D01*
X14363000Y-10244000D02*
X14393000Y-10274000D01*
X14393000Y-10244000D02*
X14363000Y-10274000D01*
X14363000Y-10498000D02*
X14393000Y-10528000D01*
X14393000Y-10498000D02*
X14363000Y-10528000D01*
X14363000Y-10752000D02*
X14393000Y-10782000D01*
X14393000Y-10752000D02*
X14363000Y-10782000D01*
X14363000Y-11006000D02*
X14393000Y-11036000D01*
X14393000Y-11006000D02*
X14363000Y-11036000D01*
X14363000Y-11260000D02*
X14393000Y-11290000D01*
X14393000Y-11260000D02*
X14363000Y-11290000D01*
X14363000Y-11514000D02*
X14393000Y-11544000D01*
X14393000Y-11514000D02*
X14363000Y-11544000D01*
X14363000Y-11768000D02*
X14393000Y-11798000D01*
X14393000Y-11768000D02*
X14363000Y-11798000D01*
X14363000Y-12022000D02*
X14393000Y-12052000D01*
X14393000Y-12022000D02*
X14363000Y-12052000D01*
X14363000Y-12276000D02*
X14393000Y-12306000D01*
X14393000Y-12276000D02*
X14363000Y-12306000D01*
X14363000Y-12530000D02*
X14393000Y-12560000D01*
X14393000Y-12530000D02*
X14363000Y-12560000D01*
X14363000Y-12784000D02*
X14393000Y-12814000D01*
X14393000Y-12784000D02*
X14363000Y-12814000D01*
X14363000Y-13038000D02*
X14393000Y-13068000D01*
X14393000Y-13038000D02*
X14363000Y-13068000D01*
X14617000Y-10244000D02*
X14647000Y-10274000D01*
X14647000Y-10244000D02*
X14617000Y-10274000D01*
X14617000Y-10498000D02*
X14647000Y-10528000D01*
X14647000Y-10498000D02*
X14617000Y-10528000D01*
X14617000Y-10752000D02*
X14647000Y-10782000D01*
X14647000Y-10752000D02*
X14617000Y-10782000D01*
X14617000Y-11006000D02*
X14647000Y-11036000D01*
X14647000Y-11006000D02*
X14617000Y-11036000D01*
X14617000Y-11260000D02*
X14647000Y-11290000D01*
X14647000Y-11260000D02*
X14617000Y-11290000D01*
X14617000Y-11514000D02*
X14647000Y-11544000D01*
X14647000Y-11514000D02*
X14617000Y-11544000D01*
X14617000Y-11768000D02*
X14647000Y-11798000D01*
X14647000Y-11768000D02*
X14617000Y-11798000D01*
X14617000Y-12022000D02*
X14647000Y-12052000D01*
X14647000Y-12022000D02*
X14617000Y-12052000D01*
X14617000Y-12276000D02*
X14647000Y-12306000D01*
X14647000Y-12276000D02*
X14617000Y-12306000D01*
X14617000Y-12530000D02*
X14647000Y-12560000D01*
X14647000Y-12530000D02*
X14617000Y-12560000D01*
X14617000Y-12784000D02*
X14647000Y-12814000D01*
X14647000Y-12784000D02*
X14617000Y-12814000D01*
X14617000Y-13038000D02*
X14647000Y-13068000D01*
X14647000Y-13038000D02*
X14617000Y-13068000D01*
X14871000Y-5164000D02*
X14901000Y-5194000D01*
X14901000Y-5164000D02*
X14871000Y-5194000D01*
X14871000Y-5418000D02*
X14901000Y-5448000D01*
X14901000Y-5418000D02*
X14871000Y-5448000D01*
X14871000Y-5672000D02*
X14901000Y-5702000D01*
X14901000Y-5672000D02*
X14871000Y-5702000D01*
X14871000Y-5926000D02*
X14901000Y-5956000D01*
X14901000Y-5926000D02*
X14871000Y-5956000D01*
X14871000Y-6180000D02*
X14901000Y-6210000D01*
X14901000Y-6180000D02*
X14871000Y-6210000D01*
X14871000Y-6434000D02*
X14901000Y-6464000D01*
X14901000Y-6434000D02*
X14871000Y-6464000D01*
X14871000Y-6688000D02*
X14901000Y-6718000D01*
X14901000Y-6688000D02*
X14871000Y-6718000D01*
X14871000Y-6942000D02*
X14901000Y-6972000D01*
X14901000Y-6942000D02*
X14871000Y-6972000D01*
X14871000Y-7196000D02*
X14901000Y-7226000D01*
X14901000Y-7196000D02*
X14871000Y-7226000D01*
X14871000Y-7450000D02*
X14901000Y-7480000D01*
X14901000Y-7450000D02*
X14871000Y-7480000D01*
X14871000Y-7704000D02*
X14901000Y-7734000D01*
X14901000Y-7704000D02*
X14871000Y-7734000D01*
X14871000Y-7958000D02*
X14901000Y-7988000D01*
X14901000Y-7958000D02*
X14871000Y-7988000D01*
X14871000Y-8212000D02*
X14901000Y-8242000D01*
X14901000Y-8212000D02*
X14871000Y-8242000D01*
X14871000Y-8466000D02*
X14901000Y-8496000D01*
X14901000Y-8466000D02*
X14871000Y-8496000D01*
X14871000Y-8720000D02*
X14901000Y-8750000D01*
X14901000Y-8720000D02*
X14871000Y-8750000D01*
X14871000Y-8974000D02*
X14901000Y-9004000D01*
X14901000Y-8974000D02*
X14871000Y-9004000D01*
X14871000Y-9228000D02*
X14901000Y-9258000D01*
X14901000Y-9228000D02*
X14871000Y-9258000D01*
X14871000Y-9482000D02*
X14901000Y-9512000D01*
X14901000Y-9482000D02*
X14871000Y-9512000D01*
X14871000Y-9736000D02*
X14901000Y-9766000D01*
X14901000Y-9736000D02*
X14871000Y-9766000D01*
X14871000Y-9990000D02*
X14901000Y-10020000D01*
X14901000Y-9990000D02*
X14871000Y-10020000D01*
X14871000Y-10244000D02*
X14901000Y-10274000D01*
X14901000Y-10244000D02*
X14871000Y-10274000D01*
X14871000Y-10498000D02*
X14901000Y-10528000D01*
X14901000Y-10498000D02*
X14871000Y-10528000D01*
X14871000Y-10752000D02*
X14901000Y-10782000D01*
X14901000Y-10752000D02*
X14871000Y-10782000D01*
X14871000Y-11006000D02*
X14901000Y-11036000D01*
X14901000Y-11006000D02*
X14871000Y-11036000D01*
X14871000Y-11260000D02*
X14901000Y-11290000D01*
X14901000Y-11260000D02*
X14871000Y-11290000D01*
X14871000Y-11514000D02*
X14901000Y-11544000D01*
X14901000Y-11514000D02*
X14871000Y-11544000D01*
X14871000Y-11768000D02*
X14901000Y-11798000D01*
X14901000Y-11768000D02*
X14871000Y-11798000D01*
X14871000Y-12022000D02*
X14901000Y-12052000D01*
X14901000Y-12022000D02*
X14871000Y-12052000D01*
X14871000Y-12276000D02*
X14901000Y-12306000D01*
X14901000Y-12276000D02*
X14871000Y-12306000D01*
X14871000Y-12530000D02*
X14901000Y-12560000D01*
X14901000Y-12530000D02*
X14871000Y-12560000D01*
X14871000Y-12784000D02*
X14901000Y-12814000D01*
X14901000Y-12784000D02*
X14871000Y-12814000D01*
X14871000Y-13038000D02*
X14901000Y-13068000D01*
X14901000Y-13038000D02*
X14871000Y-13068000D01*
X13689000Y-6357000D02*
G75*
G02*
X13639000Y-6357000I-25000J0D01*
G01*
X13639000Y-6357000D02*
G75*
G02*
X13689000Y-6357000I25000J0D01*
G01*
X13859000Y-6357000D02*
G75*
G02*
X13809000Y-6357000I-25000J0D01*
G01*
X13809000Y-6357000D02*
G75*
G02*
X13859000Y-6357000I25000J0D01*
G01*
X6814000Y-5201000D02*
X6814000Y-5261000D01*
X6784000Y-5231000D02*
X6844000Y-5231000D01*
X6921000Y-5204000D02*
X6921000Y-5264000D01*
X6891000Y-5234000D02*
X6951000Y-5234000D01*
X11401000Y-9782000D02*
X11401000Y-9842000D01*
X11371000Y-9812000D02*
X11431000Y-9812000D01*
X5431285Y-12210284D02*
X5431285Y-12153715D01*
X5374716Y-12153715D01*
X5374716Y-12210284D01*
X5431285Y-12210284D01*
X6181284Y-12480284D02*
X6181284Y-12423715D01*
X6124715Y-12423715D01*
X6124715Y-12480284D01*
X6181284Y-12480284D01*
X5755000Y-10425000D02*
X5800000Y-10380000D01*
X5755000Y-10335000D01*
X5710000Y-10380000D01*
X5755000Y-10425000D01*
X5755000Y-11125000D02*
X5800000Y-11080000D01*
X5755000Y-11035000D01*
X5710000Y-11080000D01*
X5755000Y-11125000D01*
X6555000Y-10425000D02*
X6600000Y-10380000D01*
X6555000Y-10335000D01*
X6510000Y-10380000D01*
X6555000Y-10425000D01*
X6555000Y-11125000D02*
X6600000Y-11080000D01*
X6555000Y-11035000D01*
X6510000Y-11080000D01*
X6555000Y-11125000D01*
X5450000Y-6762000D02*
X5550000Y-6862000D01*
X5550000Y-6762000D02*
X5450000Y-6862000D01*
X5550000Y-6812000D02*
G75*
G02*
X5450000Y-6812000I-50000J0D01*
G01*
X5450000Y-6812000D02*
G75*
G02*
X5550000Y-6812000I50000J0D01*
G01*
X5871000Y-13430000D02*
X5971000Y-13530000D01*
X5971000Y-13430000D02*
X5871000Y-13530000D01*
X5971000Y-13480000D02*
G75*
G02*
X5871000Y-13480000I-50000J0D01*
G01*
X5871000Y-13480000D02*
G75*
G02*
X5971000Y-13480000I50000J0D01*
G01*
X5846000Y-13530000D02*
X5996000Y-13530000D01*
X5996000Y-13430000D02*
G75*
G02*
X5996000Y-13530000I0J-50000D01*
G01*
X5996000Y-13430000D02*
X5846000Y-13430000D01*
X5846000Y-13430000D02*
G75*
G03*
X5846000Y-13530000I0J-50000D01*
G01*
X5950000Y-9670000D02*
X6050000Y-9770000D01*
X6050000Y-9670000D02*
X5950000Y-9770000D01*
X6050000Y-9720000D02*
G75*
G02*
X5950000Y-9720000I-50000J0D01*
G01*
X5950000Y-9720000D02*
G75*
G02*
X6050000Y-9720000I50000J0D01*
G01*
X6450000Y-9670000D02*
X6550000Y-9770000D01*
X6550000Y-9670000D02*
X6450000Y-9770000D01*
X6550000Y-9720000D02*
G75*
G02*
X6450000Y-9720000I-50000J0D01*
G01*
X6450000Y-9720000D02*
G75*
G02*
X6550000Y-9720000I50000J0D01*
G01*
X6821000Y-13430000D02*
X6921000Y-13530000D01*
X6921000Y-13430000D02*
X6821000Y-13530000D01*
X6921000Y-13480000D02*
G75*
G02*
X6821000Y-13480000I-50000J0D01*
G01*
X6821000Y-13480000D02*
G75*
G02*
X6921000Y-13480000I50000J0D01*
G01*
X6796000Y-13530000D02*
X6946000Y-13530000D01*
X6946000Y-13430000D02*
G75*
G02*
X6946000Y-13530000I0J-50000D01*
G01*
X6946000Y-13430000D02*
X6796000Y-13430000D01*
X6796000Y-13430000D02*
G75*
G03*
X6796000Y-13530000I0J-50000D01*
G01*
X6950000Y-6762000D02*
X7050000Y-6862000D01*
X7050000Y-6762000D02*
X6950000Y-6862000D01*
X7050000Y-6812000D02*
G75*
G02*
X6950000Y-6812000I-50000J0D01*
G01*
X6950000Y-6812000D02*
G75*
G02*
X7050000Y-6812000I50000J0D01*
G01*
X7740000Y-6879000D02*
X7840000Y-6979000D01*
X7840000Y-6879000D02*
X7740000Y-6979000D01*
X7840000Y-6929000D02*
G75*
G02*
X7740000Y-6929000I-50000J0D01*
G01*
X7740000Y-6929000D02*
G75*
G02*
X7840000Y-6929000I50000J0D01*
G01*
X7740000Y-7133000D02*
X7840000Y-7233000D01*
X7840000Y-7133000D02*
X7740000Y-7233000D01*
X7840000Y-7183000D02*
G75*
G02*
X7740000Y-7183000I-50000J0D01*
G01*
X7740000Y-7183000D02*
G75*
G02*
X7840000Y-7183000I50000J0D01*
G01*
X7740000Y-7387000D02*
X7840000Y-7487000D01*
X7840000Y-7387000D02*
X7740000Y-7487000D01*
X7840000Y-7437000D02*
G75*
G02*
X7740000Y-7437000I-50000J0D01*
G01*
X7740000Y-7437000D02*
G75*
G02*
X7840000Y-7437000I50000J0D01*
G01*
X7740000Y-7641000D02*
X7840000Y-7741000D01*
X7840000Y-7641000D02*
X7740000Y-7741000D01*
X7840000Y-7691000D02*
G75*
G02*
X7740000Y-7691000I-50000J0D01*
G01*
X7740000Y-7691000D02*
G75*
G02*
X7840000Y-7691000I50000J0D01*
G01*
X7771000Y-13430000D02*
X7871000Y-13530000D01*
X7871000Y-13430000D02*
X7771000Y-13530000D01*
X7871000Y-13480000D02*
G75*
G02*
X7771000Y-13480000I-50000J0D01*
G01*
X7771000Y-13480000D02*
G75*
G02*
X7871000Y-13480000I50000J0D01*
G01*
X7746000Y-13530000D02*
X7896000Y-13530000D01*
X7896000Y-13430000D02*
G75*
G02*
X7896000Y-13530000I0J-50000D01*
G01*
X7896000Y-13430000D02*
X7746000Y-13430000D01*
X7746000Y-13430000D02*
G75*
G03*
X7746000Y-13530000I0J-50000D01*
G01*
X8388000Y-5586000D02*
X8488000Y-5686000D01*
X8488000Y-5586000D02*
X8388000Y-5686000D01*
X8488000Y-5636000D02*
G75*
G02*
X8388000Y-5636000I-50000J0D01*
G01*
X8388000Y-5636000D02*
G75*
G02*
X8488000Y-5636000I50000J0D01*
G01*
X8388000Y-5840000D02*
X8488000Y-5940000D01*
X8488000Y-5840000D02*
X8388000Y-5940000D01*
X8488000Y-5890000D02*
G75*
G02*
X8388000Y-5890000I-50000J0D01*
G01*
X8388000Y-5890000D02*
G75*
G02*
X8488000Y-5890000I50000J0D01*
G01*
X8388000Y-6094000D02*
X8488000Y-6194000D01*
X8488000Y-6094000D02*
X8388000Y-6194000D01*
X8488000Y-6144000D02*
G75*
G02*
X8388000Y-6144000I-50000J0D01*
G01*
X8388000Y-6144000D02*
G75*
G02*
X8488000Y-6144000I50000J0D01*
G01*
X8721000Y-13430000D02*
X8821000Y-13530000D01*
X8821000Y-13430000D02*
X8721000Y-13530000D01*
X8821000Y-13480000D02*
G75*
G02*
X8721000Y-13480000I-50000J0D01*
G01*
X8721000Y-13480000D02*
G75*
G02*
X8821000Y-13480000I50000J0D01*
G01*
X8696000Y-13530000D02*
X8846000Y-13530000D01*
X8846000Y-13430000D02*
G75*
G02*
X8846000Y-13530000I0J-50000D01*
G01*
X8846000Y-13430000D02*
X8696000Y-13430000D01*
X8696000Y-13430000D02*
G75*
G03*
X8696000Y-13530000I0J-50000D01*
G01*
X9671000Y-13430000D02*
X9771000Y-13530000D01*
X9771000Y-13430000D02*
X9671000Y-13530000D01*
X9771000Y-13480000D02*
G75*
G02*
X9671000Y-13480000I-50000J0D01*
G01*
X9671000Y-13480000D02*
G75*
G02*
X9771000Y-13480000I50000J0D01*
G01*
X9646000Y-13530000D02*
X9796000Y-13530000D01*
X9796000Y-13430000D02*
G75*
G02*
X9796000Y-13530000I0J-50000D01*
G01*
X9796000Y-13430000D02*
X9646000Y-13430000D01*
X9646000Y-13430000D02*
G75*
G03*
X9646000Y-13530000I0J-50000D01*
G01*
X9836000Y-5586000D02*
X9936000Y-5686000D01*
X9936000Y-5586000D02*
X9836000Y-5686000D01*
X9936000Y-5636000D02*
G75*
G02*
X9836000Y-5636000I-50000J0D01*
G01*
X9836000Y-5636000D02*
G75*
G02*
X9936000Y-5636000I50000J0D01*
G01*
X9836000Y-5840000D02*
X9936000Y-5940000D01*
X9936000Y-5840000D02*
X9836000Y-5940000D01*
X9936000Y-5890000D02*
G75*
G02*
X9836000Y-5890000I-50000J0D01*
G01*
X9836000Y-5890000D02*
G75*
G02*
X9936000Y-5890000I50000J0D01*
G01*
X9836000Y-6094000D02*
X9936000Y-6194000D01*
X9936000Y-6094000D02*
X9836000Y-6194000D01*
X9936000Y-6144000D02*
G75*
G02*
X9836000Y-6144000I-50000J0D01*
G01*
X9836000Y-6144000D02*
G75*
G02*
X9936000Y-6144000I50000J0D01*
G01*
X10858000Y-12784000D02*
X10958000Y-12884000D01*
X10958000Y-12784000D02*
X10858000Y-12884000D01*
X10958000Y-12834000D02*
G75*
G02*
X10858000Y-12834000I-50000J0D01*
G01*
X10858000Y-12834000D02*
G75*
G02*
X10958000Y-12834000I50000J0D01*
G01*
X11112000Y-12784000D02*
X11212000Y-12884000D01*
X11212000Y-12784000D02*
X11112000Y-12884000D01*
X11212000Y-12834000D02*
G75*
G02*
X11112000Y-12834000I-50000J0D01*
G01*
X11112000Y-12834000D02*
G75*
G02*
X11212000Y-12834000I50000J0D01*
G01*
X11366000Y-12784000D02*
X11466000Y-12884000D01*
X11466000Y-12784000D02*
X11366000Y-12884000D01*
X11466000Y-12834000D02*
G75*
G02*
X11366000Y-12834000I-50000J0D01*
G01*
X11366000Y-12834000D02*
G75*
G02*
X11466000Y-12834000I50000J0D01*
G01*
X11620000Y-12784000D02*
X11720000Y-12884000D01*
X11720000Y-12784000D02*
X11620000Y-12884000D01*
X11720000Y-12834000D02*
G75*
G02*
X11620000Y-12834000I-50000J0D01*
G01*
X11620000Y-12834000D02*
G75*
G02*
X11720000Y-12834000I50000J0D01*
G01*
X11874000Y-12784000D02*
X11974000Y-12884000D01*
X11974000Y-12784000D02*
X11874000Y-12884000D01*
X11974000Y-12834000D02*
G75*
G02*
X11874000Y-12834000I-50000J0D01*
G01*
X11874000Y-12834000D02*
G75*
G02*
X11974000Y-12834000I50000J0D01*
G01*
X11941000Y-10950000D02*
X12041000Y-11050000D01*
X12041000Y-10950000D02*
X11941000Y-11050000D01*
X12041000Y-11000000D02*
G75*
G02*
X11941000Y-11000000I-50000J0D01*
G01*
X11941000Y-11000000D02*
G75*
G02*
X12041000Y-11000000I50000J0D01*
G01*
X12128000Y-12784000D02*
X12228000Y-12884000D01*
X12228000Y-12784000D02*
X12128000Y-12884000D01*
X12228000Y-12834000D02*
G75*
G02*
X12128000Y-12834000I-50000J0D01*
G01*
X12128000Y-12834000D02*
G75*
G02*
X12228000Y-12834000I50000J0D01*
G01*
X12382000Y-12784000D02*
X12482000Y-12884000D01*
X12482000Y-12784000D02*
X12382000Y-12884000D01*
X12482000Y-12834000D02*
G75*
G02*
X12382000Y-12834000I-50000J0D01*
G01*
X12382000Y-12834000D02*
G75*
G02*
X12482000Y-12834000I50000J0D01*
G01*
X12636000Y-12784000D02*
X12736000Y-12884000D01*
X12736000Y-12784000D02*
X12636000Y-12884000D01*
X12736000Y-12834000D02*
G75*
G02*
X12636000Y-12834000I-50000J0D01*
G01*
X12636000Y-12834000D02*
G75*
G02*
X12736000Y-12834000I50000J0D01*
G01*
X12701000Y-10950000D02*
X12801000Y-11050000D01*
X12801000Y-10950000D02*
X12701000Y-11050000D01*
X12801000Y-11000000D02*
G75*
G02*
X12701000Y-11000000I-50000J0D01*
G01*
X12701000Y-11000000D02*
G75*
G02*
X12801000Y-11000000I50000J0D01*
G01*
X12890000Y-12784000D02*
X12990000Y-12884000D01*
X12990000Y-12784000D02*
X12890000Y-12884000D01*
X12990000Y-12834000D02*
G75*
G02*
X12890000Y-12834000I-50000J0D01*
G01*
X12890000Y-12834000D02*
G75*
G02*
X12990000Y-12834000I50000J0D01*
G01*
X13144000Y-12784000D02*
X13244000Y-12884000D01*
X13244000Y-12784000D02*
X13144000Y-12884000D01*
X13244000Y-12834000D02*
G75*
G02*
X13144000Y-12834000I-50000J0D01*
G01*
X13144000Y-12834000D02*
G75*
G02*
X13244000Y-12834000I50000J0D01*
G01*
X13398000Y-12784000D02*
X13498000Y-12884000D01*
X13498000Y-12784000D02*
X13398000Y-12884000D01*
X13498000Y-12834000D02*
G75*
G02*
X13398000Y-12834000I-50000J0D01*
G01*
X13398000Y-12834000D02*
G75*
G02*
X13498000Y-12834000I50000J0D01*
G01*
X13652000Y-12784000D02*
X13752000Y-12884000D01*
X13752000Y-12784000D02*
X13652000Y-12884000D01*
X13752000Y-12834000D02*
G75*
G02*
X13652000Y-12834000I-50000J0D01*
G01*
X13652000Y-12834000D02*
G75*
G02*
X13752000Y-12834000I50000J0D01*
G01*
X13906000Y-12784000D02*
X14006000Y-12884000D01*
X14006000Y-12784000D02*
X13906000Y-12884000D01*
X14006000Y-12834000D02*
G75*
G02*
X13906000Y-12834000I-50000J0D01*
G01*
X13906000Y-12834000D02*
G75*
G02*
X14006000Y-12834000I50000J0D01*
G01*
X14160000Y-12784000D02*
X14260000Y-12884000D01*
X14260000Y-12784000D02*
X14160000Y-12884000D01*
X14260000Y-12834000D02*
G75*
G02*
X14160000Y-12834000I-50000J0D01*
G01*
X14160000Y-12834000D02*
G75*
G02*
X14260000Y-12834000I50000J0D01*
G01*
D13*
X5354500Y-12769500D02*
X5455500Y-12870500D01*
X5455500Y-12769500D02*
X5354500Y-12870500D01*
X5405000Y-12769500D02*
X5405000Y-12870500D01*
X5354500Y-12820000D02*
X5455500Y-12820000D01*
X5864500Y-12889500D02*
X5965500Y-12990500D01*
X5965500Y-12889500D02*
X5864500Y-12990500D01*
X5915000Y-12889500D02*
X5915000Y-12990500D01*
X5864500Y-12940000D02*
X5965500Y-12940000D01*
D14*
X11969000Y-5189000D02*
X12071000Y-5291000D01*
X12071000Y-5189000D02*
X11969000Y-5291000D01*
X12056063Y-5276063D02*
X12056063Y-5203937D01*
X11983937Y-5203937D01*
X11983937Y-5276063D01*
X12056063Y-5276063D01*
X11969000Y-5443000D02*
X12071000Y-5545000D01*
X12071000Y-5443000D02*
X11969000Y-5545000D01*
X12056063Y-5530063D02*
X12056063Y-5457937D01*
X11983937Y-5457937D01*
X11983937Y-5530063D01*
X12056063Y-5530063D01*
X11969000Y-5697000D02*
X12071000Y-5799000D01*
X12071000Y-5697000D02*
X11969000Y-5799000D01*
X12056063Y-5784063D02*
X12056063Y-5711937D01*
X11983937Y-5711937D01*
X11983937Y-5784063D01*
X12056063Y-5784063D01*
X11969000Y-5951000D02*
X12071000Y-6053000D01*
X12071000Y-5951000D02*
X11969000Y-6053000D01*
X12056063Y-6038063D02*
X12056063Y-5965937D01*
X11983937Y-5965937D01*
X11983937Y-6038063D01*
X12056063Y-6038063D01*
X11969000Y-6205000D02*
X12071000Y-6307000D01*
X12071000Y-6205000D02*
X11969000Y-6307000D01*
X12056063Y-6292063D02*
X12056063Y-6219937D01*
X11983937Y-6219937D01*
X11983937Y-6292063D01*
X12056063Y-6292063D01*
X11969000Y-6459000D02*
X12071000Y-6561000D01*
X12071000Y-6459000D02*
X11969000Y-6561000D01*
X12056063Y-6546063D02*
X12056063Y-6473937D01*
X11983937Y-6473937D01*
X11983937Y-6546063D01*
X12056063Y-6546063D01*
X11969000Y-6713000D02*
X12071000Y-6815000D01*
X12071000Y-6713000D02*
X11969000Y-6815000D01*
X12056063Y-6800063D02*
X12056063Y-6727937D01*
X11983937Y-6727937D01*
X11983937Y-6800063D01*
X12056063Y-6800063D01*
X11969000Y-6967000D02*
X12071000Y-7069000D01*
X12071000Y-6967000D02*
X11969000Y-7069000D01*
X12056063Y-7054063D02*
X12056063Y-6981937D01*
X11983937Y-6981937D01*
X11983937Y-7054063D01*
X12056063Y-7054063D01*
X11969000Y-7221000D02*
X12071000Y-7323000D01*
X12071000Y-7221000D02*
X11969000Y-7323000D01*
X12056063Y-7308063D02*
X12056063Y-7235937D01*
X11983937Y-7235937D01*
X11983937Y-7308063D01*
X12056063Y-7308063D01*
X11969000Y-7475000D02*
X12071000Y-7577000D01*
X12071000Y-7475000D02*
X11969000Y-7577000D01*
X12056063Y-7562063D02*
X12056063Y-7489937D01*
X11983937Y-7489937D01*
X11983937Y-7562063D01*
X12056063Y-7562063D01*
X11969000Y-7729000D02*
X12071000Y-7831000D01*
X12071000Y-7729000D02*
X11969000Y-7831000D01*
X12056063Y-7816063D02*
X12056063Y-7743937D01*
X11983937Y-7743937D01*
X11983937Y-7816063D01*
X12056063Y-7816063D01*
X11969000Y-7983000D02*
X12071000Y-8085000D01*
X12071000Y-7983000D02*
X11969000Y-8085000D01*
X12056063Y-8070063D02*
X12056063Y-7997937D01*
X11983937Y-7997937D01*
X11983937Y-8070063D01*
X12056063Y-8070063D01*
X11969000Y-8237000D02*
X12071000Y-8339000D01*
X12071000Y-8237000D02*
X11969000Y-8339000D01*
X12056063Y-8324063D02*
X12056063Y-8251937D01*
X11983937Y-8251937D01*
X11983937Y-8324063D01*
X12056063Y-8324063D01*
X11969000Y-8491000D02*
X12071000Y-8593000D01*
X12071000Y-8491000D02*
X11969000Y-8593000D01*
X12056063Y-8578063D02*
X12056063Y-8505937D01*
X11983937Y-8505937D01*
X11983937Y-8578063D01*
X12056063Y-8578063D01*
X11969000Y-8745000D02*
X12071000Y-8847000D01*
X12071000Y-8745000D02*
X11969000Y-8847000D01*
X12056063Y-8832063D02*
X12056063Y-8759937D01*
X11983937Y-8759937D01*
X11983937Y-8832063D01*
X12056063Y-8832063D01*
X11969000Y-8999000D02*
X12071000Y-9101000D01*
X12071000Y-8999000D02*
X11969000Y-9101000D01*
X12056063Y-9086063D02*
X12056063Y-9013937D01*
X11983937Y-9013937D01*
X11983937Y-9086063D01*
X12056063Y-9086063D01*
X11969000Y-9253000D02*
X12071000Y-9355000D01*
X12071000Y-9253000D02*
X11969000Y-9355000D01*
X12056063Y-9340063D02*
X12056063Y-9267937D01*
X11983937Y-9267937D01*
X11983937Y-9340063D01*
X12056063Y-9340063D01*
X11969000Y-9507000D02*
X12071000Y-9609000D01*
X12071000Y-9507000D02*
X11969000Y-9609000D01*
X12056063Y-9594063D02*
X12056063Y-9521937D01*
X11983937Y-9521937D01*
X11983937Y-9594063D01*
X12056063Y-9594063D01*
X11969000Y-9761000D02*
X12071000Y-9863000D01*
X12071000Y-9761000D02*
X11969000Y-9863000D01*
X12056063Y-9848063D02*
X12056063Y-9775937D01*
X11983937Y-9775937D01*
X11983937Y-9848063D01*
X12056063Y-9848063D01*
X14509000Y-5189000D02*
X14611000Y-5291000D01*
X14611000Y-5189000D02*
X14509000Y-5291000D01*
X14596063Y-5276063D02*
X14596063Y-5203937D01*
X14523937Y-5203937D01*
X14523937Y-5276063D01*
X14596063Y-5276063D01*
X14509000Y-5443000D02*
X14611000Y-5545000D01*
X14611000Y-5443000D02*
X14509000Y-5545000D01*
X14596063Y-5530063D02*
X14596063Y-5457937D01*
X14523937Y-5457937D01*
X14523937Y-5530063D01*
X14596063Y-5530063D01*
X14509000Y-5697000D02*
X14611000Y-5799000D01*
X14611000Y-5697000D02*
X14509000Y-5799000D01*
X14596063Y-5784063D02*
X14596063Y-5711937D01*
X14523937Y-5711937D01*
X14523937Y-5784063D01*
X14596063Y-5784063D01*
X14509000Y-5951000D02*
X14611000Y-6053000D01*
X14611000Y-5951000D02*
X14509000Y-6053000D01*
X14596063Y-6038063D02*
X14596063Y-5965937D01*
X14523937Y-5965937D01*
X14523937Y-6038063D01*
X14596063Y-6038063D01*
X14509000Y-6205000D02*
X14611000Y-6307000D01*
X14611000Y-6205000D02*
X14509000Y-6307000D01*
X14596063Y-6292063D02*
X14596063Y-6219937D01*
X14523937Y-6219937D01*
X14523937Y-6292063D01*
X14596063Y-6292063D01*
X14509000Y-6459000D02*
X14611000Y-6561000D01*
X14611000Y-6459000D02*
X14509000Y-6561000D01*
X14596063Y-6546063D02*
X14596063Y-6473937D01*
X14523937Y-6473937D01*
X14523937Y-6546063D01*
X14596063Y-6546063D01*
X14509000Y-6713000D02*
X14611000Y-6815000D01*
X14611000Y-6713000D02*
X14509000Y-6815000D01*
X14596063Y-6800063D02*
X14596063Y-6727937D01*
X14523937Y-6727937D01*
X14523937Y-6800063D01*
X14596063Y-6800063D01*
X14509000Y-6967000D02*
X14611000Y-7069000D01*
X14611000Y-6967000D02*
X14509000Y-7069000D01*
X14596063Y-7054063D02*
X14596063Y-6981937D01*
X14523937Y-6981937D01*
X14523937Y-7054063D01*
X14596063Y-7054063D01*
X14509000Y-7221000D02*
X14611000Y-7323000D01*
X14611000Y-7221000D02*
X14509000Y-7323000D01*
X14596063Y-7308063D02*
X14596063Y-7235937D01*
X14523937Y-7235937D01*
X14523937Y-7308063D01*
X14596063Y-7308063D01*
X14509000Y-7475000D02*
X14611000Y-7577000D01*
X14611000Y-7475000D02*
X14509000Y-7577000D01*
X14596063Y-7562063D02*
X14596063Y-7489937D01*
X14523937Y-7489937D01*
X14523937Y-7562063D01*
X14596063Y-7562063D01*
X14509000Y-7729000D02*
X14611000Y-7831000D01*
X14611000Y-7729000D02*
X14509000Y-7831000D01*
X14596063Y-7816063D02*
X14596063Y-7743937D01*
X14523937Y-7743937D01*
X14523937Y-7816063D01*
X14596063Y-7816063D01*
X14509000Y-7983000D02*
X14611000Y-8085000D01*
X14611000Y-7983000D02*
X14509000Y-8085000D01*
X14596063Y-8070063D02*
X14596063Y-7997937D01*
X14523937Y-7997937D01*
X14523937Y-8070063D01*
X14596063Y-8070063D01*
X14509000Y-8237000D02*
X14611000Y-8339000D01*
X14611000Y-8237000D02*
X14509000Y-8339000D01*
X14596063Y-8324063D02*
X14596063Y-8251937D01*
X14523937Y-8251937D01*
X14523937Y-8324063D01*
X14596063Y-8324063D01*
X14509000Y-8491000D02*
X14611000Y-8593000D01*
X14611000Y-8491000D02*
X14509000Y-8593000D01*
X14596063Y-8578063D02*
X14596063Y-8505937D01*
X14523937Y-8505937D01*
X14523937Y-8578063D01*
X14596063Y-8578063D01*
X14509000Y-8745000D02*
X14611000Y-8847000D01*
X14611000Y-8745000D02*
X14509000Y-8847000D01*
X14596063Y-8832063D02*
X14596063Y-8759937D01*
X14523937Y-8759937D01*
X14523937Y-8832063D01*
X14596063Y-8832063D01*
X14509000Y-8999000D02*
X14611000Y-9101000D01*
X14611000Y-8999000D02*
X14509000Y-9101000D01*
X14596063Y-9086063D02*
X14596063Y-9013937D01*
X14523937Y-9013937D01*
X14523937Y-9086063D01*
X14596063Y-9086063D01*
X14509000Y-9253000D02*
X14611000Y-9355000D01*
X14611000Y-9253000D02*
X14509000Y-9355000D01*
X14596063Y-9340063D02*
X14596063Y-9267937D01*
X14523937Y-9267937D01*
X14523937Y-9340063D01*
X14596063Y-9340063D01*
X14509000Y-9507000D02*
X14611000Y-9609000D01*
X14611000Y-9507000D02*
X14509000Y-9609000D01*
X14596063Y-9594063D02*
X14596063Y-9521937D01*
X14523937Y-9521937D01*
X14523937Y-9594063D01*
X14596063Y-9594063D01*
X14509000Y-9761000D02*
X14611000Y-9863000D01*
X14611000Y-9761000D02*
X14509000Y-9863000D01*
X14596063Y-9848063D02*
X14596063Y-9775937D01*
X14523937Y-9775937D01*
X14523937Y-9848063D01*
X14596063Y-9848063D01*
D15*
X5348000Y-11618000D02*
X5458000Y-11728000D01*
X5458000Y-11618000D02*
X5348000Y-11728000D01*
X5403000Y-11728000D02*
X5458000Y-11673000D01*
X5403000Y-11618000D01*
X5348000Y-11673000D01*
X5403000Y-11728000D01*
X6848000Y-11618000D02*
X6958000Y-11728000D01*
X6958000Y-11618000D02*
X6848000Y-11728000D01*
X6903000Y-11728000D02*
X6958000Y-11673000D01*
X6903000Y-11618000D01*
X6848000Y-11673000D01*
X6903000Y-11728000D01*
X7749750Y-11026250D02*
X7859750Y-11136250D01*
X7859750Y-11026250D02*
X7749750Y-11136250D01*
X7804750Y-11136250D02*
X7859750Y-11081250D01*
X7804750Y-11026250D01*
X7749750Y-11081250D01*
X7804750Y-11136250D01*
X7749750Y-12176250D02*
X7859750Y-12286250D01*
X7859750Y-12176250D02*
X7749750Y-12286250D01*
X7804750Y-12286250D02*
X7859750Y-12231250D01*
X7804750Y-12176250D01*
X7749750Y-12231250D01*
X7804750Y-12286250D01*
X7749750Y-12876250D02*
X7859750Y-12986250D01*
X7859750Y-12876250D02*
X7749750Y-12986250D01*
X7804750Y-12986250D02*
X7859750Y-12931250D01*
X7804750Y-12876250D01*
X7749750Y-12931250D01*
X7804750Y-12986250D01*
X8219750Y-11026250D02*
X8329750Y-11136250D01*
X8329750Y-11026250D02*
X8219750Y-11136250D01*
X8274750Y-11136250D02*
X8329750Y-11081250D01*
X8274750Y-11026250D01*
X8219750Y-11081250D01*
X8274750Y-11136250D01*
X8598000Y-11028000D02*
X8708000Y-11138000D01*
X8708000Y-11028000D02*
X8598000Y-11138000D01*
X8653000Y-11138000D02*
X8708000Y-11083000D01*
X8653000Y-11028000D01*
X8598000Y-11083000D01*
X8653000Y-11138000D01*
X8598000Y-12178000D02*
X8708000Y-12288000D01*
X8708000Y-12178000D02*
X8598000Y-12288000D01*
X8653000Y-12288000D02*
X8708000Y-12233000D01*
X8653000Y-12178000D01*
X8598000Y-12233000D01*
X8653000Y-12288000D01*
X8598000Y-12878000D02*
X8708000Y-12988000D01*
X8708000Y-12878000D02*
X8598000Y-12988000D01*
X8653000Y-12988000D02*
X8708000Y-12933000D01*
X8653000Y-12878000D01*
X8598000Y-12933000D01*
X8653000Y-12988000D01*
X9068000Y-11028000D02*
X9178000Y-11138000D01*
X9178000Y-11028000D02*
X9068000Y-11138000D01*
X9123000Y-11138000D02*
X9178000Y-11083000D01*
X9123000Y-11028000D01*
X9068000Y-11083000D01*
X9123000Y-11138000D01*
X9421250Y-11018750D02*
X9531250Y-11128750D01*
X9531250Y-11018750D02*
X9421250Y-11128750D01*
X9476250Y-11128750D02*
X9531250Y-11073750D01*
X9476250Y-11018750D01*
X9421250Y-11073750D01*
X9476250Y-11128750D01*
X9421250Y-12168750D02*
X9531250Y-12278750D01*
X9531250Y-12168750D02*
X9421250Y-12278750D01*
X9476250Y-12278750D02*
X9531250Y-12223750D01*
X9476250Y-12168750D01*
X9421250Y-12223750D01*
X9476250Y-12278750D01*
X9421250Y-12868750D02*
X9531250Y-12978750D01*
X9531250Y-12868750D02*
X9421250Y-12978750D01*
X9476250Y-12978750D02*
X9531250Y-12923750D01*
X9476250Y-12868750D01*
X9421250Y-12923750D01*
X9476250Y-12978750D01*
X9891250Y-11018750D02*
X10001250Y-11128750D01*
X10001250Y-11018750D02*
X9891250Y-11128750D01*
X9946250Y-11128750D02*
X10001250Y-11073750D01*
X9946250Y-11018750D01*
X9891250Y-11073750D01*
X9946250Y-11128750D01*
D10*
X5308777Y-15246484D02*
X5308777Y-15046484D01*
X5308777Y-15046484D02*
X5356396Y-15046484D01*
X5356396Y-15046484D02*
X5384967Y-15056008D01*
X5384967Y-15056008D02*
X5404015Y-15075055D01*
X5404015Y-15075055D02*
X5413539Y-15094103D01*
X5413539Y-15094103D02*
X5423063Y-15132198D01*
X5423063Y-15132198D02*
X5423063Y-15160769D01*
X5423063Y-15160769D02*
X5413539Y-15198865D01*
X5413539Y-15198865D02*
X5404015Y-15217912D01*
X5404015Y-15217912D02*
X5384967Y-15236960D01*
X5384967Y-15236960D02*
X5356396Y-15246484D01*
X5356396Y-15246484D02*
X5308777Y-15246484D01*
X5508777Y-15246484D02*
X5508777Y-15113150D01*
X5508777Y-15151246D02*
X5518301Y-15132198D01*
X5518301Y-15132198D02*
X5527824Y-15122674D01*
X5527824Y-15122674D02*
X5546872Y-15113150D01*
X5546872Y-15113150D02*
X5565920Y-15113150D01*
X5632586Y-15246484D02*
X5632586Y-15113150D01*
X5632586Y-15046484D02*
X5623062Y-15056008D01*
X5623062Y-15056008D02*
X5632586Y-15065531D01*
X5632586Y-15065531D02*
X5642110Y-15056008D01*
X5642110Y-15056008D02*
X5632586Y-15046484D01*
X5632586Y-15046484D02*
X5632586Y-15065531D01*
X5756396Y-15246484D02*
X5737348Y-15236960D01*
X5737348Y-15236960D02*
X5727824Y-15217912D01*
X5727824Y-15217912D02*
X5727824Y-15046484D01*
X5861158Y-15246484D02*
X5842110Y-15236960D01*
X5842110Y-15236960D02*
X5832586Y-15217912D01*
X5832586Y-15217912D02*
X5832586Y-15046484D01*
X6089729Y-15246484D02*
X6089729Y-15046484D01*
X6089729Y-15046484D02*
X6156396Y-15189341D01*
X6156396Y-15189341D02*
X6223062Y-15046484D01*
X6223062Y-15046484D02*
X6223062Y-15246484D01*
X6404015Y-15246484D02*
X6404015Y-15141722D01*
X6404015Y-15141722D02*
X6394491Y-15122674D01*
X6394491Y-15122674D02*
X6375443Y-15113150D01*
X6375443Y-15113150D02*
X6337348Y-15113150D01*
X6337348Y-15113150D02*
X6318301Y-15122674D01*
X6404015Y-15236960D02*
X6384967Y-15246484D01*
X6384967Y-15246484D02*
X6337348Y-15246484D01*
X6337348Y-15246484D02*
X6318301Y-15236960D01*
X6318301Y-15236960D02*
X6308777Y-15217912D01*
X6308777Y-15217912D02*
X6308777Y-15198865D01*
X6308777Y-15198865D02*
X6318301Y-15179817D01*
X6318301Y-15179817D02*
X6337348Y-15170293D01*
X6337348Y-15170293D02*
X6384967Y-15170293D01*
X6384967Y-15170293D02*
X6404015Y-15160769D01*
X6499253Y-15113150D02*
X6499253Y-15313150D01*
X6499253Y-15122674D02*
X6518301Y-15113150D01*
X6518301Y-15113150D02*
X6556396Y-15113150D01*
X6556396Y-15113150D02*
X6575443Y-15122674D01*
X6575443Y-15122674D02*
X6584967Y-15132198D01*
X6584967Y-15132198D02*
X6594491Y-15151246D01*
X6594491Y-15151246D02*
X6594491Y-15208388D01*
X6594491Y-15208388D02*
X6584967Y-15227436D01*
X6584967Y-15227436D02*
X6575443Y-15236960D01*
X6575443Y-15236960D02*
X6556396Y-15246484D01*
X6556396Y-15246484D02*
X6518301Y-15246484D01*
X6518301Y-15246484D02*
X6499253Y-15236960D01*
X6680205Y-15227436D02*
X6689729Y-15236960D01*
X6689729Y-15236960D02*
X6680205Y-15246484D01*
X6680205Y-15246484D02*
X6670682Y-15236960D01*
X6670682Y-15236960D02*
X6680205Y-15227436D01*
X6680205Y-15227436D02*
X6680205Y-15246484D01*
X6680205Y-15122674D02*
X6689729Y-15132198D01*
X6689729Y-15132198D02*
X6680205Y-15141722D01*
X6680205Y-15141722D02*
X6670682Y-15132198D01*
X6670682Y-15132198D02*
X6680205Y-15122674D01*
X6680205Y-15122674D02*
X6680205Y-15141722D01*
D12*
X5018000Y-15560000D02*
X5048000Y-15590000D01*
X5048000Y-15560000D02*
X5018000Y-15590000D01*
D10*
X5346872Y-15466484D02*
X5365920Y-15466484D01*
X5365920Y-15466484D02*
X5384967Y-15476008D01*
X5384967Y-15476008D02*
X5394491Y-15485531D01*
X5394491Y-15485531D02*
X5404015Y-15504579D01*
X5404015Y-15504579D02*
X5413539Y-15542674D01*
X5413539Y-15542674D02*
X5413539Y-15590293D01*
X5413539Y-15590293D02*
X5404015Y-15628388D01*
X5404015Y-15628388D02*
X5394491Y-15647436D01*
X5394491Y-15647436D02*
X5384967Y-15656960D01*
X5384967Y-15656960D02*
X5365920Y-15666484D01*
X5365920Y-15666484D02*
X5346872Y-15666484D01*
X5346872Y-15666484D02*
X5327824Y-15656960D01*
X5327824Y-15656960D02*
X5318301Y-15647436D01*
X5318301Y-15647436D02*
X5308777Y-15628388D01*
X5308777Y-15628388D02*
X5299253Y-15590293D01*
X5299253Y-15590293D02*
X5299253Y-15542674D01*
X5299253Y-15542674D02*
X5308777Y-15504579D01*
X5308777Y-15504579D02*
X5318301Y-15485531D01*
X5318301Y-15485531D02*
X5327824Y-15476008D01*
X5327824Y-15476008D02*
X5346872Y-15466484D01*
X5499253Y-15647436D02*
X5508777Y-15656960D01*
X5508777Y-15656960D02*
X5499253Y-15666484D01*
X5499253Y-15666484D02*
X5489729Y-15656960D01*
X5489729Y-15656960D02*
X5499253Y-15647436D01*
X5499253Y-15647436D02*
X5499253Y-15666484D01*
X5575444Y-15466484D02*
X5699253Y-15466484D01*
X5699253Y-15466484D02*
X5632586Y-15542674D01*
X5632586Y-15542674D02*
X5661158Y-15542674D01*
X5661158Y-15542674D02*
X5680205Y-15552198D01*
X5680205Y-15552198D02*
X5689729Y-15561722D01*
X5689729Y-15561722D02*
X5699253Y-15580769D01*
X5699253Y-15580769D02*
X5699253Y-15628388D01*
X5699253Y-15628388D02*
X5689729Y-15647436D01*
X5689729Y-15647436D02*
X5680205Y-15656960D01*
X5680205Y-15656960D02*
X5661158Y-15666484D01*
X5661158Y-15666484D02*
X5604015Y-15666484D01*
X5604015Y-15666484D02*
X5584967Y-15656960D01*
X5584967Y-15656960D02*
X5575444Y-15647436D01*
X5823062Y-15466484D02*
X5842110Y-15466484D01*
X5842110Y-15466484D02*
X5861158Y-15476008D01*
X5861158Y-15476008D02*
X5870682Y-15485531D01*
X5870682Y-15485531D02*
X5880205Y-15504579D01*
X5880205Y-15504579D02*
X5889729Y-15542674D01*
X5889729Y-15542674D02*
X5889729Y-15590293D01*
X5889729Y-15590293D02*
X5880205Y-15628388D01*
X5880205Y-15628388D02*
X5870682Y-15647436D01*
X5870682Y-15647436D02*
X5861158Y-15656960D01*
X5861158Y-15656960D02*
X5842110Y-15666484D01*
X5842110Y-15666484D02*
X5823062Y-15666484D01*
X5823062Y-15666484D02*
X5804015Y-15656960D01*
X5804015Y-15656960D02*
X5794491Y-15647436D01*
X5794491Y-15647436D02*
X5784967Y-15628388D01*
X5784967Y-15628388D02*
X5775443Y-15590293D01*
X5775443Y-15590293D02*
X5775443Y-15542674D01*
X5775443Y-15542674D02*
X5784967Y-15504579D01*
X5784967Y-15504579D02*
X5794491Y-15485531D01*
X5794491Y-15485531D02*
X5804015Y-15476008D01*
X5804015Y-15476008D02*
X5823062Y-15466484D01*
X6013539Y-15466484D02*
X6032586Y-15466484D01*
X6032586Y-15466484D02*
X6051634Y-15476008D01*
X6051634Y-15476008D02*
X6061158Y-15485531D01*
X6061158Y-15485531D02*
X6070682Y-15504579D01*
X6070682Y-15504579D02*
X6080205Y-15542674D01*
X6080205Y-15542674D02*
X6080205Y-15590293D01*
X6080205Y-15590293D02*
X6070682Y-15628388D01*
X6070682Y-15628388D02*
X6061158Y-15647436D01*
X6061158Y-15647436D02*
X6051634Y-15656960D01*
X6051634Y-15656960D02*
X6032586Y-15666484D01*
X6032586Y-15666484D02*
X6013539Y-15666484D01*
X6013539Y-15666484D02*
X5994491Y-15656960D01*
X5994491Y-15656960D02*
X5984967Y-15647436D01*
X5984967Y-15647436D02*
X5975443Y-15628388D01*
X5975443Y-15628388D02*
X5965920Y-15590293D01*
X5965920Y-15590293D02*
X5965920Y-15542674D01*
X5965920Y-15542674D02*
X5975443Y-15504579D01*
X5975443Y-15504579D02*
X5984967Y-15485531D01*
X5984967Y-15485531D02*
X5994491Y-15476008D01*
X5994491Y-15476008D02*
X6013539Y-15466484D01*
X6165920Y-15666484D02*
X6165920Y-15533150D01*
X6165920Y-15552198D02*
X6175443Y-15542674D01*
X6175443Y-15542674D02*
X6194491Y-15533150D01*
X6194491Y-15533150D02*
X6223063Y-15533150D01*
X6223063Y-15533150D02*
X6242110Y-15542674D01*
X6242110Y-15542674D02*
X6251634Y-15561722D01*
X6251634Y-15561722D02*
X6251634Y-15666484D01*
X6251634Y-15561722D02*
X6261158Y-15542674D01*
X6261158Y-15542674D02*
X6280205Y-15533150D01*
X6280205Y-15533150D02*
X6308777Y-15533150D01*
X6308777Y-15533150D02*
X6327824Y-15542674D01*
X6327824Y-15542674D02*
X6337348Y-15561722D01*
X6337348Y-15561722D02*
X6337348Y-15666484D01*
X6432586Y-15666484D02*
X6432586Y-15533150D01*
X6432586Y-15552198D02*
X6442110Y-15542674D01*
X6442110Y-15542674D02*
X6461158Y-15533150D01*
X6461158Y-15533150D02*
X6489729Y-15533150D01*
X6489729Y-15533150D02*
X6508777Y-15542674D01*
X6508777Y-15542674D02*
X6518301Y-15561722D01*
X6518301Y-15561722D02*
X6518301Y-15666484D01*
X6518301Y-15561722D02*
X6527824Y-15542674D01*
X6527824Y-15542674D02*
X6546872Y-15533150D01*
X6546872Y-15533150D02*
X6575443Y-15533150D01*
X6575443Y-15533150D02*
X6594491Y-15542674D01*
X6594491Y-15542674D02*
X6604015Y-15561722D01*
X6604015Y-15561722D02*
X6604015Y-15666484D01*
X6994491Y-15456960D02*
X6823063Y-15714103D01*
X7251634Y-15466484D02*
X7270682Y-15466484D01*
X7270682Y-15466484D02*
X7289729Y-15476008D01*
X7289729Y-15476008D02*
X7299253Y-15485531D01*
X7299253Y-15485531D02*
X7308777Y-15504579D01*
X7308777Y-15504579D02*
X7318301Y-15542674D01*
X7318301Y-15542674D02*
X7318301Y-15590293D01*
X7318301Y-15590293D02*
X7308777Y-15628388D01*
X7308777Y-15628388D02*
X7299253Y-15647436D01*
X7299253Y-15647436D02*
X7289729Y-15656960D01*
X7289729Y-15656960D02*
X7270682Y-15666484D01*
X7270682Y-15666484D02*
X7251634Y-15666484D01*
X7251634Y-15666484D02*
X7232586Y-15656960D01*
X7232586Y-15656960D02*
X7223063Y-15647436D01*
X7223063Y-15647436D02*
X7213539Y-15628388D01*
X7213539Y-15628388D02*
X7204015Y-15590293D01*
X7204015Y-15590293D02*
X7204015Y-15542674D01*
X7204015Y-15542674D02*
X7213539Y-15504579D01*
X7213539Y-15504579D02*
X7223063Y-15485531D01*
X7223063Y-15485531D02*
X7232586Y-15476008D01*
X7232586Y-15476008D02*
X7251634Y-15466484D01*
X7404015Y-15647436D02*
X7413539Y-15656960D01*
X7413539Y-15656960D02*
X7404015Y-15666484D01*
X7404015Y-15666484D02*
X7394491Y-15656960D01*
X7394491Y-15656960D02*
X7404015Y-15647436D01*
X7404015Y-15647436D02*
X7404015Y-15666484D01*
X7537348Y-15466484D02*
X7556396Y-15466484D01*
X7556396Y-15466484D02*
X7575444Y-15476008D01*
X7575444Y-15476008D02*
X7584967Y-15485531D01*
X7584967Y-15485531D02*
X7594491Y-15504579D01*
X7594491Y-15504579D02*
X7604015Y-15542674D01*
X7604015Y-15542674D02*
X7604015Y-15590293D01*
X7604015Y-15590293D02*
X7594491Y-15628388D01*
X7594491Y-15628388D02*
X7584967Y-15647436D01*
X7584967Y-15647436D02*
X7575444Y-15656960D01*
X7575444Y-15656960D02*
X7556396Y-15666484D01*
X7556396Y-15666484D02*
X7537348Y-15666484D01*
X7537348Y-15666484D02*
X7518301Y-15656960D01*
X7518301Y-15656960D02*
X7508777Y-15647436D01*
X7508777Y-15647436D02*
X7499253Y-15628388D01*
X7499253Y-15628388D02*
X7489729Y-15590293D01*
X7489729Y-15590293D02*
X7489729Y-15542674D01*
X7489729Y-15542674D02*
X7499253Y-15504579D01*
X7499253Y-15504579D02*
X7508777Y-15485531D01*
X7508777Y-15485531D02*
X7518301Y-15476008D01*
X7518301Y-15476008D02*
X7537348Y-15466484D01*
X7794491Y-15666484D02*
X7680206Y-15666484D01*
X7737348Y-15666484D02*
X7737348Y-15466484D01*
X7737348Y-15466484D02*
X7718301Y-15495055D01*
X7718301Y-15495055D02*
X7699253Y-15514103D01*
X7699253Y-15514103D02*
X7680206Y-15523627D01*
X7984967Y-15666484D02*
X7870682Y-15666484D01*
X7927825Y-15666484D02*
X7927825Y-15466484D01*
X7927825Y-15466484D02*
X7908777Y-15495055D01*
X7908777Y-15495055D02*
X7889729Y-15514103D01*
X7889729Y-15514103D02*
X7870682Y-15523627D01*
X8099253Y-15552198D02*
X8080206Y-15542674D01*
X8080206Y-15542674D02*
X8070682Y-15533150D01*
X8070682Y-15533150D02*
X8061158Y-15514103D01*
X8061158Y-15514103D02*
X8061158Y-15504579D01*
X8061158Y-15504579D02*
X8070682Y-15485531D01*
X8070682Y-15485531D02*
X8080206Y-15476008D01*
X8080206Y-15476008D02*
X8099253Y-15466484D01*
X8099253Y-15466484D02*
X8137348Y-15466484D01*
X8137348Y-15466484D02*
X8156396Y-15476008D01*
X8156396Y-15476008D02*
X8165920Y-15485531D01*
X8165920Y-15485531D02*
X8175444Y-15504579D01*
X8175444Y-15504579D02*
X8175444Y-15514103D01*
X8175444Y-15514103D02*
X8165920Y-15533150D01*
X8165920Y-15533150D02*
X8156396Y-15542674D01*
X8156396Y-15542674D02*
X8137348Y-15552198D01*
X8137348Y-15552198D02*
X8099253Y-15552198D01*
X8099253Y-15552198D02*
X8080206Y-15561722D01*
X8080206Y-15561722D02*
X8070682Y-15571246D01*
X8070682Y-15571246D02*
X8061158Y-15590293D01*
X8061158Y-15590293D02*
X8061158Y-15628388D01*
X8061158Y-15628388D02*
X8070682Y-15647436D01*
X8070682Y-15647436D02*
X8080206Y-15656960D01*
X8080206Y-15656960D02*
X8099253Y-15666484D01*
X8099253Y-15666484D02*
X8137348Y-15666484D01*
X8137348Y-15666484D02*
X8156396Y-15656960D01*
X8156396Y-15656960D02*
X8165920Y-15647436D01*
X8165920Y-15647436D02*
X8175444Y-15628388D01*
X8175444Y-15628388D02*
X8175444Y-15590293D01*
X8175444Y-15590293D02*
X8165920Y-15571246D01*
X8165920Y-15571246D02*
X8156396Y-15561722D01*
X8156396Y-15561722D02*
X8137348Y-15552198D01*
X8251634Y-15466484D02*
X8251634Y-15504579D01*
X8327825Y-15466484D02*
X8327825Y-15504579D01*
X8623063Y-15742674D02*
X8613539Y-15733150D01*
X8613539Y-15733150D02*
X8594491Y-15704579D01*
X8594491Y-15704579D02*
X8584968Y-15685531D01*
X8584968Y-15685531D02*
X8575444Y-15656960D01*
X8575444Y-15656960D02*
X8565920Y-15609341D01*
X8565920Y-15609341D02*
X8565920Y-15571246D01*
X8565920Y-15571246D02*
X8575444Y-15523627D01*
X8575444Y-15523627D02*
X8584968Y-15495055D01*
X8584968Y-15495055D02*
X8594491Y-15476008D01*
X8594491Y-15476008D02*
X8613539Y-15447436D01*
X8613539Y-15447436D02*
X8623063Y-15437912D01*
X8784968Y-15533150D02*
X8784968Y-15666484D01*
X8737349Y-15456960D02*
X8689730Y-15599817D01*
X8689730Y-15599817D02*
X8813539Y-15599817D01*
X8870682Y-15466484D02*
X8994491Y-15466484D01*
X8994491Y-15466484D02*
X8927825Y-15542674D01*
X8927825Y-15542674D02*
X8956396Y-15542674D01*
X8956396Y-15542674D02*
X8975444Y-15552198D01*
X8975444Y-15552198D02*
X8984968Y-15561722D01*
X8984968Y-15561722D02*
X8994491Y-15580769D01*
X8994491Y-15580769D02*
X8994491Y-15628388D01*
X8994491Y-15628388D02*
X8984968Y-15647436D01*
X8984968Y-15647436D02*
X8975444Y-15656960D01*
X8975444Y-15656960D02*
X8956396Y-15666484D01*
X8956396Y-15666484D02*
X8899253Y-15666484D01*
X8899253Y-15666484D02*
X8880206Y-15656960D01*
X8880206Y-15656960D02*
X8870682Y-15647436D01*
X9070682Y-15485531D02*
X9080206Y-15476008D01*
X9080206Y-15476008D02*
X9099253Y-15466484D01*
X9099253Y-15466484D02*
X9146872Y-15466484D01*
X9146872Y-15466484D02*
X9165920Y-15476008D01*
X9165920Y-15476008D02*
X9175444Y-15485531D01*
X9175444Y-15485531D02*
X9184968Y-15504579D01*
X9184968Y-15504579D02*
X9184968Y-15523627D01*
X9184968Y-15523627D02*
X9175444Y-15552198D01*
X9175444Y-15552198D02*
X9061158Y-15666484D01*
X9061158Y-15666484D02*
X9184968Y-15666484D01*
X9423063Y-15666484D02*
X9423063Y-15466484D01*
X9508777Y-15666484D02*
X9508777Y-15561722D01*
X9508777Y-15561722D02*
X9499253Y-15542674D01*
X9499253Y-15542674D02*
X9480206Y-15533150D01*
X9480206Y-15533150D02*
X9451634Y-15533150D01*
X9451634Y-15533150D02*
X9432587Y-15542674D01*
X9432587Y-15542674D02*
X9423063Y-15552198D01*
X9632587Y-15666484D02*
X9613539Y-15656960D01*
X9613539Y-15656960D02*
X9604015Y-15647436D01*
X9604015Y-15647436D02*
X9594492Y-15628388D01*
X9594492Y-15628388D02*
X9594492Y-15571246D01*
X9594492Y-15571246D02*
X9604015Y-15552198D01*
X9604015Y-15552198D02*
X9613539Y-15542674D01*
X9613539Y-15542674D02*
X9632587Y-15533150D01*
X9632587Y-15533150D02*
X9661158Y-15533150D01*
X9661158Y-15533150D02*
X9680206Y-15542674D01*
X9680206Y-15542674D02*
X9689730Y-15552198D01*
X9689730Y-15552198D02*
X9699253Y-15571246D01*
X9699253Y-15571246D02*
X9699253Y-15628388D01*
X9699253Y-15628388D02*
X9689730Y-15647436D01*
X9689730Y-15647436D02*
X9680206Y-15656960D01*
X9680206Y-15656960D02*
X9661158Y-15666484D01*
X9661158Y-15666484D02*
X9632587Y-15666484D01*
X9813539Y-15666484D02*
X9794492Y-15656960D01*
X9794492Y-15656960D02*
X9784968Y-15637912D01*
X9784968Y-15637912D02*
X9784968Y-15466484D01*
X9965920Y-15656960D02*
X9946873Y-15666484D01*
X9946873Y-15666484D02*
X9908777Y-15666484D01*
X9908777Y-15666484D02*
X9889730Y-15656960D01*
X9889730Y-15656960D02*
X9880206Y-15637912D01*
X9880206Y-15637912D02*
X9880206Y-15561722D01*
X9880206Y-15561722D02*
X9889730Y-15542674D01*
X9889730Y-15542674D02*
X9908777Y-15533150D01*
X9908777Y-15533150D02*
X9946873Y-15533150D01*
X9946873Y-15533150D02*
X9965920Y-15542674D01*
X9965920Y-15542674D02*
X9975444Y-15561722D01*
X9975444Y-15561722D02*
X9975444Y-15580769D01*
X9975444Y-15580769D02*
X9880206Y-15599817D01*
X10051634Y-15656960D02*
X10070682Y-15666484D01*
X10070682Y-15666484D02*
X10108777Y-15666484D01*
X10108777Y-15666484D02*
X10127825Y-15656960D01*
X10127825Y-15656960D02*
X10137349Y-15637912D01*
X10137349Y-15637912D02*
X10137349Y-15628388D01*
X10137349Y-15628388D02*
X10127825Y-15609341D01*
X10127825Y-15609341D02*
X10108777Y-15599817D01*
X10108777Y-15599817D02*
X10080206Y-15599817D01*
X10080206Y-15599817D02*
X10061158Y-15590293D01*
X10061158Y-15590293D02*
X10051634Y-15571246D01*
X10051634Y-15571246D02*
X10051634Y-15561722D01*
X10051634Y-15561722D02*
X10061158Y-15542674D01*
X10061158Y-15542674D02*
X10080206Y-15533150D01*
X10080206Y-15533150D02*
X10108777Y-15533150D01*
X10108777Y-15533150D02*
X10127825Y-15542674D01*
X10204015Y-15742674D02*
X10213539Y-15733150D01*
X10213539Y-15733150D02*
X10232587Y-15704579D01*
X10232587Y-15704579D02*
X10242111Y-15685531D01*
X10242111Y-15685531D02*
X10251634Y-15656960D01*
X10251634Y-15656960D02*
X10261158Y-15609341D01*
X10261158Y-15609341D02*
X10261158Y-15571246D01*
X10261158Y-15571246D02*
X10251634Y-15523627D01*
X10251634Y-15523627D02*
X10242111Y-15495055D01*
X10242111Y-15495055D02*
X10232587Y-15476008D01*
X10232587Y-15476008D02*
X10213539Y-15447436D01*
X10213539Y-15447436D02*
X10204015Y-15437912D01*
D12*
X5048000Y-15839000D02*
G75*
G02*
X4998000Y-15839000I-25000J0D01*
G01*
X4998000Y-15839000D02*
G75*
G02*
X5048000Y-15839000I25000J0D01*
G01*
D10*
X5346872Y-15730484D02*
X5365920Y-15730484D01*
X5365920Y-15730484D02*
X5384967Y-15740008D01*
X5384967Y-15740008D02*
X5394491Y-15749531D01*
X5394491Y-15749531D02*
X5404015Y-15768579D01*
X5404015Y-15768579D02*
X5413539Y-15806674D01*
X5413539Y-15806674D02*
X5413539Y-15854293D01*
X5413539Y-15854293D02*
X5404015Y-15892388D01*
X5404015Y-15892388D02*
X5394491Y-15911436D01*
X5394491Y-15911436D02*
X5384967Y-15920960D01*
X5384967Y-15920960D02*
X5365920Y-15930484D01*
X5365920Y-15930484D02*
X5346872Y-15930484D01*
X5346872Y-15930484D02*
X5327824Y-15920960D01*
X5327824Y-15920960D02*
X5318301Y-15911436D01*
X5318301Y-15911436D02*
X5308777Y-15892388D01*
X5308777Y-15892388D02*
X5299253Y-15854293D01*
X5299253Y-15854293D02*
X5299253Y-15806674D01*
X5299253Y-15806674D02*
X5308777Y-15768579D01*
X5308777Y-15768579D02*
X5318301Y-15749531D01*
X5318301Y-15749531D02*
X5327824Y-15740008D01*
X5327824Y-15740008D02*
X5346872Y-15730484D01*
X5499253Y-15911436D02*
X5508777Y-15920960D01*
X5508777Y-15920960D02*
X5499253Y-15930484D01*
X5499253Y-15930484D02*
X5489729Y-15920960D01*
X5489729Y-15920960D02*
X5499253Y-15911436D01*
X5499253Y-15911436D02*
X5499253Y-15930484D01*
X5689729Y-15730484D02*
X5594491Y-15730484D01*
X5594491Y-15730484D02*
X5584967Y-15825722D01*
X5584967Y-15825722D02*
X5594491Y-15816198D01*
X5594491Y-15816198D02*
X5613539Y-15806674D01*
X5613539Y-15806674D02*
X5661158Y-15806674D01*
X5661158Y-15806674D02*
X5680205Y-15816198D01*
X5680205Y-15816198D02*
X5689729Y-15825722D01*
X5689729Y-15825722D02*
X5699253Y-15844769D01*
X5699253Y-15844769D02*
X5699253Y-15892388D01*
X5699253Y-15892388D02*
X5689729Y-15911436D01*
X5689729Y-15911436D02*
X5680205Y-15920960D01*
X5680205Y-15920960D02*
X5661158Y-15930484D01*
X5661158Y-15930484D02*
X5613539Y-15930484D01*
X5613539Y-15930484D02*
X5594491Y-15920960D01*
X5594491Y-15920960D02*
X5584967Y-15911436D01*
X5823062Y-15730484D02*
X5842110Y-15730484D01*
X5842110Y-15730484D02*
X5861158Y-15740008D01*
X5861158Y-15740008D02*
X5870682Y-15749531D01*
X5870682Y-15749531D02*
X5880205Y-15768579D01*
X5880205Y-15768579D02*
X5889729Y-15806674D01*
X5889729Y-15806674D02*
X5889729Y-15854293D01*
X5889729Y-15854293D02*
X5880205Y-15892388D01*
X5880205Y-15892388D02*
X5870682Y-15911436D01*
X5870682Y-15911436D02*
X5861158Y-15920960D01*
X5861158Y-15920960D02*
X5842110Y-15930484D01*
X5842110Y-15930484D02*
X5823062Y-15930484D01*
X5823062Y-15930484D02*
X5804015Y-15920960D01*
X5804015Y-15920960D02*
X5794491Y-15911436D01*
X5794491Y-15911436D02*
X5784967Y-15892388D01*
X5784967Y-15892388D02*
X5775443Y-15854293D01*
X5775443Y-15854293D02*
X5775443Y-15806674D01*
X5775443Y-15806674D02*
X5784967Y-15768579D01*
X5784967Y-15768579D02*
X5794491Y-15749531D01*
X5794491Y-15749531D02*
X5804015Y-15740008D01*
X5804015Y-15740008D02*
X5823062Y-15730484D01*
X6013539Y-15730484D02*
X6032586Y-15730484D01*
X6032586Y-15730484D02*
X6051634Y-15740008D01*
X6051634Y-15740008D02*
X6061158Y-15749531D01*
X6061158Y-15749531D02*
X6070682Y-15768579D01*
X6070682Y-15768579D02*
X6080205Y-15806674D01*
X6080205Y-15806674D02*
X6080205Y-15854293D01*
X6080205Y-15854293D02*
X6070682Y-15892388D01*
X6070682Y-15892388D02*
X6061158Y-15911436D01*
X6061158Y-15911436D02*
X6051634Y-15920960D01*
X6051634Y-15920960D02*
X6032586Y-15930484D01*
X6032586Y-15930484D02*
X6013539Y-15930484D01*
X6013539Y-15930484D02*
X5994491Y-15920960D01*
X5994491Y-15920960D02*
X5984967Y-15911436D01*
X5984967Y-15911436D02*
X5975443Y-15892388D01*
X5975443Y-15892388D02*
X5965920Y-15854293D01*
X5965920Y-15854293D02*
X5965920Y-15806674D01*
X5965920Y-15806674D02*
X5975443Y-15768579D01*
X5975443Y-15768579D02*
X5984967Y-15749531D01*
X5984967Y-15749531D02*
X5994491Y-15740008D01*
X5994491Y-15740008D02*
X6013539Y-15730484D01*
X6165920Y-15930484D02*
X6165920Y-15797150D01*
X6165920Y-15816198D02*
X6175443Y-15806674D01*
X6175443Y-15806674D02*
X6194491Y-15797150D01*
X6194491Y-15797150D02*
X6223063Y-15797150D01*
X6223063Y-15797150D02*
X6242110Y-15806674D01*
X6242110Y-15806674D02*
X6251634Y-15825722D01*
X6251634Y-15825722D02*
X6251634Y-15930484D01*
X6251634Y-15825722D02*
X6261158Y-15806674D01*
X6261158Y-15806674D02*
X6280205Y-15797150D01*
X6280205Y-15797150D02*
X6308777Y-15797150D01*
X6308777Y-15797150D02*
X6327824Y-15806674D01*
X6327824Y-15806674D02*
X6337348Y-15825722D01*
X6337348Y-15825722D02*
X6337348Y-15930484D01*
X6432586Y-15930484D02*
X6432586Y-15797150D01*
X6432586Y-15816198D02*
X6442110Y-15806674D01*
X6442110Y-15806674D02*
X6461158Y-15797150D01*
X6461158Y-15797150D02*
X6489729Y-15797150D01*
X6489729Y-15797150D02*
X6508777Y-15806674D01*
X6508777Y-15806674D02*
X6518301Y-15825722D01*
X6518301Y-15825722D02*
X6518301Y-15930484D01*
X6518301Y-15825722D02*
X6527824Y-15806674D01*
X6527824Y-15806674D02*
X6546872Y-15797150D01*
X6546872Y-15797150D02*
X6575443Y-15797150D01*
X6575443Y-15797150D02*
X6594491Y-15806674D01*
X6594491Y-15806674D02*
X6604015Y-15825722D01*
X6604015Y-15825722D02*
X6604015Y-15930484D01*
X6994491Y-15720960D02*
X6823063Y-15978103D01*
X7251634Y-15730484D02*
X7270682Y-15730484D01*
X7270682Y-15730484D02*
X7289729Y-15740008D01*
X7289729Y-15740008D02*
X7299253Y-15749531D01*
X7299253Y-15749531D02*
X7308777Y-15768579D01*
X7308777Y-15768579D02*
X7318301Y-15806674D01*
X7318301Y-15806674D02*
X7318301Y-15854293D01*
X7318301Y-15854293D02*
X7308777Y-15892388D01*
X7308777Y-15892388D02*
X7299253Y-15911436D01*
X7299253Y-15911436D02*
X7289729Y-15920960D01*
X7289729Y-15920960D02*
X7270682Y-15930484D01*
X7270682Y-15930484D02*
X7251634Y-15930484D01*
X7251634Y-15930484D02*
X7232586Y-15920960D01*
X7232586Y-15920960D02*
X7223063Y-15911436D01*
X7223063Y-15911436D02*
X7213539Y-15892388D01*
X7213539Y-15892388D02*
X7204015Y-15854293D01*
X7204015Y-15854293D02*
X7204015Y-15806674D01*
X7204015Y-15806674D02*
X7213539Y-15768579D01*
X7213539Y-15768579D02*
X7223063Y-15749531D01*
X7223063Y-15749531D02*
X7232586Y-15740008D01*
X7232586Y-15740008D02*
X7251634Y-15730484D01*
X7404015Y-15911436D02*
X7413539Y-15920960D01*
X7413539Y-15920960D02*
X7404015Y-15930484D01*
X7404015Y-15930484D02*
X7394491Y-15920960D01*
X7394491Y-15920960D02*
X7404015Y-15911436D01*
X7404015Y-15911436D02*
X7404015Y-15930484D01*
X7537348Y-15730484D02*
X7556396Y-15730484D01*
X7556396Y-15730484D02*
X7575444Y-15740008D01*
X7575444Y-15740008D02*
X7584967Y-15749531D01*
X7584967Y-15749531D02*
X7594491Y-15768579D01*
X7594491Y-15768579D02*
X7604015Y-15806674D01*
X7604015Y-15806674D02*
X7604015Y-15854293D01*
X7604015Y-15854293D02*
X7594491Y-15892388D01*
X7594491Y-15892388D02*
X7584967Y-15911436D01*
X7584967Y-15911436D02*
X7575444Y-15920960D01*
X7575444Y-15920960D02*
X7556396Y-15930484D01*
X7556396Y-15930484D02*
X7537348Y-15930484D01*
X7537348Y-15930484D02*
X7518301Y-15920960D01*
X7518301Y-15920960D02*
X7508777Y-15911436D01*
X7508777Y-15911436D02*
X7499253Y-15892388D01*
X7499253Y-15892388D02*
X7489729Y-15854293D01*
X7489729Y-15854293D02*
X7489729Y-15806674D01*
X7489729Y-15806674D02*
X7499253Y-15768579D01*
X7499253Y-15768579D02*
X7508777Y-15749531D01*
X7508777Y-15749531D02*
X7518301Y-15740008D01*
X7518301Y-15740008D02*
X7537348Y-15730484D01*
X7794491Y-15930484D02*
X7680206Y-15930484D01*
X7737348Y-15930484D02*
X7737348Y-15730484D01*
X7737348Y-15730484D02*
X7718301Y-15759055D01*
X7718301Y-15759055D02*
X7699253Y-15778103D01*
X7699253Y-15778103D02*
X7680206Y-15787627D01*
X7889729Y-15930484D02*
X7927825Y-15930484D01*
X7927825Y-15930484D02*
X7946872Y-15920960D01*
X7946872Y-15920960D02*
X7956396Y-15911436D01*
X7956396Y-15911436D02*
X7975444Y-15882865D01*
X7975444Y-15882865D02*
X7984967Y-15844769D01*
X7984967Y-15844769D02*
X7984967Y-15768579D01*
X7984967Y-15768579D02*
X7975444Y-15749531D01*
X7975444Y-15749531D02*
X7965920Y-15740008D01*
X7965920Y-15740008D02*
X7946872Y-15730484D01*
X7946872Y-15730484D02*
X7908777Y-15730484D01*
X7908777Y-15730484D02*
X7889729Y-15740008D01*
X7889729Y-15740008D02*
X7880206Y-15749531D01*
X7880206Y-15749531D02*
X7870682Y-15768579D01*
X7870682Y-15768579D02*
X7870682Y-15816198D01*
X7870682Y-15816198D02*
X7880206Y-15835246D01*
X7880206Y-15835246D02*
X7889729Y-15844769D01*
X7889729Y-15844769D02*
X7908777Y-15854293D01*
X7908777Y-15854293D02*
X7946872Y-15854293D01*
X7946872Y-15854293D02*
X7965920Y-15844769D01*
X7965920Y-15844769D02*
X7975444Y-15835246D01*
X7975444Y-15835246D02*
X7984967Y-15816198D01*
X8051634Y-15730484D02*
X8184967Y-15730484D01*
X8184967Y-15730484D02*
X8099253Y-15930484D01*
X8251634Y-15730484D02*
X8251634Y-15768579D01*
X8327825Y-15730484D02*
X8327825Y-15768579D01*
X8623063Y-16006674D02*
X8613539Y-15997150D01*
X8613539Y-15997150D02*
X8594491Y-15968579D01*
X8594491Y-15968579D02*
X8584968Y-15949531D01*
X8584968Y-15949531D02*
X8575444Y-15920960D01*
X8575444Y-15920960D02*
X8565920Y-15873341D01*
X8565920Y-15873341D02*
X8565920Y-15835246D01*
X8565920Y-15835246D02*
X8575444Y-15787627D01*
X8575444Y-15787627D02*
X8584968Y-15759055D01*
X8584968Y-15759055D02*
X8594491Y-15740008D01*
X8594491Y-15740008D02*
X8613539Y-15711436D01*
X8613539Y-15711436D02*
X8623063Y-15701912D01*
X8689730Y-15749531D02*
X8699253Y-15740008D01*
X8699253Y-15740008D02*
X8718301Y-15730484D01*
X8718301Y-15730484D02*
X8765920Y-15730484D01*
X8765920Y-15730484D02*
X8784968Y-15740008D01*
X8784968Y-15740008D02*
X8794491Y-15749531D01*
X8794491Y-15749531D02*
X8804015Y-15768579D01*
X8804015Y-15768579D02*
X8804015Y-15787627D01*
X8804015Y-15787627D02*
X8794491Y-15816198D01*
X8794491Y-15816198D02*
X8680206Y-15930484D01*
X8680206Y-15930484D02*
X8804015Y-15930484D01*
X9042111Y-15930484D02*
X9042111Y-15730484D01*
X9127825Y-15930484D02*
X9127825Y-15825722D01*
X9127825Y-15825722D02*
X9118301Y-15806674D01*
X9118301Y-15806674D02*
X9099253Y-15797150D01*
X9099253Y-15797150D02*
X9070682Y-15797150D01*
X9070682Y-15797150D02*
X9051634Y-15806674D01*
X9051634Y-15806674D02*
X9042111Y-15816198D01*
X9251634Y-15930484D02*
X9232587Y-15920960D01*
X9232587Y-15920960D02*
X9223063Y-15911436D01*
X9223063Y-15911436D02*
X9213539Y-15892388D01*
X9213539Y-15892388D02*
X9213539Y-15835246D01*
X9213539Y-15835246D02*
X9223063Y-15816198D01*
X9223063Y-15816198D02*
X9232587Y-15806674D01*
X9232587Y-15806674D02*
X9251634Y-15797150D01*
X9251634Y-15797150D02*
X9280206Y-15797150D01*
X9280206Y-15797150D02*
X9299253Y-15806674D01*
X9299253Y-15806674D02*
X9308777Y-15816198D01*
X9308777Y-15816198D02*
X9318301Y-15835246D01*
X9318301Y-15835246D02*
X9318301Y-15892388D01*
X9318301Y-15892388D02*
X9308777Y-15911436D01*
X9308777Y-15911436D02*
X9299253Y-15920960D01*
X9299253Y-15920960D02*
X9280206Y-15930484D01*
X9280206Y-15930484D02*
X9251634Y-15930484D01*
X9432587Y-15930484D02*
X9413539Y-15920960D01*
X9413539Y-15920960D02*
X9404015Y-15901912D01*
X9404015Y-15901912D02*
X9404015Y-15730484D01*
X9584968Y-15920960D02*
X9565920Y-15930484D01*
X9565920Y-15930484D02*
X9527825Y-15930484D01*
X9527825Y-15930484D02*
X9508777Y-15920960D01*
X9508777Y-15920960D02*
X9499253Y-15901912D01*
X9499253Y-15901912D02*
X9499253Y-15825722D01*
X9499253Y-15825722D02*
X9508777Y-15806674D01*
X9508777Y-15806674D02*
X9527825Y-15797150D01*
X9527825Y-15797150D02*
X9565920Y-15797150D01*
X9565920Y-15797150D02*
X9584968Y-15806674D01*
X9584968Y-15806674D02*
X9594492Y-15825722D01*
X9594492Y-15825722D02*
X9594492Y-15844769D01*
X9594492Y-15844769D02*
X9499253Y-15863817D01*
X9670682Y-15920960D02*
X9689730Y-15930484D01*
X9689730Y-15930484D02*
X9727825Y-15930484D01*
X9727825Y-15930484D02*
X9746873Y-15920960D01*
X9746873Y-15920960D02*
X9756396Y-15901912D01*
X9756396Y-15901912D02*
X9756396Y-15892388D01*
X9756396Y-15892388D02*
X9746873Y-15873341D01*
X9746873Y-15873341D02*
X9727825Y-15863817D01*
X9727825Y-15863817D02*
X9699253Y-15863817D01*
X9699253Y-15863817D02*
X9680206Y-15854293D01*
X9680206Y-15854293D02*
X9670682Y-15835246D01*
X9670682Y-15835246D02*
X9670682Y-15825722D01*
X9670682Y-15825722D02*
X9680206Y-15806674D01*
X9680206Y-15806674D02*
X9699253Y-15797150D01*
X9699253Y-15797150D02*
X9727825Y-15797150D01*
X9727825Y-15797150D02*
X9746873Y-15806674D01*
X9823063Y-16006674D02*
X9832587Y-15997150D01*
X9832587Y-15997150D02*
X9851634Y-15968579D01*
X9851634Y-15968579D02*
X9861158Y-15949531D01*
X9861158Y-15949531D02*
X9870682Y-15920960D01*
X9870682Y-15920960D02*
X9880206Y-15873341D01*
X9880206Y-15873341D02*
X9880206Y-15835246D01*
X9880206Y-15835246D02*
X9870682Y-15787627D01*
X9870682Y-15787627D02*
X9861158Y-15759055D01*
X9861158Y-15759055D02*
X9851634Y-15740008D01*
X9851634Y-15740008D02*
X9832587Y-15711436D01*
X9832587Y-15711436D02*
X9823063Y-15701912D01*
D12*
X5018000Y-16073000D02*
X5018000Y-16133000D01*
X4988000Y-16103000D02*
X5048000Y-16103000D01*
D10*
X5346872Y-15994484D02*
X5365920Y-15994484D01*
X5365920Y-15994484D02*
X5384967Y-16004008D01*
X5384967Y-16004008D02*
X5394491Y-16013531D01*
X5394491Y-16013531D02*
X5404015Y-16032579D01*
X5404015Y-16032579D02*
X5413539Y-16070674D01*
X5413539Y-16070674D02*
X5413539Y-16118293D01*
X5413539Y-16118293D02*
X5404015Y-16156388D01*
X5404015Y-16156388D02*
X5394491Y-16175436D01*
X5394491Y-16175436D02*
X5384967Y-16184960D01*
X5384967Y-16184960D02*
X5365920Y-16194484D01*
X5365920Y-16194484D02*
X5346872Y-16194484D01*
X5346872Y-16194484D02*
X5327824Y-16184960D01*
X5327824Y-16184960D02*
X5318301Y-16175436D01*
X5318301Y-16175436D02*
X5308777Y-16156388D01*
X5308777Y-16156388D02*
X5299253Y-16118293D01*
X5299253Y-16118293D02*
X5299253Y-16070674D01*
X5299253Y-16070674D02*
X5308777Y-16032579D01*
X5308777Y-16032579D02*
X5318301Y-16013531D01*
X5318301Y-16013531D02*
X5327824Y-16004008D01*
X5327824Y-16004008D02*
X5346872Y-15994484D01*
X5499253Y-16175436D02*
X5508777Y-16184960D01*
X5508777Y-16184960D02*
X5499253Y-16194484D01*
X5499253Y-16194484D02*
X5489729Y-16184960D01*
X5489729Y-16184960D02*
X5499253Y-16175436D01*
X5499253Y-16175436D02*
X5499253Y-16194484D01*
X5680205Y-15994484D02*
X5642110Y-15994484D01*
X5642110Y-15994484D02*
X5623062Y-16004008D01*
X5623062Y-16004008D02*
X5613539Y-16013531D01*
X5613539Y-16013531D02*
X5594491Y-16042103D01*
X5594491Y-16042103D02*
X5584967Y-16080198D01*
X5584967Y-16080198D02*
X5584967Y-16156388D01*
X5584967Y-16156388D02*
X5594491Y-16175436D01*
X5594491Y-16175436D02*
X5604015Y-16184960D01*
X5604015Y-16184960D02*
X5623062Y-16194484D01*
X5623062Y-16194484D02*
X5661158Y-16194484D01*
X5661158Y-16194484D02*
X5680205Y-16184960D01*
X5680205Y-16184960D02*
X5689729Y-16175436D01*
X5689729Y-16175436D02*
X5699253Y-16156388D01*
X5699253Y-16156388D02*
X5699253Y-16108769D01*
X5699253Y-16108769D02*
X5689729Y-16089722D01*
X5689729Y-16089722D02*
X5680205Y-16080198D01*
X5680205Y-16080198D02*
X5661158Y-16070674D01*
X5661158Y-16070674D02*
X5623062Y-16070674D01*
X5623062Y-16070674D02*
X5604015Y-16080198D01*
X5604015Y-16080198D02*
X5594491Y-16089722D01*
X5594491Y-16089722D02*
X5584967Y-16108769D01*
X5823062Y-15994484D02*
X5842110Y-15994484D01*
X5842110Y-15994484D02*
X5861158Y-16004008D01*
X5861158Y-16004008D02*
X5870682Y-16013531D01*
X5870682Y-16013531D02*
X5880205Y-16032579D01*
X5880205Y-16032579D02*
X5889729Y-16070674D01*
X5889729Y-16070674D02*
X5889729Y-16118293D01*
X5889729Y-16118293D02*
X5880205Y-16156388D01*
X5880205Y-16156388D02*
X5870682Y-16175436D01*
X5870682Y-16175436D02*
X5861158Y-16184960D01*
X5861158Y-16184960D02*
X5842110Y-16194484D01*
X5842110Y-16194484D02*
X5823062Y-16194484D01*
X5823062Y-16194484D02*
X5804015Y-16184960D01*
X5804015Y-16184960D02*
X5794491Y-16175436D01*
X5794491Y-16175436D02*
X5784967Y-16156388D01*
X5784967Y-16156388D02*
X5775443Y-16118293D01*
X5775443Y-16118293D02*
X5775443Y-16070674D01*
X5775443Y-16070674D02*
X5784967Y-16032579D01*
X5784967Y-16032579D02*
X5794491Y-16013531D01*
X5794491Y-16013531D02*
X5804015Y-16004008D01*
X5804015Y-16004008D02*
X5823062Y-15994484D01*
X6013539Y-15994484D02*
X6032586Y-15994484D01*
X6032586Y-15994484D02*
X6051634Y-16004008D01*
X6051634Y-16004008D02*
X6061158Y-16013531D01*
X6061158Y-16013531D02*
X6070682Y-16032579D01*
X6070682Y-16032579D02*
X6080205Y-16070674D01*
X6080205Y-16070674D02*
X6080205Y-16118293D01*
X6080205Y-16118293D02*
X6070682Y-16156388D01*
X6070682Y-16156388D02*
X6061158Y-16175436D01*
X6061158Y-16175436D02*
X6051634Y-16184960D01*
X6051634Y-16184960D02*
X6032586Y-16194484D01*
X6032586Y-16194484D02*
X6013539Y-16194484D01*
X6013539Y-16194484D02*
X5994491Y-16184960D01*
X5994491Y-16184960D02*
X5984967Y-16175436D01*
X5984967Y-16175436D02*
X5975443Y-16156388D01*
X5975443Y-16156388D02*
X5965920Y-16118293D01*
X5965920Y-16118293D02*
X5965920Y-16070674D01*
X5965920Y-16070674D02*
X5975443Y-16032579D01*
X5975443Y-16032579D02*
X5984967Y-16013531D01*
X5984967Y-16013531D02*
X5994491Y-16004008D01*
X5994491Y-16004008D02*
X6013539Y-15994484D01*
X6165920Y-16194484D02*
X6165920Y-16061150D01*
X6165920Y-16080198D02*
X6175443Y-16070674D01*
X6175443Y-16070674D02*
X6194491Y-16061150D01*
X6194491Y-16061150D02*
X6223063Y-16061150D01*
X6223063Y-16061150D02*
X6242110Y-16070674D01*
X6242110Y-16070674D02*
X6251634Y-16089722D01*
X6251634Y-16089722D02*
X6251634Y-16194484D01*
X6251634Y-16089722D02*
X6261158Y-16070674D01*
X6261158Y-16070674D02*
X6280205Y-16061150D01*
X6280205Y-16061150D02*
X6308777Y-16061150D01*
X6308777Y-16061150D02*
X6327824Y-16070674D01*
X6327824Y-16070674D02*
X6337348Y-16089722D01*
X6337348Y-16089722D02*
X6337348Y-16194484D01*
X6432586Y-16194484D02*
X6432586Y-16061150D01*
X6432586Y-16080198D02*
X6442110Y-16070674D01*
X6442110Y-16070674D02*
X6461158Y-16061150D01*
X6461158Y-16061150D02*
X6489729Y-16061150D01*
X6489729Y-16061150D02*
X6508777Y-16070674D01*
X6508777Y-16070674D02*
X6518301Y-16089722D01*
X6518301Y-16089722D02*
X6518301Y-16194484D01*
X6518301Y-16089722D02*
X6527824Y-16070674D01*
X6527824Y-16070674D02*
X6546872Y-16061150D01*
X6546872Y-16061150D02*
X6575443Y-16061150D01*
X6575443Y-16061150D02*
X6594491Y-16070674D01*
X6594491Y-16070674D02*
X6604015Y-16089722D01*
X6604015Y-16089722D02*
X6604015Y-16194484D01*
X6994491Y-15984960D02*
X6823063Y-16242103D01*
X7251634Y-15994484D02*
X7270682Y-15994484D01*
X7270682Y-15994484D02*
X7289729Y-16004008D01*
X7289729Y-16004008D02*
X7299253Y-16013531D01*
X7299253Y-16013531D02*
X7308777Y-16032579D01*
X7308777Y-16032579D02*
X7318301Y-16070674D01*
X7318301Y-16070674D02*
X7318301Y-16118293D01*
X7318301Y-16118293D02*
X7308777Y-16156388D01*
X7308777Y-16156388D02*
X7299253Y-16175436D01*
X7299253Y-16175436D02*
X7289729Y-16184960D01*
X7289729Y-16184960D02*
X7270682Y-16194484D01*
X7270682Y-16194484D02*
X7251634Y-16194484D01*
X7251634Y-16194484D02*
X7232586Y-16184960D01*
X7232586Y-16184960D02*
X7223063Y-16175436D01*
X7223063Y-16175436D02*
X7213539Y-16156388D01*
X7213539Y-16156388D02*
X7204015Y-16118293D01*
X7204015Y-16118293D02*
X7204015Y-16070674D01*
X7204015Y-16070674D02*
X7213539Y-16032579D01*
X7213539Y-16032579D02*
X7223063Y-16013531D01*
X7223063Y-16013531D02*
X7232586Y-16004008D01*
X7232586Y-16004008D02*
X7251634Y-15994484D01*
X7404015Y-16175436D02*
X7413539Y-16184960D01*
X7413539Y-16184960D02*
X7404015Y-16194484D01*
X7404015Y-16194484D02*
X7394491Y-16184960D01*
X7394491Y-16184960D02*
X7404015Y-16175436D01*
X7404015Y-16175436D02*
X7404015Y-16194484D01*
X7537348Y-15994484D02*
X7556396Y-15994484D01*
X7556396Y-15994484D02*
X7575444Y-16004008D01*
X7575444Y-16004008D02*
X7584967Y-16013531D01*
X7584967Y-16013531D02*
X7594491Y-16032579D01*
X7594491Y-16032579D02*
X7604015Y-16070674D01*
X7604015Y-16070674D02*
X7604015Y-16118293D01*
X7604015Y-16118293D02*
X7594491Y-16156388D01*
X7594491Y-16156388D02*
X7584967Y-16175436D01*
X7584967Y-16175436D02*
X7575444Y-16184960D01*
X7575444Y-16184960D02*
X7556396Y-16194484D01*
X7556396Y-16194484D02*
X7537348Y-16194484D01*
X7537348Y-16194484D02*
X7518301Y-16184960D01*
X7518301Y-16184960D02*
X7508777Y-16175436D01*
X7508777Y-16175436D02*
X7499253Y-16156388D01*
X7499253Y-16156388D02*
X7489729Y-16118293D01*
X7489729Y-16118293D02*
X7489729Y-16070674D01*
X7489729Y-16070674D02*
X7499253Y-16032579D01*
X7499253Y-16032579D02*
X7508777Y-16013531D01*
X7508777Y-16013531D02*
X7518301Y-16004008D01*
X7518301Y-16004008D02*
X7537348Y-15994484D01*
X7680206Y-16013531D02*
X7689729Y-16004008D01*
X7689729Y-16004008D02*
X7708777Y-15994484D01*
X7708777Y-15994484D02*
X7756396Y-15994484D01*
X7756396Y-15994484D02*
X7775444Y-16004008D01*
X7775444Y-16004008D02*
X7784967Y-16013531D01*
X7784967Y-16013531D02*
X7794491Y-16032579D01*
X7794491Y-16032579D02*
X7794491Y-16051627D01*
X7794491Y-16051627D02*
X7784967Y-16080198D01*
X7784967Y-16080198D02*
X7670682Y-16194484D01*
X7670682Y-16194484D02*
X7794491Y-16194484D01*
X7861158Y-15994484D02*
X7984967Y-15994484D01*
X7984967Y-15994484D02*
X7918301Y-16070674D01*
X7918301Y-16070674D02*
X7946872Y-16070674D01*
X7946872Y-16070674D02*
X7965920Y-16080198D01*
X7965920Y-16080198D02*
X7975444Y-16089722D01*
X7975444Y-16089722D02*
X7984967Y-16108769D01*
X7984967Y-16108769D02*
X7984967Y-16156388D01*
X7984967Y-16156388D02*
X7975444Y-16175436D01*
X7975444Y-16175436D02*
X7965920Y-16184960D01*
X7965920Y-16184960D02*
X7946872Y-16194484D01*
X7946872Y-16194484D02*
X7889729Y-16194484D01*
X7889729Y-16194484D02*
X7870682Y-16184960D01*
X7870682Y-16184960D02*
X7861158Y-16175436D01*
X8156396Y-15994484D02*
X8118301Y-15994484D01*
X8118301Y-15994484D02*
X8099253Y-16004008D01*
X8099253Y-16004008D02*
X8089729Y-16013531D01*
X8089729Y-16013531D02*
X8070682Y-16042103D01*
X8070682Y-16042103D02*
X8061158Y-16080198D01*
X8061158Y-16080198D02*
X8061158Y-16156388D01*
X8061158Y-16156388D02*
X8070682Y-16175436D01*
X8070682Y-16175436D02*
X8080206Y-16184960D01*
X8080206Y-16184960D02*
X8099253Y-16194484D01*
X8099253Y-16194484D02*
X8137348Y-16194484D01*
X8137348Y-16194484D02*
X8156396Y-16184960D01*
X8156396Y-16184960D02*
X8165920Y-16175436D01*
X8165920Y-16175436D02*
X8175444Y-16156388D01*
X8175444Y-16156388D02*
X8175444Y-16108769D01*
X8175444Y-16108769D02*
X8165920Y-16089722D01*
X8165920Y-16089722D02*
X8156396Y-16080198D01*
X8156396Y-16080198D02*
X8137348Y-16070674D01*
X8137348Y-16070674D02*
X8099253Y-16070674D01*
X8099253Y-16070674D02*
X8080206Y-16080198D01*
X8080206Y-16080198D02*
X8070682Y-16089722D01*
X8070682Y-16089722D02*
X8061158Y-16108769D01*
X8251634Y-15994484D02*
X8251634Y-16032579D01*
X8327825Y-15994484D02*
X8327825Y-16032579D01*
X8623063Y-16270674D02*
X8613539Y-16261150D01*
X8613539Y-16261150D02*
X8594491Y-16232579D01*
X8594491Y-16232579D02*
X8584968Y-16213531D01*
X8584968Y-16213531D02*
X8575444Y-16184960D01*
X8575444Y-16184960D02*
X8565920Y-16137341D01*
X8565920Y-16137341D02*
X8565920Y-16099246D01*
X8565920Y-16099246D02*
X8575444Y-16051627D01*
X8575444Y-16051627D02*
X8584968Y-16023055D01*
X8584968Y-16023055D02*
X8594491Y-16004008D01*
X8594491Y-16004008D02*
X8613539Y-15975436D01*
X8613539Y-15975436D02*
X8623063Y-15965912D01*
X8680206Y-15994484D02*
X8804015Y-15994484D01*
X8804015Y-15994484D02*
X8737349Y-16070674D01*
X8737349Y-16070674D02*
X8765920Y-16070674D01*
X8765920Y-16070674D02*
X8784968Y-16080198D01*
X8784968Y-16080198D02*
X8794491Y-16089722D01*
X8794491Y-16089722D02*
X8804015Y-16108769D01*
X8804015Y-16108769D02*
X8804015Y-16156388D01*
X8804015Y-16156388D02*
X8794491Y-16175436D01*
X8794491Y-16175436D02*
X8784968Y-16184960D01*
X8784968Y-16184960D02*
X8765920Y-16194484D01*
X8765920Y-16194484D02*
X8708777Y-16194484D01*
X8708777Y-16194484D02*
X8689730Y-16184960D01*
X8689730Y-16184960D02*
X8680206Y-16175436D01*
X9042111Y-16194484D02*
X9042111Y-15994484D01*
X9127825Y-16194484D02*
X9127825Y-16089722D01*
X9127825Y-16089722D02*
X9118301Y-16070674D01*
X9118301Y-16070674D02*
X9099253Y-16061150D01*
X9099253Y-16061150D02*
X9070682Y-16061150D01*
X9070682Y-16061150D02*
X9051634Y-16070674D01*
X9051634Y-16070674D02*
X9042111Y-16080198D01*
X9251634Y-16194484D02*
X9232587Y-16184960D01*
X9232587Y-16184960D02*
X9223063Y-16175436D01*
X9223063Y-16175436D02*
X9213539Y-16156388D01*
X9213539Y-16156388D02*
X9213539Y-16099246D01*
X9213539Y-16099246D02*
X9223063Y-16080198D01*
X9223063Y-16080198D02*
X9232587Y-16070674D01*
X9232587Y-16070674D02*
X9251634Y-16061150D01*
X9251634Y-16061150D02*
X9280206Y-16061150D01*
X9280206Y-16061150D02*
X9299253Y-16070674D01*
X9299253Y-16070674D02*
X9308777Y-16080198D01*
X9308777Y-16080198D02*
X9318301Y-16099246D01*
X9318301Y-16099246D02*
X9318301Y-16156388D01*
X9318301Y-16156388D02*
X9308777Y-16175436D01*
X9308777Y-16175436D02*
X9299253Y-16184960D01*
X9299253Y-16184960D02*
X9280206Y-16194484D01*
X9280206Y-16194484D02*
X9251634Y-16194484D01*
X9432587Y-16194484D02*
X9413539Y-16184960D01*
X9413539Y-16184960D02*
X9404015Y-16165912D01*
X9404015Y-16165912D02*
X9404015Y-15994484D01*
X9584968Y-16184960D02*
X9565920Y-16194484D01*
X9565920Y-16194484D02*
X9527825Y-16194484D01*
X9527825Y-16194484D02*
X9508777Y-16184960D01*
X9508777Y-16184960D02*
X9499253Y-16165912D01*
X9499253Y-16165912D02*
X9499253Y-16089722D01*
X9499253Y-16089722D02*
X9508777Y-16070674D01*
X9508777Y-16070674D02*
X9527825Y-16061150D01*
X9527825Y-16061150D02*
X9565920Y-16061150D01*
X9565920Y-16061150D02*
X9584968Y-16070674D01*
X9584968Y-16070674D02*
X9594492Y-16089722D01*
X9594492Y-16089722D02*
X9594492Y-16108769D01*
X9594492Y-16108769D02*
X9499253Y-16127817D01*
X9670682Y-16184960D02*
X9689730Y-16194484D01*
X9689730Y-16194484D02*
X9727825Y-16194484D01*
X9727825Y-16194484D02*
X9746873Y-16184960D01*
X9746873Y-16184960D02*
X9756396Y-16165912D01*
X9756396Y-16165912D02*
X9756396Y-16156388D01*
X9756396Y-16156388D02*
X9746873Y-16137341D01*
X9746873Y-16137341D02*
X9727825Y-16127817D01*
X9727825Y-16127817D02*
X9699253Y-16127817D01*
X9699253Y-16127817D02*
X9680206Y-16118293D01*
X9680206Y-16118293D02*
X9670682Y-16099246D01*
X9670682Y-16099246D02*
X9670682Y-16089722D01*
X9670682Y-16089722D02*
X9680206Y-16070674D01*
X9680206Y-16070674D02*
X9699253Y-16061150D01*
X9699253Y-16061150D02*
X9727825Y-16061150D01*
X9727825Y-16061150D02*
X9746873Y-16070674D01*
X9823063Y-16270674D02*
X9832587Y-16261150D01*
X9832587Y-16261150D02*
X9851634Y-16232579D01*
X9851634Y-16232579D02*
X9861158Y-16213531D01*
X9861158Y-16213531D02*
X9870682Y-16184960D01*
X9870682Y-16184960D02*
X9880206Y-16137341D01*
X9880206Y-16137341D02*
X9880206Y-16099246D01*
X9880206Y-16099246D02*
X9870682Y-16051627D01*
X9870682Y-16051627D02*
X9861158Y-16023055D01*
X9861158Y-16023055D02*
X9851634Y-16004008D01*
X9851634Y-16004008D02*
X9832587Y-15975436D01*
X9832587Y-15975436D02*
X9823063Y-15965912D01*
D12*
X5036285Y-16395284D02*
X5036285Y-16338715D01*
X4979716Y-16338715D01*
X4979716Y-16395284D01*
X5036285Y-16395284D01*
D10*
X5346872Y-16258484D02*
X5365920Y-16258484D01*
X5365920Y-16258484D02*
X5384967Y-16268008D01*
X5384967Y-16268008D02*
X5394491Y-16277531D01*
X5394491Y-16277531D02*
X5404015Y-16296579D01*
X5404015Y-16296579D02*
X5413539Y-16334674D01*
X5413539Y-16334674D02*
X5413539Y-16382293D01*
X5413539Y-16382293D02*
X5404015Y-16420388D01*
X5404015Y-16420388D02*
X5394491Y-16439436D01*
X5394491Y-16439436D02*
X5384967Y-16448960D01*
X5384967Y-16448960D02*
X5365920Y-16458484D01*
X5365920Y-16458484D02*
X5346872Y-16458484D01*
X5346872Y-16458484D02*
X5327824Y-16448960D01*
X5327824Y-16448960D02*
X5318301Y-16439436D01*
X5318301Y-16439436D02*
X5308777Y-16420388D01*
X5308777Y-16420388D02*
X5299253Y-16382293D01*
X5299253Y-16382293D02*
X5299253Y-16334674D01*
X5299253Y-16334674D02*
X5308777Y-16296579D01*
X5308777Y-16296579D02*
X5318301Y-16277531D01*
X5318301Y-16277531D02*
X5327824Y-16268008D01*
X5327824Y-16268008D02*
X5346872Y-16258484D01*
X5499253Y-16439436D02*
X5508777Y-16448960D01*
X5508777Y-16448960D02*
X5499253Y-16458484D01*
X5499253Y-16458484D02*
X5489729Y-16448960D01*
X5489729Y-16448960D02*
X5499253Y-16439436D01*
X5499253Y-16439436D02*
X5499253Y-16458484D01*
X5623062Y-16344198D02*
X5604015Y-16334674D01*
X5604015Y-16334674D02*
X5594491Y-16325150D01*
X5594491Y-16325150D02*
X5584967Y-16306103D01*
X5584967Y-16306103D02*
X5584967Y-16296579D01*
X5584967Y-16296579D02*
X5594491Y-16277531D01*
X5594491Y-16277531D02*
X5604015Y-16268008D01*
X5604015Y-16268008D02*
X5623062Y-16258484D01*
X5623062Y-16258484D02*
X5661158Y-16258484D01*
X5661158Y-16258484D02*
X5680205Y-16268008D01*
X5680205Y-16268008D02*
X5689729Y-16277531D01*
X5689729Y-16277531D02*
X5699253Y-16296579D01*
X5699253Y-16296579D02*
X5699253Y-16306103D01*
X5699253Y-16306103D02*
X5689729Y-16325150D01*
X5689729Y-16325150D02*
X5680205Y-16334674D01*
X5680205Y-16334674D02*
X5661158Y-16344198D01*
X5661158Y-16344198D02*
X5623062Y-16344198D01*
X5623062Y-16344198D02*
X5604015Y-16353722D01*
X5604015Y-16353722D02*
X5594491Y-16363246D01*
X5594491Y-16363246D02*
X5584967Y-16382293D01*
X5584967Y-16382293D02*
X5584967Y-16420388D01*
X5584967Y-16420388D02*
X5594491Y-16439436D01*
X5594491Y-16439436D02*
X5604015Y-16448960D01*
X5604015Y-16448960D02*
X5623062Y-16458484D01*
X5623062Y-16458484D02*
X5661158Y-16458484D01*
X5661158Y-16458484D02*
X5680205Y-16448960D01*
X5680205Y-16448960D02*
X5689729Y-16439436D01*
X5689729Y-16439436D02*
X5699253Y-16420388D01*
X5699253Y-16420388D02*
X5699253Y-16382293D01*
X5699253Y-16382293D02*
X5689729Y-16363246D01*
X5689729Y-16363246D02*
X5680205Y-16353722D01*
X5680205Y-16353722D02*
X5661158Y-16344198D01*
X5823062Y-16258484D02*
X5842110Y-16258484D01*
X5842110Y-16258484D02*
X5861158Y-16268008D01*
X5861158Y-16268008D02*
X5870682Y-16277531D01*
X5870682Y-16277531D02*
X5880205Y-16296579D01*
X5880205Y-16296579D02*
X5889729Y-16334674D01*
X5889729Y-16334674D02*
X5889729Y-16382293D01*
X5889729Y-16382293D02*
X5880205Y-16420388D01*
X5880205Y-16420388D02*
X5870682Y-16439436D01*
X5870682Y-16439436D02*
X5861158Y-16448960D01*
X5861158Y-16448960D02*
X5842110Y-16458484D01*
X5842110Y-16458484D02*
X5823062Y-16458484D01*
X5823062Y-16458484D02*
X5804015Y-16448960D01*
X5804015Y-16448960D02*
X5794491Y-16439436D01*
X5794491Y-16439436D02*
X5784967Y-16420388D01*
X5784967Y-16420388D02*
X5775443Y-16382293D01*
X5775443Y-16382293D02*
X5775443Y-16334674D01*
X5775443Y-16334674D02*
X5784967Y-16296579D01*
X5784967Y-16296579D02*
X5794491Y-16277531D01*
X5794491Y-16277531D02*
X5804015Y-16268008D01*
X5804015Y-16268008D02*
X5823062Y-16258484D01*
X6013539Y-16258484D02*
X6032586Y-16258484D01*
X6032586Y-16258484D02*
X6051634Y-16268008D01*
X6051634Y-16268008D02*
X6061158Y-16277531D01*
X6061158Y-16277531D02*
X6070682Y-16296579D01*
X6070682Y-16296579D02*
X6080205Y-16334674D01*
X6080205Y-16334674D02*
X6080205Y-16382293D01*
X6080205Y-16382293D02*
X6070682Y-16420388D01*
X6070682Y-16420388D02*
X6061158Y-16439436D01*
X6061158Y-16439436D02*
X6051634Y-16448960D01*
X6051634Y-16448960D02*
X6032586Y-16458484D01*
X6032586Y-16458484D02*
X6013539Y-16458484D01*
X6013539Y-16458484D02*
X5994491Y-16448960D01*
X5994491Y-16448960D02*
X5984967Y-16439436D01*
X5984967Y-16439436D02*
X5975443Y-16420388D01*
X5975443Y-16420388D02*
X5965920Y-16382293D01*
X5965920Y-16382293D02*
X5965920Y-16334674D01*
X5965920Y-16334674D02*
X5975443Y-16296579D01*
X5975443Y-16296579D02*
X5984967Y-16277531D01*
X5984967Y-16277531D02*
X5994491Y-16268008D01*
X5994491Y-16268008D02*
X6013539Y-16258484D01*
X6165920Y-16458484D02*
X6165920Y-16325150D01*
X6165920Y-16344198D02*
X6175443Y-16334674D01*
X6175443Y-16334674D02*
X6194491Y-16325150D01*
X6194491Y-16325150D02*
X6223063Y-16325150D01*
X6223063Y-16325150D02*
X6242110Y-16334674D01*
X6242110Y-16334674D02*
X6251634Y-16353722D01*
X6251634Y-16353722D02*
X6251634Y-16458484D01*
X6251634Y-16353722D02*
X6261158Y-16334674D01*
X6261158Y-16334674D02*
X6280205Y-16325150D01*
X6280205Y-16325150D02*
X6308777Y-16325150D01*
X6308777Y-16325150D02*
X6327824Y-16334674D01*
X6327824Y-16334674D02*
X6337348Y-16353722D01*
X6337348Y-16353722D02*
X6337348Y-16458484D01*
X6432586Y-16458484D02*
X6432586Y-16325150D01*
X6432586Y-16344198D02*
X6442110Y-16334674D01*
X6442110Y-16334674D02*
X6461158Y-16325150D01*
X6461158Y-16325150D02*
X6489729Y-16325150D01*
X6489729Y-16325150D02*
X6508777Y-16334674D01*
X6508777Y-16334674D02*
X6518301Y-16353722D01*
X6518301Y-16353722D02*
X6518301Y-16458484D01*
X6518301Y-16353722D02*
X6527824Y-16334674D01*
X6527824Y-16334674D02*
X6546872Y-16325150D01*
X6546872Y-16325150D02*
X6575443Y-16325150D01*
X6575443Y-16325150D02*
X6594491Y-16334674D01*
X6594491Y-16334674D02*
X6604015Y-16353722D01*
X6604015Y-16353722D02*
X6604015Y-16458484D01*
X6994491Y-16248960D02*
X6823063Y-16506103D01*
X7251634Y-16258484D02*
X7270682Y-16258484D01*
X7270682Y-16258484D02*
X7289729Y-16268008D01*
X7289729Y-16268008D02*
X7299253Y-16277531D01*
X7299253Y-16277531D02*
X7308777Y-16296579D01*
X7308777Y-16296579D02*
X7318301Y-16334674D01*
X7318301Y-16334674D02*
X7318301Y-16382293D01*
X7318301Y-16382293D02*
X7308777Y-16420388D01*
X7308777Y-16420388D02*
X7299253Y-16439436D01*
X7299253Y-16439436D02*
X7289729Y-16448960D01*
X7289729Y-16448960D02*
X7270682Y-16458484D01*
X7270682Y-16458484D02*
X7251634Y-16458484D01*
X7251634Y-16458484D02*
X7232586Y-16448960D01*
X7232586Y-16448960D02*
X7223063Y-16439436D01*
X7223063Y-16439436D02*
X7213539Y-16420388D01*
X7213539Y-16420388D02*
X7204015Y-16382293D01*
X7204015Y-16382293D02*
X7204015Y-16334674D01*
X7204015Y-16334674D02*
X7213539Y-16296579D01*
X7213539Y-16296579D02*
X7223063Y-16277531D01*
X7223063Y-16277531D02*
X7232586Y-16268008D01*
X7232586Y-16268008D02*
X7251634Y-16258484D01*
X7404015Y-16439436D02*
X7413539Y-16448960D01*
X7413539Y-16448960D02*
X7404015Y-16458484D01*
X7404015Y-16458484D02*
X7394491Y-16448960D01*
X7394491Y-16448960D02*
X7404015Y-16439436D01*
X7404015Y-16439436D02*
X7404015Y-16458484D01*
X7537348Y-16258484D02*
X7556396Y-16258484D01*
X7556396Y-16258484D02*
X7575444Y-16268008D01*
X7575444Y-16268008D02*
X7584967Y-16277531D01*
X7584967Y-16277531D02*
X7594491Y-16296579D01*
X7594491Y-16296579D02*
X7604015Y-16334674D01*
X7604015Y-16334674D02*
X7604015Y-16382293D01*
X7604015Y-16382293D02*
X7594491Y-16420388D01*
X7594491Y-16420388D02*
X7584967Y-16439436D01*
X7584967Y-16439436D02*
X7575444Y-16448960D01*
X7575444Y-16448960D02*
X7556396Y-16458484D01*
X7556396Y-16458484D02*
X7537348Y-16458484D01*
X7537348Y-16458484D02*
X7518301Y-16448960D01*
X7518301Y-16448960D02*
X7508777Y-16439436D01*
X7508777Y-16439436D02*
X7499253Y-16420388D01*
X7499253Y-16420388D02*
X7489729Y-16382293D01*
X7489729Y-16382293D02*
X7489729Y-16334674D01*
X7489729Y-16334674D02*
X7499253Y-16296579D01*
X7499253Y-16296579D02*
X7508777Y-16277531D01*
X7508777Y-16277531D02*
X7518301Y-16268008D01*
X7518301Y-16268008D02*
X7537348Y-16258484D01*
X7670682Y-16258484D02*
X7794491Y-16258484D01*
X7794491Y-16258484D02*
X7727825Y-16334674D01*
X7727825Y-16334674D02*
X7756396Y-16334674D01*
X7756396Y-16334674D02*
X7775444Y-16344198D01*
X7775444Y-16344198D02*
X7784967Y-16353722D01*
X7784967Y-16353722D02*
X7794491Y-16372769D01*
X7794491Y-16372769D02*
X7794491Y-16420388D01*
X7794491Y-16420388D02*
X7784967Y-16439436D01*
X7784967Y-16439436D02*
X7775444Y-16448960D01*
X7775444Y-16448960D02*
X7756396Y-16458484D01*
X7756396Y-16458484D02*
X7699253Y-16458484D01*
X7699253Y-16458484D02*
X7680206Y-16448960D01*
X7680206Y-16448960D02*
X7670682Y-16439436D01*
X7984967Y-16458484D02*
X7870682Y-16458484D01*
X7927825Y-16458484D02*
X7927825Y-16258484D01*
X7927825Y-16258484D02*
X7908777Y-16287055D01*
X7908777Y-16287055D02*
X7889729Y-16306103D01*
X7889729Y-16306103D02*
X7870682Y-16315627D01*
X8165920Y-16258484D02*
X8070682Y-16258484D01*
X8070682Y-16258484D02*
X8061158Y-16353722D01*
X8061158Y-16353722D02*
X8070682Y-16344198D01*
X8070682Y-16344198D02*
X8089729Y-16334674D01*
X8089729Y-16334674D02*
X8137348Y-16334674D01*
X8137348Y-16334674D02*
X8156396Y-16344198D01*
X8156396Y-16344198D02*
X8165920Y-16353722D01*
X8165920Y-16353722D02*
X8175444Y-16372769D01*
X8175444Y-16372769D02*
X8175444Y-16420388D01*
X8175444Y-16420388D02*
X8165920Y-16439436D01*
X8165920Y-16439436D02*
X8156396Y-16448960D01*
X8156396Y-16448960D02*
X8137348Y-16458484D01*
X8137348Y-16458484D02*
X8089729Y-16458484D01*
X8089729Y-16458484D02*
X8070682Y-16448960D01*
X8070682Y-16448960D02*
X8061158Y-16439436D01*
X8251634Y-16258484D02*
X8251634Y-16296579D01*
X8327825Y-16258484D02*
X8327825Y-16296579D01*
X8623063Y-16534674D02*
X8613539Y-16525150D01*
X8613539Y-16525150D02*
X8594491Y-16496579D01*
X8594491Y-16496579D02*
X8584968Y-16477531D01*
X8584968Y-16477531D02*
X8575444Y-16448960D01*
X8575444Y-16448960D02*
X8565920Y-16401341D01*
X8565920Y-16401341D02*
X8565920Y-16363246D01*
X8565920Y-16363246D02*
X8575444Y-16315627D01*
X8575444Y-16315627D02*
X8584968Y-16287055D01*
X8584968Y-16287055D02*
X8594491Y-16268008D01*
X8594491Y-16268008D02*
X8613539Y-16239436D01*
X8613539Y-16239436D02*
X8623063Y-16229912D01*
X8689730Y-16277531D02*
X8699253Y-16268008D01*
X8699253Y-16268008D02*
X8718301Y-16258484D01*
X8718301Y-16258484D02*
X8765920Y-16258484D01*
X8765920Y-16258484D02*
X8784968Y-16268008D01*
X8784968Y-16268008D02*
X8794491Y-16277531D01*
X8794491Y-16277531D02*
X8804015Y-16296579D01*
X8804015Y-16296579D02*
X8804015Y-16315627D01*
X8804015Y-16315627D02*
X8794491Y-16344198D01*
X8794491Y-16344198D02*
X8680206Y-16458484D01*
X8680206Y-16458484D02*
X8804015Y-16458484D01*
X9042111Y-16458484D02*
X9042111Y-16258484D01*
X9127825Y-16458484D02*
X9127825Y-16353722D01*
X9127825Y-16353722D02*
X9118301Y-16334674D01*
X9118301Y-16334674D02*
X9099253Y-16325150D01*
X9099253Y-16325150D02*
X9070682Y-16325150D01*
X9070682Y-16325150D02*
X9051634Y-16334674D01*
X9051634Y-16334674D02*
X9042111Y-16344198D01*
X9251634Y-16458484D02*
X9232587Y-16448960D01*
X9232587Y-16448960D02*
X9223063Y-16439436D01*
X9223063Y-16439436D02*
X9213539Y-16420388D01*
X9213539Y-16420388D02*
X9213539Y-16363246D01*
X9213539Y-16363246D02*
X9223063Y-16344198D01*
X9223063Y-16344198D02*
X9232587Y-16334674D01*
X9232587Y-16334674D02*
X9251634Y-16325150D01*
X9251634Y-16325150D02*
X9280206Y-16325150D01*
X9280206Y-16325150D02*
X9299253Y-16334674D01*
X9299253Y-16334674D02*
X9308777Y-16344198D01*
X9308777Y-16344198D02*
X9318301Y-16363246D01*
X9318301Y-16363246D02*
X9318301Y-16420388D01*
X9318301Y-16420388D02*
X9308777Y-16439436D01*
X9308777Y-16439436D02*
X9299253Y-16448960D01*
X9299253Y-16448960D02*
X9280206Y-16458484D01*
X9280206Y-16458484D02*
X9251634Y-16458484D01*
X9432587Y-16458484D02*
X9413539Y-16448960D01*
X9413539Y-16448960D02*
X9404015Y-16429912D01*
X9404015Y-16429912D02*
X9404015Y-16258484D01*
X9584968Y-16448960D02*
X9565920Y-16458484D01*
X9565920Y-16458484D02*
X9527825Y-16458484D01*
X9527825Y-16458484D02*
X9508777Y-16448960D01*
X9508777Y-16448960D02*
X9499253Y-16429912D01*
X9499253Y-16429912D02*
X9499253Y-16353722D01*
X9499253Y-16353722D02*
X9508777Y-16334674D01*
X9508777Y-16334674D02*
X9527825Y-16325150D01*
X9527825Y-16325150D02*
X9565920Y-16325150D01*
X9565920Y-16325150D02*
X9584968Y-16334674D01*
X9584968Y-16334674D02*
X9594492Y-16353722D01*
X9594492Y-16353722D02*
X9594492Y-16372769D01*
X9594492Y-16372769D02*
X9499253Y-16391817D01*
X9670682Y-16448960D02*
X9689730Y-16458484D01*
X9689730Y-16458484D02*
X9727825Y-16458484D01*
X9727825Y-16458484D02*
X9746873Y-16448960D01*
X9746873Y-16448960D02*
X9756396Y-16429912D01*
X9756396Y-16429912D02*
X9756396Y-16420388D01*
X9756396Y-16420388D02*
X9746873Y-16401341D01*
X9746873Y-16401341D02*
X9727825Y-16391817D01*
X9727825Y-16391817D02*
X9699253Y-16391817D01*
X9699253Y-16391817D02*
X9680206Y-16382293D01*
X9680206Y-16382293D02*
X9670682Y-16363246D01*
X9670682Y-16363246D02*
X9670682Y-16353722D01*
X9670682Y-16353722D02*
X9680206Y-16334674D01*
X9680206Y-16334674D02*
X9699253Y-16325150D01*
X9699253Y-16325150D02*
X9727825Y-16325150D01*
X9727825Y-16325150D02*
X9746873Y-16334674D01*
X9823063Y-16534674D02*
X9832587Y-16525150D01*
X9832587Y-16525150D02*
X9851634Y-16496579D01*
X9851634Y-16496579D02*
X9861158Y-16477531D01*
X9861158Y-16477531D02*
X9870682Y-16448960D01*
X9870682Y-16448960D02*
X9880206Y-16401341D01*
X9880206Y-16401341D02*
X9880206Y-16363246D01*
X9880206Y-16363246D02*
X9870682Y-16315627D01*
X9870682Y-16315627D02*
X9861158Y-16287055D01*
X9861158Y-16287055D02*
X9851634Y-16268008D01*
X9851634Y-16268008D02*
X9832587Y-16239436D01*
X9832587Y-16239436D02*
X9823063Y-16229912D01*
D12*
X5003000Y-16676000D02*
X5048000Y-16631000D01*
X5003000Y-16586000D01*
X4958000Y-16631000D01*
X5003000Y-16676000D01*
D10*
X5346872Y-16522484D02*
X5365920Y-16522484D01*
X5365920Y-16522484D02*
X5384967Y-16532008D01*
X5384967Y-16532008D02*
X5394491Y-16541531D01*
X5394491Y-16541531D02*
X5404015Y-16560579D01*
X5404015Y-16560579D02*
X5413539Y-16598674D01*
X5413539Y-16598674D02*
X5413539Y-16646293D01*
X5413539Y-16646293D02*
X5404015Y-16684388D01*
X5404015Y-16684388D02*
X5394491Y-16703436D01*
X5394491Y-16703436D02*
X5384967Y-16712960D01*
X5384967Y-16712960D02*
X5365920Y-16722484D01*
X5365920Y-16722484D02*
X5346872Y-16722484D01*
X5346872Y-16722484D02*
X5327824Y-16712960D01*
X5327824Y-16712960D02*
X5318301Y-16703436D01*
X5318301Y-16703436D02*
X5308777Y-16684388D01*
X5308777Y-16684388D02*
X5299253Y-16646293D01*
X5299253Y-16646293D02*
X5299253Y-16598674D01*
X5299253Y-16598674D02*
X5308777Y-16560579D01*
X5308777Y-16560579D02*
X5318301Y-16541531D01*
X5318301Y-16541531D02*
X5327824Y-16532008D01*
X5327824Y-16532008D02*
X5346872Y-16522484D01*
X5499253Y-16703436D02*
X5508777Y-16712960D01*
X5508777Y-16712960D02*
X5499253Y-16722484D01*
X5499253Y-16722484D02*
X5489729Y-16712960D01*
X5489729Y-16712960D02*
X5499253Y-16703436D01*
X5499253Y-16703436D02*
X5499253Y-16722484D01*
X5604015Y-16722484D02*
X5642110Y-16722484D01*
X5642110Y-16722484D02*
X5661158Y-16712960D01*
X5661158Y-16712960D02*
X5670682Y-16703436D01*
X5670682Y-16703436D02*
X5689729Y-16674865D01*
X5689729Y-16674865D02*
X5699253Y-16636769D01*
X5699253Y-16636769D02*
X5699253Y-16560579D01*
X5699253Y-16560579D02*
X5689729Y-16541531D01*
X5689729Y-16541531D02*
X5680205Y-16532008D01*
X5680205Y-16532008D02*
X5661158Y-16522484D01*
X5661158Y-16522484D02*
X5623062Y-16522484D01*
X5623062Y-16522484D02*
X5604015Y-16532008D01*
X5604015Y-16532008D02*
X5594491Y-16541531D01*
X5594491Y-16541531D02*
X5584967Y-16560579D01*
X5584967Y-16560579D02*
X5584967Y-16608198D01*
X5584967Y-16608198D02*
X5594491Y-16627246D01*
X5594491Y-16627246D02*
X5604015Y-16636769D01*
X5604015Y-16636769D02*
X5623062Y-16646293D01*
X5623062Y-16646293D02*
X5661158Y-16646293D01*
X5661158Y-16646293D02*
X5680205Y-16636769D01*
X5680205Y-16636769D02*
X5689729Y-16627246D01*
X5689729Y-16627246D02*
X5699253Y-16608198D01*
X5823062Y-16522484D02*
X5842110Y-16522484D01*
X5842110Y-16522484D02*
X5861158Y-16532008D01*
X5861158Y-16532008D02*
X5870682Y-16541531D01*
X5870682Y-16541531D02*
X5880205Y-16560579D01*
X5880205Y-16560579D02*
X5889729Y-16598674D01*
X5889729Y-16598674D02*
X5889729Y-16646293D01*
X5889729Y-16646293D02*
X5880205Y-16684388D01*
X5880205Y-16684388D02*
X5870682Y-16703436D01*
X5870682Y-16703436D02*
X5861158Y-16712960D01*
X5861158Y-16712960D02*
X5842110Y-16722484D01*
X5842110Y-16722484D02*
X5823062Y-16722484D01*
X5823062Y-16722484D02*
X5804015Y-16712960D01*
X5804015Y-16712960D02*
X5794491Y-16703436D01*
X5794491Y-16703436D02*
X5784967Y-16684388D01*
X5784967Y-16684388D02*
X5775443Y-16646293D01*
X5775443Y-16646293D02*
X5775443Y-16598674D01*
X5775443Y-16598674D02*
X5784967Y-16560579D01*
X5784967Y-16560579D02*
X5794491Y-16541531D01*
X5794491Y-16541531D02*
X5804015Y-16532008D01*
X5804015Y-16532008D02*
X5823062Y-16522484D01*
X6013539Y-16522484D02*
X6032586Y-16522484D01*
X6032586Y-16522484D02*
X6051634Y-16532008D01*
X6051634Y-16532008D02*
X6061158Y-16541531D01*
X6061158Y-16541531D02*
X6070682Y-16560579D01*
X6070682Y-16560579D02*
X6080205Y-16598674D01*
X6080205Y-16598674D02*
X6080205Y-16646293D01*
X6080205Y-16646293D02*
X6070682Y-16684388D01*
X6070682Y-16684388D02*
X6061158Y-16703436D01*
X6061158Y-16703436D02*
X6051634Y-16712960D01*
X6051634Y-16712960D02*
X6032586Y-16722484D01*
X6032586Y-16722484D02*
X6013539Y-16722484D01*
X6013539Y-16722484D02*
X5994491Y-16712960D01*
X5994491Y-16712960D02*
X5984967Y-16703436D01*
X5984967Y-16703436D02*
X5975443Y-16684388D01*
X5975443Y-16684388D02*
X5965920Y-16646293D01*
X5965920Y-16646293D02*
X5965920Y-16598674D01*
X5965920Y-16598674D02*
X5975443Y-16560579D01*
X5975443Y-16560579D02*
X5984967Y-16541531D01*
X5984967Y-16541531D02*
X5994491Y-16532008D01*
X5994491Y-16532008D02*
X6013539Y-16522484D01*
X6165920Y-16722484D02*
X6165920Y-16589150D01*
X6165920Y-16608198D02*
X6175443Y-16598674D01*
X6175443Y-16598674D02*
X6194491Y-16589150D01*
X6194491Y-16589150D02*
X6223063Y-16589150D01*
X6223063Y-16589150D02*
X6242110Y-16598674D01*
X6242110Y-16598674D02*
X6251634Y-16617722D01*
X6251634Y-16617722D02*
X6251634Y-16722484D01*
X6251634Y-16617722D02*
X6261158Y-16598674D01*
X6261158Y-16598674D02*
X6280205Y-16589150D01*
X6280205Y-16589150D02*
X6308777Y-16589150D01*
X6308777Y-16589150D02*
X6327824Y-16598674D01*
X6327824Y-16598674D02*
X6337348Y-16617722D01*
X6337348Y-16617722D02*
X6337348Y-16722484D01*
X6432586Y-16722484D02*
X6432586Y-16589150D01*
X6432586Y-16608198D02*
X6442110Y-16598674D01*
X6442110Y-16598674D02*
X6461158Y-16589150D01*
X6461158Y-16589150D02*
X6489729Y-16589150D01*
X6489729Y-16589150D02*
X6508777Y-16598674D01*
X6508777Y-16598674D02*
X6518301Y-16617722D01*
X6518301Y-16617722D02*
X6518301Y-16722484D01*
X6518301Y-16617722D02*
X6527824Y-16598674D01*
X6527824Y-16598674D02*
X6546872Y-16589150D01*
X6546872Y-16589150D02*
X6575443Y-16589150D01*
X6575443Y-16589150D02*
X6594491Y-16598674D01*
X6594491Y-16598674D02*
X6604015Y-16617722D01*
X6604015Y-16617722D02*
X6604015Y-16722484D01*
X6994491Y-16512960D02*
X6823063Y-16770103D01*
X7251634Y-16522484D02*
X7270682Y-16522484D01*
X7270682Y-16522484D02*
X7289729Y-16532008D01*
X7289729Y-16532008D02*
X7299253Y-16541531D01*
X7299253Y-16541531D02*
X7308777Y-16560579D01*
X7308777Y-16560579D02*
X7318301Y-16598674D01*
X7318301Y-16598674D02*
X7318301Y-16646293D01*
X7318301Y-16646293D02*
X7308777Y-16684388D01*
X7308777Y-16684388D02*
X7299253Y-16703436D01*
X7299253Y-16703436D02*
X7289729Y-16712960D01*
X7289729Y-16712960D02*
X7270682Y-16722484D01*
X7270682Y-16722484D02*
X7251634Y-16722484D01*
X7251634Y-16722484D02*
X7232586Y-16712960D01*
X7232586Y-16712960D02*
X7223063Y-16703436D01*
X7223063Y-16703436D02*
X7213539Y-16684388D01*
X7213539Y-16684388D02*
X7204015Y-16646293D01*
X7204015Y-16646293D02*
X7204015Y-16598674D01*
X7204015Y-16598674D02*
X7213539Y-16560579D01*
X7213539Y-16560579D02*
X7223063Y-16541531D01*
X7223063Y-16541531D02*
X7232586Y-16532008D01*
X7232586Y-16532008D02*
X7251634Y-16522484D01*
X7404015Y-16703436D02*
X7413539Y-16712960D01*
X7413539Y-16712960D02*
X7404015Y-16722484D01*
X7404015Y-16722484D02*
X7394491Y-16712960D01*
X7394491Y-16712960D02*
X7404015Y-16703436D01*
X7404015Y-16703436D02*
X7404015Y-16722484D01*
X7537348Y-16522484D02*
X7556396Y-16522484D01*
X7556396Y-16522484D02*
X7575444Y-16532008D01*
X7575444Y-16532008D02*
X7584967Y-16541531D01*
X7584967Y-16541531D02*
X7594491Y-16560579D01*
X7594491Y-16560579D02*
X7604015Y-16598674D01*
X7604015Y-16598674D02*
X7604015Y-16646293D01*
X7604015Y-16646293D02*
X7594491Y-16684388D01*
X7594491Y-16684388D02*
X7584967Y-16703436D01*
X7584967Y-16703436D02*
X7575444Y-16712960D01*
X7575444Y-16712960D02*
X7556396Y-16722484D01*
X7556396Y-16722484D02*
X7537348Y-16722484D01*
X7537348Y-16722484D02*
X7518301Y-16712960D01*
X7518301Y-16712960D02*
X7508777Y-16703436D01*
X7508777Y-16703436D02*
X7499253Y-16684388D01*
X7499253Y-16684388D02*
X7489729Y-16646293D01*
X7489729Y-16646293D02*
X7489729Y-16598674D01*
X7489729Y-16598674D02*
X7499253Y-16560579D01*
X7499253Y-16560579D02*
X7508777Y-16541531D01*
X7508777Y-16541531D02*
X7518301Y-16532008D01*
X7518301Y-16532008D02*
X7537348Y-16522484D01*
X7670682Y-16522484D02*
X7794491Y-16522484D01*
X7794491Y-16522484D02*
X7727825Y-16598674D01*
X7727825Y-16598674D02*
X7756396Y-16598674D01*
X7756396Y-16598674D02*
X7775444Y-16608198D01*
X7775444Y-16608198D02*
X7784967Y-16617722D01*
X7784967Y-16617722D02*
X7794491Y-16636769D01*
X7794491Y-16636769D02*
X7794491Y-16684388D01*
X7794491Y-16684388D02*
X7784967Y-16703436D01*
X7784967Y-16703436D02*
X7775444Y-16712960D01*
X7775444Y-16712960D02*
X7756396Y-16722484D01*
X7756396Y-16722484D02*
X7699253Y-16722484D01*
X7699253Y-16722484D02*
X7680206Y-16712960D01*
X7680206Y-16712960D02*
X7670682Y-16703436D01*
X7975444Y-16522484D02*
X7880206Y-16522484D01*
X7880206Y-16522484D02*
X7870682Y-16617722D01*
X7870682Y-16617722D02*
X7880206Y-16608198D01*
X7880206Y-16608198D02*
X7899253Y-16598674D01*
X7899253Y-16598674D02*
X7946872Y-16598674D01*
X7946872Y-16598674D02*
X7965920Y-16608198D01*
X7965920Y-16608198D02*
X7975444Y-16617722D01*
X7975444Y-16617722D02*
X7984967Y-16636769D01*
X7984967Y-16636769D02*
X7984967Y-16684388D01*
X7984967Y-16684388D02*
X7975444Y-16703436D01*
X7975444Y-16703436D02*
X7965920Y-16712960D01*
X7965920Y-16712960D02*
X7946872Y-16722484D01*
X7946872Y-16722484D02*
X7899253Y-16722484D01*
X7899253Y-16722484D02*
X7880206Y-16712960D01*
X7880206Y-16712960D02*
X7870682Y-16703436D01*
X8156396Y-16589150D02*
X8156396Y-16722484D01*
X8108777Y-16512960D02*
X8061158Y-16655817D01*
X8061158Y-16655817D02*
X8184967Y-16655817D01*
X8251634Y-16522484D02*
X8251634Y-16560579D01*
X8327825Y-16522484D02*
X8327825Y-16560579D01*
X8623063Y-16798674D02*
X8613539Y-16789150D01*
X8613539Y-16789150D02*
X8594491Y-16760579D01*
X8594491Y-16760579D02*
X8584968Y-16741531D01*
X8584968Y-16741531D02*
X8575444Y-16712960D01*
X8575444Y-16712960D02*
X8565920Y-16665341D01*
X8565920Y-16665341D02*
X8565920Y-16627246D01*
X8565920Y-16627246D02*
X8575444Y-16579627D01*
X8575444Y-16579627D02*
X8584968Y-16551055D01*
X8584968Y-16551055D02*
X8594491Y-16532008D01*
X8594491Y-16532008D02*
X8613539Y-16503436D01*
X8613539Y-16503436D02*
X8623063Y-16493912D01*
X8784968Y-16589150D02*
X8784968Y-16722484D01*
X8737349Y-16512960D02*
X8689730Y-16655817D01*
X8689730Y-16655817D02*
X8813539Y-16655817D01*
X9042111Y-16722484D02*
X9042111Y-16522484D01*
X9127825Y-16722484D02*
X9127825Y-16617722D01*
X9127825Y-16617722D02*
X9118301Y-16598674D01*
X9118301Y-16598674D02*
X9099253Y-16589150D01*
X9099253Y-16589150D02*
X9070682Y-16589150D01*
X9070682Y-16589150D02*
X9051634Y-16598674D01*
X9051634Y-16598674D02*
X9042111Y-16608198D01*
X9251634Y-16722484D02*
X9232587Y-16712960D01*
X9232587Y-16712960D02*
X9223063Y-16703436D01*
X9223063Y-16703436D02*
X9213539Y-16684388D01*
X9213539Y-16684388D02*
X9213539Y-16627246D01*
X9213539Y-16627246D02*
X9223063Y-16608198D01*
X9223063Y-16608198D02*
X9232587Y-16598674D01*
X9232587Y-16598674D02*
X9251634Y-16589150D01*
X9251634Y-16589150D02*
X9280206Y-16589150D01*
X9280206Y-16589150D02*
X9299253Y-16598674D01*
X9299253Y-16598674D02*
X9308777Y-16608198D01*
X9308777Y-16608198D02*
X9318301Y-16627246D01*
X9318301Y-16627246D02*
X9318301Y-16684388D01*
X9318301Y-16684388D02*
X9308777Y-16703436D01*
X9308777Y-16703436D02*
X9299253Y-16712960D01*
X9299253Y-16712960D02*
X9280206Y-16722484D01*
X9280206Y-16722484D02*
X9251634Y-16722484D01*
X9432587Y-16722484D02*
X9413539Y-16712960D01*
X9413539Y-16712960D02*
X9404015Y-16693912D01*
X9404015Y-16693912D02*
X9404015Y-16522484D01*
X9584968Y-16712960D02*
X9565920Y-16722484D01*
X9565920Y-16722484D02*
X9527825Y-16722484D01*
X9527825Y-16722484D02*
X9508777Y-16712960D01*
X9508777Y-16712960D02*
X9499253Y-16693912D01*
X9499253Y-16693912D02*
X9499253Y-16617722D01*
X9499253Y-16617722D02*
X9508777Y-16598674D01*
X9508777Y-16598674D02*
X9527825Y-16589150D01*
X9527825Y-16589150D02*
X9565920Y-16589150D01*
X9565920Y-16589150D02*
X9584968Y-16598674D01*
X9584968Y-16598674D02*
X9594492Y-16617722D01*
X9594492Y-16617722D02*
X9594492Y-16636769D01*
X9594492Y-16636769D02*
X9499253Y-16655817D01*
X9670682Y-16712960D02*
X9689730Y-16722484D01*
X9689730Y-16722484D02*
X9727825Y-16722484D01*
X9727825Y-16722484D02*
X9746873Y-16712960D01*
X9746873Y-16712960D02*
X9756396Y-16693912D01*
X9756396Y-16693912D02*
X9756396Y-16684388D01*
X9756396Y-16684388D02*
X9746873Y-16665341D01*
X9746873Y-16665341D02*
X9727825Y-16655817D01*
X9727825Y-16655817D02*
X9699253Y-16655817D01*
X9699253Y-16655817D02*
X9680206Y-16646293D01*
X9680206Y-16646293D02*
X9670682Y-16627246D01*
X9670682Y-16627246D02*
X9670682Y-16617722D01*
X9670682Y-16617722D02*
X9680206Y-16598674D01*
X9680206Y-16598674D02*
X9699253Y-16589150D01*
X9699253Y-16589150D02*
X9727825Y-16589150D01*
X9727825Y-16589150D02*
X9746873Y-16598674D01*
X9823063Y-16798674D02*
X9832587Y-16789150D01*
X9832587Y-16789150D02*
X9851634Y-16760579D01*
X9851634Y-16760579D02*
X9861158Y-16741531D01*
X9861158Y-16741531D02*
X9870682Y-16712960D01*
X9870682Y-16712960D02*
X9880206Y-16665341D01*
X9880206Y-16665341D02*
X9880206Y-16627246D01*
X9880206Y-16627246D02*
X9870682Y-16579627D01*
X9870682Y-16579627D02*
X9861158Y-16551055D01*
X9861158Y-16551055D02*
X9851634Y-16532008D01*
X9851634Y-16532008D02*
X9832587Y-16503436D01*
X9832587Y-16503436D02*
X9823063Y-16493912D01*
D12*
X4948000Y-16845000D02*
X5048000Y-16945000D01*
X5048000Y-16845000D02*
X4948000Y-16945000D01*
X5048000Y-16895000D02*
G75*
G02*
X4948000Y-16895000I-50000J0D01*
G01*
X4948000Y-16895000D02*
G75*
G02*
X5048000Y-16895000I50000J0D01*
G01*
D10*
X5413539Y-16986484D02*
X5299253Y-16986484D01*
X5356396Y-16986484D02*
X5356396Y-16786484D01*
X5356396Y-16786484D02*
X5337348Y-16815055D01*
X5337348Y-16815055D02*
X5318301Y-16834103D01*
X5318301Y-16834103D02*
X5299253Y-16843627D01*
X5499253Y-16967436D02*
X5508777Y-16976960D01*
X5508777Y-16976960D02*
X5499253Y-16986484D01*
X5499253Y-16986484D02*
X5489729Y-16976960D01*
X5489729Y-16976960D02*
X5499253Y-16967436D01*
X5499253Y-16967436D02*
X5499253Y-16986484D01*
X5632586Y-16786484D02*
X5651634Y-16786484D01*
X5651634Y-16786484D02*
X5670682Y-16796008D01*
X5670682Y-16796008D02*
X5680205Y-16805531D01*
X5680205Y-16805531D02*
X5689729Y-16824579D01*
X5689729Y-16824579D02*
X5699253Y-16862674D01*
X5699253Y-16862674D02*
X5699253Y-16910293D01*
X5699253Y-16910293D02*
X5689729Y-16948389D01*
X5689729Y-16948389D02*
X5680205Y-16967436D01*
X5680205Y-16967436D02*
X5670682Y-16976960D01*
X5670682Y-16976960D02*
X5651634Y-16986484D01*
X5651634Y-16986484D02*
X5632586Y-16986484D01*
X5632586Y-16986484D02*
X5613539Y-16976960D01*
X5613539Y-16976960D02*
X5604015Y-16967436D01*
X5604015Y-16967436D02*
X5594491Y-16948389D01*
X5594491Y-16948389D02*
X5584967Y-16910293D01*
X5584967Y-16910293D02*
X5584967Y-16862674D01*
X5584967Y-16862674D02*
X5594491Y-16824579D01*
X5594491Y-16824579D02*
X5604015Y-16805531D01*
X5604015Y-16805531D02*
X5613539Y-16796008D01*
X5613539Y-16796008D02*
X5632586Y-16786484D01*
X5823062Y-16786484D02*
X5842110Y-16786484D01*
X5842110Y-16786484D02*
X5861158Y-16796008D01*
X5861158Y-16796008D02*
X5870682Y-16805531D01*
X5870682Y-16805531D02*
X5880205Y-16824579D01*
X5880205Y-16824579D02*
X5889729Y-16862674D01*
X5889729Y-16862674D02*
X5889729Y-16910293D01*
X5889729Y-16910293D02*
X5880205Y-16948389D01*
X5880205Y-16948389D02*
X5870682Y-16967436D01*
X5870682Y-16967436D02*
X5861158Y-16976960D01*
X5861158Y-16976960D02*
X5842110Y-16986484D01*
X5842110Y-16986484D02*
X5823062Y-16986484D01*
X5823062Y-16986484D02*
X5804015Y-16976960D01*
X5804015Y-16976960D02*
X5794491Y-16967436D01*
X5794491Y-16967436D02*
X5784967Y-16948389D01*
X5784967Y-16948389D02*
X5775443Y-16910293D01*
X5775443Y-16910293D02*
X5775443Y-16862674D01*
X5775443Y-16862674D02*
X5784967Y-16824579D01*
X5784967Y-16824579D02*
X5794491Y-16805531D01*
X5794491Y-16805531D02*
X5804015Y-16796008D01*
X5804015Y-16796008D02*
X5823062Y-16786484D01*
X6013539Y-16786484D02*
X6032586Y-16786484D01*
X6032586Y-16786484D02*
X6051634Y-16796008D01*
X6051634Y-16796008D02*
X6061158Y-16805531D01*
X6061158Y-16805531D02*
X6070682Y-16824579D01*
X6070682Y-16824579D02*
X6080205Y-16862674D01*
X6080205Y-16862674D02*
X6080205Y-16910293D01*
X6080205Y-16910293D02*
X6070682Y-16948389D01*
X6070682Y-16948389D02*
X6061158Y-16967436D01*
X6061158Y-16967436D02*
X6051634Y-16976960D01*
X6051634Y-16976960D02*
X6032586Y-16986484D01*
X6032586Y-16986484D02*
X6013539Y-16986484D01*
X6013539Y-16986484D02*
X5994491Y-16976960D01*
X5994491Y-16976960D02*
X5984967Y-16967436D01*
X5984967Y-16967436D02*
X5975443Y-16948389D01*
X5975443Y-16948389D02*
X5965920Y-16910293D01*
X5965920Y-16910293D02*
X5965920Y-16862674D01*
X5965920Y-16862674D02*
X5975443Y-16824579D01*
X5975443Y-16824579D02*
X5984967Y-16805531D01*
X5984967Y-16805531D02*
X5994491Y-16796008D01*
X5994491Y-16796008D02*
X6013539Y-16786484D01*
X6165920Y-16986484D02*
X6165920Y-16853150D01*
X6165920Y-16872198D02*
X6175443Y-16862674D01*
X6175443Y-16862674D02*
X6194491Y-16853150D01*
X6194491Y-16853150D02*
X6223063Y-16853150D01*
X6223063Y-16853150D02*
X6242110Y-16862674D01*
X6242110Y-16862674D02*
X6251634Y-16881722D01*
X6251634Y-16881722D02*
X6251634Y-16986484D01*
X6251634Y-16881722D02*
X6261158Y-16862674D01*
X6261158Y-16862674D02*
X6280205Y-16853150D01*
X6280205Y-16853150D02*
X6308777Y-16853150D01*
X6308777Y-16853150D02*
X6327824Y-16862674D01*
X6327824Y-16862674D02*
X6337348Y-16881722D01*
X6337348Y-16881722D02*
X6337348Y-16986484D01*
X6432586Y-16986484D02*
X6432586Y-16853150D01*
X6432586Y-16872198D02*
X6442110Y-16862674D01*
X6442110Y-16862674D02*
X6461158Y-16853150D01*
X6461158Y-16853150D02*
X6489729Y-16853150D01*
X6489729Y-16853150D02*
X6508777Y-16862674D01*
X6508777Y-16862674D02*
X6518301Y-16881722D01*
X6518301Y-16881722D02*
X6518301Y-16986484D01*
X6518301Y-16881722D02*
X6527824Y-16862674D01*
X6527824Y-16862674D02*
X6546872Y-16853150D01*
X6546872Y-16853150D02*
X6575443Y-16853150D01*
X6575443Y-16853150D02*
X6594491Y-16862674D01*
X6594491Y-16862674D02*
X6604015Y-16881722D01*
X6604015Y-16881722D02*
X6604015Y-16986484D01*
X6994491Y-16776960D02*
X6823063Y-17034103D01*
X7251634Y-16786484D02*
X7270682Y-16786484D01*
X7270682Y-16786484D02*
X7289729Y-16796008D01*
X7289729Y-16796008D02*
X7299253Y-16805531D01*
X7299253Y-16805531D02*
X7308777Y-16824579D01*
X7308777Y-16824579D02*
X7318301Y-16862674D01*
X7318301Y-16862674D02*
X7318301Y-16910293D01*
X7318301Y-16910293D02*
X7308777Y-16948389D01*
X7308777Y-16948389D02*
X7299253Y-16967436D01*
X7299253Y-16967436D02*
X7289729Y-16976960D01*
X7289729Y-16976960D02*
X7270682Y-16986484D01*
X7270682Y-16986484D02*
X7251634Y-16986484D01*
X7251634Y-16986484D02*
X7232586Y-16976960D01*
X7232586Y-16976960D02*
X7223063Y-16967436D01*
X7223063Y-16967436D02*
X7213539Y-16948389D01*
X7213539Y-16948389D02*
X7204015Y-16910293D01*
X7204015Y-16910293D02*
X7204015Y-16862674D01*
X7204015Y-16862674D02*
X7213539Y-16824579D01*
X7213539Y-16824579D02*
X7223063Y-16805531D01*
X7223063Y-16805531D02*
X7232586Y-16796008D01*
X7232586Y-16796008D02*
X7251634Y-16786484D01*
X7404015Y-16967436D02*
X7413539Y-16976960D01*
X7413539Y-16976960D02*
X7404015Y-16986484D01*
X7404015Y-16986484D02*
X7394491Y-16976960D01*
X7394491Y-16976960D02*
X7404015Y-16967436D01*
X7404015Y-16967436D02*
X7404015Y-16986484D01*
X7537348Y-16786484D02*
X7556396Y-16786484D01*
X7556396Y-16786484D02*
X7575444Y-16796008D01*
X7575444Y-16796008D02*
X7584967Y-16805531D01*
X7584967Y-16805531D02*
X7594491Y-16824579D01*
X7594491Y-16824579D02*
X7604015Y-16862674D01*
X7604015Y-16862674D02*
X7604015Y-16910293D01*
X7604015Y-16910293D02*
X7594491Y-16948389D01*
X7594491Y-16948389D02*
X7584967Y-16967436D01*
X7584967Y-16967436D02*
X7575444Y-16976960D01*
X7575444Y-16976960D02*
X7556396Y-16986484D01*
X7556396Y-16986484D02*
X7537348Y-16986484D01*
X7537348Y-16986484D02*
X7518301Y-16976960D01*
X7518301Y-16976960D02*
X7508777Y-16967436D01*
X7508777Y-16967436D02*
X7499253Y-16948389D01*
X7499253Y-16948389D02*
X7489729Y-16910293D01*
X7489729Y-16910293D02*
X7489729Y-16862674D01*
X7489729Y-16862674D02*
X7499253Y-16824579D01*
X7499253Y-16824579D02*
X7508777Y-16805531D01*
X7508777Y-16805531D02*
X7518301Y-16796008D01*
X7518301Y-16796008D02*
X7537348Y-16786484D01*
X7670682Y-16786484D02*
X7794491Y-16786484D01*
X7794491Y-16786484D02*
X7727825Y-16862674D01*
X7727825Y-16862674D02*
X7756396Y-16862674D01*
X7756396Y-16862674D02*
X7775444Y-16872198D01*
X7775444Y-16872198D02*
X7784967Y-16881722D01*
X7784967Y-16881722D02*
X7794491Y-16900770D01*
X7794491Y-16900770D02*
X7794491Y-16948389D01*
X7794491Y-16948389D02*
X7784967Y-16967436D01*
X7784967Y-16967436D02*
X7775444Y-16976960D01*
X7775444Y-16976960D02*
X7756396Y-16986484D01*
X7756396Y-16986484D02*
X7699253Y-16986484D01*
X7699253Y-16986484D02*
X7680206Y-16976960D01*
X7680206Y-16976960D02*
X7670682Y-16967436D01*
X7889729Y-16986484D02*
X7927825Y-16986484D01*
X7927825Y-16986484D02*
X7946872Y-16976960D01*
X7946872Y-16976960D02*
X7956396Y-16967436D01*
X7956396Y-16967436D02*
X7975444Y-16938865D01*
X7975444Y-16938865D02*
X7984967Y-16900770D01*
X7984967Y-16900770D02*
X7984967Y-16824579D01*
X7984967Y-16824579D02*
X7975444Y-16805531D01*
X7975444Y-16805531D02*
X7965920Y-16796008D01*
X7965920Y-16796008D02*
X7946872Y-16786484D01*
X7946872Y-16786484D02*
X7908777Y-16786484D01*
X7908777Y-16786484D02*
X7889729Y-16796008D01*
X7889729Y-16796008D02*
X7880206Y-16805531D01*
X7880206Y-16805531D02*
X7870682Y-16824579D01*
X7870682Y-16824579D02*
X7870682Y-16872198D01*
X7870682Y-16872198D02*
X7880206Y-16891246D01*
X7880206Y-16891246D02*
X7889729Y-16900770D01*
X7889729Y-16900770D02*
X7908777Y-16910293D01*
X7908777Y-16910293D02*
X7946872Y-16910293D01*
X7946872Y-16910293D02*
X7965920Y-16900770D01*
X7965920Y-16900770D02*
X7975444Y-16891246D01*
X7975444Y-16891246D02*
X7984967Y-16872198D01*
X8156396Y-16853150D02*
X8156396Y-16986484D01*
X8108777Y-16776960D02*
X8061158Y-16919817D01*
X8061158Y-16919817D02*
X8184967Y-16919817D01*
X8251634Y-16786484D02*
X8251634Y-16824579D01*
X8327825Y-16786484D02*
X8327825Y-16824579D01*
X8623063Y-17062674D02*
X8613539Y-17053150D01*
X8613539Y-17053150D02*
X8594491Y-17024579D01*
X8594491Y-17024579D02*
X8584968Y-17005531D01*
X8584968Y-17005531D02*
X8575444Y-16976960D01*
X8575444Y-16976960D02*
X8565920Y-16929341D01*
X8565920Y-16929341D02*
X8565920Y-16891246D01*
X8565920Y-16891246D02*
X8575444Y-16843627D01*
X8575444Y-16843627D02*
X8584968Y-16815055D01*
X8584968Y-16815055D02*
X8594491Y-16796008D01*
X8594491Y-16796008D02*
X8613539Y-16767436D01*
X8613539Y-16767436D02*
X8623063Y-16757912D01*
X8680206Y-16786484D02*
X8804015Y-16786484D01*
X8804015Y-16786484D02*
X8737349Y-16862674D01*
X8737349Y-16862674D02*
X8765920Y-16862674D01*
X8765920Y-16862674D02*
X8784968Y-16872198D01*
X8784968Y-16872198D02*
X8794491Y-16881722D01*
X8794491Y-16881722D02*
X8804015Y-16900770D01*
X8804015Y-16900770D02*
X8804015Y-16948389D01*
X8804015Y-16948389D02*
X8794491Y-16967436D01*
X8794491Y-16967436D02*
X8784968Y-16976960D01*
X8784968Y-16976960D02*
X8765920Y-16986484D01*
X8765920Y-16986484D02*
X8708777Y-16986484D01*
X8708777Y-16986484D02*
X8689730Y-16976960D01*
X8689730Y-16976960D02*
X8680206Y-16967436D01*
X8927825Y-16786484D02*
X8946872Y-16786484D01*
X8946872Y-16786484D02*
X8965920Y-16796008D01*
X8965920Y-16796008D02*
X8975444Y-16805531D01*
X8975444Y-16805531D02*
X8984968Y-16824579D01*
X8984968Y-16824579D02*
X8994491Y-16862674D01*
X8994491Y-16862674D02*
X8994491Y-16910293D01*
X8994491Y-16910293D02*
X8984968Y-16948389D01*
X8984968Y-16948389D02*
X8975444Y-16967436D01*
X8975444Y-16967436D02*
X8965920Y-16976960D01*
X8965920Y-16976960D02*
X8946872Y-16986484D01*
X8946872Y-16986484D02*
X8927825Y-16986484D01*
X8927825Y-16986484D02*
X8908777Y-16976960D01*
X8908777Y-16976960D02*
X8899253Y-16967436D01*
X8899253Y-16967436D02*
X8889730Y-16948389D01*
X8889730Y-16948389D02*
X8880206Y-16910293D01*
X8880206Y-16910293D02*
X8880206Y-16862674D01*
X8880206Y-16862674D02*
X8889730Y-16824579D01*
X8889730Y-16824579D02*
X8899253Y-16805531D01*
X8899253Y-16805531D02*
X8908777Y-16796008D01*
X8908777Y-16796008D02*
X8927825Y-16786484D01*
X9232587Y-16986484D02*
X9232587Y-16786484D01*
X9318301Y-16986484D02*
X9318301Y-16881722D01*
X9318301Y-16881722D02*
X9308777Y-16862674D01*
X9308777Y-16862674D02*
X9289730Y-16853150D01*
X9289730Y-16853150D02*
X9261158Y-16853150D01*
X9261158Y-16853150D02*
X9242111Y-16862674D01*
X9242111Y-16862674D02*
X9232587Y-16872198D01*
X9442111Y-16986484D02*
X9423063Y-16976960D01*
X9423063Y-16976960D02*
X9413539Y-16967436D01*
X9413539Y-16967436D02*
X9404015Y-16948389D01*
X9404015Y-16948389D02*
X9404015Y-16891246D01*
X9404015Y-16891246D02*
X9413539Y-16872198D01*
X9413539Y-16872198D02*
X9423063Y-16862674D01*
X9423063Y-16862674D02*
X9442111Y-16853150D01*
X9442111Y-16853150D02*
X9470682Y-16853150D01*
X9470682Y-16853150D02*
X9489730Y-16862674D01*
X9489730Y-16862674D02*
X9499253Y-16872198D01*
X9499253Y-16872198D02*
X9508777Y-16891246D01*
X9508777Y-16891246D02*
X9508777Y-16948389D01*
X9508777Y-16948389D02*
X9499253Y-16967436D01*
X9499253Y-16967436D02*
X9489730Y-16976960D01*
X9489730Y-16976960D02*
X9470682Y-16986484D01*
X9470682Y-16986484D02*
X9442111Y-16986484D01*
X9623063Y-16986484D02*
X9604015Y-16976960D01*
X9604015Y-16976960D02*
X9594492Y-16957912D01*
X9594492Y-16957912D02*
X9594492Y-16786484D01*
X9775444Y-16976960D02*
X9756396Y-16986484D01*
X9756396Y-16986484D02*
X9718301Y-16986484D01*
X9718301Y-16986484D02*
X9699253Y-16976960D01*
X9699253Y-16976960D02*
X9689730Y-16957912D01*
X9689730Y-16957912D02*
X9689730Y-16881722D01*
X9689730Y-16881722D02*
X9699253Y-16862674D01*
X9699253Y-16862674D02*
X9718301Y-16853150D01*
X9718301Y-16853150D02*
X9756396Y-16853150D01*
X9756396Y-16853150D02*
X9775444Y-16862674D01*
X9775444Y-16862674D02*
X9784968Y-16881722D01*
X9784968Y-16881722D02*
X9784968Y-16900770D01*
X9784968Y-16900770D02*
X9689730Y-16919817D01*
X9861158Y-16976960D02*
X9880206Y-16986484D01*
X9880206Y-16986484D02*
X9918301Y-16986484D01*
X9918301Y-16986484D02*
X9937349Y-16976960D01*
X9937349Y-16976960D02*
X9946873Y-16957912D01*
X9946873Y-16957912D02*
X9946873Y-16948389D01*
X9946873Y-16948389D02*
X9937349Y-16929341D01*
X9937349Y-16929341D02*
X9918301Y-16919817D01*
X9918301Y-16919817D02*
X9889730Y-16919817D01*
X9889730Y-16919817D02*
X9870682Y-16910293D01*
X9870682Y-16910293D02*
X9861158Y-16891246D01*
X9861158Y-16891246D02*
X9861158Y-16881722D01*
X9861158Y-16881722D02*
X9870682Y-16862674D01*
X9870682Y-16862674D02*
X9889730Y-16853150D01*
X9889730Y-16853150D02*
X9918301Y-16853150D01*
X9918301Y-16853150D02*
X9937349Y-16862674D01*
X10184968Y-16910293D02*
X10337349Y-16910293D01*
X10261158Y-16986484D02*
X10261158Y-16834103D01*
X10680206Y-16786484D02*
X10584968Y-16786484D01*
X10584968Y-16786484D02*
X10575444Y-16881722D01*
X10575444Y-16881722D02*
X10584968Y-16872198D01*
X10584968Y-16872198D02*
X10604015Y-16862674D01*
X10604015Y-16862674D02*
X10651635Y-16862674D01*
X10651635Y-16862674D02*
X10670682Y-16872198D01*
X10670682Y-16872198D02*
X10680206Y-16881722D01*
X10680206Y-16881722D02*
X10689730Y-16900770D01*
X10689730Y-16900770D02*
X10689730Y-16948389D01*
X10689730Y-16948389D02*
X10680206Y-16967436D01*
X10680206Y-16967436D02*
X10670682Y-16976960D01*
X10670682Y-16976960D02*
X10651635Y-16986484D01*
X10651635Y-16986484D02*
X10604015Y-16986484D01*
X10604015Y-16986484D02*
X10584968Y-16976960D01*
X10584968Y-16976960D02*
X10575444Y-16967436D01*
X10918301Y-16976960D02*
X10937349Y-16986484D01*
X10937349Y-16986484D02*
X10975444Y-16986484D01*
X10975444Y-16986484D02*
X10994492Y-16976960D01*
X10994492Y-16976960D02*
X11004016Y-16957912D01*
X11004016Y-16957912D02*
X11004016Y-16948389D01*
X11004016Y-16948389D02*
X10994492Y-16929341D01*
X10994492Y-16929341D02*
X10975444Y-16919817D01*
X10975444Y-16919817D02*
X10946873Y-16919817D01*
X10946873Y-16919817D02*
X10927825Y-16910293D01*
X10927825Y-16910293D02*
X10918301Y-16891246D01*
X10918301Y-16891246D02*
X10918301Y-16881722D01*
X10918301Y-16881722D02*
X10927825Y-16862674D01*
X10927825Y-16862674D02*
X10946873Y-16853150D01*
X10946873Y-16853150D02*
X10975444Y-16853150D01*
X10975444Y-16853150D02*
X10994492Y-16862674D01*
X11118301Y-16986484D02*
X11099254Y-16976960D01*
X11099254Y-16976960D02*
X11089730Y-16957912D01*
X11089730Y-16957912D02*
X11089730Y-16786484D01*
X11223063Y-16986484D02*
X11204015Y-16976960D01*
X11204015Y-16976960D02*
X11194492Y-16967436D01*
X11194492Y-16967436D02*
X11184968Y-16948389D01*
X11184968Y-16948389D02*
X11184968Y-16891246D01*
X11184968Y-16891246D02*
X11194492Y-16872198D01*
X11194492Y-16872198D02*
X11204015Y-16862674D01*
X11204015Y-16862674D02*
X11223063Y-16853150D01*
X11223063Y-16853150D02*
X11251635Y-16853150D01*
X11251635Y-16853150D02*
X11270682Y-16862674D01*
X11270682Y-16862674D02*
X11280206Y-16872198D01*
X11280206Y-16872198D02*
X11289730Y-16891246D01*
X11289730Y-16891246D02*
X11289730Y-16948389D01*
X11289730Y-16948389D02*
X11280206Y-16967436D01*
X11280206Y-16967436D02*
X11270682Y-16976960D01*
X11270682Y-16976960D02*
X11251635Y-16986484D01*
X11251635Y-16986484D02*
X11223063Y-16986484D01*
X11346873Y-16853150D02*
X11423063Y-16853150D01*
X11375444Y-16786484D02*
X11375444Y-16957912D01*
X11375444Y-16957912D02*
X11384968Y-16976960D01*
X11384968Y-16976960D02*
X11404015Y-16986484D01*
X11404015Y-16986484D02*
X11423063Y-16986484D01*
X11480206Y-16976960D02*
X11499254Y-16986484D01*
X11499254Y-16986484D02*
X11537349Y-16986484D01*
X11537349Y-16986484D02*
X11556396Y-16976960D01*
X11556396Y-16976960D02*
X11565920Y-16957912D01*
X11565920Y-16957912D02*
X11565920Y-16948389D01*
X11565920Y-16948389D02*
X11556396Y-16929341D01*
X11556396Y-16929341D02*
X11537349Y-16919817D01*
X11537349Y-16919817D02*
X11508777Y-16919817D01*
X11508777Y-16919817D02*
X11489730Y-16910293D01*
X11489730Y-16910293D02*
X11480206Y-16891246D01*
X11480206Y-16891246D02*
X11480206Y-16881722D01*
X11480206Y-16881722D02*
X11489730Y-16862674D01*
X11489730Y-16862674D02*
X11508777Y-16853150D01*
X11508777Y-16853150D02*
X11537349Y-16853150D01*
X11537349Y-16853150D02*
X11556396Y-16862674D01*
X11632587Y-17062674D02*
X11642111Y-17053150D01*
X11642111Y-17053150D02*
X11661158Y-17024579D01*
X11661158Y-17024579D02*
X11670682Y-17005531D01*
X11670682Y-17005531D02*
X11680206Y-16976960D01*
X11680206Y-16976960D02*
X11689730Y-16929341D01*
X11689730Y-16929341D02*
X11689730Y-16891246D01*
X11689730Y-16891246D02*
X11680206Y-16843627D01*
X11680206Y-16843627D02*
X11670682Y-16815055D01*
X11670682Y-16815055D02*
X11661158Y-16796008D01*
X11661158Y-16796008D02*
X11642111Y-16767436D01*
X11642111Y-16767436D02*
X11632587Y-16757912D01*
D13*
X4947000Y-17108500D02*
X5048000Y-17209500D01*
X5048000Y-17108500D02*
X4947000Y-17209500D01*
X4997500Y-17108500D02*
X4997500Y-17209500D01*
X4947000Y-17159000D02*
X5048000Y-17159000D01*
D10*
X5413539Y-17250484D02*
X5299253Y-17250484D01*
X5356396Y-17250484D02*
X5356396Y-17050484D01*
X5356396Y-17050484D02*
X5337348Y-17079055D01*
X5337348Y-17079055D02*
X5318301Y-17098103D01*
X5318301Y-17098103D02*
X5299253Y-17107627D01*
X5499253Y-17231436D02*
X5508777Y-17240960D01*
X5508777Y-17240960D02*
X5499253Y-17250484D01*
X5499253Y-17250484D02*
X5489729Y-17240960D01*
X5489729Y-17240960D02*
X5499253Y-17231436D01*
X5499253Y-17231436D02*
X5499253Y-17250484D01*
X5632586Y-17050484D02*
X5651634Y-17050484D01*
X5651634Y-17050484D02*
X5670682Y-17060008D01*
X5670682Y-17060008D02*
X5680205Y-17069531D01*
X5680205Y-17069531D02*
X5689729Y-17088579D01*
X5689729Y-17088579D02*
X5699253Y-17126674D01*
X5699253Y-17126674D02*
X5699253Y-17174293D01*
X5699253Y-17174293D02*
X5689729Y-17212389D01*
X5689729Y-17212389D02*
X5680205Y-17231436D01*
X5680205Y-17231436D02*
X5670682Y-17240960D01*
X5670682Y-17240960D02*
X5651634Y-17250484D01*
X5651634Y-17250484D02*
X5632586Y-17250484D01*
X5632586Y-17250484D02*
X5613539Y-17240960D01*
X5613539Y-17240960D02*
X5604015Y-17231436D01*
X5604015Y-17231436D02*
X5594491Y-17212389D01*
X5594491Y-17212389D02*
X5584967Y-17174293D01*
X5584967Y-17174293D02*
X5584967Y-17126674D01*
X5584967Y-17126674D02*
X5594491Y-17088579D01*
X5594491Y-17088579D02*
X5604015Y-17069531D01*
X5604015Y-17069531D02*
X5613539Y-17060008D01*
X5613539Y-17060008D02*
X5632586Y-17050484D01*
X5889729Y-17250484D02*
X5775443Y-17250484D01*
X5832586Y-17250484D02*
X5832586Y-17050484D01*
X5832586Y-17050484D02*
X5813539Y-17079055D01*
X5813539Y-17079055D02*
X5794491Y-17098103D01*
X5794491Y-17098103D02*
X5775443Y-17107627D01*
X6013539Y-17050484D02*
X6032586Y-17050484D01*
X6032586Y-17050484D02*
X6051634Y-17060008D01*
X6051634Y-17060008D02*
X6061158Y-17069531D01*
X6061158Y-17069531D02*
X6070682Y-17088579D01*
X6070682Y-17088579D02*
X6080205Y-17126674D01*
X6080205Y-17126674D02*
X6080205Y-17174293D01*
X6080205Y-17174293D02*
X6070682Y-17212389D01*
X6070682Y-17212389D02*
X6061158Y-17231436D01*
X6061158Y-17231436D02*
X6051634Y-17240960D01*
X6051634Y-17240960D02*
X6032586Y-17250484D01*
X6032586Y-17250484D02*
X6013539Y-17250484D01*
X6013539Y-17250484D02*
X5994491Y-17240960D01*
X5994491Y-17240960D02*
X5984967Y-17231436D01*
X5984967Y-17231436D02*
X5975443Y-17212389D01*
X5975443Y-17212389D02*
X5965920Y-17174293D01*
X5965920Y-17174293D02*
X5965920Y-17126674D01*
X5965920Y-17126674D02*
X5975443Y-17088579D01*
X5975443Y-17088579D02*
X5984967Y-17069531D01*
X5984967Y-17069531D02*
X5994491Y-17060008D01*
X5994491Y-17060008D02*
X6013539Y-17050484D01*
X6165920Y-17250484D02*
X6165920Y-17117150D01*
X6165920Y-17136198D02*
X6175443Y-17126674D01*
X6175443Y-17126674D02*
X6194491Y-17117150D01*
X6194491Y-17117150D02*
X6223063Y-17117150D01*
X6223063Y-17117150D02*
X6242110Y-17126674D01*
X6242110Y-17126674D02*
X6251634Y-17145722D01*
X6251634Y-17145722D02*
X6251634Y-17250484D01*
X6251634Y-17145722D02*
X6261158Y-17126674D01*
X6261158Y-17126674D02*
X6280205Y-17117150D01*
X6280205Y-17117150D02*
X6308777Y-17117150D01*
X6308777Y-17117150D02*
X6327824Y-17126674D01*
X6327824Y-17126674D02*
X6337348Y-17145722D01*
X6337348Y-17145722D02*
X6337348Y-17250484D01*
X6432586Y-17250484D02*
X6432586Y-17117150D01*
X6432586Y-17136198D02*
X6442110Y-17126674D01*
X6442110Y-17126674D02*
X6461158Y-17117150D01*
X6461158Y-17117150D02*
X6489729Y-17117150D01*
X6489729Y-17117150D02*
X6508777Y-17126674D01*
X6508777Y-17126674D02*
X6518301Y-17145722D01*
X6518301Y-17145722D02*
X6518301Y-17250484D01*
X6518301Y-17145722D02*
X6527824Y-17126674D01*
X6527824Y-17126674D02*
X6546872Y-17117150D01*
X6546872Y-17117150D02*
X6575443Y-17117150D01*
X6575443Y-17117150D02*
X6594491Y-17126674D01*
X6594491Y-17126674D02*
X6604015Y-17145722D01*
X6604015Y-17145722D02*
X6604015Y-17250484D01*
X6994491Y-17040960D02*
X6823063Y-17298103D01*
X7251634Y-17050484D02*
X7270682Y-17050484D01*
X7270682Y-17050484D02*
X7289729Y-17060008D01*
X7289729Y-17060008D02*
X7299253Y-17069531D01*
X7299253Y-17069531D02*
X7308777Y-17088579D01*
X7308777Y-17088579D02*
X7318301Y-17126674D01*
X7318301Y-17126674D02*
X7318301Y-17174293D01*
X7318301Y-17174293D02*
X7308777Y-17212389D01*
X7308777Y-17212389D02*
X7299253Y-17231436D01*
X7299253Y-17231436D02*
X7289729Y-17240960D01*
X7289729Y-17240960D02*
X7270682Y-17250484D01*
X7270682Y-17250484D02*
X7251634Y-17250484D01*
X7251634Y-17250484D02*
X7232586Y-17240960D01*
X7232586Y-17240960D02*
X7223063Y-17231436D01*
X7223063Y-17231436D02*
X7213539Y-17212389D01*
X7213539Y-17212389D02*
X7204015Y-17174293D01*
X7204015Y-17174293D02*
X7204015Y-17126674D01*
X7204015Y-17126674D02*
X7213539Y-17088579D01*
X7213539Y-17088579D02*
X7223063Y-17069531D01*
X7223063Y-17069531D02*
X7232586Y-17060008D01*
X7232586Y-17060008D02*
X7251634Y-17050484D01*
X7404015Y-17231436D02*
X7413539Y-17240960D01*
X7413539Y-17240960D02*
X7404015Y-17250484D01*
X7404015Y-17250484D02*
X7394491Y-17240960D01*
X7394491Y-17240960D02*
X7404015Y-17231436D01*
X7404015Y-17231436D02*
X7404015Y-17250484D01*
X7537348Y-17050484D02*
X7556396Y-17050484D01*
X7556396Y-17050484D02*
X7575444Y-17060008D01*
X7575444Y-17060008D02*
X7584967Y-17069531D01*
X7584967Y-17069531D02*
X7594491Y-17088579D01*
X7594491Y-17088579D02*
X7604015Y-17126674D01*
X7604015Y-17126674D02*
X7604015Y-17174293D01*
X7604015Y-17174293D02*
X7594491Y-17212389D01*
X7594491Y-17212389D02*
X7584967Y-17231436D01*
X7584967Y-17231436D02*
X7575444Y-17240960D01*
X7575444Y-17240960D02*
X7556396Y-17250484D01*
X7556396Y-17250484D02*
X7537348Y-17250484D01*
X7537348Y-17250484D02*
X7518301Y-17240960D01*
X7518301Y-17240960D02*
X7508777Y-17231436D01*
X7508777Y-17231436D02*
X7499253Y-17212389D01*
X7499253Y-17212389D02*
X7489729Y-17174293D01*
X7489729Y-17174293D02*
X7489729Y-17126674D01*
X7489729Y-17126674D02*
X7499253Y-17088579D01*
X7499253Y-17088579D02*
X7508777Y-17069531D01*
X7508777Y-17069531D02*
X7518301Y-17060008D01*
X7518301Y-17060008D02*
X7537348Y-17050484D01*
X7670682Y-17050484D02*
X7794491Y-17050484D01*
X7794491Y-17050484D02*
X7727825Y-17126674D01*
X7727825Y-17126674D02*
X7756396Y-17126674D01*
X7756396Y-17126674D02*
X7775444Y-17136198D01*
X7775444Y-17136198D02*
X7784967Y-17145722D01*
X7784967Y-17145722D02*
X7794491Y-17164770D01*
X7794491Y-17164770D02*
X7794491Y-17212389D01*
X7794491Y-17212389D02*
X7784967Y-17231436D01*
X7784967Y-17231436D02*
X7775444Y-17240960D01*
X7775444Y-17240960D02*
X7756396Y-17250484D01*
X7756396Y-17250484D02*
X7699253Y-17250484D01*
X7699253Y-17250484D02*
X7680206Y-17240960D01*
X7680206Y-17240960D02*
X7670682Y-17231436D01*
X7889729Y-17250484D02*
X7927825Y-17250484D01*
X7927825Y-17250484D02*
X7946872Y-17240960D01*
X7946872Y-17240960D02*
X7956396Y-17231436D01*
X7956396Y-17231436D02*
X7975444Y-17202865D01*
X7975444Y-17202865D02*
X7984967Y-17164770D01*
X7984967Y-17164770D02*
X7984967Y-17088579D01*
X7984967Y-17088579D02*
X7975444Y-17069531D01*
X7975444Y-17069531D02*
X7965920Y-17060008D01*
X7965920Y-17060008D02*
X7946872Y-17050484D01*
X7946872Y-17050484D02*
X7908777Y-17050484D01*
X7908777Y-17050484D02*
X7889729Y-17060008D01*
X7889729Y-17060008D02*
X7880206Y-17069531D01*
X7880206Y-17069531D02*
X7870682Y-17088579D01*
X7870682Y-17088579D02*
X7870682Y-17136198D01*
X7870682Y-17136198D02*
X7880206Y-17155246D01*
X7880206Y-17155246D02*
X7889729Y-17164770D01*
X7889729Y-17164770D02*
X7908777Y-17174293D01*
X7908777Y-17174293D02*
X7946872Y-17174293D01*
X7946872Y-17174293D02*
X7965920Y-17164770D01*
X7965920Y-17164770D02*
X7975444Y-17155246D01*
X7975444Y-17155246D02*
X7984967Y-17136198D01*
X8099253Y-17136198D02*
X8080206Y-17126674D01*
X8080206Y-17126674D02*
X8070682Y-17117150D01*
X8070682Y-17117150D02*
X8061158Y-17098103D01*
X8061158Y-17098103D02*
X8061158Y-17088579D01*
X8061158Y-17088579D02*
X8070682Y-17069531D01*
X8070682Y-17069531D02*
X8080206Y-17060008D01*
X8080206Y-17060008D02*
X8099253Y-17050484D01*
X8099253Y-17050484D02*
X8137348Y-17050484D01*
X8137348Y-17050484D02*
X8156396Y-17060008D01*
X8156396Y-17060008D02*
X8165920Y-17069531D01*
X8165920Y-17069531D02*
X8175444Y-17088579D01*
X8175444Y-17088579D02*
X8175444Y-17098103D01*
X8175444Y-17098103D02*
X8165920Y-17117150D01*
X8165920Y-17117150D02*
X8156396Y-17126674D01*
X8156396Y-17126674D02*
X8137348Y-17136198D01*
X8137348Y-17136198D02*
X8099253Y-17136198D01*
X8099253Y-17136198D02*
X8080206Y-17145722D01*
X8080206Y-17145722D02*
X8070682Y-17155246D01*
X8070682Y-17155246D02*
X8061158Y-17174293D01*
X8061158Y-17174293D02*
X8061158Y-17212389D01*
X8061158Y-17212389D02*
X8070682Y-17231436D01*
X8070682Y-17231436D02*
X8080206Y-17240960D01*
X8080206Y-17240960D02*
X8099253Y-17250484D01*
X8099253Y-17250484D02*
X8137348Y-17250484D01*
X8137348Y-17250484D02*
X8156396Y-17240960D01*
X8156396Y-17240960D02*
X8165920Y-17231436D01*
X8165920Y-17231436D02*
X8175444Y-17212389D01*
X8175444Y-17212389D02*
X8175444Y-17174293D01*
X8175444Y-17174293D02*
X8165920Y-17155246D01*
X8165920Y-17155246D02*
X8156396Y-17145722D01*
X8156396Y-17145722D02*
X8137348Y-17136198D01*
X8251634Y-17050484D02*
X8251634Y-17088579D01*
X8327825Y-17050484D02*
X8327825Y-17088579D01*
X8623063Y-17326674D02*
X8613539Y-17317150D01*
X8613539Y-17317150D02*
X8594491Y-17288579D01*
X8594491Y-17288579D02*
X8584968Y-17269531D01*
X8584968Y-17269531D02*
X8575444Y-17240960D01*
X8575444Y-17240960D02*
X8565920Y-17193341D01*
X8565920Y-17193341D02*
X8565920Y-17155246D01*
X8565920Y-17155246D02*
X8575444Y-17107627D01*
X8575444Y-17107627D02*
X8584968Y-17079055D01*
X8584968Y-17079055D02*
X8594491Y-17060008D01*
X8594491Y-17060008D02*
X8613539Y-17031436D01*
X8613539Y-17031436D02*
X8623063Y-17021912D01*
X8689730Y-17069531D02*
X8699253Y-17060008D01*
X8699253Y-17060008D02*
X8718301Y-17050484D01*
X8718301Y-17050484D02*
X8765920Y-17050484D01*
X8765920Y-17050484D02*
X8784968Y-17060008D01*
X8784968Y-17060008D02*
X8794491Y-17069531D01*
X8794491Y-17069531D02*
X8804015Y-17088579D01*
X8804015Y-17088579D02*
X8804015Y-17107627D01*
X8804015Y-17107627D02*
X8794491Y-17136198D01*
X8794491Y-17136198D02*
X8680206Y-17250484D01*
X8680206Y-17250484D02*
X8804015Y-17250484D01*
X9042111Y-17250484D02*
X9042111Y-17050484D01*
X9127825Y-17250484D02*
X9127825Y-17145722D01*
X9127825Y-17145722D02*
X9118301Y-17126674D01*
X9118301Y-17126674D02*
X9099253Y-17117150D01*
X9099253Y-17117150D02*
X9070682Y-17117150D01*
X9070682Y-17117150D02*
X9051634Y-17126674D01*
X9051634Y-17126674D02*
X9042111Y-17136198D01*
X9251634Y-17250484D02*
X9232587Y-17240960D01*
X9232587Y-17240960D02*
X9223063Y-17231436D01*
X9223063Y-17231436D02*
X9213539Y-17212389D01*
X9213539Y-17212389D02*
X9213539Y-17155246D01*
X9213539Y-17155246D02*
X9223063Y-17136198D01*
X9223063Y-17136198D02*
X9232587Y-17126674D01*
X9232587Y-17126674D02*
X9251634Y-17117150D01*
X9251634Y-17117150D02*
X9280206Y-17117150D01*
X9280206Y-17117150D02*
X9299253Y-17126674D01*
X9299253Y-17126674D02*
X9308777Y-17136198D01*
X9308777Y-17136198D02*
X9318301Y-17155246D01*
X9318301Y-17155246D02*
X9318301Y-17212389D01*
X9318301Y-17212389D02*
X9308777Y-17231436D01*
X9308777Y-17231436D02*
X9299253Y-17240960D01*
X9299253Y-17240960D02*
X9280206Y-17250484D01*
X9280206Y-17250484D02*
X9251634Y-17250484D01*
X9432587Y-17250484D02*
X9413539Y-17240960D01*
X9413539Y-17240960D02*
X9404015Y-17221912D01*
X9404015Y-17221912D02*
X9404015Y-17050484D01*
X9584968Y-17240960D02*
X9565920Y-17250484D01*
X9565920Y-17250484D02*
X9527825Y-17250484D01*
X9527825Y-17250484D02*
X9508777Y-17240960D01*
X9508777Y-17240960D02*
X9499253Y-17221912D01*
X9499253Y-17221912D02*
X9499253Y-17145722D01*
X9499253Y-17145722D02*
X9508777Y-17126674D01*
X9508777Y-17126674D02*
X9527825Y-17117150D01*
X9527825Y-17117150D02*
X9565920Y-17117150D01*
X9565920Y-17117150D02*
X9584968Y-17126674D01*
X9584968Y-17126674D02*
X9594492Y-17145722D01*
X9594492Y-17145722D02*
X9594492Y-17164770D01*
X9594492Y-17164770D02*
X9499253Y-17183817D01*
X9670682Y-17240960D02*
X9689730Y-17250484D01*
X9689730Y-17250484D02*
X9727825Y-17250484D01*
X9727825Y-17250484D02*
X9746873Y-17240960D01*
X9746873Y-17240960D02*
X9756396Y-17221912D01*
X9756396Y-17221912D02*
X9756396Y-17212389D01*
X9756396Y-17212389D02*
X9746873Y-17193341D01*
X9746873Y-17193341D02*
X9727825Y-17183817D01*
X9727825Y-17183817D02*
X9699253Y-17183817D01*
X9699253Y-17183817D02*
X9680206Y-17174293D01*
X9680206Y-17174293D02*
X9670682Y-17155246D01*
X9670682Y-17155246D02*
X9670682Y-17145722D01*
X9670682Y-17145722D02*
X9680206Y-17126674D01*
X9680206Y-17126674D02*
X9699253Y-17117150D01*
X9699253Y-17117150D02*
X9727825Y-17117150D01*
X9727825Y-17117150D02*
X9746873Y-17126674D01*
X9823063Y-17326674D02*
X9832587Y-17317150D01*
X9832587Y-17317150D02*
X9851634Y-17288579D01*
X9851634Y-17288579D02*
X9861158Y-17269531D01*
X9861158Y-17269531D02*
X9870682Y-17240960D01*
X9870682Y-17240960D02*
X9880206Y-17193341D01*
X9880206Y-17193341D02*
X9880206Y-17155246D01*
X9880206Y-17155246D02*
X9870682Y-17107627D01*
X9870682Y-17107627D02*
X9861158Y-17079055D01*
X9861158Y-17079055D02*
X9851634Y-17060008D01*
X9851634Y-17060008D02*
X9832587Y-17031436D01*
X9832587Y-17031436D02*
X9823063Y-17021912D01*
D14*
X4946000Y-17372000D02*
X5048000Y-17474000D01*
X5048000Y-17372000D02*
X4946000Y-17474000D01*
X5033063Y-17459063D02*
X5033063Y-17386937D01*
X4960937Y-17386937D01*
X4960937Y-17459063D01*
X5033063Y-17459063D01*
D10*
X5413539Y-17514484D02*
X5299253Y-17514484D01*
X5356396Y-17514484D02*
X5356396Y-17314484D01*
X5356396Y-17314484D02*
X5337348Y-17343055D01*
X5337348Y-17343055D02*
X5318301Y-17362103D01*
X5318301Y-17362103D02*
X5299253Y-17371627D01*
X5499253Y-17495436D02*
X5508777Y-17504960D01*
X5508777Y-17504960D02*
X5499253Y-17514484D01*
X5499253Y-17514484D02*
X5489729Y-17504960D01*
X5489729Y-17504960D02*
X5499253Y-17495436D01*
X5499253Y-17495436D02*
X5499253Y-17514484D01*
X5632586Y-17314484D02*
X5651634Y-17314484D01*
X5651634Y-17314484D02*
X5670682Y-17324008D01*
X5670682Y-17324008D02*
X5680205Y-17333531D01*
X5680205Y-17333531D02*
X5689729Y-17352579D01*
X5689729Y-17352579D02*
X5699253Y-17390674D01*
X5699253Y-17390674D02*
X5699253Y-17438293D01*
X5699253Y-17438293D02*
X5689729Y-17476389D01*
X5689729Y-17476389D02*
X5680205Y-17495436D01*
X5680205Y-17495436D02*
X5670682Y-17504960D01*
X5670682Y-17504960D02*
X5651634Y-17514484D01*
X5651634Y-17514484D02*
X5632586Y-17514484D01*
X5632586Y-17514484D02*
X5613539Y-17504960D01*
X5613539Y-17504960D02*
X5604015Y-17495436D01*
X5604015Y-17495436D02*
X5594491Y-17476389D01*
X5594491Y-17476389D02*
X5584967Y-17438293D01*
X5584967Y-17438293D02*
X5584967Y-17390674D01*
X5584967Y-17390674D02*
X5594491Y-17352579D01*
X5594491Y-17352579D02*
X5604015Y-17333531D01*
X5604015Y-17333531D02*
X5613539Y-17324008D01*
X5613539Y-17324008D02*
X5632586Y-17314484D01*
X5775443Y-17333531D02*
X5784967Y-17324008D01*
X5784967Y-17324008D02*
X5804015Y-17314484D01*
X5804015Y-17314484D02*
X5851634Y-17314484D01*
X5851634Y-17314484D02*
X5870682Y-17324008D01*
X5870682Y-17324008D02*
X5880205Y-17333531D01*
X5880205Y-17333531D02*
X5889729Y-17352579D01*
X5889729Y-17352579D02*
X5889729Y-17371627D01*
X5889729Y-17371627D02*
X5880205Y-17400198D01*
X5880205Y-17400198D02*
X5765920Y-17514484D01*
X5765920Y-17514484D02*
X5889729Y-17514484D01*
X6013539Y-17314484D02*
X6032586Y-17314484D01*
X6032586Y-17314484D02*
X6051634Y-17324008D01*
X6051634Y-17324008D02*
X6061158Y-17333531D01*
X6061158Y-17333531D02*
X6070682Y-17352579D01*
X6070682Y-17352579D02*
X6080205Y-17390674D01*
X6080205Y-17390674D02*
X6080205Y-17438293D01*
X6080205Y-17438293D02*
X6070682Y-17476389D01*
X6070682Y-17476389D02*
X6061158Y-17495436D01*
X6061158Y-17495436D02*
X6051634Y-17504960D01*
X6051634Y-17504960D02*
X6032586Y-17514484D01*
X6032586Y-17514484D02*
X6013539Y-17514484D01*
X6013539Y-17514484D02*
X5994491Y-17504960D01*
X5994491Y-17504960D02*
X5984967Y-17495436D01*
X5984967Y-17495436D02*
X5975443Y-17476389D01*
X5975443Y-17476389D02*
X5965920Y-17438293D01*
X5965920Y-17438293D02*
X5965920Y-17390674D01*
X5965920Y-17390674D02*
X5975443Y-17352579D01*
X5975443Y-17352579D02*
X5984967Y-17333531D01*
X5984967Y-17333531D02*
X5994491Y-17324008D01*
X5994491Y-17324008D02*
X6013539Y-17314484D01*
X6165920Y-17514484D02*
X6165920Y-17381150D01*
X6165920Y-17400198D02*
X6175443Y-17390674D01*
X6175443Y-17390674D02*
X6194491Y-17381150D01*
X6194491Y-17381150D02*
X6223063Y-17381150D01*
X6223063Y-17381150D02*
X6242110Y-17390674D01*
X6242110Y-17390674D02*
X6251634Y-17409722D01*
X6251634Y-17409722D02*
X6251634Y-17514484D01*
X6251634Y-17409722D02*
X6261158Y-17390674D01*
X6261158Y-17390674D02*
X6280205Y-17381150D01*
X6280205Y-17381150D02*
X6308777Y-17381150D01*
X6308777Y-17381150D02*
X6327824Y-17390674D01*
X6327824Y-17390674D02*
X6337348Y-17409722D01*
X6337348Y-17409722D02*
X6337348Y-17514484D01*
X6432586Y-17514484D02*
X6432586Y-17381150D01*
X6432586Y-17400198D02*
X6442110Y-17390674D01*
X6442110Y-17390674D02*
X6461158Y-17381150D01*
X6461158Y-17381150D02*
X6489729Y-17381150D01*
X6489729Y-17381150D02*
X6508777Y-17390674D01*
X6508777Y-17390674D02*
X6518301Y-17409722D01*
X6518301Y-17409722D02*
X6518301Y-17514484D01*
X6518301Y-17409722D02*
X6527824Y-17390674D01*
X6527824Y-17390674D02*
X6546872Y-17381150D01*
X6546872Y-17381150D02*
X6575443Y-17381150D01*
X6575443Y-17381150D02*
X6594491Y-17390674D01*
X6594491Y-17390674D02*
X6604015Y-17409722D01*
X6604015Y-17409722D02*
X6604015Y-17514484D01*
X6994491Y-17304960D02*
X6823063Y-17562103D01*
X7251634Y-17314484D02*
X7270682Y-17314484D01*
X7270682Y-17314484D02*
X7289729Y-17324008D01*
X7289729Y-17324008D02*
X7299253Y-17333531D01*
X7299253Y-17333531D02*
X7308777Y-17352579D01*
X7308777Y-17352579D02*
X7318301Y-17390674D01*
X7318301Y-17390674D02*
X7318301Y-17438293D01*
X7318301Y-17438293D02*
X7308777Y-17476389D01*
X7308777Y-17476389D02*
X7299253Y-17495436D01*
X7299253Y-17495436D02*
X7289729Y-17504960D01*
X7289729Y-17504960D02*
X7270682Y-17514484D01*
X7270682Y-17514484D02*
X7251634Y-17514484D01*
X7251634Y-17514484D02*
X7232586Y-17504960D01*
X7232586Y-17504960D02*
X7223063Y-17495436D01*
X7223063Y-17495436D02*
X7213539Y-17476389D01*
X7213539Y-17476389D02*
X7204015Y-17438293D01*
X7204015Y-17438293D02*
X7204015Y-17390674D01*
X7204015Y-17390674D02*
X7213539Y-17352579D01*
X7213539Y-17352579D02*
X7223063Y-17333531D01*
X7223063Y-17333531D02*
X7232586Y-17324008D01*
X7232586Y-17324008D02*
X7251634Y-17314484D01*
X7404015Y-17495436D02*
X7413539Y-17504960D01*
X7413539Y-17504960D02*
X7404015Y-17514484D01*
X7404015Y-17514484D02*
X7394491Y-17504960D01*
X7394491Y-17504960D02*
X7404015Y-17495436D01*
X7404015Y-17495436D02*
X7404015Y-17514484D01*
X7537348Y-17314484D02*
X7556396Y-17314484D01*
X7556396Y-17314484D02*
X7575444Y-17324008D01*
X7575444Y-17324008D02*
X7584967Y-17333531D01*
X7584967Y-17333531D02*
X7594491Y-17352579D01*
X7594491Y-17352579D02*
X7604015Y-17390674D01*
X7604015Y-17390674D02*
X7604015Y-17438293D01*
X7604015Y-17438293D02*
X7594491Y-17476389D01*
X7594491Y-17476389D02*
X7584967Y-17495436D01*
X7584967Y-17495436D02*
X7575444Y-17504960D01*
X7575444Y-17504960D02*
X7556396Y-17514484D01*
X7556396Y-17514484D02*
X7537348Y-17514484D01*
X7537348Y-17514484D02*
X7518301Y-17504960D01*
X7518301Y-17504960D02*
X7508777Y-17495436D01*
X7508777Y-17495436D02*
X7499253Y-17476389D01*
X7499253Y-17476389D02*
X7489729Y-17438293D01*
X7489729Y-17438293D02*
X7489729Y-17390674D01*
X7489729Y-17390674D02*
X7499253Y-17352579D01*
X7499253Y-17352579D02*
X7508777Y-17333531D01*
X7508777Y-17333531D02*
X7518301Y-17324008D01*
X7518301Y-17324008D02*
X7537348Y-17314484D01*
X7775444Y-17381150D02*
X7775444Y-17514484D01*
X7727825Y-17304960D02*
X7680206Y-17447817D01*
X7680206Y-17447817D02*
X7804015Y-17447817D01*
X7918301Y-17314484D02*
X7937348Y-17314484D01*
X7937348Y-17314484D02*
X7956396Y-17324008D01*
X7956396Y-17324008D02*
X7965920Y-17333531D01*
X7965920Y-17333531D02*
X7975444Y-17352579D01*
X7975444Y-17352579D02*
X7984967Y-17390674D01*
X7984967Y-17390674D02*
X7984967Y-17438293D01*
X7984967Y-17438293D02*
X7975444Y-17476389D01*
X7975444Y-17476389D02*
X7965920Y-17495436D01*
X7965920Y-17495436D02*
X7956396Y-17504960D01*
X7956396Y-17504960D02*
X7937348Y-17514484D01*
X7937348Y-17514484D02*
X7918301Y-17514484D01*
X7918301Y-17514484D02*
X7899253Y-17504960D01*
X7899253Y-17504960D02*
X7889729Y-17495436D01*
X7889729Y-17495436D02*
X7880206Y-17476389D01*
X7880206Y-17476389D02*
X7870682Y-17438293D01*
X7870682Y-17438293D02*
X7870682Y-17390674D01*
X7870682Y-17390674D02*
X7880206Y-17352579D01*
X7880206Y-17352579D02*
X7889729Y-17333531D01*
X7889729Y-17333531D02*
X7899253Y-17324008D01*
X7899253Y-17324008D02*
X7918301Y-17314484D01*
X8061158Y-17333531D02*
X8070682Y-17324008D01*
X8070682Y-17324008D02*
X8089729Y-17314484D01*
X8089729Y-17314484D02*
X8137348Y-17314484D01*
X8137348Y-17314484D02*
X8156396Y-17324008D01*
X8156396Y-17324008D02*
X8165920Y-17333531D01*
X8165920Y-17333531D02*
X8175444Y-17352579D01*
X8175444Y-17352579D02*
X8175444Y-17371627D01*
X8175444Y-17371627D02*
X8165920Y-17400198D01*
X8165920Y-17400198D02*
X8051634Y-17514484D01*
X8051634Y-17514484D02*
X8175444Y-17514484D01*
X8251634Y-17314484D02*
X8251634Y-17352579D01*
X8327825Y-17314484D02*
X8327825Y-17352579D01*
X8623063Y-17590674D02*
X8613539Y-17581150D01*
X8613539Y-17581150D02*
X8594491Y-17552579D01*
X8594491Y-17552579D02*
X8584968Y-17533531D01*
X8584968Y-17533531D02*
X8575444Y-17504960D01*
X8575444Y-17504960D02*
X8565920Y-17457341D01*
X8565920Y-17457341D02*
X8565920Y-17419246D01*
X8565920Y-17419246D02*
X8575444Y-17371627D01*
X8575444Y-17371627D02*
X8584968Y-17343055D01*
X8584968Y-17343055D02*
X8594491Y-17324008D01*
X8594491Y-17324008D02*
X8613539Y-17295436D01*
X8613539Y-17295436D02*
X8623063Y-17285912D01*
X8680206Y-17314484D02*
X8804015Y-17314484D01*
X8804015Y-17314484D02*
X8737349Y-17390674D01*
X8737349Y-17390674D02*
X8765920Y-17390674D01*
X8765920Y-17390674D02*
X8784968Y-17400198D01*
X8784968Y-17400198D02*
X8794491Y-17409722D01*
X8794491Y-17409722D02*
X8804015Y-17428770D01*
X8804015Y-17428770D02*
X8804015Y-17476389D01*
X8804015Y-17476389D02*
X8794491Y-17495436D01*
X8794491Y-17495436D02*
X8784968Y-17504960D01*
X8784968Y-17504960D02*
X8765920Y-17514484D01*
X8765920Y-17514484D02*
X8708777Y-17514484D01*
X8708777Y-17514484D02*
X8689730Y-17504960D01*
X8689730Y-17504960D02*
X8680206Y-17495436D01*
X8918301Y-17400198D02*
X8899253Y-17390674D01*
X8899253Y-17390674D02*
X8889730Y-17381150D01*
X8889730Y-17381150D02*
X8880206Y-17362103D01*
X8880206Y-17362103D02*
X8880206Y-17352579D01*
X8880206Y-17352579D02*
X8889730Y-17333531D01*
X8889730Y-17333531D02*
X8899253Y-17324008D01*
X8899253Y-17324008D02*
X8918301Y-17314484D01*
X8918301Y-17314484D02*
X8956396Y-17314484D01*
X8956396Y-17314484D02*
X8975444Y-17324008D01*
X8975444Y-17324008D02*
X8984968Y-17333531D01*
X8984968Y-17333531D02*
X8994491Y-17352579D01*
X8994491Y-17352579D02*
X8994491Y-17362103D01*
X8994491Y-17362103D02*
X8984968Y-17381150D01*
X8984968Y-17381150D02*
X8975444Y-17390674D01*
X8975444Y-17390674D02*
X8956396Y-17400198D01*
X8956396Y-17400198D02*
X8918301Y-17400198D01*
X8918301Y-17400198D02*
X8899253Y-17409722D01*
X8899253Y-17409722D02*
X8889730Y-17419246D01*
X8889730Y-17419246D02*
X8880206Y-17438293D01*
X8880206Y-17438293D02*
X8880206Y-17476389D01*
X8880206Y-17476389D02*
X8889730Y-17495436D01*
X8889730Y-17495436D02*
X8899253Y-17504960D01*
X8899253Y-17504960D02*
X8918301Y-17514484D01*
X8918301Y-17514484D02*
X8956396Y-17514484D01*
X8956396Y-17514484D02*
X8975444Y-17504960D01*
X8975444Y-17504960D02*
X8984968Y-17495436D01*
X8984968Y-17495436D02*
X8994491Y-17476389D01*
X8994491Y-17476389D02*
X8994491Y-17438293D01*
X8994491Y-17438293D02*
X8984968Y-17419246D01*
X8984968Y-17419246D02*
X8975444Y-17409722D01*
X8975444Y-17409722D02*
X8956396Y-17400198D01*
X9232587Y-17514484D02*
X9232587Y-17314484D01*
X9318301Y-17514484D02*
X9318301Y-17409722D01*
X9318301Y-17409722D02*
X9308777Y-17390674D01*
X9308777Y-17390674D02*
X9289730Y-17381150D01*
X9289730Y-17381150D02*
X9261158Y-17381150D01*
X9261158Y-17381150D02*
X9242111Y-17390674D01*
X9242111Y-17390674D02*
X9232587Y-17400198D01*
X9442111Y-17514484D02*
X9423063Y-17504960D01*
X9423063Y-17504960D02*
X9413539Y-17495436D01*
X9413539Y-17495436D02*
X9404015Y-17476389D01*
X9404015Y-17476389D02*
X9404015Y-17419246D01*
X9404015Y-17419246D02*
X9413539Y-17400198D01*
X9413539Y-17400198D02*
X9423063Y-17390674D01*
X9423063Y-17390674D02*
X9442111Y-17381150D01*
X9442111Y-17381150D02*
X9470682Y-17381150D01*
X9470682Y-17381150D02*
X9489730Y-17390674D01*
X9489730Y-17390674D02*
X9499253Y-17400198D01*
X9499253Y-17400198D02*
X9508777Y-17419246D01*
X9508777Y-17419246D02*
X9508777Y-17476389D01*
X9508777Y-17476389D02*
X9499253Y-17495436D01*
X9499253Y-17495436D02*
X9489730Y-17504960D01*
X9489730Y-17504960D02*
X9470682Y-17514484D01*
X9470682Y-17514484D02*
X9442111Y-17514484D01*
X9623063Y-17514484D02*
X9604015Y-17504960D01*
X9604015Y-17504960D02*
X9594492Y-17485912D01*
X9594492Y-17485912D02*
X9594492Y-17314484D01*
X9775444Y-17504960D02*
X9756396Y-17514484D01*
X9756396Y-17514484D02*
X9718301Y-17514484D01*
X9718301Y-17514484D02*
X9699253Y-17504960D01*
X9699253Y-17504960D02*
X9689730Y-17485912D01*
X9689730Y-17485912D02*
X9689730Y-17409722D01*
X9689730Y-17409722D02*
X9699253Y-17390674D01*
X9699253Y-17390674D02*
X9718301Y-17381150D01*
X9718301Y-17381150D02*
X9756396Y-17381150D01*
X9756396Y-17381150D02*
X9775444Y-17390674D01*
X9775444Y-17390674D02*
X9784968Y-17409722D01*
X9784968Y-17409722D02*
X9784968Y-17428770D01*
X9784968Y-17428770D02*
X9689730Y-17447817D01*
X9861158Y-17504960D02*
X9880206Y-17514484D01*
X9880206Y-17514484D02*
X9918301Y-17514484D01*
X9918301Y-17514484D02*
X9937349Y-17504960D01*
X9937349Y-17504960D02*
X9946873Y-17485912D01*
X9946873Y-17485912D02*
X9946873Y-17476389D01*
X9946873Y-17476389D02*
X9937349Y-17457341D01*
X9937349Y-17457341D02*
X9918301Y-17447817D01*
X9918301Y-17447817D02*
X9889730Y-17447817D01*
X9889730Y-17447817D02*
X9870682Y-17438293D01*
X9870682Y-17438293D02*
X9861158Y-17419246D01*
X9861158Y-17419246D02*
X9861158Y-17409722D01*
X9861158Y-17409722D02*
X9870682Y-17390674D01*
X9870682Y-17390674D02*
X9889730Y-17381150D01*
X9889730Y-17381150D02*
X9918301Y-17381150D01*
X9918301Y-17381150D02*
X9937349Y-17390674D01*
X10013539Y-17590674D02*
X10023063Y-17581150D01*
X10023063Y-17581150D02*
X10042111Y-17552579D01*
X10042111Y-17552579D02*
X10051634Y-17533531D01*
X10051634Y-17533531D02*
X10061158Y-17504960D01*
X10061158Y-17504960D02*
X10070682Y-17457341D01*
X10070682Y-17457341D02*
X10070682Y-17419246D01*
X10070682Y-17419246D02*
X10061158Y-17371627D01*
X10061158Y-17371627D02*
X10051634Y-17343055D01*
X10051634Y-17343055D02*
X10042111Y-17324008D01*
X10042111Y-17324008D02*
X10023063Y-17295436D01*
X10023063Y-17295436D02*
X10013539Y-17285912D01*
D15*
X4938000Y-17632000D02*
X5048000Y-17742000D01*
X5048000Y-17632000D02*
X4938000Y-17742000D01*
X4993000Y-17742000D02*
X5048000Y-17687000D01*
X4993000Y-17632000D01*
X4938000Y-17687000D01*
X4993000Y-17742000D01*
D10*
X5413539Y-17778484D02*
X5299253Y-17778484D01*
X5356396Y-17778484D02*
X5356396Y-17578484D01*
X5356396Y-17578484D02*
X5337348Y-17607055D01*
X5337348Y-17607055D02*
X5318301Y-17626103D01*
X5318301Y-17626103D02*
X5299253Y-17635627D01*
X5499253Y-17759436D02*
X5508777Y-17768960D01*
X5508777Y-17768960D02*
X5499253Y-17778484D01*
X5499253Y-17778484D02*
X5489729Y-17768960D01*
X5489729Y-17768960D02*
X5499253Y-17759436D01*
X5499253Y-17759436D02*
X5499253Y-17778484D01*
X5699253Y-17778484D02*
X5584967Y-17778484D01*
X5642110Y-17778484D02*
X5642110Y-17578484D01*
X5642110Y-17578484D02*
X5623062Y-17607055D01*
X5623062Y-17607055D02*
X5604015Y-17626103D01*
X5604015Y-17626103D02*
X5584967Y-17635627D01*
X5823062Y-17578484D02*
X5842110Y-17578484D01*
X5842110Y-17578484D02*
X5861158Y-17588008D01*
X5861158Y-17588008D02*
X5870682Y-17597531D01*
X5870682Y-17597531D02*
X5880205Y-17616579D01*
X5880205Y-17616579D02*
X5889729Y-17654674D01*
X5889729Y-17654674D02*
X5889729Y-17702293D01*
X5889729Y-17702293D02*
X5880205Y-17740389D01*
X5880205Y-17740389D02*
X5870682Y-17759436D01*
X5870682Y-17759436D02*
X5861158Y-17768960D01*
X5861158Y-17768960D02*
X5842110Y-17778484D01*
X5842110Y-17778484D02*
X5823062Y-17778484D01*
X5823062Y-17778484D02*
X5804015Y-17768960D01*
X5804015Y-17768960D02*
X5794491Y-17759436D01*
X5794491Y-17759436D02*
X5784967Y-17740389D01*
X5784967Y-17740389D02*
X5775443Y-17702293D01*
X5775443Y-17702293D02*
X5775443Y-17654674D01*
X5775443Y-17654674D02*
X5784967Y-17616579D01*
X5784967Y-17616579D02*
X5794491Y-17597531D01*
X5794491Y-17597531D02*
X5804015Y-17588008D01*
X5804015Y-17588008D02*
X5823062Y-17578484D01*
X6013539Y-17578484D02*
X6032586Y-17578484D01*
X6032586Y-17578484D02*
X6051634Y-17588008D01*
X6051634Y-17588008D02*
X6061158Y-17597531D01*
X6061158Y-17597531D02*
X6070682Y-17616579D01*
X6070682Y-17616579D02*
X6080205Y-17654674D01*
X6080205Y-17654674D02*
X6080205Y-17702293D01*
X6080205Y-17702293D02*
X6070682Y-17740389D01*
X6070682Y-17740389D02*
X6061158Y-17759436D01*
X6061158Y-17759436D02*
X6051634Y-17768960D01*
X6051634Y-17768960D02*
X6032586Y-17778484D01*
X6032586Y-17778484D02*
X6013539Y-17778484D01*
X6013539Y-17778484D02*
X5994491Y-17768960D01*
X5994491Y-17768960D02*
X5984967Y-17759436D01*
X5984967Y-17759436D02*
X5975443Y-17740389D01*
X5975443Y-17740389D02*
X5965920Y-17702293D01*
X5965920Y-17702293D02*
X5965920Y-17654674D01*
X5965920Y-17654674D02*
X5975443Y-17616579D01*
X5975443Y-17616579D02*
X5984967Y-17597531D01*
X5984967Y-17597531D02*
X5994491Y-17588008D01*
X5994491Y-17588008D02*
X6013539Y-17578484D01*
X6165920Y-17778484D02*
X6165920Y-17645150D01*
X6165920Y-17664198D02*
X6175443Y-17654674D01*
X6175443Y-17654674D02*
X6194491Y-17645150D01*
X6194491Y-17645150D02*
X6223063Y-17645150D01*
X6223063Y-17645150D02*
X6242110Y-17654674D01*
X6242110Y-17654674D02*
X6251634Y-17673722D01*
X6251634Y-17673722D02*
X6251634Y-17778484D01*
X6251634Y-17673722D02*
X6261158Y-17654674D01*
X6261158Y-17654674D02*
X6280205Y-17645150D01*
X6280205Y-17645150D02*
X6308777Y-17645150D01*
X6308777Y-17645150D02*
X6327824Y-17654674D01*
X6327824Y-17654674D02*
X6337348Y-17673722D01*
X6337348Y-17673722D02*
X6337348Y-17778484D01*
X6432586Y-17778484D02*
X6432586Y-17645150D01*
X6432586Y-17664198D02*
X6442110Y-17654674D01*
X6442110Y-17654674D02*
X6461158Y-17645150D01*
X6461158Y-17645150D02*
X6489729Y-17645150D01*
X6489729Y-17645150D02*
X6508777Y-17654674D01*
X6508777Y-17654674D02*
X6518301Y-17673722D01*
X6518301Y-17673722D02*
X6518301Y-17778484D01*
X6518301Y-17673722D02*
X6527824Y-17654674D01*
X6527824Y-17654674D02*
X6546872Y-17645150D01*
X6546872Y-17645150D02*
X6575443Y-17645150D01*
X6575443Y-17645150D02*
X6594491Y-17654674D01*
X6594491Y-17654674D02*
X6604015Y-17673722D01*
X6604015Y-17673722D02*
X6604015Y-17778484D01*
X6994491Y-17568960D02*
X6823063Y-17826103D01*
X7251634Y-17578484D02*
X7270682Y-17578484D01*
X7270682Y-17578484D02*
X7289729Y-17588008D01*
X7289729Y-17588008D02*
X7299253Y-17597531D01*
X7299253Y-17597531D02*
X7308777Y-17616579D01*
X7308777Y-17616579D02*
X7318301Y-17654674D01*
X7318301Y-17654674D02*
X7318301Y-17702293D01*
X7318301Y-17702293D02*
X7308777Y-17740389D01*
X7308777Y-17740389D02*
X7299253Y-17759436D01*
X7299253Y-17759436D02*
X7289729Y-17768960D01*
X7289729Y-17768960D02*
X7270682Y-17778484D01*
X7270682Y-17778484D02*
X7251634Y-17778484D01*
X7251634Y-17778484D02*
X7232586Y-17768960D01*
X7232586Y-17768960D02*
X7223063Y-17759436D01*
X7223063Y-17759436D02*
X7213539Y-17740389D01*
X7213539Y-17740389D02*
X7204015Y-17702293D01*
X7204015Y-17702293D02*
X7204015Y-17654674D01*
X7204015Y-17654674D02*
X7213539Y-17616579D01*
X7213539Y-17616579D02*
X7223063Y-17597531D01*
X7223063Y-17597531D02*
X7232586Y-17588008D01*
X7232586Y-17588008D02*
X7251634Y-17578484D01*
X7404015Y-17759436D02*
X7413539Y-17768960D01*
X7413539Y-17768960D02*
X7404015Y-17778484D01*
X7404015Y-17778484D02*
X7394491Y-17768960D01*
X7394491Y-17768960D02*
X7404015Y-17759436D01*
X7404015Y-17759436D02*
X7404015Y-17778484D01*
X7537348Y-17578484D02*
X7556396Y-17578484D01*
X7556396Y-17578484D02*
X7575444Y-17588008D01*
X7575444Y-17588008D02*
X7584967Y-17597531D01*
X7584967Y-17597531D02*
X7594491Y-17616579D01*
X7594491Y-17616579D02*
X7604015Y-17654674D01*
X7604015Y-17654674D02*
X7604015Y-17702293D01*
X7604015Y-17702293D02*
X7594491Y-17740389D01*
X7594491Y-17740389D02*
X7584967Y-17759436D01*
X7584967Y-17759436D02*
X7575444Y-17768960D01*
X7575444Y-17768960D02*
X7556396Y-17778484D01*
X7556396Y-17778484D02*
X7537348Y-17778484D01*
X7537348Y-17778484D02*
X7518301Y-17768960D01*
X7518301Y-17768960D02*
X7508777Y-17759436D01*
X7508777Y-17759436D02*
X7499253Y-17740389D01*
X7499253Y-17740389D02*
X7489729Y-17702293D01*
X7489729Y-17702293D02*
X7489729Y-17654674D01*
X7489729Y-17654674D02*
X7499253Y-17616579D01*
X7499253Y-17616579D02*
X7508777Y-17597531D01*
X7508777Y-17597531D02*
X7518301Y-17588008D01*
X7518301Y-17588008D02*
X7537348Y-17578484D01*
X7775444Y-17645150D02*
X7775444Y-17778484D01*
X7727825Y-17568960D02*
X7680206Y-17711817D01*
X7680206Y-17711817D02*
X7804015Y-17711817D01*
X7861158Y-17578484D02*
X7984967Y-17578484D01*
X7984967Y-17578484D02*
X7918301Y-17654674D01*
X7918301Y-17654674D02*
X7946872Y-17654674D01*
X7946872Y-17654674D02*
X7965920Y-17664198D01*
X7965920Y-17664198D02*
X7975444Y-17673722D01*
X7975444Y-17673722D02*
X7984967Y-17692770D01*
X7984967Y-17692770D02*
X7984967Y-17740389D01*
X7984967Y-17740389D02*
X7975444Y-17759436D01*
X7975444Y-17759436D02*
X7965920Y-17768960D01*
X7965920Y-17768960D02*
X7946872Y-17778484D01*
X7946872Y-17778484D02*
X7889729Y-17778484D01*
X7889729Y-17778484D02*
X7870682Y-17768960D01*
X7870682Y-17768960D02*
X7861158Y-17759436D01*
X8051634Y-17578484D02*
X8175444Y-17578484D01*
X8175444Y-17578484D02*
X8108777Y-17654674D01*
X8108777Y-17654674D02*
X8137348Y-17654674D01*
X8137348Y-17654674D02*
X8156396Y-17664198D01*
X8156396Y-17664198D02*
X8165920Y-17673722D01*
X8165920Y-17673722D02*
X8175444Y-17692770D01*
X8175444Y-17692770D02*
X8175444Y-17740389D01*
X8175444Y-17740389D02*
X8165920Y-17759436D01*
X8165920Y-17759436D02*
X8156396Y-17768960D01*
X8156396Y-17768960D02*
X8137348Y-17778484D01*
X8137348Y-17778484D02*
X8080206Y-17778484D01*
X8080206Y-17778484D02*
X8061158Y-17768960D01*
X8061158Y-17768960D02*
X8051634Y-17759436D01*
X8251634Y-17578484D02*
X8251634Y-17616579D01*
X8327825Y-17578484D02*
X8327825Y-17616579D01*
X8623063Y-17854674D02*
X8613539Y-17845150D01*
X8613539Y-17845150D02*
X8594491Y-17816579D01*
X8594491Y-17816579D02*
X8584968Y-17797531D01*
X8584968Y-17797531D02*
X8575444Y-17768960D01*
X8575444Y-17768960D02*
X8565920Y-17721341D01*
X8565920Y-17721341D02*
X8565920Y-17683246D01*
X8565920Y-17683246D02*
X8575444Y-17635627D01*
X8575444Y-17635627D02*
X8584968Y-17607055D01*
X8584968Y-17607055D02*
X8594491Y-17588008D01*
X8594491Y-17588008D02*
X8613539Y-17559436D01*
X8613539Y-17559436D02*
X8623063Y-17549912D01*
X8804015Y-17778484D02*
X8689730Y-17778484D01*
X8746872Y-17778484D02*
X8746872Y-17578484D01*
X8746872Y-17578484D02*
X8727825Y-17607055D01*
X8727825Y-17607055D02*
X8708777Y-17626103D01*
X8708777Y-17626103D02*
X8689730Y-17635627D01*
X8975444Y-17645150D02*
X8975444Y-17778484D01*
X8927825Y-17568960D02*
X8880206Y-17711817D01*
X8880206Y-17711817D02*
X9004015Y-17711817D01*
X9232587Y-17778484D02*
X9232587Y-17578484D01*
X9318301Y-17778484D02*
X9318301Y-17673722D01*
X9318301Y-17673722D02*
X9308777Y-17654674D01*
X9308777Y-17654674D02*
X9289730Y-17645150D01*
X9289730Y-17645150D02*
X9261158Y-17645150D01*
X9261158Y-17645150D02*
X9242111Y-17654674D01*
X9242111Y-17654674D02*
X9232587Y-17664198D01*
X9442111Y-17778484D02*
X9423063Y-17768960D01*
X9423063Y-17768960D02*
X9413539Y-17759436D01*
X9413539Y-17759436D02*
X9404015Y-17740389D01*
X9404015Y-17740389D02*
X9404015Y-17683246D01*
X9404015Y-17683246D02*
X9413539Y-17664198D01*
X9413539Y-17664198D02*
X9423063Y-17654674D01*
X9423063Y-17654674D02*
X9442111Y-17645150D01*
X9442111Y-17645150D02*
X9470682Y-17645150D01*
X9470682Y-17645150D02*
X9489730Y-17654674D01*
X9489730Y-17654674D02*
X9499253Y-17664198D01*
X9499253Y-17664198D02*
X9508777Y-17683246D01*
X9508777Y-17683246D02*
X9508777Y-17740389D01*
X9508777Y-17740389D02*
X9499253Y-17759436D01*
X9499253Y-17759436D02*
X9489730Y-17768960D01*
X9489730Y-17768960D02*
X9470682Y-17778484D01*
X9470682Y-17778484D02*
X9442111Y-17778484D01*
X9623063Y-17778484D02*
X9604015Y-17768960D01*
X9604015Y-17768960D02*
X9594492Y-17749912D01*
X9594492Y-17749912D02*
X9594492Y-17578484D01*
X9775444Y-17768960D02*
X9756396Y-17778484D01*
X9756396Y-17778484D02*
X9718301Y-17778484D01*
X9718301Y-17778484D02*
X9699253Y-17768960D01*
X9699253Y-17768960D02*
X9689730Y-17749912D01*
X9689730Y-17749912D02*
X9689730Y-17673722D01*
X9689730Y-17673722D02*
X9699253Y-17654674D01*
X9699253Y-17654674D02*
X9718301Y-17645150D01*
X9718301Y-17645150D02*
X9756396Y-17645150D01*
X9756396Y-17645150D02*
X9775444Y-17654674D01*
X9775444Y-17654674D02*
X9784968Y-17673722D01*
X9784968Y-17673722D02*
X9784968Y-17692770D01*
X9784968Y-17692770D02*
X9689730Y-17711817D01*
X9861158Y-17768960D02*
X9880206Y-17778484D01*
X9880206Y-17778484D02*
X9918301Y-17778484D01*
X9918301Y-17778484D02*
X9937349Y-17768960D01*
X9937349Y-17768960D02*
X9946873Y-17749912D01*
X9946873Y-17749912D02*
X9946873Y-17740389D01*
X9946873Y-17740389D02*
X9937349Y-17721341D01*
X9937349Y-17721341D02*
X9918301Y-17711817D01*
X9918301Y-17711817D02*
X9889730Y-17711817D01*
X9889730Y-17711817D02*
X9870682Y-17702293D01*
X9870682Y-17702293D02*
X9861158Y-17683246D01*
X9861158Y-17683246D02*
X9861158Y-17673722D01*
X9861158Y-17673722D02*
X9870682Y-17654674D01*
X9870682Y-17654674D02*
X9889730Y-17645150D01*
X9889730Y-17645150D02*
X9918301Y-17645150D01*
X9918301Y-17645150D02*
X9937349Y-17654674D01*
X10013539Y-17854674D02*
X10023063Y-17845150D01*
X10023063Y-17845150D02*
X10042111Y-17816579D01*
X10042111Y-17816579D02*
X10051634Y-17797531D01*
X10051634Y-17797531D02*
X10061158Y-17768960D01*
X10061158Y-17768960D02*
X10070682Y-17721341D01*
X10070682Y-17721341D02*
X10070682Y-17683246D01*
X10070682Y-17683246D02*
X10061158Y-17635627D01*
X10061158Y-17635627D02*
X10051634Y-17607055D01*
X10051634Y-17607055D02*
X10042111Y-17588008D01*
X10042111Y-17588008D02*
X10023063Y-17559436D01*
X10023063Y-17559436D02*
X10013539Y-17549912D01*
M02*
