%TF.GenerationSoftware,KiCad,Pcbnew,9.0.0*%
%TF.CreationDate,2026-04-05T17:31:23+07:00*%
%TF.ProjectId,IoT2526_HK2,496f5432-3532-4365-9f48-4b322e6b6963,rev?*%
%TF.SameCoordinates,Original*%
%TF.FileFunction,Paste,Top*%
%TF.FilePolarity,Positive*%
%FSLAX46Y46*%
G04 Gerber Fmt 4.6, Leading zero omitted, Abs format (unit mm)*
G04 Created by KiCad (PCBNEW 9.0.0) date 2026-04-05 17:31:23*
%MOMM*%
%LPD*%
G01*
G04 APERTURE LIST*
G04 Aperture macros list*
%AMRoundRect*
0 Rectangle with rounded corners*
0 $1 Rounding radius*
0 $2 $3 $4 $5 $6 $7 $8 $9 X,Y pos of 4 corners*
0 Add a 4 corners polygon primitive as box body*
4,1,4,$2,$3,$4,$5,$6,$7,$8,$9,$2,$3,0*
0 Add four circle primitives for the rounded corners*
1,1,$1+$1,$2,$3*
1,1,$1+$1,$4,$5*
1,1,$1+$1,$6,$7*
1,1,$1+$1,$8,$9*
0 Add four rect primitives between the rounded corners*
20,1,$1+$1,$2,$3,$4,$5,0*
20,1,$1+$1,$4,$5,$6,$7,0*
20,1,$1+$1,$6,$7,$8,$9,0*
20,1,$1+$1,$8,$9,$2,$3,0*%
G04 Aperture macros list end*
%ADD10RoundRect,0.127500X0.322500X-0.297500X0.322500X0.297500X-0.322500X0.297500X-0.322500X-0.297500X0*%
%ADD11RoundRect,0.127500X-0.297500X-0.322500X0.297500X-0.322500X0.297500X0.322500X-0.297500X0.322500X0*%
%ADD12RoundRect,0.218750X0.218750X0.256250X-0.218750X0.256250X-0.218750X-0.256250X0.218750X-0.256250X0*%
%ADD13RoundRect,0.150000X0.150000X-0.587500X0.150000X0.587500X-0.150000X0.587500X-0.150000X-0.587500X0*%
%ADD14RoundRect,0.225000X-0.375000X0.225000X-0.375000X-0.225000X0.375000X-0.225000X0.375000X0.225000X0*%
%ADD15RoundRect,0.127500X-0.322500X0.297500X-0.322500X-0.297500X0.322500X-0.297500X0.322500X0.297500X0*%
%ADD16RoundRect,0.090000X-0.410000X-0.210000X0.410000X-0.210000X0.410000X0.210000X-0.410000X0.210000X0*%
%ADD17RoundRect,0.647700X0.647700X-1.155700X0.647700X1.155700X-0.647700X1.155700X-0.647700X-1.155700X0*%
%ADD18R,1.400000X1.760000*%
%ADD19R,3.500000X1.760000*%
%ADD20RoundRect,0.250000X0.300000X0.300000X-0.300000X0.300000X-0.300000X-0.300000X0.300000X-0.300000X0*%
%ADD21R,0.600000X1.500000*%
%ADD22RoundRect,0.127500X0.297500X0.322500X-0.297500X0.322500X-0.297500X-0.322500X0.297500X-0.322500X0*%
%ADD23RoundRect,0.250000X1.950000X1.000000X-1.950000X1.000000X-1.950000X-1.000000X1.950000X-1.000000X0*%
%ADD24RoundRect,0.150000X0.587500X0.150000X-0.587500X0.150000X-0.587500X-0.150000X0.587500X-0.150000X0*%
%ADD25RoundRect,0.150000X-0.875000X-0.150000X0.875000X-0.150000X0.875000X0.150000X-0.875000X0.150000X0*%
G04 APERTURE END LIST*
D10*
%TO.C,R12*%
X94860000Y-97965000D03*
X94860000Y-99515000D03*
%TD*%
D11*
%TO.C,R8*%
X91230000Y-104870000D03*
X89680000Y-104870000D03*
%TD*%
D10*
%TO.C,R3*%
X99462500Y-92255000D03*
X99462500Y-93805000D03*
%TD*%
D12*
%TO.C,D10*%
X74557500Y-55790000D03*
X72982500Y-55790000D03*
%TD*%
D10*
%TO.C,C3*%
X115540000Y-52365000D03*
X115540000Y-53915000D03*
%TD*%
D13*
%TO.C,Q3*%
X95790000Y-94410000D03*
X97690000Y-94410000D03*
X96740000Y-92535000D03*
%TD*%
D10*
%TO.C,C8*%
X124100000Y-70885000D03*
X124100000Y-72435000D03*
%TD*%
D14*
%TO.C,D7*%
X113340000Y-52312500D03*
X113340000Y-55612500D03*
%TD*%
D13*
%TO.C,Q2*%
X87527500Y-94410000D03*
X89427500Y-94410000D03*
X88477500Y-92535000D03*
%TD*%
D15*
%TO.C,C4*%
X117630000Y-98120000D03*
X117630000Y-96570000D03*
%TD*%
D10*
%TO.C,C5*%
X125860000Y-70885000D03*
X125860000Y-72435000D03*
%TD*%
D16*
%TO.C,D9*%
X130692500Y-65190000D03*
X130692500Y-67090000D03*
X132967500Y-66140000D03*
%TD*%
D10*
%TO.C,C1*%
X73330000Y-57882500D03*
X73330000Y-59432500D03*
%TD*%
D11*
%TO.C,C9*%
X77900000Y-55870000D03*
X76350000Y-55870000D03*
%TD*%
D10*
%TO.C,C2*%
X71520000Y-57882500D03*
X71520000Y-59432500D03*
%TD*%
%TO.C,C6*%
X117360000Y-52375000D03*
X117360000Y-53925000D03*
%TD*%
D15*
%TO.C,R6*%
X94870000Y-102847000D03*
X94870000Y-101297000D03*
%TD*%
D10*
%TO.C,C12*%
X69720000Y-57882500D03*
X69720000Y-59432500D03*
%TD*%
D15*
%TO.C,R21*%
X131480000Y-106950000D03*
X131480000Y-105400000D03*
%TD*%
D10*
%TO.C,R1*%
X82790000Y-92365000D03*
X82790000Y-93915000D03*
%TD*%
D12*
%TO.C,D8*%
X72972500Y-52460000D03*
X74547500Y-52460000D03*
%TD*%
D11*
%TO.C,R7*%
X82747500Y-104870000D03*
X81197500Y-104870000D03*
%TD*%
D12*
%TO.C,D1*%
X78047500Y-104870000D03*
X79622500Y-104870000D03*
%TD*%
D15*
%TO.C,R4*%
X78290000Y-102847000D03*
X78290000Y-101297000D03*
%TD*%
D17*
%TO.C,BT1*%
X130750000Y-82461200D03*
X130750000Y-98260000D03*
%TD*%
D15*
%TO.C,C7*%
X115900000Y-98120000D03*
X115900000Y-96570000D03*
%TD*%
D10*
%TO.C,R16*%
X142770000Y-55930000D03*
X142770000Y-57480000D03*
%TD*%
D18*
%TO.C,U4*%
X80200000Y-57900000D03*
D19*
X77900000Y-64150000D03*
D18*
X77900000Y-57900000D03*
X75600000Y-57900000D03*
%TD*%
D10*
%TO.C,R20*%
X131460000Y-102160000D03*
X131460000Y-103710000D03*
%TD*%
D20*
%TO.C,D5*%
X91190000Y-107220000D03*
X88390000Y-107220000D03*
%TD*%
%TO.C,D6*%
X99462500Y-107220000D03*
X96662500Y-107220000D03*
%TD*%
D11*
%TO.C,R9*%
X99462500Y-104870000D03*
X97912500Y-104870000D03*
%TD*%
D21*
%TO.C,U2*%
X91190000Y-96497000D03*
X88650000Y-96497000D03*
X88650000Y-102847000D03*
X91190000Y-102847000D03*
%TD*%
D10*
%TO.C,R17*%
X142770000Y-63550000D03*
X142770000Y-65100000D03*
%TD*%
%TO.C,R10*%
X78290000Y-98060000D03*
X78290000Y-99610000D03*
%TD*%
D21*
%TO.C,U1*%
X82800000Y-96497000D03*
X80260000Y-96497000D03*
X80260000Y-102847000D03*
X82800000Y-102847000D03*
%TD*%
D22*
%TO.C,R14*%
X76335000Y-52470000D03*
X77885000Y-52470000D03*
%TD*%
D23*
%TO.C,C13*%
X66010000Y-57880000D03*
X58610000Y-57880000D03*
%TD*%
D24*
%TO.C,Q4*%
X129415000Y-103680000D03*
X129415000Y-101780000D03*
X127540000Y-102730000D03*
%TD*%
D10*
%TO.C,R19*%
X120220000Y-101315000D03*
X120220000Y-102865000D03*
%TD*%
D12*
%TO.C,D2*%
X86530000Y-104870000D03*
X88105000Y-104870000D03*
%TD*%
D21*
%TO.C,U3*%
X99462500Y-96497000D03*
X96922500Y-96497000D03*
X96922500Y-102847000D03*
X99462500Y-102847000D03*
%TD*%
D12*
%TO.C,D3*%
X94762500Y-104870000D03*
X96337500Y-104870000D03*
%TD*%
D11*
%TO.C,C11*%
X77895000Y-54170000D03*
X76345000Y-54170000D03*
%TD*%
%TO.C,R18*%
X71270000Y-55800000D03*
X69720000Y-55800000D03*
%TD*%
D10*
%TO.C,R15*%
X129000000Y-63640000D03*
X129000000Y-65190000D03*
%TD*%
D13*
%TO.C,Q1*%
X79200000Y-94410000D03*
X81100000Y-94410000D03*
X80150000Y-92535000D03*
%TD*%
D10*
%TO.C,R2*%
X91170000Y-92495000D03*
X91170000Y-94045000D03*
%TD*%
%TO.C,R11*%
X86580000Y-98060000D03*
X86580000Y-99610000D03*
%TD*%
D15*
%TO.C,R5*%
X86580000Y-102895000D03*
X86580000Y-101345000D03*
%TD*%
D25*
%TO.C,IC1*%
X128190000Y-69615000D03*
X128190000Y-70885000D03*
X128190000Y-72155000D03*
X128190000Y-73425000D03*
X128190000Y-74695000D03*
X128190000Y-75965000D03*
X128190000Y-77235000D03*
X128190000Y-78505000D03*
X137490000Y-78505000D03*
X137490000Y-77235000D03*
X137490000Y-75965000D03*
X137490000Y-74695000D03*
X137490000Y-73425000D03*
X137490000Y-72155000D03*
X137490000Y-70885000D03*
X137490000Y-69615000D03*
%TD*%
D20*
%TO.C,D4*%
X82800000Y-107220000D03*
X80000000Y-107220000D03*
%TD*%
M02*
