%TF.GenerationSoftware,KiCad,Pcbnew,9.0.0*%
%TF.CreationDate,2026-04-05T17:31:23+07:00*%
%TF.ProjectId,IoT2526_HK2,496f5432-3532-4365-9f48-4b322e6b6963,rev?*%
%TF.SameCoordinates,Original*%
%TF.FileFunction,Legend,Bot*%
%TF.FilePolarity,Positive*%
%FSLAX46Y46*%
G04 Gerber Fmt 4.6, Leading zero omitted, Abs format (unit mm)*
G04 Created by KiCad (PCBNEW 9.0.0) date 2026-04-05 17:31:23*
%MOMM*%
%LPD*%
G01*
G04 APERTURE LIST*
%ADD10C,0.100000*%
%ADD11C,0.300000*%
%ADD12C,0.010000*%
%ADD13C,0.120000*%
G04 APERTURE END LIST*
D10*
X149770000Y-130470000D02*
X149760000Y-130470000D01*
X149770000Y-50300000D02*
X149770000Y-130470000D01*
X100820000Y-50300000D02*
X149770000Y-50300000D01*
X101770000Y-143630000D02*
X101770000Y-131190000D01*
X73440000Y-143630000D02*
X73440000Y-148020276D01*
X54670000Y-131200000D02*
X101770000Y-131190000D01*
X92440000Y-131190000D02*
X92440000Y-143620000D01*
X54670000Y-143630000D02*
X54670000Y-131200000D01*
X73450000Y-131200000D02*
X73440000Y-143630000D01*
X82970000Y-143620000D02*
X82970000Y-148020000D01*
X63960000Y-143620000D02*
X63960000Y-148000000D01*
X92440000Y-143620000D02*
X92440000Y-148010000D01*
X54670000Y-143630000D02*
X101770000Y-143630000D01*
X101770000Y-148020000D01*
X54670000Y-148020000D01*
X54670000Y-143630000D01*
X82970000Y-131200000D02*
X82970000Y-143620000D01*
X63960000Y-131190000D02*
X63960000Y-143620000D01*
D11*
X125116828Y-123492631D02*
X125116828Y-122778345D01*
X125116828Y-122778345D02*
X123616828Y-122778345D01*
X124331114Y-123992631D02*
X124331114Y-124492631D01*
X125116828Y-124706917D02*
X125116828Y-123992631D01*
X125116828Y-123992631D02*
X123616828Y-123992631D01*
X123616828Y-123992631D02*
X123616828Y-124706917D01*
X125116828Y-125349774D02*
X123616828Y-125349774D01*
X123616828Y-125349774D02*
X123616828Y-125706917D01*
X123616828Y-125706917D02*
X123688257Y-125921203D01*
X123688257Y-125921203D02*
X123831114Y-126064060D01*
X123831114Y-126064060D02*
X123973971Y-126135489D01*
X123973971Y-126135489D02*
X124259685Y-126206917D01*
X124259685Y-126206917D02*
X124473971Y-126206917D01*
X124473971Y-126206917D02*
X124759685Y-126135489D01*
X124759685Y-126135489D02*
X124902542Y-126064060D01*
X124902542Y-126064060D02*
X125045400Y-125921203D01*
X125045400Y-125921203D02*
X125116828Y-125706917D01*
X125116828Y-125706917D02*
X125116828Y-125349774D01*
X110916828Y-120064060D02*
X110916828Y-120921203D01*
X112416828Y-120492631D02*
X110916828Y-120492631D01*
X112559685Y-121064060D02*
X112559685Y-122206917D01*
X110916828Y-122849774D02*
X110916828Y-123135488D01*
X110916828Y-123135488D02*
X110988257Y-123278345D01*
X110988257Y-123278345D02*
X111131114Y-123421202D01*
X111131114Y-123421202D02*
X111416828Y-123492631D01*
X111416828Y-123492631D02*
X111916828Y-123492631D01*
X111916828Y-123492631D02*
X112202542Y-123421202D01*
X112202542Y-123421202D02*
X112345400Y-123278345D01*
X112345400Y-123278345D02*
X112416828Y-123135488D01*
X112416828Y-123135488D02*
X112416828Y-122849774D01*
X112416828Y-122849774D02*
X112345400Y-122706917D01*
X112345400Y-122706917D02*
X112202542Y-122564059D01*
X112202542Y-122564059D02*
X111916828Y-122492631D01*
X111916828Y-122492631D02*
X111416828Y-122492631D01*
X111416828Y-122492631D02*
X111131114Y-122564059D01*
X111131114Y-122564059D02*
X110988257Y-122706917D01*
X110988257Y-122706917D02*
X110916828Y-122849774D01*
X110916828Y-124135488D02*
X112131114Y-124135488D01*
X112131114Y-124135488D02*
X112273971Y-124206917D01*
X112273971Y-124206917D02*
X112345400Y-124278346D01*
X112345400Y-124278346D02*
X112416828Y-124421203D01*
X112416828Y-124421203D02*
X112416828Y-124706917D01*
X112416828Y-124706917D02*
X112345400Y-124849774D01*
X112345400Y-124849774D02*
X112273971Y-124921203D01*
X112273971Y-124921203D02*
X112131114Y-124992631D01*
X112131114Y-124992631D02*
X110916828Y-124992631D01*
X110916828Y-125492632D02*
X110916828Y-126349775D01*
X112416828Y-125921203D02*
X110916828Y-125921203D01*
X132736828Y-122278345D02*
X131236828Y-122278345D01*
X131236828Y-122278345D02*
X131236828Y-122635488D01*
X131236828Y-122635488D02*
X131308257Y-122849774D01*
X131308257Y-122849774D02*
X131451114Y-122992631D01*
X131451114Y-122992631D02*
X131593971Y-123064060D01*
X131593971Y-123064060D02*
X131879685Y-123135488D01*
X131879685Y-123135488D02*
X132093971Y-123135488D01*
X132093971Y-123135488D02*
X132379685Y-123064060D01*
X132379685Y-123064060D02*
X132522542Y-122992631D01*
X132522542Y-122992631D02*
X132665400Y-122849774D01*
X132665400Y-122849774D02*
X132736828Y-122635488D01*
X132736828Y-122635488D02*
X132736828Y-122278345D01*
X131165400Y-124849774D02*
X133093971Y-123564060D01*
X132593971Y-126206917D02*
X132665400Y-126135489D01*
X132665400Y-126135489D02*
X132736828Y-125921203D01*
X132736828Y-125921203D02*
X132736828Y-125778346D01*
X132736828Y-125778346D02*
X132665400Y-125564060D01*
X132665400Y-125564060D02*
X132522542Y-125421203D01*
X132522542Y-125421203D02*
X132379685Y-125349774D01*
X132379685Y-125349774D02*
X132093971Y-125278346D01*
X132093971Y-125278346D02*
X131879685Y-125278346D01*
X131879685Y-125278346D02*
X131593971Y-125349774D01*
X131593971Y-125349774D02*
X131451114Y-125421203D01*
X131451114Y-125421203D02*
X131308257Y-125564060D01*
X131308257Y-125564060D02*
X131236828Y-125778346D01*
X131236828Y-125778346D02*
X131236828Y-125921203D01*
X131236828Y-125921203D02*
X131308257Y-126135489D01*
X131308257Y-126135489D02*
X131379685Y-126206917D01*
X127585400Y-122349775D02*
X127656828Y-122564061D01*
X127656828Y-122564061D02*
X127656828Y-122921203D01*
X127656828Y-122921203D02*
X127585400Y-123064061D01*
X127585400Y-123064061D02*
X127513971Y-123135489D01*
X127513971Y-123135489D02*
X127371114Y-123206918D01*
X127371114Y-123206918D02*
X127228257Y-123206918D01*
X127228257Y-123206918D02*
X127085400Y-123135489D01*
X127085400Y-123135489D02*
X127013971Y-123064061D01*
X127013971Y-123064061D02*
X126942542Y-122921203D01*
X126942542Y-122921203D02*
X126871114Y-122635489D01*
X126871114Y-122635489D02*
X126799685Y-122492632D01*
X126799685Y-122492632D02*
X126728257Y-122421203D01*
X126728257Y-122421203D02*
X126585400Y-122349775D01*
X126585400Y-122349775D02*
X126442542Y-122349775D01*
X126442542Y-122349775D02*
X126299685Y-122421203D01*
X126299685Y-122421203D02*
X126228257Y-122492632D01*
X126228257Y-122492632D02*
X126156828Y-122635489D01*
X126156828Y-122635489D02*
X126156828Y-122992632D01*
X126156828Y-122992632D02*
X126228257Y-123206918D01*
X127513971Y-124706917D02*
X127585400Y-124635489D01*
X127585400Y-124635489D02*
X127656828Y-124421203D01*
X127656828Y-124421203D02*
X127656828Y-124278346D01*
X127656828Y-124278346D02*
X127585400Y-124064060D01*
X127585400Y-124064060D02*
X127442542Y-123921203D01*
X127442542Y-123921203D02*
X127299685Y-123849774D01*
X127299685Y-123849774D02*
X127013971Y-123778346D01*
X127013971Y-123778346D02*
X126799685Y-123778346D01*
X126799685Y-123778346D02*
X126513971Y-123849774D01*
X126513971Y-123849774D02*
X126371114Y-123921203D01*
X126371114Y-123921203D02*
X126228257Y-124064060D01*
X126228257Y-124064060D02*
X126156828Y-124278346D01*
X126156828Y-124278346D02*
X126156828Y-124421203D01*
X126156828Y-124421203D02*
X126228257Y-124635489D01*
X126228257Y-124635489D02*
X126299685Y-124706917D01*
X127656828Y-125349774D02*
X126156828Y-125349774D01*
X127656828Y-126206917D02*
X126799685Y-125564060D01*
X126156828Y-126206917D02*
X127013971Y-125349774D01*
X137673971Y-124778346D02*
X137745400Y-124706918D01*
X137745400Y-124706918D02*
X137816828Y-124492632D01*
X137816828Y-124492632D02*
X137816828Y-124349775D01*
X137816828Y-124349775D02*
X137745400Y-124135489D01*
X137745400Y-124135489D02*
X137602542Y-123992632D01*
X137602542Y-123992632D02*
X137459685Y-123921203D01*
X137459685Y-123921203D02*
X137173971Y-123849775D01*
X137173971Y-123849775D02*
X136959685Y-123849775D01*
X136959685Y-123849775D02*
X136673971Y-123921203D01*
X136673971Y-123921203D02*
X136531114Y-123992632D01*
X136531114Y-123992632D02*
X136388257Y-124135489D01*
X136388257Y-124135489D02*
X136316828Y-124349775D01*
X136316828Y-124349775D02*
X136316828Y-124492632D01*
X136316828Y-124492632D02*
X136388257Y-124706918D01*
X136388257Y-124706918D02*
X136459685Y-124778346D01*
X137745400Y-125349775D02*
X137816828Y-125564061D01*
X137816828Y-125564061D02*
X137816828Y-125921203D01*
X137816828Y-125921203D02*
X137745400Y-126064061D01*
X137745400Y-126064061D02*
X137673971Y-126135489D01*
X137673971Y-126135489D02*
X137531114Y-126206918D01*
X137531114Y-126206918D02*
X137388257Y-126206918D01*
X137388257Y-126206918D02*
X137245400Y-126135489D01*
X137245400Y-126135489D02*
X137173971Y-126064061D01*
X137173971Y-126064061D02*
X137102542Y-125921203D01*
X137102542Y-125921203D02*
X137031114Y-125635489D01*
X137031114Y-125635489D02*
X136959685Y-125492632D01*
X136959685Y-125492632D02*
X136888257Y-125421203D01*
X136888257Y-125421203D02*
X136745400Y-125349775D01*
X136745400Y-125349775D02*
X136602542Y-125349775D01*
X136602542Y-125349775D02*
X136459685Y-125421203D01*
X136459685Y-125421203D02*
X136388257Y-125492632D01*
X136388257Y-125492632D02*
X136316828Y-125635489D01*
X136316828Y-125635489D02*
X136316828Y-125992632D01*
X136316828Y-125992632D02*
X136388257Y-126206918D01*
X108376828Y-120564060D02*
X108376828Y-121421203D01*
X109876828Y-120992631D02*
X108376828Y-120992631D01*
X110019685Y-121564060D02*
X110019685Y-122706917D01*
X109876828Y-123064059D02*
X108376828Y-123064059D01*
X109876828Y-124635488D02*
X109162542Y-124135488D01*
X109876828Y-123778345D02*
X108376828Y-123778345D01*
X108376828Y-123778345D02*
X108376828Y-124349774D01*
X108376828Y-124349774D02*
X108448257Y-124492631D01*
X108448257Y-124492631D02*
X108519685Y-124564060D01*
X108519685Y-124564060D02*
X108662542Y-124635488D01*
X108662542Y-124635488D02*
X108876828Y-124635488D01*
X108876828Y-124635488D02*
X109019685Y-124564060D01*
X109019685Y-124564060D02*
X109091114Y-124492631D01*
X109091114Y-124492631D02*
X109162542Y-124349774D01*
X109162542Y-124349774D02*
X109162542Y-123778345D01*
X110019685Y-126278345D02*
X109948257Y-126135488D01*
X109948257Y-126135488D02*
X109805400Y-125992631D01*
X109805400Y-125992631D02*
X109591114Y-125778345D01*
X109591114Y-125778345D02*
X109519685Y-125635488D01*
X109519685Y-125635488D02*
X109519685Y-125492631D01*
X109876828Y-125564060D02*
X109805400Y-125421203D01*
X109805400Y-125421203D02*
X109662542Y-125278345D01*
X109662542Y-125278345D02*
X109376828Y-125206917D01*
X109376828Y-125206917D02*
X108876828Y-125206917D01*
X108876828Y-125206917D02*
X108591114Y-125278345D01*
X108591114Y-125278345D02*
X108448257Y-125421203D01*
X108448257Y-125421203D02*
X108376828Y-125564060D01*
X108376828Y-125564060D02*
X108376828Y-125849774D01*
X108376828Y-125849774D02*
X108448257Y-125992631D01*
X108448257Y-125992631D02*
X108591114Y-126135488D01*
X108591114Y-126135488D02*
X108876828Y-126206917D01*
X108876828Y-126206917D02*
X109376828Y-126206917D01*
X109376828Y-126206917D02*
X109662542Y-126135488D01*
X109662542Y-126135488D02*
X109805400Y-125992631D01*
X109805400Y-125992631D02*
X109876828Y-125849774D01*
X109876828Y-125849774D02*
X109876828Y-125564060D01*
X141396828Y-122349775D02*
X142896828Y-122849775D01*
X142896828Y-122849775D02*
X141396828Y-123349775D01*
X142753971Y-124706917D02*
X142825400Y-124635489D01*
X142825400Y-124635489D02*
X142896828Y-124421203D01*
X142896828Y-124421203D02*
X142896828Y-124278346D01*
X142896828Y-124278346D02*
X142825400Y-124064060D01*
X142825400Y-124064060D02*
X142682542Y-123921203D01*
X142682542Y-123921203D02*
X142539685Y-123849774D01*
X142539685Y-123849774D02*
X142253971Y-123778346D01*
X142253971Y-123778346D02*
X142039685Y-123778346D01*
X142039685Y-123778346D02*
X141753971Y-123849774D01*
X141753971Y-123849774D02*
X141611114Y-123921203D01*
X141611114Y-123921203D02*
X141468257Y-124064060D01*
X141468257Y-124064060D02*
X141396828Y-124278346D01*
X141396828Y-124278346D02*
X141396828Y-124421203D01*
X141396828Y-124421203D02*
X141468257Y-124635489D01*
X141468257Y-124635489D02*
X141539685Y-124706917D01*
X142753971Y-126206917D02*
X142825400Y-126135489D01*
X142825400Y-126135489D02*
X142896828Y-125921203D01*
X142896828Y-125921203D02*
X142896828Y-125778346D01*
X142896828Y-125778346D02*
X142825400Y-125564060D01*
X142825400Y-125564060D02*
X142682542Y-125421203D01*
X142682542Y-125421203D02*
X142539685Y-125349774D01*
X142539685Y-125349774D02*
X142253971Y-125278346D01*
X142253971Y-125278346D02*
X142039685Y-125278346D01*
X142039685Y-125278346D02*
X141753971Y-125349774D01*
X141753971Y-125349774D02*
X141611114Y-125421203D01*
X141611114Y-125421203D02*
X141468257Y-125564060D01*
X141468257Y-125564060D02*
X141396828Y-125778346D01*
X141396828Y-125778346D02*
X141396828Y-125921203D01*
X141396828Y-125921203D02*
X141468257Y-126135489D01*
X141468257Y-126135489D02*
X141539685Y-126206917D01*
X135276828Y-120921203D02*
X134562542Y-120421203D01*
X135276828Y-120064060D02*
X133776828Y-120064060D01*
X133776828Y-120064060D02*
X133776828Y-120635489D01*
X133776828Y-120635489D02*
X133848257Y-120778346D01*
X133848257Y-120778346D02*
X133919685Y-120849775D01*
X133919685Y-120849775D02*
X134062542Y-120921203D01*
X134062542Y-120921203D02*
X134276828Y-120921203D01*
X134276828Y-120921203D02*
X134419685Y-120849775D01*
X134419685Y-120849775D02*
X134491114Y-120778346D01*
X134491114Y-120778346D02*
X134562542Y-120635489D01*
X134562542Y-120635489D02*
X134562542Y-120064060D01*
X134491114Y-121564060D02*
X134491114Y-122064060D01*
X135276828Y-122278346D02*
X135276828Y-121564060D01*
X135276828Y-121564060D02*
X133776828Y-121564060D01*
X133776828Y-121564060D02*
X133776828Y-122278346D01*
X135205400Y-122849775D02*
X135276828Y-123064061D01*
X135276828Y-123064061D02*
X135276828Y-123421203D01*
X135276828Y-123421203D02*
X135205400Y-123564061D01*
X135205400Y-123564061D02*
X135133971Y-123635489D01*
X135133971Y-123635489D02*
X134991114Y-123706918D01*
X134991114Y-123706918D02*
X134848257Y-123706918D01*
X134848257Y-123706918D02*
X134705400Y-123635489D01*
X134705400Y-123635489D02*
X134633971Y-123564061D01*
X134633971Y-123564061D02*
X134562542Y-123421203D01*
X134562542Y-123421203D02*
X134491114Y-123135489D01*
X134491114Y-123135489D02*
X134419685Y-122992632D01*
X134419685Y-122992632D02*
X134348257Y-122921203D01*
X134348257Y-122921203D02*
X134205400Y-122849775D01*
X134205400Y-122849775D02*
X134062542Y-122849775D01*
X134062542Y-122849775D02*
X133919685Y-122921203D01*
X133919685Y-122921203D02*
X133848257Y-122992632D01*
X133848257Y-122992632D02*
X133776828Y-123135489D01*
X133776828Y-123135489D02*
X133776828Y-123492632D01*
X133776828Y-123492632D02*
X133848257Y-123706918D01*
X134491114Y-124349774D02*
X134491114Y-124849774D01*
X135276828Y-125064060D02*
X135276828Y-124349774D01*
X135276828Y-124349774D02*
X133776828Y-124349774D01*
X133776828Y-124349774D02*
X133776828Y-125064060D01*
X133776828Y-125492632D02*
X133776828Y-126349775D01*
X135276828Y-125921203D02*
X133776828Y-125921203D01*
X118536828Y-120135489D02*
X118536828Y-120992632D01*
X120036828Y-120564060D02*
X118536828Y-120564060D01*
X120179685Y-121135489D02*
X120179685Y-122278346D01*
X119893971Y-123492631D02*
X119965400Y-123421203D01*
X119965400Y-123421203D02*
X120036828Y-123206917D01*
X120036828Y-123206917D02*
X120036828Y-123064060D01*
X120036828Y-123064060D02*
X119965400Y-122849774D01*
X119965400Y-122849774D02*
X119822542Y-122706917D01*
X119822542Y-122706917D02*
X119679685Y-122635488D01*
X119679685Y-122635488D02*
X119393971Y-122564060D01*
X119393971Y-122564060D02*
X119179685Y-122564060D01*
X119179685Y-122564060D02*
X118893971Y-122635488D01*
X118893971Y-122635488D02*
X118751114Y-122706917D01*
X118751114Y-122706917D02*
X118608257Y-122849774D01*
X118608257Y-122849774D02*
X118536828Y-123064060D01*
X118536828Y-123064060D02*
X118536828Y-123206917D01*
X118536828Y-123206917D02*
X118608257Y-123421203D01*
X118608257Y-123421203D02*
X118679685Y-123492631D01*
X120036828Y-124849774D02*
X120036828Y-124135488D01*
X120036828Y-124135488D02*
X118536828Y-124135488D01*
X120036828Y-125349774D02*
X118536828Y-125349774D01*
X120036828Y-126206917D02*
X119179685Y-125564060D01*
X118536828Y-126206917D02*
X119393971Y-125349774D01*
X138928257Y-123064060D02*
X138856828Y-122921203D01*
X138856828Y-122921203D02*
X138856828Y-122706917D01*
X138856828Y-122706917D02*
X138928257Y-122492631D01*
X138928257Y-122492631D02*
X139071114Y-122349774D01*
X139071114Y-122349774D02*
X139213971Y-122278345D01*
X139213971Y-122278345D02*
X139499685Y-122206917D01*
X139499685Y-122206917D02*
X139713971Y-122206917D01*
X139713971Y-122206917D02*
X139999685Y-122278345D01*
X139999685Y-122278345D02*
X140142542Y-122349774D01*
X140142542Y-122349774D02*
X140285400Y-122492631D01*
X140285400Y-122492631D02*
X140356828Y-122706917D01*
X140356828Y-122706917D02*
X140356828Y-122849774D01*
X140356828Y-122849774D02*
X140285400Y-123064060D01*
X140285400Y-123064060D02*
X140213971Y-123135488D01*
X140213971Y-123135488D02*
X139713971Y-123135488D01*
X139713971Y-123135488D02*
X139713971Y-122849774D01*
X140356828Y-123778345D02*
X138856828Y-123778345D01*
X138856828Y-123778345D02*
X140356828Y-124635488D01*
X140356828Y-124635488D02*
X138856828Y-124635488D01*
X140356828Y-125349774D02*
X138856828Y-125349774D01*
X138856828Y-125349774D02*
X138856828Y-125706917D01*
X138856828Y-125706917D02*
X138928257Y-125921203D01*
X138928257Y-125921203D02*
X139071114Y-126064060D01*
X139071114Y-126064060D02*
X139213971Y-126135489D01*
X139213971Y-126135489D02*
X139499685Y-126206917D01*
X139499685Y-126206917D02*
X139713971Y-126206917D01*
X139713971Y-126206917D02*
X139999685Y-126135489D01*
X139999685Y-126135489D02*
X140142542Y-126064060D01*
X140142542Y-126064060D02*
X140285400Y-125921203D01*
X140285400Y-125921203D02*
X140356828Y-125706917D01*
X140356828Y-125706917D02*
X140356828Y-125349774D01*
X122505400Y-114849774D02*
X122576828Y-115064060D01*
X122576828Y-115064060D02*
X122576828Y-115421202D01*
X122576828Y-115421202D02*
X122505400Y-115564060D01*
X122505400Y-115564060D02*
X122433971Y-115635488D01*
X122433971Y-115635488D02*
X122291114Y-115706917D01*
X122291114Y-115706917D02*
X122148257Y-115706917D01*
X122148257Y-115706917D02*
X122005400Y-115635488D01*
X122005400Y-115635488D02*
X121933971Y-115564060D01*
X121933971Y-115564060D02*
X121862542Y-115421202D01*
X121862542Y-115421202D02*
X121791114Y-115135488D01*
X121791114Y-115135488D02*
X121719685Y-114992631D01*
X121719685Y-114992631D02*
X121648257Y-114921202D01*
X121648257Y-114921202D02*
X121505400Y-114849774D01*
X121505400Y-114849774D02*
X121362542Y-114849774D01*
X121362542Y-114849774D02*
X121219685Y-114921202D01*
X121219685Y-114921202D02*
X121148257Y-114992631D01*
X121148257Y-114992631D02*
X121076828Y-115135488D01*
X121076828Y-115135488D02*
X121076828Y-115492631D01*
X121076828Y-115492631D02*
X121148257Y-115706917D01*
X122576828Y-116349773D02*
X121076828Y-116349773D01*
X121076828Y-116349773D02*
X121076828Y-116706916D01*
X121076828Y-116706916D02*
X121148257Y-116921202D01*
X121148257Y-116921202D02*
X121291114Y-117064059D01*
X121291114Y-117064059D02*
X121433971Y-117135488D01*
X121433971Y-117135488D02*
X121719685Y-117206916D01*
X121719685Y-117206916D02*
X121933971Y-117206916D01*
X121933971Y-117206916D02*
X122219685Y-117135488D01*
X122219685Y-117135488D02*
X122362542Y-117064059D01*
X122362542Y-117064059D02*
X122505400Y-116921202D01*
X122505400Y-116921202D02*
X122576828Y-116706916D01*
X122576828Y-116706916D02*
X122576828Y-116349773D01*
X121076828Y-118135488D02*
X121076828Y-118421202D01*
X121076828Y-118421202D02*
X121148257Y-118564059D01*
X121148257Y-118564059D02*
X121291114Y-118706916D01*
X121291114Y-118706916D02*
X121576828Y-118778345D01*
X121576828Y-118778345D02*
X122076828Y-118778345D01*
X122076828Y-118778345D02*
X122362542Y-118706916D01*
X122362542Y-118706916D02*
X122505400Y-118564059D01*
X122505400Y-118564059D02*
X122576828Y-118421202D01*
X122576828Y-118421202D02*
X122576828Y-118135488D01*
X122576828Y-118135488D02*
X122505400Y-117992631D01*
X122505400Y-117992631D02*
X122362542Y-117849773D01*
X122362542Y-117849773D02*
X122076828Y-117778345D01*
X122076828Y-117778345D02*
X121576828Y-117778345D01*
X121576828Y-117778345D02*
X121291114Y-117849773D01*
X121291114Y-117849773D02*
X121148257Y-117992631D01*
X121148257Y-117992631D02*
X121076828Y-118135488D01*
X123148257Y-119849774D02*
X123076828Y-119778345D01*
X123076828Y-119778345D02*
X122862542Y-119635488D01*
X122862542Y-119635488D02*
X122719685Y-119564060D01*
X122719685Y-119564060D02*
X122505400Y-119492631D01*
X122505400Y-119492631D02*
X122148257Y-119421202D01*
X122148257Y-119421202D02*
X121862542Y-119421202D01*
X121862542Y-119421202D02*
X121505400Y-119492631D01*
X121505400Y-119492631D02*
X121291114Y-119564060D01*
X121291114Y-119564060D02*
X121148257Y-119635488D01*
X121148257Y-119635488D02*
X120933971Y-119778345D01*
X120933971Y-119778345D02*
X120862542Y-119849774D01*
X122576828Y-120421202D02*
X121076828Y-120421202D01*
X121076828Y-120421202D02*
X122148257Y-120921202D01*
X122148257Y-120921202D02*
X121076828Y-121421202D01*
X121076828Y-121421202D02*
X122576828Y-121421202D01*
X122576828Y-122135488D02*
X121076828Y-122135488D01*
X122505400Y-122778346D02*
X122576828Y-122992632D01*
X122576828Y-122992632D02*
X122576828Y-123349774D01*
X122576828Y-123349774D02*
X122505400Y-123492632D01*
X122505400Y-123492632D02*
X122433971Y-123564060D01*
X122433971Y-123564060D02*
X122291114Y-123635489D01*
X122291114Y-123635489D02*
X122148257Y-123635489D01*
X122148257Y-123635489D02*
X122005400Y-123564060D01*
X122005400Y-123564060D02*
X121933971Y-123492632D01*
X121933971Y-123492632D02*
X121862542Y-123349774D01*
X121862542Y-123349774D02*
X121791114Y-123064060D01*
X121791114Y-123064060D02*
X121719685Y-122921203D01*
X121719685Y-122921203D02*
X121648257Y-122849774D01*
X121648257Y-122849774D02*
X121505400Y-122778346D01*
X121505400Y-122778346D02*
X121362542Y-122778346D01*
X121362542Y-122778346D02*
X121219685Y-122849774D01*
X121219685Y-122849774D02*
X121148257Y-122921203D01*
X121148257Y-122921203D02*
X121076828Y-123064060D01*
X121076828Y-123064060D02*
X121076828Y-123421203D01*
X121076828Y-123421203D02*
X121148257Y-123635489D01*
X121076828Y-124564060D02*
X121076828Y-124849774D01*
X121076828Y-124849774D02*
X121148257Y-124992631D01*
X121148257Y-124992631D02*
X121291114Y-125135488D01*
X121291114Y-125135488D02*
X121576828Y-125206917D01*
X121576828Y-125206917D02*
X122076828Y-125206917D01*
X122076828Y-125206917D02*
X122362542Y-125135488D01*
X122362542Y-125135488D02*
X122505400Y-124992631D01*
X122505400Y-124992631D02*
X122576828Y-124849774D01*
X122576828Y-124849774D02*
X122576828Y-124564060D01*
X122576828Y-124564060D02*
X122505400Y-124421203D01*
X122505400Y-124421203D02*
X122362542Y-124278345D01*
X122362542Y-124278345D02*
X122076828Y-124206917D01*
X122076828Y-124206917D02*
X121576828Y-124206917D01*
X121576828Y-124206917D02*
X121291114Y-124278345D01*
X121291114Y-124278345D02*
X121148257Y-124421203D01*
X121148257Y-124421203D02*
X121076828Y-124564060D01*
X123148257Y-125706917D02*
X123076828Y-125778346D01*
X123076828Y-125778346D02*
X122862542Y-125921203D01*
X122862542Y-125921203D02*
X122719685Y-125992632D01*
X122719685Y-125992632D02*
X122505400Y-126064060D01*
X122505400Y-126064060D02*
X122148257Y-126135489D01*
X122148257Y-126135489D02*
X121862542Y-126135489D01*
X121862542Y-126135489D02*
X121505400Y-126064060D01*
X121505400Y-126064060D02*
X121291114Y-125992632D01*
X121291114Y-125992632D02*
X121148257Y-125921203D01*
X121148257Y-125921203D02*
X120933971Y-125778346D01*
X120933971Y-125778346D02*
X120862542Y-125706917D01*
G36*
X87534060Y-146290828D02*
G01*
X87351260Y-146290828D01*
X87193657Y-146238294D01*
X87093052Y-146137688D01*
X87039871Y-146031328D01*
X86976917Y-145779507D01*
X86976917Y-145602148D01*
X87039871Y-145350327D01*
X87093052Y-145243967D01*
X87193658Y-145143361D01*
X87351260Y-145090828D01*
X87534060Y-145090828D01*
X87534060Y-146290828D01*
G37*
G36*
X90309492Y-145135535D02*
G01*
X90405758Y-145231801D01*
X90462631Y-145459291D01*
X90462631Y-145922364D01*
X90405758Y-146149854D01*
X90309492Y-146246121D01*
X90220079Y-146290828D01*
X90005184Y-146290828D01*
X89915771Y-146246121D01*
X89819504Y-146149854D01*
X89762631Y-145922362D01*
X89762631Y-145459293D01*
X89819504Y-145231801D01*
X89915771Y-145135534D01*
X90005184Y-145090828D01*
X90220078Y-145090828D01*
X90309492Y-145135535D01*
G37*
G36*
X88833089Y-145862257D02*
G01*
X88535030Y-145862257D01*
X88684059Y-145415169D01*
X88833089Y-145862257D01*
G37*
G36*
X92072156Y-146757495D02*
G01*
X83224535Y-146757495D01*
X83224535Y-145226542D01*
X83391202Y-145226542D01*
X83391202Y-145369400D01*
X83392660Y-145384211D01*
X83392380Y-145388161D01*
X83393561Y-145393355D01*
X83394084Y-145398664D01*
X83395600Y-145402325D01*
X83398900Y-145416835D01*
X83470329Y-145631119D01*
X83482317Y-145657970D01*
X83485847Y-145662040D01*
X83487910Y-145667020D01*
X83506565Y-145689751D01*
X84107642Y-146290828D01*
X83541202Y-146290828D01*
X83511938Y-146293710D01*
X83457866Y-146316108D01*
X83416482Y-146357492D01*
X83394084Y-146411564D01*
X83394084Y-146470092D01*
X83416482Y-146524164D01*
X83457866Y-146565548D01*
X83511938Y-146587946D01*
X83541202Y-146590828D01*
X84469774Y-146590828D01*
X84499038Y-146587946D01*
X84530311Y-146574992D01*
X84553109Y-146565549D01*
X84594495Y-146524163D01*
X84607614Y-146492489D01*
X84616892Y-146470092D01*
X84616892Y-146411564D01*
X84602312Y-146376365D01*
X84594495Y-146357492D01*
X84575840Y-146334762D01*
X84081214Y-145840136D01*
X84894085Y-145840136D01*
X84894085Y-145898664D01*
X84916483Y-145952736D01*
X84957867Y-145994120D01*
X85011939Y-146016518D01*
X85041203Y-146019400D01*
X86184060Y-146019400D01*
X86213324Y-146016518D01*
X86267396Y-145994120D01*
X86308780Y-145952736D01*
X86331178Y-145898664D01*
X86331178Y-145840136D01*
X86308780Y-145786064D01*
X86267396Y-145744680D01*
X86213324Y-145722282D01*
X86184060Y-145719400D01*
X85041203Y-145719400D01*
X85011939Y-145722282D01*
X84957867Y-145744680D01*
X84916483Y-145786064D01*
X84894085Y-145840136D01*
X84081214Y-145840136D01*
X83824763Y-145583685D01*
X86676917Y-145583685D01*
X86676917Y-145797971D01*
X86677419Y-145803074D01*
X86677094Y-145805262D01*
X86678713Y-145816212D01*
X86679799Y-145827235D01*
X86680646Y-145829279D01*
X86681396Y-145834351D01*
X86752824Y-146120065D01*
X86753595Y-146122223D01*
X86753672Y-146123304D01*
X86758330Y-146135478D01*
X86762717Y-146147756D01*
X86763361Y-146148626D01*
X86764181Y-146150767D01*
X86835610Y-146293624D01*
X86843537Y-146306217D01*
X86845053Y-146309877D01*
X86848434Y-146313996D01*
X86851275Y-146318510D01*
X86854268Y-146321106D01*
X86863708Y-146332608D01*
X87006565Y-146475466D01*
X87029295Y-146494121D01*
X87034274Y-146496183D01*
X87038346Y-146499715D01*
X87065197Y-146511703D01*
X87279483Y-146583131D01*
X87293995Y-146586430D01*
X87297653Y-146587946D01*
X87302955Y-146588468D01*
X87308157Y-146589651D01*
X87312111Y-146589369D01*
X87326917Y-146590828D01*
X87684060Y-146590828D01*
X87713324Y-146587946D01*
X87767396Y-146565548D01*
X87808780Y-146524164D01*
X87831178Y-146470092D01*
X87831178Y-146470091D01*
X87834060Y-146440828D01*
X87834060Y-146422067D01*
X88035237Y-146422067D01*
X88039386Y-146480448D01*
X88065560Y-146532795D01*
X88109774Y-146571142D01*
X88165298Y-146589650D01*
X88223679Y-146585501D01*
X88276026Y-146559327D01*
X88314373Y-146515113D01*
X88326361Y-146488262D01*
X88435030Y-146162257D01*
X88933089Y-146162257D01*
X89041757Y-146488262D01*
X89053745Y-146515113D01*
X89092092Y-146559328D01*
X89144440Y-146585501D01*
X89202820Y-146589651D01*
X89258344Y-146571142D01*
X89302558Y-146532795D01*
X89328732Y-146480448D01*
X89332882Y-146422068D01*
X89326362Y-146393394D01*
X89008839Y-145440828D01*
X89462631Y-145440828D01*
X89462631Y-145940828D01*
X89463133Y-145945931D01*
X89462808Y-145948119D01*
X89464427Y-145959070D01*
X89465513Y-145970092D01*
X89466359Y-145972136D01*
X89467110Y-145977209D01*
X89538539Y-146262922D01*
X89548432Y-146290613D01*
X89555071Y-146299573D01*
X89559339Y-146309877D01*
X89577994Y-146332608D01*
X89720851Y-146475466D01*
X89732357Y-146484909D01*
X89734950Y-146487899D01*
X89739455Y-146490735D01*
X89743581Y-146494121D01*
X89747244Y-146495638D01*
X89759835Y-146503564D01*
X89902693Y-146574992D01*
X89930156Y-146585502D01*
X89935531Y-146585883D01*
X89940510Y-146587946D01*
X89969774Y-146590828D01*
X90255488Y-146590828D01*
X90284752Y-146587946D01*
X90289730Y-146585883D01*
X90295106Y-146585502D01*
X90322569Y-146574992D01*
X90465428Y-146503564D01*
X90478018Y-146495638D01*
X90481682Y-146494121D01*
X90485807Y-146490735D01*
X90490313Y-146487899D01*
X90492906Y-146484909D01*
X90504412Y-146475466D01*
X90568314Y-146411564D01*
X90894085Y-146411564D01*
X90894085Y-146470092D01*
X90916483Y-146524164D01*
X90957867Y-146565548D01*
X91011939Y-146587946D01*
X91041203Y-146590828D01*
X91755489Y-146590828D01*
X91784753Y-146587946D01*
X91838825Y-146565548D01*
X91880209Y-146524164D01*
X91902607Y-146470092D01*
X91902607Y-146470091D01*
X91905489Y-146440828D01*
X91905489Y-144940828D01*
X91902607Y-144911564D01*
X91880209Y-144857492D01*
X91838825Y-144816108D01*
X91784753Y-144793710D01*
X91726225Y-144793710D01*
X91672153Y-144816108D01*
X91630769Y-144857492D01*
X91608371Y-144911564D01*
X91605489Y-144940828D01*
X91605489Y-146290828D01*
X91041203Y-146290828D01*
X91011939Y-146293710D01*
X90957867Y-146316108D01*
X90916483Y-146357492D01*
X90894085Y-146411564D01*
X90568314Y-146411564D01*
X90647269Y-146332608D01*
X90665924Y-146309877D01*
X90670191Y-146299573D01*
X90676831Y-146290613D01*
X90686724Y-146262922D01*
X90758152Y-145977208D01*
X90758901Y-145972136D01*
X90759749Y-145970092D01*
X90760834Y-145959069D01*
X90762454Y-145948119D01*
X90762128Y-145945931D01*
X90762631Y-145940828D01*
X90762631Y-145440828D01*
X90762128Y-145435724D01*
X90762454Y-145433537D01*
X90760834Y-145422586D01*
X90759749Y-145411564D01*
X90758901Y-145409519D01*
X90758152Y-145404448D01*
X90686724Y-145118734D01*
X90676831Y-145091043D01*
X90670192Y-145082083D01*
X90665924Y-145071778D01*
X90647269Y-145049048D01*
X90504412Y-144906191D01*
X90492910Y-144896751D01*
X90490314Y-144893758D01*
X90485800Y-144890917D01*
X90481681Y-144887536D01*
X90478021Y-144886020D01*
X90465428Y-144878093D01*
X90322570Y-144806664D01*
X90295107Y-144796154D01*
X90289729Y-144795771D01*
X90284752Y-144793710D01*
X90255488Y-144790828D01*
X89969774Y-144790828D01*
X89940510Y-144793710D01*
X89935529Y-144795773D01*
X89930155Y-144796155D01*
X89902691Y-144806664D01*
X89759835Y-144878093D01*
X89747243Y-144886019D01*
X89743581Y-144887536D01*
X89739458Y-144890919D01*
X89734949Y-144893758D01*
X89732353Y-144896750D01*
X89720851Y-144906191D01*
X89577994Y-145049048D01*
X89559339Y-145071779D01*
X89555071Y-145082082D01*
X89548432Y-145091043D01*
X89538539Y-145118734D01*
X89467110Y-145404447D01*
X89466359Y-145409519D01*
X89465513Y-145411564D01*
X89464427Y-145422585D01*
X89462808Y-145433537D01*
X89463133Y-145435724D01*
X89462631Y-145440828D01*
X89008839Y-145440828D01*
X88826361Y-144893394D01*
X88814373Y-144866543D01*
X88807350Y-144858446D01*
X88802558Y-144848861D01*
X88788349Y-144836537D01*
X88776026Y-144822329D01*
X88766440Y-144817536D01*
X88758344Y-144810514D01*
X88740500Y-144804565D01*
X88723679Y-144796155D01*
X88712990Y-144795395D01*
X88702820Y-144792005D01*
X88684054Y-144793338D01*
X88665298Y-144792006D01*
X88655130Y-144795395D01*
X88644440Y-144796155D01*
X88627616Y-144804566D01*
X88609774Y-144810514D01*
X88601679Y-144817534D01*
X88592092Y-144822328D01*
X88579766Y-144836539D01*
X88565560Y-144848861D01*
X88560767Y-144858445D01*
X88553745Y-144866543D01*
X88541757Y-144893394D01*
X88041757Y-146393394D01*
X88035237Y-146422067D01*
X87834060Y-146422067D01*
X87834060Y-144940828D01*
X87831178Y-144911564D01*
X87808780Y-144857492D01*
X87767396Y-144816108D01*
X87713324Y-144793710D01*
X87684060Y-144790828D01*
X87326917Y-144790828D01*
X87312105Y-144792286D01*
X87308156Y-144792006D01*
X87302961Y-144793187D01*
X87297653Y-144793710D01*
X87293991Y-144795226D01*
X87279482Y-144798526D01*
X87065197Y-144869955D01*
X87038346Y-144881943D01*
X87034276Y-144885472D01*
X87029295Y-144887536D01*
X87006565Y-144906191D01*
X86863708Y-145049048D01*
X86854268Y-145060549D01*
X86851275Y-145063146D01*
X86848434Y-145067659D01*
X86845053Y-145071779D01*
X86843537Y-145075438D01*
X86835610Y-145088032D01*
X86764181Y-145230889D01*
X86763361Y-145233029D01*
X86762717Y-145233900D01*
X86758330Y-145246177D01*
X86753672Y-145258352D01*
X86753595Y-145259432D01*
X86752824Y-145261591D01*
X86681396Y-145547305D01*
X86680646Y-145552376D01*
X86679799Y-145554421D01*
X86678713Y-145565443D01*
X86677094Y-145576394D01*
X86677419Y-145578581D01*
X86676917Y-145583685D01*
X83824763Y-145583685D01*
X83743735Y-145502657D01*
X83691202Y-145345058D01*
X83691202Y-145261952D01*
X83735909Y-145172538D01*
X83772913Y-145135535D01*
X83862327Y-145090828D01*
X84148650Y-145090828D01*
X84238063Y-145135535D01*
X84292279Y-145189751D01*
X84315009Y-145208406D01*
X84369082Y-145230802D01*
X84427608Y-145230802D01*
X84481680Y-145208406D01*
X84523066Y-145167020D01*
X84545462Y-145112948D01*
X84545462Y-145054422D01*
X84523066Y-145000349D01*
X84504411Y-144977619D01*
X84432983Y-144906191D01*
X84421481Y-144896751D01*
X84418885Y-144893758D01*
X84414371Y-144890917D01*
X84410252Y-144887536D01*
X84406592Y-144886020D01*
X84393999Y-144878093D01*
X84251142Y-144806664D01*
X84223679Y-144796155D01*
X84218304Y-144795773D01*
X84213324Y-144793710D01*
X84184060Y-144790828D01*
X83826917Y-144790828D01*
X83797653Y-144793710D01*
X83792672Y-144795773D01*
X83787298Y-144796155D01*
X83759834Y-144806664D01*
X83616978Y-144878093D01*
X83604384Y-144886020D01*
X83600725Y-144887536D01*
X83596604Y-144890917D01*
X83592092Y-144893758D01*
X83589495Y-144896751D01*
X83577995Y-144906190D01*
X83506566Y-144977618D01*
X83497126Y-144989120D01*
X83494132Y-144991717D01*
X83491290Y-144996231D01*
X83487911Y-145000349D01*
X83486395Y-145004007D01*
X83478467Y-145016603D01*
X83407038Y-145159460D01*
X83396529Y-145186923D01*
X83396147Y-145192297D01*
X83394084Y-145197278D01*
X83391202Y-145226542D01*
X83224535Y-145226542D01*
X83224535Y-144624161D01*
X92072156Y-144624161D01*
X92072156Y-146757495D01*
G37*
X115996828Y-121421204D02*
X115996828Y-122278347D01*
X117496828Y-121849775D02*
X115996828Y-121849775D01*
X117639685Y-122421204D02*
X117639685Y-123564061D01*
X117353971Y-124778346D02*
X117425400Y-124706918D01*
X117425400Y-124706918D02*
X117496828Y-124492632D01*
X117496828Y-124492632D02*
X117496828Y-124349775D01*
X117496828Y-124349775D02*
X117425400Y-124135489D01*
X117425400Y-124135489D02*
X117282542Y-123992632D01*
X117282542Y-123992632D02*
X117139685Y-123921203D01*
X117139685Y-123921203D02*
X116853971Y-123849775D01*
X116853971Y-123849775D02*
X116639685Y-123849775D01*
X116639685Y-123849775D02*
X116353971Y-123921203D01*
X116353971Y-123921203D02*
X116211114Y-123992632D01*
X116211114Y-123992632D02*
X116068257Y-124135489D01*
X116068257Y-124135489D02*
X115996828Y-124349775D01*
X115996828Y-124349775D02*
X115996828Y-124492632D01*
X115996828Y-124492632D02*
X116068257Y-124706918D01*
X116068257Y-124706918D02*
X116139685Y-124778346D01*
X117425400Y-125349775D02*
X117496828Y-125564061D01*
X117496828Y-125564061D02*
X117496828Y-125921203D01*
X117496828Y-125921203D02*
X117425400Y-126064061D01*
X117425400Y-126064061D02*
X117353971Y-126135489D01*
X117353971Y-126135489D02*
X117211114Y-126206918D01*
X117211114Y-126206918D02*
X117068257Y-126206918D01*
X117068257Y-126206918D02*
X116925400Y-126135489D01*
X116925400Y-126135489D02*
X116853971Y-126064061D01*
X116853971Y-126064061D02*
X116782542Y-125921203D01*
X116782542Y-125921203D02*
X116711114Y-125635489D01*
X116711114Y-125635489D02*
X116639685Y-125492632D01*
X116639685Y-125492632D02*
X116568257Y-125421203D01*
X116568257Y-125421203D02*
X116425400Y-125349775D01*
X116425400Y-125349775D02*
X116282542Y-125349775D01*
X116282542Y-125349775D02*
X116139685Y-125421203D01*
X116139685Y-125421203D02*
X116068257Y-125492632D01*
X116068257Y-125492632D02*
X115996828Y-125635489D01*
X115996828Y-125635489D02*
X115996828Y-125992632D01*
X115996828Y-125992632D02*
X116068257Y-126206918D01*
G36*
X66438064Y-145135535D02*
G01*
X66475068Y-145172539D01*
X66528247Y-145278898D01*
X66591203Y-145530720D01*
X66591203Y-145850936D01*
X66528247Y-146102757D01*
X66475067Y-146209117D01*
X66438064Y-146246121D01*
X66348651Y-146290828D01*
X66276613Y-146290828D01*
X66187200Y-146246122D01*
X66150196Y-146209118D01*
X66097016Y-146102758D01*
X66034060Y-145850934D01*
X66034060Y-145530721D01*
X66097016Y-145278897D01*
X66150196Y-145172538D01*
X66187200Y-145135534D01*
X66276613Y-145090828D01*
X66348650Y-145090828D01*
X66438064Y-145135535D01*
G37*
G36*
X73272156Y-146757495D02*
G01*
X64140000Y-146757495D01*
X64140000Y-144959589D01*
X64306667Y-144959589D01*
X64313187Y-144988262D01*
X64813187Y-146488262D01*
X64825175Y-146515113D01*
X64832197Y-146523210D01*
X64836990Y-146532795D01*
X64851196Y-146545116D01*
X64863522Y-146559328D01*
X64873109Y-146564121D01*
X64881204Y-146571142D01*
X64899046Y-146577089D01*
X64915870Y-146585501D01*
X64926560Y-146586260D01*
X64936728Y-146589650D01*
X64955484Y-146588317D01*
X64974250Y-146589651D01*
X64984420Y-146586260D01*
X64995109Y-146585501D01*
X65011930Y-146577090D01*
X65029774Y-146571142D01*
X65037870Y-146564119D01*
X65047456Y-146559327D01*
X65059779Y-146545118D01*
X65073988Y-146532795D01*
X65078780Y-146523209D01*
X65085803Y-146515113D01*
X65097791Y-146488262D01*
X65423127Y-145512257D01*
X65734060Y-145512257D01*
X65734060Y-145869400D01*
X65734562Y-145874503D01*
X65734237Y-145876691D01*
X65735856Y-145887642D01*
X65736942Y-145898664D01*
X65737788Y-145900708D01*
X65738539Y-145905781D01*
X65809968Y-146191494D01*
X65810739Y-146193652D01*
X65810816Y-146194733D01*
X65815474Y-146206907D01*
X65819861Y-146219185D01*
X65820505Y-146220055D01*
X65821325Y-146222196D01*
X65892754Y-146365053D01*
X65900682Y-146377648D01*
X65902197Y-146381305D01*
X65905576Y-146385422D01*
X65908419Y-146389939D01*
X65911413Y-146392536D01*
X65920851Y-146404036D01*
X65992279Y-146475465D01*
X66003784Y-146484907D01*
X66006379Y-146487899D01*
X66010889Y-146490738D01*
X66015010Y-146494120D01*
X66018669Y-146495635D01*
X66031264Y-146503564D01*
X66174122Y-146574992D01*
X66201585Y-146585502D01*
X66206960Y-146585883D01*
X66211939Y-146587946D01*
X66241203Y-146590828D01*
X66384060Y-146590828D01*
X66413324Y-146587946D01*
X66418302Y-146585883D01*
X66423678Y-146585502D01*
X66451141Y-146574992D01*
X66594000Y-146503564D01*
X66606594Y-146495635D01*
X66610254Y-146494120D01*
X66614374Y-146490738D01*
X66618885Y-146487899D01*
X66621479Y-146484907D01*
X66632985Y-146475465D01*
X66704413Y-146404036D01*
X66713851Y-146392535D01*
X66716845Y-146389939D01*
X66719685Y-146385426D01*
X66723067Y-146381306D01*
X66724582Y-146377646D01*
X66732510Y-146365053D01*
X66803939Y-146222197D01*
X66804758Y-146220054D01*
X66805403Y-146219185D01*
X66809787Y-146206913D01*
X66814448Y-146194733D01*
X66814524Y-146193652D01*
X66815296Y-146191494D01*
X66886724Y-145905780D01*
X66887473Y-145900708D01*
X66888321Y-145898664D01*
X66889406Y-145887641D01*
X66891026Y-145876691D01*
X66890700Y-145874503D01*
X66891203Y-145869400D01*
X66891203Y-145512257D01*
X66890700Y-145507153D01*
X66891026Y-145504966D01*
X66889406Y-145494015D01*
X66888321Y-145482993D01*
X66887473Y-145480948D01*
X66886724Y-145475877D01*
X66824391Y-145226542D01*
X67162631Y-145226542D01*
X67162631Y-145369400D01*
X67164089Y-145384211D01*
X67163809Y-145388161D01*
X67164990Y-145393355D01*
X67165513Y-145398664D01*
X67167029Y-145402325D01*
X67170329Y-145416835D01*
X67241758Y-145631119D01*
X67253746Y-145657970D01*
X67257276Y-145662040D01*
X67259339Y-145667020D01*
X67277994Y-145689751D01*
X67879071Y-146290828D01*
X67312631Y-146290828D01*
X67283367Y-146293710D01*
X67229295Y-146316108D01*
X67187911Y-146357492D01*
X67165513Y-146411564D01*
X67165513Y-146470092D01*
X67187911Y-146524164D01*
X67229295Y-146565548D01*
X67283367Y-146587946D01*
X67312631Y-146590828D01*
X68241203Y-146590828D01*
X68270467Y-146587946D01*
X68301740Y-146574992D01*
X68324538Y-146565549D01*
X68365924Y-146524163D01*
X68379043Y-146492489D01*
X68388321Y-146470092D01*
X68388321Y-146411564D01*
X68380733Y-146393245D01*
X68365924Y-146357492D01*
X68347269Y-146334762D01*
X67515164Y-145502657D01*
X67462631Y-145345058D01*
X67462631Y-145261952D01*
X67507338Y-145172538D01*
X67544342Y-145135535D01*
X67633756Y-145090828D01*
X67920079Y-145090828D01*
X68009492Y-145135535D01*
X68063708Y-145189751D01*
X68086438Y-145208406D01*
X68140511Y-145230802D01*
X68199037Y-145230802D01*
X68209322Y-145226542D01*
X68591202Y-145226542D01*
X68591202Y-145369400D01*
X68592660Y-145384211D01*
X68592380Y-145388161D01*
X68593561Y-145393355D01*
X68594084Y-145398664D01*
X68595600Y-145402325D01*
X68598900Y-145416835D01*
X68670329Y-145631119D01*
X68682317Y-145657970D01*
X68685847Y-145662040D01*
X68687910Y-145667020D01*
X68706565Y-145689751D01*
X69307642Y-146290828D01*
X68741202Y-146290828D01*
X68711938Y-146293710D01*
X68657866Y-146316108D01*
X68616482Y-146357492D01*
X68594084Y-146411564D01*
X68594084Y-146470092D01*
X68616482Y-146524164D01*
X68657866Y-146565548D01*
X68711938Y-146587946D01*
X68741202Y-146590828D01*
X69669774Y-146590828D01*
X69699038Y-146587946D01*
X69730311Y-146574992D01*
X69753109Y-146565549D01*
X69794495Y-146524163D01*
X69807614Y-146492489D01*
X69816892Y-146470092D01*
X69816892Y-146411564D01*
X69809304Y-146393245D01*
X69794495Y-146357492D01*
X69775840Y-146334762D01*
X69281214Y-145840136D01*
X70094085Y-145840136D01*
X70094085Y-145898664D01*
X70116483Y-145952736D01*
X70157867Y-145994120D01*
X70211939Y-146016518D01*
X70241203Y-146019400D01*
X71384060Y-146019400D01*
X71413324Y-146016518D01*
X71467396Y-145994120D01*
X71508780Y-145952736D01*
X71531178Y-145898664D01*
X71531178Y-145840136D01*
X71508780Y-145786064D01*
X71467396Y-145744680D01*
X71413324Y-145722282D01*
X71384060Y-145719400D01*
X70241203Y-145719400D01*
X70211939Y-145722282D01*
X70157867Y-145744680D01*
X70116483Y-145786064D01*
X70094085Y-145840136D01*
X69281214Y-145840136D01*
X68943735Y-145502657D01*
X68891202Y-145345058D01*
X68891202Y-145261952D01*
X68935909Y-145172538D01*
X68972913Y-145135535D01*
X69062327Y-145090828D01*
X69348650Y-145090828D01*
X69438063Y-145135535D01*
X69492279Y-145189751D01*
X69515009Y-145208406D01*
X69569082Y-145230802D01*
X69627608Y-145230802D01*
X69681680Y-145208406D01*
X69723066Y-145167020D01*
X69745462Y-145112948D01*
X69745462Y-145054422D01*
X69723066Y-145000349D01*
X69704411Y-144977619D01*
X69667620Y-144940828D01*
X71948346Y-144940828D01*
X71948346Y-146440828D01*
X71949087Y-146448353D01*
X71948712Y-146451305D01*
X71949754Y-146455125D01*
X71951228Y-146470092D01*
X71958863Y-146488524D01*
X71964112Y-146507769D01*
X71969966Y-146515328D01*
X71973626Y-146524164D01*
X71987733Y-146538271D01*
X71999947Y-146554043D01*
X72008249Y-146558787D01*
X72015010Y-146565548D01*
X72033440Y-146573182D01*
X72050763Y-146583081D01*
X72060248Y-146584286D01*
X72069082Y-146587946D01*
X72089032Y-146587946D01*
X72108823Y-146590462D01*
X72118048Y-146587946D01*
X72127610Y-146587946D01*
X72146042Y-146580310D01*
X72165287Y-146575062D01*
X72172846Y-146569207D01*
X72181682Y-146565548D01*
X72195789Y-146551440D01*
X72211561Y-146539227D01*
X72220266Y-146526963D01*
X72223066Y-146524164D01*
X72224204Y-146521416D01*
X72228582Y-146515249D01*
X72805489Y-145505663D01*
X72805489Y-146440828D01*
X72808371Y-146470092D01*
X72830769Y-146524164D01*
X72872153Y-146565548D01*
X72926225Y-146587946D01*
X72984753Y-146587946D01*
X73038825Y-146565548D01*
X73080209Y-146524164D01*
X73102607Y-146470092D01*
X73105489Y-146440828D01*
X73105489Y-144940828D01*
X73104747Y-144933301D01*
X73105123Y-144930350D01*
X73104080Y-144926528D01*
X73102607Y-144911564D01*
X73094971Y-144893131D01*
X73089723Y-144873887D01*
X73083868Y-144866327D01*
X73080209Y-144857492D01*
X73066101Y-144843384D01*
X73053888Y-144827613D01*
X73045585Y-144822868D01*
X73038825Y-144816108D01*
X73020394Y-144808473D01*
X73003072Y-144798575D01*
X72993586Y-144797369D01*
X72984753Y-144793710D01*
X72964803Y-144793710D01*
X72945012Y-144791194D01*
X72935787Y-144793710D01*
X72926225Y-144793710D01*
X72907796Y-144801343D01*
X72888548Y-144806593D01*
X72880986Y-144812449D01*
X72872153Y-144816108D01*
X72858047Y-144830213D01*
X72842274Y-144842429D01*
X72833568Y-144854692D01*
X72830769Y-144857492D01*
X72829630Y-144860239D01*
X72825253Y-144866407D01*
X72248346Y-145875994D01*
X72248346Y-144940828D01*
X72245464Y-144911564D01*
X72223066Y-144857492D01*
X72181682Y-144816108D01*
X72127610Y-144793710D01*
X72069082Y-144793710D01*
X72015010Y-144816108D01*
X71973626Y-144857492D01*
X71951228Y-144911564D01*
X71948346Y-144940828D01*
X69667620Y-144940828D01*
X69632983Y-144906191D01*
X69621481Y-144896751D01*
X69618885Y-144893758D01*
X69614371Y-144890917D01*
X69610252Y-144887536D01*
X69606592Y-144886020D01*
X69593999Y-144878093D01*
X69451142Y-144806664D01*
X69423679Y-144796155D01*
X69418304Y-144795773D01*
X69413324Y-144793710D01*
X69384060Y-144790828D01*
X69026917Y-144790828D01*
X68997653Y-144793710D01*
X68992672Y-144795773D01*
X68987298Y-144796155D01*
X68959834Y-144806664D01*
X68816978Y-144878093D01*
X68804384Y-144886020D01*
X68800725Y-144887536D01*
X68796604Y-144890917D01*
X68792092Y-144893758D01*
X68789495Y-144896751D01*
X68777995Y-144906190D01*
X68706566Y-144977618D01*
X68697126Y-144989120D01*
X68694132Y-144991717D01*
X68691290Y-144996231D01*
X68687911Y-145000349D01*
X68686395Y-145004007D01*
X68678467Y-145016603D01*
X68607038Y-145159460D01*
X68596529Y-145186923D01*
X68596147Y-145192297D01*
X68594084Y-145197278D01*
X68591202Y-145226542D01*
X68209322Y-145226542D01*
X68253109Y-145208406D01*
X68294495Y-145167020D01*
X68316891Y-145112948D01*
X68316891Y-145054422D01*
X68294495Y-145000349D01*
X68275840Y-144977619D01*
X68204412Y-144906191D01*
X68192910Y-144896751D01*
X68190314Y-144893758D01*
X68185800Y-144890917D01*
X68181681Y-144887536D01*
X68178021Y-144886020D01*
X68165428Y-144878093D01*
X68022571Y-144806664D01*
X67995108Y-144796155D01*
X67989733Y-144795773D01*
X67984753Y-144793710D01*
X67955489Y-144790828D01*
X67598346Y-144790828D01*
X67569082Y-144793710D01*
X67564101Y-144795773D01*
X67558727Y-144796155D01*
X67531263Y-144806664D01*
X67388407Y-144878093D01*
X67375813Y-144886020D01*
X67372154Y-144887536D01*
X67368033Y-144890917D01*
X67363521Y-144893758D01*
X67360924Y-144896751D01*
X67349424Y-144906190D01*
X67277995Y-144977618D01*
X67268555Y-144989120D01*
X67265561Y-144991717D01*
X67262719Y-144996231D01*
X67259340Y-145000349D01*
X67257824Y-145004007D01*
X67249896Y-145016603D01*
X67178467Y-145159460D01*
X67167958Y-145186923D01*
X67167576Y-145192297D01*
X67165513Y-145197278D01*
X67162631Y-145226542D01*
X66824391Y-145226542D01*
X66815296Y-145190162D01*
X66814524Y-145188003D01*
X66814448Y-145186923D01*
X66809787Y-145174742D01*
X66805403Y-145162471D01*
X66804758Y-145161601D01*
X66803939Y-145159459D01*
X66732510Y-145016603D01*
X66724583Y-145004011D01*
X66723067Y-145000349D01*
X66719683Y-144996226D01*
X66716845Y-144991717D01*
X66713852Y-144989121D01*
X66704412Y-144977619D01*
X66632984Y-144906191D01*
X66621482Y-144896751D01*
X66618886Y-144893758D01*
X66614372Y-144890917D01*
X66610253Y-144887536D01*
X66606593Y-144886020D01*
X66594000Y-144878093D01*
X66451142Y-144806664D01*
X66423679Y-144796154D01*
X66418301Y-144795771D01*
X66413324Y-144793710D01*
X66384060Y-144790828D01*
X66241203Y-144790828D01*
X66211939Y-144793710D01*
X66206958Y-144795773D01*
X66201584Y-144796155D01*
X66174120Y-144806664D01*
X66031264Y-144878093D01*
X66018672Y-144886019D01*
X66015010Y-144887536D01*
X66010887Y-144890919D01*
X66006378Y-144893758D01*
X66003782Y-144896750D01*
X65992280Y-144906191D01*
X65920852Y-144977619D01*
X65911412Y-144989120D01*
X65908419Y-144991717D01*
X65905578Y-144996230D01*
X65902197Y-145000350D01*
X65900681Y-145004009D01*
X65892754Y-145016603D01*
X65821325Y-145159460D01*
X65820505Y-145161600D01*
X65819861Y-145162471D01*
X65815474Y-145174748D01*
X65810816Y-145186923D01*
X65810739Y-145188003D01*
X65809968Y-145190162D01*
X65738539Y-145475877D01*
X65737789Y-145480948D01*
X65736942Y-145482993D01*
X65735856Y-145494015D01*
X65734237Y-145504966D01*
X65734562Y-145507153D01*
X65734060Y-145512257D01*
X65423127Y-145512257D01*
X65597792Y-144988262D01*
X65604312Y-144959588D01*
X65600162Y-144901208D01*
X65573988Y-144848861D01*
X65529774Y-144810514D01*
X65474250Y-144792005D01*
X65415870Y-144796155D01*
X65363522Y-144822328D01*
X65325175Y-144866543D01*
X65313187Y-144893394D01*
X64955489Y-145966486D01*
X64597791Y-144893394D01*
X64585803Y-144866543D01*
X64547456Y-144822329D01*
X64495109Y-144796155D01*
X64436728Y-144792006D01*
X64381204Y-144810514D01*
X64336990Y-144848861D01*
X64310816Y-144901208D01*
X64306667Y-144959589D01*
X64140000Y-144959589D01*
X64140000Y-144624161D01*
X73272156Y-144624161D01*
X73272156Y-146757495D01*
G37*
G36*
X78064060Y-146280828D02*
G01*
X77881260Y-146280828D01*
X77723657Y-146228294D01*
X77623052Y-146127688D01*
X77569871Y-146021328D01*
X77506917Y-145769507D01*
X77506917Y-145592148D01*
X77569871Y-145340327D01*
X77623052Y-145233967D01*
X77723658Y-145133361D01*
X77881260Y-145080828D01*
X78064060Y-145080828D01*
X78064060Y-146280828D01*
G37*
G36*
X80839492Y-145125535D02*
G01*
X80935758Y-145221801D01*
X80992631Y-145449291D01*
X80992631Y-145912364D01*
X80935758Y-146139854D01*
X80839492Y-146236121D01*
X80750079Y-146280828D01*
X80535184Y-146280828D01*
X80445771Y-146236121D01*
X80349504Y-146139854D01*
X80292631Y-145912362D01*
X80292631Y-145449293D01*
X80349504Y-145221801D01*
X80445771Y-145125534D01*
X80535184Y-145080828D01*
X80750078Y-145080828D01*
X80839492Y-145125535D01*
G37*
G36*
X79363089Y-145852257D02*
G01*
X79065030Y-145852257D01*
X79214059Y-145405169D01*
X79363089Y-145852257D01*
G37*
G36*
X82602156Y-146747495D02*
G01*
X73757417Y-146747495D01*
X73757417Y-146401564D01*
X73924084Y-146401564D01*
X73924084Y-146460092D01*
X73946482Y-146514164D01*
X73987866Y-146555548D01*
X74041938Y-146577946D01*
X74071202Y-146580828D01*
X74928345Y-146580828D01*
X74957609Y-146577946D01*
X75011681Y-146555548D01*
X75053065Y-146514164D01*
X75075463Y-146460092D01*
X75075463Y-146401564D01*
X75053065Y-146347492D01*
X75011681Y-146306108D01*
X74957609Y-146283710D01*
X74928345Y-146280828D01*
X74649774Y-146280828D01*
X74649774Y-145830136D01*
X75424085Y-145830136D01*
X75424085Y-145888664D01*
X75446483Y-145942736D01*
X75487867Y-145984120D01*
X75541939Y-146006518D01*
X75571203Y-146009400D01*
X76714060Y-146009400D01*
X76743324Y-146006518D01*
X76797396Y-145984120D01*
X76838780Y-145942736D01*
X76861178Y-145888664D01*
X76861178Y-145830136D01*
X76838780Y-145776064D01*
X76797396Y-145734680D01*
X76743324Y-145712282D01*
X76714060Y-145709400D01*
X75571203Y-145709400D01*
X75541939Y-145712282D01*
X75487867Y-145734680D01*
X75446483Y-145776064D01*
X75424085Y-145830136D01*
X74649774Y-145830136D01*
X74649774Y-145573685D01*
X77206917Y-145573685D01*
X77206917Y-145787971D01*
X77207419Y-145793074D01*
X77207094Y-145795262D01*
X77208713Y-145806212D01*
X77209799Y-145817235D01*
X77210646Y-145819279D01*
X77211396Y-145824351D01*
X77282824Y-146110065D01*
X77283595Y-146112223D01*
X77283672Y-146113304D01*
X77288330Y-146125478D01*
X77292717Y-146137756D01*
X77293361Y-146138626D01*
X77294181Y-146140767D01*
X77365610Y-146283624D01*
X77373537Y-146296217D01*
X77375053Y-146299877D01*
X77378434Y-146303996D01*
X77381275Y-146308510D01*
X77384268Y-146311106D01*
X77393708Y-146322608D01*
X77536565Y-146465466D01*
X77559295Y-146484121D01*
X77564274Y-146486183D01*
X77568346Y-146489715D01*
X77595197Y-146501703D01*
X77809483Y-146573131D01*
X77823995Y-146576430D01*
X77827653Y-146577946D01*
X77832955Y-146578468D01*
X77838157Y-146579651D01*
X77842111Y-146579369D01*
X77856917Y-146580828D01*
X78214060Y-146580828D01*
X78243324Y-146577946D01*
X78297396Y-146555548D01*
X78338780Y-146514164D01*
X78361178Y-146460092D01*
X78364060Y-146430828D01*
X78364060Y-146412067D01*
X78565237Y-146412067D01*
X78569386Y-146470448D01*
X78595560Y-146522795D01*
X78639774Y-146561142D01*
X78695298Y-146579650D01*
X78753679Y-146575501D01*
X78806026Y-146549327D01*
X78844373Y-146505113D01*
X78856361Y-146478262D01*
X78965030Y-146152257D01*
X79463089Y-146152257D01*
X79571757Y-146478262D01*
X79583745Y-146505113D01*
X79622092Y-146549328D01*
X79674440Y-146575501D01*
X79732820Y-146579651D01*
X79788344Y-146561142D01*
X79832558Y-146522795D01*
X79858732Y-146470448D01*
X79862882Y-146412068D01*
X79856362Y-146383394D01*
X79538839Y-145430828D01*
X79992631Y-145430828D01*
X79992631Y-145930828D01*
X79993133Y-145935931D01*
X79992808Y-145938119D01*
X79994427Y-145949070D01*
X79995513Y-145960092D01*
X79996359Y-145962136D01*
X79997110Y-145967209D01*
X80068539Y-146252922D01*
X80078432Y-146280613D01*
X80085071Y-146289573D01*
X80089339Y-146299877D01*
X80107994Y-146322608D01*
X80250851Y-146465466D01*
X80262357Y-146474909D01*
X80264950Y-146477899D01*
X80269455Y-146480735D01*
X80273581Y-146484121D01*
X80277244Y-146485638D01*
X80289835Y-146493564D01*
X80432693Y-146564992D01*
X80460156Y-146575502D01*
X80465531Y-146575883D01*
X80470510Y-146577946D01*
X80499774Y-146580828D01*
X80785488Y-146580828D01*
X80814752Y-146577946D01*
X80819730Y-146575883D01*
X80825106Y-146575502D01*
X80852569Y-146564992D01*
X80995428Y-146493564D01*
X81008018Y-146485638D01*
X81011682Y-146484121D01*
X81015807Y-146480735D01*
X81020313Y-146477899D01*
X81022906Y-146474909D01*
X81034412Y-146465466D01*
X81098314Y-146401564D01*
X81424085Y-146401564D01*
X81424085Y-146460092D01*
X81446483Y-146514164D01*
X81487867Y-146555548D01*
X81541939Y-146577946D01*
X81571203Y-146580828D01*
X82285489Y-146580828D01*
X82314753Y-146577946D01*
X82368825Y-146555548D01*
X82410209Y-146514164D01*
X82432607Y-146460092D01*
X82435489Y-146430828D01*
X82435489Y-144930828D01*
X82432607Y-144901564D01*
X82410209Y-144847492D01*
X82368825Y-144806108D01*
X82314753Y-144783710D01*
X82256225Y-144783710D01*
X82202153Y-144806108D01*
X82160769Y-144847492D01*
X82138371Y-144901564D01*
X82135489Y-144930828D01*
X82135489Y-146280828D01*
X81571203Y-146280828D01*
X81541939Y-146283710D01*
X81487867Y-146306108D01*
X81446483Y-146347492D01*
X81424085Y-146401564D01*
X81098314Y-146401564D01*
X81177269Y-146322608D01*
X81195924Y-146299877D01*
X81200191Y-146289573D01*
X81206831Y-146280613D01*
X81216724Y-146252922D01*
X81288152Y-145967208D01*
X81288901Y-145962136D01*
X81289749Y-145960092D01*
X81290834Y-145949069D01*
X81292454Y-145938119D01*
X81292128Y-145935931D01*
X81292631Y-145930828D01*
X81292631Y-145430828D01*
X81292128Y-145425724D01*
X81292454Y-145423537D01*
X81290834Y-145412586D01*
X81289749Y-145401564D01*
X81288901Y-145399519D01*
X81288152Y-145394448D01*
X81216724Y-145108734D01*
X81206831Y-145081043D01*
X81200192Y-145072083D01*
X81195924Y-145061778D01*
X81177269Y-145039048D01*
X81034412Y-144896191D01*
X81022910Y-144886751D01*
X81020314Y-144883758D01*
X81015800Y-144880917D01*
X81011681Y-144877536D01*
X81008021Y-144876020D01*
X80995428Y-144868093D01*
X80852570Y-144796664D01*
X80825107Y-144786154D01*
X80819729Y-144785771D01*
X80814752Y-144783710D01*
X80785488Y-144780828D01*
X80499774Y-144780828D01*
X80470510Y-144783710D01*
X80465529Y-144785773D01*
X80460155Y-144786155D01*
X80432691Y-144796664D01*
X80289835Y-144868093D01*
X80277243Y-144876019D01*
X80273581Y-144877536D01*
X80269458Y-144880919D01*
X80264949Y-144883758D01*
X80262353Y-144886750D01*
X80250851Y-144896191D01*
X80107994Y-145039048D01*
X80089339Y-145061779D01*
X80085071Y-145072082D01*
X80078432Y-145081043D01*
X80068539Y-145108734D01*
X79997110Y-145394447D01*
X79996359Y-145399519D01*
X79995513Y-145401564D01*
X79994427Y-145412585D01*
X79992808Y-145423537D01*
X79993133Y-145425724D01*
X79992631Y-145430828D01*
X79538839Y-145430828D01*
X79356361Y-144883394D01*
X79344373Y-144856543D01*
X79337350Y-144848446D01*
X79332558Y-144838861D01*
X79318349Y-144826537D01*
X79306026Y-144812329D01*
X79296440Y-144807536D01*
X79288344Y-144800514D01*
X79270500Y-144794565D01*
X79253679Y-144786155D01*
X79242990Y-144785395D01*
X79232820Y-144782005D01*
X79214054Y-144783338D01*
X79195298Y-144782006D01*
X79185130Y-144785395D01*
X79174440Y-144786155D01*
X79157616Y-144794566D01*
X79139774Y-144800514D01*
X79131679Y-144807534D01*
X79122092Y-144812328D01*
X79109766Y-144826539D01*
X79095560Y-144838861D01*
X79090767Y-144848445D01*
X79083745Y-144856543D01*
X79071757Y-144883394D01*
X78571757Y-146383394D01*
X78565237Y-146412067D01*
X78364060Y-146412067D01*
X78364060Y-144930828D01*
X78361178Y-144901564D01*
X78338780Y-144847492D01*
X78297396Y-144806108D01*
X78243324Y-144783710D01*
X78214060Y-144780828D01*
X77856917Y-144780828D01*
X77842105Y-144782286D01*
X77838156Y-144782006D01*
X77832961Y-144783187D01*
X77827653Y-144783710D01*
X77823991Y-144785226D01*
X77809482Y-144788526D01*
X77595197Y-144859955D01*
X77568346Y-144871943D01*
X77564276Y-144875472D01*
X77559295Y-144877536D01*
X77536565Y-144896191D01*
X77393708Y-145039048D01*
X77384268Y-145050549D01*
X77381275Y-145053146D01*
X77378434Y-145057659D01*
X77375053Y-145061779D01*
X77373537Y-145065438D01*
X77365610Y-145078032D01*
X77294181Y-145220889D01*
X77293361Y-145223029D01*
X77292717Y-145223900D01*
X77288330Y-145236177D01*
X77283672Y-145248352D01*
X77283595Y-145249432D01*
X77282824Y-145251591D01*
X77211396Y-145537305D01*
X77210646Y-145542376D01*
X77209799Y-145544421D01*
X77208713Y-145555443D01*
X77207094Y-145566394D01*
X77207419Y-145568581D01*
X77206917Y-145573685D01*
X74649774Y-145573685D01*
X74649774Y-145364389D01*
X74679422Y-145394037D01*
X74690924Y-145403477D01*
X74693520Y-145406470D01*
X74698029Y-145409308D01*
X74702152Y-145412692D01*
X74705814Y-145414208D01*
X74718406Y-145422135D01*
X74861262Y-145493564D01*
X74888726Y-145504073D01*
X74947106Y-145508222D01*
X75002628Y-145489715D01*
X75046844Y-145451368D01*
X75073018Y-145399019D01*
X75077167Y-145340639D01*
X75058659Y-145285116D01*
X75020313Y-145240901D01*
X74995427Y-145225236D01*
X74874342Y-145164693D01*
X74759201Y-145049552D01*
X74624582Y-144847623D01*
X74624513Y-144847539D01*
X74624494Y-144847492D01*
X74624387Y-144847385D01*
X74605951Y-144824873D01*
X74593611Y-144816609D01*
X74583110Y-144806108D01*
X74569532Y-144800483D01*
X74557321Y-144792306D01*
X74542758Y-144789393D01*
X74529038Y-144783710D01*
X74514342Y-144783710D01*
X74499932Y-144780828D01*
X74485363Y-144783710D01*
X74470510Y-144783710D01*
X74456931Y-144789334D01*
X74442517Y-144792186D01*
X74430159Y-144800424D01*
X74416438Y-144806108D01*
X74406046Y-144816499D01*
X74393819Y-144824651D01*
X74385555Y-144836990D01*
X74375054Y-144847492D01*
X74369429Y-144861069D01*
X74361252Y-144873281D01*
X74358339Y-144887843D01*
X74352656Y-144901564D01*
X74349804Y-144930516D01*
X74349774Y-144930670D01*
X74349784Y-144930722D01*
X74349774Y-144930828D01*
X74349774Y-146280828D01*
X74071202Y-146280828D01*
X74041938Y-146283710D01*
X73987866Y-146306108D01*
X73946482Y-146347492D01*
X73924084Y-146401564D01*
X73757417Y-146401564D01*
X73757417Y-144614161D01*
X82602156Y-144614161D01*
X82602156Y-146747495D01*
G37*
G36*
X57125207Y-145145535D02*
G01*
X57162211Y-145182539D01*
X57215390Y-145288898D01*
X57278346Y-145540720D01*
X57278346Y-145860936D01*
X57215390Y-146112757D01*
X57162210Y-146219117D01*
X57125207Y-146256121D01*
X57035794Y-146300828D01*
X56963756Y-146300828D01*
X56874343Y-146256122D01*
X56837339Y-146219118D01*
X56784159Y-146112758D01*
X56721203Y-145860934D01*
X56721203Y-145540721D01*
X56784159Y-145288897D01*
X56837339Y-145182538D01*
X56874343Y-145145534D01*
X56963756Y-145100828D01*
X57035793Y-145100828D01*
X57125207Y-145145535D01*
G37*
G36*
X63602156Y-146767495D02*
G01*
X54827143Y-146767495D01*
X54827143Y-144969589D01*
X54993810Y-144969589D01*
X55000330Y-144998262D01*
X55500330Y-146498262D01*
X55512318Y-146525113D01*
X55519340Y-146533210D01*
X55524133Y-146542795D01*
X55538339Y-146555116D01*
X55550665Y-146569328D01*
X55560252Y-146574121D01*
X55568347Y-146581142D01*
X55586189Y-146587089D01*
X55603013Y-146595501D01*
X55613703Y-146596260D01*
X55623871Y-146599650D01*
X55642627Y-146598317D01*
X55661393Y-146599651D01*
X55671563Y-146596260D01*
X55682252Y-146595501D01*
X55699073Y-146587090D01*
X55716917Y-146581142D01*
X55725013Y-146574119D01*
X55734599Y-146569327D01*
X55746922Y-146555118D01*
X55761131Y-146542795D01*
X55765923Y-146533209D01*
X55772946Y-146525113D01*
X55784934Y-146498262D01*
X56110270Y-145522257D01*
X56421203Y-145522257D01*
X56421203Y-145879400D01*
X56421705Y-145884503D01*
X56421380Y-145886691D01*
X56422999Y-145897642D01*
X56424085Y-145908664D01*
X56424931Y-145910708D01*
X56425682Y-145915781D01*
X56497111Y-146201494D01*
X56497882Y-146203652D01*
X56497959Y-146204733D01*
X56502617Y-146216907D01*
X56507004Y-146229185D01*
X56507648Y-146230055D01*
X56508468Y-146232196D01*
X56579897Y-146375053D01*
X56587825Y-146387648D01*
X56589340Y-146391305D01*
X56592719Y-146395422D01*
X56595562Y-146399939D01*
X56598556Y-146402536D01*
X56607994Y-146414036D01*
X56679422Y-146485465D01*
X56690927Y-146494907D01*
X56693522Y-146497899D01*
X56698032Y-146500738D01*
X56702153Y-146504120D01*
X56705812Y-146505635D01*
X56718407Y-146513564D01*
X56861265Y-146584992D01*
X56888728Y-146595502D01*
X56894103Y-146595883D01*
X56899082Y-146597946D01*
X56928346Y-146600828D01*
X57071203Y-146600828D01*
X57100467Y-146597946D01*
X57105445Y-146595883D01*
X57110821Y-146595502D01*
X57138284Y-146584992D01*
X57281143Y-146513564D01*
X57293737Y-146505635D01*
X57297397Y-146504120D01*
X57301517Y-146500738D01*
X57306028Y-146497899D01*
X57308622Y-146494907D01*
X57320128Y-146485465D01*
X57391556Y-146414036D01*
X57400994Y-146402535D01*
X57403988Y-146399939D01*
X57406828Y-146395426D01*
X57410210Y-146391306D01*
X57411725Y-146387646D01*
X57419653Y-146375053D01*
X57491082Y-146232197D01*
X57491901Y-146230054D01*
X57492546Y-146229185D01*
X57496930Y-146216913D01*
X57501591Y-146204733D01*
X57501667Y-146203652D01*
X57502439Y-146201494D01*
X57573867Y-145915780D01*
X57574616Y-145910708D01*
X57575464Y-145908664D01*
X57576549Y-145897641D01*
X57578169Y-145886691D01*
X57577843Y-145884503D01*
X57578346Y-145879400D01*
X57578346Y-145522257D01*
X57577843Y-145517153D01*
X57578169Y-145514966D01*
X57576549Y-145504015D01*
X57575464Y-145492993D01*
X57574616Y-145490948D01*
X57573867Y-145485877D01*
X57511534Y-145236542D01*
X57849774Y-145236542D01*
X57849774Y-145379400D01*
X57851232Y-145394211D01*
X57850952Y-145398161D01*
X57852133Y-145403355D01*
X57852656Y-145408664D01*
X57854172Y-145412325D01*
X57857472Y-145426835D01*
X57928901Y-145641119D01*
X57940889Y-145667970D01*
X57944419Y-145672040D01*
X57946482Y-145677020D01*
X57965137Y-145699751D01*
X58566214Y-146300828D01*
X57999774Y-146300828D01*
X57970510Y-146303710D01*
X57916438Y-146326108D01*
X57875054Y-146367492D01*
X57852656Y-146421564D01*
X57852656Y-146480092D01*
X57875054Y-146534164D01*
X57916438Y-146575548D01*
X57970510Y-146597946D01*
X57999774Y-146600828D01*
X58928346Y-146600828D01*
X58957610Y-146597946D01*
X58988883Y-146584992D01*
X59011681Y-146575549D01*
X59053067Y-146534163D01*
X59066186Y-146502489D01*
X59075464Y-146480092D01*
X59075464Y-146421564D01*
X59067938Y-146403394D01*
X59053067Y-146367492D01*
X59034412Y-146344762D01*
X58202307Y-145512657D01*
X58149774Y-145355058D01*
X58149774Y-145271952D01*
X58194481Y-145182538D01*
X58231485Y-145145535D01*
X58320899Y-145100828D01*
X58607222Y-145100828D01*
X58696635Y-145145535D01*
X58750851Y-145199751D01*
X58773581Y-145218406D01*
X58827654Y-145240802D01*
X58886180Y-145240802D01*
X58896465Y-145236542D01*
X59278345Y-145236542D01*
X59278345Y-145379400D01*
X59279803Y-145394211D01*
X59279523Y-145398161D01*
X59280704Y-145403355D01*
X59281227Y-145408664D01*
X59282743Y-145412325D01*
X59286043Y-145426835D01*
X59357472Y-145641119D01*
X59369460Y-145667970D01*
X59372990Y-145672040D01*
X59375053Y-145677020D01*
X59393708Y-145699751D01*
X59994785Y-146300828D01*
X59428345Y-146300828D01*
X59399081Y-146303710D01*
X59345009Y-146326108D01*
X59303625Y-146367492D01*
X59281227Y-146421564D01*
X59281227Y-146480092D01*
X59303625Y-146534164D01*
X59345009Y-146575548D01*
X59399081Y-146597946D01*
X59428345Y-146600828D01*
X60356917Y-146600828D01*
X60386181Y-146597946D01*
X60417454Y-146584992D01*
X60440252Y-146575549D01*
X60481638Y-146534163D01*
X60494757Y-146502489D01*
X60504035Y-146480092D01*
X60504035Y-146421564D01*
X62424085Y-146421564D01*
X62424085Y-146480092D01*
X62446483Y-146534164D01*
X62487867Y-146575548D01*
X62541939Y-146597946D01*
X62571203Y-146600828D01*
X63285489Y-146600828D01*
X63314753Y-146597946D01*
X63368825Y-146575548D01*
X63410209Y-146534164D01*
X63432607Y-146480092D01*
X63432607Y-146480091D01*
X63435489Y-146450828D01*
X63435489Y-144950828D01*
X63432607Y-144921564D01*
X63410209Y-144867492D01*
X63368825Y-144826108D01*
X63314753Y-144803710D01*
X63256225Y-144803710D01*
X63202153Y-144826108D01*
X63160769Y-144867492D01*
X63138371Y-144921564D01*
X63135489Y-144950828D01*
X63135489Y-146300828D01*
X62571203Y-146300828D01*
X62541939Y-146303710D01*
X62487867Y-146326108D01*
X62446483Y-146367492D01*
X62424085Y-146421564D01*
X60504035Y-146421564D01*
X60496509Y-146403394D01*
X60481638Y-146367492D01*
X60462983Y-146344762D01*
X59968357Y-145850136D01*
X60781228Y-145850136D01*
X60781228Y-145908664D01*
X60803626Y-145962736D01*
X60845010Y-146004120D01*
X60899082Y-146026518D01*
X60928346Y-146029400D01*
X62071203Y-146029400D01*
X62100467Y-146026518D01*
X62154539Y-146004120D01*
X62195923Y-145962736D01*
X62218321Y-145908664D01*
X62218321Y-145850136D01*
X62195923Y-145796064D01*
X62154539Y-145754680D01*
X62100467Y-145732282D01*
X62071203Y-145729400D01*
X60928346Y-145729400D01*
X60899082Y-145732282D01*
X60845010Y-145754680D01*
X60803626Y-145796064D01*
X60781228Y-145850136D01*
X59968357Y-145850136D01*
X59630878Y-145512657D01*
X59578345Y-145355058D01*
X59578345Y-145271952D01*
X59623052Y-145182538D01*
X59660056Y-145145535D01*
X59749470Y-145100828D01*
X60035793Y-145100828D01*
X60125206Y-145145535D01*
X60179422Y-145199751D01*
X60202152Y-145218406D01*
X60256225Y-145240802D01*
X60314751Y-145240802D01*
X60368823Y-145218406D01*
X60410209Y-145177020D01*
X60432605Y-145122948D01*
X60432605Y-145064422D01*
X60410209Y-145010349D01*
X60391554Y-144987619D01*
X60320126Y-144916191D01*
X60308624Y-144906751D01*
X60306028Y-144903758D01*
X60301514Y-144900917D01*
X60297395Y-144897536D01*
X60293735Y-144896020D01*
X60281142Y-144888093D01*
X60138285Y-144816664D01*
X60110822Y-144806155D01*
X60105447Y-144805773D01*
X60100467Y-144803710D01*
X60071203Y-144800828D01*
X59714060Y-144800828D01*
X59684796Y-144803710D01*
X59679815Y-144805773D01*
X59674441Y-144806155D01*
X59646977Y-144816664D01*
X59504121Y-144888093D01*
X59491527Y-144896020D01*
X59487868Y-144897536D01*
X59483747Y-144900917D01*
X59479235Y-144903758D01*
X59476638Y-144906751D01*
X59465138Y-144916190D01*
X59393709Y-144987618D01*
X59384269Y-144999120D01*
X59381275Y-145001717D01*
X59378433Y-145006231D01*
X59375054Y-145010349D01*
X59373538Y-145014007D01*
X59365610Y-145026603D01*
X59294181Y-145169460D01*
X59283672Y-145196923D01*
X59283290Y-145202297D01*
X59281227Y-145207278D01*
X59278345Y-145236542D01*
X58896465Y-145236542D01*
X58940252Y-145218406D01*
X58981638Y-145177020D01*
X59004034Y-145122948D01*
X59004034Y-145064422D01*
X58981638Y-145010349D01*
X58962983Y-144987619D01*
X58891555Y-144916191D01*
X58880053Y-144906751D01*
X58877457Y-144903758D01*
X58872943Y-144900917D01*
X58868824Y-144897536D01*
X58865164Y-144896020D01*
X58852571Y-144888093D01*
X58709714Y-144816664D01*
X58682251Y-144806155D01*
X58676876Y-144805773D01*
X58671896Y-144803710D01*
X58642632Y-144800828D01*
X58285489Y-144800828D01*
X58256225Y-144803710D01*
X58251244Y-144805773D01*
X58245870Y-144806155D01*
X58218406Y-144816664D01*
X58075550Y-144888093D01*
X58062956Y-144896020D01*
X58059297Y-144897536D01*
X58055176Y-144900917D01*
X58050664Y-144903758D01*
X58048067Y-144906751D01*
X58036567Y-144916190D01*
X57965138Y-144987618D01*
X57955698Y-144999120D01*
X57952704Y-145001717D01*
X57949862Y-145006231D01*
X57946483Y-145010349D01*
X57944967Y-145014007D01*
X57937039Y-145026603D01*
X57865610Y-145169460D01*
X57855101Y-145196923D01*
X57854719Y-145202297D01*
X57852656Y-145207278D01*
X57849774Y-145236542D01*
X57511534Y-145236542D01*
X57502439Y-145200162D01*
X57501667Y-145198003D01*
X57501591Y-145196923D01*
X57496930Y-145184742D01*
X57492546Y-145172471D01*
X57491901Y-145171601D01*
X57491082Y-145169459D01*
X57419653Y-145026603D01*
X57411726Y-145014011D01*
X57410210Y-145010349D01*
X57406826Y-145006226D01*
X57403988Y-145001717D01*
X57400995Y-144999121D01*
X57391555Y-144987619D01*
X57320127Y-144916191D01*
X57308625Y-144906751D01*
X57306029Y-144903758D01*
X57301515Y-144900917D01*
X57297396Y-144897536D01*
X57293736Y-144896020D01*
X57281143Y-144888093D01*
X57138285Y-144816664D01*
X57110822Y-144806154D01*
X57105444Y-144805771D01*
X57100467Y-144803710D01*
X57071203Y-144800828D01*
X56928346Y-144800828D01*
X56899082Y-144803710D01*
X56894101Y-144805773D01*
X56888727Y-144806155D01*
X56861263Y-144816664D01*
X56718407Y-144888093D01*
X56705815Y-144896019D01*
X56702153Y-144897536D01*
X56698030Y-144900919D01*
X56693521Y-144903758D01*
X56690925Y-144906750D01*
X56679423Y-144916191D01*
X56607995Y-144987619D01*
X56598555Y-144999120D01*
X56595562Y-145001717D01*
X56592721Y-145006230D01*
X56589340Y-145010350D01*
X56587824Y-145014009D01*
X56579897Y-145026603D01*
X56508468Y-145169460D01*
X56507648Y-145171600D01*
X56507004Y-145172471D01*
X56502617Y-145184748D01*
X56497959Y-145196923D01*
X56497882Y-145198003D01*
X56497111Y-145200162D01*
X56425682Y-145485877D01*
X56424932Y-145490948D01*
X56424085Y-145492993D01*
X56422999Y-145504015D01*
X56421380Y-145514966D01*
X56421705Y-145517153D01*
X56421203Y-145522257D01*
X56110270Y-145522257D01*
X56284935Y-144998262D01*
X56291455Y-144969588D01*
X56287305Y-144911208D01*
X56261131Y-144858861D01*
X56216917Y-144820514D01*
X56161393Y-144802005D01*
X56103013Y-144806155D01*
X56050665Y-144832328D01*
X56012318Y-144876543D01*
X56000330Y-144903394D01*
X55642632Y-145976486D01*
X55284934Y-144903394D01*
X55272946Y-144876543D01*
X55234599Y-144832329D01*
X55182252Y-144806155D01*
X55123871Y-144802006D01*
X55068347Y-144820514D01*
X55024133Y-144858861D01*
X54997959Y-144911208D01*
X54993810Y-144969589D01*
X54827143Y-144969589D01*
X54827143Y-144634161D01*
X63602156Y-144634161D01*
X63602156Y-146767495D01*
G37*
X104720828Y-106520225D02*
X104720828Y-107377368D01*
X106220828Y-106948796D02*
X104720828Y-106948796D01*
X105435114Y-108377367D02*
X105435114Y-107877367D01*
X106220828Y-107877367D02*
X104720828Y-107877367D01*
X104720828Y-107877367D02*
X104720828Y-108591653D01*
X104720828Y-108948796D02*
X104720828Y-109805939D01*
X106220828Y-109377367D02*
X104720828Y-109377367D01*
X106363685Y-109948796D02*
X106363685Y-111091653D01*
X106220828Y-111448795D02*
X104720828Y-111448795D01*
X104720828Y-111448795D02*
X104720828Y-111805938D01*
X104720828Y-111805938D02*
X104792257Y-112020224D01*
X104792257Y-112020224D02*
X104935114Y-112163081D01*
X104935114Y-112163081D02*
X105077971Y-112234510D01*
X105077971Y-112234510D02*
X105363685Y-112305938D01*
X105363685Y-112305938D02*
X105577971Y-112305938D01*
X105577971Y-112305938D02*
X105863685Y-112234510D01*
X105863685Y-112234510D02*
X106006542Y-112163081D01*
X106006542Y-112163081D02*
X106149400Y-112020224D01*
X106149400Y-112020224D02*
X106220828Y-111805938D01*
X106220828Y-111805938D02*
X106220828Y-111448795D01*
X106220828Y-112948795D02*
X104720828Y-112948795D01*
X106149400Y-113591653D02*
X106220828Y-113805939D01*
X106220828Y-113805939D02*
X106220828Y-114163081D01*
X106220828Y-114163081D02*
X106149400Y-114305939D01*
X106149400Y-114305939D02*
X106077971Y-114377367D01*
X106077971Y-114377367D02*
X105935114Y-114448796D01*
X105935114Y-114448796D02*
X105792257Y-114448796D01*
X105792257Y-114448796D02*
X105649400Y-114377367D01*
X105649400Y-114377367D02*
X105577971Y-114305939D01*
X105577971Y-114305939D02*
X105506542Y-114163081D01*
X105506542Y-114163081D02*
X105435114Y-113877367D01*
X105435114Y-113877367D02*
X105363685Y-113734510D01*
X105363685Y-113734510D02*
X105292257Y-113663081D01*
X105292257Y-113663081D02*
X105149400Y-113591653D01*
X105149400Y-113591653D02*
X105006542Y-113591653D01*
X105006542Y-113591653D02*
X104863685Y-113663081D01*
X104863685Y-113663081D02*
X104792257Y-113734510D01*
X104792257Y-113734510D02*
X104720828Y-113877367D01*
X104720828Y-113877367D02*
X104720828Y-114234510D01*
X104720828Y-114234510D02*
X104792257Y-114448796D01*
X106220828Y-115091652D02*
X104720828Y-115091652D01*
X104720828Y-115091652D02*
X104720828Y-115663081D01*
X104720828Y-115663081D02*
X104792257Y-115805938D01*
X104792257Y-115805938D02*
X104863685Y-115877367D01*
X104863685Y-115877367D02*
X105006542Y-115948795D01*
X105006542Y-115948795D02*
X105220828Y-115948795D01*
X105220828Y-115948795D02*
X105363685Y-115877367D01*
X105363685Y-115877367D02*
X105435114Y-115805938D01*
X105435114Y-115805938D02*
X105506542Y-115663081D01*
X105506542Y-115663081D02*
X105506542Y-115091652D01*
X106220828Y-117305938D02*
X106220828Y-116591652D01*
X106220828Y-116591652D02*
X104720828Y-116591652D01*
X105792257Y-117734510D02*
X105792257Y-118448796D01*
X106220828Y-117591653D02*
X104720828Y-118091653D01*
X104720828Y-118091653D02*
X106220828Y-118591653D01*
X105506542Y-119377367D02*
X106220828Y-119377367D01*
X104720828Y-118877367D02*
X105506542Y-119377367D01*
X105506542Y-119377367D02*
X104720828Y-119877367D01*
X106363685Y-120020224D02*
X106363685Y-121163081D01*
X104863685Y-121448795D02*
X104792257Y-121520223D01*
X104792257Y-121520223D02*
X104720828Y-121663081D01*
X104720828Y-121663081D02*
X104720828Y-122020223D01*
X104720828Y-122020223D02*
X104792257Y-122163081D01*
X104792257Y-122163081D02*
X104863685Y-122234509D01*
X104863685Y-122234509D02*
X105006542Y-122305938D01*
X105006542Y-122305938D02*
X105149400Y-122305938D01*
X105149400Y-122305938D02*
X105363685Y-122234509D01*
X105363685Y-122234509D02*
X106220828Y-121377366D01*
X106220828Y-121377366D02*
X106220828Y-122305938D01*
X106077971Y-122948794D02*
X106149400Y-123020223D01*
X106149400Y-123020223D02*
X106220828Y-122948794D01*
X106220828Y-122948794D02*
X106149400Y-122877366D01*
X106149400Y-122877366D02*
X106077971Y-122948794D01*
X106077971Y-122948794D02*
X106220828Y-122948794D01*
X105363685Y-123877366D02*
X105292257Y-123734509D01*
X105292257Y-123734509D02*
X105220828Y-123663080D01*
X105220828Y-123663080D02*
X105077971Y-123591652D01*
X105077971Y-123591652D02*
X105006542Y-123591652D01*
X105006542Y-123591652D02*
X104863685Y-123663080D01*
X104863685Y-123663080D02*
X104792257Y-123734509D01*
X104792257Y-123734509D02*
X104720828Y-123877366D01*
X104720828Y-123877366D02*
X104720828Y-124163080D01*
X104720828Y-124163080D02*
X104792257Y-124305938D01*
X104792257Y-124305938D02*
X104863685Y-124377366D01*
X104863685Y-124377366D02*
X105006542Y-124448795D01*
X105006542Y-124448795D02*
X105077971Y-124448795D01*
X105077971Y-124448795D02*
X105220828Y-124377366D01*
X105220828Y-124377366D02*
X105292257Y-124305938D01*
X105292257Y-124305938D02*
X105363685Y-124163080D01*
X105363685Y-124163080D02*
X105363685Y-123877366D01*
X105363685Y-123877366D02*
X105435114Y-123734509D01*
X105435114Y-123734509D02*
X105506542Y-123663080D01*
X105506542Y-123663080D02*
X105649400Y-123591652D01*
X105649400Y-123591652D02*
X105935114Y-123591652D01*
X105935114Y-123591652D02*
X106077971Y-123663080D01*
X106077971Y-123663080D02*
X106149400Y-123734509D01*
X106149400Y-123734509D02*
X106220828Y-123877366D01*
X106220828Y-123877366D02*
X106220828Y-124163080D01*
X106220828Y-124163080D02*
X106149400Y-124305938D01*
X106149400Y-124305938D02*
X106077971Y-124377366D01*
X106077971Y-124377366D02*
X105935114Y-124448795D01*
X105935114Y-124448795D02*
X105649400Y-124448795D01*
X105649400Y-124448795D02*
X105506542Y-124377366D01*
X105506542Y-124377366D02*
X105435114Y-124305938D01*
X105435114Y-124305938D02*
X105363685Y-124163080D01*
X106220828Y-125091651D02*
X104720828Y-125091651D01*
X106220828Y-125805937D02*
X104720828Y-125805937D01*
X104720828Y-125805937D02*
X106220828Y-126663080D01*
X106220828Y-126663080D02*
X104720828Y-126663080D01*
X106077971Y-128234509D02*
X106149400Y-128163081D01*
X106149400Y-128163081D02*
X106220828Y-127948795D01*
X106220828Y-127948795D02*
X106220828Y-127805938D01*
X106220828Y-127805938D02*
X106149400Y-127591652D01*
X106149400Y-127591652D02*
X106006542Y-127448795D01*
X106006542Y-127448795D02*
X105863685Y-127377366D01*
X105863685Y-127377366D02*
X105577971Y-127305938D01*
X105577971Y-127305938D02*
X105363685Y-127305938D01*
X105363685Y-127305938D02*
X105077971Y-127377366D01*
X105077971Y-127377366D02*
X104935114Y-127448795D01*
X104935114Y-127448795D02*
X104792257Y-127591652D01*
X104792257Y-127591652D02*
X104720828Y-127805938D01*
X104720828Y-127805938D02*
X104720828Y-127948795D01*
X104720828Y-127948795D02*
X104792257Y-128163081D01*
X104792257Y-128163081D02*
X104863685Y-128234509D01*
X106220828Y-128877366D02*
X104720828Y-128877366D01*
X105435114Y-128877366D02*
X105435114Y-129734509D01*
X106220828Y-129734509D02*
X104720828Y-129734509D01*
G36*
X97074060Y-146290828D02*
G01*
X96891260Y-146290828D01*
X96733657Y-146238294D01*
X96633052Y-146137688D01*
X96579871Y-146031328D01*
X96516917Y-145779507D01*
X96516917Y-145602148D01*
X96579871Y-145350327D01*
X96633052Y-145243967D01*
X96733658Y-145143361D01*
X96891260Y-145090828D01*
X97074060Y-145090828D01*
X97074060Y-146290828D01*
G37*
G36*
X99849492Y-145135535D02*
G01*
X99945758Y-145231801D01*
X100002631Y-145459291D01*
X100002631Y-145922364D01*
X99945758Y-146149854D01*
X99849492Y-146246121D01*
X99760079Y-146290828D01*
X99545184Y-146290828D01*
X99455771Y-146246121D01*
X99359504Y-146149854D01*
X99302631Y-145922362D01*
X99302631Y-145459293D01*
X99359504Y-145231801D01*
X99455771Y-145135534D01*
X99545184Y-145090828D01*
X99760078Y-145090828D01*
X99849492Y-145135535D01*
G37*
G36*
X98373089Y-145862257D02*
G01*
X98075030Y-145862257D01*
X98224059Y-145415169D01*
X98373089Y-145862257D01*
G37*
G36*
X101612156Y-146757495D02*
G01*
X92764535Y-146757495D01*
X92764535Y-145797971D01*
X92931202Y-145797971D01*
X92931202Y-146155114D01*
X92934084Y-146184378D01*
X92936147Y-146189358D01*
X92936529Y-146194733D01*
X92947038Y-146222196D01*
X93018467Y-146365053D01*
X93026394Y-146377646D01*
X93027910Y-146381306D01*
X93031291Y-146385425D01*
X93034132Y-146389939D01*
X93037125Y-146392535D01*
X93046565Y-146404037D01*
X93117994Y-146475466D01*
X93129498Y-146484907D01*
X93132093Y-146487899D01*
X93136602Y-146490737D01*
X93140725Y-146494121D01*
X93144386Y-146495637D01*
X93156978Y-146503564D01*
X93299836Y-146574992D01*
X93327299Y-146585502D01*
X93332674Y-146585883D01*
X93337653Y-146587946D01*
X93366917Y-146590828D01*
X93795488Y-146590828D01*
X93824752Y-146587946D01*
X93829730Y-146585883D01*
X93835106Y-146585502D01*
X93862570Y-146574992D01*
X94005427Y-146503564D01*
X94018020Y-146495636D01*
X94021680Y-146494121D01*
X94025799Y-146490739D01*
X94030313Y-146487899D01*
X94032909Y-146484905D01*
X94044411Y-146475466D01*
X94115840Y-146404037D01*
X94134495Y-146381306D01*
X94156892Y-146327234D01*
X94156892Y-146268708D01*
X94134495Y-146214636D01*
X94093109Y-146173250D01*
X94039037Y-146150853D01*
X93980511Y-146150853D01*
X93926439Y-146173250D01*
X93903708Y-146191905D01*
X93849490Y-146246122D01*
X93760078Y-146290828D01*
X93402327Y-146290828D01*
X93312913Y-146246121D01*
X93275909Y-146209117D01*
X93231202Y-146119703D01*
X93231202Y-145840136D01*
X94434085Y-145840136D01*
X94434085Y-145898664D01*
X94456483Y-145952736D01*
X94497867Y-145994120D01*
X94551939Y-146016518D01*
X94581203Y-146019400D01*
X95724060Y-146019400D01*
X95753324Y-146016518D01*
X95807396Y-145994120D01*
X95848780Y-145952736D01*
X95871178Y-145898664D01*
X95871178Y-145840136D01*
X95848780Y-145786064D01*
X95807396Y-145744680D01*
X95753324Y-145722282D01*
X95724060Y-145719400D01*
X94581203Y-145719400D01*
X94551939Y-145722282D01*
X94497867Y-145744680D01*
X94456483Y-145786064D01*
X94434085Y-145840136D01*
X93231202Y-145840136D01*
X93231202Y-145833381D01*
X93275909Y-145743967D01*
X93312913Y-145706963D01*
X93402327Y-145662257D01*
X93581202Y-145662257D01*
X93596679Y-145660732D01*
X93600614Y-145660995D01*
X93603324Y-145660078D01*
X93610466Y-145659375D01*
X93632980Y-145650048D01*
X93656056Y-145642245D01*
X93659863Y-145638913D01*
X93664538Y-145636977D01*
X93681767Y-145619747D01*
X93700103Y-145603704D01*
X93702345Y-145599169D01*
X93705922Y-145595593D01*
X93710854Y-145583685D01*
X96216917Y-145583685D01*
X96216917Y-145797971D01*
X96217419Y-145803074D01*
X96217094Y-145805262D01*
X96218713Y-145816212D01*
X96219799Y-145827235D01*
X96220646Y-145829279D01*
X96221396Y-145834351D01*
X96292824Y-146120065D01*
X96293595Y-146122223D01*
X96293672Y-146123304D01*
X96298330Y-146135478D01*
X96302717Y-146147756D01*
X96303361Y-146148626D01*
X96304181Y-146150767D01*
X96375610Y-146293624D01*
X96383537Y-146306217D01*
X96385053Y-146309877D01*
X96388434Y-146313996D01*
X96391275Y-146318510D01*
X96394268Y-146321106D01*
X96403708Y-146332608D01*
X96546565Y-146475466D01*
X96569295Y-146494121D01*
X96574274Y-146496183D01*
X96578346Y-146499715D01*
X96605197Y-146511703D01*
X96819483Y-146583131D01*
X96833995Y-146586430D01*
X96837653Y-146587946D01*
X96842955Y-146588468D01*
X96848157Y-146589651D01*
X96852111Y-146589369D01*
X96866917Y-146590828D01*
X97224060Y-146590828D01*
X97253324Y-146587946D01*
X97307396Y-146565548D01*
X97348780Y-146524164D01*
X97371178Y-146470092D01*
X97374060Y-146440828D01*
X97374060Y-146422067D01*
X97575237Y-146422067D01*
X97579386Y-146480448D01*
X97605560Y-146532795D01*
X97649774Y-146571142D01*
X97705298Y-146589650D01*
X97763679Y-146585501D01*
X97816026Y-146559327D01*
X97854373Y-146515113D01*
X97866361Y-146488262D01*
X97975030Y-146162257D01*
X98473089Y-146162257D01*
X98581757Y-146488262D01*
X98593745Y-146515113D01*
X98632092Y-146559328D01*
X98684440Y-146585501D01*
X98742820Y-146589651D01*
X98798344Y-146571142D01*
X98842558Y-146532795D01*
X98868732Y-146480448D01*
X98872882Y-146422068D01*
X98866362Y-146393394D01*
X98548839Y-145440828D01*
X99002631Y-145440828D01*
X99002631Y-145940828D01*
X99003133Y-145945931D01*
X99002808Y-145948119D01*
X99004427Y-145959070D01*
X99005513Y-145970092D01*
X99006359Y-145972136D01*
X99007110Y-145977209D01*
X99078539Y-146262922D01*
X99088432Y-146290613D01*
X99095071Y-146299573D01*
X99099339Y-146309877D01*
X99117994Y-146332608D01*
X99260851Y-146475466D01*
X99272357Y-146484909D01*
X99274950Y-146487899D01*
X99279455Y-146490735D01*
X99283581Y-146494121D01*
X99287244Y-146495638D01*
X99299835Y-146503564D01*
X99442693Y-146574992D01*
X99470156Y-146585502D01*
X99475531Y-146585883D01*
X99480510Y-146587946D01*
X99509774Y-146590828D01*
X99795488Y-146590828D01*
X99824752Y-146587946D01*
X99829730Y-146585883D01*
X99835106Y-146585502D01*
X99862569Y-146574992D01*
X100005428Y-146503564D01*
X100018018Y-146495638D01*
X100021682Y-146494121D01*
X100025807Y-146490735D01*
X100030313Y-146487899D01*
X100032906Y-146484909D01*
X100044412Y-146475466D01*
X100108314Y-146411564D01*
X100434085Y-146411564D01*
X100434085Y-146470092D01*
X100456483Y-146524164D01*
X100497867Y-146565548D01*
X100551939Y-146587946D01*
X100581203Y-146590828D01*
X101295489Y-146590828D01*
X101324753Y-146587946D01*
X101378825Y-146565548D01*
X101420209Y-146524164D01*
X101442607Y-146470092D01*
X101445489Y-146440828D01*
X101445489Y-144940828D01*
X101442607Y-144911564D01*
X101420209Y-144857492D01*
X101378825Y-144816108D01*
X101324753Y-144793710D01*
X101266225Y-144793710D01*
X101212153Y-144816108D01*
X101170769Y-144857492D01*
X101148371Y-144911564D01*
X101145489Y-144940828D01*
X101145489Y-146290828D01*
X100581203Y-146290828D01*
X100551939Y-146293710D01*
X100497867Y-146316108D01*
X100456483Y-146357492D01*
X100434085Y-146411564D01*
X100108314Y-146411564D01*
X100187269Y-146332608D01*
X100205924Y-146309877D01*
X100210191Y-146299573D01*
X100216831Y-146290613D01*
X100226724Y-146262922D01*
X100298152Y-145977208D01*
X100298901Y-145972136D01*
X100299749Y-145970092D01*
X100300834Y-145959069D01*
X100302454Y-145948119D01*
X100302128Y-145945931D01*
X100302631Y-145940828D01*
X100302631Y-145440828D01*
X100302128Y-145435724D01*
X100302454Y-145433537D01*
X100300834Y-145422586D01*
X100299749Y-145411564D01*
X100298901Y-145409519D01*
X100298152Y-145404448D01*
X100226724Y-145118734D01*
X100216831Y-145091043D01*
X100210192Y-145082083D01*
X100205924Y-145071778D01*
X100187269Y-145049048D01*
X100044412Y-144906191D01*
X100032910Y-144896751D01*
X100030314Y-144893758D01*
X100025800Y-144890917D01*
X100021681Y-144887536D01*
X100018021Y-144886020D01*
X100005428Y-144878093D01*
X99862570Y-144806664D01*
X99835107Y-144796154D01*
X99829729Y-144795771D01*
X99824752Y-144793710D01*
X99795488Y-144790828D01*
X99509774Y-144790828D01*
X99480510Y-144793710D01*
X99475529Y-144795773D01*
X99470155Y-144796155D01*
X99442691Y-144806664D01*
X99299835Y-144878093D01*
X99287243Y-144886019D01*
X99283581Y-144887536D01*
X99279458Y-144890919D01*
X99274949Y-144893758D01*
X99272353Y-144896750D01*
X99260851Y-144906191D01*
X99117994Y-145049048D01*
X99099339Y-145071779D01*
X99095071Y-145082082D01*
X99088432Y-145091043D01*
X99078539Y-145118734D01*
X99007110Y-145404447D01*
X99006359Y-145409519D01*
X99005513Y-145411564D01*
X99004427Y-145422585D01*
X99002808Y-145433537D01*
X99003133Y-145435724D01*
X99002631Y-145440828D01*
X98548839Y-145440828D01*
X98366361Y-144893394D01*
X98354373Y-144866543D01*
X98347350Y-144858446D01*
X98342558Y-144848861D01*
X98328349Y-144836537D01*
X98316026Y-144822329D01*
X98306440Y-144817536D01*
X98298344Y-144810514D01*
X98280500Y-144804565D01*
X98263679Y-144796155D01*
X98252990Y-144795395D01*
X98242820Y-144792005D01*
X98224054Y-144793338D01*
X98205298Y-144792006D01*
X98195130Y-144795395D01*
X98184440Y-144796155D01*
X98167616Y-144804566D01*
X98149774Y-144810514D01*
X98141679Y-144817534D01*
X98132092Y-144822328D01*
X98119766Y-144836539D01*
X98105560Y-144848861D01*
X98100767Y-144858445D01*
X98093745Y-144866543D01*
X98081757Y-144893394D01*
X97581757Y-146393394D01*
X97575237Y-146422067D01*
X97374060Y-146422067D01*
X97374060Y-144940828D01*
X97371178Y-144911564D01*
X97348780Y-144857492D01*
X97307396Y-144816108D01*
X97253324Y-144793710D01*
X97224060Y-144790828D01*
X96866917Y-144790828D01*
X96852105Y-144792286D01*
X96848156Y-144792006D01*
X96842961Y-144793187D01*
X96837653Y-144793710D01*
X96833991Y-144795226D01*
X96819482Y-144798526D01*
X96605197Y-144869955D01*
X96578346Y-144881943D01*
X96574276Y-144885472D01*
X96569295Y-144887536D01*
X96546565Y-144906191D01*
X96403708Y-145049048D01*
X96394268Y-145060549D01*
X96391275Y-145063146D01*
X96388434Y-145067659D01*
X96385053Y-145071779D01*
X96383537Y-145075438D01*
X96375610Y-145088032D01*
X96304181Y-145230889D01*
X96303361Y-145233029D01*
X96302717Y-145233900D01*
X96298330Y-145246177D01*
X96293672Y-145258352D01*
X96293595Y-145259432D01*
X96292824Y-145261591D01*
X96221396Y-145547305D01*
X96220646Y-145552376D01*
X96219799Y-145554421D01*
X96218713Y-145565443D01*
X96217094Y-145576394D01*
X96217419Y-145578581D01*
X96216917Y-145583685D01*
X93710854Y-145583685D01*
X93715248Y-145573076D01*
X93726047Y-145551241D01*
X93726383Y-145546196D01*
X93728320Y-145541521D01*
X93728320Y-145517145D01*
X93729940Y-145492845D01*
X93728320Y-145488054D01*
X93728320Y-145482993D01*
X93718995Y-145460481D01*
X93711190Y-145437402D01*
X93707017Y-145431565D01*
X93705922Y-145428921D01*
X93703131Y-145426130D01*
X93694088Y-145413481D01*
X93411767Y-145090828D01*
X94009774Y-145090828D01*
X94039038Y-145087946D01*
X94093110Y-145065548D01*
X94134494Y-145024164D01*
X94156892Y-144970092D01*
X94156892Y-144911564D01*
X94134494Y-144857492D01*
X94093110Y-144816108D01*
X94039038Y-144793710D01*
X94009774Y-144790828D01*
X93081202Y-144790828D01*
X93065729Y-144792351D01*
X93061790Y-144792089D01*
X93059075Y-144793007D01*
X93051938Y-144793710D01*
X93029429Y-144803033D01*
X93006348Y-144810840D01*
X93002540Y-144814171D01*
X92997866Y-144816108D01*
X92980636Y-144833337D01*
X92962301Y-144849381D01*
X92960058Y-144853915D01*
X92956482Y-144857492D01*
X92947155Y-144880008D01*
X92936357Y-144901844D01*
X92936020Y-144906888D01*
X92934084Y-144911564D01*
X92934084Y-144935930D01*
X92932463Y-144960240D01*
X92934084Y-144965032D01*
X92934084Y-144970092D01*
X92943407Y-144992600D01*
X92951214Y-145015682D01*
X92955385Y-145021518D01*
X92956482Y-145024164D01*
X92959271Y-145026953D01*
X92968315Y-145039604D01*
X93275249Y-145390386D01*
X93156978Y-145449521D01*
X93144386Y-145457447D01*
X93140725Y-145458964D01*
X93136602Y-145462347D01*
X93132093Y-145465186D01*
X93129498Y-145468177D01*
X93117994Y-145477619D01*
X93046565Y-145549048D01*
X93037125Y-145560549D01*
X93034132Y-145563146D01*
X93031291Y-145567659D01*
X93027910Y-145571779D01*
X93026394Y-145575438D01*
X93018467Y-145588032D01*
X92947038Y-145730889D01*
X92936529Y-145758352D01*
X92936147Y-145763726D01*
X92934084Y-145768707D01*
X92931202Y-145797971D01*
X92764535Y-145797971D01*
X92764535Y-144624161D01*
X101612156Y-144624161D01*
X101612156Y-146757495D01*
G37*
X130125400Y-115706917D02*
X130196828Y-115921203D01*
X130196828Y-115921203D02*
X130196828Y-116278345D01*
X130196828Y-116278345D02*
X130125400Y-116421203D01*
X130125400Y-116421203D02*
X130053971Y-116492631D01*
X130053971Y-116492631D02*
X129911114Y-116564060D01*
X129911114Y-116564060D02*
X129768257Y-116564060D01*
X129768257Y-116564060D02*
X129625400Y-116492631D01*
X129625400Y-116492631D02*
X129553971Y-116421203D01*
X129553971Y-116421203D02*
X129482542Y-116278345D01*
X129482542Y-116278345D02*
X129411114Y-115992631D01*
X129411114Y-115992631D02*
X129339685Y-115849774D01*
X129339685Y-115849774D02*
X129268257Y-115778345D01*
X129268257Y-115778345D02*
X129125400Y-115706917D01*
X129125400Y-115706917D02*
X128982542Y-115706917D01*
X128982542Y-115706917D02*
X128839685Y-115778345D01*
X128839685Y-115778345D02*
X128768257Y-115849774D01*
X128768257Y-115849774D02*
X128696828Y-115992631D01*
X128696828Y-115992631D02*
X128696828Y-116349774D01*
X128696828Y-116349774D02*
X128768257Y-116564060D01*
X130196828Y-117206916D02*
X128696828Y-117206916D01*
X128696828Y-117206916D02*
X128696828Y-117564059D01*
X128696828Y-117564059D02*
X128768257Y-117778345D01*
X128768257Y-117778345D02*
X128911114Y-117921202D01*
X128911114Y-117921202D02*
X129053971Y-117992631D01*
X129053971Y-117992631D02*
X129339685Y-118064059D01*
X129339685Y-118064059D02*
X129553971Y-118064059D01*
X129553971Y-118064059D02*
X129839685Y-117992631D01*
X129839685Y-117992631D02*
X129982542Y-117921202D01*
X129982542Y-117921202D02*
X130125400Y-117778345D01*
X130125400Y-117778345D02*
X130196828Y-117564059D01*
X130196828Y-117564059D02*
X130196828Y-117206916D01*
X130196828Y-118706916D02*
X128696828Y-118706916D01*
X130768257Y-119849774D02*
X130696828Y-119778345D01*
X130696828Y-119778345D02*
X130482542Y-119635488D01*
X130482542Y-119635488D02*
X130339685Y-119564060D01*
X130339685Y-119564060D02*
X130125400Y-119492631D01*
X130125400Y-119492631D02*
X129768257Y-119421202D01*
X129768257Y-119421202D02*
X129482542Y-119421202D01*
X129482542Y-119421202D02*
X129125400Y-119492631D01*
X129125400Y-119492631D02*
X128911114Y-119564060D01*
X128911114Y-119564060D02*
X128768257Y-119635488D01*
X128768257Y-119635488D02*
X128553971Y-119778345D01*
X128553971Y-119778345D02*
X128482542Y-119849774D01*
X130196828Y-120421202D02*
X128696828Y-120421202D01*
X128696828Y-120421202D02*
X129768257Y-120921202D01*
X129768257Y-120921202D02*
X128696828Y-121421202D01*
X128696828Y-121421202D02*
X130196828Y-121421202D01*
X128696828Y-122421203D02*
X128696828Y-122706917D01*
X128696828Y-122706917D02*
X128768257Y-122849774D01*
X128768257Y-122849774D02*
X128911114Y-122992631D01*
X128911114Y-122992631D02*
X129196828Y-123064060D01*
X129196828Y-123064060D02*
X129696828Y-123064060D01*
X129696828Y-123064060D02*
X129982542Y-122992631D01*
X129982542Y-122992631D02*
X130125400Y-122849774D01*
X130125400Y-122849774D02*
X130196828Y-122706917D01*
X130196828Y-122706917D02*
X130196828Y-122421203D01*
X130196828Y-122421203D02*
X130125400Y-122278346D01*
X130125400Y-122278346D02*
X129982542Y-122135488D01*
X129982542Y-122135488D02*
X129696828Y-122064060D01*
X129696828Y-122064060D02*
X129196828Y-122064060D01*
X129196828Y-122064060D02*
X128911114Y-122135488D01*
X128911114Y-122135488D02*
X128768257Y-122278346D01*
X128768257Y-122278346D02*
X128696828Y-122421203D01*
X130125400Y-123635489D02*
X130196828Y-123849775D01*
X130196828Y-123849775D02*
X130196828Y-124206917D01*
X130196828Y-124206917D02*
X130125400Y-124349775D01*
X130125400Y-124349775D02*
X130053971Y-124421203D01*
X130053971Y-124421203D02*
X129911114Y-124492632D01*
X129911114Y-124492632D02*
X129768257Y-124492632D01*
X129768257Y-124492632D02*
X129625400Y-124421203D01*
X129625400Y-124421203D02*
X129553971Y-124349775D01*
X129553971Y-124349775D02*
X129482542Y-124206917D01*
X129482542Y-124206917D02*
X129411114Y-123921203D01*
X129411114Y-123921203D02*
X129339685Y-123778346D01*
X129339685Y-123778346D02*
X129268257Y-123706917D01*
X129268257Y-123706917D02*
X129125400Y-123635489D01*
X129125400Y-123635489D02*
X128982542Y-123635489D01*
X128982542Y-123635489D02*
X128839685Y-123706917D01*
X128839685Y-123706917D02*
X128768257Y-123778346D01*
X128768257Y-123778346D02*
X128696828Y-123921203D01*
X128696828Y-123921203D02*
X128696828Y-124278346D01*
X128696828Y-124278346D02*
X128768257Y-124492632D01*
X130196828Y-125135488D02*
X128696828Y-125135488D01*
X130768257Y-125706917D02*
X130696828Y-125778346D01*
X130696828Y-125778346D02*
X130482542Y-125921203D01*
X130482542Y-125921203D02*
X130339685Y-125992632D01*
X130339685Y-125992632D02*
X130125400Y-126064060D01*
X130125400Y-126064060D02*
X129768257Y-126135489D01*
X129768257Y-126135489D02*
X129482542Y-126135489D01*
X129482542Y-126135489D02*
X129125400Y-126064060D01*
X129125400Y-126064060D02*
X128911114Y-125992632D01*
X128911114Y-125992632D02*
X128768257Y-125921203D01*
X128768257Y-125921203D02*
X128553971Y-125778346D01*
X128553971Y-125778346D02*
X128482542Y-125706917D01*
X113456828Y-120564060D02*
X113456828Y-121421203D01*
X114956828Y-120992631D02*
X113456828Y-120992631D01*
X115099685Y-121564060D02*
X115099685Y-122706917D01*
X114956828Y-123064059D02*
X113456828Y-123064059D01*
X113456828Y-123064059D02*
X113456828Y-123421202D01*
X113456828Y-123421202D02*
X113528257Y-123635488D01*
X113528257Y-123635488D02*
X113671114Y-123778345D01*
X113671114Y-123778345D02*
X113813971Y-123849774D01*
X113813971Y-123849774D02*
X114099685Y-123921202D01*
X114099685Y-123921202D02*
X114313971Y-123921202D01*
X114313971Y-123921202D02*
X114599685Y-123849774D01*
X114599685Y-123849774D02*
X114742542Y-123778345D01*
X114742542Y-123778345D02*
X114885400Y-123635488D01*
X114885400Y-123635488D02*
X114956828Y-123421202D01*
X114956828Y-123421202D02*
X114956828Y-123064059D01*
X114956828Y-124564059D02*
X113456828Y-124564059D01*
X114956828Y-125278345D02*
X113456828Y-125278345D01*
X113456828Y-125278345D02*
X114956828Y-126135488D01*
X114956828Y-126135488D02*
X113456828Y-126135488D01*
D12*
%TO.C,REF\u002A\u002A*%
X95522836Y-139862363D02*
X95537023Y-139876032D01*
X95578392Y-139917719D01*
X95633107Y-139974472D01*
X95698510Y-140043397D01*
X95771943Y-140121599D01*
X95850746Y-140206182D01*
X95932260Y-140294253D01*
X96013827Y-140382916D01*
X96092788Y-140469276D01*
X96166483Y-140550439D01*
X96232254Y-140623510D01*
X96287441Y-140685594D01*
X96329386Y-140733795D01*
X96355431Y-140765220D01*
X96362915Y-140776974D01*
X96360346Y-140778272D01*
X96335785Y-140791978D01*
X96287204Y-140819613D01*
X96216652Y-140859998D01*
X96126173Y-140911955D01*
X96017815Y-140974305D01*
X95893624Y-141045871D01*
X95755645Y-141125475D01*
X95605926Y-141211938D01*
X95446513Y-141304083D01*
X95279451Y-141400732D01*
X95217008Y-141436867D01*
X95052883Y-141531806D01*
X94897358Y-141621714D01*
X94752454Y-141705424D01*
X94620195Y-141781771D01*
X94502604Y-141849589D01*
X94401702Y-141907711D01*
X94319513Y-141954971D01*
X94258059Y-141990203D01*
X94219364Y-142012242D01*
X94205449Y-142019920D01*
X94206075Y-142015831D01*
X94217493Y-141992330D01*
X94238493Y-141954786D01*
X94251376Y-141932564D01*
X94278772Y-141885173D01*
X94319087Y-141815377D01*
X94371009Y-141725444D01*
X94433231Y-141617642D01*
X94504443Y-141494240D01*
X94583335Y-141357506D01*
X94668598Y-141209709D01*
X94758924Y-141053117D01*
X94853002Y-140890000D01*
X94945121Y-140730323D01*
X95034680Y-140575187D01*
X95118893Y-140429412D01*
X95196497Y-140295183D01*
X95266225Y-140174685D01*
X95326814Y-140070102D01*
X95376998Y-139983619D01*
X95415512Y-139917421D01*
X95441092Y-139873693D01*
X95452472Y-139854619D01*
X95475820Y-139818201D01*
X95522836Y-139862363D01*
G36*
X95522836Y-139862363D02*
G01*
X95537023Y-139876032D01*
X95578392Y-139917719D01*
X95633107Y-139974472D01*
X95698510Y-140043397D01*
X95771943Y-140121599D01*
X95850746Y-140206182D01*
X95932260Y-140294253D01*
X96013827Y-140382916D01*
X96092788Y-140469276D01*
X96166483Y-140550439D01*
X96232254Y-140623510D01*
X96287441Y-140685594D01*
X96329386Y-140733795D01*
X96355431Y-140765220D01*
X96362915Y-140776974D01*
X96360346Y-140778272D01*
X96335785Y-140791978D01*
X96287204Y-140819613D01*
X96216652Y-140859998D01*
X96126173Y-140911955D01*
X96017815Y-140974305D01*
X95893624Y-141045871D01*
X95755645Y-141125475D01*
X95605926Y-141211938D01*
X95446513Y-141304083D01*
X95279451Y-141400732D01*
X95217008Y-141436867D01*
X95052883Y-141531806D01*
X94897358Y-141621714D01*
X94752454Y-141705424D01*
X94620195Y-141781771D01*
X94502604Y-141849589D01*
X94401702Y-141907711D01*
X94319513Y-141954971D01*
X94258059Y-141990203D01*
X94219364Y-142012242D01*
X94205449Y-142019920D01*
X94206075Y-142015831D01*
X94217493Y-141992330D01*
X94238493Y-141954786D01*
X94251376Y-141932564D01*
X94278772Y-141885173D01*
X94319087Y-141815377D01*
X94371009Y-141725444D01*
X94433231Y-141617642D01*
X94504443Y-141494240D01*
X94583335Y-141357506D01*
X94668598Y-141209709D01*
X94758924Y-141053117D01*
X94853002Y-140890000D01*
X94945121Y-140730323D01*
X95034680Y-140575187D01*
X95118893Y-140429412D01*
X95196497Y-140295183D01*
X95266225Y-140174685D01*
X95326814Y-140070102D01*
X95376998Y-139983619D01*
X95415512Y-139917421D01*
X95441092Y-139873693D01*
X95452472Y-139854619D01*
X95475820Y-139818201D01*
X95522836Y-139862363D01*
G37*
X97285560Y-136693175D02*
X97297093Y-136710511D01*
X97322500Y-136752162D01*
X97360507Y-136815911D01*
X97409837Y-136899545D01*
X97469213Y-137000849D01*
X97537359Y-137117609D01*
X97613000Y-137247608D01*
X97694859Y-137388633D01*
X97781660Y-137538468D01*
X97872126Y-137694900D01*
X97964982Y-137855713D01*
X98058951Y-138018693D01*
X98152757Y-138181624D01*
X98245124Y-138342292D01*
X98334776Y-138498482D01*
X98420436Y-138647980D01*
X98500828Y-138788571D01*
X98574677Y-138918040D01*
X98640705Y-139034172D01*
X98697637Y-139134752D01*
X98744197Y-139217567D01*
X98779108Y-139280400D01*
X98801094Y-139321037D01*
X98808879Y-139337264D01*
X98808887Y-139337388D01*
X98796333Y-139354416D01*
X98760258Y-139383279D01*
X98704417Y-139421247D01*
X98632561Y-139465587D01*
X98584373Y-139493952D01*
X98515032Y-139533396D01*
X98466734Y-139558254D01*
X98436242Y-139569924D01*
X98420320Y-139569806D01*
X98415732Y-139559297D01*
X98415382Y-139557583D01*
X98402268Y-139536682D01*
X98374000Y-139501139D01*
X98335786Y-139457583D01*
X98318155Y-139438875D01*
X98263482Y-139388512D01*
X98203022Y-139345465D01*
X98133182Y-139308473D01*
X98050370Y-139276273D01*
X97950992Y-139247602D01*
X97831455Y-139221198D01*
X97688166Y-139195800D01*
X97517531Y-139170145D01*
X97321134Y-139141227D01*
X97131274Y-139110173D01*
X96965260Y-139079044D01*
X96819382Y-139046942D01*
X96689927Y-139012969D01*
X96573183Y-138976226D01*
X96465440Y-138935817D01*
X96362985Y-138890843D01*
X96287688Y-138853754D01*
X96215765Y-138814725D01*
X96158886Y-138779882D01*
X96121499Y-138751965D01*
X96108049Y-138733714D01*
X96108446Y-138732370D01*
X96119280Y-138710862D01*
X96143845Y-138665822D01*
X96180685Y-138599772D01*
X96228347Y-138515233D01*
X96285376Y-138414727D01*
X96350318Y-138300776D01*
X96421719Y-138175901D01*
X96498124Y-138042624D01*
X96578079Y-137903467D01*
X96660130Y-137760951D01*
X96742822Y-137617598D01*
X96824701Y-137475930D01*
X96904313Y-137338468D01*
X96980204Y-137207734D01*
X97050919Y-137086250D01*
X97115004Y-136976538D01*
X97171004Y-136881118D01*
X97217466Y-136802514D01*
X97252935Y-136743245D01*
X97275957Y-136705835D01*
X97285077Y-136692805D01*
X97285560Y-136693175D01*
G36*
X97285560Y-136693175D02*
G01*
X97297093Y-136710511D01*
X97322500Y-136752162D01*
X97360507Y-136815911D01*
X97409837Y-136899545D01*
X97469213Y-137000849D01*
X97537359Y-137117609D01*
X97613000Y-137247608D01*
X97694859Y-137388633D01*
X97781660Y-137538468D01*
X97872126Y-137694900D01*
X97964982Y-137855713D01*
X98058951Y-138018693D01*
X98152757Y-138181624D01*
X98245124Y-138342292D01*
X98334776Y-138498482D01*
X98420436Y-138647980D01*
X98500828Y-138788571D01*
X98574677Y-138918040D01*
X98640705Y-139034172D01*
X98697637Y-139134752D01*
X98744197Y-139217567D01*
X98779108Y-139280400D01*
X98801094Y-139321037D01*
X98808879Y-139337264D01*
X98808887Y-139337388D01*
X98796333Y-139354416D01*
X98760258Y-139383279D01*
X98704417Y-139421247D01*
X98632561Y-139465587D01*
X98584373Y-139493952D01*
X98515032Y-139533396D01*
X98466734Y-139558254D01*
X98436242Y-139569924D01*
X98420320Y-139569806D01*
X98415732Y-139559297D01*
X98415382Y-139557583D01*
X98402268Y-139536682D01*
X98374000Y-139501139D01*
X98335786Y-139457583D01*
X98318155Y-139438875D01*
X98263482Y-139388512D01*
X98203022Y-139345465D01*
X98133182Y-139308473D01*
X98050370Y-139276273D01*
X97950992Y-139247602D01*
X97831455Y-139221198D01*
X97688166Y-139195800D01*
X97517531Y-139170145D01*
X97321134Y-139141227D01*
X97131274Y-139110173D01*
X96965260Y-139079044D01*
X96819382Y-139046942D01*
X96689927Y-139012969D01*
X96573183Y-138976226D01*
X96465440Y-138935817D01*
X96362985Y-138890843D01*
X96287688Y-138853754D01*
X96215765Y-138814725D01*
X96158886Y-138779882D01*
X96121499Y-138751965D01*
X96108049Y-138733714D01*
X96108446Y-138732370D01*
X96119280Y-138710862D01*
X96143845Y-138665822D01*
X96180685Y-138599772D01*
X96228347Y-138515233D01*
X96285376Y-138414727D01*
X96350318Y-138300776D01*
X96421719Y-138175901D01*
X96498124Y-138042624D01*
X96578079Y-137903467D01*
X96660130Y-137760951D01*
X96742822Y-137617598D01*
X96824701Y-137475930D01*
X96904313Y-137338468D01*
X96980204Y-137207734D01*
X97050919Y-137086250D01*
X97115004Y-136976538D01*
X97171004Y-136881118D01*
X97217466Y-136802514D01*
X97252935Y-136743245D01*
X97275957Y-136705835D01*
X97285077Y-136692805D01*
X97285560Y-136693175D01*
G37*
X99150047Y-139916040D02*
X99155802Y-139924625D01*
X99176365Y-139958346D01*
X99210179Y-140015200D01*
X99255950Y-140092968D01*
X99312383Y-140189432D01*
X99378184Y-140302371D01*
X99452058Y-140429568D01*
X99532711Y-140568803D01*
X99618848Y-140717857D01*
X99709175Y-140874512D01*
X99733947Y-140917521D01*
X99831900Y-141087575D01*
X99930509Y-141258754D01*
X100027760Y-141427562D01*
X100121638Y-141590503D01*
X100210131Y-141744082D01*
X100291222Y-141884801D01*
X100362898Y-142009166D01*
X100423144Y-142113680D01*
X100469947Y-142194847D01*
X100691030Y-142578171D01*
X97591076Y-142578171D01*
X97462921Y-142578159D01*
X97157500Y-142578042D01*
X96861432Y-142577802D01*
X96576159Y-142577444D01*
X96303123Y-142576976D01*
X96043765Y-142576403D01*
X95799527Y-142575732D01*
X95571849Y-142574968D01*
X95362174Y-142574119D01*
X95171943Y-142573189D01*
X95002597Y-142572186D01*
X94855578Y-142571115D01*
X94732327Y-142569983D01*
X94634286Y-142568796D01*
X94562896Y-142567559D01*
X94519598Y-142566280D01*
X94505835Y-142564963D01*
X94516054Y-142558304D01*
X94551311Y-142537083D01*
X94609221Y-142502920D01*
X94687430Y-142457171D01*
X94783583Y-142401190D01*
X94895323Y-142336333D01*
X95020296Y-142263954D01*
X95156146Y-142185409D01*
X95300518Y-142102054D01*
X95451056Y-142015243D01*
X95605405Y-141926332D01*
X95761210Y-141836676D01*
X95916116Y-141747629D01*
X96067766Y-141660548D01*
X96213806Y-141576788D01*
X96351881Y-141497703D01*
X96479634Y-141424649D01*
X96594711Y-141358981D01*
X96694756Y-141302054D01*
X96777414Y-141255224D01*
X96840329Y-141219846D01*
X96881147Y-141197274D01*
X96897511Y-141188864D01*
X96908189Y-141190949D01*
X96940358Y-141209908D01*
X96986221Y-141245032D01*
X97040740Y-141292669D01*
X97089845Y-141340356D01*
X97152389Y-141405316D01*
X97222368Y-141481155D01*
X97296196Y-141563698D01*
X97370285Y-141648768D01*
X97441048Y-141732190D01*
X97504898Y-141809789D01*
X97558247Y-141877389D01*
X97597509Y-141930814D01*
X97619095Y-141965889D01*
X97633506Y-141991505D01*
X97672643Y-142044516D01*
X97722958Y-142100912D01*
X97777276Y-142153462D01*
X97828424Y-142194930D01*
X97869227Y-142218086D01*
X97914292Y-142223438D01*
X97974426Y-142208645D01*
X98031579Y-142174726D01*
X98075933Y-142126053D01*
X98083613Y-142113425D01*
X98093392Y-142092743D01*
X98099765Y-142067854D01*
X98103142Y-142033409D01*
X98103931Y-141984062D01*
X98102541Y-141914464D01*
X98099381Y-141819268D01*
X98097116Y-141764202D01*
X98092304Y-141677117D01*
X98086625Y-141600899D01*
X98080608Y-141542249D01*
X98074783Y-141507866D01*
X98060679Y-141468588D01*
X98018866Y-141391240D01*
X97953895Y-141299591D01*
X97864970Y-141192567D01*
X97751300Y-141069090D01*
X97701972Y-141017066D01*
X97644938Y-140955696D01*
X97597864Y-140903665D01*
X97564624Y-140865266D01*
X97549089Y-140844796D01*
X97547492Y-140841546D01*
X97545577Y-140827553D01*
X97555145Y-140812039D01*
X97580115Y-140791659D01*
X97624406Y-140763071D01*
X97691938Y-140722932D01*
X97749347Y-140689422D01*
X97854992Y-140628123D01*
X97938171Y-140580509D01*
X98001678Y-140545033D01*
X98048306Y-140520149D01*
X98080850Y-140504313D01*
X98102104Y-140495977D01*
X98124097Y-140486728D01*
X98136951Y-140474307D01*
X98138154Y-140471378D01*
X98156961Y-140455084D01*
X98191335Y-140434098D01*
X98245719Y-140404810D01*
X98285874Y-140442192D01*
X98300057Y-140457336D01*
X98333055Y-140498493D01*
X98373346Y-140553445D01*
X98415182Y-140614531D01*
X98504336Y-140749489D01*
X98500837Y-141099362D01*
X98497339Y-141449235D01*
X98446393Y-141498733D01*
X98429274Y-141516379D01*
X98374376Y-141595660D01*
X98342330Y-141689935D01*
X98331412Y-141803780D01*
X98334123Y-141864779D01*
X98353261Y-141972378D01*
X98388141Y-142070583D01*
X98435742Y-142149382D01*
X98468795Y-142178114D01*
X98527549Y-142199937D01*
X98594061Y-142202454D01*
X98659816Y-142186828D01*
X98716301Y-142154220D01*
X98755003Y-142105793D01*
X98756270Y-142103168D01*
X98779663Y-142055225D01*
X98804439Y-142005122D01*
X98825472Y-141958087D01*
X98855644Y-141878810D01*
X98888932Y-141781072D01*
X98924179Y-141669228D01*
X98960229Y-141547634D01*
X98995925Y-141420645D01*
X99030110Y-141292616D01*
X99061627Y-141167902D01*
X99089320Y-141050859D01*
X99112032Y-140945843D01*
X99128606Y-140857209D01*
X99137885Y-140789312D01*
X99138714Y-140746507D01*
X99136847Y-140736782D01*
X99118658Y-140687556D01*
X99084907Y-140621699D01*
X99038555Y-140545165D01*
X99020764Y-140517585D01*
X98949282Y-140405122D01*
X98888520Y-140306772D01*
X98839817Y-140224832D01*
X98804514Y-140161605D01*
X98783952Y-140119390D01*
X98779469Y-140100487D01*
X98779988Y-140099820D01*
X98798545Y-140086205D01*
X98838202Y-140061319D01*
X98893526Y-140028476D01*
X98959084Y-139990988D01*
X98964626Y-139987876D01*
X99035807Y-139948712D01*
X99085381Y-139923736D01*
X99117906Y-139911158D01*
X99137942Y-139909189D01*
X99150047Y-139916040D01*
G36*
X99150047Y-139916040D02*
G01*
X99155802Y-139924625D01*
X99176365Y-139958346D01*
X99210179Y-140015200D01*
X99255950Y-140092968D01*
X99312383Y-140189432D01*
X99378184Y-140302371D01*
X99452058Y-140429568D01*
X99532711Y-140568803D01*
X99618848Y-140717857D01*
X99709175Y-140874512D01*
X99733947Y-140917521D01*
X99831900Y-141087575D01*
X99930509Y-141258754D01*
X100027760Y-141427562D01*
X100121638Y-141590503D01*
X100210131Y-141744082D01*
X100291222Y-141884801D01*
X100362898Y-142009166D01*
X100423144Y-142113680D01*
X100469947Y-142194847D01*
X100691030Y-142578171D01*
X97591076Y-142578171D01*
X97462921Y-142578159D01*
X97157500Y-142578042D01*
X96861432Y-142577802D01*
X96576159Y-142577444D01*
X96303123Y-142576976D01*
X96043765Y-142576403D01*
X95799527Y-142575732D01*
X95571849Y-142574968D01*
X95362174Y-142574119D01*
X95171943Y-142573189D01*
X95002597Y-142572186D01*
X94855578Y-142571115D01*
X94732327Y-142569983D01*
X94634286Y-142568796D01*
X94562896Y-142567559D01*
X94519598Y-142566280D01*
X94505835Y-142564963D01*
X94516054Y-142558304D01*
X94551311Y-142537083D01*
X94609221Y-142502920D01*
X94687430Y-142457171D01*
X94783583Y-142401190D01*
X94895323Y-142336333D01*
X95020296Y-142263954D01*
X95156146Y-142185409D01*
X95300518Y-142102054D01*
X95451056Y-142015243D01*
X95605405Y-141926332D01*
X95761210Y-141836676D01*
X95916116Y-141747629D01*
X96067766Y-141660548D01*
X96213806Y-141576788D01*
X96351881Y-141497703D01*
X96479634Y-141424649D01*
X96594711Y-141358981D01*
X96694756Y-141302054D01*
X96777414Y-141255224D01*
X96840329Y-141219846D01*
X96881147Y-141197274D01*
X96897511Y-141188864D01*
X96908189Y-141190949D01*
X96940358Y-141209908D01*
X96986221Y-141245032D01*
X97040740Y-141292669D01*
X97089845Y-141340356D01*
X97152389Y-141405316D01*
X97222368Y-141481155D01*
X97296196Y-141563698D01*
X97370285Y-141648768D01*
X97441048Y-141732190D01*
X97504898Y-141809789D01*
X97558247Y-141877389D01*
X97597509Y-141930814D01*
X97619095Y-141965889D01*
X97633506Y-141991505D01*
X97672643Y-142044516D01*
X97722958Y-142100912D01*
X97777276Y-142153462D01*
X97828424Y-142194930D01*
X97869227Y-142218086D01*
X97914292Y-142223438D01*
X97974426Y-142208645D01*
X98031579Y-142174726D01*
X98075933Y-142126053D01*
X98083613Y-142113425D01*
X98093392Y-142092743D01*
X98099765Y-142067854D01*
X98103142Y-142033409D01*
X98103931Y-141984062D01*
X98102541Y-141914464D01*
X98099381Y-141819268D01*
X98097116Y-141764202D01*
X98092304Y-141677117D01*
X98086625Y-141600899D01*
X98080608Y-141542249D01*
X98074783Y-141507866D01*
X98060679Y-141468588D01*
X98018866Y-141391240D01*
X97953895Y-141299591D01*
X97864970Y-141192567D01*
X97751300Y-141069090D01*
X97701972Y-141017066D01*
X97644938Y-140955696D01*
X97597864Y-140903665D01*
X97564624Y-140865266D01*
X97549089Y-140844796D01*
X97547492Y-140841546D01*
X97545577Y-140827553D01*
X97555145Y-140812039D01*
X97580115Y-140791659D01*
X97624406Y-140763071D01*
X97691938Y-140722932D01*
X97749347Y-140689422D01*
X97854992Y-140628123D01*
X97938171Y-140580509D01*
X98001678Y-140545033D01*
X98048306Y-140520149D01*
X98080850Y-140504313D01*
X98102104Y-140495977D01*
X98124097Y-140486728D01*
X98136951Y-140474307D01*
X98138154Y-140471378D01*
X98156961Y-140455084D01*
X98191335Y-140434098D01*
X98245719Y-140404810D01*
X98285874Y-140442192D01*
X98300057Y-140457336D01*
X98333055Y-140498493D01*
X98373346Y-140553445D01*
X98415182Y-140614531D01*
X98504336Y-140749489D01*
X98500837Y-141099362D01*
X98497339Y-141449235D01*
X98446393Y-141498733D01*
X98429274Y-141516379D01*
X98374376Y-141595660D01*
X98342330Y-141689935D01*
X98331412Y-141803780D01*
X98334123Y-141864779D01*
X98353261Y-141972378D01*
X98388141Y-142070583D01*
X98435742Y-142149382D01*
X98468795Y-142178114D01*
X98527549Y-142199937D01*
X98594061Y-142202454D01*
X98659816Y-142186828D01*
X98716301Y-142154220D01*
X98755003Y-142105793D01*
X98756270Y-142103168D01*
X98779663Y-142055225D01*
X98804439Y-142005122D01*
X98825472Y-141958087D01*
X98855644Y-141878810D01*
X98888932Y-141781072D01*
X98924179Y-141669228D01*
X98960229Y-141547634D01*
X98995925Y-141420645D01*
X99030110Y-141292616D01*
X99061627Y-141167902D01*
X99089320Y-141050859D01*
X99112032Y-140945843D01*
X99128606Y-140857209D01*
X99137885Y-140789312D01*
X99138714Y-140746507D01*
X99136847Y-140736782D01*
X99118658Y-140687556D01*
X99084907Y-140621699D01*
X99038555Y-140545165D01*
X99020764Y-140517585D01*
X98949282Y-140405122D01*
X98888520Y-140306772D01*
X98839817Y-140224832D01*
X98804514Y-140161605D01*
X98783952Y-140119390D01*
X98779469Y-140100487D01*
X98779988Y-140099820D01*
X98798545Y-140086205D01*
X98838202Y-140061319D01*
X98893526Y-140028476D01*
X98959084Y-139990988D01*
X98964626Y-139987876D01*
X99035807Y-139948712D01*
X99085381Y-139923736D01*
X99117906Y-139911158D01*
X99137942Y-139909189D01*
X99150047Y-139916040D01*
G37*
D13*
%TO.C,U6*%
X107750000Y-127010000D02*
X107750000Y-128340000D01*
X109080000Y-127010000D02*
X107750000Y-127010000D01*
X110350000Y-127010000D02*
X110350000Y-129670000D01*
X110350000Y-127010000D02*
X143430000Y-127010000D01*
X110350000Y-129670000D02*
X143430000Y-129670000D01*
X143430000Y-127010000D02*
X143430000Y-129670000D01*
D10*
X100820000Y-48970000D02*
X150820000Y-48970000D01*
X150820000Y-130470000D01*
X100820000Y-130470000D01*
X100820000Y-48970000D01*
D12*
%TO.C,REF\u002A\u002A*%
X86012836Y-139862363D02*
X86027023Y-139876032D01*
X86068392Y-139917719D01*
X86123107Y-139974472D01*
X86188510Y-140043397D01*
X86261943Y-140121599D01*
X86340746Y-140206182D01*
X86422260Y-140294253D01*
X86503827Y-140382916D01*
X86582788Y-140469276D01*
X86656483Y-140550439D01*
X86722254Y-140623510D01*
X86777441Y-140685594D01*
X86819386Y-140733795D01*
X86845431Y-140765220D01*
X86852915Y-140776974D01*
X86850346Y-140778272D01*
X86825785Y-140791978D01*
X86777204Y-140819613D01*
X86706652Y-140859998D01*
X86616173Y-140911955D01*
X86507815Y-140974305D01*
X86383624Y-141045871D01*
X86245645Y-141125475D01*
X86095926Y-141211938D01*
X85936513Y-141304083D01*
X85769451Y-141400732D01*
X85707008Y-141436867D01*
X85542883Y-141531806D01*
X85387358Y-141621714D01*
X85242454Y-141705424D01*
X85110195Y-141781771D01*
X84992604Y-141849589D01*
X84891702Y-141907711D01*
X84809513Y-141954971D01*
X84748059Y-141990203D01*
X84709364Y-142012242D01*
X84695449Y-142019920D01*
X84696075Y-142015831D01*
X84707493Y-141992330D01*
X84728493Y-141954786D01*
X84741376Y-141932564D01*
X84768772Y-141885173D01*
X84809087Y-141815377D01*
X84861009Y-141725444D01*
X84923231Y-141617642D01*
X84994443Y-141494240D01*
X85073335Y-141357506D01*
X85158598Y-141209709D01*
X85248924Y-141053117D01*
X85343002Y-140890000D01*
X85435121Y-140730323D01*
X85524680Y-140575187D01*
X85608893Y-140429412D01*
X85686497Y-140295183D01*
X85756225Y-140174685D01*
X85816814Y-140070102D01*
X85866998Y-139983619D01*
X85905512Y-139917421D01*
X85931092Y-139873693D01*
X85942472Y-139854619D01*
X85965820Y-139818201D01*
X86012836Y-139862363D01*
G36*
X86012836Y-139862363D02*
G01*
X86027023Y-139876032D01*
X86068392Y-139917719D01*
X86123107Y-139974472D01*
X86188510Y-140043397D01*
X86261943Y-140121599D01*
X86340746Y-140206182D01*
X86422260Y-140294253D01*
X86503827Y-140382916D01*
X86582788Y-140469276D01*
X86656483Y-140550439D01*
X86722254Y-140623510D01*
X86777441Y-140685594D01*
X86819386Y-140733795D01*
X86845431Y-140765220D01*
X86852915Y-140776974D01*
X86850346Y-140778272D01*
X86825785Y-140791978D01*
X86777204Y-140819613D01*
X86706652Y-140859998D01*
X86616173Y-140911955D01*
X86507815Y-140974305D01*
X86383624Y-141045871D01*
X86245645Y-141125475D01*
X86095926Y-141211938D01*
X85936513Y-141304083D01*
X85769451Y-141400732D01*
X85707008Y-141436867D01*
X85542883Y-141531806D01*
X85387358Y-141621714D01*
X85242454Y-141705424D01*
X85110195Y-141781771D01*
X84992604Y-141849589D01*
X84891702Y-141907711D01*
X84809513Y-141954971D01*
X84748059Y-141990203D01*
X84709364Y-142012242D01*
X84695449Y-142019920D01*
X84696075Y-142015831D01*
X84707493Y-141992330D01*
X84728493Y-141954786D01*
X84741376Y-141932564D01*
X84768772Y-141885173D01*
X84809087Y-141815377D01*
X84861009Y-141725444D01*
X84923231Y-141617642D01*
X84994443Y-141494240D01*
X85073335Y-141357506D01*
X85158598Y-141209709D01*
X85248924Y-141053117D01*
X85343002Y-140890000D01*
X85435121Y-140730323D01*
X85524680Y-140575187D01*
X85608893Y-140429412D01*
X85686497Y-140295183D01*
X85756225Y-140174685D01*
X85816814Y-140070102D01*
X85866998Y-139983619D01*
X85905512Y-139917421D01*
X85931092Y-139873693D01*
X85942472Y-139854619D01*
X85965820Y-139818201D01*
X86012836Y-139862363D01*
G37*
X87775560Y-136693175D02*
X87787093Y-136710511D01*
X87812500Y-136752162D01*
X87850507Y-136815911D01*
X87899837Y-136899545D01*
X87959213Y-137000849D01*
X88027359Y-137117609D01*
X88103000Y-137247608D01*
X88184859Y-137388633D01*
X88271660Y-137538468D01*
X88362126Y-137694900D01*
X88454982Y-137855713D01*
X88548951Y-138018693D01*
X88642757Y-138181624D01*
X88735124Y-138342292D01*
X88824776Y-138498482D01*
X88910436Y-138647980D01*
X88990828Y-138788571D01*
X89064677Y-138918040D01*
X89130705Y-139034172D01*
X89187637Y-139134752D01*
X89234197Y-139217567D01*
X89269108Y-139280400D01*
X89291094Y-139321037D01*
X89298879Y-139337264D01*
X89298887Y-139337388D01*
X89286333Y-139354416D01*
X89250258Y-139383279D01*
X89194417Y-139421247D01*
X89122561Y-139465587D01*
X89074373Y-139493952D01*
X89005032Y-139533396D01*
X88956734Y-139558254D01*
X88926242Y-139569924D01*
X88910320Y-139569806D01*
X88905732Y-139559297D01*
X88905382Y-139557583D01*
X88892268Y-139536682D01*
X88864000Y-139501139D01*
X88825786Y-139457583D01*
X88808155Y-139438875D01*
X88753482Y-139388512D01*
X88693022Y-139345465D01*
X88623182Y-139308473D01*
X88540370Y-139276273D01*
X88440992Y-139247602D01*
X88321455Y-139221198D01*
X88178166Y-139195800D01*
X88007531Y-139170145D01*
X87811134Y-139141227D01*
X87621274Y-139110173D01*
X87455260Y-139079044D01*
X87309382Y-139046942D01*
X87179927Y-139012969D01*
X87063183Y-138976226D01*
X86955440Y-138935817D01*
X86852985Y-138890843D01*
X86777688Y-138853754D01*
X86705765Y-138814725D01*
X86648886Y-138779882D01*
X86611499Y-138751965D01*
X86598049Y-138733714D01*
X86598446Y-138732370D01*
X86609280Y-138710862D01*
X86633845Y-138665822D01*
X86670685Y-138599772D01*
X86718347Y-138515233D01*
X86775376Y-138414727D01*
X86840318Y-138300776D01*
X86911719Y-138175901D01*
X86988124Y-138042624D01*
X87068079Y-137903467D01*
X87150130Y-137760951D01*
X87232822Y-137617598D01*
X87314701Y-137475930D01*
X87394313Y-137338468D01*
X87470204Y-137207734D01*
X87540919Y-137086250D01*
X87605004Y-136976538D01*
X87661004Y-136881118D01*
X87707466Y-136802514D01*
X87742935Y-136743245D01*
X87765957Y-136705835D01*
X87775077Y-136692805D01*
X87775560Y-136693175D01*
G36*
X87775560Y-136693175D02*
G01*
X87787093Y-136710511D01*
X87812500Y-136752162D01*
X87850507Y-136815911D01*
X87899837Y-136899545D01*
X87959213Y-137000849D01*
X88027359Y-137117609D01*
X88103000Y-137247608D01*
X88184859Y-137388633D01*
X88271660Y-137538468D01*
X88362126Y-137694900D01*
X88454982Y-137855713D01*
X88548951Y-138018693D01*
X88642757Y-138181624D01*
X88735124Y-138342292D01*
X88824776Y-138498482D01*
X88910436Y-138647980D01*
X88990828Y-138788571D01*
X89064677Y-138918040D01*
X89130705Y-139034172D01*
X89187637Y-139134752D01*
X89234197Y-139217567D01*
X89269108Y-139280400D01*
X89291094Y-139321037D01*
X89298879Y-139337264D01*
X89298887Y-139337388D01*
X89286333Y-139354416D01*
X89250258Y-139383279D01*
X89194417Y-139421247D01*
X89122561Y-139465587D01*
X89074373Y-139493952D01*
X89005032Y-139533396D01*
X88956734Y-139558254D01*
X88926242Y-139569924D01*
X88910320Y-139569806D01*
X88905732Y-139559297D01*
X88905382Y-139557583D01*
X88892268Y-139536682D01*
X88864000Y-139501139D01*
X88825786Y-139457583D01*
X88808155Y-139438875D01*
X88753482Y-139388512D01*
X88693022Y-139345465D01*
X88623182Y-139308473D01*
X88540370Y-139276273D01*
X88440992Y-139247602D01*
X88321455Y-139221198D01*
X88178166Y-139195800D01*
X88007531Y-139170145D01*
X87811134Y-139141227D01*
X87621274Y-139110173D01*
X87455260Y-139079044D01*
X87309382Y-139046942D01*
X87179927Y-139012969D01*
X87063183Y-138976226D01*
X86955440Y-138935817D01*
X86852985Y-138890843D01*
X86777688Y-138853754D01*
X86705765Y-138814725D01*
X86648886Y-138779882D01*
X86611499Y-138751965D01*
X86598049Y-138733714D01*
X86598446Y-138732370D01*
X86609280Y-138710862D01*
X86633845Y-138665822D01*
X86670685Y-138599772D01*
X86718347Y-138515233D01*
X86775376Y-138414727D01*
X86840318Y-138300776D01*
X86911719Y-138175901D01*
X86988124Y-138042624D01*
X87068079Y-137903467D01*
X87150130Y-137760951D01*
X87232822Y-137617598D01*
X87314701Y-137475930D01*
X87394313Y-137338468D01*
X87470204Y-137207734D01*
X87540919Y-137086250D01*
X87605004Y-136976538D01*
X87661004Y-136881118D01*
X87707466Y-136802514D01*
X87742935Y-136743245D01*
X87765957Y-136705835D01*
X87775077Y-136692805D01*
X87775560Y-136693175D01*
G37*
X89640047Y-139916040D02*
X89645802Y-139924625D01*
X89666365Y-139958346D01*
X89700179Y-140015200D01*
X89745950Y-140092968D01*
X89802383Y-140189432D01*
X89868184Y-140302371D01*
X89942058Y-140429568D01*
X90022711Y-140568803D01*
X90108848Y-140717857D01*
X90199175Y-140874512D01*
X90223947Y-140917521D01*
X90321900Y-141087575D01*
X90420509Y-141258754D01*
X90517760Y-141427562D01*
X90611638Y-141590503D01*
X90700131Y-141744082D01*
X90781222Y-141884801D01*
X90852898Y-142009166D01*
X90913144Y-142113680D01*
X90959947Y-142194847D01*
X91181030Y-142578171D01*
X88081076Y-142578171D01*
X87952921Y-142578159D01*
X87647500Y-142578042D01*
X87351432Y-142577802D01*
X87066159Y-142577444D01*
X86793123Y-142576976D01*
X86533765Y-142576403D01*
X86289527Y-142575732D01*
X86061849Y-142574968D01*
X85852174Y-142574119D01*
X85661943Y-142573189D01*
X85492597Y-142572186D01*
X85345578Y-142571115D01*
X85222327Y-142569983D01*
X85124286Y-142568796D01*
X85052896Y-142567559D01*
X85009598Y-142566280D01*
X84995835Y-142564963D01*
X85006054Y-142558304D01*
X85041311Y-142537083D01*
X85099221Y-142502920D01*
X85177430Y-142457171D01*
X85273583Y-142401190D01*
X85385323Y-142336333D01*
X85510296Y-142263954D01*
X85646146Y-142185409D01*
X85790518Y-142102054D01*
X85941056Y-142015243D01*
X86095405Y-141926332D01*
X86251210Y-141836676D01*
X86406116Y-141747629D01*
X86557766Y-141660548D01*
X86703806Y-141576788D01*
X86841881Y-141497703D01*
X86969634Y-141424649D01*
X87084711Y-141358981D01*
X87184756Y-141302054D01*
X87267414Y-141255224D01*
X87330329Y-141219846D01*
X87371147Y-141197274D01*
X87387511Y-141188864D01*
X87398189Y-141190949D01*
X87430358Y-141209908D01*
X87476221Y-141245032D01*
X87530740Y-141292669D01*
X87579845Y-141340356D01*
X87642389Y-141405316D01*
X87712368Y-141481155D01*
X87786196Y-141563698D01*
X87860285Y-141648768D01*
X87931048Y-141732190D01*
X87994898Y-141809789D01*
X88048247Y-141877389D01*
X88087509Y-141930814D01*
X88109095Y-141965889D01*
X88123506Y-141991505D01*
X88162643Y-142044516D01*
X88212958Y-142100912D01*
X88267276Y-142153462D01*
X88318424Y-142194930D01*
X88359227Y-142218086D01*
X88404292Y-142223438D01*
X88464426Y-142208645D01*
X88521579Y-142174726D01*
X88565933Y-142126053D01*
X88573613Y-142113425D01*
X88583392Y-142092743D01*
X88589765Y-142067854D01*
X88593142Y-142033409D01*
X88593931Y-141984062D01*
X88592541Y-141914464D01*
X88589381Y-141819268D01*
X88587116Y-141764202D01*
X88582304Y-141677117D01*
X88576625Y-141600899D01*
X88570608Y-141542249D01*
X88564783Y-141507866D01*
X88550679Y-141468588D01*
X88508866Y-141391240D01*
X88443895Y-141299591D01*
X88354970Y-141192567D01*
X88241300Y-141069090D01*
X88191972Y-141017066D01*
X88134938Y-140955696D01*
X88087864Y-140903665D01*
X88054624Y-140865266D01*
X88039089Y-140844796D01*
X88037492Y-140841546D01*
X88035577Y-140827553D01*
X88045145Y-140812039D01*
X88070115Y-140791659D01*
X88114406Y-140763071D01*
X88181938Y-140722932D01*
X88239347Y-140689422D01*
X88344992Y-140628123D01*
X88428171Y-140580509D01*
X88491678Y-140545033D01*
X88538306Y-140520149D01*
X88570850Y-140504313D01*
X88592104Y-140495977D01*
X88614097Y-140486728D01*
X88626951Y-140474307D01*
X88628154Y-140471378D01*
X88646961Y-140455084D01*
X88681335Y-140434098D01*
X88735719Y-140404810D01*
X88775874Y-140442192D01*
X88790057Y-140457336D01*
X88823055Y-140498493D01*
X88863346Y-140553445D01*
X88905182Y-140614531D01*
X88994336Y-140749489D01*
X88990837Y-141099362D01*
X88987339Y-141449235D01*
X88936393Y-141498733D01*
X88919274Y-141516379D01*
X88864376Y-141595660D01*
X88832330Y-141689935D01*
X88821412Y-141803780D01*
X88824123Y-141864779D01*
X88843261Y-141972378D01*
X88878141Y-142070583D01*
X88925742Y-142149382D01*
X88958795Y-142178114D01*
X89017549Y-142199937D01*
X89084061Y-142202454D01*
X89149816Y-142186828D01*
X89206301Y-142154220D01*
X89245003Y-142105793D01*
X89246270Y-142103168D01*
X89269663Y-142055225D01*
X89294439Y-142005122D01*
X89315472Y-141958087D01*
X89345644Y-141878810D01*
X89378932Y-141781072D01*
X89414179Y-141669228D01*
X89450229Y-141547634D01*
X89485925Y-141420645D01*
X89520110Y-141292616D01*
X89551627Y-141167902D01*
X89579320Y-141050859D01*
X89602032Y-140945843D01*
X89618606Y-140857209D01*
X89627885Y-140789312D01*
X89628714Y-140746507D01*
X89626847Y-140736782D01*
X89608658Y-140687556D01*
X89574907Y-140621699D01*
X89528555Y-140545165D01*
X89510764Y-140517585D01*
X89439282Y-140405122D01*
X89378520Y-140306772D01*
X89329817Y-140224832D01*
X89294514Y-140161605D01*
X89273952Y-140119390D01*
X89269469Y-140100487D01*
X89269988Y-140099820D01*
X89288545Y-140086205D01*
X89328202Y-140061319D01*
X89383526Y-140028476D01*
X89449084Y-139990988D01*
X89454626Y-139987876D01*
X89525807Y-139948712D01*
X89575381Y-139923736D01*
X89607906Y-139911158D01*
X89627942Y-139909189D01*
X89640047Y-139916040D01*
G36*
X89640047Y-139916040D02*
G01*
X89645802Y-139924625D01*
X89666365Y-139958346D01*
X89700179Y-140015200D01*
X89745950Y-140092968D01*
X89802383Y-140189432D01*
X89868184Y-140302371D01*
X89942058Y-140429568D01*
X90022711Y-140568803D01*
X90108848Y-140717857D01*
X90199175Y-140874512D01*
X90223947Y-140917521D01*
X90321900Y-141087575D01*
X90420509Y-141258754D01*
X90517760Y-141427562D01*
X90611638Y-141590503D01*
X90700131Y-141744082D01*
X90781222Y-141884801D01*
X90852898Y-142009166D01*
X90913144Y-142113680D01*
X90959947Y-142194847D01*
X91181030Y-142578171D01*
X88081076Y-142578171D01*
X87952921Y-142578159D01*
X87647500Y-142578042D01*
X87351432Y-142577802D01*
X87066159Y-142577444D01*
X86793123Y-142576976D01*
X86533765Y-142576403D01*
X86289527Y-142575732D01*
X86061849Y-142574968D01*
X85852174Y-142574119D01*
X85661943Y-142573189D01*
X85492597Y-142572186D01*
X85345578Y-142571115D01*
X85222327Y-142569983D01*
X85124286Y-142568796D01*
X85052896Y-142567559D01*
X85009598Y-142566280D01*
X84995835Y-142564963D01*
X85006054Y-142558304D01*
X85041311Y-142537083D01*
X85099221Y-142502920D01*
X85177430Y-142457171D01*
X85273583Y-142401190D01*
X85385323Y-142336333D01*
X85510296Y-142263954D01*
X85646146Y-142185409D01*
X85790518Y-142102054D01*
X85941056Y-142015243D01*
X86095405Y-141926332D01*
X86251210Y-141836676D01*
X86406116Y-141747629D01*
X86557766Y-141660548D01*
X86703806Y-141576788D01*
X86841881Y-141497703D01*
X86969634Y-141424649D01*
X87084711Y-141358981D01*
X87184756Y-141302054D01*
X87267414Y-141255224D01*
X87330329Y-141219846D01*
X87371147Y-141197274D01*
X87387511Y-141188864D01*
X87398189Y-141190949D01*
X87430358Y-141209908D01*
X87476221Y-141245032D01*
X87530740Y-141292669D01*
X87579845Y-141340356D01*
X87642389Y-141405316D01*
X87712368Y-141481155D01*
X87786196Y-141563698D01*
X87860285Y-141648768D01*
X87931048Y-141732190D01*
X87994898Y-141809789D01*
X88048247Y-141877389D01*
X88087509Y-141930814D01*
X88109095Y-141965889D01*
X88123506Y-141991505D01*
X88162643Y-142044516D01*
X88212958Y-142100912D01*
X88267276Y-142153462D01*
X88318424Y-142194930D01*
X88359227Y-142218086D01*
X88404292Y-142223438D01*
X88464426Y-142208645D01*
X88521579Y-142174726D01*
X88565933Y-142126053D01*
X88573613Y-142113425D01*
X88583392Y-142092743D01*
X88589765Y-142067854D01*
X88593142Y-142033409D01*
X88593931Y-141984062D01*
X88592541Y-141914464D01*
X88589381Y-141819268D01*
X88587116Y-141764202D01*
X88582304Y-141677117D01*
X88576625Y-141600899D01*
X88570608Y-141542249D01*
X88564783Y-141507866D01*
X88550679Y-141468588D01*
X88508866Y-141391240D01*
X88443895Y-141299591D01*
X88354970Y-141192567D01*
X88241300Y-141069090D01*
X88191972Y-141017066D01*
X88134938Y-140955696D01*
X88087864Y-140903665D01*
X88054624Y-140865266D01*
X88039089Y-140844796D01*
X88037492Y-140841546D01*
X88035577Y-140827553D01*
X88045145Y-140812039D01*
X88070115Y-140791659D01*
X88114406Y-140763071D01*
X88181938Y-140722932D01*
X88239347Y-140689422D01*
X88344992Y-140628123D01*
X88428171Y-140580509D01*
X88491678Y-140545033D01*
X88538306Y-140520149D01*
X88570850Y-140504313D01*
X88592104Y-140495977D01*
X88614097Y-140486728D01*
X88626951Y-140474307D01*
X88628154Y-140471378D01*
X88646961Y-140455084D01*
X88681335Y-140434098D01*
X88735719Y-140404810D01*
X88775874Y-140442192D01*
X88790057Y-140457336D01*
X88823055Y-140498493D01*
X88863346Y-140553445D01*
X88905182Y-140614531D01*
X88994336Y-140749489D01*
X88990837Y-141099362D01*
X88987339Y-141449235D01*
X88936393Y-141498733D01*
X88919274Y-141516379D01*
X88864376Y-141595660D01*
X88832330Y-141689935D01*
X88821412Y-141803780D01*
X88824123Y-141864779D01*
X88843261Y-141972378D01*
X88878141Y-142070583D01*
X88925742Y-142149382D01*
X88958795Y-142178114D01*
X89017549Y-142199937D01*
X89084061Y-142202454D01*
X89149816Y-142186828D01*
X89206301Y-142154220D01*
X89245003Y-142105793D01*
X89246270Y-142103168D01*
X89269663Y-142055225D01*
X89294439Y-142005122D01*
X89315472Y-141958087D01*
X89345644Y-141878810D01*
X89378932Y-141781072D01*
X89414179Y-141669228D01*
X89450229Y-141547634D01*
X89485925Y-141420645D01*
X89520110Y-141292616D01*
X89551627Y-141167902D01*
X89579320Y-141050859D01*
X89602032Y-140945843D01*
X89618606Y-140857209D01*
X89627885Y-140789312D01*
X89628714Y-140746507D01*
X89626847Y-140736782D01*
X89608658Y-140687556D01*
X89574907Y-140621699D01*
X89528555Y-140545165D01*
X89510764Y-140517585D01*
X89439282Y-140405122D01*
X89378520Y-140306772D01*
X89329817Y-140224832D01*
X89294514Y-140161605D01*
X89273952Y-140119390D01*
X89269469Y-140100487D01*
X89269988Y-140099820D01*
X89288545Y-140086205D01*
X89328202Y-140061319D01*
X89383526Y-140028476D01*
X89449084Y-139990988D01*
X89454626Y-139987876D01*
X89525807Y-139948712D01*
X89575381Y-139923736D01*
X89607906Y-139911158D01*
X89627942Y-139909189D01*
X89640047Y-139916040D01*
G37*
X76502836Y-139862363D02*
X76517023Y-139876032D01*
X76558392Y-139917719D01*
X76613107Y-139974472D01*
X76678510Y-140043397D01*
X76751943Y-140121599D01*
X76830746Y-140206182D01*
X76912260Y-140294253D01*
X76993827Y-140382916D01*
X77072788Y-140469276D01*
X77146483Y-140550439D01*
X77212254Y-140623510D01*
X77267441Y-140685594D01*
X77309386Y-140733795D01*
X77335431Y-140765220D01*
X77342915Y-140776974D01*
X77340346Y-140778272D01*
X77315785Y-140791978D01*
X77267204Y-140819613D01*
X77196652Y-140859998D01*
X77106173Y-140911955D01*
X76997815Y-140974305D01*
X76873624Y-141045871D01*
X76735645Y-141125475D01*
X76585926Y-141211938D01*
X76426513Y-141304083D01*
X76259451Y-141400732D01*
X76197008Y-141436867D01*
X76032883Y-141531806D01*
X75877358Y-141621714D01*
X75732454Y-141705424D01*
X75600195Y-141781771D01*
X75482604Y-141849589D01*
X75381702Y-141907711D01*
X75299513Y-141954971D01*
X75238059Y-141990203D01*
X75199364Y-142012242D01*
X75185449Y-142019920D01*
X75186075Y-142015831D01*
X75197493Y-141992330D01*
X75218493Y-141954786D01*
X75231376Y-141932564D01*
X75258772Y-141885173D01*
X75299087Y-141815377D01*
X75351009Y-141725444D01*
X75413231Y-141617642D01*
X75484443Y-141494240D01*
X75563335Y-141357506D01*
X75648598Y-141209709D01*
X75738924Y-141053117D01*
X75833002Y-140890000D01*
X75925121Y-140730323D01*
X76014680Y-140575187D01*
X76098893Y-140429412D01*
X76176497Y-140295183D01*
X76246225Y-140174685D01*
X76306814Y-140070102D01*
X76356998Y-139983619D01*
X76395512Y-139917421D01*
X76421092Y-139873693D01*
X76432472Y-139854619D01*
X76455820Y-139818201D01*
X76502836Y-139862363D01*
G36*
X76502836Y-139862363D02*
G01*
X76517023Y-139876032D01*
X76558392Y-139917719D01*
X76613107Y-139974472D01*
X76678510Y-140043397D01*
X76751943Y-140121599D01*
X76830746Y-140206182D01*
X76912260Y-140294253D01*
X76993827Y-140382916D01*
X77072788Y-140469276D01*
X77146483Y-140550439D01*
X77212254Y-140623510D01*
X77267441Y-140685594D01*
X77309386Y-140733795D01*
X77335431Y-140765220D01*
X77342915Y-140776974D01*
X77340346Y-140778272D01*
X77315785Y-140791978D01*
X77267204Y-140819613D01*
X77196652Y-140859998D01*
X77106173Y-140911955D01*
X76997815Y-140974305D01*
X76873624Y-141045871D01*
X76735645Y-141125475D01*
X76585926Y-141211938D01*
X76426513Y-141304083D01*
X76259451Y-141400732D01*
X76197008Y-141436867D01*
X76032883Y-141531806D01*
X75877358Y-141621714D01*
X75732454Y-141705424D01*
X75600195Y-141781771D01*
X75482604Y-141849589D01*
X75381702Y-141907711D01*
X75299513Y-141954971D01*
X75238059Y-141990203D01*
X75199364Y-142012242D01*
X75185449Y-142019920D01*
X75186075Y-142015831D01*
X75197493Y-141992330D01*
X75218493Y-141954786D01*
X75231376Y-141932564D01*
X75258772Y-141885173D01*
X75299087Y-141815377D01*
X75351009Y-141725444D01*
X75413231Y-141617642D01*
X75484443Y-141494240D01*
X75563335Y-141357506D01*
X75648598Y-141209709D01*
X75738924Y-141053117D01*
X75833002Y-140890000D01*
X75925121Y-140730323D01*
X76014680Y-140575187D01*
X76098893Y-140429412D01*
X76176497Y-140295183D01*
X76246225Y-140174685D01*
X76306814Y-140070102D01*
X76356998Y-139983619D01*
X76395512Y-139917421D01*
X76421092Y-139873693D01*
X76432472Y-139854619D01*
X76455820Y-139818201D01*
X76502836Y-139862363D01*
G37*
X78265560Y-136693175D02*
X78277093Y-136710511D01*
X78302500Y-136752162D01*
X78340507Y-136815911D01*
X78389837Y-136899545D01*
X78449213Y-137000849D01*
X78517359Y-137117609D01*
X78593000Y-137247608D01*
X78674859Y-137388633D01*
X78761660Y-137538468D01*
X78852126Y-137694900D01*
X78944982Y-137855713D01*
X79038951Y-138018693D01*
X79132757Y-138181624D01*
X79225124Y-138342292D01*
X79314776Y-138498482D01*
X79400436Y-138647980D01*
X79480828Y-138788571D01*
X79554677Y-138918040D01*
X79620705Y-139034172D01*
X79677637Y-139134752D01*
X79724197Y-139217567D01*
X79759108Y-139280400D01*
X79781094Y-139321037D01*
X79788879Y-139337264D01*
X79788887Y-139337388D01*
X79776333Y-139354416D01*
X79740258Y-139383279D01*
X79684417Y-139421247D01*
X79612561Y-139465587D01*
X79564373Y-139493952D01*
X79495032Y-139533396D01*
X79446734Y-139558254D01*
X79416242Y-139569924D01*
X79400320Y-139569806D01*
X79395732Y-139559297D01*
X79395382Y-139557583D01*
X79382268Y-139536682D01*
X79354000Y-139501139D01*
X79315786Y-139457583D01*
X79298155Y-139438875D01*
X79243482Y-139388512D01*
X79183022Y-139345465D01*
X79113182Y-139308473D01*
X79030370Y-139276273D01*
X78930992Y-139247602D01*
X78811455Y-139221198D01*
X78668166Y-139195800D01*
X78497531Y-139170145D01*
X78301134Y-139141227D01*
X78111274Y-139110173D01*
X77945260Y-139079044D01*
X77799382Y-139046942D01*
X77669927Y-139012969D01*
X77553183Y-138976226D01*
X77445440Y-138935817D01*
X77342985Y-138890843D01*
X77267688Y-138853754D01*
X77195765Y-138814725D01*
X77138886Y-138779882D01*
X77101499Y-138751965D01*
X77088049Y-138733714D01*
X77088446Y-138732370D01*
X77099280Y-138710862D01*
X77123845Y-138665822D01*
X77160685Y-138599772D01*
X77208347Y-138515233D01*
X77265376Y-138414727D01*
X77330318Y-138300776D01*
X77401719Y-138175901D01*
X77478124Y-138042624D01*
X77558079Y-137903467D01*
X77640130Y-137760951D01*
X77722822Y-137617598D01*
X77804701Y-137475930D01*
X77884313Y-137338468D01*
X77960204Y-137207734D01*
X78030919Y-137086250D01*
X78095004Y-136976538D01*
X78151004Y-136881118D01*
X78197466Y-136802514D01*
X78232935Y-136743245D01*
X78255957Y-136705835D01*
X78265077Y-136692805D01*
X78265560Y-136693175D01*
G36*
X78265560Y-136693175D02*
G01*
X78277093Y-136710511D01*
X78302500Y-136752162D01*
X78340507Y-136815911D01*
X78389837Y-136899545D01*
X78449213Y-137000849D01*
X78517359Y-137117609D01*
X78593000Y-137247608D01*
X78674859Y-137388633D01*
X78761660Y-137538468D01*
X78852126Y-137694900D01*
X78944982Y-137855713D01*
X79038951Y-138018693D01*
X79132757Y-138181624D01*
X79225124Y-138342292D01*
X79314776Y-138498482D01*
X79400436Y-138647980D01*
X79480828Y-138788571D01*
X79554677Y-138918040D01*
X79620705Y-139034172D01*
X79677637Y-139134752D01*
X79724197Y-139217567D01*
X79759108Y-139280400D01*
X79781094Y-139321037D01*
X79788879Y-139337264D01*
X79788887Y-139337388D01*
X79776333Y-139354416D01*
X79740258Y-139383279D01*
X79684417Y-139421247D01*
X79612561Y-139465587D01*
X79564373Y-139493952D01*
X79495032Y-139533396D01*
X79446734Y-139558254D01*
X79416242Y-139569924D01*
X79400320Y-139569806D01*
X79395732Y-139559297D01*
X79395382Y-139557583D01*
X79382268Y-139536682D01*
X79354000Y-139501139D01*
X79315786Y-139457583D01*
X79298155Y-139438875D01*
X79243482Y-139388512D01*
X79183022Y-139345465D01*
X79113182Y-139308473D01*
X79030370Y-139276273D01*
X78930992Y-139247602D01*
X78811455Y-139221198D01*
X78668166Y-139195800D01*
X78497531Y-139170145D01*
X78301134Y-139141227D01*
X78111274Y-139110173D01*
X77945260Y-139079044D01*
X77799382Y-139046942D01*
X77669927Y-139012969D01*
X77553183Y-138976226D01*
X77445440Y-138935817D01*
X77342985Y-138890843D01*
X77267688Y-138853754D01*
X77195765Y-138814725D01*
X77138886Y-138779882D01*
X77101499Y-138751965D01*
X77088049Y-138733714D01*
X77088446Y-138732370D01*
X77099280Y-138710862D01*
X77123845Y-138665822D01*
X77160685Y-138599772D01*
X77208347Y-138515233D01*
X77265376Y-138414727D01*
X77330318Y-138300776D01*
X77401719Y-138175901D01*
X77478124Y-138042624D01*
X77558079Y-137903467D01*
X77640130Y-137760951D01*
X77722822Y-137617598D01*
X77804701Y-137475930D01*
X77884313Y-137338468D01*
X77960204Y-137207734D01*
X78030919Y-137086250D01*
X78095004Y-136976538D01*
X78151004Y-136881118D01*
X78197466Y-136802514D01*
X78232935Y-136743245D01*
X78255957Y-136705835D01*
X78265077Y-136692805D01*
X78265560Y-136693175D01*
G37*
X80130047Y-139916040D02*
X80135802Y-139924625D01*
X80156365Y-139958346D01*
X80190179Y-140015200D01*
X80235950Y-140092968D01*
X80292383Y-140189432D01*
X80358184Y-140302371D01*
X80432058Y-140429568D01*
X80512711Y-140568803D01*
X80598848Y-140717857D01*
X80689175Y-140874512D01*
X80713947Y-140917521D01*
X80811900Y-141087575D01*
X80910509Y-141258754D01*
X81007760Y-141427562D01*
X81101638Y-141590503D01*
X81190131Y-141744082D01*
X81271222Y-141884801D01*
X81342898Y-142009166D01*
X81403144Y-142113680D01*
X81449947Y-142194847D01*
X81671030Y-142578171D01*
X78571076Y-142578171D01*
X78442921Y-142578159D01*
X78137500Y-142578042D01*
X77841432Y-142577802D01*
X77556159Y-142577444D01*
X77283123Y-142576976D01*
X77023765Y-142576403D01*
X76779527Y-142575732D01*
X76551849Y-142574968D01*
X76342174Y-142574119D01*
X76151943Y-142573189D01*
X75982597Y-142572186D01*
X75835578Y-142571115D01*
X75712327Y-142569983D01*
X75614286Y-142568796D01*
X75542896Y-142567559D01*
X75499598Y-142566280D01*
X75485835Y-142564963D01*
X75496054Y-142558304D01*
X75531311Y-142537083D01*
X75589221Y-142502920D01*
X75667430Y-142457171D01*
X75763583Y-142401190D01*
X75875323Y-142336333D01*
X76000296Y-142263954D01*
X76136146Y-142185409D01*
X76280518Y-142102054D01*
X76431056Y-142015243D01*
X76585405Y-141926332D01*
X76741210Y-141836676D01*
X76896116Y-141747629D01*
X77047766Y-141660548D01*
X77193806Y-141576788D01*
X77331881Y-141497703D01*
X77459634Y-141424649D01*
X77574711Y-141358981D01*
X77674756Y-141302054D01*
X77757414Y-141255224D01*
X77820329Y-141219846D01*
X77861147Y-141197274D01*
X77877511Y-141188864D01*
X77888189Y-141190949D01*
X77920358Y-141209908D01*
X77966221Y-141245032D01*
X78020740Y-141292669D01*
X78069845Y-141340356D01*
X78132389Y-141405316D01*
X78202368Y-141481155D01*
X78276196Y-141563698D01*
X78350285Y-141648768D01*
X78421048Y-141732190D01*
X78484898Y-141809789D01*
X78538247Y-141877389D01*
X78577509Y-141930814D01*
X78599095Y-141965889D01*
X78613506Y-141991505D01*
X78652643Y-142044516D01*
X78702958Y-142100912D01*
X78757276Y-142153462D01*
X78808424Y-142194930D01*
X78849227Y-142218086D01*
X78894292Y-142223438D01*
X78954426Y-142208645D01*
X79011579Y-142174726D01*
X79055933Y-142126053D01*
X79063613Y-142113425D01*
X79073392Y-142092743D01*
X79079765Y-142067854D01*
X79083142Y-142033409D01*
X79083931Y-141984062D01*
X79082541Y-141914464D01*
X79079381Y-141819268D01*
X79077116Y-141764202D01*
X79072304Y-141677117D01*
X79066625Y-141600899D01*
X79060608Y-141542249D01*
X79054783Y-141507866D01*
X79040679Y-141468588D01*
X78998866Y-141391240D01*
X78933895Y-141299591D01*
X78844970Y-141192567D01*
X78731300Y-141069090D01*
X78681972Y-141017066D01*
X78624938Y-140955696D01*
X78577864Y-140903665D01*
X78544624Y-140865266D01*
X78529089Y-140844796D01*
X78527492Y-140841546D01*
X78525577Y-140827553D01*
X78535145Y-140812039D01*
X78560115Y-140791659D01*
X78604406Y-140763071D01*
X78671938Y-140722932D01*
X78729347Y-140689422D01*
X78834992Y-140628123D01*
X78918171Y-140580509D01*
X78981678Y-140545033D01*
X79028306Y-140520149D01*
X79060850Y-140504313D01*
X79082104Y-140495977D01*
X79104097Y-140486728D01*
X79116951Y-140474307D01*
X79118154Y-140471378D01*
X79136961Y-140455084D01*
X79171335Y-140434098D01*
X79225719Y-140404810D01*
X79265874Y-140442192D01*
X79280057Y-140457336D01*
X79313055Y-140498493D01*
X79353346Y-140553445D01*
X79395182Y-140614531D01*
X79484336Y-140749489D01*
X79480837Y-141099362D01*
X79477339Y-141449235D01*
X79426393Y-141498733D01*
X79409274Y-141516379D01*
X79354376Y-141595660D01*
X79322330Y-141689935D01*
X79311412Y-141803780D01*
X79314123Y-141864779D01*
X79333261Y-141972378D01*
X79368141Y-142070583D01*
X79415742Y-142149382D01*
X79448795Y-142178114D01*
X79507549Y-142199937D01*
X79574061Y-142202454D01*
X79639816Y-142186828D01*
X79696301Y-142154220D01*
X79735003Y-142105793D01*
X79736270Y-142103168D01*
X79759663Y-142055225D01*
X79784439Y-142005122D01*
X79805472Y-141958087D01*
X79835644Y-141878810D01*
X79868932Y-141781072D01*
X79904179Y-141669228D01*
X79940229Y-141547634D01*
X79975925Y-141420645D01*
X80010110Y-141292616D01*
X80041627Y-141167902D01*
X80069320Y-141050859D01*
X80092032Y-140945843D01*
X80108606Y-140857209D01*
X80117885Y-140789312D01*
X80118714Y-140746507D01*
X80116847Y-140736782D01*
X80098658Y-140687556D01*
X80064907Y-140621699D01*
X80018555Y-140545165D01*
X80000764Y-140517585D01*
X79929282Y-140405122D01*
X79868520Y-140306772D01*
X79819817Y-140224832D01*
X79784514Y-140161605D01*
X79763952Y-140119390D01*
X79759469Y-140100487D01*
X79759988Y-140099820D01*
X79778545Y-140086205D01*
X79818202Y-140061319D01*
X79873526Y-140028476D01*
X79939084Y-139990988D01*
X79944626Y-139987876D01*
X80015807Y-139948712D01*
X80065381Y-139923736D01*
X80097906Y-139911158D01*
X80117942Y-139909189D01*
X80130047Y-139916040D01*
G36*
X80130047Y-139916040D02*
G01*
X80135802Y-139924625D01*
X80156365Y-139958346D01*
X80190179Y-140015200D01*
X80235950Y-140092968D01*
X80292383Y-140189432D01*
X80358184Y-140302371D01*
X80432058Y-140429568D01*
X80512711Y-140568803D01*
X80598848Y-140717857D01*
X80689175Y-140874512D01*
X80713947Y-140917521D01*
X80811900Y-141087575D01*
X80910509Y-141258754D01*
X81007760Y-141427562D01*
X81101638Y-141590503D01*
X81190131Y-141744082D01*
X81271222Y-141884801D01*
X81342898Y-142009166D01*
X81403144Y-142113680D01*
X81449947Y-142194847D01*
X81671030Y-142578171D01*
X78571076Y-142578171D01*
X78442921Y-142578159D01*
X78137500Y-142578042D01*
X77841432Y-142577802D01*
X77556159Y-142577444D01*
X77283123Y-142576976D01*
X77023765Y-142576403D01*
X76779527Y-142575732D01*
X76551849Y-142574968D01*
X76342174Y-142574119D01*
X76151943Y-142573189D01*
X75982597Y-142572186D01*
X75835578Y-142571115D01*
X75712327Y-142569983D01*
X75614286Y-142568796D01*
X75542896Y-142567559D01*
X75499598Y-142566280D01*
X75485835Y-142564963D01*
X75496054Y-142558304D01*
X75531311Y-142537083D01*
X75589221Y-142502920D01*
X75667430Y-142457171D01*
X75763583Y-142401190D01*
X75875323Y-142336333D01*
X76000296Y-142263954D01*
X76136146Y-142185409D01*
X76280518Y-142102054D01*
X76431056Y-142015243D01*
X76585405Y-141926332D01*
X76741210Y-141836676D01*
X76896116Y-141747629D01*
X77047766Y-141660548D01*
X77193806Y-141576788D01*
X77331881Y-141497703D01*
X77459634Y-141424649D01*
X77574711Y-141358981D01*
X77674756Y-141302054D01*
X77757414Y-141255224D01*
X77820329Y-141219846D01*
X77861147Y-141197274D01*
X77877511Y-141188864D01*
X77888189Y-141190949D01*
X77920358Y-141209908D01*
X77966221Y-141245032D01*
X78020740Y-141292669D01*
X78069845Y-141340356D01*
X78132389Y-141405316D01*
X78202368Y-141481155D01*
X78276196Y-141563698D01*
X78350285Y-141648768D01*
X78421048Y-141732190D01*
X78484898Y-141809789D01*
X78538247Y-141877389D01*
X78577509Y-141930814D01*
X78599095Y-141965889D01*
X78613506Y-141991505D01*
X78652643Y-142044516D01*
X78702958Y-142100912D01*
X78757276Y-142153462D01*
X78808424Y-142194930D01*
X78849227Y-142218086D01*
X78894292Y-142223438D01*
X78954426Y-142208645D01*
X79011579Y-142174726D01*
X79055933Y-142126053D01*
X79063613Y-142113425D01*
X79073392Y-142092743D01*
X79079765Y-142067854D01*
X79083142Y-142033409D01*
X79083931Y-141984062D01*
X79082541Y-141914464D01*
X79079381Y-141819268D01*
X79077116Y-141764202D01*
X79072304Y-141677117D01*
X79066625Y-141600899D01*
X79060608Y-141542249D01*
X79054783Y-141507866D01*
X79040679Y-141468588D01*
X78998866Y-141391240D01*
X78933895Y-141299591D01*
X78844970Y-141192567D01*
X78731300Y-141069090D01*
X78681972Y-141017066D01*
X78624938Y-140955696D01*
X78577864Y-140903665D01*
X78544624Y-140865266D01*
X78529089Y-140844796D01*
X78527492Y-140841546D01*
X78525577Y-140827553D01*
X78535145Y-140812039D01*
X78560115Y-140791659D01*
X78604406Y-140763071D01*
X78671938Y-140722932D01*
X78729347Y-140689422D01*
X78834992Y-140628123D01*
X78918171Y-140580509D01*
X78981678Y-140545033D01*
X79028306Y-140520149D01*
X79060850Y-140504313D01*
X79082104Y-140495977D01*
X79104097Y-140486728D01*
X79116951Y-140474307D01*
X79118154Y-140471378D01*
X79136961Y-140455084D01*
X79171335Y-140434098D01*
X79225719Y-140404810D01*
X79265874Y-140442192D01*
X79280057Y-140457336D01*
X79313055Y-140498493D01*
X79353346Y-140553445D01*
X79395182Y-140614531D01*
X79484336Y-140749489D01*
X79480837Y-141099362D01*
X79477339Y-141449235D01*
X79426393Y-141498733D01*
X79409274Y-141516379D01*
X79354376Y-141595660D01*
X79322330Y-141689935D01*
X79311412Y-141803780D01*
X79314123Y-141864779D01*
X79333261Y-141972378D01*
X79368141Y-142070583D01*
X79415742Y-142149382D01*
X79448795Y-142178114D01*
X79507549Y-142199937D01*
X79574061Y-142202454D01*
X79639816Y-142186828D01*
X79696301Y-142154220D01*
X79735003Y-142105793D01*
X79736270Y-142103168D01*
X79759663Y-142055225D01*
X79784439Y-142005122D01*
X79805472Y-141958087D01*
X79835644Y-141878810D01*
X79868932Y-141781072D01*
X79904179Y-141669228D01*
X79940229Y-141547634D01*
X79975925Y-141420645D01*
X80010110Y-141292616D01*
X80041627Y-141167902D01*
X80069320Y-141050859D01*
X80092032Y-140945843D01*
X80108606Y-140857209D01*
X80117885Y-140789312D01*
X80118714Y-140746507D01*
X80116847Y-140736782D01*
X80098658Y-140687556D01*
X80064907Y-140621699D01*
X80018555Y-140545165D01*
X80000764Y-140517585D01*
X79929282Y-140405122D01*
X79868520Y-140306772D01*
X79819817Y-140224832D01*
X79784514Y-140161605D01*
X79763952Y-140119390D01*
X79759469Y-140100487D01*
X79759988Y-140099820D01*
X79778545Y-140086205D01*
X79818202Y-140061319D01*
X79873526Y-140028476D01*
X79939084Y-139990988D01*
X79944626Y-139987876D01*
X80015807Y-139948712D01*
X80065381Y-139923736D01*
X80097906Y-139911158D01*
X80117942Y-139909189D01*
X80130047Y-139916040D01*
G37*
X57482836Y-139862363D02*
X57497023Y-139876032D01*
X57538392Y-139917719D01*
X57593107Y-139974472D01*
X57658510Y-140043397D01*
X57731943Y-140121599D01*
X57810746Y-140206182D01*
X57892260Y-140294253D01*
X57973827Y-140382916D01*
X58052788Y-140469276D01*
X58126483Y-140550439D01*
X58192254Y-140623510D01*
X58247441Y-140685594D01*
X58289386Y-140733795D01*
X58315431Y-140765220D01*
X58322915Y-140776974D01*
X58320346Y-140778272D01*
X58295785Y-140791978D01*
X58247204Y-140819613D01*
X58176652Y-140859998D01*
X58086173Y-140911955D01*
X57977815Y-140974305D01*
X57853624Y-141045871D01*
X57715645Y-141125475D01*
X57565926Y-141211938D01*
X57406513Y-141304083D01*
X57239451Y-141400732D01*
X57177008Y-141436867D01*
X57012883Y-141531806D01*
X56857358Y-141621714D01*
X56712454Y-141705424D01*
X56580195Y-141781771D01*
X56462604Y-141849589D01*
X56361702Y-141907711D01*
X56279513Y-141954971D01*
X56218059Y-141990203D01*
X56179364Y-142012242D01*
X56165449Y-142019920D01*
X56166075Y-142015831D01*
X56177493Y-141992330D01*
X56198493Y-141954786D01*
X56211376Y-141932564D01*
X56238772Y-141885173D01*
X56279087Y-141815377D01*
X56331009Y-141725444D01*
X56393231Y-141617642D01*
X56464443Y-141494240D01*
X56543335Y-141357506D01*
X56628598Y-141209709D01*
X56718924Y-141053117D01*
X56813002Y-140890000D01*
X56905121Y-140730323D01*
X56994680Y-140575187D01*
X57078893Y-140429412D01*
X57156497Y-140295183D01*
X57226225Y-140174685D01*
X57286814Y-140070102D01*
X57336998Y-139983619D01*
X57375512Y-139917421D01*
X57401092Y-139873693D01*
X57412472Y-139854619D01*
X57435820Y-139818201D01*
X57482836Y-139862363D01*
G36*
X57482836Y-139862363D02*
G01*
X57497023Y-139876032D01*
X57538392Y-139917719D01*
X57593107Y-139974472D01*
X57658510Y-140043397D01*
X57731943Y-140121599D01*
X57810746Y-140206182D01*
X57892260Y-140294253D01*
X57973827Y-140382916D01*
X58052788Y-140469276D01*
X58126483Y-140550439D01*
X58192254Y-140623510D01*
X58247441Y-140685594D01*
X58289386Y-140733795D01*
X58315431Y-140765220D01*
X58322915Y-140776974D01*
X58320346Y-140778272D01*
X58295785Y-140791978D01*
X58247204Y-140819613D01*
X58176652Y-140859998D01*
X58086173Y-140911955D01*
X57977815Y-140974305D01*
X57853624Y-141045871D01*
X57715645Y-141125475D01*
X57565926Y-141211938D01*
X57406513Y-141304083D01*
X57239451Y-141400732D01*
X57177008Y-141436867D01*
X57012883Y-141531806D01*
X56857358Y-141621714D01*
X56712454Y-141705424D01*
X56580195Y-141781771D01*
X56462604Y-141849589D01*
X56361702Y-141907711D01*
X56279513Y-141954971D01*
X56218059Y-141990203D01*
X56179364Y-142012242D01*
X56165449Y-142019920D01*
X56166075Y-142015831D01*
X56177493Y-141992330D01*
X56198493Y-141954786D01*
X56211376Y-141932564D01*
X56238772Y-141885173D01*
X56279087Y-141815377D01*
X56331009Y-141725444D01*
X56393231Y-141617642D01*
X56464443Y-141494240D01*
X56543335Y-141357506D01*
X56628598Y-141209709D01*
X56718924Y-141053117D01*
X56813002Y-140890000D01*
X56905121Y-140730323D01*
X56994680Y-140575187D01*
X57078893Y-140429412D01*
X57156497Y-140295183D01*
X57226225Y-140174685D01*
X57286814Y-140070102D01*
X57336998Y-139983619D01*
X57375512Y-139917421D01*
X57401092Y-139873693D01*
X57412472Y-139854619D01*
X57435820Y-139818201D01*
X57482836Y-139862363D01*
G37*
X59245560Y-136693175D02*
X59257093Y-136710511D01*
X59282500Y-136752162D01*
X59320507Y-136815911D01*
X59369837Y-136899545D01*
X59429213Y-137000849D01*
X59497359Y-137117609D01*
X59573000Y-137247608D01*
X59654859Y-137388633D01*
X59741660Y-137538468D01*
X59832126Y-137694900D01*
X59924982Y-137855713D01*
X60018951Y-138018693D01*
X60112757Y-138181624D01*
X60205124Y-138342292D01*
X60294776Y-138498482D01*
X60380436Y-138647980D01*
X60460828Y-138788571D01*
X60534677Y-138918040D01*
X60600705Y-139034172D01*
X60657637Y-139134752D01*
X60704197Y-139217567D01*
X60739108Y-139280400D01*
X60761094Y-139321037D01*
X60768879Y-139337264D01*
X60768887Y-139337388D01*
X60756333Y-139354416D01*
X60720258Y-139383279D01*
X60664417Y-139421247D01*
X60592561Y-139465587D01*
X60544373Y-139493952D01*
X60475032Y-139533396D01*
X60426734Y-139558254D01*
X60396242Y-139569924D01*
X60380320Y-139569806D01*
X60375732Y-139559297D01*
X60375382Y-139557583D01*
X60362268Y-139536682D01*
X60334000Y-139501139D01*
X60295786Y-139457583D01*
X60278155Y-139438875D01*
X60223482Y-139388512D01*
X60163022Y-139345465D01*
X60093182Y-139308473D01*
X60010370Y-139276273D01*
X59910992Y-139247602D01*
X59791455Y-139221198D01*
X59648166Y-139195800D01*
X59477531Y-139170145D01*
X59281134Y-139141227D01*
X59091274Y-139110173D01*
X58925260Y-139079044D01*
X58779382Y-139046942D01*
X58649927Y-139012969D01*
X58533183Y-138976226D01*
X58425440Y-138935817D01*
X58322985Y-138890843D01*
X58247688Y-138853754D01*
X58175765Y-138814725D01*
X58118886Y-138779882D01*
X58081499Y-138751965D01*
X58068049Y-138733714D01*
X58068446Y-138732370D01*
X58079280Y-138710862D01*
X58103845Y-138665822D01*
X58140685Y-138599772D01*
X58188347Y-138515233D01*
X58245376Y-138414727D01*
X58310318Y-138300776D01*
X58381719Y-138175901D01*
X58458124Y-138042624D01*
X58538079Y-137903467D01*
X58620130Y-137760951D01*
X58702822Y-137617598D01*
X58784701Y-137475930D01*
X58864313Y-137338468D01*
X58940204Y-137207734D01*
X59010919Y-137086250D01*
X59075004Y-136976538D01*
X59131004Y-136881118D01*
X59177466Y-136802514D01*
X59212935Y-136743245D01*
X59235957Y-136705835D01*
X59245077Y-136692805D01*
X59245560Y-136693175D01*
G36*
X59245560Y-136693175D02*
G01*
X59257093Y-136710511D01*
X59282500Y-136752162D01*
X59320507Y-136815911D01*
X59369837Y-136899545D01*
X59429213Y-137000849D01*
X59497359Y-137117609D01*
X59573000Y-137247608D01*
X59654859Y-137388633D01*
X59741660Y-137538468D01*
X59832126Y-137694900D01*
X59924982Y-137855713D01*
X60018951Y-138018693D01*
X60112757Y-138181624D01*
X60205124Y-138342292D01*
X60294776Y-138498482D01*
X60380436Y-138647980D01*
X60460828Y-138788571D01*
X60534677Y-138918040D01*
X60600705Y-139034172D01*
X60657637Y-139134752D01*
X60704197Y-139217567D01*
X60739108Y-139280400D01*
X60761094Y-139321037D01*
X60768879Y-139337264D01*
X60768887Y-139337388D01*
X60756333Y-139354416D01*
X60720258Y-139383279D01*
X60664417Y-139421247D01*
X60592561Y-139465587D01*
X60544373Y-139493952D01*
X60475032Y-139533396D01*
X60426734Y-139558254D01*
X60396242Y-139569924D01*
X60380320Y-139569806D01*
X60375732Y-139559297D01*
X60375382Y-139557583D01*
X60362268Y-139536682D01*
X60334000Y-139501139D01*
X60295786Y-139457583D01*
X60278155Y-139438875D01*
X60223482Y-139388512D01*
X60163022Y-139345465D01*
X60093182Y-139308473D01*
X60010370Y-139276273D01*
X59910992Y-139247602D01*
X59791455Y-139221198D01*
X59648166Y-139195800D01*
X59477531Y-139170145D01*
X59281134Y-139141227D01*
X59091274Y-139110173D01*
X58925260Y-139079044D01*
X58779382Y-139046942D01*
X58649927Y-139012969D01*
X58533183Y-138976226D01*
X58425440Y-138935817D01*
X58322985Y-138890843D01*
X58247688Y-138853754D01*
X58175765Y-138814725D01*
X58118886Y-138779882D01*
X58081499Y-138751965D01*
X58068049Y-138733714D01*
X58068446Y-138732370D01*
X58079280Y-138710862D01*
X58103845Y-138665822D01*
X58140685Y-138599772D01*
X58188347Y-138515233D01*
X58245376Y-138414727D01*
X58310318Y-138300776D01*
X58381719Y-138175901D01*
X58458124Y-138042624D01*
X58538079Y-137903467D01*
X58620130Y-137760951D01*
X58702822Y-137617598D01*
X58784701Y-137475930D01*
X58864313Y-137338468D01*
X58940204Y-137207734D01*
X59010919Y-137086250D01*
X59075004Y-136976538D01*
X59131004Y-136881118D01*
X59177466Y-136802514D01*
X59212935Y-136743245D01*
X59235957Y-136705835D01*
X59245077Y-136692805D01*
X59245560Y-136693175D01*
G37*
X61110047Y-139916040D02*
X61115802Y-139924625D01*
X61136365Y-139958346D01*
X61170179Y-140015200D01*
X61215950Y-140092968D01*
X61272383Y-140189432D01*
X61338184Y-140302371D01*
X61412058Y-140429568D01*
X61492711Y-140568803D01*
X61578848Y-140717857D01*
X61669175Y-140874512D01*
X61693947Y-140917521D01*
X61791900Y-141087575D01*
X61890509Y-141258754D01*
X61987760Y-141427562D01*
X62081638Y-141590503D01*
X62170131Y-141744082D01*
X62251222Y-141884801D01*
X62322898Y-142009166D01*
X62383144Y-142113680D01*
X62429947Y-142194847D01*
X62651030Y-142578171D01*
X59551076Y-142578171D01*
X59422921Y-142578159D01*
X59117500Y-142578042D01*
X58821432Y-142577802D01*
X58536159Y-142577444D01*
X58263123Y-142576976D01*
X58003765Y-142576403D01*
X57759527Y-142575732D01*
X57531849Y-142574968D01*
X57322174Y-142574119D01*
X57131943Y-142573189D01*
X56962597Y-142572186D01*
X56815578Y-142571115D01*
X56692327Y-142569983D01*
X56594286Y-142568796D01*
X56522896Y-142567559D01*
X56479598Y-142566280D01*
X56465835Y-142564963D01*
X56476054Y-142558304D01*
X56511311Y-142537083D01*
X56569221Y-142502920D01*
X56647430Y-142457171D01*
X56743583Y-142401190D01*
X56855323Y-142336333D01*
X56980296Y-142263954D01*
X57116146Y-142185409D01*
X57260518Y-142102054D01*
X57411056Y-142015243D01*
X57565405Y-141926332D01*
X57721210Y-141836676D01*
X57876116Y-141747629D01*
X58027766Y-141660548D01*
X58173806Y-141576788D01*
X58311881Y-141497703D01*
X58439634Y-141424649D01*
X58554711Y-141358981D01*
X58654756Y-141302054D01*
X58737414Y-141255224D01*
X58800329Y-141219846D01*
X58841147Y-141197274D01*
X58857511Y-141188864D01*
X58868189Y-141190949D01*
X58900358Y-141209908D01*
X58946221Y-141245032D01*
X59000740Y-141292669D01*
X59049845Y-141340356D01*
X59112389Y-141405316D01*
X59182368Y-141481155D01*
X59256196Y-141563698D01*
X59330285Y-141648768D01*
X59401048Y-141732190D01*
X59464898Y-141809789D01*
X59518247Y-141877389D01*
X59557509Y-141930814D01*
X59579095Y-141965889D01*
X59593506Y-141991505D01*
X59632643Y-142044516D01*
X59682958Y-142100912D01*
X59737276Y-142153462D01*
X59788424Y-142194930D01*
X59829227Y-142218086D01*
X59874292Y-142223438D01*
X59934426Y-142208645D01*
X59991579Y-142174726D01*
X60035933Y-142126053D01*
X60043613Y-142113425D01*
X60053392Y-142092743D01*
X60059765Y-142067854D01*
X60063142Y-142033409D01*
X60063931Y-141984062D01*
X60062541Y-141914464D01*
X60059381Y-141819268D01*
X60057116Y-141764202D01*
X60052304Y-141677117D01*
X60046625Y-141600899D01*
X60040608Y-141542249D01*
X60034783Y-141507866D01*
X60020679Y-141468588D01*
X59978866Y-141391240D01*
X59913895Y-141299591D01*
X59824970Y-141192567D01*
X59711300Y-141069090D01*
X59661972Y-141017066D01*
X59604938Y-140955696D01*
X59557864Y-140903665D01*
X59524624Y-140865266D01*
X59509089Y-140844796D01*
X59507492Y-140841546D01*
X59505577Y-140827553D01*
X59515145Y-140812039D01*
X59540115Y-140791659D01*
X59584406Y-140763071D01*
X59651938Y-140722932D01*
X59709347Y-140689422D01*
X59814992Y-140628123D01*
X59898171Y-140580509D01*
X59961678Y-140545033D01*
X60008306Y-140520149D01*
X60040850Y-140504313D01*
X60062104Y-140495977D01*
X60084097Y-140486728D01*
X60096951Y-140474307D01*
X60098154Y-140471378D01*
X60116961Y-140455084D01*
X60151335Y-140434098D01*
X60205719Y-140404810D01*
X60245874Y-140442192D01*
X60260057Y-140457336D01*
X60293055Y-140498493D01*
X60333346Y-140553445D01*
X60375182Y-140614531D01*
X60464336Y-140749489D01*
X60460837Y-141099362D01*
X60457339Y-141449235D01*
X60406393Y-141498733D01*
X60389274Y-141516379D01*
X60334376Y-141595660D01*
X60302330Y-141689935D01*
X60291412Y-141803780D01*
X60294123Y-141864779D01*
X60313261Y-141972378D01*
X60348141Y-142070583D01*
X60395742Y-142149382D01*
X60428795Y-142178114D01*
X60487549Y-142199937D01*
X60554061Y-142202454D01*
X60619816Y-142186828D01*
X60676301Y-142154220D01*
X60715003Y-142105793D01*
X60716270Y-142103168D01*
X60739663Y-142055225D01*
X60764439Y-142005122D01*
X60785472Y-141958087D01*
X60815644Y-141878810D01*
X60848932Y-141781072D01*
X60884179Y-141669228D01*
X60920229Y-141547634D01*
X60955925Y-141420645D01*
X60990110Y-141292616D01*
X61021627Y-141167902D01*
X61049320Y-141050859D01*
X61072032Y-140945843D01*
X61088606Y-140857209D01*
X61097885Y-140789312D01*
X61098714Y-140746507D01*
X61096847Y-140736782D01*
X61078658Y-140687556D01*
X61044907Y-140621699D01*
X60998555Y-140545165D01*
X60980764Y-140517585D01*
X60909282Y-140405122D01*
X60848520Y-140306772D01*
X60799817Y-140224832D01*
X60764514Y-140161605D01*
X60743952Y-140119390D01*
X60739469Y-140100487D01*
X60739988Y-140099820D01*
X60758545Y-140086205D01*
X60798202Y-140061319D01*
X60853526Y-140028476D01*
X60919084Y-139990988D01*
X60924626Y-139987876D01*
X60995807Y-139948712D01*
X61045381Y-139923736D01*
X61077906Y-139911158D01*
X61097942Y-139909189D01*
X61110047Y-139916040D01*
G36*
X61110047Y-139916040D02*
G01*
X61115802Y-139924625D01*
X61136365Y-139958346D01*
X61170179Y-140015200D01*
X61215950Y-140092968D01*
X61272383Y-140189432D01*
X61338184Y-140302371D01*
X61412058Y-140429568D01*
X61492711Y-140568803D01*
X61578848Y-140717857D01*
X61669175Y-140874512D01*
X61693947Y-140917521D01*
X61791900Y-141087575D01*
X61890509Y-141258754D01*
X61987760Y-141427562D01*
X62081638Y-141590503D01*
X62170131Y-141744082D01*
X62251222Y-141884801D01*
X62322898Y-142009166D01*
X62383144Y-142113680D01*
X62429947Y-142194847D01*
X62651030Y-142578171D01*
X59551076Y-142578171D01*
X59422921Y-142578159D01*
X59117500Y-142578042D01*
X58821432Y-142577802D01*
X58536159Y-142577444D01*
X58263123Y-142576976D01*
X58003765Y-142576403D01*
X57759527Y-142575732D01*
X57531849Y-142574968D01*
X57322174Y-142574119D01*
X57131943Y-142573189D01*
X56962597Y-142572186D01*
X56815578Y-142571115D01*
X56692327Y-142569983D01*
X56594286Y-142568796D01*
X56522896Y-142567559D01*
X56479598Y-142566280D01*
X56465835Y-142564963D01*
X56476054Y-142558304D01*
X56511311Y-142537083D01*
X56569221Y-142502920D01*
X56647430Y-142457171D01*
X56743583Y-142401190D01*
X56855323Y-142336333D01*
X56980296Y-142263954D01*
X57116146Y-142185409D01*
X57260518Y-142102054D01*
X57411056Y-142015243D01*
X57565405Y-141926332D01*
X57721210Y-141836676D01*
X57876116Y-141747629D01*
X58027766Y-141660548D01*
X58173806Y-141576788D01*
X58311881Y-141497703D01*
X58439634Y-141424649D01*
X58554711Y-141358981D01*
X58654756Y-141302054D01*
X58737414Y-141255224D01*
X58800329Y-141219846D01*
X58841147Y-141197274D01*
X58857511Y-141188864D01*
X58868189Y-141190949D01*
X58900358Y-141209908D01*
X58946221Y-141245032D01*
X59000740Y-141292669D01*
X59049845Y-141340356D01*
X59112389Y-141405316D01*
X59182368Y-141481155D01*
X59256196Y-141563698D01*
X59330285Y-141648768D01*
X59401048Y-141732190D01*
X59464898Y-141809789D01*
X59518247Y-141877389D01*
X59557509Y-141930814D01*
X59579095Y-141965889D01*
X59593506Y-141991505D01*
X59632643Y-142044516D01*
X59682958Y-142100912D01*
X59737276Y-142153462D01*
X59788424Y-142194930D01*
X59829227Y-142218086D01*
X59874292Y-142223438D01*
X59934426Y-142208645D01*
X59991579Y-142174726D01*
X60035933Y-142126053D01*
X60043613Y-142113425D01*
X60053392Y-142092743D01*
X60059765Y-142067854D01*
X60063142Y-142033409D01*
X60063931Y-141984062D01*
X60062541Y-141914464D01*
X60059381Y-141819268D01*
X60057116Y-141764202D01*
X60052304Y-141677117D01*
X60046625Y-141600899D01*
X60040608Y-141542249D01*
X60034783Y-141507866D01*
X60020679Y-141468588D01*
X59978866Y-141391240D01*
X59913895Y-141299591D01*
X59824970Y-141192567D01*
X59711300Y-141069090D01*
X59661972Y-141017066D01*
X59604938Y-140955696D01*
X59557864Y-140903665D01*
X59524624Y-140865266D01*
X59509089Y-140844796D01*
X59507492Y-140841546D01*
X59505577Y-140827553D01*
X59515145Y-140812039D01*
X59540115Y-140791659D01*
X59584406Y-140763071D01*
X59651938Y-140722932D01*
X59709347Y-140689422D01*
X59814992Y-140628123D01*
X59898171Y-140580509D01*
X59961678Y-140545033D01*
X60008306Y-140520149D01*
X60040850Y-140504313D01*
X60062104Y-140495977D01*
X60084097Y-140486728D01*
X60096951Y-140474307D01*
X60098154Y-140471378D01*
X60116961Y-140455084D01*
X60151335Y-140434098D01*
X60205719Y-140404810D01*
X60245874Y-140442192D01*
X60260057Y-140457336D01*
X60293055Y-140498493D01*
X60333346Y-140553445D01*
X60375182Y-140614531D01*
X60464336Y-140749489D01*
X60460837Y-141099362D01*
X60457339Y-141449235D01*
X60406393Y-141498733D01*
X60389274Y-141516379D01*
X60334376Y-141595660D01*
X60302330Y-141689935D01*
X60291412Y-141803780D01*
X60294123Y-141864779D01*
X60313261Y-141972378D01*
X60348141Y-142070583D01*
X60395742Y-142149382D01*
X60428795Y-142178114D01*
X60487549Y-142199937D01*
X60554061Y-142202454D01*
X60619816Y-142186828D01*
X60676301Y-142154220D01*
X60715003Y-142105793D01*
X60716270Y-142103168D01*
X60739663Y-142055225D01*
X60764439Y-142005122D01*
X60785472Y-141958087D01*
X60815644Y-141878810D01*
X60848932Y-141781072D01*
X60884179Y-141669228D01*
X60920229Y-141547634D01*
X60955925Y-141420645D01*
X60990110Y-141292616D01*
X61021627Y-141167902D01*
X61049320Y-141050859D01*
X61072032Y-140945843D01*
X61088606Y-140857209D01*
X61097885Y-140789312D01*
X61098714Y-140746507D01*
X61096847Y-140736782D01*
X61078658Y-140687556D01*
X61044907Y-140621699D01*
X60998555Y-140545165D01*
X60980764Y-140517585D01*
X60909282Y-140405122D01*
X60848520Y-140306772D01*
X60799817Y-140224832D01*
X60764514Y-140161605D01*
X60743952Y-140119390D01*
X60739469Y-140100487D01*
X60739988Y-140099820D01*
X60758545Y-140086205D01*
X60798202Y-140061319D01*
X60853526Y-140028476D01*
X60919084Y-139990988D01*
X60924626Y-139987876D01*
X60995807Y-139948712D01*
X61045381Y-139923736D01*
X61077906Y-139911158D01*
X61097942Y-139909189D01*
X61110047Y-139916040D01*
G37*
X66992836Y-139862363D02*
X67007023Y-139876032D01*
X67048392Y-139917719D01*
X67103107Y-139974472D01*
X67168510Y-140043397D01*
X67241943Y-140121599D01*
X67320746Y-140206182D01*
X67402260Y-140294253D01*
X67483827Y-140382916D01*
X67562788Y-140469276D01*
X67636483Y-140550439D01*
X67702254Y-140623510D01*
X67757441Y-140685594D01*
X67799386Y-140733795D01*
X67825431Y-140765220D01*
X67832915Y-140776974D01*
X67830346Y-140778272D01*
X67805785Y-140791978D01*
X67757204Y-140819613D01*
X67686652Y-140859998D01*
X67596173Y-140911955D01*
X67487815Y-140974305D01*
X67363624Y-141045871D01*
X67225645Y-141125475D01*
X67075926Y-141211938D01*
X66916513Y-141304083D01*
X66749451Y-141400732D01*
X66687008Y-141436867D01*
X66522883Y-141531806D01*
X66367358Y-141621714D01*
X66222454Y-141705424D01*
X66090195Y-141781771D01*
X65972604Y-141849589D01*
X65871702Y-141907711D01*
X65789513Y-141954971D01*
X65728059Y-141990203D01*
X65689364Y-142012242D01*
X65675449Y-142019920D01*
X65676075Y-142015831D01*
X65687493Y-141992330D01*
X65708493Y-141954786D01*
X65721376Y-141932564D01*
X65748772Y-141885173D01*
X65789087Y-141815377D01*
X65841009Y-141725444D01*
X65903231Y-141617642D01*
X65974443Y-141494240D01*
X66053335Y-141357506D01*
X66138598Y-141209709D01*
X66228924Y-141053117D01*
X66323002Y-140890000D01*
X66415121Y-140730323D01*
X66504680Y-140575187D01*
X66588893Y-140429412D01*
X66666497Y-140295183D01*
X66736225Y-140174685D01*
X66796814Y-140070102D01*
X66846998Y-139983619D01*
X66885512Y-139917421D01*
X66911092Y-139873693D01*
X66922472Y-139854619D01*
X66945820Y-139818201D01*
X66992836Y-139862363D01*
G36*
X66992836Y-139862363D02*
G01*
X67007023Y-139876032D01*
X67048392Y-139917719D01*
X67103107Y-139974472D01*
X67168510Y-140043397D01*
X67241943Y-140121599D01*
X67320746Y-140206182D01*
X67402260Y-140294253D01*
X67483827Y-140382916D01*
X67562788Y-140469276D01*
X67636483Y-140550439D01*
X67702254Y-140623510D01*
X67757441Y-140685594D01*
X67799386Y-140733795D01*
X67825431Y-140765220D01*
X67832915Y-140776974D01*
X67830346Y-140778272D01*
X67805785Y-140791978D01*
X67757204Y-140819613D01*
X67686652Y-140859998D01*
X67596173Y-140911955D01*
X67487815Y-140974305D01*
X67363624Y-141045871D01*
X67225645Y-141125475D01*
X67075926Y-141211938D01*
X66916513Y-141304083D01*
X66749451Y-141400732D01*
X66687008Y-141436867D01*
X66522883Y-141531806D01*
X66367358Y-141621714D01*
X66222454Y-141705424D01*
X66090195Y-141781771D01*
X65972604Y-141849589D01*
X65871702Y-141907711D01*
X65789513Y-141954971D01*
X65728059Y-141990203D01*
X65689364Y-142012242D01*
X65675449Y-142019920D01*
X65676075Y-142015831D01*
X65687493Y-141992330D01*
X65708493Y-141954786D01*
X65721376Y-141932564D01*
X65748772Y-141885173D01*
X65789087Y-141815377D01*
X65841009Y-141725444D01*
X65903231Y-141617642D01*
X65974443Y-141494240D01*
X66053335Y-141357506D01*
X66138598Y-141209709D01*
X66228924Y-141053117D01*
X66323002Y-140890000D01*
X66415121Y-140730323D01*
X66504680Y-140575187D01*
X66588893Y-140429412D01*
X66666497Y-140295183D01*
X66736225Y-140174685D01*
X66796814Y-140070102D01*
X66846998Y-139983619D01*
X66885512Y-139917421D01*
X66911092Y-139873693D01*
X66922472Y-139854619D01*
X66945820Y-139818201D01*
X66992836Y-139862363D01*
G37*
X68755560Y-136693175D02*
X68767093Y-136710511D01*
X68792500Y-136752162D01*
X68830507Y-136815911D01*
X68879837Y-136899545D01*
X68939213Y-137000849D01*
X69007359Y-137117609D01*
X69083000Y-137247608D01*
X69164859Y-137388633D01*
X69251660Y-137538468D01*
X69342126Y-137694900D01*
X69434982Y-137855713D01*
X69528951Y-138018693D01*
X69622757Y-138181624D01*
X69715124Y-138342292D01*
X69804776Y-138498482D01*
X69890436Y-138647980D01*
X69970828Y-138788571D01*
X70044677Y-138918040D01*
X70110705Y-139034172D01*
X70167637Y-139134752D01*
X70214197Y-139217567D01*
X70249108Y-139280400D01*
X70271094Y-139321037D01*
X70278879Y-139337264D01*
X70278887Y-139337388D01*
X70266333Y-139354416D01*
X70230258Y-139383279D01*
X70174417Y-139421247D01*
X70102561Y-139465587D01*
X70054373Y-139493952D01*
X69985032Y-139533396D01*
X69936734Y-139558254D01*
X69906242Y-139569924D01*
X69890320Y-139569806D01*
X69885732Y-139559297D01*
X69885382Y-139557583D01*
X69872268Y-139536682D01*
X69844000Y-139501139D01*
X69805786Y-139457583D01*
X69788155Y-139438875D01*
X69733482Y-139388512D01*
X69673022Y-139345465D01*
X69603182Y-139308473D01*
X69520370Y-139276273D01*
X69420992Y-139247602D01*
X69301455Y-139221198D01*
X69158166Y-139195800D01*
X68987531Y-139170145D01*
X68791134Y-139141227D01*
X68601274Y-139110173D01*
X68435260Y-139079044D01*
X68289382Y-139046942D01*
X68159927Y-139012969D01*
X68043183Y-138976226D01*
X67935440Y-138935817D01*
X67832985Y-138890843D01*
X67757688Y-138853754D01*
X67685765Y-138814725D01*
X67628886Y-138779882D01*
X67591499Y-138751965D01*
X67578049Y-138733714D01*
X67578446Y-138732370D01*
X67589280Y-138710862D01*
X67613845Y-138665822D01*
X67650685Y-138599772D01*
X67698347Y-138515233D01*
X67755376Y-138414727D01*
X67820318Y-138300776D01*
X67891719Y-138175901D01*
X67968124Y-138042624D01*
X68048079Y-137903467D01*
X68130130Y-137760951D01*
X68212822Y-137617598D01*
X68294701Y-137475930D01*
X68374313Y-137338468D01*
X68450204Y-137207734D01*
X68520919Y-137086250D01*
X68585004Y-136976538D01*
X68641004Y-136881118D01*
X68687466Y-136802514D01*
X68722935Y-136743245D01*
X68745957Y-136705835D01*
X68755077Y-136692805D01*
X68755560Y-136693175D01*
G36*
X68755560Y-136693175D02*
G01*
X68767093Y-136710511D01*
X68792500Y-136752162D01*
X68830507Y-136815911D01*
X68879837Y-136899545D01*
X68939213Y-137000849D01*
X69007359Y-137117609D01*
X69083000Y-137247608D01*
X69164859Y-137388633D01*
X69251660Y-137538468D01*
X69342126Y-137694900D01*
X69434982Y-137855713D01*
X69528951Y-138018693D01*
X69622757Y-138181624D01*
X69715124Y-138342292D01*
X69804776Y-138498482D01*
X69890436Y-138647980D01*
X69970828Y-138788571D01*
X70044677Y-138918040D01*
X70110705Y-139034172D01*
X70167637Y-139134752D01*
X70214197Y-139217567D01*
X70249108Y-139280400D01*
X70271094Y-139321037D01*
X70278879Y-139337264D01*
X70278887Y-139337388D01*
X70266333Y-139354416D01*
X70230258Y-139383279D01*
X70174417Y-139421247D01*
X70102561Y-139465587D01*
X70054373Y-139493952D01*
X69985032Y-139533396D01*
X69936734Y-139558254D01*
X69906242Y-139569924D01*
X69890320Y-139569806D01*
X69885732Y-139559297D01*
X69885382Y-139557583D01*
X69872268Y-139536682D01*
X69844000Y-139501139D01*
X69805786Y-139457583D01*
X69788155Y-139438875D01*
X69733482Y-139388512D01*
X69673022Y-139345465D01*
X69603182Y-139308473D01*
X69520370Y-139276273D01*
X69420992Y-139247602D01*
X69301455Y-139221198D01*
X69158166Y-139195800D01*
X68987531Y-139170145D01*
X68791134Y-139141227D01*
X68601274Y-139110173D01*
X68435260Y-139079044D01*
X68289382Y-139046942D01*
X68159927Y-139012969D01*
X68043183Y-138976226D01*
X67935440Y-138935817D01*
X67832985Y-138890843D01*
X67757688Y-138853754D01*
X67685765Y-138814725D01*
X67628886Y-138779882D01*
X67591499Y-138751965D01*
X67578049Y-138733714D01*
X67578446Y-138732370D01*
X67589280Y-138710862D01*
X67613845Y-138665822D01*
X67650685Y-138599772D01*
X67698347Y-138515233D01*
X67755376Y-138414727D01*
X67820318Y-138300776D01*
X67891719Y-138175901D01*
X67968124Y-138042624D01*
X68048079Y-137903467D01*
X68130130Y-137760951D01*
X68212822Y-137617598D01*
X68294701Y-137475930D01*
X68374313Y-137338468D01*
X68450204Y-137207734D01*
X68520919Y-137086250D01*
X68585004Y-136976538D01*
X68641004Y-136881118D01*
X68687466Y-136802514D01*
X68722935Y-136743245D01*
X68745957Y-136705835D01*
X68755077Y-136692805D01*
X68755560Y-136693175D01*
G37*
X70620047Y-139916040D02*
X70625802Y-139924625D01*
X70646365Y-139958346D01*
X70680179Y-140015200D01*
X70725950Y-140092968D01*
X70782383Y-140189432D01*
X70848184Y-140302371D01*
X70922058Y-140429568D01*
X71002711Y-140568803D01*
X71088848Y-140717857D01*
X71179175Y-140874512D01*
X71203947Y-140917521D01*
X71301900Y-141087575D01*
X71400509Y-141258754D01*
X71497760Y-141427562D01*
X71591638Y-141590503D01*
X71680131Y-141744082D01*
X71761222Y-141884801D01*
X71832898Y-142009166D01*
X71893144Y-142113680D01*
X71939947Y-142194847D01*
X72161030Y-142578171D01*
X69061076Y-142578171D01*
X68932921Y-142578159D01*
X68627500Y-142578042D01*
X68331432Y-142577802D01*
X68046159Y-142577444D01*
X67773123Y-142576976D01*
X67513765Y-142576403D01*
X67269527Y-142575732D01*
X67041849Y-142574968D01*
X66832174Y-142574119D01*
X66641943Y-142573189D01*
X66472597Y-142572186D01*
X66325578Y-142571115D01*
X66202327Y-142569983D01*
X66104286Y-142568796D01*
X66032896Y-142567559D01*
X65989598Y-142566280D01*
X65975835Y-142564963D01*
X65986054Y-142558304D01*
X66021311Y-142537083D01*
X66079221Y-142502920D01*
X66157430Y-142457171D01*
X66253583Y-142401190D01*
X66365323Y-142336333D01*
X66490296Y-142263954D01*
X66626146Y-142185409D01*
X66770518Y-142102054D01*
X66921056Y-142015243D01*
X67075405Y-141926332D01*
X67231210Y-141836676D01*
X67386116Y-141747629D01*
X67537766Y-141660548D01*
X67683806Y-141576788D01*
X67821881Y-141497703D01*
X67949634Y-141424649D01*
X68064711Y-141358981D01*
X68164756Y-141302054D01*
X68247414Y-141255224D01*
X68310329Y-141219846D01*
X68351147Y-141197274D01*
X68367511Y-141188864D01*
X68378189Y-141190949D01*
X68410358Y-141209908D01*
X68456221Y-141245032D01*
X68510740Y-141292669D01*
X68559845Y-141340356D01*
X68622389Y-141405316D01*
X68692368Y-141481155D01*
X68766196Y-141563698D01*
X68840285Y-141648768D01*
X68911048Y-141732190D01*
X68974898Y-141809789D01*
X69028247Y-141877389D01*
X69067509Y-141930814D01*
X69089095Y-141965889D01*
X69103506Y-141991505D01*
X69142643Y-142044516D01*
X69192958Y-142100912D01*
X69247276Y-142153462D01*
X69298424Y-142194930D01*
X69339227Y-142218086D01*
X69384292Y-142223438D01*
X69444426Y-142208645D01*
X69501579Y-142174726D01*
X69545933Y-142126053D01*
X69553613Y-142113425D01*
X69563392Y-142092743D01*
X69569765Y-142067854D01*
X69573142Y-142033409D01*
X69573931Y-141984062D01*
X69572541Y-141914464D01*
X69569381Y-141819268D01*
X69567116Y-141764202D01*
X69562304Y-141677117D01*
X69556625Y-141600899D01*
X69550608Y-141542249D01*
X69544783Y-141507866D01*
X69530679Y-141468588D01*
X69488866Y-141391240D01*
X69423895Y-141299591D01*
X69334970Y-141192567D01*
X69221300Y-141069090D01*
X69171972Y-141017066D01*
X69114938Y-140955696D01*
X69067864Y-140903665D01*
X69034624Y-140865266D01*
X69019089Y-140844796D01*
X69017492Y-140841546D01*
X69015577Y-140827553D01*
X69025145Y-140812039D01*
X69050115Y-140791659D01*
X69094406Y-140763071D01*
X69161938Y-140722932D01*
X69219347Y-140689422D01*
X69324992Y-140628123D01*
X69408171Y-140580509D01*
X69471678Y-140545033D01*
X69518306Y-140520149D01*
X69550850Y-140504313D01*
X69572104Y-140495977D01*
X69594097Y-140486728D01*
X69606951Y-140474307D01*
X69608154Y-140471378D01*
X69626961Y-140455084D01*
X69661335Y-140434098D01*
X69715719Y-140404810D01*
X69755874Y-140442192D01*
X69770057Y-140457336D01*
X69803055Y-140498493D01*
X69843346Y-140553445D01*
X69885182Y-140614531D01*
X69974336Y-140749489D01*
X69970837Y-141099362D01*
X69967339Y-141449235D01*
X69916393Y-141498733D01*
X69899274Y-141516379D01*
X69844376Y-141595660D01*
X69812330Y-141689935D01*
X69801412Y-141803780D01*
X69804123Y-141864779D01*
X69823261Y-141972378D01*
X69858141Y-142070583D01*
X69905742Y-142149382D01*
X69938795Y-142178114D01*
X69997549Y-142199937D01*
X70064061Y-142202454D01*
X70129816Y-142186828D01*
X70186301Y-142154220D01*
X70225003Y-142105793D01*
X70226270Y-142103168D01*
X70249663Y-142055225D01*
X70274439Y-142005122D01*
X70295472Y-141958087D01*
X70325644Y-141878810D01*
X70358932Y-141781072D01*
X70394179Y-141669228D01*
X70430229Y-141547634D01*
X70465925Y-141420645D01*
X70500110Y-141292616D01*
X70531627Y-141167902D01*
X70559320Y-141050859D01*
X70582032Y-140945843D01*
X70598606Y-140857209D01*
X70607885Y-140789312D01*
X70608714Y-140746507D01*
X70606847Y-140736782D01*
X70588658Y-140687556D01*
X70554907Y-140621699D01*
X70508555Y-140545165D01*
X70490764Y-140517585D01*
X70419282Y-140405122D01*
X70358520Y-140306772D01*
X70309817Y-140224832D01*
X70274514Y-140161605D01*
X70253952Y-140119390D01*
X70249469Y-140100487D01*
X70249988Y-140099820D01*
X70268545Y-140086205D01*
X70308202Y-140061319D01*
X70363526Y-140028476D01*
X70429084Y-139990988D01*
X70434626Y-139987876D01*
X70505807Y-139948712D01*
X70555381Y-139923736D01*
X70587906Y-139911158D01*
X70607942Y-139909189D01*
X70620047Y-139916040D01*
G36*
X70620047Y-139916040D02*
G01*
X70625802Y-139924625D01*
X70646365Y-139958346D01*
X70680179Y-140015200D01*
X70725950Y-140092968D01*
X70782383Y-140189432D01*
X70848184Y-140302371D01*
X70922058Y-140429568D01*
X71002711Y-140568803D01*
X71088848Y-140717857D01*
X71179175Y-140874512D01*
X71203947Y-140917521D01*
X71301900Y-141087575D01*
X71400509Y-141258754D01*
X71497760Y-141427562D01*
X71591638Y-141590503D01*
X71680131Y-141744082D01*
X71761222Y-141884801D01*
X71832898Y-142009166D01*
X71893144Y-142113680D01*
X71939947Y-142194847D01*
X72161030Y-142578171D01*
X69061076Y-142578171D01*
X68932921Y-142578159D01*
X68627500Y-142578042D01*
X68331432Y-142577802D01*
X68046159Y-142577444D01*
X67773123Y-142576976D01*
X67513765Y-142576403D01*
X67269527Y-142575732D01*
X67041849Y-142574968D01*
X66832174Y-142574119D01*
X66641943Y-142573189D01*
X66472597Y-142572186D01*
X66325578Y-142571115D01*
X66202327Y-142569983D01*
X66104286Y-142568796D01*
X66032896Y-142567559D01*
X65989598Y-142566280D01*
X65975835Y-142564963D01*
X65986054Y-142558304D01*
X66021311Y-142537083D01*
X66079221Y-142502920D01*
X66157430Y-142457171D01*
X66253583Y-142401190D01*
X66365323Y-142336333D01*
X66490296Y-142263954D01*
X66626146Y-142185409D01*
X66770518Y-142102054D01*
X66921056Y-142015243D01*
X67075405Y-141926332D01*
X67231210Y-141836676D01*
X67386116Y-141747629D01*
X67537766Y-141660548D01*
X67683806Y-141576788D01*
X67821881Y-141497703D01*
X67949634Y-141424649D01*
X68064711Y-141358981D01*
X68164756Y-141302054D01*
X68247414Y-141255224D01*
X68310329Y-141219846D01*
X68351147Y-141197274D01*
X68367511Y-141188864D01*
X68378189Y-141190949D01*
X68410358Y-141209908D01*
X68456221Y-141245032D01*
X68510740Y-141292669D01*
X68559845Y-141340356D01*
X68622389Y-141405316D01*
X68692368Y-141481155D01*
X68766196Y-141563698D01*
X68840285Y-141648768D01*
X68911048Y-141732190D01*
X68974898Y-141809789D01*
X69028247Y-141877389D01*
X69067509Y-141930814D01*
X69089095Y-141965889D01*
X69103506Y-141991505D01*
X69142643Y-142044516D01*
X69192958Y-142100912D01*
X69247276Y-142153462D01*
X69298424Y-142194930D01*
X69339227Y-142218086D01*
X69384292Y-142223438D01*
X69444426Y-142208645D01*
X69501579Y-142174726D01*
X69545933Y-142126053D01*
X69553613Y-142113425D01*
X69563392Y-142092743D01*
X69569765Y-142067854D01*
X69573142Y-142033409D01*
X69573931Y-141984062D01*
X69572541Y-141914464D01*
X69569381Y-141819268D01*
X69567116Y-141764202D01*
X69562304Y-141677117D01*
X69556625Y-141600899D01*
X69550608Y-141542249D01*
X69544783Y-141507866D01*
X69530679Y-141468588D01*
X69488866Y-141391240D01*
X69423895Y-141299591D01*
X69334970Y-141192567D01*
X69221300Y-141069090D01*
X69171972Y-141017066D01*
X69114938Y-140955696D01*
X69067864Y-140903665D01*
X69034624Y-140865266D01*
X69019089Y-140844796D01*
X69017492Y-140841546D01*
X69015577Y-140827553D01*
X69025145Y-140812039D01*
X69050115Y-140791659D01*
X69094406Y-140763071D01*
X69161938Y-140722932D01*
X69219347Y-140689422D01*
X69324992Y-140628123D01*
X69408171Y-140580509D01*
X69471678Y-140545033D01*
X69518306Y-140520149D01*
X69550850Y-140504313D01*
X69572104Y-140495977D01*
X69594097Y-140486728D01*
X69606951Y-140474307D01*
X69608154Y-140471378D01*
X69626961Y-140455084D01*
X69661335Y-140434098D01*
X69715719Y-140404810D01*
X69755874Y-140442192D01*
X69770057Y-140457336D01*
X69803055Y-140498493D01*
X69843346Y-140553445D01*
X69885182Y-140614531D01*
X69974336Y-140749489D01*
X69970837Y-141099362D01*
X69967339Y-141449235D01*
X69916393Y-141498733D01*
X69899274Y-141516379D01*
X69844376Y-141595660D01*
X69812330Y-141689935D01*
X69801412Y-141803780D01*
X69804123Y-141864779D01*
X69823261Y-141972378D01*
X69858141Y-142070583D01*
X69905742Y-142149382D01*
X69938795Y-142178114D01*
X69997549Y-142199937D01*
X70064061Y-142202454D01*
X70129816Y-142186828D01*
X70186301Y-142154220D01*
X70225003Y-142105793D01*
X70226270Y-142103168D01*
X70249663Y-142055225D01*
X70274439Y-142005122D01*
X70295472Y-141958087D01*
X70325644Y-141878810D01*
X70358932Y-141781072D01*
X70394179Y-141669228D01*
X70430229Y-141547634D01*
X70465925Y-141420645D01*
X70500110Y-141292616D01*
X70531627Y-141167902D01*
X70559320Y-141050859D01*
X70582032Y-140945843D01*
X70598606Y-140857209D01*
X70607885Y-140789312D01*
X70608714Y-140746507D01*
X70606847Y-140736782D01*
X70588658Y-140687556D01*
X70554907Y-140621699D01*
X70508555Y-140545165D01*
X70490764Y-140517585D01*
X70419282Y-140405122D01*
X70358520Y-140306772D01*
X70309817Y-140224832D01*
X70274514Y-140161605D01*
X70253952Y-140119390D01*
X70249469Y-140100487D01*
X70249988Y-140099820D01*
X70268545Y-140086205D01*
X70308202Y-140061319D01*
X70363526Y-140028476D01*
X70429084Y-139990988D01*
X70434626Y-139987876D01*
X70505807Y-139948712D01*
X70555381Y-139923736D01*
X70587906Y-139911158D01*
X70607942Y-139909189D01*
X70620047Y-139916040D01*
G37*
%TD*%
M02*
