%TF.GenerationSoftware,KiCad,Pcbnew,9.0.0*%
%TF.CreationDate,2026-04-05T17:31:23+07:00*%
%TF.ProjectId,IoT2526_HK2,496f5432-3532-4365-9f48-4b322e6b6963,rev?*%
%TF.SameCoordinates,Original*%
%TF.FileFunction,Soldermask,Top*%
%TF.FilePolarity,Negative*%
%FSLAX46Y46*%
G04 Gerber Fmt 4.6, Leading zero omitted, Abs format (unit mm)*
G04 Created by KiCad (PCBNEW 9.0.0) date 2026-04-05 17:31:23*
%MOMM*%
%LPD*%
G01*
G04 APERTURE LIST*
G04 Aperture macros list*
%AMRoundRect*
0 Rectangle with rounded corners*
0 $1 Rounding radius*
0 $2 $3 $4 $5 $6 $7 $8 $9 X,Y pos of 4 corners*
0 Add a 4 corners polygon primitive as box body*
4,1,4,$2,$3,$4,$5,$6,$7,$8,$9,$2,$3,0*
0 Add four circle primitives for the rounded corners*
1,1,$1+$1,$2,$3*
1,1,$1+$1,$4,$5*
1,1,$1+$1,$6,$7*
1,1,$1+$1,$8,$9*
0 Add four rect primitives between the rounded corners*
20,1,$1+$1,$2,$3,$4,$5,0*
20,1,$1+$1,$4,$5,$6,$7,0*
20,1,$1+$1,$6,$7,$8,$9,0*
20,1,$1+$1,$8,$9,$2,$3,0*%
%AMOutline4P*
0 Free polygon, 4 corners , with rotation*
0 The origin of the aperture is its center*
0 number of corners: always 4*
0 $1 to $8 corner X, Y*
0 $9 Rotation angle, in degrees counterclockwise*
0 create outline with 4 corners*
4,1,4,$1,$2,$3,$4,$5,$6,$7,$8,$1,$2,$9*%
G04 Aperture macros list end*
%ADD10RoundRect,0.127500X0.322500X-0.297500X0.322500X0.297500X-0.322500X0.297500X-0.322500X-0.297500X0*%
%ADD11R,1.700000X1.700000*%
%ADD12O,1.700000X1.700000*%
%ADD13RoundRect,0.127500X-0.297500X-0.322500X0.297500X-0.322500X0.297500X0.322500X-0.297500X0.322500X0*%
%ADD14RoundRect,0.218750X0.218750X0.256250X-0.218750X0.256250X-0.218750X-0.256250X0.218750X-0.256250X0*%
%ADD15R,2.000000X2.000000*%
%ADD16C,2.000000*%
%ADD17RoundRect,0.150000X0.150000X-0.587500X0.150000X0.587500X-0.150000X0.587500X-0.150000X-0.587500X0*%
%ADD18RoundRect,0.225000X-0.375000X0.225000X-0.375000X-0.225000X0.375000X-0.225000X0.375000X0.225000X0*%
%ADD19Outline4P,-0.750000X-0.750000X0.750000X-0.750000X0.750000X0.750000X-0.750000X0.750000X180.000000*%
%ADD20C,1.500000*%
%ADD21O,1.800000X1.800000*%
%ADD22R,1.800000X1.800000*%
%ADD23RoundRect,0.127500X-0.322500X0.297500X-0.322500X-0.297500X0.322500X-0.297500X0.322500X0.297500X0*%
%ADD24C,3.200000*%
%ADD25RoundRect,0.090000X-0.410000X-0.210000X0.410000X-0.210000X0.410000X0.210000X-0.410000X0.210000X0*%
%ADD26C,1.800000*%
%ADD27RoundRect,0.102000X-0.765000X-0.765000X0.765000X-0.765000X0.765000X0.765000X-0.765000X0.765000X0*%
%ADD28C,1.734000*%
%ADD29C,2.010000*%
%ADD30C,1.000000*%
%ADD31C,1.244600*%
%ADD32RoundRect,0.647700X0.647700X-1.155700X0.647700X1.155700X-0.647700X1.155700X-0.647700X-1.155700X0*%
%ADD33R,1.400000X1.760000*%
%ADD34R,3.500000X1.760000*%
%ADD35RoundRect,0.250000X0.300000X0.300000X-0.300000X0.300000X-0.300000X-0.300000X0.300000X-0.300000X0*%
%ADD36RoundRect,0.102000X-0.300000X0.750000X-0.300000X-0.750000X0.300000X-0.750000X0.300000X0.750000X0*%
%ADD37RoundRect,0.127500X0.297500X0.322500X-0.297500X0.322500X-0.297500X-0.322500X0.297500X-0.322500X0*%
%ADD38RoundRect,0.250000X1.950000X1.000000X-1.950000X1.000000X-1.950000X-1.000000X1.950000X-1.000000X0*%
%ADD39RoundRect,0.150000X0.587500X0.150000X-0.587500X0.150000X-0.587500X-0.150000X0.587500X-0.150000X0*%
%ADD40R,2.000000X1.700000*%
%ADD41O,2.000000X1.700000*%
%ADD42C,2.200000*%
%ADD43RoundRect,0.150000X-0.875000X-0.150000X0.875000X-0.150000X0.875000X0.150000X-0.875000X0.150000X0*%
%ADD44O,4.000000X2.000000*%
G04 APERTURE END LIST*
D10*
%TO.C,R12*%
X94860000Y-97965000D03*
X94860000Y-99515000D03*
%TD*%
D11*
%TO.C,J1*%
X84380000Y-56360000D03*
D12*
X84380000Y-58900000D03*
X84380000Y-61440000D03*
%TD*%
D13*
%TO.C,R8*%
X91230000Y-104870000D03*
X89680000Y-104870000D03*
%TD*%
D10*
%TO.C,R3*%
X99462500Y-92255000D03*
X99462500Y-93805000D03*
%TD*%
D14*
%TO.C,D10*%
X74557500Y-55790000D03*
X72982500Y-55790000D03*
%TD*%
D15*
%TO.C,BZ1*%
X119910000Y-110000000D03*
D16*
X127510000Y-110000000D03*
%TD*%
D10*
%TO.C,C3*%
X115540000Y-52365000D03*
X115540000Y-53915000D03*
%TD*%
D17*
%TO.C,Q3*%
X95790000Y-94410000D03*
X97690000Y-94410000D03*
X96740000Y-92535000D03*
%TD*%
D10*
%TO.C,C8*%
X124100000Y-70885000D03*
X124100000Y-72435000D03*
%TD*%
D18*
%TO.C,D7*%
X113340000Y-52312500D03*
X113340000Y-55612500D03*
%TD*%
D19*
%TO.C,L1*%
X65550000Y-110800000D03*
D20*
X65550000Y-103800000D03*
X57550000Y-110800000D03*
X57550000Y-103800000D03*
%TD*%
D21*
%TO.C,K3*%
X94762500Y-122237500D03*
X94762500Y-129237500D03*
D22*
X99462500Y-110737500D03*
D21*
X94762500Y-110737500D03*
%TD*%
D17*
%TO.C,Q2*%
X87527500Y-94410000D03*
X89427500Y-94410000D03*
X88477500Y-92535000D03*
%TD*%
D23*
%TO.C,C4*%
X117630000Y-98120000D03*
X117630000Y-96570000D03*
%TD*%
D24*
%TO.C,REF\u002A\u002A*%
X145000000Y-145000000D03*
%TD*%
D11*
%TO.C,J3*%
X77900000Y-69290000D03*
D12*
X77900000Y-71830000D03*
X77900000Y-74370000D03*
X77900000Y-76910000D03*
%TD*%
D10*
%TO.C,C5*%
X125860000Y-70885000D03*
X125860000Y-72435000D03*
%TD*%
D25*
%TO.C,D9*%
X130692500Y-65190000D03*
X130692500Y-67090000D03*
X132967500Y-66140000D03*
%TD*%
D10*
%TO.C,C1*%
X73330000Y-57882500D03*
X73330000Y-59432500D03*
%TD*%
D26*
%TO.C,R13*%
X54030000Y-121820000D03*
X61530000Y-124520000D03*
%TD*%
D13*
%TO.C,C9*%
X77900000Y-55870000D03*
X76350000Y-55870000D03*
%TD*%
D27*
%TO.C,U5*%
X120200000Y-52400000D03*
D28*
X120200000Y-54940000D03*
X120200000Y-57480000D03*
X120200000Y-60020000D03*
X120200000Y-62560000D03*
X120200000Y-65100000D03*
X120200000Y-67640000D03*
X120200000Y-70180000D03*
X120200000Y-72720000D03*
X120200000Y-75260000D03*
X120200000Y-77800000D03*
X120200000Y-80340000D03*
X120200000Y-82880000D03*
X120200000Y-85420000D03*
X120200000Y-87960000D03*
X120200000Y-90500000D03*
X120200000Y-93040000D03*
X120200000Y-95580000D03*
X120200000Y-98120000D03*
X145600000Y-98120000D03*
X145600000Y-95580000D03*
X145600000Y-93040000D03*
X145600000Y-90500000D03*
X145600000Y-87960000D03*
X145600000Y-85420000D03*
X145600000Y-82880000D03*
X145600000Y-80340000D03*
X145600000Y-77800000D03*
X145600000Y-75260000D03*
X145600000Y-72720000D03*
X145600000Y-70180000D03*
X145600000Y-67640000D03*
X145600000Y-65100000D03*
X145600000Y-62560000D03*
X145600000Y-60020000D03*
X145600000Y-57480000D03*
X145600000Y-54940000D03*
X145600000Y-52400000D03*
%TD*%
D10*
%TO.C,C2*%
X71520000Y-57882500D03*
X71520000Y-59432500D03*
%TD*%
%TO.C,C6*%
X117360000Y-52375000D03*
X117360000Y-53925000D03*
%TD*%
D23*
%TO.C,R6*%
X94870000Y-102847000D03*
X94870000Y-101297000D03*
%TD*%
D10*
%TO.C,C12*%
X69720000Y-57882500D03*
X69720000Y-59432500D03*
%TD*%
D23*
%TO.C,R21*%
X131480000Y-106950000D03*
X131480000Y-105400000D03*
%TD*%
D10*
%TO.C,R1*%
X82790000Y-92365000D03*
X82790000Y-93915000D03*
%TD*%
D29*
%TO.C,F1*%
X59150000Y-129400000D03*
X54050000Y-128200000D03*
%TD*%
D14*
%TO.C,D8*%
X72972500Y-52460000D03*
X74547500Y-52460000D03*
%TD*%
D13*
%TO.C,R7*%
X82747500Y-104870000D03*
X81197500Y-104870000D03*
%TD*%
D14*
%TO.C,D1*%
X78047500Y-104870000D03*
X79622500Y-104870000D03*
%TD*%
D23*
%TO.C,R4*%
X78290000Y-102847000D03*
X78290000Y-101297000D03*
%TD*%
D30*
%TO.C,BT1*%
X130750000Y-94107100D03*
D31*
X130750000Y-86614100D03*
D32*
X130750000Y-82461200D03*
X130750000Y-98260000D03*
%TD*%
D23*
%TO.C,C7*%
X115900000Y-98120000D03*
X115900000Y-96570000D03*
%TD*%
D10*
%TO.C,R16*%
X142770000Y-55930000D03*
X142770000Y-57480000D03*
%TD*%
D33*
%TO.C,U4*%
X80200000Y-57900000D03*
D34*
X77900000Y-64150000D03*
D33*
X77900000Y-57900000D03*
X75600000Y-57900000D03*
%TD*%
D21*
%TO.C,K1*%
X78047500Y-122312500D03*
X78047500Y-129312500D03*
D22*
X82747500Y-110812500D03*
D21*
X78047500Y-110812500D03*
%TD*%
%TO.C,K2*%
X86530000Y-122330000D03*
X86530000Y-129330000D03*
D22*
X91230000Y-110830000D03*
D21*
X86530000Y-110830000D03*
%TD*%
D10*
%TO.C,R20*%
X131460000Y-102160000D03*
X131460000Y-103710000D03*
%TD*%
D35*
%TO.C,D5*%
X91190000Y-107220000D03*
X88390000Y-107220000D03*
%TD*%
D24*
%TO.C,REF\u002A\u002A*%
X132000000Y-58000000D03*
%TD*%
D35*
%TO.C,D6*%
X99462500Y-107220000D03*
X96662500Y-107220000D03*
%TD*%
D13*
%TO.C,R9*%
X99462500Y-104870000D03*
X97912500Y-104870000D03*
%TD*%
D36*
%TO.C,U2*%
X91190000Y-96497000D03*
X88650000Y-96497000D03*
X88650000Y-102847000D03*
X91190000Y-102847000D03*
%TD*%
D10*
%TO.C,R17*%
X142770000Y-63550000D03*
X142770000Y-65100000D03*
%TD*%
%TO.C,R10*%
X78290000Y-98060000D03*
X78290000Y-99610000D03*
%TD*%
D36*
%TO.C,U1*%
X82800000Y-96497000D03*
X80260000Y-96497000D03*
X80260000Y-102847000D03*
X82800000Y-102847000D03*
%TD*%
D37*
%TO.C,R14*%
X76335000Y-52470000D03*
X77885000Y-52470000D03*
%TD*%
D38*
%TO.C,C13*%
X66010000Y-57880000D03*
X58610000Y-57880000D03*
%TD*%
D39*
%TO.C,Q4*%
X129415000Y-103680000D03*
X129415000Y-101780000D03*
X127540000Y-102730000D03*
%TD*%
D10*
%TO.C,R19*%
X120220000Y-101315000D03*
X120220000Y-102865000D03*
%TD*%
D14*
%TO.C,D2*%
X86530000Y-104870000D03*
X88105000Y-104870000D03*
%TD*%
D36*
%TO.C,U3*%
X99462500Y-96497000D03*
X96922500Y-96497000D03*
X96922500Y-102847000D03*
X99462500Y-102847000D03*
%TD*%
D40*
%TO.C,PS1*%
X60000000Y-97200000D03*
D41*
X65000000Y-97200000D03*
X55000000Y-68120000D03*
X70000000Y-68120000D03*
%TD*%
D14*
%TO.C,D3*%
X94762500Y-104870000D03*
X96337500Y-104870000D03*
%TD*%
D13*
%TO.C,C11*%
X77895000Y-54170000D03*
X76345000Y-54170000D03*
%TD*%
D11*
%TO.C,J2*%
X98860000Y-56360000D03*
D12*
X98860000Y-58900000D03*
X98860000Y-61440000D03*
%TD*%
D13*
%TO.C,R18*%
X71270000Y-55800000D03*
X69720000Y-55800000D03*
%TD*%
D10*
%TO.C,R15*%
X129000000Y-63640000D03*
X129000000Y-65190000D03*
%TD*%
D42*
%TO.C,C10*%
X54030000Y-116730000D03*
X69030000Y-116730000D03*
%TD*%
D17*
%TO.C,Q1*%
X79200000Y-94410000D03*
X81100000Y-94410000D03*
X80150000Y-92535000D03*
%TD*%
D24*
%TO.C,REF\u002A\u002A*%
X54000000Y-54000000D03*
%TD*%
D10*
%TO.C,R2*%
X91170000Y-92495000D03*
X91170000Y-94045000D03*
%TD*%
%TO.C,R11*%
X86580000Y-98060000D03*
X86580000Y-99610000D03*
%TD*%
D23*
%TO.C,R5*%
X86580000Y-102895000D03*
X86580000Y-101345000D03*
%TD*%
D43*
%TO.C,IC1*%
X128190000Y-69615000D03*
X128190000Y-70885000D03*
X128190000Y-72155000D03*
X128190000Y-73425000D03*
X128190000Y-74695000D03*
X128190000Y-75965000D03*
X128190000Y-77235000D03*
X128190000Y-78505000D03*
X137490000Y-78505000D03*
X137490000Y-77235000D03*
X137490000Y-75965000D03*
X137490000Y-74695000D03*
X137490000Y-73425000D03*
X137490000Y-72155000D03*
X137490000Y-70885000D03*
X137490000Y-69615000D03*
%TD*%
D44*
%TO.C,J4*%
X59210000Y-134800000D03*
X68710000Y-134800000D03*
X78210000Y-134800000D03*
X87710000Y-134800000D03*
X97210000Y-134800000D03*
%TD*%
D35*
%TO.C,D4*%
X82800000Y-107220000D03*
X80000000Y-107220000D03*
%TD*%
D11*
%TO.C,U6*%
X109080000Y-128340000D03*
D12*
X111620000Y-128340000D03*
X114160000Y-128340000D03*
X116700000Y-128340000D03*
X119240000Y-128340000D03*
X121780000Y-128340000D03*
X124320000Y-128340000D03*
X126860000Y-128340000D03*
X129400000Y-128340000D03*
X131940000Y-128340000D03*
X134480000Y-128340000D03*
X137020000Y-128340000D03*
X139560000Y-128340000D03*
X142100000Y-128340000D03*
%TD*%
M02*
