M48
; DRILL file {KiCad 9.0.0} date 2026-04-05T17:31:25+0700
; FORMAT={-:-/ absolute / metric / decimal}
; #@! TF.CreationDate,2026-04-05T17:31:25+07:00
; #@! TF.GenerationSoftware,Kicad,Pcbnew,9.0.0
; #@! TF.FileFunction,Plated,1,2,PTH
FMAT,2
METRIC
; #@! TA.AperFunction,Plated,PTH,ViaDrill
T1C0.300
; #@! TA.AperFunction,Plated,PTH,ViaDrill
T2C0.500
; #@! TA.AperFunction,Plated,PTH,ViaDrill
T3C0.600
; #@! TA.AperFunction,Plated,PTH,ComponentDrill
T4C0.800
; #@! TA.AperFunction,Plated,PTH,ComponentDrill
T5C0.900
; #@! TA.AperFunction,Plated,PTH,ComponentDrill
T6C1.000
; #@! TA.AperFunction,Plated,PTH,ComponentDrill
T7C1.010
; #@! TA.AperFunction,Plated,PTH,ComponentDrill
T8C1.020
; #@! TA.AperFunction,Plated,PTH,ComponentDrill
T9C1.100
%
G90
G05
T1
X52.34Y-59.41
X52.34Y-61.95
X52.34Y-64.49
X52.34Y-67.03
X52.35Y-57.61
X54.88Y-59.41
X54.88Y-61.95
X54.88Y-64.49
X54.9Y-57.53
X57.42Y-51.79
X57.42Y-54.33
X57.42Y-60.136
X57.42Y-61.95
X57.42Y-64.49
X57.42Y-67.03
X59.96Y-51.79
X59.96Y-54.33
X59.96Y-60.136
X59.96Y-61.95
X59.96Y-64.49
X59.96Y-67.03
X62.5Y-51.79
X62.5Y-54.33
X62.5Y-56.87
X62.5Y-59.41
X62.5Y-61.95
X62.5Y-64.49
X62.5Y-67.03
X65.04Y-67.03
X67.58Y-60.136
X70.12Y-54.33
X70.12Y-61.95
X70.12Y-64.49
X72.66Y-54.33
X72.66Y-61.95
X72.66Y-64.49
X72.66Y-67.03
X75.2Y-60.136
X75.2Y-61.95
X75.2Y-64.49
X75.2Y-67.03
X77.74Y-79.73
X77.74Y-82.27
X77.74Y-84.81
X77.74Y-87.35
X77.74Y-89.89
X77.74Y-94.97
X79.74Y-72.72
X80.28Y-60.136
X80.28Y-61.95
X80.28Y-67.03
X80.28Y-69.57
X80.28Y-77.19
X80.28Y-79.73
X80.28Y-82.27
X80.28Y-84.81
X80.28Y-87.35
X80.28Y-89.89
X80.53Y-109.0
X81.2Y-54.2
X81.44Y-97.99
X81.44Y-99.63
X81.44Y-101.27
X81.99Y-59.24
X81.99Y-61.78
X81.99Y-64.32
X82.82Y-67.03
X82.82Y-75.376
X84.78Y-106.126
X84.78Y-107.94
X85.33Y-63.1
X85.36Y-64.49
X85.36Y-72.11
X85.36Y-77.19
X85.36Y-79.73
X85.36Y-82.27
X85.36Y-84.81
X85.36Y-87.35
X85.36Y-89.89
X86.28Y-96.4
X86.97Y-53.74
X87.9Y-64.49
X87.9Y-67.756
X87.9Y-70.296
X87.9Y-72.11
X87.9Y-77.19
X87.9Y-79.73
X87.9Y-82.27
X87.9Y-84.81
X87.9Y-87.35
X87.9Y-89.89
X87.93Y-63.1
X89.04Y-108.92
X89.51Y-53.74
X89.91Y-98.0
X89.91Y-99.44
X89.91Y-101.04
X90.37Y-63.1
X90.44Y-64.49
X90.44Y-67.756
X90.44Y-70.296
X90.44Y-72.11
X90.44Y-77.19
X92.05Y-53.74
X92.98Y-64.49
X92.98Y-67.756
X92.98Y-70.296
X92.98Y-72.11
X92.98Y-82.27
X92.98Y-84.81
X92.98Y-87.35
X92.98Y-89.89
X92.98Y-105.856
X92.98Y-107.67
X93.0Y-63.1
X93.66Y-56.24
X94.56Y-96.27
X94.59Y-53.74
X95.51Y-63.1
X95.52Y-64.49
X95.52Y-67.756
X95.52Y-70.296
X95.52Y-72.11
X95.52Y-79.73
X95.52Y-82.27
X95.52Y-84.81
X95.52Y-87.35
X95.52Y-89.89
X95.58Y-56.29
X97.28Y-108.86
X98.06Y-64.49
X98.06Y-67.756
X98.06Y-70.296
X98.06Y-72.11
X98.06Y-79.73
X98.06Y-82.27
X98.06Y-84.81
X98.06Y-87.35
X98.06Y-89.89
X98.06Y-98.236
X98.06Y-99.738
X98.06Y-101.24
X98.07Y-63.07
X98.78Y-53.72
X100.6Y-64.49
X100.6Y-67.756
X100.6Y-70.296
X100.6Y-72.11
X100.66Y-59.92
X100.66Y-61.97
X100.67Y-57.71
X101.32Y-53.72
X103.14Y-60.136
X103.14Y-61.95
X103.14Y-64.49
X103.14Y-67.756
X103.14Y-70.296
X103.14Y-72.11
X103.14Y-80.456
X103.14Y-82.27
X103.14Y-84.81
X103.14Y-87.35
X103.14Y-89.89
X103.14Y-92.43
X103.14Y-94.97
X103.86Y-53.72
X105.68Y-130.53
X106.4Y-53.72
X108.22Y-59.41
X108.22Y-61.95
X108.22Y-64.49
X108.22Y-67.756
X108.22Y-70.296
X108.22Y-72.11
X108.22Y-80.456
X108.22Y-82.27
X108.22Y-84.81
X108.22Y-87.35
X108.22Y-89.89
X108.22Y-92.43
X108.22Y-94.97
X108.22Y-100.05
X108.22Y-102.59
X108.22Y-105.13
X108.22Y-107.67
X108.22Y-110.21
X108.22Y-112.75
X108.22Y-115.29
X108.22Y-117.83
X108.22Y-120.37
X108.22Y-122.91
X108.22Y-125.45
X108.24Y-57.52
X110.76Y-57.596
X110.76Y-59.41
X110.76Y-61.95
X110.76Y-64.49
X110.76Y-67.756
X110.76Y-70.296
X110.76Y-72.11
X110.76Y-80.456
X110.76Y-82.27
X110.76Y-84.81
X110.76Y-87.35
X110.76Y-89.89
X110.76Y-92.43
X110.76Y-94.97
X110.76Y-100.05
X110.76Y-102.59
X110.76Y-105.13
X110.76Y-107.67
X110.76Y-110.21
X110.76Y-112.75
X110.76Y-115.29
X110.76Y-117.83
X110.76Y-120.37
X110.76Y-122.91
X113.3Y-100.776
X113.3Y-102.59
X113.3Y-105.13
X113.3Y-107.67
X113.3Y-110.21
X113.3Y-112.75
X113.3Y-115.29
X113.3Y-117.83
X113.3Y-120.37
X116.57Y-56.7
X117.73Y-67.62
X117.76Y-65.29
X118.38Y-80.456
X118.38Y-82.27
X118.38Y-84.81
X118.38Y-87.35
X118.38Y-89.89
X118.38Y-92.43
X118.38Y-94.97
X118.38Y-100.776
X118.38Y-102.59
X118.38Y-105.13
X118.38Y-107.67
X118.38Y-110.21
X118.38Y-112.75
X118.38Y-115.29
X118.38Y-117.83
X118.38Y-120.37
X118.38Y-122.91
X118.38Y-125.45
X120.92Y-122.91
X120.92Y-125.45
X122.15Y-87.97
X123.215Y-121.276
X123.46Y-55.056
X125.06Y-66.54
X125.06Y-68.86
X125.49Y-81.12
X126.0Y-74.65
X126.0Y-88.076
X126.0Y-90.616
X126.0Y-93.156
X126.0Y-95.696
X126.0Y-98.236
X126.0Y-100.05
X126.0Y-102.59
X126.0Y-107.67
X126.0Y-112.75
X126.0Y-115.29
X126.0Y-117.83
X126.0Y-120.37
X126.03Y-76.93
X128.54Y-54.33
X128.54Y-56.87
X128.54Y-59.41
X128.54Y-61.95
X128.54Y-67.756
X128.54Y-85.536
X128.54Y-88.076
X128.54Y-90.616
X128.54Y-93.156
X128.54Y-95.696
X128.54Y-105.856
X128.54Y-107.67
X128.54Y-112.75
X128.54Y-115.29
X128.54Y-117.83
X128.54Y-121.096
X128.54Y-123.636
X128.55Y-98.13
X130.0Y-79.25
X131.08Y-54.33
X131.08Y-61.95
X131.08Y-88.076
X131.08Y-90.616
X131.08Y-121.096
X131.08Y-123.636
X131.08Y-125.45
X131.47Y-100.95
X131.493Y-79.25
X132.36Y-126.84
X132.7Y-74.72
X132.7Y-77.26
X133.62Y-54.33
X133.62Y-61.95
X133.66Y-100.97
X134.87Y-110.05
X134.87Y-112.59
X134.87Y-115.13
X134.87Y-120.21
X134.87Y-122.75
X134.87Y-125.29
X134.92Y-107.58
X134.92Y-117.74
X134.97Y-105.12
X134.98Y-100.02
X134.98Y-102.56
X135.08Y-96.77
X135.16Y-94.04
X135.23Y-67.74
X135.24Y-74.72
X135.24Y-77.26
X135.27Y-65.22
X136.16Y-54.33
X136.16Y-85.536
X136.16Y-88.076
X136.16Y-90.616
X137.49Y-68.85
X138.7Y-54.33
X138.7Y-59.41
X138.7Y-61.95
X138.7Y-85.536
X138.7Y-88.076
X138.7Y-95.696
X138.7Y-98.236
X138.7Y-100.05
X138.7Y-102.59
X138.7Y-117.83
X138.7Y-120.37
X138.7Y-122.91
X138.7Y-125.45
X140.47Y-64.98
X140.73Y-68.05
X141.24Y-55.056
X141.24Y-59.41
X141.24Y-61.95
X141.24Y-72.11
X141.24Y-74.65
X141.24Y-77.19
X141.24Y-85.536
X141.24Y-88.076
X141.24Y-93.156
X141.24Y-95.696
X141.24Y-98.236
X141.24Y-100.05
X141.24Y-102.59
X141.24Y-105.13
X141.24Y-107.67
X141.24Y-110.21
X141.24Y-112.75
X141.24Y-115.29
X141.24Y-117.83
X141.24Y-120.37
X141.24Y-122.91
X141.24Y-125.45
X142.77Y-66.56
X143.78Y-51.79
X143.78Y-59.41
X143.78Y-61.95
X143.78Y-67.03
X143.78Y-72.11
X143.78Y-74.65
X143.78Y-77.19
X143.78Y-85.536
X143.78Y-88.076
X143.78Y-93.156
X143.78Y-95.696
X143.78Y-98.236
X143.78Y-100.05
X143.78Y-102.59
X143.78Y-105.13
X143.78Y-107.67
X143.78Y-110.21
X143.78Y-112.75
X143.78Y-115.29
X143.78Y-117.83
X143.78Y-120.37
X143.78Y-122.91
X143.78Y-125.45
X143.78Y-127.99
X143.78Y-130.53
X146.32Y-102.59
X146.32Y-105.13
X146.32Y-107.67
X146.32Y-110.21
X146.32Y-112.75
X146.32Y-115.29
X146.32Y-117.83
X146.32Y-120.37
X146.32Y-122.91
X146.32Y-125.45
X146.32Y-127.99
X146.32Y-130.53
X148.86Y-51.79
X148.86Y-54.33
X148.86Y-56.87
X148.86Y-59.41
X148.86Y-61.95
X148.86Y-64.49
X148.86Y-67.03
X148.86Y-69.57
X148.86Y-72.11
X148.86Y-74.65
X148.86Y-77.19
X148.86Y-79.73
X148.86Y-82.27
X148.86Y-84.81
X148.86Y-87.35
X148.86Y-89.89
X148.86Y-92.43
X148.86Y-94.97
X148.86Y-97.51
X148.86Y-100.05
X148.86Y-102.59
X148.86Y-105.13
X148.86Y-107.67
X148.86Y-110.21
X148.86Y-112.75
X148.86Y-115.29
X148.86Y-117.83
X148.86Y-120.37
X148.86Y-122.91
X148.86Y-125.45
X148.86Y-127.99
X148.86Y-130.53
T2
X136.64Y-63.57
X138.34Y-63.57
T3
X68.14Y-52.31
X69.21Y-52.34
X114.01Y-98.12
T4
X54.03Y-121.82
X61.53Y-124.52
T5
X57.55Y-103.8
X57.55Y-110.8
X65.55Y-103.8
X65.55Y-110.8
T6
X55.0Y-68.12
X60.0Y-97.2
X65.0Y-97.2
X70.0Y-68.12
X77.9Y-69.29
X77.9Y-71.83
X77.9Y-74.37
X77.9Y-76.91
X84.38Y-56.36
X84.38Y-58.9
X84.38Y-61.44
X98.86Y-56.36
X98.86Y-58.9
X98.86Y-61.44
X109.08Y-128.34
X111.62Y-128.34
X114.16Y-128.34
X116.7Y-128.34
X119.24Y-128.34
X119.91Y-110.0
X121.78Y-128.34
X124.32Y-128.34
X126.86Y-128.34
X127.51Y-110.0
X129.4Y-128.34
X131.94Y-128.34
X134.48Y-128.34
X137.02Y-128.34
X139.56Y-128.34
X142.1Y-128.34
T7
X54.05Y-128.2
X59.15Y-129.4
T8
X120.2Y-52.4
X120.2Y-54.94
X120.2Y-57.48
X120.2Y-60.02
X120.2Y-62.56
X120.2Y-65.1
X120.2Y-67.64
X120.2Y-70.18
X120.2Y-72.72
X120.2Y-75.26
X120.2Y-77.8
X120.2Y-80.34
X120.2Y-82.88
X120.2Y-85.42
X120.2Y-87.96
X120.2Y-90.5
X120.2Y-93.04
X120.2Y-95.58
X120.2Y-98.12
X145.6Y-52.4
X145.6Y-54.94
X145.6Y-57.48
X145.6Y-60.02
X145.6Y-62.56
X145.6Y-65.1
X145.6Y-67.64
X145.6Y-70.18
X145.6Y-72.72
X145.6Y-75.26
X145.6Y-77.8
X145.6Y-80.34
X145.6Y-82.88
X145.6Y-85.42
X145.6Y-87.96
X145.6Y-90.5
X145.6Y-93.04
X145.6Y-95.58
X145.6Y-98.12
T9
X54.03Y-116.73
X69.03Y-116.73
X78.047Y-110.812
X78.047Y-122.312
X78.047Y-129.312
X82.748Y-110.812
X86.53Y-110.83
X86.53Y-122.33
X86.53Y-129.33
X91.23Y-110.83
X94.762Y-110.737
X94.762Y-122.237
X94.762Y-129.237
X99.462Y-110.737
T6
X58.46Y-134.8G85X59.96Y-134.8
G05
X67.96Y-134.8G85X69.46Y-134.8
G05
X77.46Y-134.8G85X78.96Y-134.8
G05
X86.96Y-134.8G85X88.46Y-134.8
G05
X96.46Y-134.8G85X97.96Y-134.8
G05
M30
