%TF.GenerationSoftware,KiCad,Pcbnew,9.0.0*%
%TF.CreationDate,2026-04-05T17:31:25+07:00*%
%TF.ProjectId,IoT2526_HK2,496f5432-3532-4365-9f48-4b322e6b6963,rev?*%
%TF.SameCoordinates,Original*%
%TF.FileFunction,Drillmap*%
%TF.FilePolarity,Positive*%
%FSLAX45Y45*%
G04 Gerber Fmt 4.5, Leading zero omitted, Abs format (unit mm)*
G04 Created by KiCad (PCBNEW 9.0.0) date 2026-04-05 17:31:25*
%MOMM*%
%LPD*%
G01*
G04 APERTURE LIST*
%ADD10C,0.200000*%
%ADD11C,0.050000*%
%ADD12C,0.100000*%
%ADD13C,0.130000*%
%ADD14C,0.320000*%
G04 APERTURE END LIST*
D10*
X5058000Y-5000000D02*
X15000000Y-5000000D01*
X15000000Y-14925000D01*
X5058000Y-14925000D01*
X5058000Y-5000000D01*
D11*
X10252000Y-13022000D02*
G75*
G02*
X10202000Y-12972000I0J50000D01*
G01*
X7440355Y-9186355D02*
G75*
G02*
X7490355Y-9136355I50005J-5D01*
G01*
X7748000Y-11496000D02*
X9995000Y-11496000D01*
X10252000Y-11101000D02*
G75*
G02*
X10302000Y-11151000I0J-50000D01*
G01*
X7748000Y-11601000D02*
G75*
G02*
X7698000Y-11551000I0J50000D01*
G01*
X7490355Y-9136355D02*
G75*
G02*
X7540365Y-9186355I5J-50005D01*
G01*
X7440355Y-11007355D02*
X7440355Y-9186355D01*
X7698000Y-11546000D02*
G75*
G02*
X7748000Y-11496000I50000J0D01*
G01*
X10302000Y-12972000D02*
G75*
G02*
X10252000Y-13022000I-50000J0D01*
G01*
X9995000Y-11496000D02*
G75*
G02*
X10045000Y-11546000I0J-50000D01*
G01*
X7490355Y-11057355D02*
G75*
G02*
X7440365Y-11007355I5J49995D01*
G01*
X7540355Y-9186355D02*
X7540355Y-11007355D01*
X10045000Y-11551000D02*
G75*
G02*
X9995000Y-11601000I-50000J0D01*
G01*
X7698000Y-11551000D02*
X7698000Y-11546000D01*
X9995000Y-11601000D02*
X7748000Y-11601000D01*
X10202000Y-11151000D02*
G75*
G02*
X10252000Y-11101000I50000J0D01*
G01*
X10045000Y-11546000D02*
X10045000Y-11551000D01*
X10202000Y-12972000D02*
X10202000Y-11151000D01*
X7540355Y-11007355D02*
G75*
G02*
X7490355Y-11057355I-49995J-5D01*
G01*
X10302000Y-11151000D02*
X10302000Y-12972000D01*
D10*
D12*
X13025000Y-9360710D02*
X13125000Y-9460710D01*
X13125000Y-9360710D02*
X13025000Y-9460710D01*
D13*
X13140000Y-8661410D02*
G75*
G02*
X13010000Y-8661410I-65000J0D01*
G01*
X13010000Y-8661410D02*
G75*
G02*
X13140000Y-8661410I65000J0D01*
G01*
D14*
X5400000Y-5240000D02*
X5400000Y-5560000D01*
X5240000Y-5400000D02*
X5560000Y-5400000D01*
X13200000Y-5640000D02*
X13200000Y-5960000D01*
X13040000Y-5800000D02*
X13360000Y-5800000D01*
X14500000Y-14340000D02*
X14500000Y-14660000D01*
X14340000Y-14500000D02*
X14660000Y-14500000D01*
D10*
X5308777Y-15246484D02*
X5308777Y-15046484D01*
X5308777Y-15046484D02*
X5356396Y-15046484D01*
X5356396Y-15046484D02*
X5384967Y-15056008D01*
X5384967Y-15056008D02*
X5404015Y-15075055D01*
X5404015Y-15075055D02*
X5413539Y-15094103D01*
X5413539Y-15094103D02*
X5423063Y-15132198D01*
X5423063Y-15132198D02*
X5423063Y-15160769D01*
X5423063Y-15160769D02*
X5413539Y-15198865D01*
X5413539Y-15198865D02*
X5404015Y-15217912D01*
X5404015Y-15217912D02*
X5384967Y-15236960D01*
X5384967Y-15236960D02*
X5356396Y-15246484D01*
X5356396Y-15246484D02*
X5308777Y-15246484D01*
X5508777Y-15246484D02*
X5508777Y-15113150D01*
X5508777Y-15151246D02*
X5518301Y-15132198D01*
X5518301Y-15132198D02*
X5527824Y-15122674D01*
X5527824Y-15122674D02*
X5546872Y-15113150D01*
X5546872Y-15113150D02*
X5565920Y-15113150D01*
X5632586Y-15246484D02*
X5632586Y-15113150D01*
X5632586Y-15046484D02*
X5623062Y-15056008D01*
X5623062Y-15056008D02*
X5632586Y-15065531D01*
X5632586Y-15065531D02*
X5642110Y-15056008D01*
X5642110Y-15056008D02*
X5632586Y-15046484D01*
X5632586Y-15046484D02*
X5632586Y-15065531D01*
X5756396Y-15246484D02*
X5737348Y-15236960D01*
X5737348Y-15236960D02*
X5727824Y-15217912D01*
X5727824Y-15217912D02*
X5727824Y-15046484D01*
X5861158Y-15246484D02*
X5842110Y-15236960D01*
X5842110Y-15236960D02*
X5832586Y-15217912D01*
X5832586Y-15217912D02*
X5832586Y-15046484D01*
X6089729Y-15246484D02*
X6089729Y-15046484D01*
X6089729Y-15046484D02*
X6156396Y-15189341D01*
X6156396Y-15189341D02*
X6223062Y-15046484D01*
X6223062Y-15046484D02*
X6223062Y-15246484D01*
X6404015Y-15246484D02*
X6404015Y-15141722D01*
X6404015Y-15141722D02*
X6394491Y-15122674D01*
X6394491Y-15122674D02*
X6375443Y-15113150D01*
X6375443Y-15113150D02*
X6337348Y-15113150D01*
X6337348Y-15113150D02*
X6318301Y-15122674D01*
X6404015Y-15236960D02*
X6384967Y-15246484D01*
X6384967Y-15246484D02*
X6337348Y-15246484D01*
X6337348Y-15246484D02*
X6318301Y-15236960D01*
X6318301Y-15236960D02*
X6308777Y-15217912D01*
X6308777Y-15217912D02*
X6308777Y-15198865D01*
X6308777Y-15198865D02*
X6318301Y-15179817D01*
X6318301Y-15179817D02*
X6337348Y-15170293D01*
X6337348Y-15170293D02*
X6384967Y-15170293D01*
X6384967Y-15170293D02*
X6404015Y-15160769D01*
X6499253Y-15113150D02*
X6499253Y-15313150D01*
X6499253Y-15122674D02*
X6518301Y-15113150D01*
X6518301Y-15113150D02*
X6556396Y-15113150D01*
X6556396Y-15113150D02*
X6575443Y-15122674D01*
X6575443Y-15122674D02*
X6584967Y-15132198D01*
X6584967Y-15132198D02*
X6594491Y-15151246D01*
X6594491Y-15151246D02*
X6594491Y-15208388D01*
X6594491Y-15208388D02*
X6584967Y-15227436D01*
X6584967Y-15227436D02*
X6575443Y-15236960D01*
X6575443Y-15236960D02*
X6556396Y-15246484D01*
X6556396Y-15246484D02*
X6518301Y-15246484D01*
X6518301Y-15246484D02*
X6499253Y-15236960D01*
X6680205Y-15227436D02*
X6689729Y-15236960D01*
X6689729Y-15236960D02*
X6680205Y-15246484D01*
X6680205Y-15246484D02*
X6670682Y-15236960D01*
X6670682Y-15236960D02*
X6680205Y-15227436D01*
X6680205Y-15227436D02*
X6680205Y-15246484D01*
X6680205Y-15122674D02*
X6689729Y-15132198D01*
X6689729Y-15132198D02*
X6680205Y-15141722D01*
X6680205Y-15141722D02*
X6670682Y-15132198D01*
X6670682Y-15132198D02*
X6680205Y-15122674D01*
X6680205Y-15122674D02*
X6680205Y-15141722D01*
D12*
X4948000Y-15525000D02*
X5048000Y-15625000D01*
X5048000Y-15525000D02*
X4948000Y-15625000D01*
D10*
X5413539Y-15666484D02*
X5299253Y-15666484D01*
X5356396Y-15666484D02*
X5356396Y-15466484D01*
X5356396Y-15466484D02*
X5337348Y-15495055D01*
X5337348Y-15495055D02*
X5318301Y-15514103D01*
X5318301Y-15514103D02*
X5299253Y-15523627D01*
X5499253Y-15647436D02*
X5508777Y-15656960D01*
X5508777Y-15656960D02*
X5499253Y-15666484D01*
X5499253Y-15666484D02*
X5489729Y-15656960D01*
X5489729Y-15656960D02*
X5499253Y-15647436D01*
X5499253Y-15647436D02*
X5499253Y-15666484D01*
X5632586Y-15466484D02*
X5651634Y-15466484D01*
X5651634Y-15466484D02*
X5670682Y-15476008D01*
X5670682Y-15476008D02*
X5680205Y-15485531D01*
X5680205Y-15485531D02*
X5689729Y-15504579D01*
X5689729Y-15504579D02*
X5699253Y-15542674D01*
X5699253Y-15542674D02*
X5699253Y-15590293D01*
X5699253Y-15590293D02*
X5689729Y-15628388D01*
X5689729Y-15628388D02*
X5680205Y-15647436D01*
X5680205Y-15647436D02*
X5670682Y-15656960D01*
X5670682Y-15656960D02*
X5651634Y-15666484D01*
X5651634Y-15666484D02*
X5632586Y-15666484D01*
X5632586Y-15666484D02*
X5613539Y-15656960D01*
X5613539Y-15656960D02*
X5604015Y-15647436D01*
X5604015Y-15647436D02*
X5594491Y-15628388D01*
X5594491Y-15628388D02*
X5584967Y-15590293D01*
X5584967Y-15590293D02*
X5584967Y-15542674D01*
X5584967Y-15542674D02*
X5594491Y-15504579D01*
X5594491Y-15504579D02*
X5604015Y-15485531D01*
X5604015Y-15485531D02*
X5613539Y-15476008D01*
X5613539Y-15476008D02*
X5632586Y-15466484D01*
X5823062Y-15466484D02*
X5842110Y-15466484D01*
X5842110Y-15466484D02*
X5861158Y-15476008D01*
X5861158Y-15476008D02*
X5870682Y-15485531D01*
X5870682Y-15485531D02*
X5880205Y-15504579D01*
X5880205Y-15504579D02*
X5889729Y-15542674D01*
X5889729Y-15542674D02*
X5889729Y-15590293D01*
X5889729Y-15590293D02*
X5880205Y-15628388D01*
X5880205Y-15628388D02*
X5870682Y-15647436D01*
X5870682Y-15647436D02*
X5861158Y-15656960D01*
X5861158Y-15656960D02*
X5842110Y-15666484D01*
X5842110Y-15666484D02*
X5823062Y-15666484D01*
X5823062Y-15666484D02*
X5804015Y-15656960D01*
X5804015Y-15656960D02*
X5794491Y-15647436D01*
X5794491Y-15647436D02*
X5784967Y-15628388D01*
X5784967Y-15628388D02*
X5775443Y-15590293D01*
X5775443Y-15590293D02*
X5775443Y-15542674D01*
X5775443Y-15542674D02*
X5784967Y-15504579D01*
X5784967Y-15504579D02*
X5794491Y-15485531D01*
X5794491Y-15485531D02*
X5804015Y-15476008D01*
X5804015Y-15476008D02*
X5823062Y-15466484D01*
X6013539Y-15466484D02*
X6032586Y-15466484D01*
X6032586Y-15466484D02*
X6051634Y-15476008D01*
X6051634Y-15476008D02*
X6061158Y-15485531D01*
X6061158Y-15485531D02*
X6070682Y-15504579D01*
X6070682Y-15504579D02*
X6080205Y-15542674D01*
X6080205Y-15542674D02*
X6080205Y-15590293D01*
X6080205Y-15590293D02*
X6070682Y-15628388D01*
X6070682Y-15628388D02*
X6061158Y-15647436D01*
X6061158Y-15647436D02*
X6051634Y-15656960D01*
X6051634Y-15656960D02*
X6032586Y-15666484D01*
X6032586Y-15666484D02*
X6013539Y-15666484D01*
X6013539Y-15666484D02*
X5994491Y-15656960D01*
X5994491Y-15656960D02*
X5984967Y-15647436D01*
X5984967Y-15647436D02*
X5975443Y-15628388D01*
X5975443Y-15628388D02*
X5965920Y-15590293D01*
X5965920Y-15590293D02*
X5965920Y-15542674D01*
X5965920Y-15542674D02*
X5975443Y-15504579D01*
X5975443Y-15504579D02*
X5984967Y-15485531D01*
X5984967Y-15485531D02*
X5994491Y-15476008D01*
X5994491Y-15476008D02*
X6013539Y-15466484D01*
X6165920Y-15666484D02*
X6165920Y-15533150D01*
X6165920Y-15552198D02*
X6175443Y-15542674D01*
X6175443Y-15542674D02*
X6194491Y-15533150D01*
X6194491Y-15533150D02*
X6223063Y-15533150D01*
X6223063Y-15533150D02*
X6242110Y-15542674D01*
X6242110Y-15542674D02*
X6251634Y-15561722D01*
X6251634Y-15561722D02*
X6251634Y-15666484D01*
X6251634Y-15561722D02*
X6261158Y-15542674D01*
X6261158Y-15542674D02*
X6280205Y-15533150D01*
X6280205Y-15533150D02*
X6308777Y-15533150D01*
X6308777Y-15533150D02*
X6327824Y-15542674D01*
X6327824Y-15542674D02*
X6337348Y-15561722D01*
X6337348Y-15561722D02*
X6337348Y-15666484D01*
X6432586Y-15666484D02*
X6432586Y-15533150D01*
X6432586Y-15552198D02*
X6442110Y-15542674D01*
X6442110Y-15542674D02*
X6461158Y-15533150D01*
X6461158Y-15533150D02*
X6489729Y-15533150D01*
X6489729Y-15533150D02*
X6508777Y-15542674D01*
X6508777Y-15542674D02*
X6518301Y-15561722D01*
X6518301Y-15561722D02*
X6518301Y-15666484D01*
X6518301Y-15561722D02*
X6527824Y-15542674D01*
X6527824Y-15542674D02*
X6546872Y-15533150D01*
X6546872Y-15533150D02*
X6575443Y-15533150D01*
X6575443Y-15533150D02*
X6594491Y-15542674D01*
X6594491Y-15542674D02*
X6604015Y-15561722D01*
X6604015Y-15561722D02*
X6604015Y-15666484D01*
X6994491Y-15456960D02*
X6823063Y-15714103D01*
X7251634Y-15466484D02*
X7270682Y-15466484D01*
X7270682Y-15466484D02*
X7289729Y-15476008D01*
X7289729Y-15476008D02*
X7299253Y-15485531D01*
X7299253Y-15485531D02*
X7308777Y-15504579D01*
X7308777Y-15504579D02*
X7318301Y-15542674D01*
X7318301Y-15542674D02*
X7318301Y-15590293D01*
X7318301Y-15590293D02*
X7308777Y-15628388D01*
X7308777Y-15628388D02*
X7299253Y-15647436D01*
X7299253Y-15647436D02*
X7289729Y-15656960D01*
X7289729Y-15656960D02*
X7270682Y-15666484D01*
X7270682Y-15666484D02*
X7251634Y-15666484D01*
X7251634Y-15666484D02*
X7232586Y-15656960D01*
X7232586Y-15656960D02*
X7223063Y-15647436D01*
X7223063Y-15647436D02*
X7213539Y-15628388D01*
X7213539Y-15628388D02*
X7204015Y-15590293D01*
X7204015Y-15590293D02*
X7204015Y-15542674D01*
X7204015Y-15542674D02*
X7213539Y-15504579D01*
X7213539Y-15504579D02*
X7223063Y-15485531D01*
X7223063Y-15485531D02*
X7232586Y-15476008D01*
X7232586Y-15476008D02*
X7251634Y-15466484D01*
X7404015Y-15647436D02*
X7413539Y-15656960D01*
X7413539Y-15656960D02*
X7404015Y-15666484D01*
X7404015Y-15666484D02*
X7394491Y-15656960D01*
X7394491Y-15656960D02*
X7404015Y-15647436D01*
X7404015Y-15647436D02*
X7404015Y-15666484D01*
X7537348Y-15466484D02*
X7556396Y-15466484D01*
X7556396Y-15466484D02*
X7575444Y-15476008D01*
X7575444Y-15476008D02*
X7584967Y-15485531D01*
X7584967Y-15485531D02*
X7594491Y-15504579D01*
X7594491Y-15504579D02*
X7604015Y-15542674D01*
X7604015Y-15542674D02*
X7604015Y-15590293D01*
X7604015Y-15590293D02*
X7594491Y-15628388D01*
X7594491Y-15628388D02*
X7584967Y-15647436D01*
X7584967Y-15647436D02*
X7575444Y-15656960D01*
X7575444Y-15656960D02*
X7556396Y-15666484D01*
X7556396Y-15666484D02*
X7537348Y-15666484D01*
X7537348Y-15666484D02*
X7518301Y-15656960D01*
X7518301Y-15656960D02*
X7508777Y-15647436D01*
X7508777Y-15647436D02*
X7499253Y-15628388D01*
X7499253Y-15628388D02*
X7489729Y-15590293D01*
X7489729Y-15590293D02*
X7489729Y-15542674D01*
X7489729Y-15542674D02*
X7499253Y-15504579D01*
X7499253Y-15504579D02*
X7508777Y-15485531D01*
X7508777Y-15485531D02*
X7518301Y-15476008D01*
X7518301Y-15476008D02*
X7537348Y-15466484D01*
X7670682Y-15466484D02*
X7794491Y-15466484D01*
X7794491Y-15466484D02*
X7727825Y-15542674D01*
X7727825Y-15542674D02*
X7756396Y-15542674D01*
X7756396Y-15542674D02*
X7775444Y-15552198D01*
X7775444Y-15552198D02*
X7784967Y-15561722D01*
X7784967Y-15561722D02*
X7794491Y-15580769D01*
X7794491Y-15580769D02*
X7794491Y-15628388D01*
X7794491Y-15628388D02*
X7784967Y-15647436D01*
X7784967Y-15647436D02*
X7775444Y-15656960D01*
X7775444Y-15656960D02*
X7756396Y-15666484D01*
X7756396Y-15666484D02*
X7699253Y-15666484D01*
X7699253Y-15666484D02*
X7680206Y-15656960D01*
X7680206Y-15656960D02*
X7670682Y-15647436D01*
X7889729Y-15666484D02*
X7927825Y-15666484D01*
X7927825Y-15666484D02*
X7946872Y-15656960D01*
X7946872Y-15656960D02*
X7956396Y-15647436D01*
X7956396Y-15647436D02*
X7975444Y-15618865D01*
X7975444Y-15618865D02*
X7984967Y-15580769D01*
X7984967Y-15580769D02*
X7984967Y-15504579D01*
X7984967Y-15504579D02*
X7975444Y-15485531D01*
X7975444Y-15485531D02*
X7965920Y-15476008D01*
X7965920Y-15476008D02*
X7946872Y-15466484D01*
X7946872Y-15466484D02*
X7908777Y-15466484D01*
X7908777Y-15466484D02*
X7889729Y-15476008D01*
X7889729Y-15476008D02*
X7880206Y-15485531D01*
X7880206Y-15485531D02*
X7870682Y-15504579D01*
X7870682Y-15504579D02*
X7870682Y-15552198D01*
X7870682Y-15552198D02*
X7880206Y-15571246D01*
X7880206Y-15571246D02*
X7889729Y-15580769D01*
X7889729Y-15580769D02*
X7908777Y-15590293D01*
X7908777Y-15590293D02*
X7946872Y-15590293D01*
X7946872Y-15590293D02*
X7965920Y-15580769D01*
X7965920Y-15580769D02*
X7975444Y-15571246D01*
X7975444Y-15571246D02*
X7984967Y-15552198D01*
X8156396Y-15533150D02*
X8156396Y-15666484D01*
X8108777Y-15456960D02*
X8061158Y-15599817D01*
X8061158Y-15599817D02*
X8184967Y-15599817D01*
X8251634Y-15466484D02*
X8251634Y-15504579D01*
X8327825Y-15466484D02*
X8327825Y-15504579D01*
X8623063Y-15742674D02*
X8613539Y-15733150D01*
X8613539Y-15733150D02*
X8594491Y-15704579D01*
X8594491Y-15704579D02*
X8584968Y-15685531D01*
X8584968Y-15685531D02*
X8575444Y-15656960D01*
X8575444Y-15656960D02*
X8565920Y-15609341D01*
X8565920Y-15609341D02*
X8565920Y-15571246D01*
X8565920Y-15571246D02*
X8575444Y-15523627D01*
X8575444Y-15523627D02*
X8584968Y-15495055D01*
X8584968Y-15495055D02*
X8594491Y-15476008D01*
X8594491Y-15476008D02*
X8613539Y-15447436D01*
X8613539Y-15447436D02*
X8623063Y-15437912D01*
X8804015Y-15666484D02*
X8689730Y-15666484D01*
X8746872Y-15666484D02*
X8746872Y-15466484D01*
X8746872Y-15466484D02*
X8727825Y-15495055D01*
X8727825Y-15495055D02*
X8708777Y-15514103D01*
X8708777Y-15514103D02*
X8689730Y-15523627D01*
X9042111Y-15666484D02*
X9042111Y-15466484D01*
X9127825Y-15666484D02*
X9127825Y-15561722D01*
X9127825Y-15561722D02*
X9118301Y-15542674D01*
X9118301Y-15542674D02*
X9099253Y-15533150D01*
X9099253Y-15533150D02*
X9070682Y-15533150D01*
X9070682Y-15533150D02*
X9051634Y-15542674D01*
X9051634Y-15542674D02*
X9042111Y-15552198D01*
X9251634Y-15666484D02*
X9232587Y-15656960D01*
X9232587Y-15656960D02*
X9223063Y-15647436D01*
X9223063Y-15647436D02*
X9213539Y-15628388D01*
X9213539Y-15628388D02*
X9213539Y-15571246D01*
X9213539Y-15571246D02*
X9223063Y-15552198D01*
X9223063Y-15552198D02*
X9232587Y-15542674D01*
X9232587Y-15542674D02*
X9251634Y-15533150D01*
X9251634Y-15533150D02*
X9280206Y-15533150D01*
X9280206Y-15533150D02*
X9299253Y-15542674D01*
X9299253Y-15542674D02*
X9308777Y-15552198D01*
X9308777Y-15552198D02*
X9318301Y-15571246D01*
X9318301Y-15571246D02*
X9318301Y-15628388D01*
X9318301Y-15628388D02*
X9308777Y-15647436D01*
X9308777Y-15647436D02*
X9299253Y-15656960D01*
X9299253Y-15656960D02*
X9280206Y-15666484D01*
X9280206Y-15666484D02*
X9251634Y-15666484D01*
X9432587Y-15666484D02*
X9413539Y-15656960D01*
X9413539Y-15656960D02*
X9404015Y-15637912D01*
X9404015Y-15637912D02*
X9404015Y-15466484D01*
X9584968Y-15656960D02*
X9565920Y-15666484D01*
X9565920Y-15666484D02*
X9527825Y-15666484D01*
X9527825Y-15666484D02*
X9508777Y-15656960D01*
X9508777Y-15656960D02*
X9499253Y-15637912D01*
X9499253Y-15637912D02*
X9499253Y-15561722D01*
X9499253Y-15561722D02*
X9508777Y-15542674D01*
X9508777Y-15542674D02*
X9527825Y-15533150D01*
X9527825Y-15533150D02*
X9565920Y-15533150D01*
X9565920Y-15533150D02*
X9584968Y-15542674D01*
X9584968Y-15542674D02*
X9594492Y-15561722D01*
X9594492Y-15561722D02*
X9594492Y-15580769D01*
X9594492Y-15580769D02*
X9499253Y-15599817D01*
X9661158Y-15742674D02*
X9670682Y-15733150D01*
X9670682Y-15733150D02*
X9689730Y-15704579D01*
X9689730Y-15704579D02*
X9699253Y-15685531D01*
X9699253Y-15685531D02*
X9708777Y-15656960D01*
X9708777Y-15656960D02*
X9718301Y-15609341D01*
X9718301Y-15609341D02*
X9718301Y-15571246D01*
X9718301Y-15571246D02*
X9708777Y-15523627D01*
X9708777Y-15523627D02*
X9699253Y-15495055D01*
X9699253Y-15495055D02*
X9689730Y-15476008D01*
X9689730Y-15476008D02*
X9670682Y-15447436D01*
X9670682Y-15447436D02*
X9661158Y-15437912D01*
X10023063Y-15742674D02*
X10013539Y-15733150D01*
X10013539Y-15733150D02*
X9994492Y-15704579D01*
X9994492Y-15704579D02*
X9984968Y-15685531D01*
X9984968Y-15685531D02*
X9975444Y-15656960D01*
X9975444Y-15656960D02*
X9965920Y-15609341D01*
X9965920Y-15609341D02*
X9965920Y-15571246D01*
X9965920Y-15571246D02*
X9975444Y-15523627D01*
X9975444Y-15523627D02*
X9984968Y-15495055D01*
X9984968Y-15495055D02*
X9994492Y-15476008D01*
X9994492Y-15476008D02*
X10013539Y-15447436D01*
X10013539Y-15447436D02*
X10023063Y-15437912D01*
X10099253Y-15533150D02*
X10099253Y-15666484D01*
X10099253Y-15552198D02*
X10108777Y-15542674D01*
X10108777Y-15542674D02*
X10127825Y-15533150D01*
X10127825Y-15533150D02*
X10156396Y-15533150D01*
X10156396Y-15533150D02*
X10175444Y-15542674D01*
X10175444Y-15542674D02*
X10184968Y-15561722D01*
X10184968Y-15561722D02*
X10184968Y-15666484D01*
X10308777Y-15666484D02*
X10289730Y-15656960D01*
X10289730Y-15656960D02*
X10280206Y-15647436D01*
X10280206Y-15647436D02*
X10270682Y-15628388D01*
X10270682Y-15628388D02*
X10270682Y-15571246D01*
X10270682Y-15571246D02*
X10280206Y-15552198D01*
X10280206Y-15552198D02*
X10289730Y-15542674D01*
X10289730Y-15542674D02*
X10308777Y-15533150D01*
X10308777Y-15533150D02*
X10337349Y-15533150D01*
X10337349Y-15533150D02*
X10356396Y-15542674D01*
X10356396Y-15542674D02*
X10365920Y-15552198D01*
X10365920Y-15552198D02*
X10375444Y-15571246D01*
X10375444Y-15571246D02*
X10375444Y-15628388D01*
X10375444Y-15628388D02*
X10365920Y-15647436D01*
X10365920Y-15647436D02*
X10356396Y-15656960D01*
X10356396Y-15656960D02*
X10337349Y-15666484D01*
X10337349Y-15666484D02*
X10308777Y-15666484D01*
X10432587Y-15533150D02*
X10508777Y-15533150D01*
X10461158Y-15466484D02*
X10461158Y-15637912D01*
X10461158Y-15637912D02*
X10470682Y-15656960D01*
X10470682Y-15656960D02*
X10489730Y-15666484D01*
X10489730Y-15666484D02*
X10508777Y-15666484D01*
X10727825Y-15533150D02*
X10727825Y-15733150D01*
X10727825Y-15542674D02*
X10746873Y-15533150D01*
X10746873Y-15533150D02*
X10784968Y-15533150D01*
X10784968Y-15533150D02*
X10804015Y-15542674D01*
X10804015Y-15542674D02*
X10813539Y-15552198D01*
X10813539Y-15552198D02*
X10823063Y-15571246D01*
X10823063Y-15571246D02*
X10823063Y-15628388D01*
X10823063Y-15628388D02*
X10813539Y-15647436D01*
X10813539Y-15647436D02*
X10804015Y-15656960D01*
X10804015Y-15656960D02*
X10784968Y-15666484D01*
X10784968Y-15666484D02*
X10746873Y-15666484D01*
X10746873Y-15666484D02*
X10727825Y-15656960D01*
X10937349Y-15666484D02*
X10918301Y-15656960D01*
X10918301Y-15656960D02*
X10908777Y-15637912D01*
X10908777Y-15637912D02*
X10908777Y-15466484D01*
X11099254Y-15666484D02*
X11099254Y-15561722D01*
X11099254Y-15561722D02*
X11089730Y-15542674D01*
X11089730Y-15542674D02*
X11070682Y-15533150D01*
X11070682Y-15533150D02*
X11032587Y-15533150D01*
X11032587Y-15533150D02*
X11013539Y-15542674D01*
X11099254Y-15656960D02*
X11080206Y-15666484D01*
X11080206Y-15666484D02*
X11032587Y-15666484D01*
X11032587Y-15666484D02*
X11013539Y-15656960D01*
X11013539Y-15656960D02*
X11004015Y-15637912D01*
X11004015Y-15637912D02*
X11004015Y-15618865D01*
X11004015Y-15618865D02*
X11013539Y-15599817D01*
X11013539Y-15599817D02*
X11032587Y-15590293D01*
X11032587Y-15590293D02*
X11080206Y-15590293D01*
X11080206Y-15590293D02*
X11099254Y-15580769D01*
X11165920Y-15533150D02*
X11242111Y-15533150D01*
X11194492Y-15466484D02*
X11194492Y-15637912D01*
X11194492Y-15637912D02*
X11204015Y-15656960D01*
X11204015Y-15656960D02*
X11223063Y-15666484D01*
X11223063Y-15666484D02*
X11242111Y-15666484D01*
X11384968Y-15656960D02*
X11365920Y-15666484D01*
X11365920Y-15666484D02*
X11327825Y-15666484D01*
X11327825Y-15666484D02*
X11308777Y-15656960D01*
X11308777Y-15656960D02*
X11299253Y-15637912D01*
X11299253Y-15637912D02*
X11299253Y-15561722D01*
X11299253Y-15561722D02*
X11308777Y-15542674D01*
X11308777Y-15542674D02*
X11327825Y-15533150D01*
X11327825Y-15533150D02*
X11365920Y-15533150D01*
X11365920Y-15533150D02*
X11384968Y-15542674D01*
X11384968Y-15542674D02*
X11394492Y-15561722D01*
X11394492Y-15561722D02*
X11394492Y-15580769D01*
X11394492Y-15580769D02*
X11299253Y-15599817D01*
X11565920Y-15666484D02*
X11565920Y-15466484D01*
X11565920Y-15656960D02*
X11546873Y-15666484D01*
X11546873Y-15666484D02*
X11508777Y-15666484D01*
X11508777Y-15666484D02*
X11489730Y-15656960D01*
X11489730Y-15656960D02*
X11480206Y-15647436D01*
X11480206Y-15647436D02*
X11470682Y-15628388D01*
X11470682Y-15628388D02*
X11470682Y-15571246D01*
X11470682Y-15571246D02*
X11480206Y-15552198D01*
X11480206Y-15552198D02*
X11489730Y-15542674D01*
X11489730Y-15542674D02*
X11508777Y-15533150D01*
X11508777Y-15533150D02*
X11546873Y-15533150D01*
X11546873Y-15533150D02*
X11565920Y-15542674D01*
X11642111Y-15742674D02*
X11651634Y-15733150D01*
X11651634Y-15733150D02*
X11670682Y-15704579D01*
X11670682Y-15704579D02*
X11680206Y-15685531D01*
X11680206Y-15685531D02*
X11689730Y-15656960D01*
X11689730Y-15656960D02*
X11699253Y-15609341D01*
X11699253Y-15609341D02*
X11699253Y-15571246D01*
X11699253Y-15571246D02*
X11689730Y-15523627D01*
X11689730Y-15523627D02*
X11680206Y-15495055D01*
X11680206Y-15495055D02*
X11670682Y-15476008D01*
X11670682Y-15476008D02*
X11651634Y-15447436D01*
X11651634Y-15447436D02*
X11642111Y-15437912D01*
D13*
X5048000Y-15839000D02*
G75*
G02*
X4918000Y-15839000I-65000J0D01*
G01*
X4918000Y-15839000D02*
G75*
G02*
X5048000Y-15839000I65000J0D01*
G01*
D10*
X5413539Y-15930484D02*
X5299253Y-15930484D01*
X5356396Y-15930484D02*
X5356396Y-15730484D01*
X5356396Y-15730484D02*
X5337348Y-15759055D01*
X5337348Y-15759055D02*
X5318301Y-15778103D01*
X5318301Y-15778103D02*
X5299253Y-15787627D01*
X5499253Y-15911436D02*
X5508777Y-15920960D01*
X5508777Y-15920960D02*
X5499253Y-15930484D01*
X5499253Y-15930484D02*
X5489729Y-15920960D01*
X5489729Y-15920960D02*
X5499253Y-15911436D01*
X5499253Y-15911436D02*
X5499253Y-15930484D01*
X5575444Y-15730484D02*
X5699253Y-15730484D01*
X5699253Y-15730484D02*
X5632586Y-15806674D01*
X5632586Y-15806674D02*
X5661158Y-15806674D01*
X5661158Y-15806674D02*
X5680205Y-15816198D01*
X5680205Y-15816198D02*
X5689729Y-15825722D01*
X5689729Y-15825722D02*
X5699253Y-15844769D01*
X5699253Y-15844769D02*
X5699253Y-15892388D01*
X5699253Y-15892388D02*
X5689729Y-15911436D01*
X5689729Y-15911436D02*
X5680205Y-15920960D01*
X5680205Y-15920960D02*
X5661158Y-15930484D01*
X5661158Y-15930484D02*
X5604015Y-15930484D01*
X5604015Y-15930484D02*
X5584967Y-15920960D01*
X5584967Y-15920960D02*
X5575444Y-15911436D01*
X5823062Y-15730484D02*
X5842110Y-15730484D01*
X5842110Y-15730484D02*
X5861158Y-15740008D01*
X5861158Y-15740008D02*
X5870682Y-15749531D01*
X5870682Y-15749531D02*
X5880205Y-15768579D01*
X5880205Y-15768579D02*
X5889729Y-15806674D01*
X5889729Y-15806674D02*
X5889729Y-15854293D01*
X5889729Y-15854293D02*
X5880205Y-15892388D01*
X5880205Y-15892388D02*
X5870682Y-15911436D01*
X5870682Y-15911436D02*
X5861158Y-15920960D01*
X5861158Y-15920960D02*
X5842110Y-15930484D01*
X5842110Y-15930484D02*
X5823062Y-15930484D01*
X5823062Y-15930484D02*
X5804015Y-15920960D01*
X5804015Y-15920960D02*
X5794491Y-15911436D01*
X5794491Y-15911436D02*
X5784967Y-15892388D01*
X5784967Y-15892388D02*
X5775443Y-15854293D01*
X5775443Y-15854293D02*
X5775443Y-15806674D01*
X5775443Y-15806674D02*
X5784967Y-15768579D01*
X5784967Y-15768579D02*
X5794491Y-15749531D01*
X5794491Y-15749531D02*
X5804015Y-15740008D01*
X5804015Y-15740008D02*
X5823062Y-15730484D01*
X6013539Y-15730484D02*
X6032586Y-15730484D01*
X6032586Y-15730484D02*
X6051634Y-15740008D01*
X6051634Y-15740008D02*
X6061158Y-15749531D01*
X6061158Y-15749531D02*
X6070682Y-15768579D01*
X6070682Y-15768579D02*
X6080205Y-15806674D01*
X6080205Y-15806674D02*
X6080205Y-15854293D01*
X6080205Y-15854293D02*
X6070682Y-15892388D01*
X6070682Y-15892388D02*
X6061158Y-15911436D01*
X6061158Y-15911436D02*
X6051634Y-15920960D01*
X6051634Y-15920960D02*
X6032586Y-15930484D01*
X6032586Y-15930484D02*
X6013539Y-15930484D01*
X6013539Y-15930484D02*
X5994491Y-15920960D01*
X5994491Y-15920960D02*
X5984967Y-15911436D01*
X5984967Y-15911436D02*
X5975443Y-15892388D01*
X5975443Y-15892388D02*
X5965920Y-15854293D01*
X5965920Y-15854293D02*
X5965920Y-15806674D01*
X5965920Y-15806674D02*
X5975443Y-15768579D01*
X5975443Y-15768579D02*
X5984967Y-15749531D01*
X5984967Y-15749531D02*
X5994491Y-15740008D01*
X5994491Y-15740008D02*
X6013539Y-15730484D01*
X6165920Y-15930484D02*
X6165920Y-15797150D01*
X6165920Y-15816198D02*
X6175443Y-15806674D01*
X6175443Y-15806674D02*
X6194491Y-15797150D01*
X6194491Y-15797150D02*
X6223063Y-15797150D01*
X6223063Y-15797150D02*
X6242110Y-15806674D01*
X6242110Y-15806674D02*
X6251634Y-15825722D01*
X6251634Y-15825722D02*
X6251634Y-15930484D01*
X6251634Y-15825722D02*
X6261158Y-15806674D01*
X6261158Y-15806674D02*
X6280205Y-15797150D01*
X6280205Y-15797150D02*
X6308777Y-15797150D01*
X6308777Y-15797150D02*
X6327824Y-15806674D01*
X6327824Y-15806674D02*
X6337348Y-15825722D01*
X6337348Y-15825722D02*
X6337348Y-15930484D01*
X6432586Y-15930484D02*
X6432586Y-15797150D01*
X6432586Y-15816198D02*
X6442110Y-15806674D01*
X6442110Y-15806674D02*
X6461158Y-15797150D01*
X6461158Y-15797150D02*
X6489729Y-15797150D01*
X6489729Y-15797150D02*
X6508777Y-15806674D01*
X6508777Y-15806674D02*
X6518301Y-15825722D01*
X6518301Y-15825722D02*
X6518301Y-15930484D01*
X6518301Y-15825722D02*
X6527824Y-15806674D01*
X6527824Y-15806674D02*
X6546872Y-15797150D01*
X6546872Y-15797150D02*
X6575443Y-15797150D01*
X6575443Y-15797150D02*
X6594491Y-15806674D01*
X6594491Y-15806674D02*
X6604015Y-15825722D01*
X6604015Y-15825722D02*
X6604015Y-15930484D01*
X6994491Y-15720960D02*
X6823063Y-15978103D01*
X7251634Y-15730484D02*
X7270682Y-15730484D01*
X7270682Y-15730484D02*
X7289729Y-15740008D01*
X7289729Y-15740008D02*
X7299253Y-15749531D01*
X7299253Y-15749531D02*
X7308777Y-15768579D01*
X7308777Y-15768579D02*
X7318301Y-15806674D01*
X7318301Y-15806674D02*
X7318301Y-15854293D01*
X7318301Y-15854293D02*
X7308777Y-15892388D01*
X7308777Y-15892388D02*
X7299253Y-15911436D01*
X7299253Y-15911436D02*
X7289729Y-15920960D01*
X7289729Y-15920960D02*
X7270682Y-15930484D01*
X7270682Y-15930484D02*
X7251634Y-15930484D01*
X7251634Y-15930484D02*
X7232586Y-15920960D01*
X7232586Y-15920960D02*
X7223063Y-15911436D01*
X7223063Y-15911436D02*
X7213539Y-15892388D01*
X7213539Y-15892388D02*
X7204015Y-15854293D01*
X7204015Y-15854293D02*
X7204015Y-15806674D01*
X7204015Y-15806674D02*
X7213539Y-15768579D01*
X7213539Y-15768579D02*
X7223063Y-15749531D01*
X7223063Y-15749531D02*
X7232586Y-15740008D01*
X7232586Y-15740008D02*
X7251634Y-15730484D01*
X7404015Y-15911436D02*
X7413539Y-15920960D01*
X7413539Y-15920960D02*
X7404015Y-15930484D01*
X7404015Y-15930484D02*
X7394491Y-15920960D01*
X7394491Y-15920960D02*
X7404015Y-15911436D01*
X7404015Y-15911436D02*
X7404015Y-15930484D01*
X7537348Y-15730484D02*
X7556396Y-15730484D01*
X7556396Y-15730484D02*
X7575444Y-15740008D01*
X7575444Y-15740008D02*
X7584967Y-15749531D01*
X7584967Y-15749531D02*
X7594491Y-15768579D01*
X7594491Y-15768579D02*
X7604015Y-15806674D01*
X7604015Y-15806674D02*
X7604015Y-15854293D01*
X7604015Y-15854293D02*
X7594491Y-15892388D01*
X7594491Y-15892388D02*
X7584967Y-15911436D01*
X7584967Y-15911436D02*
X7575444Y-15920960D01*
X7575444Y-15920960D02*
X7556396Y-15930484D01*
X7556396Y-15930484D02*
X7537348Y-15930484D01*
X7537348Y-15930484D02*
X7518301Y-15920960D01*
X7518301Y-15920960D02*
X7508777Y-15911436D01*
X7508777Y-15911436D02*
X7499253Y-15892388D01*
X7499253Y-15892388D02*
X7489729Y-15854293D01*
X7489729Y-15854293D02*
X7489729Y-15806674D01*
X7489729Y-15806674D02*
X7499253Y-15768579D01*
X7499253Y-15768579D02*
X7508777Y-15749531D01*
X7508777Y-15749531D02*
X7518301Y-15740008D01*
X7518301Y-15740008D02*
X7537348Y-15730484D01*
X7784967Y-15730484D02*
X7689729Y-15730484D01*
X7689729Y-15730484D02*
X7680206Y-15825722D01*
X7680206Y-15825722D02*
X7689729Y-15816198D01*
X7689729Y-15816198D02*
X7708777Y-15806674D01*
X7708777Y-15806674D02*
X7756396Y-15806674D01*
X7756396Y-15806674D02*
X7775444Y-15816198D01*
X7775444Y-15816198D02*
X7784967Y-15825722D01*
X7784967Y-15825722D02*
X7794491Y-15844769D01*
X7794491Y-15844769D02*
X7794491Y-15892388D01*
X7794491Y-15892388D02*
X7784967Y-15911436D01*
X7784967Y-15911436D02*
X7775444Y-15920960D01*
X7775444Y-15920960D02*
X7756396Y-15930484D01*
X7756396Y-15930484D02*
X7708777Y-15930484D01*
X7708777Y-15930484D02*
X7689729Y-15920960D01*
X7689729Y-15920960D02*
X7680206Y-15911436D01*
X7984967Y-15930484D02*
X7870682Y-15930484D01*
X7927825Y-15930484D02*
X7927825Y-15730484D01*
X7927825Y-15730484D02*
X7908777Y-15759055D01*
X7908777Y-15759055D02*
X7889729Y-15778103D01*
X7889729Y-15778103D02*
X7870682Y-15787627D01*
X8061158Y-15749531D02*
X8070682Y-15740008D01*
X8070682Y-15740008D02*
X8089729Y-15730484D01*
X8089729Y-15730484D02*
X8137348Y-15730484D01*
X8137348Y-15730484D02*
X8156396Y-15740008D01*
X8156396Y-15740008D02*
X8165920Y-15749531D01*
X8165920Y-15749531D02*
X8175444Y-15768579D01*
X8175444Y-15768579D02*
X8175444Y-15787627D01*
X8175444Y-15787627D02*
X8165920Y-15816198D01*
X8165920Y-15816198D02*
X8051634Y-15930484D01*
X8051634Y-15930484D02*
X8175444Y-15930484D01*
X8251634Y-15730484D02*
X8251634Y-15768579D01*
X8327825Y-15730484D02*
X8327825Y-15768579D01*
X8623063Y-16006674D02*
X8613539Y-15997150D01*
X8613539Y-15997150D02*
X8594491Y-15968579D01*
X8594491Y-15968579D02*
X8584968Y-15949531D01*
X8584968Y-15949531D02*
X8575444Y-15920960D01*
X8575444Y-15920960D02*
X8565920Y-15873341D01*
X8565920Y-15873341D02*
X8565920Y-15835246D01*
X8565920Y-15835246D02*
X8575444Y-15787627D01*
X8575444Y-15787627D02*
X8584968Y-15759055D01*
X8584968Y-15759055D02*
X8594491Y-15740008D01*
X8594491Y-15740008D02*
X8613539Y-15711436D01*
X8613539Y-15711436D02*
X8623063Y-15701912D01*
X8804015Y-15930484D02*
X8689730Y-15930484D01*
X8746872Y-15930484D02*
X8746872Y-15730484D01*
X8746872Y-15730484D02*
X8727825Y-15759055D01*
X8727825Y-15759055D02*
X8708777Y-15778103D01*
X8708777Y-15778103D02*
X8689730Y-15787627D01*
X9042111Y-15930484D02*
X9042111Y-15730484D01*
X9127825Y-15930484D02*
X9127825Y-15825722D01*
X9127825Y-15825722D02*
X9118301Y-15806674D01*
X9118301Y-15806674D02*
X9099253Y-15797150D01*
X9099253Y-15797150D02*
X9070682Y-15797150D01*
X9070682Y-15797150D02*
X9051634Y-15806674D01*
X9051634Y-15806674D02*
X9042111Y-15816198D01*
X9251634Y-15930484D02*
X9232587Y-15920960D01*
X9232587Y-15920960D02*
X9223063Y-15911436D01*
X9223063Y-15911436D02*
X9213539Y-15892388D01*
X9213539Y-15892388D02*
X9213539Y-15835246D01*
X9213539Y-15835246D02*
X9223063Y-15816198D01*
X9223063Y-15816198D02*
X9232587Y-15806674D01*
X9232587Y-15806674D02*
X9251634Y-15797150D01*
X9251634Y-15797150D02*
X9280206Y-15797150D01*
X9280206Y-15797150D02*
X9299253Y-15806674D01*
X9299253Y-15806674D02*
X9308777Y-15816198D01*
X9308777Y-15816198D02*
X9318301Y-15835246D01*
X9318301Y-15835246D02*
X9318301Y-15892388D01*
X9318301Y-15892388D02*
X9308777Y-15911436D01*
X9308777Y-15911436D02*
X9299253Y-15920960D01*
X9299253Y-15920960D02*
X9280206Y-15930484D01*
X9280206Y-15930484D02*
X9251634Y-15930484D01*
X9432587Y-15930484D02*
X9413539Y-15920960D01*
X9413539Y-15920960D02*
X9404015Y-15901912D01*
X9404015Y-15901912D02*
X9404015Y-15730484D01*
X9584968Y-15920960D02*
X9565920Y-15930484D01*
X9565920Y-15930484D02*
X9527825Y-15930484D01*
X9527825Y-15930484D02*
X9508777Y-15920960D01*
X9508777Y-15920960D02*
X9499253Y-15901912D01*
X9499253Y-15901912D02*
X9499253Y-15825722D01*
X9499253Y-15825722D02*
X9508777Y-15806674D01*
X9508777Y-15806674D02*
X9527825Y-15797150D01*
X9527825Y-15797150D02*
X9565920Y-15797150D01*
X9565920Y-15797150D02*
X9584968Y-15806674D01*
X9584968Y-15806674D02*
X9594492Y-15825722D01*
X9594492Y-15825722D02*
X9594492Y-15844769D01*
X9594492Y-15844769D02*
X9499253Y-15863817D01*
X9661158Y-16006674D02*
X9670682Y-15997150D01*
X9670682Y-15997150D02*
X9689730Y-15968579D01*
X9689730Y-15968579D02*
X9699253Y-15949531D01*
X9699253Y-15949531D02*
X9708777Y-15920960D01*
X9708777Y-15920960D02*
X9718301Y-15873341D01*
X9718301Y-15873341D02*
X9718301Y-15835246D01*
X9718301Y-15835246D02*
X9708777Y-15787627D01*
X9708777Y-15787627D02*
X9699253Y-15759055D01*
X9699253Y-15759055D02*
X9689730Y-15740008D01*
X9689730Y-15740008D02*
X9670682Y-15711436D01*
X9670682Y-15711436D02*
X9661158Y-15701912D01*
X10023063Y-16006674D02*
X10013539Y-15997150D01*
X10013539Y-15997150D02*
X9994492Y-15968579D01*
X9994492Y-15968579D02*
X9984968Y-15949531D01*
X9984968Y-15949531D02*
X9975444Y-15920960D01*
X9975444Y-15920960D02*
X9965920Y-15873341D01*
X9965920Y-15873341D02*
X9965920Y-15835246D01*
X9965920Y-15835246D02*
X9975444Y-15787627D01*
X9975444Y-15787627D02*
X9984968Y-15759055D01*
X9984968Y-15759055D02*
X9994492Y-15740008D01*
X9994492Y-15740008D02*
X10013539Y-15711436D01*
X10013539Y-15711436D02*
X10023063Y-15701912D01*
X10099253Y-15797150D02*
X10099253Y-15930484D01*
X10099253Y-15816198D02*
X10108777Y-15806674D01*
X10108777Y-15806674D02*
X10127825Y-15797150D01*
X10127825Y-15797150D02*
X10156396Y-15797150D01*
X10156396Y-15797150D02*
X10175444Y-15806674D01*
X10175444Y-15806674D02*
X10184968Y-15825722D01*
X10184968Y-15825722D02*
X10184968Y-15930484D01*
X10308777Y-15930484D02*
X10289730Y-15920960D01*
X10289730Y-15920960D02*
X10280206Y-15911436D01*
X10280206Y-15911436D02*
X10270682Y-15892388D01*
X10270682Y-15892388D02*
X10270682Y-15835246D01*
X10270682Y-15835246D02*
X10280206Y-15816198D01*
X10280206Y-15816198D02*
X10289730Y-15806674D01*
X10289730Y-15806674D02*
X10308777Y-15797150D01*
X10308777Y-15797150D02*
X10337349Y-15797150D01*
X10337349Y-15797150D02*
X10356396Y-15806674D01*
X10356396Y-15806674D02*
X10365920Y-15816198D01*
X10365920Y-15816198D02*
X10375444Y-15835246D01*
X10375444Y-15835246D02*
X10375444Y-15892388D01*
X10375444Y-15892388D02*
X10365920Y-15911436D01*
X10365920Y-15911436D02*
X10356396Y-15920960D01*
X10356396Y-15920960D02*
X10337349Y-15930484D01*
X10337349Y-15930484D02*
X10308777Y-15930484D01*
X10432587Y-15797150D02*
X10508777Y-15797150D01*
X10461158Y-15730484D02*
X10461158Y-15901912D01*
X10461158Y-15901912D02*
X10470682Y-15920960D01*
X10470682Y-15920960D02*
X10489730Y-15930484D01*
X10489730Y-15930484D02*
X10508777Y-15930484D01*
X10727825Y-15797150D02*
X10727825Y-15997150D01*
X10727825Y-15806674D02*
X10746873Y-15797150D01*
X10746873Y-15797150D02*
X10784968Y-15797150D01*
X10784968Y-15797150D02*
X10804015Y-15806674D01*
X10804015Y-15806674D02*
X10813539Y-15816198D01*
X10813539Y-15816198D02*
X10823063Y-15835246D01*
X10823063Y-15835246D02*
X10823063Y-15892388D01*
X10823063Y-15892388D02*
X10813539Y-15911436D01*
X10813539Y-15911436D02*
X10804015Y-15920960D01*
X10804015Y-15920960D02*
X10784968Y-15930484D01*
X10784968Y-15930484D02*
X10746873Y-15930484D01*
X10746873Y-15930484D02*
X10727825Y-15920960D01*
X10937349Y-15930484D02*
X10918301Y-15920960D01*
X10918301Y-15920960D02*
X10908777Y-15901912D01*
X10908777Y-15901912D02*
X10908777Y-15730484D01*
X11099254Y-15930484D02*
X11099254Y-15825722D01*
X11099254Y-15825722D02*
X11089730Y-15806674D01*
X11089730Y-15806674D02*
X11070682Y-15797150D01*
X11070682Y-15797150D02*
X11032587Y-15797150D01*
X11032587Y-15797150D02*
X11013539Y-15806674D01*
X11099254Y-15920960D02*
X11080206Y-15930484D01*
X11080206Y-15930484D02*
X11032587Y-15930484D01*
X11032587Y-15930484D02*
X11013539Y-15920960D01*
X11013539Y-15920960D02*
X11004015Y-15901912D01*
X11004015Y-15901912D02*
X11004015Y-15882865D01*
X11004015Y-15882865D02*
X11013539Y-15863817D01*
X11013539Y-15863817D02*
X11032587Y-15854293D01*
X11032587Y-15854293D02*
X11080206Y-15854293D01*
X11080206Y-15854293D02*
X11099254Y-15844769D01*
X11165920Y-15797150D02*
X11242111Y-15797150D01*
X11194492Y-15730484D02*
X11194492Y-15901912D01*
X11194492Y-15901912D02*
X11204015Y-15920960D01*
X11204015Y-15920960D02*
X11223063Y-15930484D01*
X11223063Y-15930484D02*
X11242111Y-15930484D01*
X11384968Y-15920960D02*
X11365920Y-15930484D01*
X11365920Y-15930484D02*
X11327825Y-15930484D01*
X11327825Y-15930484D02*
X11308777Y-15920960D01*
X11308777Y-15920960D02*
X11299253Y-15901912D01*
X11299253Y-15901912D02*
X11299253Y-15825722D01*
X11299253Y-15825722D02*
X11308777Y-15806674D01*
X11308777Y-15806674D02*
X11327825Y-15797150D01*
X11327825Y-15797150D02*
X11365920Y-15797150D01*
X11365920Y-15797150D02*
X11384968Y-15806674D01*
X11384968Y-15806674D02*
X11394492Y-15825722D01*
X11394492Y-15825722D02*
X11394492Y-15844769D01*
X11394492Y-15844769D02*
X11299253Y-15863817D01*
X11565920Y-15930484D02*
X11565920Y-15730484D01*
X11565920Y-15920960D02*
X11546873Y-15930484D01*
X11546873Y-15930484D02*
X11508777Y-15930484D01*
X11508777Y-15930484D02*
X11489730Y-15920960D01*
X11489730Y-15920960D02*
X11480206Y-15911436D01*
X11480206Y-15911436D02*
X11470682Y-15892388D01*
X11470682Y-15892388D02*
X11470682Y-15835246D01*
X11470682Y-15835246D02*
X11480206Y-15816198D01*
X11480206Y-15816198D02*
X11489730Y-15806674D01*
X11489730Y-15806674D02*
X11508777Y-15797150D01*
X11508777Y-15797150D02*
X11546873Y-15797150D01*
X11546873Y-15797150D02*
X11565920Y-15806674D01*
X11642111Y-16006674D02*
X11651634Y-15997150D01*
X11651634Y-15997150D02*
X11670682Y-15968579D01*
X11670682Y-15968579D02*
X11680206Y-15949531D01*
X11680206Y-15949531D02*
X11689730Y-15920960D01*
X11689730Y-15920960D02*
X11699253Y-15873341D01*
X11699253Y-15873341D02*
X11699253Y-15835246D01*
X11699253Y-15835246D02*
X11689730Y-15787627D01*
X11689730Y-15787627D02*
X11680206Y-15759055D01*
X11680206Y-15759055D02*
X11670682Y-15740008D01*
X11670682Y-15740008D02*
X11651634Y-15711436D01*
X11651634Y-15711436D02*
X11642111Y-15701912D01*
X4948000Y-16003000D02*
X4948000Y-16203000D01*
X4848000Y-16103000D02*
X5048000Y-16103000D01*
X5289729Y-15994484D02*
X5413539Y-15994484D01*
X5413539Y-15994484D02*
X5346872Y-16070674D01*
X5346872Y-16070674D02*
X5375444Y-16070674D01*
X5375444Y-16070674D02*
X5394491Y-16080198D01*
X5394491Y-16080198D02*
X5404015Y-16089722D01*
X5404015Y-16089722D02*
X5413539Y-16108769D01*
X5413539Y-16108769D02*
X5413539Y-16156388D01*
X5413539Y-16156388D02*
X5404015Y-16175436D01*
X5404015Y-16175436D02*
X5394491Y-16184960D01*
X5394491Y-16184960D02*
X5375444Y-16194484D01*
X5375444Y-16194484D02*
X5318301Y-16194484D01*
X5318301Y-16194484D02*
X5299253Y-16184960D01*
X5299253Y-16184960D02*
X5289729Y-16175436D01*
X5499253Y-16175436D02*
X5508777Y-16184960D01*
X5508777Y-16184960D02*
X5499253Y-16194484D01*
X5499253Y-16194484D02*
X5489729Y-16184960D01*
X5489729Y-16184960D02*
X5499253Y-16175436D01*
X5499253Y-16175436D02*
X5499253Y-16194484D01*
X5584967Y-16013531D02*
X5594491Y-16004008D01*
X5594491Y-16004008D02*
X5613539Y-15994484D01*
X5613539Y-15994484D02*
X5661158Y-15994484D01*
X5661158Y-15994484D02*
X5680205Y-16004008D01*
X5680205Y-16004008D02*
X5689729Y-16013531D01*
X5689729Y-16013531D02*
X5699253Y-16032579D01*
X5699253Y-16032579D02*
X5699253Y-16051627D01*
X5699253Y-16051627D02*
X5689729Y-16080198D01*
X5689729Y-16080198D02*
X5575444Y-16194484D01*
X5575444Y-16194484D02*
X5699253Y-16194484D01*
X5823062Y-15994484D02*
X5842110Y-15994484D01*
X5842110Y-15994484D02*
X5861158Y-16004008D01*
X5861158Y-16004008D02*
X5870682Y-16013531D01*
X5870682Y-16013531D02*
X5880205Y-16032579D01*
X5880205Y-16032579D02*
X5889729Y-16070674D01*
X5889729Y-16070674D02*
X5889729Y-16118293D01*
X5889729Y-16118293D02*
X5880205Y-16156388D01*
X5880205Y-16156388D02*
X5870682Y-16175436D01*
X5870682Y-16175436D02*
X5861158Y-16184960D01*
X5861158Y-16184960D02*
X5842110Y-16194484D01*
X5842110Y-16194484D02*
X5823062Y-16194484D01*
X5823062Y-16194484D02*
X5804015Y-16184960D01*
X5804015Y-16184960D02*
X5794491Y-16175436D01*
X5794491Y-16175436D02*
X5784967Y-16156388D01*
X5784967Y-16156388D02*
X5775443Y-16118293D01*
X5775443Y-16118293D02*
X5775443Y-16070674D01*
X5775443Y-16070674D02*
X5784967Y-16032579D01*
X5784967Y-16032579D02*
X5794491Y-16013531D01*
X5794491Y-16013531D02*
X5804015Y-16004008D01*
X5804015Y-16004008D02*
X5823062Y-15994484D01*
X6013539Y-15994484D02*
X6032586Y-15994484D01*
X6032586Y-15994484D02*
X6051634Y-16004008D01*
X6051634Y-16004008D02*
X6061158Y-16013531D01*
X6061158Y-16013531D02*
X6070682Y-16032579D01*
X6070682Y-16032579D02*
X6080205Y-16070674D01*
X6080205Y-16070674D02*
X6080205Y-16118293D01*
X6080205Y-16118293D02*
X6070682Y-16156388D01*
X6070682Y-16156388D02*
X6061158Y-16175436D01*
X6061158Y-16175436D02*
X6051634Y-16184960D01*
X6051634Y-16184960D02*
X6032586Y-16194484D01*
X6032586Y-16194484D02*
X6013539Y-16194484D01*
X6013539Y-16194484D02*
X5994491Y-16184960D01*
X5994491Y-16184960D02*
X5984967Y-16175436D01*
X5984967Y-16175436D02*
X5975443Y-16156388D01*
X5975443Y-16156388D02*
X5965920Y-16118293D01*
X5965920Y-16118293D02*
X5965920Y-16070674D01*
X5965920Y-16070674D02*
X5975443Y-16032579D01*
X5975443Y-16032579D02*
X5984967Y-16013531D01*
X5984967Y-16013531D02*
X5994491Y-16004008D01*
X5994491Y-16004008D02*
X6013539Y-15994484D01*
X6165920Y-16194484D02*
X6165920Y-16061150D01*
X6165920Y-16080198D02*
X6175443Y-16070674D01*
X6175443Y-16070674D02*
X6194491Y-16061150D01*
X6194491Y-16061150D02*
X6223063Y-16061150D01*
X6223063Y-16061150D02*
X6242110Y-16070674D01*
X6242110Y-16070674D02*
X6251634Y-16089722D01*
X6251634Y-16089722D02*
X6251634Y-16194484D01*
X6251634Y-16089722D02*
X6261158Y-16070674D01*
X6261158Y-16070674D02*
X6280205Y-16061150D01*
X6280205Y-16061150D02*
X6308777Y-16061150D01*
X6308777Y-16061150D02*
X6327824Y-16070674D01*
X6327824Y-16070674D02*
X6337348Y-16089722D01*
X6337348Y-16089722D02*
X6337348Y-16194484D01*
X6432586Y-16194484D02*
X6432586Y-16061150D01*
X6432586Y-16080198D02*
X6442110Y-16070674D01*
X6442110Y-16070674D02*
X6461158Y-16061150D01*
X6461158Y-16061150D02*
X6489729Y-16061150D01*
X6489729Y-16061150D02*
X6508777Y-16070674D01*
X6508777Y-16070674D02*
X6518301Y-16089722D01*
X6518301Y-16089722D02*
X6518301Y-16194484D01*
X6518301Y-16089722D02*
X6527824Y-16070674D01*
X6527824Y-16070674D02*
X6546872Y-16061150D01*
X6546872Y-16061150D02*
X6575443Y-16061150D01*
X6575443Y-16061150D02*
X6594491Y-16070674D01*
X6594491Y-16070674D02*
X6604015Y-16089722D01*
X6604015Y-16089722D02*
X6604015Y-16194484D01*
X6994491Y-15984960D02*
X6823063Y-16242103D01*
X7251634Y-15994484D02*
X7270682Y-15994484D01*
X7270682Y-15994484D02*
X7289729Y-16004008D01*
X7289729Y-16004008D02*
X7299253Y-16013531D01*
X7299253Y-16013531D02*
X7308777Y-16032579D01*
X7308777Y-16032579D02*
X7318301Y-16070674D01*
X7318301Y-16070674D02*
X7318301Y-16118293D01*
X7318301Y-16118293D02*
X7308777Y-16156388D01*
X7308777Y-16156388D02*
X7299253Y-16175436D01*
X7299253Y-16175436D02*
X7289729Y-16184960D01*
X7289729Y-16184960D02*
X7270682Y-16194484D01*
X7270682Y-16194484D02*
X7251634Y-16194484D01*
X7251634Y-16194484D02*
X7232586Y-16184960D01*
X7232586Y-16184960D02*
X7223063Y-16175436D01*
X7223063Y-16175436D02*
X7213539Y-16156388D01*
X7213539Y-16156388D02*
X7204015Y-16118293D01*
X7204015Y-16118293D02*
X7204015Y-16070674D01*
X7204015Y-16070674D02*
X7213539Y-16032579D01*
X7213539Y-16032579D02*
X7223063Y-16013531D01*
X7223063Y-16013531D02*
X7232586Y-16004008D01*
X7232586Y-16004008D02*
X7251634Y-15994484D01*
X7404015Y-16175436D02*
X7413539Y-16184960D01*
X7413539Y-16184960D02*
X7404015Y-16194484D01*
X7404015Y-16194484D02*
X7394491Y-16184960D01*
X7394491Y-16184960D02*
X7404015Y-16175436D01*
X7404015Y-16175436D02*
X7404015Y-16194484D01*
X7604015Y-16194484D02*
X7489729Y-16194484D01*
X7546872Y-16194484D02*
X7546872Y-15994484D01*
X7546872Y-15994484D02*
X7527825Y-16023055D01*
X7527825Y-16023055D02*
X7508777Y-16042103D01*
X7508777Y-16042103D02*
X7489729Y-16051627D01*
X7680206Y-16013531D02*
X7689729Y-16004008D01*
X7689729Y-16004008D02*
X7708777Y-15994484D01*
X7708777Y-15994484D02*
X7756396Y-15994484D01*
X7756396Y-15994484D02*
X7775444Y-16004008D01*
X7775444Y-16004008D02*
X7784967Y-16013531D01*
X7784967Y-16013531D02*
X7794491Y-16032579D01*
X7794491Y-16032579D02*
X7794491Y-16051627D01*
X7794491Y-16051627D02*
X7784967Y-16080198D01*
X7784967Y-16080198D02*
X7670682Y-16194484D01*
X7670682Y-16194484D02*
X7794491Y-16194484D01*
X7965920Y-15994484D02*
X7927825Y-15994484D01*
X7927825Y-15994484D02*
X7908777Y-16004008D01*
X7908777Y-16004008D02*
X7899253Y-16013531D01*
X7899253Y-16013531D02*
X7880206Y-16042103D01*
X7880206Y-16042103D02*
X7870682Y-16080198D01*
X7870682Y-16080198D02*
X7870682Y-16156388D01*
X7870682Y-16156388D02*
X7880206Y-16175436D01*
X7880206Y-16175436D02*
X7889729Y-16184960D01*
X7889729Y-16184960D02*
X7908777Y-16194484D01*
X7908777Y-16194484D02*
X7946872Y-16194484D01*
X7946872Y-16194484D02*
X7965920Y-16184960D01*
X7965920Y-16184960D02*
X7975444Y-16175436D01*
X7975444Y-16175436D02*
X7984967Y-16156388D01*
X7984967Y-16156388D02*
X7984967Y-16108769D01*
X7984967Y-16108769D02*
X7975444Y-16089722D01*
X7975444Y-16089722D02*
X7965920Y-16080198D01*
X7965920Y-16080198D02*
X7946872Y-16070674D01*
X7946872Y-16070674D02*
X7908777Y-16070674D01*
X7908777Y-16070674D02*
X7889729Y-16080198D01*
X7889729Y-16080198D02*
X7880206Y-16089722D01*
X7880206Y-16089722D02*
X7870682Y-16108769D01*
X8108777Y-15994484D02*
X8127825Y-15994484D01*
X8127825Y-15994484D02*
X8146872Y-16004008D01*
X8146872Y-16004008D02*
X8156396Y-16013531D01*
X8156396Y-16013531D02*
X8165920Y-16032579D01*
X8165920Y-16032579D02*
X8175444Y-16070674D01*
X8175444Y-16070674D02*
X8175444Y-16118293D01*
X8175444Y-16118293D02*
X8165920Y-16156388D01*
X8165920Y-16156388D02*
X8156396Y-16175436D01*
X8156396Y-16175436D02*
X8146872Y-16184960D01*
X8146872Y-16184960D02*
X8127825Y-16194484D01*
X8127825Y-16194484D02*
X8108777Y-16194484D01*
X8108777Y-16194484D02*
X8089729Y-16184960D01*
X8089729Y-16184960D02*
X8080206Y-16175436D01*
X8080206Y-16175436D02*
X8070682Y-16156388D01*
X8070682Y-16156388D02*
X8061158Y-16118293D01*
X8061158Y-16118293D02*
X8061158Y-16070674D01*
X8061158Y-16070674D02*
X8070682Y-16032579D01*
X8070682Y-16032579D02*
X8080206Y-16013531D01*
X8080206Y-16013531D02*
X8089729Y-16004008D01*
X8089729Y-16004008D02*
X8108777Y-15994484D01*
X8251634Y-15994484D02*
X8251634Y-16032579D01*
X8327825Y-15994484D02*
X8327825Y-16032579D01*
X8623063Y-16270674D02*
X8613539Y-16261150D01*
X8613539Y-16261150D02*
X8594491Y-16232579D01*
X8594491Y-16232579D02*
X8584968Y-16213531D01*
X8584968Y-16213531D02*
X8575444Y-16184960D01*
X8575444Y-16184960D02*
X8565920Y-16137341D01*
X8565920Y-16137341D02*
X8565920Y-16099246D01*
X8565920Y-16099246D02*
X8575444Y-16051627D01*
X8575444Y-16051627D02*
X8584968Y-16023055D01*
X8584968Y-16023055D02*
X8594491Y-16004008D01*
X8594491Y-16004008D02*
X8613539Y-15975436D01*
X8613539Y-15975436D02*
X8623063Y-15965912D01*
X8680206Y-15994484D02*
X8804015Y-15994484D01*
X8804015Y-15994484D02*
X8737349Y-16070674D01*
X8737349Y-16070674D02*
X8765920Y-16070674D01*
X8765920Y-16070674D02*
X8784968Y-16080198D01*
X8784968Y-16080198D02*
X8794491Y-16089722D01*
X8794491Y-16089722D02*
X8804015Y-16108769D01*
X8804015Y-16108769D02*
X8804015Y-16156388D01*
X8804015Y-16156388D02*
X8794491Y-16175436D01*
X8794491Y-16175436D02*
X8784968Y-16184960D01*
X8784968Y-16184960D02*
X8765920Y-16194484D01*
X8765920Y-16194484D02*
X8708777Y-16194484D01*
X8708777Y-16194484D02*
X8689730Y-16184960D01*
X8689730Y-16184960D02*
X8680206Y-16175436D01*
X9042111Y-16194484D02*
X9042111Y-15994484D01*
X9127825Y-16194484D02*
X9127825Y-16089722D01*
X9127825Y-16089722D02*
X9118301Y-16070674D01*
X9118301Y-16070674D02*
X9099253Y-16061150D01*
X9099253Y-16061150D02*
X9070682Y-16061150D01*
X9070682Y-16061150D02*
X9051634Y-16070674D01*
X9051634Y-16070674D02*
X9042111Y-16080198D01*
X9251634Y-16194484D02*
X9232587Y-16184960D01*
X9232587Y-16184960D02*
X9223063Y-16175436D01*
X9223063Y-16175436D02*
X9213539Y-16156388D01*
X9213539Y-16156388D02*
X9213539Y-16099246D01*
X9213539Y-16099246D02*
X9223063Y-16080198D01*
X9223063Y-16080198D02*
X9232587Y-16070674D01*
X9232587Y-16070674D02*
X9251634Y-16061150D01*
X9251634Y-16061150D02*
X9280206Y-16061150D01*
X9280206Y-16061150D02*
X9299253Y-16070674D01*
X9299253Y-16070674D02*
X9308777Y-16080198D01*
X9308777Y-16080198D02*
X9318301Y-16099246D01*
X9318301Y-16099246D02*
X9318301Y-16156388D01*
X9318301Y-16156388D02*
X9308777Y-16175436D01*
X9308777Y-16175436D02*
X9299253Y-16184960D01*
X9299253Y-16184960D02*
X9280206Y-16194484D01*
X9280206Y-16194484D02*
X9251634Y-16194484D01*
X9432587Y-16194484D02*
X9413539Y-16184960D01*
X9413539Y-16184960D02*
X9404015Y-16165912D01*
X9404015Y-16165912D02*
X9404015Y-15994484D01*
X9584968Y-16184960D02*
X9565920Y-16194484D01*
X9565920Y-16194484D02*
X9527825Y-16194484D01*
X9527825Y-16194484D02*
X9508777Y-16184960D01*
X9508777Y-16184960D02*
X9499253Y-16165912D01*
X9499253Y-16165912D02*
X9499253Y-16089722D01*
X9499253Y-16089722D02*
X9508777Y-16070674D01*
X9508777Y-16070674D02*
X9527825Y-16061150D01*
X9527825Y-16061150D02*
X9565920Y-16061150D01*
X9565920Y-16061150D02*
X9584968Y-16070674D01*
X9584968Y-16070674D02*
X9594492Y-16089722D01*
X9594492Y-16089722D02*
X9594492Y-16108769D01*
X9594492Y-16108769D02*
X9499253Y-16127817D01*
X9670682Y-16184960D02*
X9689730Y-16194484D01*
X9689730Y-16194484D02*
X9727825Y-16194484D01*
X9727825Y-16194484D02*
X9746873Y-16184960D01*
X9746873Y-16184960D02*
X9756396Y-16165912D01*
X9756396Y-16165912D02*
X9756396Y-16156388D01*
X9756396Y-16156388D02*
X9746873Y-16137341D01*
X9746873Y-16137341D02*
X9727825Y-16127817D01*
X9727825Y-16127817D02*
X9699253Y-16127817D01*
X9699253Y-16127817D02*
X9680206Y-16118293D01*
X9680206Y-16118293D02*
X9670682Y-16099246D01*
X9670682Y-16099246D02*
X9670682Y-16089722D01*
X9670682Y-16089722D02*
X9680206Y-16070674D01*
X9680206Y-16070674D02*
X9699253Y-16061150D01*
X9699253Y-16061150D02*
X9727825Y-16061150D01*
X9727825Y-16061150D02*
X9746873Y-16070674D01*
X9823063Y-16270674D02*
X9832587Y-16261150D01*
X9832587Y-16261150D02*
X9851634Y-16232579D01*
X9851634Y-16232579D02*
X9861158Y-16213531D01*
X9861158Y-16213531D02*
X9870682Y-16184960D01*
X9870682Y-16184960D02*
X9880206Y-16137341D01*
X9880206Y-16137341D02*
X9880206Y-16099246D01*
X9880206Y-16099246D02*
X9870682Y-16051627D01*
X9870682Y-16051627D02*
X9861158Y-16023055D01*
X9861158Y-16023055D02*
X9851634Y-16004008D01*
X9851634Y-16004008D02*
X9832587Y-15975436D01*
X9832587Y-15975436D02*
X9823063Y-15965912D01*
X10184968Y-16270674D02*
X10175444Y-16261150D01*
X10175444Y-16261150D02*
X10156396Y-16232579D01*
X10156396Y-16232579D02*
X10146873Y-16213531D01*
X10146873Y-16213531D02*
X10137349Y-16184960D01*
X10137349Y-16184960D02*
X10127825Y-16137341D01*
X10127825Y-16137341D02*
X10127825Y-16099246D01*
X10127825Y-16099246D02*
X10137349Y-16051627D01*
X10137349Y-16051627D02*
X10146873Y-16023055D01*
X10146873Y-16023055D02*
X10156396Y-16004008D01*
X10156396Y-16004008D02*
X10175444Y-15975436D01*
X10175444Y-15975436D02*
X10184968Y-15965912D01*
X10261158Y-16061150D02*
X10261158Y-16194484D01*
X10261158Y-16080198D02*
X10270682Y-16070674D01*
X10270682Y-16070674D02*
X10289730Y-16061150D01*
X10289730Y-16061150D02*
X10318301Y-16061150D01*
X10318301Y-16061150D02*
X10337349Y-16070674D01*
X10337349Y-16070674D02*
X10346873Y-16089722D01*
X10346873Y-16089722D02*
X10346873Y-16194484D01*
X10470682Y-16194484D02*
X10451634Y-16184960D01*
X10451634Y-16184960D02*
X10442111Y-16175436D01*
X10442111Y-16175436D02*
X10432587Y-16156388D01*
X10432587Y-16156388D02*
X10432587Y-16099246D01*
X10432587Y-16099246D02*
X10442111Y-16080198D01*
X10442111Y-16080198D02*
X10451634Y-16070674D01*
X10451634Y-16070674D02*
X10470682Y-16061150D01*
X10470682Y-16061150D02*
X10499254Y-16061150D01*
X10499254Y-16061150D02*
X10518301Y-16070674D01*
X10518301Y-16070674D02*
X10527825Y-16080198D01*
X10527825Y-16080198D02*
X10537349Y-16099246D01*
X10537349Y-16099246D02*
X10537349Y-16156388D01*
X10537349Y-16156388D02*
X10527825Y-16175436D01*
X10527825Y-16175436D02*
X10518301Y-16184960D01*
X10518301Y-16184960D02*
X10499254Y-16194484D01*
X10499254Y-16194484D02*
X10470682Y-16194484D01*
X10594492Y-16061150D02*
X10670682Y-16061150D01*
X10623063Y-15994484D02*
X10623063Y-16165912D01*
X10623063Y-16165912D02*
X10632587Y-16184960D01*
X10632587Y-16184960D02*
X10651634Y-16194484D01*
X10651634Y-16194484D02*
X10670682Y-16194484D01*
X10889730Y-16061150D02*
X10889730Y-16261150D01*
X10889730Y-16070674D02*
X10908777Y-16061150D01*
X10908777Y-16061150D02*
X10946873Y-16061150D01*
X10946873Y-16061150D02*
X10965920Y-16070674D01*
X10965920Y-16070674D02*
X10975444Y-16080198D01*
X10975444Y-16080198D02*
X10984968Y-16099246D01*
X10984968Y-16099246D02*
X10984968Y-16156388D01*
X10984968Y-16156388D02*
X10975444Y-16175436D01*
X10975444Y-16175436D02*
X10965920Y-16184960D01*
X10965920Y-16184960D02*
X10946873Y-16194484D01*
X10946873Y-16194484D02*
X10908777Y-16194484D01*
X10908777Y-16194484D02*
X10889730Y-16184960D01*
X11099254Y-16194484D02*
X11080206Y-16184960D01*
X11080206Y-16184960D02*
X11070682Y-16165912D01*
X11070682Y-16165912D02*
X11070682Y-15994484D01*
X11261158Y-16194484D02*
X11261158Y-16089722D01*
X11261158Y-16089722D02*
X11251634Y-16070674D01*
X11251634Y-16070674D02*
X11232587Y-16061150D01*
X11232587Y-16061150D02*
X11194492Y-16061150D01*
X11194492Y-16061150D02*
X11175444Y-16070674D01*
X11261158Y-16184960D02*
X11242111Y-16194484D01*
X11242111Y-16194484D02*
X11194492Y-16194484D01*
X11194492Y-16194484D02*
X11175444Y-16184960D01*
X11175444Y-16184960D02*
X11165920Y-16165912D01*
X11165920Y-16165912D02*
X11165920Y-16146865D01*
X11165920Y-16146865D02*
X11175444Y-16127817D01*
X11175444Y-16127817D02*
X11194492Y-16118293D01*
X11194492Y-16118293D02*
X11242111Y-16118293D01*
X11242111Y-16118293D02*
X11261158Y-16108769D01*
X11327825Y-16061150D02*
X11404015Y-16061150D01*
X11356396Y-15994484D02*
X11356396Y-16165912D01*
X11356396Y-16165912D02*
X11365920Y-16184960D01*
X11365920Y-16184960D02*
X11384968Y-16194484D01*
X11384968Y-16194484D02*
X11404015Y-16194484D01*
X11546873Y-16184960D02*
X11527825Y-16194484D01*
X11527825Y-16194484D02*
X11489730Y-16194484D01*
X11489730Y-16194484D02*
X11470682Y-16184960D01*
X11470682Y-16184960D02*
X11461158Y-16165912D01*
X11461158Y-16165912D02*
X11461158Y-16089722D01*
X11461158Y-16089722D02*
X11470682Y-16070674D01*
X11470682Y-16070674D02*
X11489730Y-16061150D01*
X11489730Y-16061150D02*
X11527825Y-16061150D01*
X11527825Y-16061150D02*
X11546873Y-16070674D01*
X11546873Y-16070674D02*
X11556396Y-16089722D01*
X11556396Y-16089722D02*
X11556396Y-16108769D01*
X11556396Y-16108769D02*
X11461158Y-16127817D01*
X11727825Y-16194484D02*
X11727825Y-15994484D01*
X11727825Y-16184960D02*
X11708777Y-16194484D01*
X11708777Y-16194484D02*
X11670682Y-16194484D01*
X11670682Y-16194484D02*
X11651634Y-16184960D01*
X11651634Y-16184960D02*
X11642111Y-16175436D01*
X11642111Y-16175436D02*
X11632587Y-16156388D01*
X11632587Y-16156388D02*
X11632587Y-16099246D01*
X11632587Y-16099246D02*
X11642111Y-16080198D01*
X11642111Y-16080198D02*
X11651634Y-16070674D01*
X11651634Y-16070674D02*
X11670682Y-16061150D01*
X11670682Y-16061150D02*
X11708777Y-16061150D01*
X11708777Y-16061150D02*
X11727825Y-16070674D01*
X11804015Y-16270674D02*
X11813539Y-16261150D01*
X11813539Y-16261150D02*
X11832587Y-16232579D01*
X11832587Y-16232579D02*
X11842111Y-16213531D01*
X11842111Y-16213531D02*
X11851634Y-16184960D01*
X11851634Y-16184960D02*
X11861158Y-16137341D01*
X11861158Y-16137341D02*
X11861158Y-16099246D01*
X11861158Y-16099246D02*
X11851634Y-16051627D01*
X11851634Y-16051627D02*
X11842111Y-16023055D01*
X11842111Y-16023055D02*
X11832587Y-16004008D01*
X11832587Y-16004008D02*
X11813539Y-15975436D01*
X11813539Y-15975436D02*
X11804015Y-15965912D01*
M02*
