%TF.GenerationSoftware,KiCad,Pcbnew,9.0.0*%
%TF.CreationDate,2026-04-05T17:31:23+07:00*%
%TF.ProjectId,IoT2526_HK2,496f5432-3532-4365-9f48-4b322e6b6963,rev?*%
%TF.SameCoordinates,Original*%
%TF.FileFunction,Copper,L2,Bot*%
%TF.FilePolarity,Positive*%
%FSLAX46Y46*%
G04 Gerber Fmt 4.6, Leading zero omitted, Abs format (unit mm)*
G04 Created by KiCad (PCBNEW 9.0.0) date 2026-04-05 17:31:23*
%MOMM*%
%LPD*%
G01*
G04 APERTURE LIST*
G04 Aperture macros list*
%AMOutline4P*
0 Free polygon, 4 corners , with rotation*
0 The origin of the aperture is its center*
0 number of corners: always 4*
0 $1 to $8 corner X, Y*
0 $9 Rotation angle, in degrees counterclockwise*
0 create outline with 4 corners*
4,1,4,$1,$2,$3,$4,$5,$6,$7,$8,$1,$2,$9*%
G04 Aperture macros list end*
%TA.AperFunction,ComponentPad*%
%ADD10R,1.700000X1.700000*%
%TD*%
%TA.AperFunction,ComponentPad*%
%ADD11O,1.700000X1.700000*%
%TD*%
%TA.AperFunction,ComponentPad*%
%ADD12R,2.000000X2.000000*%
%TD*%
%TA.AperFunction,ComponentPad*%
%ADD13C,2.000000*%
%TD*%
%TA.AperFunction,ComponentPad*%
%ADD14Outline4P,-0.750000X-0.750000X0.750000X-0.750000X0.750000X0.750000X-0.750000X0.750000X180.000000*%
%TD*%
%TA.AperFunction,ComponentPad*%
%ADD15C,1.500000*%
%TD*%
%TA.AperFunction,ComponentPad*%
%ADD16O,1.800000X1.800000*%
%TD*%
%TA.AperFunction,ComponentPad*%
%ADD17R,1.800000X1.800000*%
%TD*%
%TA.AperFunction,ComponentPad*%
%ADD18C,1.800000*%
%TD*%
%TA.AperFunction,ComponentPad*%
%ADD19R,1.530000X1.530000*%
%TD*%
%TA.AperFunction,ComponentPad*%
%ADD20C,1.530000*%
%TD*%
%TA.AperFunction,ComponentPad*%
%ADD21C,2.010000*%
%TD*%
%TA.AperFunction,ComponentPad*%
%ADD22R,2.000000X1.700000*%
%TD*%
%TA.AperFunction,ComponentPad*%
%ADD23O,2.000000X1.700000*%
%TD*%
%TA.AperFunction,ComponentPad*%
%ADD24C,2.200000*%
%TD*%
%TA.AperFunction,ComponentPad*%
%ADD25O,4.000000X2.000000*%
%TD*%
%TA.AperFunction,ViaPad*%
%ADD26C,0.600000*%
%TD*%
%TA.AperFunction,ViaPad*%
%ADD27C,1.200000*%
%TD*%
%TA.AperFunction,ViaPad*%
%ADD28C,1.000000*%
%TD*%
%TA.AperFunction,Conductor*%
%ADD29C,1.000000*%
%TD*%
%TA.AperFunction,Conductor*%
%ADD30C,0.600000*%
%TD*%
%TA.AperFunction,Conductor*%
%ADD31C,2.000000*%
%TD*%
%TA.AperFunction,Conductor*%
%ADD32C,0.300000*%
%TD*%
G04 APERTURE END LIST*
D10*
%TO.P,J1,1,Pin_1*%
%TO.N,/CO_ANALOG*%
X84380000Y-56360000D03*
D11*
%TO.P,J1,2,Pin_2*%
%TO.N,+3V3*%
X84380000Y-58900000D03*
%TO.P,J1,3,Pin_3*%
%TO.N,GND*%
X84380000Y-61440000D03*
%TD*%
D12*
%TO.P,BZ1,1,+*%
%TO.N,Net-(BZ1-+)*%
X119910000Y-110000000D03*
D13*
%TO.P,BZ1,2,-*%
%TO.N,Net-(BZ1--)*%
X127510000Y-110000000D03*
%TD*%
D14*
%TO.P,L1,1,1*%
%TO.N,NEUTRAL*%
X65550000Y-110800000D03*
D15*
%TO.P,L1,2,2*%
%TO.N,Net-(PS1-AC{slash}N)*%
X65550000Y-103800000D03*
%TO.P,L1,3,3*%
%TO.N,Net-(C10-Pad1)*%
X57550000Y-110800000D03*
%TO.P,L1,4,4*%
%TO.N,Net-(PS1-AC{slash}L)*%
X57550000Y-103800000D03*
%TD*%
D16*
%TO.P,K3,13*%
%TO.N,NEUTRAL*%
X94762500Y-122237500D03*
%TO.P,K3,14*%
%TO.N,LOAD-3*%
X94762500Y-129237500D03*
D17*
%TO.P,K3,A1*%
%TO.N,+5V*%
X99462500Y-110737500D03*
D16*
%TO.P,K3,A2*%
%TO.N,Net-(D3-K)*%
X94762500Y-110737500D03*
%TD*%
D10*
%TO.P,J3,1,Pin_1*%
%TO.N,+3V3*%
X77900000Y-69290000D03*
D11*
%TO.P,J3,2,Pin_2*%
%TO.N,GND*%
X77900000Y-71830000D03*
%TO.P,J3,3,Pin_3*%
%TO.N,/SCL*%
X77900000Y-74370000D03*
%TO.P,J3,4,Pin_4*%
%TO.N,/SDA*%
X77900000Y-76910000D03*
%TD*%
D18*
%TO.P,R13,1*%
%TO.N,Net-(C10-Pad1)*%
X54030000Y-121820000D03*
%TO.P,R13,2*%
%TO.N,NEUTRAL*%
X61530000Y-124520000D03*
%TD*%
D19*
%TO.P,U5,1,3V3*%
%TO.N,+3V3*%
X120200000Y-52400000D03*
D20*
%TO.P,U5,2,EN*%
%TO.N,/RESET*%
X120200000Y-54940000D03*
%TO.P,U5,3,SENSOR_VP*%
%TO.N,/T_IRQ*%
X120200000Y-57480000D03*
%TO.P,U5,4,SENSOR_VN*%
%TO.N,/T_DO*%
X120200000Y-60020000D03*
%TO.P,U5,5,IO34*%
%TO.N,/CO_ANALOG*%
X120200000Y-62560000D03*
%TO.P,U5,6,IO35*%
%TO.N,/NO2_ANALOG*%
X120200000Y-65100000D03*
%TO.P,U5,7,IO32*%
%TO.N,/T_DIN*%
X120200000Y-67640000D03*
%TO.P,U5,8,IO33*%
%TO.N,/T_CS*%
X120200000Y-70180000D03*
%TO.P,U5,9,IO25*%
%TO.N,/T_CLK*%
X120200000Y-72720000D03*
%TO.P,U5,10,IO26*%
%TO.N,/RL1*%
X120200000Y-75260000D03*
%TO.P,U5,11,IO27*%
%TO.N,/RL2*%
X120200000Y-77800000D03*
%TO.P,U5,12,IO14*%
%TO.N,/SCK*%
X120200000Y-80340000D03*
%TO.P,U5,13,IO12*%
%TO.N,unconnected-(U5-IO12-Pad13)*%
X120200000Y-82880000D03*
%TO.P,U5,14,GND1*%
%TO.N,GND*%
X120200000Y-85420000D03*
%TO.P,U5,15,IO13*%
%TO.N,/SDI*%
X120200000Y-87960000D03*
%TO.P,U5,16,SD2*%
%TO.N,unconnected-(U5-SD2-Pad16)*%
X120200000Y-90500000D03*
%TO.P,U5,17,SD3*%
%TO.N,unconnected-(U5-SD3-Pad17)*%
X120200000Y-93040000D03*
%TO.P,U5,18,CMD*%
%TO.N,unconnected-(U5-CMD-Pad18)*%
X120200000Y-95580000D03*
%TO.P,U5,19,EXT_5V*%
%TO.N,+5V*%
X120200000Y-98120000D03*
%TO.P,U5,20,CLK*%
%TO.N,unconnected-(U5-CLK-Pad20)*%
X145600000Y-98120000D03*
%TO.P,U5,21,SD0*%
%TO.N,unconnected-(U5-SD0-Pad21)*%
X145600000Y-95580000D03*
%TO.P,U5,22,SD1*%
%TO.N,unconnected-(U5-SD1-Pad22)*%
X145600000Y-93040000D03*
%TO.P,U5,23,IO15*%
%TO.N,/CS*%
X145600000Y-90500000D03*
%TO.P,U5,24,IO2*%
%TO.N,unconnected-(U5-IO2-Pad24)*%
X145600000Y-87960000D03*
%TO.P,U5,25,IO0*%
%TO.N,unconnected-(U5-IO0-Pad25)*%
X145600000Y-85420000D03*
%TO.P,U5,26,IO4*%
%TO.N,/LED*%
X145600000Y-82880000D03*
%TO.P,U5,27,IO16*%
%TO.N,/DC*%
X145600000Y-80340000D03*
%TO.P,U5,28,IO17*%
%TO.N,/RL3*%
X145600000Y-77800000D03*
%TO.P,U5,29,IO5*%
%TO.N,unconnected-(U5-IO5-Pad29)*%
X145600000Y-75260000D03*
%TO.P,U5,30,IO18*%
%TO.N,/Buzzer*%
X145600000Y-72720000D03*
%TO.P,U5,31,IO19*%
%TO.N,/SDO*%
X145600000Y-70180000D03*
%TO.P,U5,32,GND2*%
%TO.N,GND*%
X145600000Y-67640000D03*
%TO.P,U5,33,IO21*%
%TO.N,/SDA*%
X145600000Y-65100000D03*
%TO.P,U5,34,RXD0*%
%TO.N,unconnected-(U5-RXD0-Pad34)*%
X145600000Y-62560000D03*
%TO.P,U5,35,TXD0*%
%TO.N,unconnected-(U5-TXD0-Pad35)*%
X145600000Y-60020000D03*
%TO.P,U5,36,IO22*%
%TO.N,/SCL*%
X145600000Y-57480000D03*
%TO.P,U5,37,IO23*%
%TO.N,unconnected-(U5-IO23-Pad37)*%
X145600000Y-54940000D03*
%TO.P,U5,38,GND3*%
%TO.N,GND*%
X145600000Y-52400000D03*
%TD*%
D21*
%TO.P,F1,1*%
%TO.N,LINE*%
X59150000Y-129400000D03*
%TO.P,F1,2*%
%TO.N,Net-(C10-Pad1)*%
X54050000Y-128200000D03*
%TD*%
D16*
%TO.P,K1,13*%
%TO.N,NEUTRAL*%
X78047500Y-122312500D03*
%TO.P,K1,14*%
%TO.N,LOAD-1*%
X78047500Y-129312500D03*
D17*
%TO.P,K1,A1*%
%TO.N,+5V*%
X82747500Y-110812500D03*
D16*
%TO.P,K1,A2*%
%TO.N,Net-(D1-K)*%
X78047500Y-110812500D03*
%TD*%
%TO.P,K2,13*%
%TO.N,NEUTRAL*%
X86530000Y-122330000D03*
%TO.P,K2,14*%
%TO.N,LOAD-2*%
X86530000Y-129330000D03*
D17*
%TO.P,K2,A1*%
%TO.N,+5V*%
X91230000Y-110830000D03*
D16*
%TO.P,K2,A2*%
%TO.N,Net-(D2-K)*%
X86530000Y-110830000D03*
%TD*%
D22*
%TO.P,PS1,1,AC/L*%
%TO.N,Net-(PS1-AC{slash}L)*%
X60000000Y-97200000D03*
D23*
%TO.P,PS1,2,AC/N*%
%TO.N,Net-(PS1-AC{slash}N)*%
X65000000Y-97200000D03*
%TO.P,PS1,3,-Vout*%
%TO.N,GND*%
X55000000Y-68120000D03*
%TO.P,PS1,4,+Vout*%
%TO.N,+5V*%
X70000000Y-68120000D03*
%TD*%
D10*
%TO.P,J2,1,Pin_1*%
%TO.N,/NO2_ANALOG*%
X98860000Y-56360000D03*
D11*
%TO.P,J2,2,Pin_2*%
%TO.N,+3V3*%
X98860000Y-58900000D03*
%TO.P,J2,3,Pin_3*%
%TO.N,GND*%
X98860000Y-61440000D03*
%TD*%
D24*
%TO.P,C10,1*%
%TO.N,Net-(C10-Pad1)*%
X54030000Y-116730000D03*
%TO.P,C10,2*%
%TO.N,NEUTRAL*%
X69030000Y-116730000D03*
%TD*%
D25*
%TO.P,J4,1,Pin_1*%
%TO.N,LINE*%
X59210000Y-134800000D03*
%TO.P,J4,2,Pin_2*%
%TO.N,NEUTRAL*%
X68710000Y-134800000D03*
%TO.P,J4,3,Pin_3*%
%TO.N,LOAD-1*%
X78210000Y-134800000D03*
%TO.P,J4,4,Pin_4*%
%TO.N,LOAD-2*%
X87710000Y-134800000D03*
%TO.P,J4,5,Pin_5*%
%TO.N,LOAD-3*%
X97210000Y-134800000D03*
%TD*%
D10*
%TO.P,U6,1,T_IRQ*%
%TO.N,/T_IRQ*%
X109080000Y-128340000D03*
D11*
%TO.P,U6,2,T_DO*%
%TO.N,/T_DO*%
X111620000Y-128340000D03*
%TO.P,U6,3,T_DIN*%
%TO.N,/T_DIN*%
X114160000Y-128340000D03*
%TO.P,U6,4,T_CS*%
%TO.N,/T_CS*%
X116700000Y-128340000D03*
%TO.P,U6,5,T_CLK*%
%TO.N,/T_CLK*%
X119240000Y-128340000D03*
%TO.P,U6,6,SDO*%
%TO.N,/SDO*%
X121780000Y-128340000D03*
%TO.P,U6,7,LED*%
%TO.N,/LED*%
X124320000Y-128340000D03*
%TO.P,U6,8,SCK*%
%TO.N,/SCK*%
X126860000Y-128340000D03*
%TO.P,U6,9,SDI*%
%TO.N,/SDI*%
X129400000Y-128340000D03*
%TO.P,U6,10,DC*%
%TO.N,/DC*%
X131940000Y-128340000D03*
%TO.P,U6,11,RESET*%
%TO.N,/RESET*%
X134480000Y-128340000D03*
%TO.P,U6,12,CS*%
%TO.N,/CS*%
X137020000Y-128340000D03*
%TO.P,U6,13,GND*%
%TO.N,GND*%
X139560000Y-128340000D03*
%TO.P,U6,14,VCC*%
%TO.N,+3V3*%
X142100000Y-128340000D03*
%TD*%
D26*
%TO.N,GND*%
X90370000Y-63100000D03*
X148860000Y-61950000D03*
X108220000Y-70296000D03*
X131080000Y-123636000D03*
X87900000Y-72110000D03*
X89910000Y-99440000D03*
X110760000Y-102590000D03*
X148860000Y-87350000D03*
X98060000Y-89890000D03*
X138700000Y-59410000D03*
X103140000Y-64490000D03*
X52350000Y-57610000D03*
X134920000Y-107580000D03*
X108220000Y-64490000D03*
X62500000Y-54330000D03*
X110760000Y-57596000D03*
X134920000Y-117740000D03*
X103140000Y-72110000D03*
X98780000Y-53720000D03*
X118380000Y-125450000D03*
X133620000Y-61950000D03*
X95520000Y-89890000D03*
X143780000Y-51790000D03*
X110760000Y-92430000D03*
X95520000Y-82270000D03*
X146320000Y-115290000D03*
X98060000Y-79730000D03*
X135240000Y-74720000D03*
X128540000Y-117830000D03*
X148860000Y-77190000D03*
X148860000Y-64490000D03*
X110760000Y-59410000D03*
X146320000Y-107670000D03*
X143780000Y-122910000D03*
X140470000Y-64980000D03*
X118380000Y-115290000D03*
X95510000Y-63100000D03*
X59960000Y-51790000D03*
X148860000Y-105130000D03*
X70120000Y-61950000D03*
X108220000Y-100050000D03*
X148860000Y-120370000D03*
X132700000Y-77260000D03*
X93660000Y-56240000D03*
X110760000Y-107670000D03*
X118380000Y-84810000D03*
X75200000Y-61950000D03*
X59960000Y-61950000D03*
X143780000Y-102590000D03*
X128540000Y-112750000D03*
X138700000Y-125450000D03*
X65040000Y-67030000D03*
X123460000Y-55056000D03*
X92980000Y-105856000D03*
X135230000Y-67740000D03*
X113300000Y-112750000D03*
X134970000Y-105120000D03*
X81440000Y-99630000D03*
X148860000Y-67030000D03*
X110760000Y-82270000D03*
X108220000Y-112750000D03*
X85360000Y-82270000D03*
X146320000Y-130530000D03*
X57420000Y-67030000D03*
X81990000Y-64320000D03*
X81200000Y-54200000D03*
X92050000Y-53740000D03*
X92980000Y-72110000D03*
X92980000Y-87350000D03*
X118380000Y-122910000D03*
X143780000Y-95696000D03*
X108220000Y-110210000D03*
X140730000Y-68050000D03*
X143780000Y-93156000D03*
X143780000Y-72110000D03*
X148860000Y-107670000D03*
X80280000Y-89890000D03*
X90440000Y-67756000D03*
X110760000Y-72110000D03*
X70120000Y-64490000D03*
X138700000Y-117830000D03*
X126000000Y-107670000D03*
X143780000Y-85536000D03*
X103140000Y-70296000D03*
X84780000Y-106126000D03*
X128540000Y-67756000D03*
X105680000Y-130530000D03*
X54880000Y-59410000D03*
X77740000Y-84810000D03*
X125490000Y-81120000D03*
X85360000Y-89890000D03*
X134870000Y-120210000D03*
X146320000Y-105130000D03*
X148860000Y-69570000D03*
X100600000Y-64490000D03*
X62500000Y-59410000D03*
X141240000Y-72110000D03*
X108220000Y-82270000D03*
X92980000Y-89890000D03*
X81440000Y-101270000D03*
X131080000Y-125450000D03*
X67580000Y-60136000D03*
X126000000Y-98236000D03*
X141240000Y-115290000D03*
X100660000Y-61970000D03*
X134870000Y-125290000D03*
X148860000Y-115290000D03*
X141240000Y-95696000D03*
X128540000Y-107670000D03*
X57420000Y-64490000D03*
X80280000Y-82270000D03*
X128540000Y-61950000D03*
X95520000Y-67756000D03*
X131080000Y-88076000D03*
X118380000Y-107670000D03*
X98060000Y-87350000D03*
X138700000Y-61950000D03*
X138700000Y-120370000D03*
X110760000Y-115290000D03*
X141240000Y-125450000D03*
X131080000Y-61950000D03*
X148860000Y-122910000D03*
X126000000Y-95696000D03*
X95580000Y-56290000D03*
X126000000Y-117830000D03*
X52340000Y-67030000D03*
X141240000Y-61950000D03*
X70120000Y-54330000D03*
X141240000Y-102590000D03*
X108220000Y-115290000D03*
X98060000Y-101240000D03*
X87900000Y-64490000D03*
X116570000Y-56700000D03*
X134870000Y-122750000D03*
X72660000Y-54330000D03*
X108220000Y-107670000D03*
X98060000Y-70296000D03*
X148860000Y-130530000D03*
X110760000Y-100050000D03*
X141240000Y-74650000D03*
X98060000Y-99738000D03*
X98060000Y-84810000D03*
X135270000Y-65220000D03*
X98060000Y-64490000D03*
X113300000Y-102590000D03*
X141240000Y-100050000D03*
X108220000Y-72110000D03*
X103140000Y-82270000D03*
X118380000Y-89890000D03*
X54880000Y-61950000D03*
X134870000Y-115130000D03*
X87900000Y-82270000D03*
X143780000Y-59410000D03*
X81990000Y-59240000D03*
X110760000Y-89890000D03*
X131080000Y-90616000D03*
X80530000Y-109000000D03*
X143780000Y-120370000D03*
X87900000Y-89890000D03*
X92980000Y-82270000D03*
X110760000Y-117830000D03*
X143780000Y-127990000D03*
X128540000Y-123636000D03*
X103140000Y-89890000D03*
X135080000Y-96770000D03*
X110760000Y-84810000D03*
X120920000Y-122910000D03*
X95520000Y-72110000D03*
X103140000Y-80456000D03*
X146320000Y-125450000D03*
X85360000Y-84810000D03*
X92980000Y-84810000D03*
X90440000Y-72110000D03*
X77740000Y-87350000D03*
X82820000Y-75376000D03*
X86970000Y-53740000D03*
X118380000Y-110210000D03*
X77740000Y-79730000D03*
X75200000Y-60136000D03*
X131080000Y-121096000D03*
X148860000Y-54330000D03*
X128540000Y-88076000D03*
X98060000Y-67756000D03*
X108220000Y-59410000D03*
X90440000Y-77190000D03*
X143780000Y-88076000D03*
X148860000Y-74650000D03*
X98060000Y-82270000D03*
X103140000Y-84810000D03*
X93000000Y-63100000D03*
X138700000Y-95696000D03*
X117730000Y-67620000D03*
X82820000Y-67030000D03*
X118380000Y-94970000D03*
X118380000Y-102590000D03*
X141240000Y-88076000D03*
X128540000Y-121096000D03*
X77740000Y-89890000D03*
X85360000Y-79730000D03*
X110760000Y-67756000D03*
X72660000Y-64490000D03*
X126000000Y-115290000D03*
X143780000Y-125450000D03*
X85360000Y-87350000D03*
X146320000Y-122910000D03*
X148860000Y-84810000D03*
X87900000Y-79730000D03*
X143780000Y-100050000D03*
X98070000Y-63070000D03*
X87900000Y-77190000D03*
X110760000Y-105130000D03*
X103860000Y-53720000D03*
X108220000Y-117830000D03*
X126000000Y-120370000D03*
X110760000Y-94970000D03*
X85330000Y-63100000D03*
X77740000Y-82270000D03*
X92980000Y-64490000D03*
X128540000Y-56870000D03*
X108220000Y-94970000D03*
X62500000Y-56870000D03*
X80280000Y-61950000D03*
X143780000Y-115290000D03*
X128540000Y-93156000D03*
X118380000Y-80456000D03*
X143780000Y-130530000D03*
X143780000Y-117830000D03*
X52340000Y-61950000D03*
X133620000Y-54330000D03*
X80280000Y-87350000D03*
X103140000Y-61950000D03*
X108220000Y-80456000D03*
X98060000Y-98236000D03*
X89040000Y-108920000D03*
X95520000Y-64490000D03*
X148860000Y-97510000D03*
X128540000Y-85536000D03*
X128540000Y-115290000D03*
X120920000Y-125450000D03*
X118380000Y-100776000D03*
X134980000Y-100020000D03*
X87900000Y-84810000D03*
X141240000Y-107670000D03*
X89910000Y-98000000D03*
X134870000Y-110050000D03*
X98060000Y-72110000D03*
X110760000Y-110210000D03*
X103140000Y-92430000D03*
X148860000Y-89890000D03*
X141240000Y-77190000D03*
X81990000Y-61780000D03*
X126000000Y-88076000D03*
X146320000Y-117830000D03*
X143780000Y-107670000D03*
X128540000Y-105856000D03*
X110760000Y-64490000D03*
X62500000Y-67030000D03*
X135160000Y-94040000D03*
X148860000Y-79730000D03*
X106400000Y-53720000D03*
X103140000Y-60136000D03*
X103140000Y-87350000D03*
X59960000Y-54330000D03*
X141240000Y-98236000D03*
X80280000Y-84810000D03*
X57420000Y-51790000D03*
X54880000Y-64490000D03*
X108220000Y-122910000D03*
X134870000Y-112590000D03*
X138700000Y-54330000D03*
X146320000Y-102590000D03*
X141240000Y-117830000D03*
X62500000Y-64490000D03*
X97280000Y-108860000D03*
X86280000Y-96400000D03*
X90440000Y-64490000D03*
X138700000Y-100050000D03*
X131080000Y-54330000D03*
X100660000Y-59920000D03*
X126000000Y-100050000D03*
X108220000Y-105130000D03*
X89910000Y-101040000D03*
X148860000Y-82270000D03*
X92980000Y-67756000D03*
X148860000Y-127990000D03*
X101320000Y-53720000D03*
X136160000Y-90616000D03*
X113300000Y-120370000D03*
X87930000Y-63100000D03*
X134980000Y-102560000D03*
X95520000Y-79730000D03*
X141240000Y-85536000D03*
X117760000Y-65290000D03*
X75200000Y-64490000D03*
X128550000Y-98130000D03*
X81440000Y-97990000D03*
X118380000Y-105130000D03*
X128540000Y-59410000D03*
X110760000Y-87350000D03*
X108220000Y-67756000D03*
X128540000Y-95696000D03*
X148860000Y-56870000D03*
X54900000Y-57530000D03*
X110760000Y-120370000D03*
X141240000Y-59410000D03*
X138700000Y-102590000D03*
X143780000Y-112750000D03*
X85360000Y-72110000D03*
X118380000Y-92430000D03*
X141240000Y-110210000D03*
X100600000Y-72110000D03*
X148860000Y-112750000D03*
X85360000Y-77190000D03*
X118380000Y-87350000D03*
X148860000Y-100050000D03*
X113300000Y-107670000D03*
X138700000Y-122910000D03*
X146320000Y-120370000D03*
X110760000Y-112750000D03*
X148860000Y-125450000D03*
X72660000Y-61950000D03*
X143780000Y-98236000D03*
X80280000Y-69570000D03*
X103140000Y-94970000D03*
X87900000Y-70296000D03*
X80280000Y-60136000D03*
X143780000Y-77190000D03*
X146320000Y-127990000D03*
X72660000Y-67030000D03*
X110760000Y-70296000D03*
X118380000Y-112750000D03*
X148860000Y-92430000D03*
X126000000Y-93156000D03*
X92980000Y-70296000D03*
X143780000Y-61950000D03*
X113300000Y-115290000D03*
X108220000Y-84810000D03*
X113300000Y-110210000D03*
X148860000Y-110210000D03*
X80280000Y-67030000D03*
X77740000Y-94970000D03*
X108220000Y-87350000D03*
X87900000Y-87350000D03*
X135240000Y-77260000D03*
X141240000Y-105130000D03*
X113300000Y-100776000D03*
X108220000Y-125450000D03*
X110760000Y-80456000D03*
X108220000Y-61950000D03*
X138700000Y-85536000D03*
X148860000Y-102590000D03*
X141240000Y-55056000D03*
X148860000Y-59410000D03*
X95520000Y-70296000D03*
X95520000Y-84810000D03*
X141240000Y-112750000D03*
X94590000Y-53740000D03*
X110760000Y-61950000D03*
X143780000Y-74650000D03*
X62500000Y-51790000D03*
X118380000Y-117830000D03*
X84780000Y-107940000D03*
X146320000Y-112750000D03*
X59960000Y-60136000D03*
X141240000Y-93156000D03*
X75200000Y-67030000D03*
X80280000Y-77190000D03*
X126030000Y-76930000D03*
X138700000Y-98236000D03*
X110760000Y-122910000D03*
X94560000Y-96270000D03*
X126000000Y-90616000D03*
X136160000Y-54330000D03*
X59960000Y-67030000D03*
X148860000Y-94970000D03*
X80280000Y-79730000D03*
X118380000Y-120370000D03*
X108220000Y-89890000D03*
X108220000Y-120370000D03*
X143780000Y-110210000D03*
X126000000Y-112750000D03*
X141240000Y-122910000D03*
X62500000Y-61950000D03*
X148860000Y-51790000D03*
X113300000Y-105130000D03*
X126000000Y-102590000D03*
X148860000Y-117830000D03*
X113300000Y-117830000D03*
X95520000Y-87350000D03*
X138700000Y-88076000D03*
X57420000Y-60136000D03*
X148860000Y-72110000D03*
X87900000Y-67756000D03*
X146320000Y-110210000D03*
X100600000Y-70296000D03*
X141240000Y-120370000D03*
X52340000Y-59410000D03*
X118380000Y-82270000D03*
X85360000Y-64490000D03*
X143780000Y-67030000D03*
X128540000Y-54330000D03*
X126000000Y-74650000D03*
X57420000Y-54330000D03*
X136160000Y-88076000D03*
X59960000Y-64490000D03*
X143780000Y-105130000D03*
X90440000Y-70296000D03*
X128540000Y-90616000D03*
X108220000Y-92430000D03*
X100670000Y-57710000D03*
X136160000Y-85536000D03*
X103140000Y-67756000D03*
X108220000Y-102590000D03*
X108240000Y-57520000D03*
X92980000Y-107670000D03*
X52340000Y-64490000D03*
X89510000Y-53740000D03*
X57420000Y-61950000D03*
X100600000Y-67756000D03*
X132700000Y-74720000D03*
D27*
%TO.N,+5V*%
X69210000Y-52340000D03*
X68140000Y-52310000D03*
X114010000Y-98120000D03*
D28*
%TO.N,+3V3*%
X138340000Y-63570000D03*
X136640000Y-63570000D03*
D26*
%TO.N,/SDA*%
X142770000Y-66560000D03*
X125060000Y-66540000D03*
X79740000Y-72720000D03*
%TO.N,/SCL*%
X137490000Y-68850000D03*
X125060000Y-68860000D03*
%TO.N,/RL3*%
X131492500Y-79250000D03*
X130000000Y-79250000D03*
%TO.N,/SDI*%
X122150000Y-87970000D03*
%TO.N,/RESET*%
X132360000Y-126840000D03*
X123215360Y-121276120D03*
%TO.N,/Buzzer*%
X133660000Y-100970000D03*
X131470000Y-100950000D03*
%TD*%
D29*
%TO.N,+5V*%
X69260000Y-52290000D02*
X109018680Y-52290000D01*
X110079340Y-52729340D02*
X113570660Y-56220660D01*
X114010000Y-57281320D02*
X114010000Y-98120000D01*
X69210000Y-52340000D02*
X69260000Y-52290000D01*
X109018680Y-52290000D02*
G75*
G02*
X110079350Y-52729330I20J-1500000D01*
G01*
X113570660Y-56220660D02*
G75*
G02*
X114009986Y-57281320I-1060660J-1060640D01*
G01*
D30*
%TO.N,+3V3*%
X106629340Y-128591340D02*
X108428660Y-130390660D01*
X109489320Y-130830000D02*
X139618680Y-130830000D01*
X98860000Y-58900000D02*
X104035786Y-58900000D01*
X140679340Y-130390660D02*
X142100000Y-128970000D01*
X136640000Y-63570000D02*
X138340000Y-63570000D01*
X142100000Y-128970000D02*
X142100000Y-128340000D01*
X104742893Y-59192893D02*
X105897107Y-60347107D01*
X106190000Y-61054214D02*
X106190000Y-127530680D01*
X106190000Y-127530680D02*
G75*
G03*
X106629330Y-128591350I1500000J-20D01*
G01*
X105897107Y-60347107D02*
G75*
G02*
X106189990Y-61054214I-707107J-707093D01*
G01*
X104035786Y-58900000D02*
G75*
G02*
X104742900Y-59192886I14J-1000000D01*
G01*
X108428660Y-130390660D02*
G75*
G03*
X109489320Y-130829986I1060640J1060660D01*
G01*
X139618680Y-130830000D02*
G75*
G03*
X140679350Y-130390670I20J1500000D01*
G01*
D31*
%TO.N,NEUTRAL*%
X69030000Y-115088427D02*
X69030000Y-116730000D01*
X65550000Y-110800000D02*
X65570000Y-110800000D01*
X65570000Y-110800000D02*
X68444214Y-113674214D01*
X61530000Y-124520000D02*
X68750000Y-124520000D01*
X69030000Y-115088427D02*
G75*
G03*
X68444228Y-113674200I-2000000J27D01*
G01*
%TO.N,LINE*%
X59210000Y-134800000D02*
X59210000Y-129460000D01*
X59210000Y-129460000D02*
X59150000Y-129400000D01*
D32*
%TO.N,/SDA*%
X125060000Y-66540000D02*
X142750000Y-66540000D01*
X142750000Y-66540000D02*
X142770000Y-66560000D01*
X79770000Y-72750000D02*
X79770000Y-75040000D01*
X79740000Y-72720000D02*
X79770000Y-72750000D01*
X79770000Y-75040000D02*
X77900000Y-76910000D01*
%TO.N,/SCL*%
X137480000Y-68860000D02*
X137490000Y-68850000D01*
X125060000Y-68860000D02*
X137480000Y-68860000D01*
D31*
%TO.N,Net-(PS1-AC{slash}N)*%
X65332893Y-103582893D02*
X65550000Y-103800000D01*
X65000000Y-97200000D02*
X65040000Y-97240000D01*
X65040000Y-97240000D02*
X65040000Y-102875786D01*
X65332893Y-103582893D02*
G75*
G02*
X65040010Y-102875786I707107J707093D01*
G01*
%TO.N,Net-(PS1-AC{slash}L)*%
X57580000Y-103800000D02*
X59414214Y-101965786D01*
X57550000Y-103800000D02*
X57580000Y-103800000D01*
X60000000Y-100551573D02*
X60000000Y-97200000D01*
X60000000Y-100551573D02*
G75*
G02*
X59414228Y-101965800I-2000000J-27D01*
G01*
%TO.N,LOAD-1*%
X78210000Y-134800000D02*
X78210000Y-129475000D01*
X78210000Y-129475000D02*
X78047500Y-129312500D01*
%TO.N,LOAD-2*%
X87710000Y-134800000D02*
X87730000Y-134780000D01*
X87730000Y-134780000D02*
X87730000Y-130530000D01*
X87730000Y-130530000D02*
X86530000Y-129330000D01*
%TO.N,LOAD-3*%
X97210000Y-134800000D02*
X97210000Y-131685000D01*
X97210000Y-131685000D02*
X94762500Y-129237500D01*
D32*
%TO.N,/RL3*%
X131492500Y-79250000D02*
X130000000Y-79250000D01*
%TO.N,/T_CLK*%
X119240000Y-128340000D02*
X119240000Y-128250000D01*
X119240000Y-128250000D02*
X117420000Y-126430000D01*
X117420000Y-75500000D02*
X120200000Y-72720000D01*
X117420000Y-126430000D02*
X117420000Y-75500000D01*
%TO.N,/T_IRQ*%
X115280000Y-122280000D02*
X109220000Y-128340000D01*
X115280000Y-62400000D02*
X115280000Y-122280000D01*
X109220000Y-128340000D02*
X109080000Y-128340000D01*
X120200000Y-57480000D02*
X115280000Y-62400000D01*
%TO.N,/SDI*%
X122150000Y-87970000D02*
X120210000Y-87970000D01*
X120210000Y-87970000D02*
X120200000Y-87960000D01*
%TO.N,/CS*%
X137020000Y-128340000D02*
X137020000Y-93410000D01*
X139930000Y-90500000D02*
X145600000Y-90500000D01*
X137020000Y-93410000D02*
X139930000Y-90500000D01*
%TO.N,/SDO*%
X145600000Y-70180000D02*
X145590000Y-70170000D01*
X125620000Y-70190000D02*
X123900000Y-71910000D01*
X123900000Y-126220000D02*
X121780000Y-128340000D01*
X145590000Y-70180000D02*
X145580000Y-70190000D01*
X145580000Y-70190000D02*
X125620000Y-70190000D01*
X145590000Y-70170000D02*
X145590000Y-70180000D01*
X123900000Y-71910000D02*
X123900000Y-126220000D01*
%TO.N,/T_DO*%
X115870000Y-64450000D02*
X115870000Y-124070000D01*
X115870000Y-124070000D02*
X111620000Y-128320000D01*
X120200000Y-60020000D02*
X120200000Y-60120000D01*
X111620000Y-128320000D02*
X111620000Y-128340000D01*
X120200000Y-60120000D02*
X115870000Y-64450000D01*
%TO.N,/LED*%
X124540000Y-85280000D02*
X124540000Y-128120000D01*
X124540000Y-128120000D02*
X124320000Y-128340000D01*
X126940000Y-82880000D02*
X124540000Y-85280000D01*
X145600000Y-82880000D02*
X126940000Y-82880000D01*
%TO.N,/RESET*%
X132440000Y-126840000D02*
X133940000Y-128340000D01*
X123215360Y-121276120D02*
X123110000Y-121170760D01*
X123110000Y-57850000D02*
X120200000Y-54940000D01*
X123110000Y-121170760D02*
X123110000Y-57850000D01*
X132360000Y-126840000D02*
X132440000Y-126840000D01*
X133940000Y-128340000D02*
X134480000Y-128340000D01*
%TO.N,/T_CS*%
X116920000Y-73460000D02*
X120200000Y-70180000D01*
X116700000Y-128340000D02*
X116920000Y-128120000D01*
X116920000Y-128120000D02*
X116920000Y-73460000D01*
%TO.N,/T_DIN*%
X116400000Y-71430000D02*
X116400000Y-125770000D01*
X116400000Y-125770000D02*
X114160000Y-128010000D01*
X114160000Y-128010000D02*
X114160000Y-128340000D01*
X120200000Y-67640000D02*
X120190000Y-67640000D01*
X120190000Y-67640000D02*
X116400000Y-71430000D01*
D31*
%TO.N,Net-(C10-Pad1)*%
X57550000Y-110820000D02*
X57550000Y-110800000D01*
X54050000Y-116750000D02*
X54030000Y-116730000D01*
X54030000Y-116730000D02*
X54030000Y-115168427D01*
X54050000Y-128200000D02*
X54050000Y-116750000D01*
X54615787Y-113754213D02*
X57550000Y-110820000D01*
X54030000Y-115168427D02*
G75*
G02*
X54615773Y-113754199I2000000J27D01*
G01*
D32*
%TO.N,/Buzzer*%
X133640000Y-100950000D02*
X133660000Y-100970000D01*
X131470000Y-100950000D02*
X133640000Y-100950000D01*
%TD*%
%TA.AperFunction,Conductor*%
%TO.N,GND*%
G36*
X149425000Y-50520462D02*
G01*
X149479538Y-50575000D01*
X149499500Y-50649500D01*
X149499500Y-131450665D01*
X149479538Y-131525165D01*
X149425000Y-131579703D01*
X149350500Y-131599665D01*
X149350471Y-131599665D01*
X140850291Y-131598016D01*
X140775795Y-131578039D01*
X140721268Y-131523491D01*
X140701320Y-131448987D01*
X140721297Y-131374491D01*
X140771046Y-131322855D01*
X140952003Y-131209156D01*
X141154019Y-131048056D01*
X141189622Y-131012453D01*
X141189629Y-131012449D01*
X141245374Y-130956704D01*
X141304867Y-130897212D01*
X141304867Y-130897210D01*
X141317129Y-130884949D01*
X141317133Y-130884944D01*
X142585637Y-129616439D01*
X142623346Y-129589042D01*
X142807816Y-129495051D01*
X142979792Y-129370104D01*
X143130104Y-129219792D01*
X143255051Y-129047816D01*
X143351557Y-128858412D01*
X143417246Y-128656243D01*
X143450500Y-128446287D01*
X143450500Y-128233713D01*
X143417246Y-128023757D01*
X143351557Y-127821588D01*
X143255051Y-127632184D01*
X143130104Y-127460208D01*
X142979792Y-127309896D01*
X142807816Y-127184949D01*
X142618412Y-127088443D01*
X142416243Y-127022754D01*
X142206287Y-126989500D01*
X141993713Y-126989500D01*
X141818749Y-127017211D01*
X141783756Y-127022754D01*
X141581594Y-127088441D01*
X141581588Y-127088443D01*
X141581582Y-127088445D01*
X141581582Y-127088446D01*
X141392182Y-127184950D01*
X141392181Y-127184950D01*
X141220209Y-127309895D01*
X141220206Y-127309897D01*
X141069897Y-127460206D01*
X141069895Y-127460209D01*
X140944950Y-127632181D01*
X140944950Y-127632182D01*
X140848446Y-127821582D01*
X140848441Y-127821594D01*
X140805369Y-127954157D01*
X140782754Y-128023757D01*
X140749500Y-128233713D01*
X140749500Y-128446287D01*
X140782754Y-128656243D01*
X140848443Y-128858412D01*
X140848446Y-128858417D01*
X140877290Y-128915027D01*
X140893326Y-128990470D01*
X140869492Y-129063823D01*
X140849889Y-129088031D01*
X140118488Y-129819433D01*
X140107653Y-129829253D01*
X140018650Y-129902295D01*
X139994363Y-129918523D01*
X139899319Y-129969324D01*
X139872332Y-129980502D01*
X139769197Y-130011786D01*
X139740549Y-130017484D01*
X139625819Y-130028782D01*
X139611219Y-130029499D01*
X139572911Y-130029499D01*
X139534555Y-130029499D01*
X139534550Y-130029499D01*
X139527189Y-130029500D01*
X139527188Y-130029499D01*
X139527187Y-130029500D01*
X109580813Y-130029500D01*
X109580793Y-130029499D01*
X109496630Y-130029499D01*
X109482028Y-130028782D01*
X109367447Y-130017499D01*
X109338799Y-130011801D01*
X109240830Y-129982084D01*
X109175332Y-129941356D01*
X109138973Y-129873335D01*
X109141495Y-129796249D01*
X109182223Y-129730751D01*
X109250244Y-129694392D01*
X109284080Y-129690499D01*
X109977864Y-129690499D01*
X109977872Y-129690499D01*
X110037483Y-129684091D01*
X110133447Y-129648298D01*
X110172329Y-129633797D01*
X110172333Y-129633795D01*
X110232347Y-129588868D01*
X110287546Y-129547546D01*
X110332407Y-129487619D01*
X110373795Y-129432333D01*
X110373798Y-129432327D01*
X110405126Y-129348331D01*
X110409215Y-129337366D01*
X110453953Y-129274540D01*
X110524110Y-129242498D01*
X110600889Y-129249829D01*
X110654180Y-129284076D01*
X110740208Y-129370104D01*
X110912184Y-129495051D01*
X111101588Y-129591557D01*
X111303757Y-129657246D01*
X111513713Y-129690500D01*
X111513718Y-129690500D01*
X111726282Y-129690500D01*
X111726287Y-129690500D01*
X111936243Y-129657246D01*
X112138412Y-129591557D01*
X112327816Y-129495051D01*
X112499792Y-129370104D01*
X112650104Y-129219792D01*
X112769456Y-129055517D01*
X112829396Y-129006979D01*
X112905574Y-128994913D01*
X112977580Y-129022553D01*
X113010544Y-129055517D01*
X113129896Y-129219792D01*
X113280208Y-129370104D01*
X113452184Y-129495051D01*
X113641588Y-129591557D01*
X113843757Y-129657246D01*
X114053713Y-129690500D01*
X114053718Y-129690500D01*
X114266282Y-129690500D01*
X114266287Y-129690500D01*
X114476243Y-129657246D01*
X114678412Y-129591557D01*
X114867816Y-129495051D01*
X115039792Y-129370104D01*
X115190104Y-129219792D01*
X115309456Y-129055517D01*
X115369396Y-129006979D01*
X115445574Y-128994913D01*
X115517580Y-129022553D01*
X115550544Y-129055517D01*
X115669896Y-129219792D01*
X115820208Y-129370104D01*
X115992184Y-129495051D01*
X116181588Y-129591557D01*
X116383757Y-129657246D01*
X116593713Y-129690500D01*
X116593718Y-129690500D01*
X116806282Y-129690500D01*
X116806287Y-129690500D01*
X117016243Y-129657246D01*
X117218412Y-129591557D01*
X117407816Y-129495051D01*
X117579792Y-129370104D01*
X117730104Y-129219792D01*
X117849456Y-129055517D01*
X117909396Y-129006979D01*
X117985574Y-128994913D01*
X118057580Y-129022553D01*
X118090544Y-129055517D01*
X118209896Y-129219792D01*
X118360208Y-129370104D01*
X118532184Y-129495051D01*
X118721588Y-129591557D01*
X118923757Y-129657246D01*
X119133713Y-129690500D01*
X119133718Y-129690500D01*
X119346282Y-129690500D01*
X119346287Y-129690500D01*
X119556243Y-129657246D01*
X119758412Y-129591557D01*
X119947816Y-129495051D01*
X120119792Y-129370104D01*
X120270104Y-129219792D01*
X120389456Y-129055517D01*
X120449396Y-129006979D01*
X120525574Y-128994913D01*
X120597580Y-129022553D01*
X120630544Y-129055517D01*
X120749896Y-129219792D01*
X120900208Y-129370104D01*
X121072184Y-129495051D01*
X121261588Y-129591557D01*
X121463757Y-129657246D01*
X121673713Y-129690500D01*
X121673718Y-129690500D01*
X121886282Y-129690500D01*
X121886287Y-129690500D01*
X122096243Y-129657246D01*
X122298412Y-129591557D01*
X122487816Y-129495051D01*
X122659792Y-129370104D01*
X122810104Y-129219792D01*
X122929456Y-129055517D01*
X122989396Y-129006979D01*
X123065574Y-128994913D01*
X123137580Y-129022553D01*
X123170544Y-129055517D01*
X123289896Y-129219792D01*
X123440208Y-129370104D01*
X123612184Y-129495051D01*
X123801588Y-129591557D01*
X124003757Y-129657246D01*
X124213713Y-129690500D01*
X124213718Y-129690500D01*
X124426282Y-129690500D01*
X124426287Y-129690500D01*
X124636243Y-129657246D01*
X124838412Y-129591557D01*
X125027816Y-129495051D01*
X125199792Y-129370104D01*
X125350104Y-129219792D01*
X125469456Y-129055517D01*
X125529396Y-129006979D01*
X125605574Y-128994913D01*
X125677580Y-129022553D01*
X125710544Y-129055517D01*
X125829896Y-129219792D01*
X125980208Y-129370104D01*
X126152184Y-129495051D01*
X126341588Y-129591557D01*
X126543757Y-129657246D01*
X126753713Y-129690500D01*
X126753718Y-129690500D01*
X126966282Y-129690500D01*
X126966287Y-129690500D01*
X127176243Y-129657246D01*
X127378412Y-129591557D01*
X127567816Y-129495051D01*
X127739792Y-129370104D01*
X127890104Y-129219792D01*
X128009456Y-129055517D01*
X128069396Y-129006979D01*
X128145574Y-128994913D01*
X128217580Y-129022553D01*
X128250544Y-129055517D01*
X128369896Y-129219792D01*
X128520208Y-129370104D01*
X128692184Y-129495051D01*
X128881588Y-129591557D01*
X129083757Y-129657246D01*
X129293713Y-129690500D01*
X129293718Y-129690500D01*
X129506282Y-129690500D01*
X129506287Y-129690500D01*
X129716243Y-129657246D01*
X129918412Y-129591557D01*
X130107816Y-129495051D01*
X130279792Y-129370104D01*
X130430104Y-129219792D01*
X130549456Y-129055517D01*
X130609396Y-129006979D01*
X130685574Y-128994913D01*
X130757580Y-129022553D01*
X130790544Y-129055517D01*
X130909896Y-129219792D01*
X131060208Y-129370104D01*
X131232184Y-129495051D01*
X131421588Y-129591557D01*
X131623757Y-129657246D01*
X131833713Y-129690500D01*
X131833718Y-129690500D01*
X132046282Y-129690500D01*
X132046287Y-129690500D01*
X132256243Y-129657246D01*
X132458412Y-129591557D01*
X132647816Y-129495051D01*
X132819792Y-129370104D01*
X132970104Y-129219792D01*
X133089456Y-129055517D01*
X133149396Y-129006979D01*
X133225574Y-128994913D01*
X133297580Y-129022553D01*
X133330544Y-129055517D01*
X133449896Y-129219792D01*
X133600208Y-129370104D01*
X133772184Y-129495051D01*
X133961588Y-129591557D01*
X134163757Y-129657246D01*
X134373713Y-129690500D01*
X134373718Y-129690500D01*
X134586282Y-129690500D01*
X134586287Y-129690500D01*
X134796243Y-129657246D01*
X134998412Y-129591557D01*
X135187816Y-129495051D01*
X135359792Y-129370104D01*
X135510104Y-129219792D01*
X135629456Y-129055517D01*
X135689396Y-129006979D01*
X135765574Y-128994913D01*
X135837580Y-129022553D01*
X135870544Y-129055517D01*
X135989896Y-129219792D01*
X136140208Y-129370104D01*
X136312184Y-129495051D01*
X136501588Y-129591557D01*
X136703757Y-129657246D01*
X136913713Y-129690500D01*
X136913718Y-129690500D01*
X137126282Y-129690500D01*
X137126287Y-129690500D01*
X137336243Y-129657246D01*
X137538412Y-129591557D01*
X137727816Y-129495051D01*
X137899792Y-129370104D01*
X138050104Y-129219792D01*
X138175051Y-129047816D01*
X138271557Y-128858412D01*
X138337246Y-128656243D01*
X138370500Y-128446287D01*
X138370500Y-128233713D01*
X138337246Y-128023757D01*
X138271557Y-127821588D01*
X138175051Y-127632184D01*
X138050104Y-127460208D01*
X137899792Y-127309896D01*
X137814139Y-127247666D01*
X137731920Y-127187930D01*
X137683382Y-127127990D01*
X137670500Y-127067386D01*
X137670500Y-93741164D01*
X137690462Y-93666664D01*
X137714141Y-93635805D01*
X140155805Y-91194141D01*
X140222600Y-91155577D01*
X140261164Y-91150500D01*
X144432453Y-91150500D01*
X144506953Y-91170462D01*
X144552996Y-91211920D01*
X144634731Y-91324418D01*
X144775582Y-91465269D01*
X144775585Y-91465271D01*
X144936729Y-91582350D01*
X144936730Y-91582350D01*
X144936734Y-91582353D01*
X145044456Y-91637240D01*
X145101773Y-91688849D01*
X145125607Y-91762202D01*
X145109571Y-91837645D01*
X145057962Y-91894962D01*
X145044456Y-91902760D01*
X144936732Y-91957648D01*
X144936729Y-91957649D01*
X144775585Y-92074728D01*
X144634728Y-92215585D01*
X144517649Y-92376729D01*
X144517648Y-92376732D01*
X144427218Y-92554211D01*
X144427211Y-92554226D01*
X144365661Y-92743658D01*
X144365661Y-92743660D01*
X144365661Y-92743661D01*
X144334500Y-92940403D01*
X144334500Y-93139597D01*
X144365661Y-93336339D01*
X144365661Y-93336341D01*
X144427211Y-93525773D01*
X144427213Y-93525778D01*
X144427215Y-93525783D01*
X144505510Y-93679446D01*
X144517648Y-93703267D01*
X144517649Y-93703270D01*
X144552765Y-93751602D01*
X144634731Y-93864418D01*
X144775582Y-94005269D01*
X144775585Y-94005271D01*
X144936729Y-94122350D01*
X144936730Y-94122350D01*
X144936734Y-94122353D01*
X145044456Y-94177240D01*
X145101773Y-94228849D01*
X145125607Y-94302202D01*
X145109571Y-94377645D01*
X145057962Y-94434962D01*
X145044456Y-94442760D01*
X144936732Y-94497648D01*
X144936729Y-94497649D01*
X144775585Y-94614728D01*
X144634728Y-94755585D01*
X144517649Y-94916729D01*
X144517648Y-94916732D01*
X144427218Y-95094211D01*
X144427211Y-95094226D01*
X144365661Y-95283658D01*
X144365661Y-95283660D01*
X144365661Y-95283661D01*
X144334500Y-95480403D01*
X144334500Y-95679597D01*
X144355064Y-95809432D01*
X144365661Y-95876339D01*
X144365661Y-95876341D01*
X144427211Y-96065773D01*
X144427213Y-96065778D01*
X144427215Y-96065783D01*
X144517265Y-96242517D01*
X144517648Y-96243267D01*
X144517649Y-96243270D01*
X144634728Y-96404414D01*
X144634731Y-96404418D01*
X144775582Y-96545269D01*
X144775585Y-96545271D01*
X144936729Y-96662350D01*
X144936730Y-96662350D01*
X144936734Y-96662353D01*
X145044456Y-96717240D01*
X145101773Y-96768849D01*
X145125607Y-96842202D01*
X145109571Y-96917645D01*
X145057962Y-96974962D01*
X145044456Y-96982760D01*
X144936732Y-97037648D01*
X144936729Y-97037649D01*
X144775585Y-97154728D01*
X144634728Y-97295585D01*
X144517649Y-97456729D01*
X144517648Y-97456732D01*
X144427218Y-97634211D01*
X144427211Y-97634226D01*
X144365661Y-97823658D01*
X144365661Y-97823660D01*
X144365661Y-97823661D01*
X144334500Y-98020403D01*
X144334500Y-98219597D01*
X144359541Y-98377700D01*
X144365661Y-98416339D01*
X144365661Y-98416341D01*
X144427211Y-98605773D01*
X144427213Y-98605778D01*
X144427215Y-98605783D01*
X144473584Y-98696788D01*
X144517648Y-98783267D01*
X144517649Y-98783270D01*
X144634728Y-98944414D01*
X144634731Y-98944418D01*
X144775582Y-99085269D01*
X144775585Y-99085271D01*
X144936729Y-99202350D01*
X144936730Y-99202350D01*
X144936734Y-99202353D01*
X145114217Y-99292785D01*
X145303661Y-99354339D01*
X145500403Y-99385500D01*
X145500407Y-99385500D01*
X145699593Y-99385500D01*
X145699597Y-99385500D01*
X145896339Y-99354339D01*
X146085783Y-99292785D01*
X146263266Y-99202353D01*
X146424418Y-99085269D01*
X146565269Y-98944418D01*
X146682353Y-98783266D01*
X146772785Y-98605783D01*
X146834339Y-98416339D01*
X146865500Y-98219597D01*
X146865500Y-98020403D01*
X146834339Y-97823661D01*
X146772785Y-97634217D01*
X146682353Y-97456734D01*
X146682350Y-97456730D01*
X146682350Y-97456729D01*
X146591160Y-97331218D01*
X146565269Y-97295582D01*
X146424418Y-97154731D01*
X146424414Y-97154728D01*
X146263270Y-97037649D01*
X146263262Y-97037645D01*
X146155544Y-96982760D01*
X146098226Y-96931151D01*
X146074392Y-96857798D01*
X146090428Y-96782356D01*
X146142037Y-96725038D01*
X146155544Y-96717240D01*
X146263266Y-96662353D01*
X146424418Y-96545269D01*
X146565269Y-96404418D01*
X146682353Y-96243266D01*
X146772785Y-96065783D01*
X146834339Y-95876339D01*
X146865500Y-95679597D01*
X146865500Y-95480403D01*
X146834339Y-95283661D01*
X146772785Y-95094217D01*
X146682353Y-94916734D01*
X146682350Y-94916730D01*
X146682350Y-94916729D01*
X146565271Y-94755585D01*
X146565269Y-94755582D01*
X146424418Y-94614731D01*
X146424414Y-94614728D01*
X146263270Y-94497649D01*
X146263262Y-94497645D01*
X146155544Y-94442760D01*
X146098226Y-94391151D01*
X146074392Y-94317798D01*
X146090428Y-94242356D01*
X146142037Y-94185038D01*
X146155544Y-94177240D01*
X146263266Y-94122353D01*
X146424418Y-94005269D01*
X146565269Y-93864418D01*
X146682353Y-93703266D01*
X146772785Y-93525783D01*
X146834339Y-93336339D01*
X146865500Y-93139597D01*
X146865500Y-92940403D01*
X146834339Y-92743661D01*
X146772785Y-92554217D01*
X146682353Y-92376734D01*
X146682350Y-92376730D01*
X146682350Y-92376729D01*
X146565271Y-92215585D01*
X146565269Y-92215582D01*
X146424418Y-92074731D01*
X146424414Y-92074728D01*
X146263270Y-91957649D01*
X146263262Y-91957645D01*
X146199141Y-91924974D01*
X146155543Y-91902759D01*
X146098226Y-91851151D01*
X146074392Y-91777798D01*
X146090428Y-91702356D01*
X146142037Y-91645038D01*
X146155544Y-91637240D01*
X146263266Y-91582353D01*
X146424418Y-91465269D01*
X146565269Y-91324418D01*
X146682353Y-91163266D01*
X146772785Y-90985783D01*
X146834339Y-90796339D01*
X146865500Y-90599597D01*
X146865500Y-90400403D01*
X146834339Y-90203661D01*
X146772785Y-90014217D01*
X146682353Y-89836734D01*
X146682350Y-89836730D01*
X146682350Y-89836729D01*
X146591160Y-89711218D01*
X146565269Y-89675582D01*
X146424418Y-89534731D01*
X146424414Y-89534728D01*
X146263270Y-89417649D01*
X146263262Y-89417645D01*
X146155544Y-89362760D01*
X146098226Y-89311151D01*
X146074392Y-89237798D01*
X146090428Y-89162356D01*
X146142037Y-89105038D01*
X146155544Y-89097240D01*
X146263266Y-89042353D01*
X146424418Y-88925269D01*
X146565269Y-88784418D01*
X146682353Y-88623266D01*
X146772785Y-88445783D01*
X146834339Y-88256339D01*
X146865500Y-88059597D01*
X146865500Y-87860403D01*
X146834339Y-87663661D01*
X146772785Y-87474217D01*
X146682353Y-87296734D01*
X146682350Y-87296730D01*
X146682350Y-87296729D01*
X146585088Y-87162861D01*
X146565269Y-87135582D01*
X146424418Y-86994731D01*
X146424414Y-86994728D01*
X146263270Y-86877649D01*
X146263262Y-86877645D01*
X146155544Y-86822760D01*
X146098226Y-86771151D01*
X146074392Y-86697798D01*
X146090428Y-86622356D01*
X146142037Y-86565038D01*
X146155544Y-86557240D01*
X146263266Y-86502353D01*
X146424418Y-86385269D01*
X146565269Y-86244418D01*
X146682353Y-86083266D01*
X146772785Y-85905783D01*
X146834339Y-85716339D01*
X146865500Y-85519597D01*
X146865500Y-85320403D01*
X146834339Y-85123661D01*
X146772785Y-84934217D01*
X146682353Y-84756734D01*
X146682350Y-84756730D01*
X146682350Y-84756729D01*
X146565271Y-84595585D01*
X146565269Y-84595582D01*
X146424418Y-84454731D01*
X146424414Y-84454728D01*
X146263270Y-84337649D01*
X146263262Y-84337645D01*
X146155544Y-84282760D01*
X146098226Y-84231151D01*
X146074392Y-84157798D01*
X146090428Y-84082356D01*
X146142037Y-84025038D01*
X146155544Y-84017240D01*
X146263266Y-83962353D01*
X146424418Y-83845269D01*
X146565269Y-83704418D01*
X146682353Y-83543266D01*
X146772785Y-83365783D01*
X146834339Y-83176339D01*
X146865500Y-82979597D01*
X146865500Y-82780403D01*
X146834339Y-82583661D01*
X146772785Y-82394217D01*
X146682353Y-82216734D01*
X146682350Y-82216730D01*
X146682350Y-82216729D01*
X146591160Y-82091218D01*
X146565269Y-82055582D01*
X146424418Y-81914731D01*
X146424414Y-81914728D01*
X146263270Y-81797649D01*
X146263262Y-81797645D01*
X146155544Y-81742760D01*
X146098226Y-81691151D01*
X146074392Y-81617798D01*
X146090428Y-81542356D01*
X146142037Y-81485038D01*
X146155544Y-81477240D01*
X146263266Y-81422353D01*
X146424418Y-81305269D01*
X146565269Y-81164418D01*
X146682353Y-81003266D01*
X146772785Y-80825783D01*
X146834339Y-80636339D01*
X146865500Y-80439597D01*
X146865500Y-80240403D01*
X146834339Y-80043661D01*
X146787823Y-79900500D01*
X146772788Y-79854226D01*
X146772787Y-79854225D01*
X146772785Y-79854217D01*
X146682353Y-79676734D01*
X146682350Y-79676730D01*
X146682350Y-79676729D01*
X146565271Y-79515585D01*
X146565269Y-79515582D01*
X146424418Y-79374731D01*
X146424414Y-79374728D01*
X146263270Y-79257649D01*
X146263262Y-79257645D01*
X146155544Y-79202760D01*
X146098226Y-79151151D01*
X146074392Y-79077798D01*
X146090428Y-79002356D01*
X146142037Y-78945038D01*
X146155544Y-78937240D01*
X146263266Y-78882353D01*
X146424418Y-78765269D01*
X146565269Y-78624418D01*
X146682353Y-78463266D01*
X146772785Y-78285783D01*
X146834339Y-78096339D01*
X146865500Y-77899597D01*
X146865500Y-77700403D01*
X146834339Y-77503661D01*
X146772785Y-77314217D01*
X146682353Y-77136734D01*
X146682350Y-77136730D01*
X146682350Y-77136729D01*
X146565271Y-76975585D01*
X146565269Y-76975582D01*
X146424418Y-76834731D01*
X146381731Y-76803717D01*
X146263270Y-76717649D01*
X146263262Y-76717645D01*
X146155544Y-76662760D01*
X146098226Y-76611151D01*
X146074392Y-76537798D01*
X146090428Y-76462356D01*
X146142037Y-76405038D01*
X146155544Y-76397240D01*
X146166625Y-76391594D01*
X146263266Y-76342353D01*
X146424418Y-76225269D01*
X146565269Y-76084418D01*
X146682353Y-75923266D01*
X146772785Y-75745783D01*
X146834339Y-75556339D01*
X146865500Y-75359597D01*
X146865500Y-75160403D01*
X146834339Y-74963661D01*
X146772785Y-74774217D01*
X146682353Y-74596734D01*
X146682350Y-74596730D01*
X146682350Y-74596729D01*
X146565271Y-74435585D01*
X146565269Y-74435582D01*
X146424418Y-74294731D01*
X146381731Y-74263717D01*
X146263270Y-74177649D01*
X146263262Y-74177645D01*
X146155544Y-74122760D01*
X146098226Y-74071151D01*
X146074392Y-73997798D01*
X146090428Y-73922356D01*
X146142037Y-73865038D01*
X146155544Y-73857240D01*
X146166625Y-73851594D01*
X146263266Y-73802353D01*
X146424418Y-73685269D01*
X146565269Y-73544418D01*
X146682353Y-73383266D01*
X146772785Y-73205783D01*
X146834339Y-73016339D01*
X146865500Y-72819597D01*
X146865500Y-72620403D01*
X146834339Y-72423661D01*
X146772785Y-72234217D01*
X146682353Y-72056734D01*
X146682350Y-72056730D01*
X146682350Y-72056729D01*
X146565271Y-71895585D01*
X146565269Y-71895582D01*
X146424418Y-71754731D01*
X146424414Y-71754728D01*
X146263270Y-71637649D01*
X146263262Y-71637645D01*
X146155544Y-71582760D01*
X146098226Y-71531151D01*
X146074392Y-71457798D01*
X146090428Y-71382356D01*
X146142037Y-71325038D01*
X146155544Y-71317240D01*
X146263266Y-71262353D01*
X146424418Y-71145269D01*
X146565269Y-71004418D01*
X146682353Y-70843266D01*
X146772785Y-70665783D01*
X146834339Y-70476339D01*
X146865500Y-70279597D01*
X146865500Y-70080403D01*
X146834339Y-69883661D01*
X146772785Y-69694217D01*
X146682353Y-69516734D01*
X146682350Y-69516730D01*
X146682350Y-69516729D01*
X146576876Y-69371558D01*
X146565269Y-69355582D01*
X146424418Y-69214731D01*
X146335467Y-69150104D01*
X146263270Y-69097649D01*
X146263267Y-69097648D01*
X146263268Y-69097648D01*
X146263266Y-69097647D01*
X146085783Y-69007215D01*
X146085778Y-69007213D01*
X146085773Y-69007211D01*
X145896340Y-68945661D01*
X145853286Y-68938842D01*
X145699597Y-68914500D01*
X145500403Y-68914500D01*
X145346714Y-68938842D01*
X145303660Y-68945661D01*
X145303658Y-68945661D01*
X145114226Y-69007211D01*
X145114211Y-69007218D01*
X144936732Y-69097648D01*
X144936729Y-69097649D01*
X144775585Y-69214728D01*
X144634733Y-69355580D01*
X144634724Y-69355591D01*
X144545731Y-69478080D01*
X144485792Y-69526618D01*
X144425188Y-69539500D01*
X138270803Y-69539500D01*
X138196303Y-69519538D01*
X138141765Y-69465000D01*
X138121803Y-69390500D01*
X138141765Y-69316000D01*
X138146915Y-69307719D01*
X138168743Y-69275051D01*
X138199394Y-69229179D01*
X138259737Y-69083497D01*
X138290500Y-68928842D01*
X138290500Y-68771158D01*
X138259737Y-68616503D01*
X138199394Y-68470821D01*
X138111789Y-68339711D01*
X138000289Y-68228211D01*
X137869179Y-68140606D01*
X137869178Y-68140605D01*
X137869176Y-68140604D01*
X137723498Y-68080263D01*
X137723494Y-68080262D01*
X137568842Y-68049500D01*
X137411158Y-68049500D01*
X137256505Y-68080262D01*
X137256501Y-68080263D01*
X137110822Y-68140605D01*
X137110819Y-68140606D01*
X137045295Y-68184389D01*
X136972261Y-68209181D01*
X136962515Y-68209500D01*
X125572519Y-68209500D01*
X125498019Y-68189538D01*
X125489739Y-68184389D01*
X125439180Y-68150606D01*
X125439177Y-68150605D01*
X125293498Y-68090263D01*
X125293494Y-68090262D01*
X125138842Y-68059500D01*
X124981158Y-68059500D01*
X124826505Y-68090262D01*
X124826501Y-68090263D01*
X124680823Y-68150604D01*
X124630261Y-68184389D01*
X124567563Y-68226283D01*
X124549707Y-68238214D01*
X124438214Y-68349707D01*
X124438211Y-68349710D01*
X124438211Y-68349711D01*
X124428111Y-68364827D01*
X124350604Y-68480823D01*
X124290263Y-68626501D01*
X124290262Y-68626505D01*
X124259500Y-68781157D01*
X124259500Y-68938842D01*
X124290262Y-69093494D01*
X124290263Y-69093498D01*
X124350604Y-69239176D01*
X124350605Y-69239178D01*
X124350606Y-69239179D01*
X124438211Y-69370289D01*
X124549711Y-69481789D01*
X124680821Y-69569394D01*
X124826503Y-69629737D01*
X124902362Y-69644826D01*
X124914938Y-69647328D01*
X124984113Y-69681441D01*
X125026963Y-69745571D01*
X125032007Y-69822533D01*
X124997894Y-69891708D01*
X124991229Y-69898824D01*
X124014859Y-70875195D01*
X123948064Y-70913759D01*
X123870936Y-70913759D01*
X123804141Y-70875195D01*
X123765577Y-70808400D01*
X123760500Y-70769836D01*
X123760500Y-66461157D01*
X124259500Y-66461157D01*
X124259500Y-66618842D01*
X124290262Y-66773494D01*
X124290263Y-66773498D01*
X124350604Y-66919176D01*
X124350605Y-66919178D01*
X124350606Y-66919179D01*
X124438211Y-67050289D01*
X124549711Y-67161789D01*
X124680821Y-67249394D01*
X124680822Y-67249394D01*
X124680823Y-67249395D01*
X124729108Y-67269395D01*
X124826503Y-67309737D01*
X124981158Y-67340500D01*
X125138842Y-67340500D01*
X125293497Y-67309737D01*
X125439179Y-67249394D01*
X125489739Y-67215611D01*
X125562773Y-67190819D01*
X125572519Y-67190500D01*
X142227549Y-67190500D01*
X142302049Y-67210462D01*
X142310329Y-67215611D01*
X142390819Y-67269393D01*
X142390820Y-67269393D01*
X142390821Y-67269394D01*
X142536503Y-67329737D01*
X142691158Y-67360500D01*
X142848842Y-67360500D01*
X143003497Y-67329737D01*
X143149179Y-67269394D01*
X143280289Y-67181789D01*
X143391789Y-67070289D01*
X143479394Y-66939179D01*
X143539737Y-66793497D01*
X143570500Y-66638842D01*
X143570500Y-66481158D01*
X143539737Y-66326503D01*
X143479394Y-66180821D01*
X143391789Y-66049711D01*
X143280289Y-65938211D01*
X143149179Y-65850606D01*
X143149178Y-65850605D01*
X143149176Y-65850604D01*
X143003498Y-65790263D01*
X143003494Y-65790262D01*
X142848842Y-65759500D01*
X142691158Y-65759500D01*
X142536505Y-65790262D01*
X142536501Y-65790263D01*
X142390822Y-65850605D01*
X142390816Y-65850608D01*
X142370194Y-65864388D01*
X142297159Y-65889181D01*
X142287413Y-65889500D01*
X125572519Y-65889500D01*
X125498019Y-65869538D01*
X125489739Y-65864389D01*
X125439180Y-65830606D01*
X125439177Y-65830605D01*
X125293498Y-65770263D01*
X125293494Y-65770262D01*
X125138842Y-65739500D01*
X124981158Y-65739500D01*
X124826505Y-65770262D01*
X124826501Y-65770263D01*
X124680823Y-65830604D01*
X124549707Y-65918214D01*
X124438214Y-66029707D01*
X124438211Y-66029710D01*
X124438211Y-66029711D01*
X124414452Y-66065269D01*
X124350604Y-66160823D01*
X124290263Y-66306501D01*
X124290262Y-66306505D01*
X124259500Y-66461157D01*
X123760500Y-66461157D01*
X123760500Y-63471460D01*
X135639500Y-63471460D01*
X135639500Y-63668539D01*
X135677948Y-63861834D01*
X135677949Y-63861836D01*
X135753367Y-64043912D01*
X135753368Y-64043915D01*
X135814048Y-64134728D01*
X135862861Y-64207782D01*
X136002218Y-64347139D01*
X136037658Y-64370819D01*
X136166084Y-64456631D01*
X136166085Y-64456631D01*
X136166086Y-64456632D01*
X136348165Y-64532051D01*
X136541459Y-64570500D01*
X136541460Y-64570500D01*
X136738540Y-64570500D01*
X136738541Y-64570500D01*
X136931835Y-64532051D01*
X137113914Y-64456632D01*
X137143701Y-64436729D01*
X137205240Y-64395611D01*
X137278275Y-64370819D01*
X137288019Y-64370500D01*
X137691981Y-64370500D01*
X137766481Y-64390462D01*
X137774760Y-64395611D01*
X137866076Y-64456626D01*
X137866080Y-64456628D01*
X137866086Y-64456632D01*
X138048165Y-64532051D01*
X138241459Y-64570500D01*
X138241460Y-64570500D01*
X138438540Y-64570500D01*
X138438541Y-64570500D01*
X138631835Y-64532051D01*
X138813914Y-64456632D01*
X138977782Y-64347139D01*
X139117139Y-64207782D01*
X139226632Y-64043914D01*
X139302051Y-63861835D01*
X139340500Y-63668541D01*
X139340500Y-63471459D01*
X139302051Y-63278165D01*
X139226632Y-63096086D01*
X139117139Y-62932218D01*
X138977782Y-62792861D01*
X138922911Y-62756197D01*
X138813915Y-62683368D01*
X138813912Y-62683367D01*
X138631836Y-62607949D01*
X138631834Y-62607948D01*
X138476989Y-62577147D01*
X138438541Y-62569500D01*
X138241459Y-62569500D01*
X138209389Y-62575878D01*
X138048165Y-62607948D01*
X138048163Y-62607949D01*
X137866094Y-62683364D01*
X137866076Y-62683373D01*
X137774760Y-62744389D01*
X137701725Y-62769181D01*
X137691981Y-62769500D01*
X137288019Y-62769500D01*
X137213519Y-62749538D01*
X137205240Y-62744389D01*
X137113923Y-62683373D01*
X137113916Y-62683369D01*
X137113914Y-62683368D01*
X137113908Y-62683365D01*
X137113905Y-62683364D01*
X136931836Y-62607949D01*
X136931834Y-62607948D01*
X136776989Y-62577147D01*
X136738541Y-62569500D01*
X136541459Y-62569500D01*
X136509389Y-62575878D01*
X136348165Y-62607948D01*
X136348163Y-62607949D01*
X136166087Y-62683367D01*
X136166084Y-62683368D01*
X136002219Y-62792860D01*
X136002214Y-62792864D01*
X135862864Y-62932214D01*
X135862860Y-62932219D01*
X135753368Y-63096084D01*
X135753367Y-63096087D01*
X135677949Y-63278163D01*
X135677948Y-63278165D01*
X135639500Y-63471460D01*
X123760500Y-63471460D01*
X123760500Y-57878706D01*
X130149500Y-57878706D01*
X130149500Y-58121293D01*
X130181160Y-58361781D01*
X130181161Y-58361787D01*
X130181162Y-58361789D01*
X130240638Y-58583756D01*
X130243947Y-58596103D01*
X130275736Y-58672849D01*
X130325801Y-58793717D01*
X130336778Y-58820216D01*
X130352366Y-58847215D01*
X130458064Y-59030289D01*
X130605735Y-59222738D01*
X130777262Y-59394265D01*
X130969711Y-59541936D01*
X131179788Y-59663224D01*
X131403900Y-59756054D01*
X131638211Y-59818838D01*
X131638217Y-59818838D01*
X131638218Y-59818839D01*
X131703600Y-59827446D01*
X131878712Y-59850500D01*
X132121288Y-59850500D01*
X132361789Y-59818838D01*
X132596100Y-59756054D01*
X132820212Y-59663224D01*
X133030289Y-59541936D01*
X133222738Y-59394265D01*
X133394265Y-59222738D01*
X133541936Y-59030289D01*
X133663224Y-58820212D01*
X133756054Y-58596100D01*
X133818838Y-58361789D01*
X133850500Y-58121288D01*
X133850500Y-57878712D01*
X133818838Y-57638211D01*
X133756054Y-57403900D01*
X133663224Y-57179788D01*
X133541936Y-56969711D01*
X133394265Y-56777262D01*
X133222738Y-56605735D01*
X133030289Y-56458064D01*
X132925647Y-56397649D01*
X132820216Y-56336778D01*
X132820214Y-56336777D01*
X132820212Y-56336776D01*
X132677457Y-56277645D01*
X132596103Y-56243947D01*
X132596101Y-56243946D01*
X132596100Y-56243946D01*
X132361789Y-56181162D01*
X132361787Y-56181161D01*
X132361781Y-56181160D01*
X132121293Y-56149500D01*
X132121288Y-56149500D01*
X131878712Y-56149500D01*
X131878706Y-56149500D01*
X131638218Y-56181160D01*
X131403896Y-56243947D01*
X131179783Y-56336778D01*
X130969712Y-56458063D01*
X130969711Y-56458064D01*
X130777262Y-56605735D01*
X130777260Y-56605736D01*
X130777256Y-56605740D01*
X130605740Y-56777256D01*
X130605736Y-56777260D01*
X130605735Y-56777262D01*
X130515135Y-56895335D01*
X130458063Y-56969712D01*
X130336778Y-57179783D01*
X130243947Y-57403896D01*
X130181160Y-57638218D01*
X130149500Y-57878706D01*
X123760500Y-57878706D01*
X123760500Y-57785935D01*
X123760499Y-57785927D01*
X123754323Y-57754881D01*
X123735501Y-57660256D01*
X123686465Y-57541873D01*
X123615276Y-57435330D01*
X121485553Y-55305607D01*
X121446989Y-55238812D01*
X121443746Y-55176944D01*
X121465500Y-55039597D01*
X121465500Y-54840403D01*
X144334500Y-54840403D01*
X144334500Y-55039597D01*
X144352375Y-55152452D01*
X144365661Y-55236339D01*
X144365661Y-55236341D01*
X144427211Y-55425773D01*
X144427213Y-55425778D01*
X144427215Y-55425783D01*
X144511589Y-55591377D01*
X144517648Y-55603267D01*
X144517649Y-55603270D01*
X144561209Y-55663224D01*
X144634731Y-55764418D01*
X144775582Y-55905269D01*
X144775585Y-55905271D01*
X144936729Y-56022350D01*
X144936730Y-56022350D01*
X144936734Y-56022353D01*
X145030023Y-56069886D01*
X145044456Y-56077240D01*
X145101773Y-56128849D01*
X145125607Y-56202202D01*
X145109571Y-56277645D01*
X145057962Y-56334962D01*
X145044456Y-56342760D01*
X144936732Y-56397648D01*
X144936729Y-56397649D01*
X144775585Y-56514728D01*
X144634728Y-56655585D01*
X144517649Y-56816729D01*
X144517648Y-56816732D01*
X144427218Y-56994211D01*
X144427211Y-56994226D01*
X144365661Y-57183658D01*
X144365661Y-57183660D01*
X144365661Y-57183661D01*
X144334500Y-57380403D01*
X144334500Y-57579597D01*
X144357057Y-57722016D01*
X144365661Y-57776339D01*
X144365661Y-57776341D01*
X144427211Y-57965773D01*
X144427213Y-57965778D01*
X144427215Y-57965783D01*
X144511042Y-58130303D01*
X144517648Y-58143267D01*
X144517649Y-58143270D01*
X144618230Y-58281706D01*
X144634731Y-58304418D01*
X144775582Y-58445269D01*
X144775585Y-58445271D01*
X144936729Y-58562350D01*
X144936730Y-58562350D01*
X144936734Y-58562353D01*
X145044456Y-58617240D01*
X145101773Y-58668849D01*
X145125607Y-58742202D01*
X145109571Y-58817645D01*
X145057962Y-58874962D01*
X145044456Y-58882760D01*
X144936732Y-58937648D01*
X144936729Y-58937649D01*
X144775585Y-59054728D01*
X144634728Y-59195585D01*
X144517649Y-59356729D01*
X144517648Y-59356732D01*
X144427218Y-59534211D01*
X144427211Y-59534226D01*
X144365661Y-59723658D01*
X144365661Y-59723660D01*
X144358988Y-59765793D01*
X144334500Y-59920403D01*
X144334500Y-60119597D01*
X144349966Y-60217245D01*
X144365661Y-60316339D01*
X144365661Y-60316341D01*
X144427211Y-60505773D01*
X144427213Y-60505778D01*
X144427215Y-60505783D01*
X144427218Y-60505788D01*
X144517648Y-60683267D01*
X144517649Y-60683270D01*
X144531411Y-60702211D01*
X144634731Y-60844418D01*
X144775582Y-60985269D01*
X144775585Y-60985271D01*
X144936729Y-61102350D01*
X144936730Y-61102350D01*
X144936734Y-61102353D01*
X145025307Y-61147483D01*
X145044456Y-61157240D01*
X145101773Y-61208849D01*
X145125607Y-61282202D01*
X145109571Y-61357645D01*
X145057962Y-61414962D01*
X145044456Y-61422760D01*
X144936732Y-61477648D01*
X144936729Y-61477649D01*
X144775585Y-61594728D01*
X144634728Y-61735585D01*
X144517649Y-61896729D01*
X144517648Y-61896732D01*
X144427218Y-62074211D01*
X144427211Y-62074226D01*
X144365661Y-62263658D01*
X144365661Y-62263660D01*
X144365661Y-62263661D01*
X144334500Y-62460403D01*
X144334500Y-62659597D01*
X144351907Y-62769500D01*
X144365661Y-62856339D01*
X144365661Y-62856341D01*
X144427211Y-63045773D01*
X144427213Y-63045778D01*
X144427215Y-63045783D01*
X144513534Y-63215194D01*
X144517648Y-63223267D01*
X144517649Y-63223270D01*
X144634728Y-63384414D01*
X144634731Y-63384418D01*
X144775582Y-63525269D01*
X144775585Y-63525271D01*
X144936729Y-63642350D01*
X144936730Y-63642350D01*
X144936734Y-63642353D01*
X145044456Y-63697240D01*
X145101773Y-63748849D01*
X145125607Y-63822202D01*
X145109571Y-63897645D01*
X145057962Y-63954962D01*
X145044456Y-63962760D01*
X144936732Y-64017648D01*
X144936729Y-64017649D01*
X144775585Y-64134728D01*
X144634728Y-64275585D01*
X144517649Y-64436729D01*
X144517648Y-64436732D01*
X144427218Y-64614211D01*
X144427211Y-64614226D01*
X144365661Y-64803658D01*
X144365661Y-64803660D01*
X144365661Y-64803661D01*
X144334500Y-65000403D01*
X144334500Y-65199597D01*
X144365661Y-65396339D01*
X144365661Y-65396341D01*
X144427211Y-65585773D01*
X144427213Y-65585778D01*
X144427215Y-65585783D01*
X144515728Y-65759500D01*
X144517648Y-65763267D01*
X144517649Y-65763270D01*
X144634728Y-65924414D01*
X144634731Y-65924418D01*
X144775582Y-66065269D01*
X144775585Y-66065271D01*
X144936729Y-66182350D01*
X144936730Y-66182350D01*
X144936734Y-66182353D01*
X145114217Y-66272785D01*
X145303661Y-66334339D01*
X145500403Y-66365500D01*
X145500407Y-66365500D01*
X145699593Y-66365500D01*
X145699597Y-66365500D01*
X145896339Y-66334339D01*
X146085783Y-66272785D01*
X146263266Y-66182353D01*
X146424418Y-66065269D01*
X146565269Y-65924418D01*
X146682353Y-65763266D01*
X146772785Y-65585783D01*
X146834339Y-65396339D01*
X146865500Y-65199597D01*
X146865500Y-65000403D01*
X146834339Y-64803661D01*
X146806976Y-64719446D01*
X146772788Y-64614226D01*
X146772787Y-64614225D01*
X146772785Y-64614217D01*
X146682353Y-64436734D01*
X146682350Y-64436730D01*
X146682350Y-64436729D01*
X146565271Y-64275585D01*
X146565269Y-64275582D01*
X146424418Y-64134731D01*
X146424414Y-64134728D01*
X146263270Y-64017649D01*
X146263262Y-64017645D01*
X146155544Y-63962760D01*
X146098226Y-63911151D01*
X146074392Y-63837798D01*
X146090428Y-63762356D01*
X146142037Y-63705038D01*
X146155544Y-63697240D01*
X146263266Y-63642353D01*
X146424418Y-63525269D01*
X146565269Y-63384418D01*
X146682353Y-63223266D01*
X146772785Y-63045783D01*
X146834339Y-62856339D01*
X146865500Y-62659597D01*
X146865500Y-62460403D01*
X146834339Y-62263661D01*
X146772785Y-62074217D01*
X146682353Y-61896734D01*
X146682350Y-61896730D01*
X146682350Y-61896729D01*
X146565271Y-61735585D01*
X146565269Y-61735582D01*
X146424418Y-61594731D01*
X146424414Y-61594728D01*
X146263270Y-61477649D01*
X146263262Y-61477645D01*
X146155544Y-61422760D01*
X146098226Y-61371151D01*
X146074392Y-61297798D01*
X146090428Y-61222356D01*
X146142037Y-61165038D01*
X146155544Y-61157240D01*
X146174693Y-61147483D01*
X146263266Y-61102353D01*
X146424418Y-60985269D01*
X146565269Y-60844418D01*
X146682353Y-60683266D01*
X146772785Y-60505783D01*
X146834339Y-60316339D01*
X146865500Y-60119597D01*
X146865500Y-59920403D01*
X146834339Y-59723661D01*
X146772785Y-59534217D01*
X146682353Y-59356734D01*
X146682350Y-59356730D01*
X146682350Y-59356729D01*
X146565271Y-59195585D01*
X146565269Y-59195582D01*
X146424418Y-59054731D01*
X146357734Y-59006282D01*
X146263270Y-58937649D01*
X146263262Y-58937645D01*
X146155544Y-58882760D01*
X146098226Y-58831151D01*
X146074392Y-58757798D01*
X146090428Y-58682356D01*
X146142037Y-58625038D01*
X146155544Y-58617240D01*
X146263266Y-58562353D01*
X146424418Y-58445269D01*
X146565269Y-58304418D01*
X146682353Y-58143266D01*
X146772785Y-57965783D01*
X146834339Y-57776339D01*
X146865500Y-57579597D01*
X146865500Y-57380403D01*
X146834339Y-57183661D01*
X146772785Y-56994217D01*
X146682353Y-56816734D01*
X146682350Y-56816730D01*
X146682350Y-56816729D01*
X146565271Y-56655585D01*
X146565269Y-56655582D01*
X146424418Y-56514731D01*
X146346423Y-56458064D01*
X146263270Y-56397649D01*
X146263262Y-56397645D01*
X146155544Y-56342760D01*
X146098226Y-56291151D01*
X146074392Y-56217798D01*
X146090428Y-56142356D01*
X146142037Y-56085038D01*
X146155544Y-56077240D01*
X146169977Y-56069886D01*
X146263266Y-56022353D01*
X146424418Y-55905269D01*
X146565269Y-55764418D01*
X146682353Y-55603266D01*
X146772785Y-55425783D01*
X146834339Y-55236339D01*
X146865500Y-55039597D01*
X146865500Y-54840403D01*
X146834339Y-54643661D01*
X146772785Y-54454217D01*
X146682353Y-54276734D01*
X146682350Y-54276730D01*
X146682350Y-54276729D01*
X146565271Y-54115585D01*
X146565269Y-54115582D01*
X146424418Y-53974731D01*
X146365084Y-53931622D01*
X146263270Y-53857649D01*
X146263267Y-53857648D01*
X146263268Y-53857648D01*
X146263266Y-53857647D01*
X146085783Y-53767215D01*
X146085778Y-53767213D01*
X146085773Y-53767211D01*
X145896340Y-53705661D01*
X145856990Y-53699428D01*
X145699597Y-53674500D01*
X145500403Y-53674500D01*
X145343009Y-53699428D01*
X145303660Y-53705661D01*
X145303658Y-53705661D01*
X145114226Y-53767211D01*
X145114211Y-53767218D01*
X144936732Y-53857648D01*
X144936729Y-53857649D01*
X144775585Y-53974728D01*
X144634728Y-54115585D01*
X144517649Y-54276729D01*
X144517648Y-54276732D01*
X144427218Y-54454211D01*
X144427211Y-54454226D01*
X144365661Y-54643658D01*
X144365661Y-54643660D01*
X144365661Y-54643661D01*
X144334500Y-54840403D01*
X121465500Y-54840403D01*
X121434339Y-54643661D01*
X121372785Y-54454217D01*
X121282353Y-54276734D01*
X121282350Y-54276730D01*
X121282350Y-54276729D01*
X121165271Y-54115585D01*
X121165269Y-54115582D01*
X121024418Y-53974731D01*
X120965084Y-53931622D01*
X120916546Y-53871681D01*
X120904481Y-53795503D01*
X120932122Y-53723498D01*
X120992063Y-53674960D01*
X121036733Y-53662933D01*
X121072483Y-53659091D01*
X121139907Y-53633943D01*
X121207329Y-53608797D01*
X121207333Y-53608795D01*
X121264938Y-53565671D01*
X121322546Y-53522546D01*
X121390285Y-53432059D01*
X121408795Y-53407333D01*
X121408797Y-53407329D01*
X121437685Y-53329875D01*
X121459091Y-53272483D01*
X121461376Y-53251228D01*
X121465499Y-53212885D01*
X121465499Y-53212882D01*
X121465500Y-53212873D01*
X121465499Y-51587128D01*
X121459091Y-51527517D01*
X121437856Y-51470583D01*
X121408797Y-51392670D01*
X121408795Y-51392666D01*
X121322547Y-51277455D01*
X121322544Y-51277452D01*
X121207333Y-51191204D01*
X121207329Y-51191202D01*
X121072482Y-51140908D01*
X121012876Y-51134500D01*
X119387136Y-51134500D01*
X119387111Y-51134502D01*
X119327521Y-51140908D01*
X119327515Y-51140909D01*
X119192670Y-51191202D01*
X119192666Y-51191204D01*
X119077455Y-51277452D01*
X119077452Y-51277455D01*
X118991204Y-51392666D01*
X118991202Y-51392670D01*
X118940908Y-51527517D01*
X118934500Y-51587114D01*
X118934500Y-53212863D01*
X118934502Y-53212888D01*
X118940908Y-53272478D01*
X118940909Y-53272484D01*
X118991202Y-53407329D01*
X118991204Y-53407333D01*
X119077452Y-53522544D01*
X119077455Y-53522547D01*
X119192666Y-53608795D01*
X119192670Y-53608797D01*
X119327517Y-53659091D01*
X119363260Y-53662934D01*
X119435199Y-53690745D01*
X119483595Y-53750800D01*
X119495479Y-53827007D01*
X119467668Y-53898946D01*
X119434915Y-53931622D01*
X119375588Y-53974726D01*
X119375580Y-53974733D01*
X119234728Y-54115585D01*
X119117649Y-54276729D01*
X119117648Y-54276732D01*
X119027218Y-54454211D01*
X119027211Y-54454226D01*
X118965661Y-54643658D01*
X118965661Y-54643660D01*
X118965661Y-54643661D01*
X118934500Y-54840403D01*
X118934500Y-55039597D01*
X118952375Y-55152452D01*
X118965661Y-55236339D01*
X118965661Y-55236341D01*
X119027211Y-55425773D01*
X119027213Y-55425778D01*
X119027215Y-55425783D01*
X119111589Y-55591377D01*
X119117648Y-55603267D01*
X119117649Y-55603270D01*
X119161209Y-55663224D01*
X119234731Y-55764418D01*
X119375582Y-55905269D01*
X119375585Y-55905271D01*
X119536729Y-56022350D01*
X119536730Y-56022350D01*
X119536734Y-56022353D01*
X119630023Y-56069886D01*
X119644456Y-56077240D01*
X119701773Y-56128849D01*
X119725607Y-56202202D01*
X119709571Y-56277645D01*
X119657962Y-56334962D01*
X119644456Y-56342760D01*
X119536732Y-56397648D01*
X119536729Y-56397649D01*
X119375585Y-56514728D01*
X119234728Y-56655585D01*
X119117649Y-56816729D01*
X119117648Y-56816732D01*
X119027218Y-56994211D01*
X119027211Y-56994226D01*
X118965661Y-57183658D01*
X118965661Y-57183660D01*
X118965661Y-57183661D01*
X118934500Y-57380403D01*
X118934500Y-57579597D01*
X118951862Y-57689215D01*
X118956253Y-57716939D01*
X118948190Y-57793644D01*
X118914446Y-57845606D01*
X115264859Y-61495194D01*
X115198064Y-61533758D01*
X115120936Y-61533758D01*
X115054141Y-61495194D01*
X115015577Y-61428399D01*
X115010500Y-61389835D01*
X115010500Y-57175450D01*
X115010486Y-57175174D01*
X115010486Y-57169814D01*
X115010487Y-57140908D01*
X114979045Y-56861824D01*
X114916554Y-56588015D01*
X114823798Y-56322924D01*
X114808497Y-56291151D01*
X114701946Y-56069888D01*
X114672079Y-56022354D01*
X114552526Y-55832082D01*
X114377421Y-55612503D01*
X114347801Y-55582883D01*
X114347799Y-55582879D01*
X114299083Y-55534163D01*
X114299080Y-55534158D01*
X114208246Y-55443323D01*
X114208206Y-55443286D01*
X110857558Y-52092638D01*
X110852353Y-52087432D01*
X110852350Y-52087428D01*
X110830441Y-52065519D01*
X110830413Y-52065471D01*
X110687511Y-51922572D01*
X110687507Y-51922568D01*
X110467927Y-51747462D01*
X110230121Y-51598042D01*
X110230118Y-51598040D01*
X109977085Y-51476189D01*
X109977072Y-51476184D01*
X109711997Y-51383434D01*
X109711990Y-51383432D01*
X109711989Y-51383432D01*
X109614568Y-51361197D01*
X109438175Y-51320939D01*
X109159092Y-51289498D01*
X109018667Y-51289500D01*
X69561784Y-51289500D01*
X69515740Y-51282207D01*
X69501112Y-51277454D01*
X69467701Y-51266598D01*
X69296611Y-51239500D01*
X69123389Y-51239500D01*
X69057037Y-51250009D01*
X68952299Y-51266597D01*
X68787561Y-51320125D01*
X68787555Y-51320127D01*
X68787551Y-51320128D01*
X68787546Y-51320131D01*
X68772078Y-51328012D01*
X68696635Y-51344044D01*
X68636796Y-51328010D01*
X68562451Y-51290130D01*
X68562450Y-51290129D01*
X68562445Y-51290127D01*
X68490028Y-51266597D01*
X68397700Y-51236597D01*
X68300086Y-51221137D01*
X68226611Y-51209500D01*
X68053389Y-51209500D01*
X67987037Y-51220009D01*
X67882299Y-51236597D01*
X67719491Y-51289498D01*
X67717555Y-51290127D01*
X67717549Y-51290129D01*
X67717549Y-51290130D01*
X67563206Y-51368771D01*
X67423075Y-51470583D01*
X67300583Y-51593075D01*
X67198771Y-51733206D01*
X67120130Y-51887549D01*
X67120125Y-51887561D01*
X67066597Y-52052299D01*
X67051203Y-52149500D01*
X67039500Y-52223389D01*
X67039500Y-52396611D01*
X67049233Y-52458063D01*
X67066597Y-52567700D01*
X67104653Y-52684821D01*
X67120127Y-52732445D01*
X67142963Y-52777262D01*
X67198771Y-52886793D01*
X67259015Y-52969711D01*
X67300586Y-53026928D01*
X67423072Y-53149414D01*
X67423075Y-53149416D01*
X67510415Y-53212873D01*
X67563212Y-53251232D01*
X67717555Y-53329873D01*
X67882299Y-53383402D01*
X68053389Y-53410500D01*
X68053393Y-53410500D01*
X68226607Y-53410500D01*
X68226611Y-53410500D01*
X68397701Y-53383402D01*
X68562445Y-53329873D01*
X68577912Y-53321991D01*
X68653353Y-53305953D01*
X68713201Y-53321988D01*
X68787555Y-53359873D01*
X68952299Y-53413402D01*
X69123389Y-53440500D01*
X69123393Y-53440500D01*
X69296607Y-53440500D01*
X69296611Y-53440500D01*
X69467701Y-53413402D01*
X69632445Y-53359873D01*
X69736725Y-53306739D01*
X69804369Y-53290500D01*
X108925978Y-53290500D01*
X108925983Y-53290501D01*
X109011372Y-53290500D01*
X109025973Y-53291217D01*
X109101543Y-53298659D01*
X109130184Y-53304356D01*
X109158454Y-53312931D01*
X109195803Y-53324261D01*
X109222783Y-53335435D01*
X109283267Y-53367764D01*
X109307548Y-53383988D01*
X109366123Y-53432059D01*
X109376956Y-53441877D01*
X109404664Y-53469584D01*
X112830417Y-56895337D01*
X112858017Y-56922938D01*
X112867836Y-56933772D01*
X112897330Y-56969712D01*
X112915999Y-56992460D01*
X112932226Y-57016747D01*
X112964549Y-57077221D01*
X112975726Y-57104205D01*
X112995628Y-57169814D01*
X113001327Y-57198465D01*
X113008782Y-57274177D01*
X113009499Y-57288778D01*
X113009499Y-57381364D01*
X113009500Y-57381385D01*
X113009500Y-97623761D01*
X112993261Y-97691403D01*
X112990132Y-97697542D01*
X112990125Y-97697561D01*
X112936597Y-97862299D01*
X112918228Y-97978282D01*
X112909500Y-98033389D01*
X112909500Y-98206611D01*
X112911557Y-98219597D01*
X112936597Y-98377700D01*
X112949152Y-98416339D01*
X112990127Y-98542445D01*
X112990130Y-98542450D01*
X113068771Y-98696793D01*
X113131598Y-98783266D01*
X113170586Y-98836928D01*
X113293072Y-98959414D01*
X113433212Y-99061232D01*
X113587555Y-99139873D01*
X113752299Y-99193402D01*
X113923389Y-99220500D01*
X113923393Y-99220500D01*
X114096607Y-99220500D01*
X114096611Y-99220500D01*
X114267701Y-99193402D01*
X114432445Y-99139873D01*
X114432448Y-99139871D01*
X114434456Y-99139219D01*
X114511478Y-99135182D01*
X114580200Y-99170197D01*
X114622207Y-99234882D01*
X114629500Y-99280926D01*
X114629500Y-121948835D01*
X114609538Y-122023335D01*
X114585859Y-122054194D01*
X109694193Y-126945859D01*
X109627398Y-126984423D01*
X109588834Y-126989500D01*
X108182136Y-126989500D01*
X108182111Y-126989502D01*
X108122521Y-126995908D01*
X108122515Y-126995909D01*
X107987670Y-127046202D01*
X107987666Y-127046204D01*
X107872455Y-127132452D01*
X107872452Y-127132455D01*
X107786204Y-127247666D01*
X107786202Y-127247670D01*
X107735908Y-127382517D01*
X107729500Y-127442114D01*
X107729500Y-128199704D01*
X107709538Y-128274204D01*
X107655000Y-128328742D01*
X107580500Y-128348704D01*
X107506000Y-128328742D01*
X107475141Y-128305063D01*
X107200567Y-128030489D01*
X107190747Y-128019654D01*
X107117704Y-127930650D01*
X107101478Y-127906366D01*
X107050671Y-127811310D01*
X107039499Y-127784337D01*
X107008211Y-127681190D01*
X107002516Y-127652555D01*
X106991217Y-127537819D01*
X106990500Y-127523217D01*
X106990501Y-127446555D01*
X106990500Y-127446550D01*
X106990500Y-60975372D01*
X106990500Y-60967646D01*
X106990490Y-60967458D01*
X106990491Y-60936214D01*
X106959687Y-60702211D01*
X106898603Y-60474231D01*
X106808284Y-60256174D01*
X106805008Y-60250500D01*
X106690278Y-60051775D01*
X106690276Y-60051772D01*
X106546597Y-59864521D01*
X106518899Y-59836823D01*
X106518896Y-59836818D01*
X106463152Y-59781074D01*
X106403659Y-59721580D01*
X106403658Y-59721579D01*
X106398461Y-59716382D01*
X106398450Y-59716372D01*
X105368421Y-58686343D01*
X105368420Y-58686341D01*
X105354959Y-58672881D01*
X105354941Y-58672849D01*
X105225486Y-58543396D01*
X105225479Y-58543391D01*
X105038235Y-58399716D01*
X104948104Y-58347681D01*
X104833831Y-58281707D01*
X104615772Y-58191387D01*
X104615771Y-58191386D01*
X104615767Y-58191385D01*
X104615764Y-58191384D01*
X104387805Y-58130306D01*
X104387795Y-58130304D01*
X104387791Y-58130303D01*
X104153786Y-58099499D01*
X104153782Y-58099499D01*
X104035775Y-58099500D01*
X100023633Y-58099500D01*
X100002446Y-58093823D01*
X99980526Y-58093128D01*
X99968834Y-58084816D01*
X99949133Y-58079538D01*
X99914987Y-58052466D01*
X99908584Y-58045643D01*
X99890104Y-58020208D01*
X99802407Y-57932511D01*
X99800789Y-57930787D01*
X99783647Y-57898795D01*
X99765512Y-57867384D01*
X99765512Y-57864949D01*
X99764362Y-57862803D01*
X99765512Y-57826544D01*
X99765512Y-57790256D01*
X99766729Y-57788146D01*
X99766807Y-57785714D01*
X99785936Y-57754881D01*
X99804077Y-57723462D01*
X99806326Y-57722016D01*
X99807469Y-57720175D01*
X99817831Y-57714622D01*
X99857366Y-57689215D01*
X99888278Y-57677685D01*
X99952327Y-57653798D01*
X99952333Y-57653795D01*
X100009938Y-57610671D01*
X100067546Y-57567546D01*
X100153796Y-57452331D01*
X100160138Y-57435329D01*
X100197123Y-57336164D01*
X100204091Y-57317483D01*
X100207177Y-57288778D01*
X100210499Y-57257885D01*
X100210499Y-57257882D01*
X100210500Y-57257873D01*
X100210499Y-55462128D01*
X100204091Y-55402517D01*
X100167946Y-55305607D01*
X100153797Y-55267670D01*
X100153795Y-55267666D01*
X100067547Y-55152455D01*
X100067544Y-55152452D01*
X99952333Y-55066204D01*
X99952329Y-55066202D01*
X99817482Y-55015908D01*
X99757876Y-55009500D01*
X97962136Y-55009500D01*
X97962111Y-55009502D01*
X97902521Y-55015908D01*
X97902515Y-55015909D01*
X97767670Y-55066202D01*
X97767666Y-55066204D01*
X97652455Y-55152452D01*
X97652452Y-55152455D01*
X97566204Y-55267666D01*
X97566202Y-55267670D01*
X97515908Y-55402517D01*
X97509500Y-55462114D01*
X97509500Y-57257863D01*
X97509502Y-57257888D01*
X97515908Y-57317478D01*
X97515909Y-57317484D01*
X97566202Y-57452329D01*
X97566204Y-57452333D01*
X97652452Y-57567544D01*
X97652455Y-57567547D01*
X97767666Y-57653795D01*
X97767668Y-57653795D01*
X97767669Y-57653796D01*
X97862633Y-57689215D01*
X97925460Y-57733953D01*
X97957501Y-57804111D01*
X97950170Y-57880890D01*
X97915923Y-57934179D01*
X97829904Y-58020198D01*
X97829895Y-58020209D01*
X97704950Y-58192181D01*
X97704950Y-58192182D01*
X97608446Y-58381582D01*
X97608441Y-58381594D01*
X97542754Y-58583756D01*
X97537451Y-58617240D01*
X97509500Y-58793713D01*
X97509500Y-59006287D01*
X97542754Y-59216243D01*
X97608443Y-59418412D01*
X97704949Y-59607816D01*
X97829896Y-59779792D01*
X97980208Y-59930104D01*
X98152184Y-60055051D01*
X98341588Y-60151557D01*
X98543757Y-60217246D01*
X98753713Y-60250500D01*
X98753718Y-60250500D01*
X98966282Y-60250500D01*
X98966287Y-60250500D01*
X99176243Y-60217246D01*
X99378412Y-60151557D01*
X99567816Y-60055051D01*
X99739792Y-59930104D01*
X99890104Y-59779792D01*
X99900275Y-59765793D01*
X99903090Y-59761919D01*
X99963031Y-59713381D01*
X100023633Y-59700500D01*
X103951656Y-59700500D01*
X103951661Y-59700501D01*
X104026031Y-59700500D01*
X104045474Y-59701773D01*
X104067985Y-59704737D01*
X104105549Y-59714801D01*
X104117423Y-59719719D01*
X104151109Y-59739167D01*
X104169061Y-59752942D01*
X104183715Y-59765793D01*
X105324154Y-60906232D01*
X105336999Y-60920878D01*
X105350822Y-60938893D01*
X105370270Y-60972577D01*
X105375187Y-60984448D01*
X105385254Y-61022024D01*
X105388225Y-61044597D01*
X105389499Y-61064040D01*
X105389499Y-61147466D01*
X105389500Y-61147483D01*
X105389500Y-127616324D01*
X105389513Y-127616603D01*
X105389513Y-127659862D01*
X105418439Y-127916621D01*
X105418440Y-127916624D01*
X105475807Y-128167983D01*
X105475935Y-128168541D01*
X105561270Y-128412421D01*
X105561273Y-128412428D01*
X105673377Y-128645222D01*
X105810845Y-128864005D01*
X105810846Y-128864007D01*
X105957429Y-129047818D01*
X105971944Y-129066019D01*
X106007546Y-129101622D01*
X106007551Y-129101629D01*
X106063296Y-129157374D01*
X106122788Y-129216867D01*
X106122790Y-129216868D01*
X107797925Y-130892003D01*
X107797946Y-130892026D01*
X107818972Y-130913051D01*
X107818997Y-130913095D01*
X107862616Y-130956713D01*
X107862616Y-130956714D01*
X107953971Y-131048068D01*
X108155988Y-131209168D01*
X108326860Y-131316531D01*
X108379320Y-131373068D01*
X108396484Y-131448262D01*
X108373751Y-131521964D01*
X108317213Y-131574425D01*
X108247559Y-131591693D01*
X103996784Y-131590869D01*
X103922288Y-131570892D01*
X103867761Y-131516344D01*
X103847813Y-131442252D01*
X103804582Y-114495354D01*
X103804581Y-114495353D01*
X103804582Y-114495353D01*
X103669231Y-114495109D01*
X103594767Y-114475012D01*
X103540328Y-114420376D01*
X103520500Y-114346109D01*
X103520500Y-111422471D01*
X103520500Y-111422468D01*
X103490101Y-111250062D01*
X103430225Y-111085555D01*
X103423584Y-111074053D01*
X103342694Y-110933948D01*
X103342691Y-110933944D01*
X103333271Y-110922718D01*
X103230163Y-110799837D01*
X103210887Y-110783663D01*
X103096055Y-110687308D01*
X103096051Y-110687305D01*
X102944450Y-110599777D01*
X102944437Y-110599772D01*
X102779939Y-110539899D01*
X102779940Y-110539899D01*
X102722469Y-110529766D01*
X102607532Y-110509500D01*
X102585892Y-110509500D01*
X102520000Y-110509500D01*
X102432468Y-110509500D01*
X102317530Y-110529766D01*
X102260060Y-110539899D01*
X102095562Y-110599772D01*
X102095549Y-110599777D01*
X101943948Y-110687305D01*
X101943944Y-110687308D01*
X101809837Y-110799836D01*
X101809836Y-110799837D01*
X101697308Y-110933944D01*
X101697305Y-110933948D01*
X101609777Y-111085549D01*
X101609772Y-111085562D01*
X101549899Y-111250060D01*
X101549899Y-111250062D01*
X101519500Y-111422468D01*
X101519500Y-111422471D01*
X101519500Y-114341959D01*
X101499538Y-114416459D01*
X101445000Y-114470997D01*
X101370500Y-114490959D01*
X101370231Y-114490959D01*
X100216925Y-114488879D01*
X100191322Y-114486616D01*
X100110460Y-114472358D01*
X100037532Y-114459500D01*
X100015892Y-114459500D01*
X83934486Y-114459500D01*
X76055049Y-114445282D01*
X75980585Y-114425185D01*
X75926146Y-114370549D01*
X75906319Y-114296729D01*
X75900068Y-112212997D01*
X75895535Y-110702278D01*
X76647000Y-110702278D01*
X76647000Y-110922722D01*
X76649772Y-110940222D01*
X76681485Y-111140456D01*
X76749605Y-111350106D01*
X76849685Y-111546523D01*
X76849686Y-111546524D01*
X76914471Y-111635693D01*
X76979258Y-111724865D01*
X77135135Y-111880742D01*
X77261197Y-111972331D01*
X77313475Y-112010313D01*
X77313476Y-112010314D01*
X77313478Y-112010315D01*
X77509894Y-112110395D01*
X77575130Y-112131591D01*
X77719543Y-112178514D01*
X77719548Y-112178514D01*
X77719549Y-112178515D01*
X77937278Y-112213000D01*
X77937282Y-112213000D01*
X78157718Y-112213000D01*
X78157722Y-112213000D01*
X78375451Y-112178515D01*
X78375452Y-112178514D01*
X78375456Y-112178514D01*
X78456056Y-112152325D01*
X78585106Y-112110395D01*
X78781522Y-112010315D01*
X78959865Y-111880742D01*
X79115742Y-111724865D01*
X79245315Y-111546522D01*
X79345395Y-111350106D01*
X79403470Y-111171368D01*
X79413514Y-111140456D01*
X79418736Y-111107484D01*
X79448000Y-110922722D01*
X79448000Y-110702278D01*
X79413515Y-110484549D01*
X79413514Y-110484548D01*
X79413514Y-110484543D01*
X79373701Y-110362012D01*
X79345395Y-110274894D01*
X79245315Y-110078478D01*
X79190823Y-110003476D01*
X79150675Y-109948216D01*
X79150673Y-109948213D01*
X79115749Y-109900144D01*
X79115744Y-109900138D01*
X79115742Y-109900135D01*
X79080221Y-109864614D01*
X81347000Y-109864614D01*
X81347000Y-111760363D01*
X81347002Y-111760388D01*
X81353408Y-111819978D01*
X81353409Y-111819984D01*
X81403702Y-111954829D01*
X81403704Y-111954833D01*
X81489952Y-112070044D01*
X81489955Y-112070047D01*
X81605166Y-112156295D01*
X81605170Y-112156297D01*
X81740017Y-112206591D01*
X81799614Y-112212999D01*
X81799618Y-112212999D01*
X81799627Y-112213000D01*
X83695372Y-112212999D01*
X83754983Y-112206591D01*
X83850947Y-112170798D01*
X83889829Y-112156297D01*
X83889833Y-112156295D01*
X83960337Y-112103515D01*
X84005046Y-112070046D01*
X84078194Y-111972333D01*
X84091295Y-111954833D01*
X84091297Y-111954829D01*
X84119270Y-111879829D01*
X84141591Y-111819983D01*
X84146117Y-111777885D01*
X84147999Y-111760385D01*
X84147999Y-111760382D01*
X84148000Y-111760373D01*
X84147999Y-110719778D01*
X85129500Y-110719778D01*
X85129500Y-110940222D01*
X85135406Y-110977510D01*
X85163985Y-111157956D01*
X85232105Y-111367606D01*
X85332185Y-111564023D01*
X85332186Y-111564024D01*
X85461758Y-111742365D01*
X85617635Y-111898242D01*
X85760625Y-112002129D01*
X85795975Y-112027813D01*
X85795976Y-112027814D01*
X85795978Y-112027815D01*
X85992394Y-112127895D01*
X86079512Y-112156201D01*
X86202043Y-112196014D01*
X86202048Y-112196014D01*
X86202049Y-112196015D01*
X86419778Y-112230500D01*
X86419782Y-112230500D01*
X86640218Y-112230500D01*
X86640222Y-112230500D01*
X86857951Y-112196015D01*
X86857952Y-112196014D01*
X86857956Y-112196014D01*
X86938556Y-112169825D01*
X87067606Y-112127895D01*
X87264022Y-112027815D01*
X87442365Y-111898242D01*
X87598242Y-111742365D01*
X87727815Y-111564022D01*
X87827895Y-111367606D01*
X87891656Y-111171368D01*
X87896014Y-111157956D01*
X87896015Y-111157951D01*
X87930500Y-110940222D01*
X87930500Y-110719778D01*
X87896015Y-110502049D01*
X87896014Y-110502048D01*
X87896014Y-110502043D01*
X87856201Y-110379512D01*
X87827895Y-110292394D01*
X87727815Y-110095978D01*
X87715099Y-110078476D01*
X87633175Y-109965716D01*
X87633173Y-109965713D01*
X87598249Y-109917644D01*
X87598244Y-109917638D01*
X87598242Y-109917635D01*
X87562721Y-109882114D01*
X89829500Y-109882114D01*
X89829500Y-111777863D01*
X89829502Y-111777888D01*
X89835908Y-111837478D01*
X89835909Y-111837484D01*
X89886202Y-111972329D01*
X89886204Y-111972333D01*
X89972452Y-112087544D01*
X89972455Y-112087547D01*
X90087666Y-112173795D01*
X90087670Y-112173797D01*
X90222517Y-112224091D01*
X90282114Y-112230499D01*
X90282118Y-112230499D01*
X90282127Y-112230500D01*
X92177872Y-112230499D01*
X92237483Y-112224091D01*
X92359679Y-112178515D01*
X92372329Y-112173797D01*
X92372333Y-112173795D01*
X92433648Y-112127894D01*
X92487546Y-112087546D01*
X92556793Y-111995044D01*
X92573795Y-111972333D01*
X92573797Y-111972329D01*
X92608297Y-111879829D01*
X92624091Y-111837483D01*
X92628946Y-111792331D01*
X92630499Y-111777885D01*
X92630499Y-111777882D01*
X92630500Y-111777873D01*
X92630499Y-110627278D01*
X93362000Y-110627278D01*
X93362000Y-110847722D01*
X93369689Y-110896266D01*
X93396485Y-111065456D01*
X93464605Y-111275106D01*
X93564685Y-111471523D01*
X93564686Y-111471524D01*
X93619175Y-111546522D01*
X93694258Y-111649865D01*
X93850135Y-111805742D01*
X93977448Y-111898240D01*
X94028475Y-111935313D01*
X94028476Y-111935314D01*
X94028478Y-111935315D01*
X94224894Y-112035395D01*
X94312012Y-112063701D01*
X94434543Y-112103514D01*
X94434548Y-112103514D01*
X94434549Y-112103515D01*
X94652278Y-112138000D01*
X94652282Y-112138000D01*
X94872718Y-112138000D01*
X94872722Y-112138000D01*
X95090451Y-112103515D01*
X95090452Y-112103514D01*
X95090456Y-112103514D01*
X95193456Y-112070047D01*
X95300106Y-112035395D01*
X95496522Y-111935315D01*
X95674865Y-111805742D01*
X95830742Y-111649865D01*
X95960315Y-111471522D01*
X96060395Y-111275106D01*
X96121985Y-111085549D01*
X96128514Y-111065456D01*
X96128515Y-111065451D01*
X96163000Y-110847722D01*
X96163000Y-110627278D01*
X96128515Y-110409549D01*
X96128514Y-110409548D01*
X96128514Y-110409543D01*
X96068230Y-110224008D01*
X96060395Y-110199894D01*
X95960315Y-110003478D01*
X95960313Y-110003475D01*
X95865675Y-109873216D01*
X95865673Y-109873213D01*
X95830749Y-109825144D01*
X95830744Y-109825138D01*
X95830742Y-109825135D01*
X95795221Y-109789614D01*
X98062000Y-109789614D01*
X98062000Y-111685363D01*
X98062002Y-111685388D01*
X98068408Y-111744978D01*
X98068409Y-111744984D01*
X98118702Y-111879829D01*
X98118704Y-111879833D01*
X98204952Y-111995044D01*
X98204955Y-111995047D01*
X98320166Y-112081295D01*
X98320170Y-112081297D01*
X98455017Y-112131591D01*
X98514614Y-112137999D01*
X98514618Y-112137999D01*
X98514627Y-112138000D01*
X100410372Y-112137999D01*
X100469983Y-112131591D01*
X100565947Y-112095798D01*
X100604829Y-112081297D01*
X100604833Y-112081295D01*
X100676272Y-112027815D01*
X100720046Y-111995046D01*
X100792515Y-111898240D01*
X100806295Y-111879833D01*
X100806297Y-111879829D01*
X100844324Y-111777872D01*
X100856591Y-111744983D01*
X100858754Y-111724863D01*
X100862999Y-111685385D01*
X100862999Y-111685382D01*
X100863000Y-111685373D01*
X100862999Y-109789628D01*
X100856591Y-109730017D01*
X100833930Y-109669259D01*
X100806297Y-109595170D01*
X100806295Y-109595166D01*
X100720047Y-109479955D01*
X100720044Y-109479952D01*
X100604833Y-109393704D01*
X100604829Y-109393702D01*
X100469982Y-109343408D01*
X100410376Y-109337000D01*
X98514636Y-109337000D01*
X98514611Y-109337002D01*
X98455021Y-109343408D01*
X98455015Y-109343409D01*
X98320170Y-109393702D01*
X98320166Y-109393704D01*
X98204955Y-109479952D01*
X98204952Y-109479955D01*
X98118704Y-109595166D01*
X98118702Y-109595170D01*
X98068408Y-109730017D01*
X98062000Y-109789614D01*
X95795221Y-109789614D01*
X95674865Y-109669258D01*
X95572886Y-109595166D01*
X95496524Y-109539686D01*
X95496523Y-109539685D01*
X95300106Y-109439605D01*
X95090456Y-109371485D01*
X94969490Y-109352326D01*
X94872722Y-109337000D01*
X94652278Y-109337000D01*
X94565186Y-109350794D01*
X94434543Y-109371485D01*
X94224893Y-109439605D01*
X94028476Y-109539685D01*
X94028475Y-109539686D01*
X93850136Y-109669257D01*
X93850133Y-109669259D01*
X93694259Y-109825133D01*
X93694257Y-109825136D01*
X93564686Y-110003475D01*
X93564685Y-110003476D01*
X93464605Y-110199893D01*
X93396485Y-110409543D01*
X93373495Y-110554701D01*
X93362000Y-110627278D01*
X92630499Y-110627278D01*
X92630499Y-109882128D01*
X92624091Y-109822517D01*
X92601430Y-109761759D01*
X92573797Y-109687670D01*
X92573795Y-109687666D01*
X92487547Y-109572455D01*
X92487544Y-109572452D01*
X92372333Y-109486204D01*
X92372329Y-109486202D01*
X92237482Y-109435908D01*
X92177876Y-109429500D01*
X90282136Y-109429500D01*
X90282111Y-109429502D01*
X90222521Y-109435908D01*
X90222515Y-109435909D01*
X90087670Y-109486202D01*
X90087666Y-109486204D01*
X89972455Y-109572452D01*
X89972452Y-109572455D01*
X89886204Y-109687666D01*
X89886202Y-109687670D01*
X89835908Y-109822517D01*
X89829500Y-109882114D01*
X87562721Y-109882114D01*
X87442365Y-109761758D01*
X87316299Y-109670166D01*
X87264024Y-109632186D01*
X87264023Y-109632185D01*
X87067606Y-109532105D01*
X86857956Y-109463985D01*
X86736990Y-109444826D01*
X86640222Y-109429500D01*
X86419778Y-109429500D01*
X86332686Y-109443294D01*
X86202043Y-109463985D01*
X85992393Y-109532105D01*
X85795976Y-109632185D01*
X85795975Y-109632186D01*
X85617636Y-109761757D01*
X85617633Y-109761759D01*
X85461759Y-109917633D01*
X85461757Y-109917636D01*
X85332186Y-110095975D01*
X85332185Y-110095976D01*
X85232105Y-110292393D01*
X85163985Y-110502043D01*
X85144150Y-110627281D01*
X85129500Y-110719778D01*
X84147999Y-110719778D01*
X84147999Y-109864628D01*
X84141591Y-109805017D01*
X84118930Y-109744259D01*
X84091297Y-109670170D01*
X84091295Y-109670166D01*
X84005047Y-109554955D01*
X84005044Y-109554952D01*
X83889833Y-109468704D01*
X83889829Y-109468702D01*
X83754982Y-109418408D01*
X83695376Y-109412000D01*
X81799636Y-109412000D01*
X81799611Y-109412002D01*
X81740021Y-109418408D01*
X81740015Y-109418409D01*
X81605170Y-109468702D01*
X81605166Y-109468704D01*
X81489955Y-109554952D01*
X81489952Y-109554955D01*
X81403704Y-109670166D01*
X81403702Y-109670170D01*
X81353408Y-109805017D01*
X81347000Y-109864614D01*
X79080221Y-109864614D01*
X78959865Y-109744258D01*
X78837676Y-109655483D01*
X78781524Y-109614686D01*
X78781523Y-109614685D01*
X78585106Y-109514605D01*
X78375456Y-109446485D01*
X78254490Y-109427326D01*
X78157722Y-109412000D01*
X77937278Y-109412000D01*
X77861501Y-109424002D01*
X77719543Y-109446485D01*
X77509893Y-109514605D01*
X77313476Y-109614685D01*
X77313475Y-109614686D01*
X77135136Y-109744257D01*
X77135133Y-109744259D01*
X76979259Y-109900133D01*
X76979257Y-109900136D01*
X76849686Y-110078475D01*
X76849685Y-110078476D01*
X76749605Y-110274893D01*
X76681485Y-110484543D01*
X76658879Y-110627278D01*
X76647000Y-110702278D01*
X75895535Y-110702278D01*
X75894121Y-110230894D01*
X75894417Y-110221062D01*
X75894940Y-110212792D01*
X75904061Y-110161045D01*
X75904053Y-110073506D01*
X75904053Y-110073047D01*
X75904053Y-91939372D01*
X75904059Y-91939267D01*
X75904058Y-91929400D01*
X75904059Y-91929398D01*
X75904058Y-91925326D01*
X75904152Y-91924974D01*
X75904146Y-91863506D01*
X75904147Y-91863506D01*
X75904139Y-91775969D01*
X75873722Y-91603559D01*
X75846855Y-91529765D01*
X75837867Y-91479247D01*
X75794840Y-77136729D01*
X75786221Y-74263713D01*
X76549500Y-74263713D01*
X76549500Y-74476287D01*
X76582754Y-74686243D01*
X76648443Y-74888412D01*
X76686784Y-74963661D01*
X76744950Y-75077817D01*
X76744950Y-75077818D01*
X76764025Y-75104072D01*
X76869896Y-75249792D01*
X77020208Y-75400104D01*
X77095309Y-75454668D01*
X77184482Y-75519456D01*
X77233020Y-75579396D01*
X77245086Y-75655575D01*
X77217446Y-75727580D01*
X77184482Y-75760544D01*
X77020209Y-75879895D01*
X77020206Y-75879897D01*
X76869897Y-76030206D01*
X76869895Y-76030209D01*
X76744950Y-76202181D01*
X76744950Y-76202182D01*
X76648446Y-76391582D01*
X76648441Y-76391594D01*
X76646607Y-76397240D01*
X76582754Y-76593757D01*
X76549500Y-76803713D01*
X76549500Y-77016287D01*
X76582754Y-77226243D01*
X76648443Y-77428412D01*
X76744949Y-77617816D01*
X76869896Y-77789792D01*
X77020208Y-77940104D01*
X77192184Y-78065051D01*
X77381588Y-78161557D01*
X77583757Y-78227246D01*
X77793713Y-78260500D01*
X77793718Y-78260500D01*
X78006282Y-78260500D01*
X78006287Y-78260500D01*
X78216243Y-78227246D01*
X78418412Y-78161557D01*
X78607816Y-78065051D01*
X78779792Y-77940104D01*
X78930104Y-77789792D01*
X79055051Y-77617816D01*
X79151557Y-77428412D01*
X79217246Y-77226243D01*
X79250500Y-77016287D01*
X79250500Y-76803713D01*
X79218039Y-76598764D01*
X79226102Y-76522060D01*
X79259844Y-76470101D01*
X80275276Y-75454670D01*
X80346465Y-75348127D01*
X80395501Y-75229744D01*
X80403034Y-75191873D01*
X80420500Y-75104069D01*
X80420500Y-73187620D01*
X80440462Y-73113120D01*
X80445614Y-73104836D01*
X80449393Y-73099180D01*
X80449394Y-73099179D01*
X80509737Y-72953497D01*
X80540500Y-72798842D01*
X80540500Y-72641158D01*
X80536252Y-72619804D01*
X80528581Y-72581240D01*
X80509737Y-72486503D01*
X80449394Y-72340821D01*
X80361789Y-72209711D01*
X80250289Y-72098211D01*
X80119179Y-72010606D01*
X80119178Y-72010605D01*
X80119176Y-72010604D01*
X79973498Y-71950263D01*
X79973494Y-71950262D01*
X79818842Y-71919500D01*
X79661158Y-71919500D01*
X79506505Y-71950262D01*
X79506501Y-71950263D01*
X79360823Y-72010604D01*
X79229707Y-72098214D01*
X79118214Y-72209707D01*
X79030604Y-72340823D01*
X78970263Y-72486501D01*
X78970262Y-72486505D01*
X78939500Y-72641157D01*
X78939500Y-72798842D01*
X78970262Y-72953494D01*
X78970263Y-72953498D01*
X79030605Y-73099177D01*
X79030608Y-73099183D01*
X79059499Y-73142421D01*
X79089700Y-73187620D01*
X79094388Y-73194635D01*
X79095997Y-73199375D01*
X79099538Y-73202916D01*
X79108300Y-73235617D01*
X79119181Y-73267670D01*
X79119500Y-73277416D01*
X79119500Y-73319886D01*
X79099538Y-73394386D01*
X79045000Y-73448924D01*
X78970500Y-73468886D01*
X78896000Y-73448924D01*
X78865141Y-73425245D01*
X78779793Y-73339897D01*
X78779792Y-73339896D01*
X78607816Y-73214949D01*
X78418412Y-73118443D01*
X78216243Y-73052754D01*
X78006287Y-73019500D01*
X77793713Y-73019500D01*
X77618749Y-73047211D01*
X77583756Y-73052754D01*
X77440882Y-73099177D01*
X77381588Y-73118443D01*
X77381582Y-73118445D01*
X77381582Y-73118446D01*
X77192182Y-73214950D01*
X77192181Y-73214950D01*
X77020209Y-73339895D01*
X77020206Y-73339897D01*
X76869897Y-73490206D01*
X76869895Y-73490209D01*
X76744950Y-73662181D01*
X76744950Y-73662182D01*
X76648446Y-73851582D01*
X76648441Y-73851594D01*
X76646607Y-73857240D01*
X76582754Y-74053757D01*
X76549500Y-74263713D01*
X75786221Y-74263713D01*
X75786205Y-74258306D01*
X75773041Y-69870419D01*
X75773041Y-69870418D01*
X75706500Y-69870307D01*
X51229253Y-69829756D01*
X51154786Y-69809670D01*
X51100339Y-69755042D01*
X51080500Y-69680756D01*
X51080500Y-68013713D01*
X68499500Y-68013713D01*
X68499500Y-68226287D01*
X68532754Y-68436243D01*
X68598443Y-68638412D01*
X68687290Y-68812785D01*
X68694950Y-68827817D01*
X68694950Y-68827818D01*
X68751389Y-68905500D01*
X68819896Y-68999792D01*
X68970208Y-69150104D01*
X69142184Y-69275051D01*
X69331588Y-69371557D01*
X69533757Y-69437246D01*
X69743713Y-69470500D01*
X69743718Y-69470500D01*
X70256282Y-69470500D01*
X70256287Y-69470500D01*
X70466243Y-69437246D01*
X70668412Y-69371557D01*
X70857816Y-69275051D01*
X71029792Y-69150104D01*
X71180104Y-68999792D01*
X71305051Y-68827816D01*
X71401557Y-68638412D01*
X71467246Y-68436243D01*
X71474235Y-68392114D01*
X76549500Y-68392114D01*
X76549500Y-70187863D01*
X76549502Y-70187888D01*
X76555908Y-70247478D01*
X76555909Y-70247484D01*
X76606202Y-70382329D01*
X76606204Y-70382333D01*
X76692452Y-70497544D01*
X76692455Y-70497547D01*
X76807666Y-70583795D01*
X76807670Y-70583797D01*
X76942517Y-70634091D01*
X77002114Y-70640499D01*
X77002118Y-70640499D01*
X77002127Y-70640500D01*
X78797872Y-70640499D01*
X78857483Y-70634091D01*
X78953447Y-70598298D01*
X78992329Y-70583797D01*
X78992333Y-70583795D01*
X79049938Y-70540671D01*
X79107546Y-70497546D01*
X79193796Y-70382331D01*
X79244091Y-70247483D01*
X79245823Y-70231370D01*
X79250499Y-70187885D01*
X79250499Y-70187882D01*
X79250500Y-70187873D01*
X79250499Y-68392128D01*
X79244091Y-68332517D01*
X79229588Y-68293633D01*
X79193797Y-68197670D01*
X79193795Y-68197666D01*
X79107547Y-68082455D01*
X79107544Y-68082452D01*
X78992333Y-67996204D01*
X78992329Y-67996202D01*
X78857482Y-67945908D01*
X78797876Y-67939500D01*
X77002136Y-67939500D01*
X77002111Y-67939502D01*
X76942521Y-67945908D01*
X76942515Y-67945909D01*
X76807670Y-67996202D01*
X76807666Y-67996204D01*
X76692455Y-68082452D01*
X76692452Y-68082455D01*
X76606204Y-68197666D01*
X76606202Y-68197670D01*
X76555908Y-68332517D01*
X76549500Y-68392114D01*
X71474235Y-68392114D01*
X71500500Y-68226287D01*
X71500500Y-68013713D01*
X71467246Y-67803757D01*
X71401557Y-67601588D01*
X71305051Y-67412184D01*
X71180104Y-67240208D01*
X71029792Y-67089896D01*
X70857816Y-66964949D01*
X70668412Y-66868443D01*
X70466243Y-66802754D01*
X70256287Y-66769500D01*
X69743713Y-66769500D01*
X69592197Y-66793498D01*
X69533756Y-66802754D01*
X69494267Y-66815585D01*
X69331588Y-66868443D01*
X69331582Y-66868445D01*
X69331582Y-66868446D01*
X69142182Y-66964950D01*
X69142181Y-66964950D01*
X68970209Y-67089895D01*
X68970206Y-67089897D01*
X68819897Y-67240206D01*
X68819895Y-67240209D01*
X68694950Y-67412181D01*
X68694950Y-67412182D01*
X68694949Y-67412184D01*
X68598443Y-67601588D01*
X68532754Y-67803757D01*
X68499500Y-68013713D01*
X51080500Y-68013713D01*
X51080500Y-53878706D01*
X52149500Y-53878706D01*
X52149500Y-54121293D01*
X52181160Y-54361781D01*
X52181161Y-54361787D01*
X52181162Y-54361789D01*
X52243946Y-54596100D01*
X52336776Y-54820212D01*
X52458064Y-55030289D01*
X52605735Y-55222738D01*
X52777262Y-55394265D01*
X52969711Y-55541936D01*
X53179788Y-55663224D01*
X53403900Y-55756054D01*
X53638211Y-55818838D01*
X53638217Y-55818838D01*
X53638218Y-55818839D01*
X53703600Y-55827446D01*
X53878712Y-55850500D01*
X54121288Y-55850500D01*
X54361789Y-55818838D01*
X54596100Y-55756054D01*
X54820212Y-55663224D01*
X55030289Y-55541936D01*
X55134315Y-55462114D01*
X83029500Y-55462114D01*
X83029500Y-57257863D01*
X83029502Y-57257888D01*
X83035908Y-57317478D01*
X83035909Y-57317484D01*
X83086202Y-57452329D01*
X83086204Y-57452333D01*
X83172452Y-57567544D01*
X83172455Y-57567547D01*
X83287666Y-57653795D01*
X83287668Y-57653795D01*
X83287669Y-57653796D01*
X83382633Y-57689215D01*
X83445460Y-57733953D01*
X83477501Y-57804111D01*
X83470170Y-57880890D01*
X83435923Y-57934179D01*
X83349904Y-58020198D01*
X83349895Y-58020209D01*
X83224950Y-58192181D01*
X83224950Y-58192182D01*
X83128446Y-58381582D01*
X83128441Y-58381594D01*
X83062754Y-58583756D01*
X83057451Y-58617240D01*
X83029500Y-58793713D01*
X83029500Y-59006287D01*
X83062754Y-59216243D01*
X83128443Y-59418412D01*
X83224949Y-59607816D01*
X83349896Y-59779792D01*
X83500208Y-59930104D01*
X83672184Y-60055051D01*
X83861588Y-60151557D01*
X84063757Y-60217246D01*
X84273713Y-60250500D01*
X84273718Y-60250500D01*
X84486282Y-60250500D01*
X84486287Y-60250500D01*
X84696243Y-60217246D01*
X84898412Y-60151557D01*
X85087816Y-60055051D01*
X85259792Y-59930104D01*
X85410104Y-59779792D01*
X85535051Y-59607816D01*
X85631557Y-59418412D01*
X85697246Y-59216243D01*
X85730500Y-59006287D01*
X85730500Y-58793713D01*
X85697246Y-58583757D01*
X85631557Y-58381588D01*
X85535051Y-58192184D01*
X85534470Y-58191385D01*
X85482204Y-58119446D01*
X85410104Y-58020208D01*
X85324075Y-57934179D01*
X85285512Y-57867385D01*
X85285512Y-57790257D01*
X85324076Y-57723462D01*
X85377366Y-57689215D01*
X85408278Y-57677685D01*
X85472327Y-57653798D01*
X85472333Y-57653795D01*
X85529938Y-57610671D01*
X85587546Y-57567546D01*
X85673796Y-57452331D01*
X85680138Y-57435329D01*
X85717123Y-57336164D01*
X85724091Y-57317483D01*
X85727177Y-57288778D01*
X85730499Y-57257885D01*
X85730499Y-57257882D01*
X85730500Y-57257873D01*
X85730499Y-55462128D01*
X85724091Y-55402517D01*
X85687946Y-55305607D01*
X85673797Y-55267670D01*
X85673795Y-55267666D01*
X85587547Y-55152455D01*
X85587544Y-55152452D01*
X85472333Y-55066204D01*
X85472329Y-55066202D01*
X85337482Y-55015908D01*
X85277876Y-55009500D01*
X83482136Y-55009500D01*
X83482111Y-55009502D01*
X83422521Y-55015908D01*
X83422515Y-55015909D01*
X83287670Y-55066202D01*
X83287666Y-55066204D01*
X83172455Y-55152452D01*
X83172452Y-55152455D01*
X83086204Y-55267666D01*
X83086202Y-55267670D01*
X83035908Y-55402517D01*
X83029500Y-55462114D01*
X55134315Y-55462114D01*
X55222738Y-55394265D01*
X55394265Y-55222738D01*
X55541936Y-55030289D01*
X55663224Y-54820212D01*
X55756054Y-54596100D01*
X55818838Y-54361789D01*
X55850500Y-54121288D01*
X55850500Y-53878712D01*
X55822431Y-53665500D01*
X55818839Y-53638218D01*
X55818838Y-53638217D01*
X55818838Y-53638211D01*
X55756054Y-53403900D01*
X55663224Y-53179788D01*
X55541936Y-52969711D01*
X55394265Y-52777262D01*
X55222738Y-52605735D01*
X55030289Y-52458064D01*
X54923842Y-52396607D01*
X54820216Y-52336778D01*
X54820214Y-52336777D01*
X54820212Y-52336776D01*
X54688932Y-52282398D01*
X54596103Y-52243947D01*
X54596101Y-52243946D01*
X54596100Y-52243946D01*
X54361789Y-52181162D01*
X54361787Y-52181161D01*
X54361781Y-52181160D01*
X54121293Y-52149500D01*
X54121288Y-52149500D01*
X53878712Y-52149500D01*
X53878706Y-52149500D01*
X53638218Y-52181160D01*
X53403896Y-52243947D01*
X53179783Y-52336778D01*
X52969712Y-52458063D01*
X52969711Y-52458064D01*
X52777262Y-52605735D01*
X52777260Y-52605736D01*
X52777256Y-52605740D01*
X52605740Y-52777256D01*
X52458063Y-52969712D01*
X52336778Y-53179783D01*
X52243947Y-53403896D01*
X52181160Y-53638218D01*
X52149500Y-53878706D01*
X51080500Y-53878706D01*
X51080500Y-50649500D01*
X51100462Y-50575000D01*
X51155000Y-50520462D01*
X51229500Y-50500500D01*
X149350500Y-50500500D01*
X149425000Y-50520462D01*
G37*
%TD.AperFunction*%
%TA.AperFunction,Conductor*%
G36*
X121689000Y-57356126D02*
G01*
X121719859Y-57379805D01*
X122415859Y-58075805D01*
X122454423Y-58142600D01*
X122459500Y-58181164D01*
X122459500Y-87033823D01*
X122439538Y-87108323D01*
X122385000Y-87162861D01*
X122310500Y-87182823D01*
X122281433Y-87179960D01*
X122228844Y-87169500D01*
X122228842Y-87169500D01*
X122071158Y-87169500D01*
X121916505Y-87200262D01*
X121916501Y-87200263D01*
X121770822Y-87260605D01*
X121770819Y-87260606D01*
X121720261Y-87294389D01*
X121715520Y-87295998D01*
X121711981Y-87299538D01*
X121679283Y-87308299D01*
X121647227Y-87319181D01*
X121637481Y-87319500D01*
X121374812Y-87319500D01*
X121300312Y-87299538D01*
X121254269Y-87258080D01*
X121235135Y-87231744D01*
X121165269Y-87135582D01*
X121024418Y-86994731D01*
X121024414Y-86994728D01*
X120863270Y-86877649D01*
X120863267Y-86877648D01*
X120863268Y-86877648D01*
X120863266Y-86877647D01*
X120685783Y-86787215D01*
X120685778Y-86787213D01*
X120685773Y-86787211D01*
X120496340Y-86725661D01*
X120456990Y-86719428D01*
X120299597Y-86694500D01*
X120100403Y-86694500D01*
X119943009Y-86719428D01*
X119903660Y-86725661D01*
X119903658Y-86725661D01*
X119714226Y-86787211D01*
X119714211Y-86787218D01*
X119536732Y-86877648D01*
X119536729Y-86877649D01*
X119375585Y-86994728D01*
X119234728Y-87135585D01*
X119117649Y-87296729D01*
X119117648Y-87296732D01*
X119027218Y-87474211D01*
X119027211Y-87474226D01*
X118965661Y-87663658D01*
X118965661Y-87663660D01*
X118965661Y-87663661D01*
X118934500Y-87860403D01*
X118934500Y-88059597D01*
X118965661Y-88256339D01*
X118965661Y-88256341D01*
X119027211Y-88445773D01*
X119027213Y-88445778D01*
X119027215Y-88445783D01*
X119027218Y-88445788D01*
X119117648Y-88623267D01*
X119117649Y-88623270D01*
X119220683Y-88765083D01*
X119234731Y-88784418D01*
X119375582Y-88925269D01*
X119375585Y-88925271D01*
X119536729Y-89042350D01*
X119536730Y-89042350D01*
X119536734Y-89042353D01*
X119644456Y-89097240D01*
X119701773Y-89148849D01*
X119725607Y-89222202D01*
X119709571Y-89297645D01*
X119657962Y-89354962D01*
X119644456Y-89362760D01*
X119536732Y-89417648D01*
X119536729Y-89417649D01*
X119375585Y-89534728D01*
X119234728Y-89675585D01*
X119117649Y-89836729D01*
X119117648Y-89836732D01*
X119027218Y-90014211D01*
X119027211Y-90014226D01*
X118965661Y-90203658D01*
X118965661Y-90203660D01*
X118965661Y-90203661D01*
X118934500Y-90400403D01*
X118934500Y-90599597D01*
X118965661Y-90796339D01*
X118965661Y-90796341D01*
X119027211Y-90985773D01*
X119027213Y-90985778D01*
X119027215Y-90985783D01*
X119113729Y-91155577D01*
X119117648Y-91163267D01*
X119117649Y-91163270D01*
X119152996Y-91211920D01*
X119234731Y-91324418D01*
X119375582Y-91465269D01*
X119375585Y-91465271D01*
X119536729Y-91582350D01*
X119536730Y-91582350D01*
X119536734Y-91582353D01*
X119644456Y-91637240D01*
X119701773Y-91688849D01*
X119725607Y-91762202D01*
X119709571Y-91837645D01*
X119657962Y-91894962D01*
X119644456Y-91902760D01*
X119536732Y-91957648D01*
X119536729Y-91957649D01*
X119375585Y-92074728D01*
X119234728Y-92215585D01*
X119117649Y-92376729D01*
X119117648Y-92376732D01*
X119027218Y-92554211D01*
X119027211Y-92554226D01*
X118965661Y-92743658D01*
X118965661Y-92743660D01*
X118965661Y-92743661D01*
X118934500Y-92940403D01*
X118934500Y-93139597D01*
X118965661Y-93336339D01*
X118965661Y-93336341D01*
X119027211Y-93525773D01*
X119027213Y-93525778D01*
X119027215Y-93525783D01*
X119105510Y-93679446D01*
X119117648Y-93703267D01*
X119117649Y-93703270D01*
X119152765Y-93751602D01*
X119234731Y-93864418D01*
X119375582Y-94005269D01*
X119375585Y-94005271D01*
X119536729Y-94122350D01*
X119536730Y-94122350D01*
X119536734Y-94122353D01*
X119644456Y-94177240D01*
X119701773Y-94228849D01*
X119725607Y-94302202D01*
X119709571Y-94377645D01*
X119657962Y-94434962D01*
X119644456Y-94442760D01*
X119536732Y-94497648D01*
X119536729Y-94497649D01*
X119375585Y-94614728D01*
X119234728Y-94755585D01*
X119117649Y-94916729D01*
X119117648Y-94916732D01*
X119027218Y-95094211D01*
X119027211Y-95094226D01*
X118965661Y-95283658D01*
X118965661Y-95283660D01*
X118965661Y-95283661D01*
X118934500Y-95480403D01*
X118934500Y-95679597D01*
X118955064Y-95809432D01*
X118965661Y-95876339D01*
X118965661Y-95876341D01*
X119027211Y-96065773D01*
X119027213Y-96065778D01*
X119027215Y-96065783D01*
X119117265Y-96242517D01*
X119117648Y-96243267D01*
X119117649Y-96243270D01*
X119234728Y-96404414D01*
X119234731Y-96404418D01*
X119375582Y-96545269D01*
X119375585Y-96545271D01*
X119536729Y-96662350D01*
X119536730Y-96662350D01*
X119536734Y-96662353D01*
X119644456Y-96717240D01*
X119701773Y-96768849D01*
X119725607Y-96842202D01*
X119709571Y-96917645D01*
X119657962Y-96974962D01*
X119644456Y-96982760D01*
X119536732Y-97037648D01*
X119536729Y-97037649D01*
X119375585Y-97154728D01*
X119234728Y-97295585D01*
X119117649Y-97456729D01*
X119117648Y-97456732D01*
X119027218Y-97634211D01*
X119027211Y-97634226D01*
X118965661Y-97823658D01*
X118965661Y-97823660D01*
X118965661Y-97823661D01*
X118934500Y-98020403D01*
X118934500Y-98219597D01*
X118959541Y-98377700D01*
X118965661Y-98416339D01*
X118965661Y-98416341D01*
X119027211Y-98605773D01*
X119027213Y-98605778D01*
X119027215Y-98605783D01*
X119073584Y-98696788D01*
X119117648Y-98783267D01*
X119117649Y-98783270D01*
X119234728Y-98944414D01*
X119234731Y-98944418D01*
X119375582Y-99085269D01*
X119375585Y-99085271D01*
X119536729Y-99202350D01*
X119536730Y-99202350D01*
X119536734Y-99202353D01*
X119714217Y-99292785D01*
X119903661Y-99354339D01*
X120100403Y-99385500D01*
X120100407Y-99385500D01*
X120299593Y-99385500D01*
X120299597Y-99385500D01*
X120496339Y-99354339D01*
X120685783Y-99292785D01*
X120863266Y-99202353D01*
X121024418Y-99085269D01*
X121165269Y-98944418D01*
X121282353Y-98783266D01*
X121372785Y-98605783D01*
X121434339Y-98416339D01*
X121465500Y-98219597D01*
X121465500Y-98020403D01*
X121434339Y-97823661D01*
X121372785Y-97634217D01*
X121282353Y-97456734D01*
X121282350Y-97456730D01*
X121282350Y-97456729D01*
X121191160Y-97331218D01*
X121165269Y-97295582D01*
X121024418Y-97154731D01*
X121024414Y-97154728D01*
X120863270Y-97037649D01*
X120863262Y-97037645D01*
X120755544Y-96982760D01*
X120698226Y-96931151D01*
X120674392Y-96857798D01*
X120690428Y-96782356D01*
X120742037Y-96725038D01*
X120755544Y-96717240D01*
X120863266Y-96662353D01*
X121024418Y-96545269D01*
X121165269Y-96404418D01*
X121282353Y-96243266D01*
X121372785Y-96065783D01*
X121434339Y-95876339D01*
X121465500Y-95679597D01*
X121465500Y-95480403D01*
X121434339Y-95283661D01*
X121372785Y-95094217D01*
X121282353Y-94916734D01*
X121282350Y-94916730D01*
X121282350Y-94916729D01*
X121165271Y-94755585D01*
X121165269Y-94755582D01*
X121024418Y-94614731D01*
X121024414Y-94614728D01*
X120863270Y-94497649D01*
X120863262Y-94497645D01*
X120755544Y-94442760D01*
X120698226Y-94391151D01*
X120674392Y-94317798D01*
X120690428Y-94242356D01*
X120742037Y-94185038D01*
X120755544Y-94177240D01*
X120863266Y-94122353D01*
X121024418Y-94005269D01*
X121165269Y-93864418D01*
X121282353Y-93703266D01*
X121372785Y-93525783D01*
X121434339Y-93336339D01*
X121465500Y-93139597D01*
X121465500Y-92940403D01*
X121434339Y-92743661D01*
X121372785Y-92554217D01*
X121282353Y-92376734D01*
X121282350Y-92376730D01*
X121282350Y-92376729D01*
X121165271Y-92215585D01*
X121165269Y-92215582D01*
X121024418Y-92074731D01*
X121024414Y-92074728D01*
X120863270Y-91957649D01*
X120863262Y-91957645D01*
X120799141Y-91924974D01*
X120755543Y-91902759D01*
X120698226Y-91851151D01*
X120674392Y-91777798D01*
X120690428Y-91702356D01*
X120742037Y-91645038D01*
X120755544Y-91637240D01*
X120863266Y-91582353D01*
X121024418Y-91465269D01*
X121165269Y-91324418D01*
X121282353Y-91163266D01*
X121372785Y-90985783D01*
X121434339Y-90796339D01*
X121465500Y-90599597D01*
X121465500Y-90400403D01*
X121434339Y-90203661D01*
X121372785Y-90014217D01*
X121282353Y-89836734D01*
X121282350Y-89836730D01*
X121282350Y-89836729D01*
X121191160Y-89711218D01*
X121165269Y-89675582D01*
X121024418Y-89534731D01*
X121024414Y-89534728D01*
X120863270Y-89417649D01*
X120863262Y-89417645D01*
X120755544Y-89362760D01*
X120698226Y-89311151D01*
X120674392Y-89237798D01*
X120690428Y-89162356D01*
X120742037Y-89105038D01*
X120755544Y-89097240D01*
X120863266Y-89042353D01*
X121024418Y-88925269D01*
X121165269Y-88784418D01*
X121239739Y-88681918D01*
X121263847Y-88662396D01*
X121285782Y-88640462D01*
X121293482Y-88638398D01*
X121299679Y-88633381D01*
X121360282Y-88620500D01*
X121637481Y-88620500D01*
X121711981Y-88640462D01*
X121720261Y-88645611D01*
X121770819Y-88679393D01*
X121770820Y-88679393D01*
X121770821Y-88679394D01*
X121916503Y-88739737D01*
X122071158Y-88770500D01*
X122228841Y-88770500D01*
X122228842Y-88770500D01*
X122281432Y-88760039D01*
X122358394Y-88765083D01*
X122422524Y-88807933D01*
X122456637Y-88877107D01*
X122459500Y-88906176D01*
X122459500Y-120979482D01*
X122448159Y-121036501D01*
X122445623Y-121042623D01*
X122414860Y-121197279D01*
X122414860Y-121354962D01*
X122445622Y-121509614D01*
X122445623Y-121509618D01*
X122505964Y-121655296D01*
X122505965Y-121655298D01*
X122505966Y-121655299D01*
X122593571Y-121786409D01*
X122705071Y-121897909D01*
X122836181Y-121985514D01*
X122981863Y-122045857D01*
X123129569Y-122075237D01*
X123198742Y-122109350D01*
X123241592Y-122173479D01*
X123249500Y-122221374D01*
X123249500Y-125888835D01*
X123229538Y-125963335D01*
X123205859Y-125994194D01*
X122219899Y-126980153D01*
X122153104Y-127018717D01*
X122091232Y-127021960D01*
X122013533Y-127009654D01*
X121886287Y-126989500D01*
X121673713Y-126989500D01*
X121498749Y-127017211D01*
X121463756Y-127022754D01*
X121261594Y-127088441D01*
X121261588Y-127088443D01*
X121261582Y-127088445D01*
X121261582Y-127088446D01*
X121072182Y-127184950D01*
X121072181Y-127184950D01*
X120900209Y-127309895D01*
X120900206Y-127309897D01*
X120749897Y-127460206D01*
X120749895Y-127460209D01*
X120630544Y-127624482D01*
X120570604Y-127673020D01*
X120494425Y-127685086D01*
X120422420Y-127657446D01*
X120389456Y-127624482D01*
X120326491Y-127537819D01*
X120270104Y-127460208D01*
X120119792Y-127309896D01*
X119947816Y-127184949D01*
X119758412Y-127088443D01*
X119556243Y-127022754D01*
X119346287Y-126989500D01*
X119133713Y-126989500D01*
X119093572Y-126995857D01*
X119006459Y-127009654D01*
X118929754Y-127001591D01*
X118877793Y-126967847D01*
X118114141Y-126204195D01*
X118075577Y-126137400D01*
X118070500Y-126098836D01*
X118070500Y-108952114D01*
X118409500Y-108952114D01*
X118409500Y-111047863D01*
X118409502Y-111047888D01*
X118415908Y-111107478D01*
X118415909Y-111107484D01*
X118466202Y-111242329D01*
X118466204Y-111242333D01*
X118552452Y-111357544D01*
X118552455Y-111357547D01*
X118667666Y-111443795D01*
X118667670Y-111443797D01*
X118802517Y-111494091D01*
X118862114Y-111500499D01*
X118862118Y-111500499D01*
X118862127Y-111500500D01*
X120957872Y-111500499D01*
X121017483Y-111494091D01*
X121113447Y-111458298D01*
X121152329Y-111443797D01*
X121152333Y-111443795D01*
X121242905Y-111375992D01*
X121267546Y-111357546D01*
X121310671Y-111299938D01*
X121353795Y-111242333D01*
X121353797Y-111242329D01*
X121391795Y-111140451D01*
X121404091Y-111107483D01*
X121408610Y-111065451D01*
X121410499Y-111047885D01*
X121410499Y-111047882D01*
X121410500Y-111047873D01*
X121410499Y-108952128D01*
X121404091Y-108892517D01*
X121389588Y-108853633D01*
X121353797Y-108757670D01*
X121353795Y-108757666D01*
X121267547Y-108642455D01*
X121267544Y-108642452D01*
X121152333Y-108556204D01*
X121152329Y-108556202D01*
X121017482Y-108505908D01*
X120957876Y-108499500D01*
X118862136Y-108499500D01*
X118862111Y-108499502D01*
X118802521Y-108505908D01*
X118802515Y-108505909D01*
X118667670Y-108556202D01*
X118667666Y-108556204D01*
X118552455Y-108642452D01*
X118552452Y-108642455D01*
X118466204Y-108757666D01*
X118466202Y-108757670D01*
X118415908Y-108892517D01*
X118409500Y-108952114D01*
X118070500Y-108952114D01*
X118070500Y-75831163D01*
X118090462Y-75756663D01*
X118114137Y-75725808D01*
X118680141Y-75159803D01*
X118746936Y-75121240D01*
X118824064Y-75121240D01*
X118890859Y-75159804D01*
X118929423Y-75226599D01*
X118934500Y-75265163D01*
X118934500Y-75359597D01*
X118965661Y-75556339D01*
X118965661Y-75556341D01*
X119027211Y-75745773D01*
X119027213Y-75745778D01*
X119027215Y-75745783D01*
X119095549Y-75879897D01*
X119117648Y-75923267D01*
X119117649Y-75923270D01*
X119234728Y-76084414D01*
X119234731Y-76084418D01*
X119375582Y-76225269D01*
X119375585Y-76225271D01*
X119536729Y-76342350D01*
X119536730Y-76342350D01*
X119536734Y-76342353D01*
X119633375Y-76391594D01*
X119644456Y-76397240D01*
X119701773Y-76448849D01*
X119725607Y-76522202D01*
X119709571Y-76597645D01*
X119657962Y-76654962D01*
X119644456Y-76662760D01*
X119536732Y-76717648D01*
X119536729Y-76717649D01*
X119375585Y-76834728D01*
X119234728Y-76975585D01*
X119117649Y-77136729D01*
X119117648Y-77136732D01*
X119027218Y-77314211D01*
X119027211Y-77314226D01*
X118965661Y-77503658D01*
X118965661Y-77503660D01*
X118965661Y-77503661D01*
X118934500Y-77700403D01*
X118934500Y-77899597D01*
X118965661Y-78096339D01*
X118965661Y-78096341D01*
X119027211Y-78285773D01*
X119027213Y-78285778D01*
X119027215Y-78285783D01*
X119027218Y-78285788D01*
X119117648Y-78463267D01*
X119117649Y-78463270D01*
X119216395Y-78599181D01*
X119234731Y-78624418D01*
X119375582Y-78765269D01*
X119375585Y-78765271D01*
X119536729Y-78882350D01*
X119536730Y-78882350D01*
X119536734Y-78882353D01*
X119644456Y-78937240D01*
X119701773Y-78988849D01*
X119725607Y-79062202D01*
X119709571Y-79137645D01*
X119657962Y-79194962D01*
X119644456Y-79202760D01*
X119536732Y-79257648D01*
X119536729Y-79257649D01*
X119375585Y-79374728D01*
X119234728Y-79515585D01*
X119117649Y-79676729D01*
X119117648Y-79676732D01*
X119027218Y-79854211D01*
X119027211Y-79854226D01*
X118965661Y-80043658D01*
X118965661Y-80043660D01*
X118965661Y-80043661D01*
X118934500Y-80240403D01*
X118934500Y-80439597D01*
X118965661Y-80636339D01*
X118965661Y-80636341D01*
X119027211Y-80825773D01*
X119027213Y-80825778D01*
X119027215Y-80825783D01*
X119027218Y-80825788D01*
X119117648Y-81003267D01*
X119117649Y-81003270D01*
X119234728Y-81164414D01*
X119234731Y-81164418D01*
X119375582Y-81305269D01*
X119375585Y-81305271D01*
X119536729Y-81422350D01*
X119536730Y-81422350D01*
X119536734Y-81422353D01*
X119644456Y-81477240D01*
X119701773Y-81528849D01*
X119725607Y-81602202D01*
X119709571Y-81677645D01*
X119657962Y-81734962D01*
X119644456Y-81742760D01*
X119536732Y-81797648D01*
X119536729Y-81797649D01*
X119375585Y-81914728D01*
X119234728Y-82055585D01*
X119117649Y-82216729D01*
X119117648Y-82216732D01*
X119027218Y-82394211D01*
X119027211Y-82394226D01*
X118965661Y-82583658D01*
X118965661Y-82583660D01*
X118965661Y-82583661D01*
X118934500Y-82780403D01*
X118934500Y-82979597D01*
X118965661Y-83176339D01*
X118965661Y-83176341D01*
X119027211Y-83365773D01*
X119027213Y-83365778D01*
X119027215Y-83365783D01*
X119115233Y-83538529D01*
X119117648Y-83543267D01*
X119117649Y-83543270D01*
X119152996Y-83591920D01*
X119234731Y-83704418D01*
X119375582Y-83845269D01*
X119375585Y-83845271D01*
X119536729Y-83962350D01*
X119536730Y-83962350D01*
X119536734Y-83962353D01*
X119714217Y-84052785D01*
X119903661Y-84114339D01*
X120100403Y-84145500D01*
X120100407Y-84145500D01*
X120299593Y-84145500D01*
X120299597Y-84145500D01*
X120496339Y-84114339D01*
X120685783Y-84052785D01*
X120863266Y-83962353D01*
X121024418Y-83845269D01*
X121165269Y-83704418D01*
X121282353Y-83543266D01*
X121372785Y-83365783D01*
X121434339Y-83176339D01*
X121465500Y-82979597D01*
X121465500Y-82780403D01*
X121434339Y-82583661D01*
X121372785Y-82394217D01*
X121282353Y-82216734D01*
X121282350Y-82216730D01*
X121282350Y-82216729D01*
X121191160Y-82091218D01*
X121165269Y-82055582D01*
X121024418Y-81914731D01*
X121024414Y-81914728D01*
X120863270Y-81797649D01*
X120863262Y-81797645D01*
X120755544Y-81742760D01*
X120698226Y-81691151D01*
X120674392Y-81617798D01*
X120690428Y-81542356D01*
X120742037Y-81485038D01*
X120755544Y-81477240D01*
X120863266Y-81422353D01*
X121024418Y-81305269D01*
X121165269Y-81164418D01*
X121282353Y-81003266D01*
X121372785Y-80825783D01*
X121434339Y-80636339D01*
X121465500Y-80439597D01*
X121465500Y-80240403D01*
X121434339Y-80043661D01*
X121387823Y-79900500D01*
X121372788Y-79854226D01*
X121372787Y-79854225D01*
X121372785Y-79854217D01*
X121282353Y-79676734D01*
X121282350Y-79676730D01*
X121282350Y-79676729D01*
X121165271Y-79515585D01*
X121165269Y-79515582D01*
X121024418Y-79374731D01*
X121024414Y-79374728D01*
X120863270Y-79257649D01*
X120863262Y-79257645D01*
X120755544Y-79202760D01*
X120698226Y-79151151D01*
X120674392Y-79077798D01*
X120690428Y-79002356D01*
X120742037Y-78945038D01*
X120755544Y-78937240D01*
X120863266Y-78882353D01*
X121024418Y-78765269D01*
X121165269Y-78624418D01*
X121282353Y-78463266D01*
X121372785Y-78285783D01*
X121434339Y-78096339D01*
X121465500Y-77899597D01*
X121465500Y-77700403D01*
X121434339Y-77503661D01*
X121372785Y-77314217D01*
X121282353Y-77136734D01*
X121282350Y-77136730D01*
X121282350Y-77136729D01*
X121165271Y-76975585D01*
X121165269Y-76975582D01*
X121024418Y-76834731D01*
X120981731Y-76803717D01*
X120863270Y-76717649D01*
X120863262Y-76717645D01*
X120755544Y-76662760D01*
X120698226Y-76611151D01*
X120674392Y-76537798D01*
X120690428Y-76462356D01*
X120742037Y-76405038D01*
X120755544Y-76397240D01*
X120766625Y-76391594D01*
X120863266Y-76342353D01*
X121024418Y-76225269D01*
X121165269Y-76084418D01*
X121282353Y-75923266D01*
X121372785Y-75745783D01*
X121434339Y-75556339D01*
X121465500Y-75359597D01*
X121465500Y-75160403D01*
X121434339Y-74963661D01*
X121372785Y-74774217D01*
X121282353Y-74596734D01*
X121282350Y-74596730D01*
X121282350Y-74596729D01*
X121165271Y-74435585D01*
X121165269Y-74435582D01*
X121024418Y-74294731D01*
X120981731Y-74263717D01*
X120863270Y-74177649D01*
X120863262Y-74177645D01*
X120755544Y-74122760D01*
X120698226Y-74071151D01*
X120674392Y-73997798D01*
X120690428Y-73922356D01*
X120742037Y-73865038D01*
X120755544Y-73857240D01*
X120766625Y-73851594D01*
X120863266Y-73802353D01*
X121024418Y-73685269D01*
X121165269Y-73544418D01*
X121282353Y-73383266D01*
X121372785Y-73205783D01*
X121434339Y-73016339D01*
X121465500Y-72819597D01*
X121465500Y-72620403D01*
X121434339Y-72423661D01*
X121372785Y-72234217D01*
X121282353Y-72056734D01*
X121282350Y-72056730D01*
X121282350Y-72056729D01*
X121165271Y-71895585D01*
X121165269Y-71895582D01*
X121024418Y-71754731D01*
X121024414Y-71754728D01*
X120863270Y-71637649D01*
X120863262Y-71637645D01*
X120755544Y-71582760D01*
X120698226Y-71531151D01*
X120674392Y-71457798D01*
X120690428Y-71382356D01*
X120742037Y-71325038D01*
X120755544Y-71317240D01*
X120863266Y-71262353D01*
X121024418Y-71145269D01*
X121165269Y-71004418D01*
X121282353Y-70843266D01*
X121372785Y-70665783D01*
X121434339Y-70476339D01*
X121465500Y-70279597D01*
X121465500Y-70080403D01*
X121434339Y-69883661D01*
X121372785Y-69694217D01*
X121282353Y-69516734D01*
X121282350Y-69516730D01*
X121282350Y-69516729D01*
X121176876Y-69371558D01*
X121165269Y-69355582D01*
X121024418Y-69214731D01*
X120935467Y-69150104D01*
X120863270Y-69097649D01*
X120863262Y-69097645D01*
X120755544Y-69042760D01*
X120698226Y-68991151D01*
X120674392Y-68917798D01*
X120690428Y-68842356D01*
X120742037Y-68785038D01*
X120755544Y-68777240D01*
X120863266Y-68722353D01*
X121024418Y-68605269D01*
X121165269Y-68464418D01*
X121282353Y-68303266D01*
X121372785Y-68125783D01*
X121434339Y-67936339D01*
X121465500Y-67739597D01*
X121465500Y-67540403D01*
X121434339Y-67343661D01*
X121400725Y-67240208D01*
X121372788Y-67154226D01*
X121372787Y-67154225D01*
X121372785Y-67154217D01*
X121282353Y-66976734D01*
X121282350Y-66976730D01*
X121282350Y-66976729D01*
X121165271Y-66815585D01*
X121165269Y-66815582D01*
X121024418Y-66674731D01*
X121024414Y-66674728D01*
X120863270Y-66557649D01*
X120863262Y-66557645D01*
X120755544Y-66502760D01*
X120698226Y-66451151D01*
X120674392Y-66377798D01*
X120690428Y-66302356D01*
X120742037Y-66245038D01*
X120755544Y-66237240D01*
X120863266Y-66182353D01*
X121024418Y-66065269D01*
X121165269Y-65924418D01*
X121282353Y-65763266D01*
X121372785Y-65585783D01*
X121434339Y-65396339D01*
X121465500Y-65199597D01*
X121465500Y-65000403D01*
X121434339Y-64803661D01*
X121406976Y-64719446D01*
X121372788Y-64614226D01*
X121372787Y-64614225D01*
X121372785Y-64614217D01*
X121282353Y-64436734D01*
X121282350Y-64436730D01*
X121282350Y-64436729D01*
X121165271Y-64275585D01*
X121165269Y-64275582D01*
X121024418Y-64134731D01*
X121024414Y-64134728D01*
X120863270Y-64017649D01*
X120863262Y-64017645D01*
X120755544Y-63962760D01*
X120698226Y-63911151D01*
X120674392Y-63837798D01*
X120690428Y-63762356D01*
X120742037Y-63705038D01*
X120755544Y-63697240D01*
X120863266Y-63642353D01*
X121024418Y-63525269D01*
X121165269Y-63384418D01*
X121282353Y-63223266D01*
X121372785Y-63045783D01*
X121434339Y-62856339D01*
X121465500Y-62659597D01*
X121465500Y-62460403D01*
X121434339Y-62263661D01*
X121372785Y-62074217D01*
X121282353Y-61896734D01*
X121282350Y-61896730D01*
X121282350Y-61896729D01*
X121165271Y-61735585D01*
X121165269Y-61735582D01*
X121024418Y-61594731D01*
X121024414Y-61594728D01*
X120863270Y-61477649D01*
X120863262Y-61477645D01*
X120755544Y-61422760D01*
X120698226Y-61371151D01*
X120674392Y-61297798D01*
X120690428Y-61222356D01*
X120742037Y-61165038D01*
X120755544Y-61157240D01*
X120774693Y-61147483D01*
X120863266Y-61102353D01*
X121024418Y-60985269D01*
X121165269Y-60844418D01*
X121282353Y-60683266D01*
X121372785Y-60505783D01*
X121434339Y-60316339D01*
X121465500Y-60119597D01*
X121465500Y-59920403D01*
X121434339Y-59723661D01*
X121372785Y-59534217D01*
X121282353Y-59356734D01*
X121282350Y-59356730D01*
X121282350Y-59356729D01*
X121165271Y-59195585D01*
X121165269Y-59195582D01*
X121024418Y-59054731D01*
X120957734Y-59006282D01*
X120863270Y-58937649D01*
X120863262Y-58937645D01*
X120755544Y-58882760D01*
X120698226Y-58831151D01*
X120674392Y-58757798D01*
X120690428Y-58682356D01*
X120742037Y-58625038D01*
X120755544Y-58617240D01*
X120863266Y-58562353D01*
X121024418Y-58445269D01*
X121165269Y-58304418D01*
X121282353Y-58143266D01*
X121372785Y-57965783D01*
X121434339Y-57776339D01*
X121465500Y-57579597D01*
X121465500Y-57485164D01*
X121485462Y-57410664D01*
X121540000Y-57356126D01*
X121614500Y-57336164D01*
X121689000Y-57356126D01*
G37*
%TD.AperFunction*%
%TA.AperFunction,Conductor*%
G36*
X144462419Y-83538529D02*
G01*
X144493056Y-83543382D01*
X144499250Y-83548398D01*
X144506953Y-83550462D01*
X144552996Y-83591920D01*
X144634731Y-83704418D01*
X144775582Y-83845269D01*
X144775585Y-83845271D01*
X144936729Y-83962350D01*
X144936730Y-83962350D01*
X144936734Y-83962353D01*
X145044456Y-84017240D01*
X145101773Y-84068849D01*
X145125607Y-84142202D01*
X145109571Y-84217645D01*
X145057962Y-84274962D01*
X145044456Y-84282760D01*
X144936732Y-84337648D01*
X144936729Y-84337649D01*
X144775585Y-84454728D01*
X144634728Y-84595585D01*
X144517649Y-84756729D01*
X144517648Y-84756732D01*
X144427218Y-84934211D01*
X144427211Y-84934226D01*
X144365661Y-85123658D01*
X144365661Y-85123660D01*
X144365661Y-85123661D01*
X144334500Y-85320403D01*
X144334500Y-85519597D01*
X144339228Y-85549446D01*
X144365661Y-85716339D01*
X144365661Y-85716341D01*
X144427211Y-85905773D01*
X144427213Y-85905778D01*
X144427215Y-85905783D01*
X144431726Y-85914637D01*
X144517648Y-86083267D01*
X144517649Y-86083270D01*
X144593416Y-86187553D01*
X144634731Y-86244418D01*
X144775582Y-86385269D01*
X144775585Y-86385271D01*
X144936729Y-86502350D01*
X144936730Y-86502350D01*
X144936734Y-86502353D01*
X145044456Y-86557240D01*
X145101773Y-86608849D01*
X145125607Y-86682202D01*
X145109571Y-86757645D01*
X145057962Y-86814962D01*
X145044456Y-86822760D01*
X144936732Y-86877648D01*
X144936729Y-86877649D01*
X144775585Y-86994728D01*
X144634728Y-87135585D01*
X144517649Y-87296729D01*
X144517648Y-87296732D01*
X144427218Y-87474211D01*
X144427211Y-87474226D01*
X144365661Y-87663658D01*
X144365661Y-87663660D01*
X144365661Y-87663661D01*
X144334500Y-87860403D01*
X144334500Y-88059597D01*
X144365661Y-88256339D01*
X144365661Y-88256341D01*
X144427211Y-88445773D01*
X144427213Y-88445778D01*
X144427215Y-88445783D01*
X144427218Y-88445788D01*
X144517648Y-88623267D01*
X144517649Y-88623270D01*
X144620683Y-88765083D01*
X144634731Y-88784418D01*
X144775582Y-88925269D01*
X144775585Y-88925271D01*
X144936729Y-89042350D01*
X144936730Y-89042350D01*
X144936734Y-89042353D01*
X145044456Y-89097240D01*
X145101773Y-89148849D01*
X145125607Y-89222202D01*
X145109571Y-89297645D01*
X145057962Y-89354962D01*
X145044456Y-89362760D01*
X144936732Y-89417648D01*
X144936729Y-89417649D01*
X144775585Y-89534728D01*
X144634733Y-89675580D01*
X144634724Y-89675591D01*
X144552996Y-89788080D01*
X144493056Y-89836618D01*
X144432453Y-89849500D01*
X139865927Y-89849500D01*
X139740257Y-89874498D01*
X139621878Y-89923532D01*
X139621870Y-89923537D01*
X139515331Y-89994723D01*
X139515329Y-89994724D01*
X136514723Y-92995330D01*
X136514722Y-92995332D01*
X136443537Y-93101870D01*
X136443532Y-93101878D01*
X136394498Y-93220257D01*
X136369500Y-93345927D01*
X136369500Y-127067386D01*
X136349538Y-127141886D01*
X136308080Y-127187930D01*
X136140209Y-127309895D01*
X136140206Y-127309897D01*
X135989897Y-127460206D01*
X135989895Y-127460209D01*
X135870544Y-127624482D01*
X135810604Y-127673020D01*
X135734425Y-127685086D01*
X135662420Y-127657446D01*
X135629456Y-127624482D01*
X135566491Y-127537819D01*
X135510104Y-127460208D01*
X135359792Y-127309896D01*
X135187816Y-127184949D01*
X134998412Y-127088443D01*
X134796243Y-127022754D01*
X134586287Y-126989500D01*
X134373713Y-126989500D01*
X134198749Y-127017211D01*
X134163756Y-127022754D01*
X133961594Y-127088441D01*
X133961588Y-127088443D01*
X133961585Y-127088444D01*
X133961581Y-127088446D01*
X133824061Y-127158515D01*
X133748619Y-127174550D01*
X133675266Y-127150715D01*
X133651059Y-127131113D01*
X133153018Y-126633072D01*
X133120719Y-126584732D01*
X133069395Y-126460823D01*
X133069394Y-126460821D01*
X132981789Y-126329711D01*
X132870289Y-126218211D01*
X132739179Y-126130606D01*
X132739178Y-126130605D01*
X132739176Y-126130604D01*
X132593498Y-126070263D01*
X132593494Y-126070262D01*
X132438842Y-126039500D01*
X132281158Y-126039500D01*
X132126505Y-126070262D01*
X132126501Y-126070263D01*
X131980823Y-126130604D01*
X131893012Y-126189278D01*
X131870688Y-126204195D01*
X131849707Y-126218214D01*
X131738214Y-126329707D01*
X131650604Y-126460823D01*
X131590263Y-126606501D01*
X131590262Y-126606505D01*
X131559500Y-126761157D01*
X131559500Y-126918848D01*
X131559662Y-126920494D01*
X131559500Y-126921474D01*
X131559500Y-126926162D01*
X131558726Y-126926162D01*
X131547095Y-126996591D01*
X131498162Y-127056209D01*
X131457427Y-127076797D01*
X131421591Y-127088441D01*
X131421581Y-127088445D01*
X131232182Y-127184950D01*
X131232181Y-127184950D01*
X131060209Y-127309895D01*
X131060206Y-127309897D01*
X130909897Y-127460206D01*
X130909895Y-127460209D01*
X130790544Y-127624482D01*
X130730604Y-127673020D01*
X130654425Y-127685086D01*
X130582420Y-127657446D01*
X130549456Y-127624482D01*
X130486491Y-127537819D01*
X130430104Y-127460208D01*
X130279792Y-127309896D01*
X130107816Y-127184949D01*
X129918412Y-127088443D01*
X129716243Y-127022754D01*
X129506287Y-126989500D01*
X129293713Y-126989500D01*
X129118749Y-127017211D01*
X129083756Y-127022754D01*
X128881594Y-127088441D01*
X128881588Y-127088443D01*
X128881582Y-127088445D01*
X128881582Y-127088446D01*
X128692182Y-127184950D01*
X128692181Y-127184950D01*
X128520209Y-127309895D01*
X128520206Y-127309897D01*
X128369897Y-127460206D01*
X128369895Y-127460209D01*
X128250544Y-127624482D01*
X128190604Y-127673020D01*
X128114425Y-127685086D01*
X128042420Y-127657446D01*
X128009456Y-127624482D01*
X127946491Y-127537819D01*
X127890104Y-127460208D01*
X127739792Y-127309896D01*
X127567816Y-127184949D01*
X127378412Y-127088443D01*
X127176243Y-127022754D01*
X126966287Y-126989500D01*
X126753713Y-126989500D01*
X126578749Y-127017211D01*
X126543756Y-127022754D01*
X126341594Y-127088441D01*
X126341588Y-127088443D01*
X126341582Y-127088445D01*
X126341582Y-127088446D01*
X126152182Y-127184950D01*
X126152181Y-127184950D01*
X125980209Y-127309895D01*
X125980206Y-127309897D01*
X125829897Y-127460206D01*
X125829895Y-127460209D01*
X125710544Y-127624482D01*
X125650604Y-127673020D01*
X125574425Y-127685086D01*
X125502420Y-127657446D01*
X125469456Y-127624482D01*
X125406491Y-127537819D01*
X125350104Y-127460208D01*
X125234141Y-127344245D01*
X125195577Y-127277450D01*
X125190500Y-127238886D01*
X125190500Y-109881908D01*
X126009500Y-109881908D01*
X126009500Y-110118092D01*
X126046447Y-110351368D01*
X126119432Y-110575992D01*
X126226657Y-110786433D01*
X126365483Y-110977510D01*
X126532490Y-111144517D01*
X126723567Y-111283343D01*
X126934008Y-111390568D01*
X127158632Y-111463553D01*
X127391908Y-111500500D01*
X127391913Y-111500500D01*
X127628087Y-111500500D01*
X127628092Y-111500500D01*
X127861368Y-111463553D01*
X128085992Y-111390568D01*
X128296433Y-111283343D01*
X128487510Y-111144517D01*
X128654517Y-110977510D01*
X128793343Y-110786433D01*
X128900568Y-110575992D01*
X128973553Y-110351368D01*
X129010500Y-110118092D01*
X129010500Y-109881908D01*
X128973553Y-109648632D01*
X128900568Y-109424008D01*
X128793343Y-109213567D01*
X128654517Y-109022490D01*
X128487510Y-108855483D01*
X128296433Y-108716657D01*
X128085992Y-108609432D01*
X127861368Y-108536447D01*
X127628092Y-108499500D01*
X127391908Y-108499500D01*
X127158632Y-108536447D01*
X126934008Y-108609432D01*
X126934002Y-108609434D01*
X126934002Y-108609435D01*
X126723565Y-108716658D01*
X126532499Y-108855476D01*
X126532488Y-108855485D01*
X126365485Y-109022488D01*
X126365476Y-109022499D01*
X126226658Y-109213565D01*
X126119435Y-109424002D01*
X126119430Y-109424014D01*
X126117647Y-109429501D01*
X126046447Y-109648632D01*
X126009500Y-109881908D01*
X125190500Y-109881908D01*
X125190500Y-100871157D01*
X130669500Y-100871157D01*
X130669500Y-101028842D01*
X130700262Y-101183494D01*
X130700263Y-101183498D01*
X130760604Y-101329176D01*
X130760605Y-101329178D01*
X130760606Y-101329179D01*
X130848211Y-101460289D01*
X130959711Y-101571789D01*
X131090821Y-101659394D01*
X131090822Y-101659394D01*
X131090823Y-101659395D01*
X131139108Y-101679395D01*
X131236503Y-101719737D01*
X131391158Y-101750500D01*
X131548842Y-101750500D01*
X131703497Y-101719737D01*
X131849179Y-101659394D01*
X131899739Y-101625611D01*
X131972773Y-101600819D01*
X131982519Y-101600500D01*
X133117549Y-101600500D01*
X133192049Y-101620462D01*
X133200329Y-101625611D01*
X133280819Y-101679393D01*
X133280820Y-101679393D01*
X133280821Y-101679394D01*
X133426503Y-101739737D01*
X133581158Y-101770500D01*
X133738842Y-101770500D01*
X133893497Y-101739737D01*
X134039179Y-101679394D01*
X134170289Y-101591789D01*
X134281789Y-101480289D01*
X134369394Y-101349179D01*
X134429737Y-101203497D01*
X134460500Y-101048842D01*
X134460500Y-100891158D01*
X134429737Y-100736503D01*
X134369394Y-100590821D01*
X134281789Y-100459711D01*
X134170289Y-100348211D01*
X134039179Y-100260606D01*
X134039178Y-100260605D01*
X134039176Y-100260604D01*
X133893498Y-100200263D01*
X133893494Y-100200262D01*
X133738842Y-100169500D01*
X133581158Y-100169500D01*
X133426505Y-100200262D01*
X133426501Y-100200263D01*
X133280822Y-100260605D01*
X133280816Y-100260608D01*
X133260194Y-100274388D01*
X133187159Y-100299181D01*
X133177413Y-100299500D01*
X131982519Y-100299500D01*
X131908019Y-100279538D01*
X131899739Y-100274389D01*
X131849180Y-100240606D01*
X131849177Y-100240605D01*
X131703498Y-100180263D01*
X131703494Y-100180262D01*
X131548842Y-100149500D01*
X131391158Y-100149500D01*
X131236505Y-100180262D01*
X131236501Y-100180263D01*
X131090823Y-100240604D01*
X130959707Y-100328214D01*
X130848214Y-100439707D01*
X130848211Y-100439710D01*
X130848211Y-100439711D01*
X130819278Y-100483012D01*
X130760604Y-100570823D01*
X130700263Y-100716501D01*
X130700262Y-100716505D01*
X130669500Y-100871157D01*
X125190500Y-100871157D01*
X125190500Y-94033178D01*
X129999500Y-94033178D01*
X129999500Y-94181021D01*
X130028341Y-94326011D01*
X130084916Y-94462597D01*
X130150532Y-94560797D01*
X130167049Y-94585516D01*
X130271584Y-94690051D01*
X130320685Y-94722859D01*
X130394502Y-94772183D01*
X130425444Y-94784999D01*
X130531087Y-94828758D01*
X130676082Y-94857600D01*
X130676086Y-94857600D01*
X130823914Y-94857600D01*
X130823918Y-94857600D01*
X130968913Y-94828758D01*
X131105495Y-94772184D01*
X131105495Y-94772183D01*
X131105497Y-94772183D01*
X131130342Y-94755582D01*
X131228416Y-94690051D01*
X131332951Y-94585516D01*
X131415084Y-94462595D01*
X131471658Y-94326013D01*
X131500500Y-94181018D01*
X131500500Y-94033182D01*
X131471658Y-93888187D01*
X131415084Y-93751605D01*
X131415083Y-93751602D01*
X131337709Y-93635805D01*
X131332951Y-93628684D01*
X131228416Y-93524149D01*
X131203697Y-93507632D01*
X131105497Y-93442016D01*
X130999852Y-93398257D01*
X130968913Y-93385442D01*
X130968911Y-93385441D01*
X130968912Y-93385441D01*
X130823921Y-93356600D01*
X130823918Y-93356600D01*
X130676082Y-93356600D01*
X130676078Y-93356600D01*
X130531088Y-93385441D01*
X130394502Y-93442016D01*
X130271585Y-93524148D01*
X130271580Y-93524152D01*
X130167052Y-93628680D01*
X130167048Y-93628685D01*
X130084916Y-93751602D01*
X130028341Y-93888188D01*
X129999500Y-94033178D01*
X125190500Y-94033178D01*
X125190500Y-86525408D01*
X129849500Y-86525408D01*
X129849500Y-86702791D01*
X129884105Y-86876763D01*
X129884106Y-86876767D01*
X129951986Y-87040646D01*
X129951987Y-87040648D01*
X130050533Y-87188131D01*
X130050536Y-87188135D01*
X130175965Y-87313564D01*
X130175968Y-87313566D01*
X130323451Y-87412112D01*
X130323453Y-87412113D01*
X130487334Y-87479994D01*
X130661309Y-87514600D01*
X130838691Y-87514600D01*
X131012666Y-87479994D01*
X131176547Y-87412113D01*
X131324035Y-87313564D01*
X131449464Y-87188135D01*
X131548013Y-87040647D01*
X131615894Y-86876766D01*
X131650500Y-86702791D01*
X131650500Y-86525409D01*
X131645913Y-86502351D01*
X131638964Y-86467417D01*
X131615894Y-86351434D01*
X131548013Y-86187553D01*
X131449464Y-86040065D01*
X131324035Y-85914636D01*
X131324031Y-85914633D01*
X131176548Y-85816087D01*
X131176546Y-85816086D01*
X131012667Y-85748206D01*
X131012663Y-85748205D01*
X130838691Y-85713600D01*
X130661309Y-85713600D01*
X130487336Y-85748205D01*
X130487332Y-85748206D01*
X130323453Y-85816086D01*
X130323451Y-85816087D01*
X130175968Y-85914633D01*
X130175963Y-85914637D01*
X130050537Y-86040063D01*
X130050533Y-86040068D01*
X129951987Y-86187551D01*
X129951986Y-86187553D01*
X129884106Y-86351432D01*
X129884105Y-86351436D01*
X129849500Y-86525408D01*
X125190500Y-86525408D01*
X125190500Y-85611164D01*
X125210462Y-85536664D01*
X125234141Y-85505805D01*
X127165805Y-83574141D01*
X127232600Y-83535577D01*
X127271164Y-83530500D01*
X144432453Y-83530500D01*
X144462419Y-83538529D01*
G37*
%TD.AperFunction*%
%TA.AperFunction,Conductor*%
G36*
X144514218Y-70860462D02*
G01*
X144560260Y-70901918D01*
X144634731Y-71004418D01*
X144775582Y-71145269D01*
X144775585Y-71145271D01*
X144936729Y-71262350D01*
X144936730Y-71262350D01*
X144936734Y-71262353D01*
X145044456Y-71317240D01*
X145101773Y-71368849D01*
X145125607Y-71442202D01*
X145109571Y-71517645D01*
X145057962Y-71574962D01*
X145044456Y-71582760D01*
X144936732Y-71637648D01*
X144936729Y-71637649D01*
X144775585Y-71754728D01*
X144634728Y-71895585D01*
X144517649Y-72056729D01*
X144517648Y-72056732D01*
X144427218Y-72234211D01*
X144427211Y-72234226D01*
X144365661Y-72423658D01*
X144365661Y-72423660D01*
X144365661Y-72423661D01*
X144334500Y-72620403D01*
X144334500Y-72819597D01*
X144355707Y-72953494D01*
X144365661Y-73016339D01*
X144365661Y-73016341D01*
X144427211Y-73205773D01*
X144427213Y-73205778D01*
X144427215Y-73205783D01*
X144495549Y-73339897D01*
X144517648Y-73383267D01*
X144517649Y-73383270D01*
X144634728Y-73544414D01*
X144634731Y-73544418D01*
X144775582Y-73685269D01*
X144811218Y-73711160D01*
X144936729Y-73802350D01*
X144936730Y-73802350D01*
X144936734Y-73802353D01*
X145033375Y-73851594D01*
X145044456Y-73857240D01*
X145101773Y-73908849D01*
X145125607Y-73982202D01*
X145109571Y-74057645D01*
X145057962Y-74114962D01*
X145044456Y-74122760D01*
X144936732Y-74177648D01*
X144936729Y-74177649D01*
X144775585Y-74294728D01*
X144634728Y-74435585D01*
X144517649Y-74596729D01*
X144517648Y-74596732D01*
X144427218Y-74774211D01*
X144427211Y-74774226D01*
X144365661Y-74963658D01*
X144365661Y-74963660D01*
X144365661Y-74963661D01*
X144334500Y-75160403D01*
X144334500Y-75359597D01*
X144365661Y-75556339D01*
X144365661Y-75556341D01*
X144427211Y-75745773D01*
X144427213Y-75745778D01*
X144427215Y-75745783D01*
X144495549Y-75879897D01*
X144517648Y-75923267D01*
X144517649Y-75923270D01*
X144634728Y-76084414D01*
X144634731Y-76084418D01*
X144775582Y-76225269D01*
X144775585Y-76225271D01*
X144936729Y-76342350D01*
X144936730Y-76342350D01*
X144936734Y-76342353D01*
X145033375Y-76391594D01*
X145044456Y-76397240D01*
X145101773Y-76448849D01*
X145125607Y-76522202D01*
X145109571Y-76597645D01*
X145057962Y-76654962D01*
X145044456Y-76662760D01*
X144936732Y-76717648D01*
X144936729Y-76717649D01*
X144775585Y-76834728D01*
X144634728Y-76975585D01*
X144517649Y-77136729D01*
X144517648Y-77136732D01*
X144427218Y-77314211D01*
X144427211Y-77314226D01*
X144365661Y-77503658D01*
X144365661Y-77503660D01*
X144365661Y-77503661D01*
X144334500Y-77700403D01*
X144334500Y-77899597D01*
X144365661Y-78096339D01*
X144365661Y-78096341D01*
X144427211Y-78285773D01*
X144427213Y-78285778D01*
X144427215Y-78285783D01*
X144427218Y-78285788D01*
X144517648Y-78463267D01*
X144517649Y-78463270D01*
X144616395Y-78599181D01*
X144634731Y-78624418D01*
X144775582Y-78765269D01*
X144775585Y-78765271D01*
X144936729Y-78882350D01*
X144936730Y-78882350D01*
X144936734Y-78882353D01*
X145044456Y-78937240D01*
X145101773Y-78988849D01*
X145125607Y-79062202D01*
X145109571Y-79137645D01*
X145057962Y-79194962D01*
X145044456Y-79202760D01*
X144936732Y-79257648D01*
X144936729Y-79257649D01*
X144775585Y-79374728D01*
X144634728Y-79515585D01*
X144517649Y-79676729D01*
X144517648Y-79676732D01*
X144427218Y-79854211D01*
X144427211Y-79854226D01*
X144365661Y-80043658D01*
X144365661Y-80043660D01*
X144365661Y-80043661D01*
X144334500Y-80240403D01*
X144334500Y-80439597D01*
X144365661Y-80636339D01*
X144365661Y-80636341D01*
X144427211Y-80825773D01*
X144427213Y-80825778D01*
X144427215Y-80825783D01*
X144427218Y-80825788D01*
X144517648Y-81003267D01*
X144517649Y-81003270D01*
X144634728Y-81164414D01*
X144634731Y-81164418D01*
X144775582Y-81305269D01*
X144775585Y-81305271D01*
X144936729Y-81422350D01*
X144936730Y-81422350D01*
X144936734Y-81422353D01*
X145044456Y-81477240D01*
X145101773Y-81528849D01*
X145125607Y-81602202D01*
X145109571Y-81677645D01*
X145057962Y-81734962D01*
X145044456Y-81742760D01*
X144936732Y-81797648D01*
X144936729Y-81797649D01*
X144775585Y-81914728D01*
X144634733Y-82055580D01*
X144634724Y-82055591D01*
X144552996Y-82168080D01*
X144493056Y-82216618D01*
X144432453Y-82229500D01*
X126875927Y-82229500D01*
X126750256Y-82254498D01*
X126750254Y-82254499D01*
X126701220Y-82274810D01*
X126631882Y-82303530D01*
X126631876Y-82303532D01*
X126631874Y-82303534D01*
X126631871Y-82303535D01*
X126631871Y-82303536D01*
X126525332Y-82374722D01*
X126525330Y-82374723D01*
X124804859Y-84095195D01*
X124738064Y-84133759D01*
X124660936Y-84133759D01*
X124594141Y-84095195D01*
X124555577Y-84028400D01*
X124550500Y-83989836D01*
X124550500Y-79171157D01*
X129199500Y-79171157D01*
X129199500Y-79328842D01*
X129230262Y-79483494D01*
X129230263Y-79483498D01*
X129290604Y-79629176D01*
X129290605Y-79629178D01*
X129290606Y-79629179D01*
X129378211Y-79760289D01*
X129489711Y-79871789D01*
X129620821Y-79959394D01*
X129766503Y-80019737D01*
X129921158Y-80050500D01*
X130078842Y-80050500D01*
X130233497Y-80019737D01*
X130379179Y-79959394D01*
X130429739Y-79925611D01*
X130502773Y-79900819D01*
X130512519Y-79900500D01*
X130979981Y-79900500D01*
X131054481Y-79920462D01*
X131062761Y-79925611D01*
X131113319Y-79959393D01*
X131113320Y-79959393D01*
X131113321Y-79959394D01*
X131259003Y-80019737D01*
X131413658Y-80050500D01*
X131571342Y-80050500D01*
X131725997Y-80019737D01*
X131871679Y-79959394D01*
X132002789Y-79871789D01*
X132114289Y-79760289D01*
X132201894Y-79629179D01*
X132262237Y-79483497D01*
X132293000Y-79328842D01*
X132293000Y-79171158D01*
X132262237Y-79016503D01*
X132206670Y-78882351D01*
X132201895Y-78870823D01*
X132201894Y-78870821D01*
X132114289Y-78739711D01*
X132002789Y-78628211D01*
X131871679Y-78540606D01*
X131871678Y-78540605D01*
X131871676Y-78540604D01*
X131725998Y-78480263D01*
X131725994Y-78480262D01*
X131571342Y-78449500D01*
X131413658Y-78449500D01*
X131259005Y-78480262D01*
X131259001Y-78480263D01*
X131113322Y-78540605D01*
X131113319Y-78540606D01*
X131062761Y-78574389D01*
X130989727Y-78599181D01*
X130979981Y-78599500D01*
X130512519Y-78599500D01*
X130438019Y-78579538D01*
X130429739Y-78574389D01*
X130379180Y-78540606D01*
X130379177Y-78540605D01*
X130233498Y-78480263D01*
X130233494Y-78480262D01*
X130078842Y-78449500D01*
X129921158Y-78449500D01*
X129766505Y-78480262D01*
X129766501Y-78480263D01*
X129620823Y-78540604D01*
X129489707Y-78628214D01*
X129378214Y-78739707D01*
X129290604Y-78870823D01*
X129230263Y-79016501D01*
X129230262Y-79016505D01*
X129199500Y-79171157D01*
X124550500Y-79171157D01*
X124550500Y-72241164D01*
X124570462Y-72166664D01*
X124594141Y-72135805D01*
X125845805Y-70884141D01*
X125912600Y-70845577D01*
X125951164Y-70840500D01*
X144439718Y-70840500D01*
X144514218Y-70860462D01*
G37*
%TD.AperFunction*%
%TA.AperFunction,Conductor*%
G36*
X118890859Y-62559804D02*
G01*
X118929423Y-62626599D01*
X118933009Y-62653838D01*
X118934040Y-62653757D01*
X118934498Y-62659586D01*
X118965661Y-62856339D01*
X118965661Y-62856341D01*
X119027211Y-63045773D01*
X119027213Y-63045778D01*
X119027215Y-63045783D01*
X119113534Y-63215194D01*
X119117648Y-63223267D01*
X119117649Y-63223270D01*
X119234728Y-63384414D01*
X119234731Y-63384418D01*
X119375582Y-63525269D01*
X119375585Y-63525271D01*
X119536729Y-63642350D01*
X119536730Y-63642350D01*
X119536734Y-63642353D01*
X119644456Y-63697240D01*
X119701773Y-63748849D01*
X119725607Y-63822202D01*
X119709571Y-63897645D01*
X119657962Y-63954962D01*
X119644456Y-63962760D01*
X119536732Y-64017648D01*
X119536729Y-64017649D01*
X119375585Y-64134728D01*
X119234728Y-64275585D01*
X119117649Y-64436729D01*
X119117648Y-64436732D01*
X119027218Y-64614211D01*
X119027211Y-64614226D01*
X118965661Y-64803658D01*
X118965661Y-64803660D01*
X118965661Y-64803661D01*
X118934500Y-65000403D01*
X118934500Y-65199597D01*
X118965661Y-65396339D01*
X118965661Y-65396341D01*
X119027211Y-65585773D01*
X119027213Y-65585778D01*
X119027215Y-65585783D01*
X119115728Y-65759500D01*
X119117648Y-65763267D01*
X119117649Y-65763270D01*
X119234728Y-65924414D01*
X119234731Y-65924418D01*
X119375582Y-66065269D01*
X119375585Y-66065271D01*
X119536729Y-66182350D01*
X119536730Y-66182350D01*
X119536734Y-66182353D01*
X119644456Y-66237240D01*
X119701773Y-66288849D01*
X119725607Y-66362202D01*
X119709571Y-66437645D01*
X119657962Y-66494962D01*
X119644456Y-66502760D01*
X119536732Y-66557648D01*
X119536729Y-66557649D01*
X119375585Y-66674728D01*
X119234728Y-66815585D01*
X119117649Y-66976729D01*
X119117648Y-66976732D01*
X119027218Y-67154211D01*
X119027211Y-67154226D01*
X118965661Y-67343658D01*
X118965661Y-67343660D01*
X118965661Y-67343661D01*
X118954809Y-67412181D01*
X118934500Y-67540406D01*
X118934500Y-67739594D01*
X118954885Y-67868308D01*
X118946822Y-67945013D01*
X118913078Y-67996974D01*
X116774859Y-70135194D01*
X116708064Y-70173758D01*
X116630936Y-70173758D01*
X116564141Y-70135194D01*
X116525577Y-70068399D01*
X116520500Y-70029835D01*
X116520500Y-64781163D01*
X116540462Y-64706663D01*
X116564137Y-64675808D01*
X118680141Y-62559803D01*
X118746936Y-62521240D01*
X118824064Y-62521240D01*
X118890859Y-62559804D01*
G37*
%TD.AperFunction*%
%TD*%
%TA.AperFunction,Conductor*%
%TO.N,NEUTRAL*%
G36*
X70663039Y-115959685D02*
G01*
X70708794Y-116012489D01*
X70720000Y-116064000D01*
X70720000Y-121120000D01*
X67150000Y-121120000D01*
X67150000Y-123530000D01*
X70720000Y-123530000D01*
X70720000Y-135786000D01*
X70700315Y-135853039D01*
X70647511Y-135898794D01*
X70596000Y-135910000D01*
X66734000Y-135910000D01*
X66666961Y-135890315D01*
X66621206Y-135837511D01*
X66610000Y-135786000D01*
X66610000Y-116064000D01*
X66629685Y-115996961D01*
X66682489Y-115951206D01*
X66734000Y-115940000D01*
X70596000Y-115940000D01*
X70663039Y-115959685D01*
G37*
%TD.AperFunction*%
%TD*%
%TA.AperFunction,Conductor*%
%TO.N,NEUTRAL*%
G36*
X95973039Y-121139685D02*
G01*
X96018794Y-121192489D01*
X96030000Y-121244000D01*
X96030000Y-123406000D01*
X96010315Y-123473039D01*
X95957511Y-123518794D01*
X95906000Y-123530000D01*
X67150000Y-123530000D01*
X67150000Y-121120000D01*
X70720000Y-121120000D01*
X95906000Y-121120000D01*
X95973039Y-121139685D01*
G37*
%TD.AperFunction*%
%TD*%
M02*
